%TF.GenerationSoftware,KiCad,Pcbnew,(5.1.6)-1*%
%TF.CreationDate,2021-08-09T18:11:52+02:00*%
%TF.ProjectId,4ch_Sampler_main,3463685f-5361-46d7-906c-65725f6d6169,rev?*%
%TF.SameCoordinates,Original*%
%TF.FileFunction,Legend,Bot*%
%TF.FilePolarity,Positive*%
%FSLAX46Y46*%
G04 Gerber Fmt 4.6, Leading zero omitted, Abs format (unit mm)*
G04 Created by KiCad (PCBNEW (5.1.6)-1) date 2021-08-09 18:11:52*
%MOMM*%
%LPD*%
G01*
G04 APERTURE LIST*
%ADD10C,0.120000*%
%ADD11C,0.150000*%
G04 APERTURE END LIST*
D10*
%TO.C,Xiao1*%
X125255000Y-83645000D02*
X122595000Y-83645000D01*
X125255000Y-83645000D02*
X125255000Y-98945000D01*
X125255000Y-98945000D02*
X122595000Y-98945000D01*
X122595000Y-83645000D02*
X122595000Y-98945000D01*
X122595000Y-81045000D02*
X122595000Y-82375000D01*
X123925000Y-81045000D02*
X122595000Y-81045000D01*
%TO.C,Xiao2*%
X109080000Y-83645000D02*
X106420000Y-83645000D01*
X109080000Y-83645000D02*
X109080000Y-98945000D01*
X109080000Y-98945000D02*
X106420000Y-98945000D01*
X106420000Y-83645000D02*
X106420000Y-98945000D01*
X106420000Y-81045000D02*
X106420000Y-82375000D01*
X107750000Y-81045000D02*
X106420000Y-81045000D01*
%TO.C,Xiao3*%
X113155000Y-103755000D02*
X113155000Y-101095000D01*
X115755000Y-103755000D02*
X113155000Y-103755000D01*
X115755000Y-101095000D02*
X113155000Y-101095000D01*
X115755000Y-103755000D02*
X115755000Y-101095000D01*
X117025000Y-103755000D02*
X118355000Y-103755000D01*
X118355000Y-103755000D02*
X118355000Y-102425000D01*
%TO.C,U2*%
X119330000Y-63940000D02*
X119330000Y-65190000D01*
X119330000Y-65190000D02*
X109050000Y-65190000D01*
X109050000Y-65190000D02*
X109050000Y-60690000D01*
X109050000Y-60690000D02*
X119330000Y-60690000D01*
X119330000Y-60690000D02*
X119330000Y-61940000D01*
X119390000Y-68190000D02*
X108990000Y-68190000D01*
X108990000Y-68190000D02*
X108990000Y-57690000D01*
X108990000Y-57690000D02*
X119390000Y-57690000D01*
X119390000Y-57690000D02*
X119390000Y-68190000D01*
X119330000Y-61940000D02*
G75*
G03*
X119330000Y-63940000I0J-1000000D01*
G01*
%TO.C,J6*%
X130210000Y-139290000D02*
X130210000Y-130170000D01*
X130210000Y-130170000D02*
X102010000Y-130170000D01*
X102010000Y-130170000D02*
X102010000Y-139290000D01*
X102010000Y-139290000D02*
X130210000Y-139290000D01*
X118160000Y-139290000D02*
X118160000Y-137980000D01*
X118160000Y-137980000D02*
X128910000Y-137980000D01*
X128910000Y-137980000D02*
X128910000Y-131480000D01*
X128910000Y-131480000D02*
X103310000Y-131480000D01*
X103310000Y-131480000D02*
X103310000Y-137980000D01*
X103310000Y-137980000D02*
X114060000Y-137980000D01*
X114060000Y-137980000D02*
X114060000Y-137980000D01*
X114060000Y-137980000D02*
X114060000Y-139290000D01*
X125000000Y-139680000D02*
X125500000Y-140680000D01*
X125500000Y-140680000D02*
X124500000Y-140680000D01*
X124500000Y-140680000D02*
X125000000Y-139680000D01*
%TO.C,C2*%
X108520000Y-45500000D02*
G75*
G03*
X108520000Y-45500000I-3270000J0D01*
G01*
X105250000Y-48730000D02*
X105250000Y-42270000D01*
X105290000Y-48730000D02*
X105290000Y-42270000D01*
X105330000Y-48730000D02*
X105330000Y-42270000D01*
X105370000Y-48728000D02*
X105370000Y-42272000D01*
X105410000Y-48727000D02*
X105410000Y-42273000D01*
X105450000Y-48724000D02*
X105450000Y-42276000D01*
X105490000Y-48722000D02*
X105490000Y-46540000D01*
X105490000Y-44460000D02*
X105490000Y-42278000D01*
X105530000Y-48718000D02*
X105530000Y-46540000D01*
X105530000Y-44460000D02*
X105530000Y-42282000D01*
X105570000Y-48715000D02*
X105570000Y-46540000D01*
X105570000Y-44460000D02*
X105570000Y-42285000D01*
X105610000Y-48711000D02*
X105610000Y-46540000D01*
X105610000Y-44460000D02*
X105610000Y-42289000D01*
X105650000Y-48706000D02*
X105650000Y-46540000D01*
X105650000Y-44460000D02*
X105650000Y-42294000D01*
X105690000Y-48701000D02*
X105690000Y-46540000D01*
X105690000Y-44460000D02*
X105690000Y-42299000D01*
X105730000Y-48695000D02*
X105730000Y-46540000D01*
X105730000Y-44460000D02*
X105730000Y-42305000D01*
X105770000Y-48689000D02*
X105770000Y-46540000D01*
X105770000Y-44460000D02*
X105770000Y-42311000D01*
X105810000Y-48682000D02*
X105810000Y-46540000D01*
X105810000Y-44460000D02*
X105810000Y-42318000D01*
X105850000Y-48675000D02*
X105850000Y-46540000D01*
X105850000Y-44460000D02*
X105850000Y-42325000D01*
X105890000Y-48667000D02*
X105890000Y-46540000D01*
X105890000Y-44460000D02*
X105890000Y-42333000D01*
X105930000Y-48659000D02*
X105930000Y-46540000D01*
X105930000Y-44460000D02*
X105930000Y-42341000D01*
X105971000Y-48650000D02*
X105971000Y-46540000D01*
X105971000Y-44460000D02*
X105971000Y-42350000D01*
X106011000Y-48641000D02*
X106011000Y-46540000D01*
X106011000Y-44460000D02*
X106011000Y-42359000D01*
X106051000Y-48631000D02*
X106051000Y-46540000D01*
X106051000Y-44460000D02*
X106051000Y-42369000D01*
X106091000Y-48621000D02*
X106091000Y-46540000D01*
X106091000Y-44460000D02*
X106091000Y-42379000D01*
X106131000Y-48610000D02*
X106131000Y-46540000D01*
X106131000Y-44460000D02*
X106131000Y-42390000D01*
X106171000Y-48598000D02*
X106171000Y-46540000D01*
X106171000Y-44460000D02*
X106171000Y-42402000D01*
X106211000Y-48586000D02*
X106211000Y-46540000D01*
X106211000Y-44460000D02*
X106211000Y-42414000D01*
X106251000Y-48574000D02*
X106251000Y-46540000D01*
X106251000Y-44460000D02*
X106251000Y-42426000D01*
X106291000Y-48561000D02*
X106291000Y-46540000D01*
X106291000Y-44460000D02*
X106291000Y-42439000D01*
X106331000Y-48547000D02*
X106331000Y-46540000D01*
X106331000Y-44460000D02*
X106331000Y-42453000D01*
X106371000Y-48533000D02*
X106371000Y-46540000D01*
X106371000Y-44460000D02*
X106371000Y-42467000D01*
X106411000Y-48518000D02*
X106411000Y-46540000D01*
X106411000Y-44460000D02*
X106411000Y-42482000D01*
X106451000Y-48502000D02*
X106451000Y-46540000D01*
X106451000Y-44460000D02*
X106451000Y-42498000D01*
X106491000Y-48486000D02*
X106491000Y-46540000D01*
X106491000Y-44460000D02*
X106491000Y-42514000D01*
X106531000Y-48470000D02*
X106531000Y-46540000D01*
X106531000Y-44460000D02*
X106531000Y-42530000D01*
X106571000Y-48452000D02*
X106571000Y-46540000D01*
X106571000Y-44460000D02*
X106571000Y-42548000D01*
X106611000Y-48434000D02*
X106611000Y-46540000D01*
X106611000Y-44460000D02*
X106611000Y-42566000D01*
X106651000Y-48416000D02*
X106651000Y-46540000D01*
X106651000Y-44460000D02*
X106651000Y-42584000D01*
X106691000Y-48396000D02*
X106691000Y-46540000D01*
X106691000Y-44460000D02*
X106691000Y-42604000D01*
X106731000Y-48376000D02*
X106731000Y-46540000D01*
X106731000Y-44460000D02*
X106731000Y-42624000D01*
X106771000Y-48356000D02*
X106771000Y-46540000D01*
X106771000Y-44460000D02*
X106771000Y-42644000D01*
X106811000Y-48334000D02*
X106811000Y-46540000D01*
X106811000Y-44460000D02*
X106811000Y-42666000D01*
X106851000Y-48312000D02*
X106851000Y-46540000D01*
X106851000Y-44460000D02*
X106851000Y-42688000D01*
X106891000Y-48290000D02*
X106891000Y-46540000D01*
X106891000Y-44460000D02*
X106891000Y-42710000D01*
X106931000Y-48266000D02*
X106931000Y-46540000D01*
X106931000Y-44460000D02*
X106931000Y-42734000D01*
X106971000Y-48242000D02*
X106971000Y-46540000D01*
X106971000Y-44460000D02*
X106971000Y-42758000D01*
X107011000Y-48216000D02*
X107011000Y-46540000D01*
X107011000Y-44460000D02*
X107011000Y-42784000D01*
X107051000Y-48190000D02*
X107051000Y-46540000D01*
X107051000Y-44460000D02*
X107051000Y-42810000D01*
X107091000Y-48164000D02*
X107091000Y-46540000D01*
X107091000Y-44460000D02*
X107091000Y-42836000D01*
X107131000Y-48136000D02*
X107131000Y-46540000D01*
X107131000Y-44460000D02*
X107131000Y-42864000D01*
X107171000Y-48107000D02*
X107171000Y-46540000D01*
X107171000Y-44460000D02*
X107171000Y-42893000D01*
X107211000Y-48078000D02*
X107211000Y-46540000D01*
X107211000Y-44460000D02*
X107211000Y-42922000D01*
X107251000Y-48048000D02*
X107251000Y-46540000D01*
X107251000Y-44460000D02*
X107251000Y-42952000D01*
X107291000Y-48016000D02*
X107291000Y-46540000D01*
X107291000Y-44460000D02*
X107291000Y-42984000D01*
X107331000Y-47984000D02*
X107331000Y-46540000D01*
X107331000Y-44460000D02*
X107331000Y-43016000D01*
X107371000Y-47950000D02*
X107371000Y-46540000D01*
X107371000Y-44460000D02*
X107371000Y-43050000D01*
X107411000Y-47916000D02*
X107411000Y-46540000D01*
X107411000Y-44460000D02*
X107411000Y-43084000D01*
X107451000Y-47880000D02*
X107451000Y-46540000D01*
X107451000Y-44460000D02*
X107451000Y-43120000D01*
X107491000Y-47843000D02*
X107491000Y-46540000D01*
X107491000Y-44460000D02*
X107491000Y-43157000D01*
X107531000Y-47805000D02*
X107531000Y-46540000D01*
X107531000Y-44460000D02*
X107531000Y-43195000D01*
X107571000Y-47765000D02*
X107571000Y-43235000D01*
X107611000Y-47724000D02*
X107611000Y-43276000D01*
X107651000Y-47682000D02*
X107651000Y-43318000D01*
X107691000Y-47637000D02*
X107691000Y-43363000D01*
X107731000Y-47592000D02*
X107731000Y-43408000D01*
X107771000Y-47544000D02*
X107771000Y-43456000D01*
X107811000Y-47495000D02*
X107811000Y-43505000D01*
X107851000Y-47444000D02*
X107851000Y-43556000D01*
X107891000Y-47390000D02*
X107891000Y-43610000D01*
X107931000Y-47334000D02*
X107931000Y-43666000D01*
X107971000Y-47276000D02*
X107971000Y-43724000D01*
X108011000Y-47214000D02*
X108011000Y-43786000D01*
X108051000Y-47150000D02*
X108051000Y-43850000D01*
X108091000Y-47081000D02*
X108091000Y-43919000D01*
X108131000Y-47009000D02*
X108131000Y-43991000D01*
X108171000Y-46932000D02*
X108171000Y-44068000D01*
X108211000Y-46850000D02*
X108211000Y-44150000D01*
X108251000Y-46762000D02*
X108251000Y-44238000D01*
X108291000Y-46665000D02*
X108291000Y-44335000D01*
X108331000Y-46559000D02*
X108331000Y-44441000D01*
X108371000Y-46440000D02*
X108371000Y-44560000D01*
X108411000Y-46302000D02*
X108411000Y-44698000D01*
X108451000Y-46133000D02*
X108451000Y-44867000D01*
X108491000Y-45902000D02*
X108491000Y-45098000D01*
X101749759Y-47339000D02*
X102379759Y-47339000D01*
X102064759Y-47654000D02*
X102064759Y-47024000D01*
%TO.C,C1*%
X116020000Y-45500000D02*
G75*
G03*
X116020000Y-45500000I-3270000J0D01*
G01*
X112750000Y-48730000D02*
X112750000Y-42270000D01*
X112790000Y-48730000D02*
X112790000Y-42270000D01*
X112830000Y-48730000D02*
X112830000Y-42270000D01*
X112870000Y-48728000D02*
X112870000Y-42272000D01*
X112910000Y-48727000D02*
X112910000Y-42273000D01*
X112950000Y-48724000D02*
X112950000Y-42276000D01*
X112990000Y-48722000D02*
X112990000Y-46540000D01*
X112990000Y-44460000D02*
X112990000Y-42278000D01*
X113030000Y-48718000D02*
X113030000Y-46540000D01*
X113030000Y-44460000D02*
X113030000Y-42282000D01*
X113070000Y-48715000D02*
X113070000Y-46540000D01*
X113070000Y-44460000D02*
X113070000Y-42285000D01*
X113110000Y-48711000D02*
X113110000Y-46540000D01*
X113110000Y-44460000D02*
X113110000Y-42289000D01*
X113150000Y-48706000D02*
X113150000Y-46540000D01*
X113150000Y-44460000D02*
X113150000Y-42294000D01*
X113190000Y-48701000D02*
X113190000Y-46540000D01*
X113190000Y-44460000D02*
X113190000Y-42299000D01*
X113230000Y-48695000D02*
X113230000Y-46540000D01*
X113230000Y-44460000D02*
X113230000Y-42305000D01*
X113270000Y-48689000D02*
X113270000Y-46540000D01*
X113270000Y-44460000D02*
X113270000Y-42311000D01*
X113310000Y-48682000D02*
X113310000Y-46540000D01*
X113310000Y-44460000D02*
X113310000Y-42318000D01*
X113350000Y-48675000D02*
X113350000Y-46540000D01*
X113350000Y-44460000D02*
X113350000Y-42325000D01*
X113390000Y-48667000D02*
X113390000Y-46540000D01*
X113390000Y-44460000D02*
X113390000Y-42333000D01*
X113430000Y-48659000D02*
X113430000Y-46540000D01*
X113430000Y-44460000D02*
X113430000Y-42341000D01*
X113471000Y-48650000D02*
X113471000Y-46540000D01*
X113471000Y-44460000D02*
X113471000Y-42350000D01*
X113511000Y-48641000D02*
X113511000Y-46540000D01*
X113511000Y-44460000D02*
X113511000Y-42359000D01*
X113551000Y-48631000D02*
X113551000Y-46540000D01*
X113551000Y-44460000D02*
X113551000Y-42369000D01*
X113591000Y-48621000D02*
X113591000Y-46540000D01*
X113591000Y-44460000D02*
X113591000Y-42379000D01*
X113631000Y-48610000D02*
X113631000Y-46540000D01*
X113631000Y-44460000D02*
X113631000Y-42390000D01*
X113671000Y-48598000D02*
X113671000Y-46540000D01*
X113671000Y-44460000D02*
X113671000Y-42402000D01*
X113711000Y-48586000D02*
X113711000Y-46540000D01*
X113711000Y-44460000D02*
X113711000Y-42414000D01*
X113751000Y-48574000D02*
X113751000Y-46540000D01*
X113751000Y-44460000D02*
X113751000Y-42426000D01*
X113791000Y-48561000D02*
X113791000Y-46540000D01*
X113791000Y-44460000D02*
X113791000Y-42439000D01*
X113831000Y-48547000D02*
X113831000Y-46540000D01*
X113831000Y-44460000D02*
X113831000Y-42453000D01*
X113871000Y-48533000D02*
X113871000Y-46540000D01*
X113871000Y-44460000D02*
X113871000Y-42467000D01*
X113911000Y-48518000D02*
X113911000Y-46540000D01*
X113911000Y-44460000D02*
X113911000Y-42482000D01*
X113951000Y-48502000D02*
X113951000Y-46540000D01*
X113951000Y-44460000D02*
X113951000Y-42498000D01*
X113991000Y-48486000D02*
X113991000Y-46540000D01*
X113991000Y-44460000D02*
X113991000Y-42514000D01*
X114031000Y-48470000D02*
X114031000Y-46540000D01*
X114031000Y-44460000D02*
X114031000Y-42530000D01*
X114071000Y-48452000D02*
X114071000Y-46540000D01*
X114071000Y-44460000D02*
X114071000Y-42548000D01*
X114111000Y-48434000D02*
X114111000Y-46540000D01*
X114111000Y-44460000D02*
X114111000Y-42566000D01*
X114151000Y-48416000D02*
X114151000Y-46540000D01*
X114151000Y-44460000D02*
X114151000Y-42584000D01*
X114191000Y-48396000D02*
X114191000Y-46540000D01*
X114191000Y-44460000D02*
X114191000Y-42604000D01*
X114231000Y-48376000D02*
X114231000Y-46540000D01*
X114231000Y-44460000D02*
X114231000Y-42624000D01*
X114271000Y-48356000D02*
X114271000Y-46540000D01*
X114271000Y-44460000D02*
X114271000Y-42644000D01*
X114311000Y-48334000D02*
X114311000Y-46540000D01*
X114311000Y-44460000D02*
X114311000Y-42666000D01*
X114351000Y-48312000D02*
X114351000Y-46540000D01*
X114351000Y-44460000D02*
X114351000Y-42688000D01*
X114391000Y-48290000D02*
X114391000Y-46540000D01*
X114391000Y-44460000D02*
X114391000Y-42710000D01*
X114431000Y-48266000D02*
X114431000Y-46540000D01*
X114431000Y-44460000D02*
X114431000Y-42734000D01*
X114471000Y-48242000D02*
X114471000Y-46540000D01*
X114471000Y-44460000D02*
X114471000Y-42758000D01*
X114511000Y-48216000D02*
X114511000Y-46540000D01*
X114511000Y-44460000D02*
X114511000Y-42784000D01*
X114551000Y-48190000D02*
X114551000Y-46540000D01*
X114551000Y-44460000D02*
X114551000Y-42810000D01*
X114591000Y-48164000D02*
X114591000Y-46540000D01*
X114591000Y-44460000D02*
X114591000Y-42836000D01*
X114631000Y-48136000D02*
X114631000Y-46540000D01*
X114631000Y-44460000D02*
X114631000Y-42864000D01*
X114671000Y-48107000D02*
X114671000Y-46540000D01*
X114671000Y-44460000D02*
X114671000Y-42893000D01*
X114711000Y-48078000D02*
X114711000Y-46540000D01*
X114711000Y-44460000D02*
X114711000Y-42922000D01*
X114751000Y-48048000D02*
X114751000Y-46540000D01*
X114751000Y-44460000D02*
X114751000Y-42952000D01*
X114791000Y-48016000D02*
X114791000Y-46540000D01*
X114791000Y-44460000D02*
X114791000Y-42984000D01*
X114831000Y-47984000D02*
X114831000Y-46540000D01*
X114831000Y-44460000D02*
X114831000Y-43016000D01*
X114871000Y-47950000D02*
X114871000Y-46540000D01*
X114871000Y-44460000D02*
X114871000Y-43050000D01*
X114911000Y-47916000D02*
X114911000Y-46540000D01*
X114911000Y-44460000D02*
X114911000Y-43084000D01*
X114951000Y-47880000D02*
X114951000Y-46540000D01*
X114951000Y-44460000D02*
X114951000Y-43120000D01*
X114991000Y-47843000D02*
X114991000Y-46540000D01*
X114991000Y-44460000D02*
X114991000Y-43157000D01*
X115031000Y-47805000D02*
X115031000Y-46540000D01*
X115031000Y-44460000D02*
X115031000Y-43195000D01*
X115071000Y-47765000D02*
X115071000Y-43235000D01*
X115111000Y-47724000D02*
X115111000Y-43276000D01*
X115151000Y-47682000D02*
X115151000Y-43318000D01*
X115191000Y-47637000D02*
X115191000Y-43363000D01*
X115231000Y-47592000D02*
X115231000Y-43408000D01*
X115271000Y-47544000D02*
X115271000Y-43456000D01*
X115311000Y-47495000D02*
X115311000Y-43505000D01*
X115351000Y-47444000D02*
X115351000Y-43556000D01*
X115391000Y-47390000D02*
X115391000Y-43610000D01*
X115431000Y-47334000D02*
X115431000Y-43666000D01*
X115471000Y-47276000D02*
X115471000Y-43724000D01*
X115511000Y-47214000D02*
X115511000Y-43786000D01*
X115551000Y-47150000D02*
X115551000Y-43850000D01*
X115591000Y-47081000D02*
X115591000Y-43919000D01*
X115631000Y-47009000D02*
X115631000Y-43991000D01*
X115671000Y-46932000D02*
X115671000Y-44068000D01*
X115711000Y-46850000D02*
X115711000Y-44150000D01*
X115751000Y-46762000D02*
X115751000Y-44238000D01*
X115791000Y-46665000D02*
X115791000Y-44335000D01*
X115831000Y-46559000D02*
X115831000Y-44441000D01*
X115871000Y-46440000D02*
X115871000Y-44560000D01*
X115911000Y-46302000D02*
X115911000Y-44698000D01*
X115951000Y-46133000D02*
X115951000Y-44867000D01*
X115991000Y-45902000D02*
X115991000Y-45098000D01*
X109249759Y-47339000D02*
X109879759Y-47339000D01*
X109564759Y-47654000D02*
X109564759Y-47024000D01*
%TO.C,Xiao1*%
D11*
X125877380Y-79497380D02*
X125210714Y-80497380D01*
X125210714Y-79497380D02*
X125877380Y-80497380D01*
X124829761Y-80497380D02*
X124829761Y-79830714D01*
X124829761Y-79497380D02*
X124877380Y-79545000D01*
X124829761Y-79592619D01*
X124782142Y-79545000D01*
X124829761Y-79497380D01*
X124829761Y-79592619D01*
X123925000Y-80497380D02*
X123925000Y-79973571D01*
X123972619Y-79878333D01*
X124067857Y-79830714D01*
X124258333Y-79830714D01*
X124353571Y-79878333D01*
X123925000Y-80449761D02*
X124020238Y-80497380D01*
X124258333Y-80497380D01*
X124353571Y-80449761D01*
X124401190Y-80354523D01*
X124401190Y-80259285D01*
X124353571Y-80164047D01*
X124258333Y-80116428D01*
X124020238Y-80116428D01*
X123925000Y-80068809D01*
X123305952Y-80497380D02*
X123401190Y-80449761D01*
X123448809Y-80402142D01*
X123496428Y-80306904D01*
X123496428Y-80021190D01*
X123448809Y-79925952D01*
X123401190Y-79878333D01*
X123305952Y-79830714D01*
X123163095Y-79830714D01*
X123067857Y-79878333D01*
X123020238Y-79925952D01*
X122972619Y-80021190D01*
X122972619Y-80306904D01*
X123020238Y-80402142D01*
X123067857Y-80449761D01*
X123163095Y-80497380D01*
X123305952Y-80497380D01*
X122020238Y-80497380D02*
X122591666Y-80497380D01*
X122305952Y-80497380D02*
X122305952Y-79497380D01*
X122401190Y-79640238D01*
X122496428Y-79735476D01*
X122591666Y-79783095D01*
%TO.C,Xiao2*%
X109702380Y-79497380D02*
X109035714Y-80497380D01*
X109035714Y-79497380D02*
X109702380Y-80497380D01*
X108654761Y-80497380D02*
X108654761Y-79830714D01*
X108654761Y-79497380D02*
X108702380Y-79545000D01*
X108654761Y-79592619D01*
X108607142Y-79545000D01*
X108654761Y-79497380D01*
X108654761Y-79592619D01*
X107750000Y-80497380D02*
X107750000Y-79973571D01*
X107797619Y-79878333D01*
X107892857Y-79830714D01*
X108083333Y-79830714D01*
X108178571Y-79878333D01*
X107750000Y-80449761D02*
X107845238Y-80497380D01*
X108083333Y-80497380D01*
X108178571Y-80449761D01*
X108226190Y-80354523D01*
X108226190Y-80259285D01*
X108178571Y-80164047D01*
X108083333Y-80116428D01*
X107845238Y-80116428D01*
X107750000Y-80068809D01*
X107130952Y-80497380D02*
X107226190Y-80449761D01*
X107273809Y-80402142D01*
X107321428Y-80306904D01*
X107321428Y-80021190D01*
X107273809Y-79925952D01*
X107226190Y-79878333D01*
X107130952Y-79830714D01*
X106988095Y-79830714D01*
X106892857Y-79878333D01*
X106845238Y-79925952D01*
X106797619Y-80021190D01*
X106797619Y-80306904D01*
X106845238Y-80402142D01*
X106892857Y-80449761D01*
X106988095Y-80497380D01*
X107130952Y-80497380D01*
X106416666Y-79592619D02*
X106369047Y-79545000D01*
X106273809Y-79497380D01*
X106035714Y-79497380D01*
X105940476Y-79545000D01*
X105892857Y-79592619D01*
X105845238Y-79687857D01*
X105845238Y-79783095D01*
X105892857Y-79925952D01*
X106464285Y-80497380D01*
X105845238Y-80497380D01*
%TO.C,Xiao3*%
X118807380Y-100472619D02*
X119807380Y-101139285D01*
X118807380Y-101139285D02*
X119807380Y-100472619D01*
X119807380Y-101520238D02*
X119140714Y-101520238D01*
X118807380Y-101520238D02*
X118855000Y-101472619D01*
X118902619Y-101520238D01*
X118855000Y-101567857D01*
X118807380Y-101520238D01*
X118902619Y-101520238D01*
X119807380Y-102425000D02*
X119283571Y-102425000D01*
X119188333Y-102377380D01*
X119140714Y-102282142D01*
X119140714Y-102091666D01*
X119188333Y-101996428D01*
X119759761Y-102425000D02*
X119807380Y-102329761D01*
X119807380Y-102091666D01*
X119759761Y-101996428D01*
X119664523Y-101948809D01*
X119569285Y-101948809D01*
X119474047Y-101996428D01*
X119426428Y-102091666D01*
X119426428Y-102329761D01*
X119378809Y-102425000D01*
X119807380Y-103044047D02*
X119759761Y-102948809D01*
X119712142Y-102901190D01*
X119616904Y-102853571D01*
X119331190Y-102853571D01*
X119235952Y-102901190D01*
X119188333Y-102948809D01*
X119140714Y-103044047D01*
X119140714Y-103186904D01*
X119188333Y-103282142D01*
X119235952Y-103329761D01*
X119331190Y-103377380D01*
X119616904Y-103377380D01*
X119712142Y-103329761D01*
X119759761Y-103282142D01*
X119807380Y-103186904D01*
X119807380Y-103044047D01*
X118807380Y-103710714D02*
X118807380Y-104329761D01*
X119188333Y-103996428D01*
X119188333Y-104139285D01*
X119235952Y-104234523D01*
X119283571Y-104282142D01*
X119378809Y-104329761D01*
X119616904Y-104329761D01*
X119712142Y-104282142D01*
X119759761Y-104234523D01*
X119807380Y-104139285D01*
X119807380Y-103853571D01*
X119759761Y-103758333D01*
X119712142Y-103710714D01*
%TO.C,U2*%
X119782380Y-62178095D02*
X120591904Y-62178095D01*
X120687142Y-62225714D01*
X120734761Y-62273333D01*
X120782380Y-62368571D01*
X120782380Y-62559047D01*
X120734761Y-62654285D01*
X120687142Y-62701904D01*
X120591904Y-62749523D01*
X119782380Y-62749523D01*
X119877619Y-63178095D02*
X119830000Y-63225714D01*
X119782380Y-63320952D01*
X119782380Y-63559047D01*
X119830000Y-63654285D01*
X119877619Y-63701904D01*
X119972857Y-63749523D01*
X120068095Y-63749523D01*
X120210952Y-63701904D01*
X120782380Y-63130476D01*
X120782380Y-63749523D01*
%TO.C,J6*%
X127082380Y-134916666D02*
X127796666Y-134916666D01*
X127939523Y-134869047D01*
X128034761Y-134773809D01*
X128082380Y-134630952D01*
X128082380Y-134535714D01*
X127082380Y-135821428D02*
X127082380Y-135630952D01*
X127130000Y-135535714D01*
X127177619Y-135488095D01*
X127320476Y-135392857D01*
X127510952Y-135345238D01*
X127891904Y-135345238D01*
X127987142Y-135392857D01*
X128034761Y-135440476D01*
X128082380Y-135535714D01*
X128082380Y-135726190D01*
X128034761Y-135821428D01*
X127987142Y-135869047D01*
X127891904Y-135916666D01*
X127653809Y-135916666D01*
X127558571Y-135869047D01*
X127510952Y-135821428D01*
X127463333Y-135726190D01*
X127463333Y-135535714D01*
X127510952Y-135440476D01*
X127558571Y-135392857D01*
X127653809Y-135345238D01*
%TO.C,C2*%
X105416666Y-50257142D02*
X105464285Y-50304761D01*
X105607142Y-50352380D01*
X105702380Y-50352380D01*
X105845238Y-50304761D01*
X105940476Y-50209523D01*
X105988095Y-50114285D01*
X106035714Y-49923809D01*
X106035714Y-49780952D01*
X105988095Y-49590476D01*
X105940476Y-49495238D01*
X105845238Y-49400000D01*
X105702380Y-49352380D01*
X105607142Y-49352380D01*
X105464285Y-49400000D01*
X105416666Y-49447619D01*
X105035714Y-49447619D02*
X104988095Y-49400000D01*
X104892857Y-49352380D01*
X104654761Y-49352380D01*
X104559523Y-49400000D01*
X104511904Y-49447619D01*
X104464285Y-49542857D01*
X104464285Y-49638095D01*
X104511904Y-49780952D01*
X105083333Y-50352380D01*
X104464285Y-50352380D01*
%TO.C,C1*%
X112916666Y-50257142D02*
X112964285Y-50304761D01*
X113107142Y-50352380D01*
X113202380Y-50352380D01*
X113345238Y-50304761D01*
X113440476Y-50209523D01*
X113488095Y-50114285D01*
X113535714Y-49923809D01*
X113535714Y-49780952D01*
X113488095Y-49590476D01*
X113440476Y-49495238D01*
X113345238Y-49400000D01*
X113202380Y-49352380D01*
X113107142Y-49352380D01*
X112964285Y-49400000D01*
X112916666Y-49447619D01*
X111964285Y-50352380D02*
X112535714Y-50352380D01*
X112250000Y-50352380D02*
X112250000Y-49352380D01*
X112345238Y-49495238D01*
X112440476Y-49590476D01*
X112535714Y-49638095D01*
%TD*%
M02*
