M48
; DRILL file {KiCad (5.1.6)-1} date 08/09/21 18:11:55
; FORMAT={-:-/ absolute / inch / decimal}
; #@! TF.CreationDate,2021-08-09T18:11:55+02:00
; #@! TF.GenerationSoftware,Kicad,Pcbnew,(5.1.6)-1
; #@! TF.FileFunction,Plated,1,2,PTH
FMAT,2
INCH
T1C0.0157
T2C0.0315
T3C0.0394
%
G90
G05
T1
X4.3308Y-3.501
X4.3444Y-3.6908
X4.385Y-3.849
X4.7666Y-3.4674
X4.8098Y-3.0745
X4.8515Y-3.0112
X4.991Y-3.4794
T2
X4.0945Y-4.0701
X4.0945Y-4.3701
X4.8425Y-4.1339
X4.8425Y-4.4339
X4.4094Y-2.0866
X4.5094Y-2.0866
X4.9114Y-2.6181
X4.9114Y-2.7165
X4.6063Y-2.9134
X4.7063Y-2.9134
X4.1339Y-2.0866
X4.1339Y-2.1866
X4.3457Y-2.328
X4.3457Y-2.628
X4.4457Y-2.328
X4.4457Y-2.628
X4.5457Y-2.328
X4.5457Y-2.628
X4.6457Y-2.328
X4.6457Y-2.628
X4.252Y-2.874
X4.352Y-2.874
X5.0Y-4.4882
X5.0Y-4.5882
X4.8425Y-4.7
X4.8425Y-5.0
X4.0945Y-1.7913
X4.1929Y-1.7913
X5.0394Y-4.152
X5.0394Y-4.252
X5.0394Y-2.2047
X5.0394Y-2.5047
X5.0Y-1.9685
X5.0Y-2.0685
X4.6457Y-4.7
X4.6457Y-5.0
X4.7244Y-1.811
X4.8244Y-1.811
X4.1142Y-2.702
X4.1142Y-3.002
X5.0197Y-2.9134
X5.0197Y-3.0134
X4.2913Y-4.0732
X4.2913Y-4.1732
X4.4094Y-4.685
X4.4094Y-4.985
X4.685Y-4.2276
X4.685Y-4.5276
X4.0945Y-4.4882
X4.0945Y-4.7882
X5.0Y-4.7244
X5.0Y-5.0244
X4.3898Y-1.7913
X4.4882Y-1.7913
X5.0394Y-2.6378
X5.0394Y-2.7362
T3
X4.2421Y-3.2431
X4.2421Y-3.3431
X4.2421Y-3.4431
X4.2421Y-3.5431
X4.2421Y-3.6431
X4.2421Y-3.7431
X4.2421Y-3.8431
X5.0787Y-3.189
X5.0787Y-3.289
X5.0787Y-3.389
X5.0787Y-3.489
X5.0787Y-3.589
X5.0787Y-3.689
X5.0787Y-3.789
X5.0787Y-3.889
X4.5073Y-4.0325
X4.6073Y-4.0325
X4.2213Y-5.2543
X4.2213Y-5.3543
X4.3213Y-5.2543
X4.3213Y-5.3543
X4.4213Y-5.2543
X4.4213Y-5.3543
X4.5213Y-5.2543
X4.5213Y-5.3543
X4.6213Y-5.2543
X4.6213Y-5.3543
X4.7213Y-5.2543
X4.7213Y-5.3543
X4.8213Y-5.2543
X4.8213Y-5.3543
X4.9213Y-5.2543
X4.9213Y-5.3543
X4.0551Y-3.189
X4.0551Y-3.289
X4.0551Y-3.389
X4.0551Y-3.489
X4.0551Y-3.589
X4.0551Y-3.689
X4.0551Y-3.789
X4.0551Y-3.889
X4.8789Y-3.2431
X4.8789Y-3.3431
X4.8789Y-3.4431
X4.8789Y-3.5431
X4.8789Y-3.6431
X4.8789Y-3.7431
X4.8789Y-3.8431
T0
M30
