%TF.GenerationSoftware,KiCad,Pcbnew,(5.1.6)-1*%
%TF.CreationDate,2021-08-09T18:11:52+02:00*%
%TF.ProjectId,4ch_Sampler_main,3463685f-5361-46d7-906c-65725f6d6169,rev?*%
%TF.SameCoordinates,Original*%
%TF.FileFunction,Copper,L1,Top*%
%TF.FilePolarity,Positive*%
%FSLAX46Y46*%
G04 Gerber Fmt 4.6, Leading zero omitted, Abs format (unit mm)*
G04 Created by KiCad (PCBNEW (5.1.6)-1) date 2021-08-09 18:11:52*
%MOMM*%
%LPD*%
G01*
G04 APERTURE LIST*
%TA.AperFunction,ComponentPad*%
%ADD10O,1.700000X1.700000*%
%TD*%
%TA.AperFunction,ComponentPad*%
%ADD11R,1.700000X1.700000*%
%TD*%
%TA.AperFunction,ComponentPad*%
%ADD12O,1.600000X2.400000*%
%TD*%
%TA.AperFunction,ComponentPad*%
%ADD13R,1.600000X2.400000*%
%TD*%
%TA.AperFunction,ComponentPad*%
%ADD14O,1.600000X1.600000*%
%TD*%
%TA.AperFunction,ComponentPad*%
%ADD15C,1.600000*%
%TD*%
%TA.AperFunction,ComponentPad*%
%ADD16C,1.700000*%
%TD*%
%TA.AperFunction,ComponentPad*%
%ADD17R,1.600000X1.600000*%
%TD*%
%TA.AperFunction,ViaPad*%
%ADD18C,0.800000*%
%TD*%
%TA.AperFunction,Conductor*%
%ADD19C,0.400000*%
%TD*%
%TA.AperFunction,Conductor*%
%ADD20C,0.254000*%
%TD*%
G04 APERTURE END LIST*
D10*
%TO.P,Xiao1,7*%
%TO.N,Net-(D12-Pad1)*%
X123925000Y-97615000D03*
%TO.P,Xiao1,6*%
%TO.N,Net-(Brd1-Pad3)*%
X123925000Y-95075000D03*
%TO.P,Xiao1,5*%
%TO.N,Net-(Brd1-Pad4)*%
X123925000Y-92535000D03*
%TO.P,Xiao1,4*%
%TO.N,Net-(D10-Pad2)*%
X123925000Y-89995000D03*
%TO.P,Xiao1,3*%
%TO.N,Net-(D6-Pad1)*%
X123925000Y-87455000D03*
%TO.P,Xiao1,2*%
%TO.N,Net-(D3-Pad1)*%
X123925000Y-84915000D03*
D11*
%TO.P,Xiao1,1*%
%TO.N,Net-(R3-Pad2)*%
X123925000Y-82375000D03*
%TD*%
D10*
%TO.P,Xiao2,7*%
%TO.N,TOUCH_SENSOR1*%
X107750000Y-97615000D03*
%TO.P,Xiao2,6*%
%TO.N,TOUCH_SENSOR2*%
X107750000Y-95075000D03*
%TO.P,Xiao2,5*%
%TO.N,TOUCH_SENSOR3*%
X107750000Y-92535000D03*
%TO.P,Xiao2,4*%
%TO.N,Net-(SW1-Pad2)*%
X107750000Y-89995000D03*
%TO.P,Xiao2,3*%
%TO.N,3.3V*%
X107750000Y-87455000D03*
%TO.P,Xiao2,2*%
%TO.N,GND*%
X107750000Y-84915000D03*
D11*
%TO.P,Xiao2,1*%
%TO.N,5V*%
X107750000Y-82375000D03*
%TD*%
D10*
%TO.P,Conn2,8*%
%TO.N,Net-(J4-PadT)*%
X129000000Y-98780000D03*
%TO.P,Conn2,7*%
%TO.N,Net-(J3-PadT)*%
X129000000Y-96240000D03*
%TO.P,Conn2,6*%
%TO.N,Net-(J2-PadT)*%
X129000000Y-93700000D03*
%TO.P,Conn2,5*%
%TO.N,Net-(J1-PadT)*%
X129000000Y-91160000D03*
%TO.P,Conn2,4*%
%TO.N,Net-(SW1-Pad2)*%
X129000000Y-88620000D03*
%TO.P,Conn2,3*%
%TO.N,TOUCH_SENSOR3*%
X129000000Y-86080000D03*
%TO.P,Conn2,2*%
%TO.N,TOUCH_SENSOR2*%
X129000000Y-83540000D03*
D11*
%TO.P,Conn2,1*%
%TO.N,TOUCH_SENSOR1*%
X129000000Y-81000000D03*
%TD*%
D10*
%TO.P,Conn1,8*%
%TO.N,Net-(D12-Pad1)*%
X103000000Y-98780000D03*
%TO.P,Conn1,7*%
%TO.N,Net-(D10-Pad2)*%
X103000000Y-96240000D03*
%TO.P,Conn1,6*%
%TO.N,Net-(D6-Pad1)*%
X103000000Y-93700000D03*
%TO.P,Conn1,5*%
%TO.N,Net-(D3-Pad1)*%
X103000000Y-91160000D03*
%TO.P,Conn1,4*%
%TO.N,Net-(Brd1-Pad4)*%
X103000000Y-88620000D03*
%TO.P,Conn1,3*%
%TO.N,Net-(Brd1-Pad3)*%
X103000000Y-86080000D03*
%TO.P,Conn1,2*%
%TO.N,3.3V*%
X103000000Y-83540000D03*
D11*
%TO.P,Conn1,1*%
%TO.N,GND*%
X103000000Y-81000000D03*
%TD*%
D10*
%TO.P,Xiao3,2*%
%TO.N,GND*%
X114485000Y-102425000D03*
D11*
%TO.P,Xiao3,1*%
%TO.N,VIN*%
X117025000Y-102425000D03*
%TD*%
D12*
%TO.P,U2,8*%
%TO.N,5V*%
X118000000Y-59130000D03*
%TO.P,U2,4*%
%TO.N,GND*%
X110380000Y-66750000D03*
%TO.P,U2,7*%
%TO.N,N/C*%
X115460000Y-59130000D03*
%TO.P,U2,3*%
%TO.N,Net-(C3-Pad1)*%
X112920000Y-66750000D03*
%TO.P,U2,6*%
%TO.N,N/C*%
X112920000Y-59130000D03*
%TO.P,U2,2*%
%TO.N,Net-(R4-Pad1)*%
X115460000Y-66750000D03*
%TO.P,U2,5*%
%TO.N,N/C*%
X110380000Y-59130000D03*
D13*
%TO.P,U2,1*%
%TO.N,Net-(D1-Pad1)*%
X118000000Y-66750000D03*
%TD*%
D14*
%TO.P,R10,2*%
%TO.N,Net-(J4-PadT)*%
X109000000Y-103460000D03*
D15*
%TO.P,R10,1*%
%TO.N,Net-(D12-Pad1)*%
X109000000Y-106000000D03*
%TD*%
D14*
%TO.P,R9,2*%
%TO.N,Net-(J3-PadT)*%
X122540000Y-46000000D03*
D15*
%TO.P,R9,1*%
%TO.N,Net-(D10-Pad2)*%
X120000000Y-46000000D03*
%TD*%
D14*
%TO.P,R8,2*%
%TO.N,Net-(J2-PadT)*%
X128000000Y-105460000D03*
D15*
%TO.P,R8,1*%
%TO.N,Net-(D6-Pad1)*%
X128000000Y-108000000D03*
%TD*%
D14*
%TO.P,R7,2*%
%TO.N,Net-(J1-PadT)*%
X127000000Y-116540000D03*
D15*
%TO.P,R7,1*%
%TO.N,Net-(D3-Pad1)*%
X127000000Y-114000000D03*
%TD*%
D14*
%TO.P,R6,2*%
%TO.N,Net-(C4-Pad2)*%
X127000000Y-52540000D03*
D15*
%TO.P,R6,1*%
%TO.N,Net-(D1-Pad1)*%
X127000000Y-50000000D03*
%TD*%
D14*
%TO.P,R5,2*%
%TO.N,Net-(R4-Pad1)*%
X110540000Y-73000000D03*
D15*
%TO.P,R5,1*%
%TO.N,GND*%
X108000000Y-73000000D03*
%TD*%
D14*
%TO.P,R4,2*%
%TO.N,Net-(D1-Pad1)*%
X119540000Y-74000000D03*
D15*
%TO.P,R4,1*%
%TO.N,Net-(R4-Pad1)*%
X117000000Y-74000000D03*
%TD*%
D14*
%TO.P,R3,2*%
%TO.N,Net-(R3-Pad2)*%
X127500000Y-76540000D03*
D15*
%TO.P,R3,1*%
%TO.N,Net-(C3-Pad1)*%
X127500000Y-74000000D03*
%TD*%
D14*
%TO.P,R2,2*%
%TO.N,Net-(Brd1-Pad3)*%
X105000000Y-55540000D03*
D15*
%TO.P,R2,1*%
%TO.N,3.3V*%
X105000000Y-53000000D03*
%TD*%
D14*
%TO.P,R1,2*%
%TO.N,Net-(Brd1-Pad4)*%
X114540000Y-53000000D03*
D15*
%TO.P,R1,1*%
%TO.N,3.3V*%
X112000000Y-53000000D03*
%TD*%
D16*
%TO.P,J6,16*%
%TO.N,Net-(J6-Pad16)*%
X107220000Y-133460000D03*
%TO.P,J6,14*%
%TO.N,Net-(J6-Pad14)*%
X109760000Y-133460000D03*
%TO.P,J6,12*%
%TO.N,VIN*%
X112300000Y-133460000D03*
%TO.P,J6,10*%
%TO.N,Net-(J6-Pad10)*%
X114840000Y-133460000D03*
%TO.P,J6,8*%
%TO.N,GND*%
X117380000Y-133460000D03*
%TO.P,J6,6*%
X119920000Y-133460000D03*
%TO.P,J6,4*%
X122460000Y-133460000D03*
%TO.P,J6,2*%
%TO.N,Net-(J6-Pad2)*%
X125000000Y-133460000D03*
%TO.P,J6,15*%
%TO.N,Net-(J6-Pad15)*%
X107220000Y-136000000D03*
%TO.P,J6,13*%
%TO.N,Net-(J6-Pad13)*%
X109760000Y-136000000D03*
%TO.P,J6,11*%
%TO.N,VIN*%
X112300000Y-136000000D03*
%TO.P,J6,9*%
%TO.N,Net-(J6-Pad9)*%
X114840000Y-136000000D03*
%TO.P,J6,7*%
%TO.N,GND*%
X117380000Y-136000000D03*
%TO.P,J6,5*%
X119920000Y-136000000D03*
%TO.P,J6,3*%
X122460000Y-136000000D03*
%TO.P,J6,1*%
%TO.N,Net-(J6-Pad1)*%
%TA.AperFunction,ComponentPad*%
G36*
G01*
X125600000Y-136850000D02*
X124400000Y-136850000D01*
G75*
G02*
X124150000Y-136600000I0J250000D01*
G01*
X124150000Y-135400000D01*
G75*
G02*
X124400000Y-135150000I250000J0D01*
G01*
X125600000Y-135150000D01*
G75*
G02*
X125850000Y-135400000I0J-250000D01*
G01*
X125850000Y-136600000D01*
G75*
G02*
X125600000Y-136850000I-250000J0D01*
G01*
G37*
%TD.AperFunction*%
%TD*%
D14*
%TO.P,D13,2*%
%TO.N,Net-(D12-Pad1)*%
X104000000Y-103380000D03*
D17*
%TO.P,D13,1*%
%TO.N,3.3V*%
X104000000Y-111000000D03*
%TD*%
D14*
%TO.P,D12,2*%
%TO.N,GND*%
X118000000Y-119380000D03*
D17*
%TO.P,D12,1*%
%TO.N,Net-(D12-Pad1)*%
X118000000Y-127000000D03*
%TD*%
D14*
%TO.P,D10,2*%
%TO.N,Net-(D10-Pad2)*%
X104000000Y-121620000D03*
D17*
%TO.P,D10,1*%
%TO.N,3.3V*%
X104000000Y-114000000D03*
%TD*%
D14*
%TO.P,D9,2*%
%TO.N,GND*%
X112000000Y-126620000D03*
D17*
%TO.P,D9,1*%
%TO.N,Net-(D10-Pad2)*%
X112000000Y-119000000D03*
%TD*%
D14*
%TO.P,D7,2*%
%TO.N,Net-(D6-Pad1)*%
X123000000Y-119380000D03*
D17*
%TO.P,D7,1*%
%TO.N,3.3V*%
X123000000Y-127000000D03*
%TD*%
D14*
%TO.P,D6,2*%
%TO.N,GND*%
X127000000Y-127620000D03*
D17*
%TO.P,D6,1*%
%TO.N,Net-(D6-Pad1)*%
X127000000Y-120000000D03*
%TD*%
D14*
%TO.P,D4,2*%
%TO.N,Net-(D3-Pad1)*%
X119000000Y-107380000D03*
D17*
%TO.P,D4,1*%
%TO.N,3.3V*%
X119000000Y-115000000D03*
%TD*%
D14*
%TO.P,D3,2*%
%TO.N,GND*%
X123000000Y-112620000D03*
D17*
%TO.P,D3,1*%
%TO.N,Net-(D3-Pad1)*%
X123000000Y-105000000D03*
%TD*%
D14*
%TO.P,D2,2*%
%TO.N,Net-(D1-Pad1)*%
X104500000Y-68630000D03*
D17*
%TO.P,D2,1*%
%TO.N,5V*%
X104500000Y-76250000D03*
%TD*%
D14*
%TO.P,D1,2*%
%TO.N,GND*%
X128000000Y-63620000D03*
D17*
%TO.P,D1,1*%
%TO.N,Net-(D1-Pad1)*%
X128000000Y-56000000D03*
%TD*%
D15*
%TO.P,C4,2*%
%TO.N,Net-(C4-Pad2)*%
X124750000Y-66500000D03*
%TO.P,C4,1*%
%TO.N,Net-(C4-Pad1)*%
X124750000Y-69000000D03*
%TD*%
%TO.P,C3,2*%
%TO.N,GND*%
X128000000Y-69500000D03*
%TO.P,C3,1*%
%TO.N,Net-(C3-Pad1)*%
X128000000Y-67000000D03*
%TD*%
%TO.P,C2,2*%
%TO.N,GND*%
X106500000Y-45500000D03*
D17*
%TO.P,C2,1*%
%TO.N,3.3V*%
X104000000Y-45500000D03*
%TD*%
D15*
%TO.P,C1,2*%
%TO.N,GND*%
X114000000Y-45500000D03*
D17*
%TO.P,C1,1*%
%TO.N,3.3V*%
X111500000Y-45500000D03*
%TD*%
D18*
%TO.N,Net-(D10-Pad2)*%
X121070800Y-88072300D03*
X111378500Y-97764600D03*
%TO.N,Net-(J3-PadT)*%
X126771200Y-88375500D03*
%TO.N,Net-(R3-Pad2)*%
X122169200Y-78091100D03*
%TO.N,Net-(SW1-Pad2)*%
X110347500Y-93747500D03*
%TO.N,TOUCH_SENSOR1*%
X123228800Y-76484900D03*
X110002898Y-88925400D03*
%TD*%
D19*
%TO.N,3.3V*%
X111500000Y-45500000D02*
X110199700Y-45500000D01*
X110199700Y-45500000D02*
X108299700Y-47400000D01*
X105900000Y-47400000D02*
X104000000Y-45500000D01*
X108299700Y-47400000D02*
X105900000Y-47400000D01*
X108299700Y-49697500D02*
X108301100Y-49698900D01*
X108299700Y-47400000D02*
X108299700Y-49697500D01*
X108698900Y-49698900D02*
X108301100Y-49698900D01*
X112000000Y-53000000D02*
X108698900Y-49698900D01*
X108301100Y-49698900D02*
X105000000Y-53000000D01*
X104000000Y-114000000D02*
X104000000Y-111000000D01*
X103000000Y-83540000D02*
X101649700Y-83540000D01*
X101649700Y-107349400D02*
X101649700Y-83540000D01*
X104000000Y-109699700D02*
X101649700Y-107349400D01*
X101649700Y-56350300D02*
X105000000Y-53000000D01*
X101649700Y-83540000D02*
X101649700Y-56350300D01*
X104000000Y-111000000D02*
X104000000Y-109699700D01*
%TO.N,Net-(Brd1-Pad3)*%
X102590600Y-77647800D02*
X102590600Y-57949400D01*
X105800400Y-80857600D02*
X102590600Y-77647800D01*
X105800400Y-83279600D02*
X105800400Y-80857600D01*
X102590600Y-57949400D02*
X105000000Y-55540000D01*
X103000000Y-86080000D02*
X105800400Y-83279600D01*
%TO.N,Net-(C4-Pad2)*%
X124750000Y-56090300D02*
X124750000Y-66500000D01*
X127000000Y-53840300D02*
X124750000Y-56090300D01*
X127000000Y-52540000D02*
X127000000Y-53840300D01*
%TO.N,Net-(C4-Pad1)*%
X130358400Y-99961600D02*
X129000000Y-101320000D01*
X130358400Y-74608400D02*
X130358400Y-99961600D01*
X124750000Y-69000000D02*
X130358400Y-74608400D01*
%TO.N,5V*%
X104500000Y-76250000D02*
X104500000Y-76382200D01*
X107750000Y-79632200D02*
X107750000Y-82375000D01*
X104500000Y-76382200D02*
X107750000Y-79632200D01*
%TO.N,Net-(D3-Pad1)*%
X122566600Y-86273400D02*
X123925000Y-84915000D01*
X122566600Y-103266300D02*
X122566600Y-86273400D01*
X123000000Y-103699700D02*
X122566600Y-103266300D01*
X123000000Y-105000000D02*
X123000000Y-103699700D01*
%TO.N,Net-(D6-Pad1)*%
X126105300Y-89635300D02*
X123925000Y-87455000D01*
X126105300Y-106105300D02*
X126105300Y-89635300D01*
X128000000Y-108000000D02*
X126105300Y-106105300D01*
X128308000Y-108308000D02*
X128000000Y-108000000D01*
X128308000Y-117391700D02*
X128308000Y-108308000D01*
X127000000Y-118699700D02*
X128308000Y-117391700D01*
X127000000Y-120000000D02*
X127000000Y-118699700D01*
%TO.N,Net-(D10-Pad2)*%
X103000000Y-96240000D02*
X104350300Y-96240000D01*
X121003500Y-47003500D02*
X120000000Y-46000000D01*
X121003500Y-88072300D02*
X121003500Y-47003500D01*
X121003500Y-88072300D02*
X121070800Y-88072300D01*
X112000000Y-103889700D02*
X108593100Y-100482700D01*
X112000000Y-119000000D02*
X112000000Y-103889700D01*
X108593100Y-100482700D02*
X104350300Y-96240000D01*
X108660400Y-100482700D02*
X111378500Y-97764600D01*
X108593100Y-100482700D02*
X108660400Y-100482700D01*
%TO.N,Net-(D12-Pad1)*%
X107920300Y-106000000D02*
X105300300Y-103380000D01*
X109000000Y-106000000D02*
X107920300Y-106000000D01*
X104000000Y-103380000D02*
X105300300Y-103380000D01*
X124300400Y-99340700D02*
X123925000Y-98965300D01*
X124300400Y-119968200D02*
X124300400Y-99340700D01*
X118568900Y-125699700D02*
X124300400Y-119968200D01*
X118000000Y-125699700D02*
X118568900Y-125699700D01*
X118000000Y-127000000D02*
X118000000Y-125699700D01*
X123925000Y-97615000D02*
X123925000Y-98965300D01*
%TO.N,Net-(J2-PadT)*%
X127629500Y-103789200D02*
X128000000Y-104159700D01*
X127629500Y-95070500D02*
X127629500Y-103789200D01*
X129000000Y-93700000D02*
X127629500Y-95070500D01*
X128000000Y-105460000D02*
X128000000Y-104159700D01*
%TO.N,Net-(J3-PadT)*%
X126771200Y-81307800D02*
X126771200Y-88375500D01*
X122310600Y-76847200D02*
X126771200Y-81307800D01*
X122310600Y-47529700D02*
X122310600Y-76847200D01*
X122540000Y-47300300D02*
X122310600Y-47529700D01*
X122540000Y-46000000D02*
X122540000Y-47300300D01*
%TO.N,VIN*%
X117025000Y-102425000D02*
X117025000Y-103775300D01*
X112300000Y-136000000D02*
X112300000Y-133460000D01*
X115835400Y-104964900D02*
X117025000Y-103775300D01*
X115835400Y-129924600D02*
X115835400Y-104964900D01*
X112300000Y-133460000D02*
X115835400Y-129924600D01*
%TO.N,Net-(R3-Pad2)*%
X122169200Y-79268900D02*
X123925000Y-81024700D01*
X122169200Y-78091100D02*
X122169200Y-79268900D01*
X123925000Y-82375000D02*
X123925000Y-81024700D01*
%TO.N,Net-(R4-Pad1)*%
X110540000Y-73000000D02*
X111840300Y-73000000D01*
X115460000Y-73000000D02*
X111840300Y-73000000D01*
X116460000Y-74000000D02*
X115460000Y-73000000D01*
X117000000Y-74000000D02*
X116460000Y-74000000D01*
X115460000Y-73000000D02*
X115460000Y-66750000D01*
%TO.N,Net-(SW1-Pad2)*%
X110347500Y-92592500D02*
X110347500Y-93747500D01*
X107750000Y-89995000D02*
X110347500Y-92592500D01*
%TO.N,TOUCH_SENSOR1*%
X129000000Y-81000000D02*
X127649700Y-81000000D01*
X127649700Y-80905800D02*
X123228800Y-76484900D01*
X127649700Y-81000000D02*
X127649700Y-80905800D01*
X110002898Y-88925400D02*
X110002898Y-90241698D01*
X110002898Y-90241698D02*
X111658400Y-91897200D01*
X108952081Y-97615000D02*
X107750000Y-97615000D01*
X111658400Y-94908681D02*
X108952081Y-97615000D01*
X111658400Y-91897200D02*
X111658400Y-94908681D01*
%TD*%
D20*
%TO.N,GND*%
G36*
X130340001Y-73409133D02*
G01*
X127860744Y-70929877D01*
X128070512Y-70940217D01*
X128350130Y-70898787D01*
X128616292Y-70803603D01*
X128741514Y-70736671D01*
X128813097Y-70492702D01*
X128000000Y-69679605D01*
X127985858Y-69693748D01*
X127806253Y-69514143D01*
X127820395Y-69500000D01*
X128179605Y-69500000D01*
X128992702Y-70313097D01*
X129236671Y-70241514D01*
X129357571Y-69986004D01*
X129426300Y-69711816D01*
X129440217Y-69429488D01*
X129398787Y-69149870D01*
X129303603Y-68883708D01*
X129236671Y-68758486D01*
X128992702Y-68686903D01*
X128179605Y-69500000D01*
X127820395Y-69500000D01*
X127007298Y-68686903D01*
X126763329Y-68758486D01*
X126642429Y-69013996D01*
X126573700Y-69288184D01*
X126559783Y-69570512D01*
X126569942Y-69639074D01*
X126166285Y-69235418D01*
X126185000Y-69141335D01*
X126185000Y-68858665D01*
X126129853Y-68581426D01*
X126021680Y-68320273D01*
X125864637Y-68085241D01*
X125664759Y-67885363D01*
X125462173Y-67750000D01*
X125664759Y-67614637D01*
X125864637Y-67414759D01*
X126021680Y-67179727D01*
X126129853Y-66918574D01*
X126141769Y-66858665D01*
X126565000Y-66858665D01*
X126565000Y-67141335D01*
X126620147Y-67418574D01*
X126728320Y-67679727D01*
X126885363Y-67914759D01*
X127085241Y-68114637D01*
X127285869Y-68248692D01*
X127258486Y-68263329D01*
X127186903Y-68507298D01*
X128000000Y-69320395D01*
X128813097Y-68507298D01*
X128741514Y-68263329D01*
X128712659Y-68249676D01*
X128914759Y-68114637D01*
X129114637Y-67914759D01*
X129271680Y-67679727D01*
X129379853Y-67418574D01*
X129435000Y-67141335D01*
X129435000Y-66858665D01*
X129379853Y-66581426D01*
X129271680Y-66320273D01*
X129114637Y-66085241D01*
X128914759Y-65885363D01*
X128679727Y-65728320D01*
X128418574Y-65620147D01*
X128141335Y-65565000D01*
X127858665Y-65565000D01*
X127581426Y-65620147D01*
X127320273Y-65728320D01*
X127085241Y-65885363D01*
X126885363Y-66085241D01*
X126728320Y-66320273D01*
X126620147Y-66581426D01*
X126565000Y-66858665D01*
X126141769Y-66858665D01*
X126185000Y-66641335D01*
X126185000Y-66358665D01*
X126129853Y-66081426D01*
X126021680Y-65820273D01*
X125864637Y-65585241D01*
X125664759Y-65385363D01*
X125585000Y-65332070D01*
X125585000Y-63969040D01*
X126608091Y-63969040D01*
X126702930Y-64233881D01*
X126847615Y-64475131D01*
X127036586Y-64683519D01*
X127262580Y-64851037D01*
X127516913Y-64971246D01*
X127650961Y-65011904D01*
X127873000Y-64889915D01*
X127873000Y-63747000D01*
X128127000Y-63747000D01*
X128127000Y-64889915D01*
X128349039Y-65011904D01*
X128483087Y-64971246D01*
X128737420Y-64851037D01*
X128963414Y-64683519D01*
X129152385Y-64475131D01*
X129297070Y-64233881D01*
X129391909Y-63969040D01*
X129270624Y-63747000D01*
X128127000Y-63747000D01*
X127873000Y-63747000D01*
X126729376Y-63747000D01*
X126608091Y-63969040D01*
X125585000Y-63969040D01*
X125585000Y-63270960D01*
X126608091Y-63270960D01*
X126729376Y-63493000D01*
X127873000Y-63493000D01*
X127873000Y-62350085D01*
X128127000Y-62350085D01*
X128127000Y-63493000D01*
X129270624Y-63493000D01*
X129391909Y-63270960D01*
X129297070Y-63006119D01*
X129152385Y-62764869D01*
X128963414Y-62556481D01*
X128737420Y-62388963D01*
X128483087Y-62268754D01*
X128349039Y-62228096D01*
X128127000Y-62350085D01*
X127873000Y-62350085D01*
X127650961Y-62228096D01*
X127516913Y-62268754D01*
X127262580Y-62388963D01*
X127036586Y-62556481D01*
X126847615Y-62764869D01*
X126702930Y-63006119D01*
X126608091Y-63270960D01*
X125585000Y-63270960D01*
X125585000Y-56436167D01*
X126561928Y-55459240D01*
X126561928Y-56800000D01*
X126574188Y-56924482D01*
X126610498Y-57044180D01*
X126669463Y-57154494D01*
X126748815Y-57251185D01*
X126845506Y-57330537D01*
X126955820Y-57389502D01*
X127075518Y-57425812D01*
X127200000Y-57438072D01*
X128800000Y-57438072D01*
X128924482Y-57425812D01*
X129044180Y-57389502D01*
X129154494Y-57330537D01*
X129251185Y-57251185D01*
X129330537Y-57154494D01*
X129389502Y-57044180D01*
X129425812Y-56924482D01*
X129438072Y-56800000D01*
X129438072Y-55200000D01*
X129425812Y-55075518D01*
X129389502Y-54955820D01*
X129330537Y-54845506D01*
X129251185Y-54748815D01*
X129154494Y-54669463D01*
X129044180Y-54610498D01*
X128924482Y-54574188D01*
X128800000Y-54561928D01*
X127459241Y-54561928D01*
X127561432Y-54459737D01*
X127593291Y-54433591D01*
X127697636Y-54306446D01*
X127775172Y-54161387D01*
X127822918Y-54003989D01*
X127835000Y-53881319D01*
X127835000Y-53881318D01*
X127839040Y-53840300D01*
X127835000Y-53799282D01*
X127835000Y-53707930D01*
X127914759Y-53654637D01*
X128114637Y-53454759D01*
X128271680Y-53219727D01*
X128379853Y-52958574D01*
X128435000Y-52681335D01*
X128435000Y-52398665D01*
X128379853Y-52121426D01*
X128271680Y-51860273D01*
X128114637Y-51625241D01*
X127914759Y-51425363D01*
X127682241Y-51270000D01*
X127914759Y-51114637D01*
X128114637Y-50914759D01*
X128271680Y-50679727D01*
X128379853Y-50418574D01*
X128435000Y-50141335D01*
X128435000Y-49858665D01*
X128379853Y-49581426D01*
X128271680Y-49320273D01*
X128114637Y-49085241D01*
X127914759Y-48885363D01*
X127679727Y-48728320D01*
X127418574Y-48620147D01*
X127141335Y-48565000D01*
X126858665Y-48565000D01*
X126581426Y-48620147D01*
X126320273Y-48728320D01*
X126085241Y-48885363D01*
X125885363Y-49085241D01*
X125728320Y-49320273D01*
X125620147Y-49581426D01*
X125565000Y-49858665D01*
X125565000Y-50141335D01*
X125620147Y-50418574D01*
X125728320Y-50679727D01*
X125885363Y-50914759D01*
X126085241Y-51114637D01*
X126317759Y-51270000D01*
X126085241Y-51425363D01*
X125885363Y-51625241D01*
X125728320Y-51860273D01*
X125620147Y-52121426D01*
X125565000Y-52398665D01*
X125565000Y-52681335D01*
X125620147Y-52958574D01*
X125728320Y-53219727D01*
X125885363Y-53454759D01*
X126045018Y-53614414D01*
X124188579Y-55470854D01*
X124156709Y-55497009D01*
X124052365Y-55624154D01*
X124052364Y-55624155D01*
X123974828Y-55769214D01*
X123927082Y-55926612D01*
X123910960Y-56090300D01*
X123915000Y-56131319D01*
X123915001Y-65332069D01*
X123835241Y-65385363D01*
X123635363Y-65585241D01*
X123478320Y-65820273D01*
X123370147Y-66081426D01*
X123315000Y-66358665D01*
X123315000Y-66641335D01*
X123370147Y-66918574D01*
X123478320Y-67179727D01*
X123635363Y-67414759D01*
X123835241Y-67614637D01*
X124037827Y-67750000D01*
X123835241Y-67885363D01*
X123635363Y-68085241D01*
X123478320Y-68320273D01*
X123370147Y-68581426D01*
X123315000Y-68858665D01*
X123315000Y-69141335D01*
X123370147Y-69418574D01*
X123478320Y-69679727D01*
X123635363Y-69914759D01*
X123835241Y-70114637D01*
X124070273Y-70271680D01*
X124331426Y-70379853D01*
X124608665Y-70435000D01*
X124891335Y-70435000D01*
X124985418Y-70416285D01*
X127171385Y-72602253D01*
X127081426Y-72620147D01*
X126820273Y-72728320D01*
X126585241Y-72885363D01*
X126385363Y-73085241D01*
X126228320Y-73320273D01*
X126120147Y-73581426D01*
X126065000Y-73858665D01*
X126065000Y-74141335D01*
X126120147Y-74418574D01*
X126228320Y-74679727D01*
X126385363Y-74914759D01*
X126585241Y-75114637D01*
X126817759Y-75270000D01*
X126585241Y-75425363D01*
X126385363Y-75625241D01*
X126228320Y-75860273D01*
X126120147Y-76121426D01*
X126065000Y-76398665D01*
X126065000Y-76681335D01*
X126120147Y-76958574D01*
X126228320Y-77219727D01*
X126385363Y-77454759D01*
X126585241Y-77654637D01*
X126820273Y-77811680D01*
X127081426Y-77919853D01*
X127358665Y-77975000D01*
X127641335Y-77975000D01*
X127918574Y-77919853D01*
X128179727Y-77811680D01*
X128414759Y-77654637D01*
X128614637Y-77454759D01*
X128771680Y-77219727D01*
X128879853Y-76958574D01*
X128935000Y-76681335D01*
X128935000Y-76398665D01*
X128879853Y-76121426D01*
X128771680Y-75860273D01*
X128614637Y-75625241D01*
X128414759Y-75425363D01*
X128182241Y-75270000D01*
X128414759Y-75114637D01*
X128614637Y-74914759D01*
X128771680Y-74679727D01*
X128879853Y-74418574D01*
X128897747Y-74328615D01*
X129523400Y-74954268D01*
X129523400Y-79511928D01*
X128150000Y-79511928D01*
X128025518Y-79524188D01*
X127905820Y-79560498D01*
X127795506Y-79619463D01*
X127698815Y-79698815D01*
X127664904Y-79740136D01*
X124252893Y-76328125D01*
X124224026Y-76183002D01*
X124146005Y-75994644D01*
X124032737Y-75825126D01*
X123888574Y-75680963D01*
X123719056Y-75567695D01*
X123530698Y-75489674D01*
X123330739Y-75449900D01*
X123145600Y-75449900D01*
X123145600Y-47878592D01*
X123237636Y-47766446D01*
X123315172Y-47621387D01*
X123362918Y-47463989D01*
X123375000Y-47341319D01*
X123375000Y-47341318D01*
X123379040Y-47300300D01*
X123375000Y-47259282D01*
X123375000Y-47167930D01*
X123454759Y-47114637D01*
X123654637Y-46914759D01*
X123811680Y-46679727D01*
X123919853Y-46418574D01*
X123975000Y-46141335D01*
X123975000Y-45858665D01*
X123919853Y-45581426D01*
X123811680Y-45320273D01*
X123654637Y-45085241D01*
X123454759Y-44885363D01*
X123219727Y-44728320D01*
X122958574Y-44620147D01*
X122681335Y-44565000D01*
X122398665Y-44565000D01*
X122121426Y-44620147D01*
X121860273Y-44728320D01*
X121625241Y-44885363D01*
X121425363Y-45085241D01*
X121270000Y-45317759D01*
X121114637Y-45085241D01*
X120914759Y-44885363D01*
X120679727Y-44728320D01*
X120418574Y-44620147D01*
X120141335Y-44565000D01*
X119858665Y-44565000D01*
X119581426Y-44620147D01*
X119320273Y-44728320D01*
X119085241Y-44885363D01*
X118885363Y-45085241D01*
X118728320Y-45320273D01*
X118620147Y-45581426D01*
X118565000Y-45858665D01*
X118565000Y-46141335D01*
X118620147Y-46418574D01*
X118728320Y-46679727D01*
X118885363Y-46914759D01*
X119085241Y-47114637D01*
X119320273Y-47271680D01*
X119581426Y-47379853D01*
X119858665Y-47435000D01*
X120141335Y-47435000D01*
X120168501Y-47429596D01*
X120168500Y-72707101D01*
X119958574Y-72620147D01*
X119681335Y-72565000D01*
X119398665Y-72565000D01*
X119121426Y-72620147D01*
X118860273Y-72728320D01*
X118625241Y-72885363D01*
X118425363Y-73085241D01*
X118270000Y-73317759D01*
X118114637Y-73085241D01*
X117914759Y-72885363D01*
X117679727Y-72728320D01*
X117418574Y-72620147D01*
X117141335Y-72565000D01*
X116858665Y-72565000D01*
X116581426Y-72620147D01*
X116354861Y-72713993D01*
X116295000Y-72654132D01*
X116295000Y-68321112D01*
X116479608Y-68169608D01*
X116572419Y-68056518D01*
X116574188Y-68074482D01*
X116610498Y-68194180D01*
X116669463Y-68304494D01*
X116748815Y-68401185D01*
X116845506Y-68480537D01*
X116955820Y-68539502D01*
X117075518Y-68575812D01*
X117200000Y-68588072D01*
X118800000Y-68588072D01*
X118924482Y-68575812D01*
X119044180Y-68539502D01*
X119154494Y-68480537D01*
X119251185Y-68401185D01*
X119330537Y-68304494D01*
X119389502Y-68194180D01*
X119425812Y-68074482D01*
X119438072Y-67950000D01*
X119438072Y-65550000D01*
X119425812Y-65425518D01*
X119389502Y-65305820D01*
X119330537Y-65195506D01*
X119251185Y-65098815D01*
X119154494Y-65019463D01*
X119044180Y-64960498D01*
X118924482Y-64924188D01*
X118800000Y-64911928D01*
X117200000Y-64911928D01*
X117075518Y-64924188D01*
X116955820Y-64960498D01*
X116845506Y-65019463D01*
X116748815Y-65098815D01*
X116669463Y-65195506D01*
X116610498Y-65305820D01*
X116574188Y-65425518D01*
X116572419Y-65443483D01*
X116479607Y-65330392D01*
X116261100Y-65151068D01*
X116011807Y-65017818D01*
X115741308Y-64935764D01*
X115460000Y-64908057D01*
X115178691Y-64935764D01*
X114908192Y-65017818D01*
X114658899Y-65151068D01*
X114440392Y-65330393D01*
X114261068Y-65548900D01*
X114190000Y-65681858D01*
X114118932Y-65548899D01*
X113939607Y-65330392D01*
X113721100Y-65151068D01*
X113471807Y-65017818D01*
X113201308Y-64935764D01*
X112920000Y-64908057D01*
X112638691Y-64935764D01*
X112368192Y-65017818D01*
X112118899Y-65151068D01*
X111900392Y-65330393D01*
X111721068Y-65548900D01*
X111652735Y-65676742D01*
X111502601Y-65447161D01*
X111304895Y-65245500D01*
X111071646Y-65086285D01*
X110811818Y-64975633D01*
X110729039Y-64958096D01*
X110507000Y-65080085D01*
X110507000Y-66623000D01*
X110527000Y-66623000D01*
X110527000Y-66877000D01*
X110507000Y-66877000D01*
X110507000Y-68419915D01*
X110729039Y-68541904D01*
X110811818Y-68524367D01*
X111071646Y-68413715D01*
X111304895Y-68254500D01*
X111502601Y-68052839D01*
X111652735Y-67823259D01*
X111721068Y-67951101D01*
X111900393Y-68169608D01*
X112118900Y-68348932D01*
X112368193Y-68482182D01*
X112638692Y-68564236D01*
X112920000Y-68591943D01*
X113201309Y-68564236D01*
X113471808Y-68482182D01*
X113721101Y-68348932D01*
X113939608Y-68169608D01*
X114118932Y-67951101D01*
X114190000Y-67818142D01*
X114261068Y-67951101D01*
X114440393Y-68169608D01*
X114625001Y-68321112D01*
X114625000Y-72165000D01*
X111707930Y-72165000D01*
X111654637Y-72085241D01*
X111454759Y-71885363D01*
X111219727Y-71728320D01*
X110958574Y-71620147D01*
X110681335Y-71565000D01*
X110398665Y-71565000D01*
X110121426Y-71620147D01*
X109860273Y-71728320D01*
X109625241Y-71885363D01*
X109425363Y-72085241D01*
X109269085Y-72319128D01*
X109236671Y-72258486D01*
X108992702Y-72186903D01*
X108179605Y-73000000D01*
X108992702Y-73813097D01*
X109236671Y-73741514D01*
X109267194Y-73677008D01*
X109268320Y-73679727D01*
X109425363Y-73914759D01*
X109625241Y-74114637D01*
X109860273Y-74271680D01*
X110121426Y-74379853D01*
X110398665Y-74435000D01*
X110681335Y-74435000D01*
X110958574Y-74379853D01*
X111219727Y-74271680D01*
X111454759Y-74114637D01*
X111654637Y-73914759D01*
X111707930Y-73835000D01*
X115114132Y-73835000D01*
X115600889Y-74321757D01*
X115620147Y-74418574D01*
X115728320Y-74679727D01*
X115885363Y-74914759D01*
X116085241Y-75114637D01*
X116320273Y-75271680D01*
X116581426Y-75379853D01*
X116858665Y-75435000D01*
X117141335Y-75435000D01*
X117418574Y-75379853D01*
X117679727Y-75271680D01*
X117914759Y-75114637D01*
X118114637Y-74914759D01*
X118270000Y-74682241D01*
X118425363Y-74914759D01*
X118625241Y-75114637D01*
X118860273Y-75271680D01*
X119121426Y-75379853D01*
X119398665Y-75435000D01*
X119681335Y-75435000D01*
X119958574Y-75379853D01*
X120168500Y-75292899D01*
X120168500Y-87559737D01*
X120153595Y-87582044D01*
X120075574Y-87770402D01*
X120035800Y-87970361D01*
X120035800Y-88174239D01*
X120075574Y-88374198D01*
X120153595Y-88562556D01*
X120266863Y-88732074D01*
X120411026Y-88876237D01*
X120580544Y-88989505D01*
X120768902Y-89067526D01*
X120968861Y-89107300D01*
X121172739Y-89107300D01*
X121372698Y-89067526D01*
X121561056Y-88989505D01*
X121730574Y-88876237D01*
X121731601Y-88875210D01*
X121731600Y-103225281D01*
X121727560Y-103266300D01*
X121731600Y-103307318D01*
X121743682Y-103429988D01*
X121791428Y-103587386D01*
X121838411Y-103675285D01*
X121748815Y-103748815D01*
X121669463Y-103845506D01*
X121610498Y-103955820D01*
X121574188Y-104075518D01*
X121561928Y-104200000D01*
X121561928Y-105800000D01*
X121574188Y-105924482D01*
X121610498Y-106044180D01*
X121669463Y-106154494D01*
X121748815Y-106251185D01*
X121845506Y-106330537D01*
X121955820Y-106389502D01*
X122075518Y-106425812D01*
X122200000Y-106438072D01*
X123465401Y-106438072D01*
X123465400Y-111263389D01*
X123349039Y-111228096D01*
X123127000Y-111350085D01*
X123127000Y-112493000D01*
X123147000Y-112493000D01*
X123147000Y-112747000D01*
X123127000Y-112747000D01*
X123127000Y-113889915D01*
X123349039Y-114011904D01*
X123465400Y-113976611D01*
X123465400Y-118019543D01*
X123418574Y-118000147D01*
X123141335Y-117945000D01*
X122858665Y-117945000D01*
X122581426Y-118000147D01*
X122320273Y-118108320D01*
X122085241Y-118265363D01*
X121885363Y-118465241D01*
X121728320Y-118700273D01*
X121620147Y-118961426D01*
X121565000Y-119238665D01*
X121565000Y-119521335D01*
X121620147Y-119798574D01*
X121728320Y-120059727D01*
X121885363Y-120294759D01*
X122085241Y-120494637D01*
X122320273Y-120651680D01*
X122402141Y-120685591D01*
X118223033Y-124864700D01*
X118041019Y-124864700D01*
X118000000Y-124860660D01*
X117958982Y-124864700D01*
X117958981Y-124864700D01*
X117836311Y-124876782D01*
X117678913Y-124924528D01*
X117533854Y-125002064D01*
X117406709Y-125106409D01*
X117302364Y-125233554D01*
X117224828Y-125378613D01*
X117177082Y-125536011D01*
X117174280Y-125564461D01*
X117075518Y-125574188D01*
X116955820Y-125610498D01*
X116845506Y-125669463D01*
X116748815Y-125748815D01*
X116670400Y-125844364D01*
X116670400Y-119903040D01*
X116702930Y-119993881D01*
X116847615Y-120235131D01*
X117036586Y-120443519D01*
X117262580Y-120611037D01*
X117516913Y-120731246D01*
X117650961Y-120771904D01*
X117873000Y-120649915D01*
X117873000Y-119507000D01*
X118127000Y-119507000D01*
X118127000Y-120649915D01*
X118349039Y-120771904D01*
X118483087Y-120731246D01*
X118737420Y-120611037D01*
X118963414Y-120443519D01*
X119152385Y-120235131D01*
X119297070Y-119993881D01*
X119391909Y-119729040D01*
X119270624Y-119507000D01*
X118127000Y-119507000D01*
X117873000Y-119507000D01*
X117853000Y-119507000D01*
X117853000Y-119253000D01*
X117873000Y-119253000D01*
X117873000Y-118110085D01*
X118127000Y-118110085D01*
X118127000Y-119253000D01*
X119270624Y-119253000D01*
X119391909Y-119030960D01*
X119297070Y-118766119D01*
X119152385Y-118524869D01*
X118963414Y-118316481D01*
X118737420Y-118148963D01*
X118483087Y-118028754D01*
X118349039Y-117988096D01*
X118127000Y-118110085D01*
X117873000Y-118110085D01*
X117650961Y-117988096D01*
X117516913Y-118028754D01*
X117262580Y-118148963D01*
X117036586Y-118316481D01*
X116847615Y-118524869D01*
X116702930Y-118766119D01*
X116670400Y-118856960D01*
X116670400Y-114200000D01*
X117561928Y-114200000D01*
X117561928Y-115800000D01*
X117574188Y-115924482D01*
X117610498Y-116044180D01*
X117669463Y-116154494D01*
X117748815Y-116251185D01*
X117845506Y-116330537D01*
X117955820Y-116389502D01*
X118075518Y-116425812D01*
X118200000Y-116438072D01*
X119800000Y-116438072D01*
X119924482Y-116425812D01*
X120044180Y-116389502D01*
X120154494Y-116330537D01*
X120251185Y-116251185D01*
X120330537Y-116154494D01*
X120389502Y-116044180D01*
X120425812Y-115924482D01*
X120438072Y-115800000D01*
X120438072Y-114200000D01*
X120425812Y-114075518D01*
X120389502Y-113955820D01*
X120330537Y-113845506D01*
X120251185Y-113748815D01*
X120154494Y-113669463D01*
X120044180Y-113610498D01*
X119924482Y-113574188D01*
X119800000Y-113561928D01*
X118200000Y-113561928D01*
X118075518Y-113574188D01*
X117955820Y-113610498D01*
X117845506Y-113669463D01*
X117748815Y-113748815D01*
X117669463Y-113845506D01*
X117610498Y-113955820D01*
X117574188Y-114075518D01*
X117561928Y-114200000D01*
X116670400Y-114200000D01*
X116670400Y-112969040D01*
X121608091Y-112969040D01*
X121702930Y-113233881D01*
X121847615Y-113475131D01*
X122036586Y-113683519D01*
X122262580Y-113851037D01*
X122516913Y-113971246D01*
X122650961Y-114011904D01*
X122873000Y-113889915D01*
X122873000Y-112747000D01*
X121729376Y-112747000D01*
X121608091Y-112969040D01*
X116670400Y-112969040D01*
X116670400Y-112270960D01*
X121608091Y-112270960D01*
X121729376Y-112493000D01*
X122873000Y-112493000D01*
X122873000Y-111350085D01*
X122650961Y-111228096D01*
X122516913Y-111268754D01*
X122262580Y-111388963D01*
X122036586Y-111556481D01*
X121847615Y-111764869D01*
X121702930Y-112006119D01*
X121608091Y-112270960D01*
X116670400Y-112270960D01*
X116670400Y-107238665D01*
X117565000Y-107238665D01*
X117565000Y-107521335D01*
X117620147Y-107798574D01*
X117728320Y-108059727D01*
X117885363Y-108294759D01*
X118085241Y-108494637D01*
X118320273Y-108651680D01*
X118581426Y-108759853D01*
X118858665Y-108815000D01*
X119141335Y-108815000D01*
X119418574Y-108759853D01*
X119679727Y-108651680D01*
X119914759Y-108494637D01*
X120114637Y-108294759D01*
X120271680Y-108059727D01*
X120379853Y-107798574D01*
X120435000Y-107521335D01*
X120435000Y-107238665D01*
X120379853Y-106961426D01*
X120271680Y-106700273D01*
X120114637Y-106465241D01*
X119914759Y-106265363D01*
X119679727Y-106108320D01*
X119418574Y-106000147D01*
X119141335Y-105945000D01*
X118858665Y-105945000D01*
X118581426Y-106000147D01*
X118320273Y-106108320D01*
X118085241Y-106265363D01*
X117885363Y-106465241D01*
X117728320Y-106700273D01*
X117620147Y-106961426D01*
X117565000Y-107238665D01*
X116670400Y-107238665D01*
X116670400Y-105310767D01*
X117586426Y-104394742D01*
X117618291Y-104368591D01*
X117722636Y-104241446D01*
X117800172Y-104096387D01*
X117847918Y-103938989D01*
X117850471Y-103913072D01*
X117875000Y-103913072D01*
X117999482Y-103900812D01*
X118119180Y-103864502D01*
X118229494Y-103805537D01*
X118326185Y-103726185D01*
X118405537Y-103629494D01*
X118464502Y-103519180D01*
X118500812Y-103399482D01*
X118513072Y-103275000D01*
X118513072Y-101575000D01*
X118500812Y-101450518D01*
X118464502Y-101330820D01*
X118405537Y-101220506D01*
X118326185Y-101123815D01*
X118229494Y-101044463D01*
X118119180Y-100985498D01*
X117999482Y-100949188D01*
X117875000Y-100936928D01*
X116175000Y-100936928D01*
X116050518Y-100949188D01*
X115930820Y-100985498D01*
X115820506Y-101044463D01*
X115723815Y-101123815D01*
X115644463Y-101220506D01*
X115585498Y-101330820D01*
X115561034Y-101411466D01*
X115485269Y-101327412D01*
X115251920Y-101153359D01*
X114989099Y-101028175D01*
X114841890Y-100983524D01*
X114612000Y-101104845D01*
X114612000Y-102298000D01*
X114632000Y-102298000D01*
X114632000Y-102552000D01*
X114612000Y-102552000D01*
X114612000Y-103745155D01*
X114841890Y-103866476D01*
X114989099Y-103821825D01*
X115251920Y-103696641D01*
X115485269Y-103522588D01*
X115561034Y-103438534D01*
X115585498Y-103519180D01*
X115644463Y-103629494D01*
X115723815Y-103726185D01*
X115816875Y-103802557D01*
X115273974Y-104345459D01*
X115242110Y-104371609D01*
X115215962Y-104403471D01*
X115137764Y-104498755D01*
X115060228Y-104643814D01*
X115012482Y-104801212D01*
X114996360Y-104964900D01*
X115000401Y-105005929D01*
X115000400Y-129578731D01*
X112577940Y-132001193D01*
X112446260Y-131975000D01*
X112153740Y-131975000D01*
X111866842Y-132032068D01*
X111596589Y-132144010D01*
X111353368Y-132306525D01*
X111146525Y-132513368D01*
X111030000Y-132687760D01*
X110913475Y-132513368D01*
X110706632Y-132306525D01*
X110463411Y-132144010D01*
X110193158Y-132032068D01*
X109906260Y-131975000D01*
X109613740Y-131975000D01*
X109326842Y-132032068D01*
X109056589Y-132144010D01*
X108813368Y-132306525D01*
X108606525Y-132513368D01*
X108490000Y-132687760D01*
X108373475Y-132513368D01*
X108166632Y-132306525D01*
X107923411Y-132144010D01*
X107653158Y-132032068D01*
X107366260Y-131975000D01*
X107073740Y-131975000D01*
X106786842Y-132032068D01*
X106516589Y-132144010D01*
X106273368Y-132306525D01*
X106066525Y-132513368D01*
X105904010Y-132756589D01*
X105792068Y-133026842D01*
X105735000Y-133313740D01*
X105735000Y-133606260D01*
X105792068Y-133893158D01*
X105904010Y-134163411D01*
X106066525Y-134406632D01*
X106273368Y-134613475D01*
X106447760Y-134730000D01*
X106273368Y-134846525D01*
X106066525Y-135053368D01*
X105904010Y-135296589D01*
X105792068Y-135566842D01*
X105735000Y-135853740D01*
X105735000Y-136146260D01*
X105792068Y-136433158D01*
X105904010Y-136703411D01*
X106066525Y-136946632D01*
X106273368Y-137153475D01*
X106516589Y-137315990D01*
X106786842Y-137427932D01*
X107073740Y-137485000D01*
X107366260Y-137485000D01*
X107653158Y-137427932D01*
X107923411Y-137315990D01*
X108166632Y-137153475D01*
X108373475Y-136946632D01*
X108490000Y-136772240D01*
X108606525Y-136946632D01*
X108813368Y-137153475D01*
X109056589Y-137315990D01*
X109326842Y-137427932D01*
X109613740Y-137485000D01*
X109906260Y-137485000D01*
X110193158Y-137427932D01*
X110463411Y-137315990D01*
X110706632Y-137153475D01*
X110913475Y-136946632D01*
X111030000Y-136772240D01*
X111146525Y-136946632D01*
X111353368Y-137153475D01*
X111596589Y-137315990D01*
X111866842Y-137427932D01*
X112153740Y-137485000D01*
X112446260Y-137485000D01*
X112733158Y-137427932D01*
X113003411Y-137315990D01*
X113246632Y-137153475D01*
X113453475Y-136946632D01*
X113570000Y-136772240D01*
X113686525Y-136946632D01*
X113893368Y-137153475D01*
X114136589Y-137315990D01*
X114406842Y-137427932D01*
X114693740Y-137485000D01*
X114986260Y-137485000D01*
X115273158Y-137427932D01*
X115543411Y-137315990D01*
X115786632Y-137153475D01*
X115911710Y-137028397D01*
X116531208Y-137028397D01*
X116608843Y-137277472D01*
X116872883Y-137403371D01*
X117156411Y-137475339D01*
X117448531Y-137490611D01*
X117738019Y-137448599D01*
X118013747Y-137350919D01*
X118151157Y-137277472D01*
X118228792Y-137028397D01*
X119071208Y-137028397D01*
X119148843Y-137277472D01*
X119412883Y-137403371D01*
X119696411Y-137475339D01*
X119988531Y-137490611D01*
X120278019Y-137448599D01*
X120553747Y-137350919D01*
X120691157Y-137277472D01*
X120768792Y-137028397D01*
X121611208Y-137028397D01*
X121688843Y-137277472D01*
X121952883Y-137403371D01*
X122236411Y-137475339D01*
X122528531Y-137490611D01*
X122818019Y-137448599D01*
X123093747Y-137350919D01*
X123231157Y-137277472D01*
X123308792Y-137028397D01*
X122460000Y-136179605D01*
X121611208Y-137028397D01*
X120768792Y-137028397D01*
X119920000Y-136179605D01*
X119071208Y-137028397D01*
X118228792Y-137028397D01*
X117380000Y-136179605D01*
X116531208Y-137028397D01*
X115911710Y-137028397D01*
X115993475Y-136946632D01*
X116109311Y-136773271D01*
X116351603Y-136848792D01*
X117200395Y-136000000D01*
X117559605Y-136000000D01*
X118408397Y-136848792D01*
X118650000Y-136773486D01*
X118891603Y-136848792D01*
X119740395Y-136000000D01*
X120099605Y-136000000D01*
X120948397Y-136848792D01*
X121190000Y-136773486D01*
X121431603Y-136848792D01*
X122280395Y-136000000D01*
X121431603Y-135151208D01*
X121190000Y-135226514D01*
X120948397Y-135151208D01*
X120099605Y-136000000D01*
X119740395Y-136000000D01*
X118891603Y-135151208D01*
X118650000Y-135226514D01*
X118408397Y-135151208D01*
X117559605Y-136000000D01*
X117200395Y-136000000D01*
X116351603Y-135151208D01*
X116109311Y-135226729D01*
X115993475Y-135053368D01*
X115786632Y-134846525D01*
X115612240Y-134730000D01*
X115786632Y-134613475D01*
X115911710Y-134488397D01*
X116531208Y-134488397D01*
X116606514Y-134730000D01*
X116531208Y-134971603D01*
X117380000Y-135820395D01*
X118228792Y-134971603D01*
X118153486Y-134730000D01*
X118228792Y-134488397D01*
X119071208Y-134488397D01*
X119146514Y-134730000D01*
X119071208Y-134971603D01*
X119920000Y-135820395D01*
X120768792Y-134971603D01*
X120693486Y-134730000D01*
X120768792Y-134488397D01*
X121611208Y-134488397D01*
X121686514Y-134730000D01*
X121611208Y-134971603D01*
X122460000Y-135820395D01*
X123308792Y-134971603D01*
X123233486Y-134730000D01*
X123308792Y-134488397D01*
X122460000Y-133639605D01*
X121611208Y-134488397D01*
X120768792Y-134488397D01*
X119920000Y-133639605D01*
X119071208Y-134488397D01*
X118228792Y-134488397D01*
X117380000Y-133639605D01*
X116531208Y-134488397D01*
X115911710Y-134488397D01*
X115993475Y-134406632D01*
X116109311Y-134233271D01*
X116351603Y-134308792D01*
X117200395Y-133460000D01*
X117559605Y-133460000D01*
X118408397Y-134308792D01*
X118650000Y-134233486D01*
X118891603Y-134308792D01*
X119740395Y-133460000D01*
X120099605Y-133460000D01*
X120948397Y-134308792D01*
X121190000Y-134233486D01*
X121431603Y-134308792D01*
X122280395Y-133460000D01*
X122639605Y-133460000D01*
X123488397Y-134308792D01*
X123730689Y-134233271D01*
X123846525Y-134406632D01*
X124033608Y-134593715D01*
X123906614Y-134661595D01*
X123772038Y-134772038D01*
X123661595Y-134906614D01*
X123579528Y-135060150D01*
X123546420Y-135169293D01*
X123488397Y-135151208D01*
X122639605Y-136000000D01*
X123488397Y-136848792D01*
X123546420Y-136830707D01*
X123579528Y-136939850D01*
X123661595Y-137093386D01*
X123772038Y-137227962D01*
X123906614Y-137338405D01*
X124060150Y-137420472D01*
X124226746Y-137471008D01*
X124400000Y-137488072D01*
X125600000Y-137488072D01*
X125773254Y-137471008D01*
X125939850Y-137420472D01*
X126093386Y-137338405D01*
X126227962Y-137227962D01*
X126338405Y-137093386D01*
X126420472Y-136939850D01*
X126471008Y-136773254D01*
X126488072Y-136600000D01*
X126488072Y-135400000D01*
X126471008Y-135226746D01*
X126420472Y-135060150D01*
X126338405Y-134906614D01*
X126227962Y-134772038D01*
X126093386Y-134661595D01*
X125966392Y-134593715D01*
X126153475Y-134406632D01*
X126315990Y-134163411D01*
X126427932Y-133893158D01*
X126485000Y-133606260D01*
X126485000Y-133313740D01*
X126427932Y-133026842D01*
X126315990Y-132756589D01*
X126153475Y-132513368D01*
X125946632Y-132306525D01*
X125703411Y-132144010D01*
X125433158Y-132032068D01*
X125146260Y-131975000D01*
X124853740Y-131975000D01*
X124566842Y-132032068D01*
X124296589Y-132144010D01*
X124053368Y-132306525D01*
X123846525Y-132513368D01*
X123730689Y-132686729D01*
X123488397Y-132611208D01*
X122639605Y-133460000D01*
X122280395Y-133460000D01*
X121431603Y-132611208D01*
X121190000Y-132686514D01*
X120948397Y-132611208D01*
X120099605Y-133460000D01*
X119740395Y-133460000D01*
X118891603Y-132611208D01*
X118650000Y-132686514D01*
X118408397Y-132611208D01*
X117559605Y-133460000D01*
X117200395Y-133460000D01*
X116351603Y-132611208D01*
X116109311Y-132686729D01*
X115993475Y-132513368D01*
X115911710Y-132431603D01*
X116531208Y-132431603D01*
X117380000Y-133280395D01*
X118228792Y-132431603D01*
X119071208Y-132431603D01*
X119920000Y-133280395D01*
X120768792Y-132431603D01*
X121611208Y-132431603D01*
X122460000Y-133280395D01*
X123308792Y-132431603D01*
X123231157Y-132182528D01*
X122967117Y-132056629D01*
X122683589Y-131984661D01*
X122391469Y-131969389D01*
X122101981Y-132011401D01*
X121826253Y-132109081D01*
X121688843Y-132182528D01*
X121611208Y-132431603D01*
X120768792Y-132431603D01*
X120691157Y-132182528D01*
X120427117Y-132056629D01*
X120143589Y-131984661D01*
X119851469Y-131969389D01*
X119561981Y-132011401D01*
X119286253Y-132109081D01*
X119148843Y-132182528D01*
X119071208Y-132431603D01*
X118228792Y-132431603D01*
X118151157Y-132182528D01*
X117887117Y-132056629D01*
X117603589Y-131984661D01*
X117311469Y-131969389D01*
X117021981Y-132011401D01*
X116746253Y-132109081D01*
X116608843Y-132182528D01*
X116531208Y-132431603D01*
X115911710Y-132431603D01*
X115786632Y-132306525D01*
X115543411Y-132144010D01*
X115273158Y-132032068D01*
X114986260Y-131975000D01*
X114965868Y-131975000D01*
X116396833Y-130544036D01*
X116428691Y-130517891D01*
X116533036Y-130390746D01*
X116610572Y-130245687D01*
X116658318Y-130088289D01*
X116670400Y-129965619D01*
X116670400Y-129965618D01*
X116674440Y-129924600D01*
X116670400Y-129883582D01*
X116670400Y-128155636D01*
X116748815Y-128251185D01*
X116845506Y-128330537D01*
X116955820Y-128389502D01*
X117075518Y-128425812D01*
X117200000Y-128438072D01*
X118800000Y-128438072D01*
X118924482Y-128425812D01*
X119044180Y-128389502D01*
X119154494Y-128330537D01*
X119251185Y-128251185D01*
X119330537Y-128154494D01*
X119389502Y-128044180D01*
X119425812Y-127924482D01*
X119438072Y-127800000D01*
X119438072Y-126200000D01*
X121561928Y-126200000D01*
X121561928Y-127800000D01*
X121574188Y-127924482D01*
X121610498Y-128044180D01*
X121669463Y-128154494D01*
X121748815Y-128251185D01*
X121845506Y-128330537D01*
X121955820Y-128389502D01*
X122075518Y-128425812D01*
X122200000Y-128438072D01*
X123800000Y-128438072D01*
X123924482Y-128425812D01*
X124044180Y-128389502D01*
X124154494Y-128330537D01*
X124251185Y-128251185D01*
X124330537Y-128154494D01*
X124389502Y-128044180D01*
X124412295Y-127969040D01*
X125608091Y-127969040D01*
X125702930Y-128233881D01*
X125847615Y-128475131D01*
X126036586Y-128683519D01*
X126262580Y-128851037D01*
X126516913Y-128971246D01*
X126650961Y-129011904D01*
X126873000Y-128889915D01*
X126873000Y-127747000D01*
X127127000Y-127747000D01*
X127127000Y-128889915D01*
X127349039Y-129011904D01*
X127483087Y-128971246D01*
X127737420Y-128851037D01*
X127963414Y-128683519D01*
X128152385Y-128475131D01*
X128297070Y-128233881D01*
X128391909Y-127969040D01*
X128270624Y-127747000D01*
X127127000Y-127747000D01*
X126873000Y-127747000D01*
X125729376Y-127747000D01*
X125608091Y-127969040D01*
X124412295Y-127969040D01*
X124425812Y-127924482D01*
X124438072Y-127800000D01*
X124438072Y-127270960D01*
X125608091Y-127270960D01*
X125729376Y-127493000D01*
X126873000Y-127493000D01*
X126873000Y-126350085D01*
X127127000Y-126350085D01*
X127127000Y-127493000D01*
X128270624Y-127493000D01*
X128391909Y-127270960D01*
X128297070Y-127006119D01*
X128152385Y-126764869D01*
X127963414Y-126556481D01*
X127737420Y-126388963D01*
X127483087Y-126268754D01*
X127349039Y-126228096D01*
X127127000Y-126350085D01*
X126873000Y-126350085D01*
X126650961Y-126228096D01*
X126516913Y-126268754D01*
X126262580Y-126388963D01*
X126036586Y-126556481D01*
X125847615Y-126764869D01*
X125702930Y-127006119D01*
X125608091Y-127270960D01*
X124438072Y-127270960D01*
X124438072Y-126200000D01*
X124425812Y-126075518D01*
X124389502Y-125955820D01*
X124330537Y-125845506D01*
X124251185Y-125748815D01*
X124154494Y-125669463D01*
X124044180Y-125610498D01*
X123924482Y-125574188D01*
X123800000Y-125561928D01*
X122200000Y-125561928D01*
X122075518Y-125574188D01*
X121955820Y-125610498D01*
X121845506Y-125669463D01*
X121748815Y-125748815D01*
X121669463Y-125845506D01*
X121610498Y-125955820D01*
X121574188Y-126075518D01*
X121561928Y-126200000D01*
X119438072Y-126200000D01*
X119425812Y-126075518D01*
X119413741Y-126035726D01*
X124861828Y-120587640D01*
X124893691Y-120561491D01*
X124998036Y-120434346D01*
X125075572Y-120289287D01*
X125123318Y-120131889D01*
X125135400Y-120009219D01*
X125135400Y-120009218D01*
X125139440Y-119968201D01*
X125135400Y-119927182D01*
X125135400Y-99381718D01*
X125139440Y-99340700D01*
X125134091Y-99286387D01*
X125123318Y-99177011D01*
X125075572Y-99019613D01*
X124998036Y-98874554D01*
X124893691Y-98747409D01*
X124893146Y-98746961D01*
X125078475Y-98561632D01*
X125240990Y-98318411D01*
X125270300Y-98247649D01*
X125270300Y-106064281D01*
X125266260Y-106105300D01*
X125270300Y-106146318D01*
X125282382Y-106268988D01*
X125330128Y-106426386D01*
X125407664Y-106571445D01*
X125512009Y-106698591D01*
X125543879Y-106724746D01*
X126583715Y-107764582D01*
X126565000Y-107858665D01*
X126565000Y-108141335D01*
X126620147Y-108418574D01*
X126728320Y-108679727D01*
X126885363Y-108914759D01*
X127085241Y-109114637D01*
X127320273Y-109271680D01*
X127473001Y-109334942D01*
X127473001Y-112642691D01*
X127418574Y-112620147D01*
X127141335Y-112565000D01*
X126858665Y-112565000D01*
X126581426Y-112620147D01*
X126320273Y-112728320D01*
X126085241Y-112885363D01*
X125885363Y-113085241D01*
X125728320Y-113320273D01*
X125620147Y-113581426D01*
X125565000Y-113858665D01*
X125565000Y-114141335D01*
X125620147Y-114418574D01*
X125728320Y-114679727D01*
X125885363Y-114914759D01*
X126085241Y-115114637D01*
X126317759Y-115270000D01*
X126085241Y-115425363D01*
X125885363Y-115625241D01*
X125728320Y-115860273D01*
X125620147Y-116121426D01*
X125565000Y-116398665D01*
X125565000Y-116681335D01*
X125620147Y-116958574D01*
X125728320Y-117219727D01*
X125885363Y-117454759D01*
X126085241Y-117654637D01*
X126320273Y-117811680D01*
X126581426Y-117919853D01*
X126596067Y-117922765D01*
X126438574Y-118080259D01*
X126406710Y-118106409D01*
X126329902Y-118200000D01*
X126302364Y-118233555D01*
X126224828Y-118378614D01*
X126177082Y-118536012D01*
X126174280Y-118564461D01*
X126075518Y-118574188D01*
X125955820Y-118610498D01*
X125845506Y-118669463D01*
X125748815Y-118748815D01*
X125669463Y-118845506D01*
X125610498Y-118955820D01*
X125574188Y-119075518D01*
X125561928Y-119200000D01*
X125561928Y-120800000D01*
X125574188Y-120924482D01*
X125610498Y-121044180D01*
X125669463Y-121154494D01*
X125748815Y-121251185D01*
X125845506Y-121330537D01*
X125955820Y-121389502D01*
X126075518Y-121425812D01*
X126200000Y-121438072D01*
X127800000Y-121438072D01*
X127924482Y-121425812D01*
X128044180Y-121389502D01*
X128154494Y-121330537D01*
X128251185Y-121251185D01*
X128330537Y-121154494D01*
X128389502Y-121044180D01*
X128425812Y-120924482D01*
X128438072Y-120800000D01*
X128438072Y-119200000D01*
X128425812Y-119075518D01*
X128389502Y-118955820D01*
X128330537Y-118845506D01*
X128251185Y-118748815D01*
X128185587Y-118694980D01*
X128869428Y-118011140D01*
X128901291Y-117984991D01*
X129005636Y-117857846D01*
X129083172Y-117712787D01*
X129130918Y-117555389D01*
X129143000Y-117432719D01*
X129143000Y-117432709D01*
X129147039Y-117391701D01*
X129143000Y-117350693D01*
X129143000Y-108872311D01*
X129271680Y-108679727D01*
X129379853Y-108418574D01*
X129435000Y-108141335D01*
X129435000Y-107858665D01*
X129379853Y-107581426D01*
X129271680Y-107320273D01*
X129114637Y-107085241D01*
X128914759Y-106885363D01*
X128682241Y-106730000D01*
X128914759Y-106574637D01*
X129114637Y-106374759D01*
X129271680Y-106139727D01*
X129379853Y-105878574D01*
X129435000Y-105601335D01*
X129435000Y-105318665D01*
X129379853Y-105041426D01*
X129271680Y-104780273D01*
X129114637Y-104545241D01*
X128914759Y-104345363D01*
X128835000Y-104292070D01*
X128835000Y-104200718D01*
X128839040Y-104159699D01*
X128822918Y-103996011D01*
X128775172Y-103838613D01*
X128766199Y-103821825D01*
X128697636Y-103693554D01*
X128593291Y-103566409D01*
X128561421Y-103540254D01*
X128464500Y-103443333D01*
X128464500Y-101960717D01*
X128533855Y-102017636D01*
X128678914Y-102095172D01*
X128836312Y-102142918D01*
X129000000Y-102159040D01*
X129163688Y-102142918D01*
X129321086Y-102095172D01*
X129466145Y-102017636D01*
X129561429Y-101939438D01*
X130340000Y-101160868D01*
X130340000Y-139340000D01*
X101660000Y-139340000D01*
X101660000Y-128779872D01*
X102015000Y-128779872D01*
X102015000Y-129220128D01*
X102100890Y-129651925D01*
X102269369Y-130058669D01*
X102513962Y-130424729D01*
X102825271Y-130736038D01*
X103191331Y-130980631D01*
X103598075Y-131149110D01*
X104029872Y-131235000D01*
X104470128Y-131235000D01*
X104901925Y-131149110D01*
X105308669Y-130980631D01*
X105674729Y-130736038D01*
X105986038Y-130424729D01*
X106230631Y-130058669D01*
X106399110Y-129651925D01*
X106485000Y-129220128D01*
X106485000Y-128779872D01*
X106399110Y-128348075D01*
X106230631Y-127941331D01*
X105986038Y-127575271D01*
X105674729Y-127263962D01*
X105308669Y-127019369D01*
X105187165Y-126969040D01*
X110608091Y-126969040D01*
X110702930Y-127233881D01*
X110847615Y-127475131D01*
X111036586Y-127683519D01*
X111262580Y-127851037D01*
X111516913Y-127971246D01*
X111650961Y-128011904D01*
X111873000Y-127889915D01*
X111873000Y-126747000D01*
X112127000Y-126747000D01*
X112127000Y-127889915D01*
X112349039Y-128011904D01*
X112483087Y-127971246D01*
X112737420Y-127851037D01*
X112963414Y-127683519D01*
X113152385Y-127475131D01*
X113297070Y-127233881D01*
X113391909Y-126969040D01*
X113270624Y-126747000D01*
X112127000Y-126747000D01*
X111873000Y-126747000D01*
X110729376Y-126747000D01*
X110608091Y-126969040D01*
X105187165Y-126969040D01*
X104901925Y-126850890D01*
X104470128Y-126765000D01*
X104029872Y-126765000D01*
X103598075Y-126850890D01*
X103191331Y-127019369D01*
X102825271Y-127263962D01*
X102513962Y-127575271D01*
X102269369Y-127941331D01*
X102100890Y-128348075D01*
X102015000Y-128779872D01*
X101660000Y-128779872D01*
X101660000Y-126270960D01*
X110608091Y-126270960D01*
X110729376Y-126493000D01*
X111873000Y-126493000D01*
X111873000Y-125350085D01*
X112127000Y-125350085D01*
X112127000Y-126493000D01*
X113270624Y-126493000D01*
X113391909Y-126270960D01*
X113297070Y-126006119D01*
X113152385Y-125764869D01*
X112963414Y-125556481D01*
X112737420Y-125388963D01*
X112483087Y-125268754D01*
X112349039Y-125228096D01*
X112127000Y-125350085D01*
X111873000Y-125350085D01*
X111650961Y-125228096D01*
X111516913Y-125268754D01*
X111262580Y-125388963D01*
X111036586Y-125556481D01*
X110847615Y-125764869D01*
X110702930Y-126006119D01*
X110608091Y-126270960D01*
X101660000Y-126270960D01*
X101660000Y-121478665D01*
X102565000Y-121478665D01*
X102565000Y-121761335D01*
X102620147Y-122038574D01*
X102728320Y-122299727D01*
X102885363Y-122534759D01*
X103085241Y-122734637D01*
X103320273Y-122891680D01*
X103581426Y-122999853D01*
X103858665Y-123055000D01*
X104141335Y-123055000D01*
X104418574Y-122999853D01*
X104679727Y-122891680D01*
X104914759Y-122734637D01*
X105114637Y-122534759D01*
X105271680Y-122299727D01*
X105379853Y-122038574D01*
X105435000Y-121761335D01*
X105435000Y-121478665D01*
X105379853Y-121201426D01*
X105271680Y-120940273D01*
X105114637Y-120705241D01*
X104914759Y-120505363D01*
X104679727Y-120348320D01*
X104418574Y-120240147D01*
X104141335Y-120185000D01*
X103858665Y-120185000D01*
X103581426Y-120240147D01*
X103320273Y-120348320D01*
X103085241Y-120505363D01*
X102885363Y-120705241D01*
X102728320Y-120940273D01*
X102620147Y-121201426D01*
X102565000Y-121478665D01*
X101660000Y-121478665D01*
X101660000Y-108540567D01*
X102814413Y-109694980D01*
X102748815Y-109748815D01*
X102669463Y-109845506D01*
X102610498Y-109955820D01*
X102574188Y-110075518D01*
X102561928Y-110200000D01*
X102561928Y-111800000D01*
X102574188Y-111924482D01*
X102610498Y-112044180D01*
X102669463Y-112154494D01*
X102748815Y-112251185D01*
X102845506Y-112330537D01*
X102955820Y-112389502D01*
X103075518Y-112425812D01*
X103165001Y-112434625D01*
X103165000Y-112565375D01*
X103075518Y-112574188D01*
X102955820Y-112610498D01*
X102845506Y-112669463D01*
X102748815Y-112748815D01*
X102669463Y-112845506D01*
X102610498Y-112955820D01*
X102574188Y-113075518D01*
X102561928Y-113200000D01*
X102561928Y-114800000D01*
X102574188Y-114924482D01*
X102610498Y-115044180D01*
X102669463Y-115154494D01*
X102748815Y-115251185D01*
X102845506Y-115330537D01*
X102955820Y-115389502D01*
X103075518Y-115425812D01*
X103200000Y-115438072D01*
X104800000Y-115438072D01*
X104924482Y-115425812D01*
X105044180Y-115389502D01*
X105154494Y-115330537D01*
X105251185Y-115251185D01*
X105330537Y-115154494D01*
X105389502Y-115044180D01*
X105425812Y-114924482D01*
X105438072Y-114800000D01*
X105438072Y-113200000D01*
X105425812Y-113075518D01*
X105389502Y-112955820D01*
X105330537Y-112845506D01*
X105251185Y-112748815D01*
X105154494Y-112669463D01*
X105044180Y-112610498D01*
X104924482Y-112574188D01*
X104835000Y-112565375D01*
X104835000Y-112434625D01*
X104924482Y-112425812D01*
X105044180Y-112389502D01*
X105154494Y-112330537D01*
X105251185Y-112251185D01*
X105330537Y-112154494D01*
X105389502Y-112044180D01*
X105425812Y-111924482D01*
X105438072Y-111800000D01*
X105438072Y-110200000D01*
X105425812Y-110075518D01*
X105389502Y-109955820D01*
X105330537Y-109845506D01*
X105251185Y-109748815D01*
X105154494Y-109669463D01*
X105044180Y-109610498D01*
X104924482Y-109574188D01*
X104825720Y-109564461D01*
X104822918Y-109536011D01*
X104775172Y-109378613D01*
X104697636Y-109233554D01*
X104593291Y-109106409D01*
X104561427Y-109080259D01*
X102484700Y-107003533D01*
X102484700Y-100173908D01*
X102566842Y-100207932D01*
X102853740Y-100265000D01*
X103146260Y-100265000D01*
X103433158Y-100207932D01*
X103703411Y-100095990D01*
X103946632Y-99933475D01*
X104153475Y-99726632D01*
X104315990Y-99483411D01*
X104427932Y-99213158D01*
X104485000Y-98926260D01*
X104485000Y-98633740D01*
X104427932Y-98346842D01*
X104315990Y-98076589D01*
X104153475Y-97833368D01*
X103946632Y-97626525D01*
X103772240Y-97510000D01*
X103946632Y-97393475D01*
X104134774Y-97205333D01*
X107973660Y-101044129D01*
X107999809Y-101075991D01*
X108031669Y-101102138D01*
X108954504Y-102025000D01*
X108858665Y-102025000D01*
X108581426Y-102080147D01*
X108320273Y-102188320D01*
X108085241Y-102345363D01*
X107885363Y-102545241D01*
X107728320Y-102780273D01*
X107620147Y-103041426D01*
X107565000Y-103318665D01*
X107565000Y-103601335D01*
X107620147Y-103878574D01*
X107728320Y-104139727D01*
X107885363Y-104374759D01*
X108085241Y-104574637D01*
X108317759Y-104730000D01*
X108085241Y-104885363D01*
X108035886Y-104934718D01*
X105919746Y-102818579D01*
X105893591Y-102786709D01*
X105766446Y-102682364D01*
X105621387Y-102604828D01*
X105463989Y-102557082D01*
X105341319Y-102545000D01*
X105341318Y-102545000D01*
X105300300Y-102540960D01*
X105259282Y-102545000D01*
X105167930Y-102545000D01*
X105114637Y-102465241D01*
X104914759Y-102265363D01*
X104679727Y-102108320D01*
X104418574Y-102000147D01*
X104141335Y-101945000D01*
X103858665Y-101945000D01*
X103581426Y-102000147D01*
X103320273Y-102108320D01*
X103085241Y-102265363D01*
X102885363Y-102465241D01*
X102728320Y-102700273D01*
X102620147Y-102961426D01*
X102565000Y-103238665D01*
X102565000Y-103521335D01*
X102620147Y-103798574D01*
X102728320Y-104059727D01*
X102885363Y-104294759D01*
X103085241Y-104494637D01*
X103320273Y-104651680D01*
X103581426Y-104759853D01*
X103858665Y-104815000D01*
X104141335Y-104815000D01*
X104418574Y-104759853D01*
X104679727Y-104651680D01*
X104914759Y-104494637D01*
X105074414Y-104334982D01*
X107300863Y-106561432D01*
X107327009Y-106593291D01*
X107454154Y-106697636D01*
X107599213Y-106775172D01*
X107756611Y-106822918D01*
X107828744Y-106830023D01*
X107885363Y-106914759D01*
X108085241Y-107114637D01*
X108320273Y-107271680D01*
X108581426Y-107379853D01*
X108858665Y-107435000D01*
X109141335Y-107435000D01*
X109418574Y-107379853D01*
X109679727Y-107271680D01*
X109914759Y-107114637D01*
X110114637Y-106914759D01*
X110271680Y-106679727D01*
X110379853Y-106418574D01*
X110435000Y-106141335D01*
X110435000Y-105858665D01*
X110379853Y-105581426D01*
X110271680Y-105320273D01*
X110114637Y-105085241D01*
X109914759Y-104885363D01*
X109682241Y-104730000D01*
X109914759Y-104574637D01*
X110114637Y-104374759D01*
X110271680Y-104139727D01*
X110379853Y-103878574D01*
X110435000Y-103601335D01*
X110435000Y-103505539D01*
X111165001Y-104235562D01*
X111165000Y-117565375D01*
X111075518Y-117574188D01*
X110955820Y-117610498D01*
X110845506Y-117669463D01*
X110748815Y-117748815D01*
X110669463Y-117845506D01*
X110610498Y-117955820D01*
X110574188Y-118075518D01*
X110561928Y-118200000D01*
X110561928Y-119800000D01*
X110574188Y-119924482D01*
X110610498Y-120044180D01*
X110669463Y-120154494D01*
X110748815Y-120251185D01*
X110845506Y-120330537D01*
X110955820Y-120389502D01*
X111075518Y-120425812D01*
X111200000Y-120438072D01*
X112800000Y-120438072D01*
X112924482Y-120425812D01*
X113044180Y-120389502D01*
X113154494Y-120330537D01*
X113251185Y-120251185D01*
X113330537Y-120154494D01*
X113389502Y-120044180D01*
X113425812Y-119924482D01*
X113438072Y-119800000D01*
X113438072Y-118200000D01*
X113425812Y-118075518D01*
X113389502Y-117955820D01*
X113330537Y-117845506D01*
X113251185Y-117748815D01*
X113154494Y-117669463D01*
X113044180Y-117610498D01*
X112924482Y-117574188D01*
X112835000Y-117565375D01*
X112835000Y-103930723D01*
X112839040Y-103889712D01*
X112835000Y-103848688D01*
X112835000Y-103848681D01*
X112823552Y-103732445D01*
X112822920Y-103726024D01*
X112822919Y-103726020D01*
X112822918Y-103726011D01*
X112780867Y-103587386D01*
X112775176Y-103568624D01*
X112775174Y-103568621D01*
X112775172Y-103568613D01*
X112718220Y-103462064D01*
X112697643Y-103423565D01*
X112697640Y-103423561D01*
X112697636Y-103423554D01*
X112645590Y-103360136D01*
X112619447Y-103328279D01*
X112619441Y-103328273D01*
X112593291Y-103296409D01*
X112561436Y-103270266D01*
X112073076Y-102781891D01*
X113043519Y-102781891D01*
X113140843Y-103056252D01*
X113289822Y-103306355D01*
X113484731Y-103522588D01*
X113718080Y-103696641D01*
X113980901Y-103821825D01*
X114128110Y-103866476D01*
X114358000Y-103745155D01*
X114358000Y-102552000D01*
X113164186Y-102552000D01*
X113043519Y-102781891D01*
X112073076Y-102781891D01*
X111359315Y-102068109D01*
X113043519Y-102068109D01*
X113164186Y-102298000D01*
X114358000Y-102298000D01*
X114358000Y-101104845D01*
X114128110Y-100983524D01*
X113980901Y-101028175D01*
X113718080Y-101153359D01*
X113484731Y-101327412D01*
X113289822Y-101543645D01*
X113140843Y-101793748D01*
X113043519Y-102068109D01*
X111359315Y-102068109D01*
X109807608Y-100516359D01*
X111535276Y-98788692D01*
X111680398Y-98759826D01*
X111868756Y-98681805D01*
X112038274Y-98568537D01*
X112182437Y-98424374D01*
X112295705Y-98254856D01*
X112373726Y-98066498D01*
X112413500Y-97866539D01*
X112413500Y-97662661D01*
X112373726Y-97462702D01*
X112295705Y-97274344D01*
X112182437Y-97104826D01*
X112038274Y-96960663D01*
X111868756Y-96847395D01*
X111680398Y-96769374D01*
X111480439Y-96729600D01*
X111276561Y-96729600D01*
X111076602Y-96769374D01*
X110909258Y-96838691D01*
X112219827Y-95528122D01*
X112251691Y-95501972D01*
X112356036Y-95374827D01*
X112433572Y-95229768D01*
X112481318Y-95072370D01*
X112493400Y-94949700D01*
X112497440Y-94908682D01*
X112493400Y-94867663D01*
X112493400Y-91938207D01*
X112497439Y-91897199D01*
X112493400Y-91856191D01*
X112493400Y-91856181D01*
X112481318Y-91733511D01*
X112433572Y-91576113D01*
X112356036Y-91431054D01*
X112251691Y-91303909D01*
X112219828Y-91277760D01*
X110837898Y-89895831D01*
X110837898Y-89538685D01*
X110920103Y-89415656D01*
X110998124Y-89227298D01*
X111037898Y-89027339D01*
X111037898Y-88823461D01*
X110998124Y-88623502D01*
X110920103Y-88435144D01*
X110806835Y-88265626D01*
X110662672Y-88121463D01*
X110493154Y-88008195D01*
X110304796Y-87930174D01*
X110104837Y-87890400D01*
X109900959Y-87890400D01*
X109701000Y-87930174D01*
X109512642Y-88008195D01*
X109343124Y-88121463D01*
X109198961Y-88265626D01*
X109085693Y-88435144D01*
X109007672Y-88623502D01*
X108967898Y-88823461D01*
X108967898Y-89027339D01*
X109001161Y-89194566D01*
X108903475Y-89048368D01*
X108696632Y-88841525D01*
X108522240Y-88725000D01*
X108696632Y-88608475D01*
X108903475Y-88401632D01*
X109065990Y-88158411D01*
X109177932Y-87888158D01*
X109235000Y-87601260D01*
X109235000Y-87308740D01*
X109177932Y-87021842D01*
X109065990Y-86751589D01*
X108903475Y-86508368D01*
X108696632Y-86301525D01*
X108514466Y-86179805D01*
X108631355Y-86110178D01*
X108847588Y-85915269D01*
X109021641Y-85681920D01*
X109146825Y-85419099D01*
X109191476Y-85271890D01*
X109070155Y-85042000D01*
X107877000Y-85042000D01*
X107877000Y-85062000D01*
X107623000Y-85062000D01*
X107623000Y-85042000D01*
X106429845Y-85042000D01*
X106308524Y-85271890D01*
X106353175Y-85419099D01*
X106478359Y-85681920D01*
X106652412Y-85915269D01*
X106868645Y-86110178D01*
X106985534Y-86179805D01*
X106803368Y-86301525D01*
X106596525Y-86508368D01*
X106434010Y-86751589D01*
X106322068Y-87021842D01*
X106265000Y-87308740D01*
X106265000Y-87601260D01*
X106322068Y-87888158D01*
X106434010Y-88158411D01*
X106596525Y-88401632D01*
X106803368Y-88608475D01*
X106977760Y-88725000D01*
X106803368Y-88841525D01*
X106596525Y-89048368D01*
X106434010Y-89291589D01*
X106322068Y-89561842D01*
X106265000Y-89848740D01*
X106265000Y-90141260D01*
X106322068Y-90428158D01*
X106434010Y-90698411D01*
X106596525Y-90941632D01*
X106803368Y-91148475D01*
X106977760Y-91265000D01*
X106803368Y-91381525D01*
X106596525Y-91588368D01*
X106434010Y-91831589D01*
X106322068Y-92101842D01*
X106265000Y-92388740D01*
X106265000Y-92681260D01*
X106322068Y-92968158D01*
X106434010Y-93238411D01*
X106596525Y-93481632D01*
X106803368Y-93688475D01*
X106977760Y-93805000D01*
X106803368Y-93921525D01*
X106596525Y-94128368D01*
X106434010Y-94371589D01*
X106322068Y-94641842D01*
X106265000Y-94928740D01*
X106265000Y-95221260D01*
X106322068Y-95508158D01*
X106434010Y-95778411D01*
X106596525Y-96021632D01*
X106803368Y-96228475D01*
X106977760Y-96345000D01*
X106803368Y-96461525D01*
X106596525Y-96668368D01*
X106434010Y-96911589D01*
X106366288Y-97075086D01*
X104969740Y-95678571D01*
X104943591Y-95646709D01*
X104816446Y-95542364D01*
X104671387Y-95464828D01*
X104513989Y-95417082D01*
X104513982Y-95417081D01*
X104513978Y-95417080D01*
X104432518Y-95409058D01*
X104391319Y-95405000D01*
X104391314Y-95405000D01*
X104350291Y-95400960D01*
X104309278Y-95405000D01*
X104228065Y-95405000D01*
X104153475Y-95293368D01*
X103946632Y-95086525D01*
X103772240Y-94970000D01*
X103946632Y-94853475D01*
X104153475Y-94646632D01*
X104315990Y-94403411D01*
X104427932Y-94133158D01*
X104485000Y-93846260D01*
X104485000Y-93553740D01*
X104427932Y-93266842D01*
X104315990Y-92996589D01*
X104153475Y-92753368D01*
X103946632Y-92546525D01*
X103772240Y-92430000D01*
X103946632Y-92313475D01*
X104153475Y-92106632D01*
X104315990Y-91863411D01*
X104427932Y-91593158D01*
X104485000Y-91306260D01*
X104485000Y-91013740D01*
X104427932Y-90726842D01*
X104315990Y-90456589D01*
X104153475Y-90213368D01*
X103946632Y-90006525D01*
X103772240Y-89890000D01*
X103946632Y-89773475D01*
X104153475Y-89566632D01*
X104315990Y-89323411D01*
X104427932Y-89053158D01*
X104485000Y-88766260D01*
X104485000Y-88473740D01*
X104427932Y-88186842D01*
X104315990Y-87916589D01*
X104153475Y-87673368D01*
X103946632Y-87466525D01*
X103772240Y-87350000D01*
X103946632Y-87233475D01*
X104153475Y-87026632D01*
X104315990Y-86783411D01*
X104427932Y-86513158D01*
X104485000Y-86226260D01*
X104485000Y-85933740D01*
X104458807Y-85802061D01*
X106361833Y-83899036D01*
X106393691Y-83872891D01*
X106498036Y-83745746D01*
X106508872Y-83725473D01*
X106545506Y-83755537D01*
X106655820Y-83814502D01*
X106736466Y-83838966D01*
X106652412Y-83914731D01*
X106478359Y-84148080D01*
X106353175Y-84410901D01*
X106308524Y-84558110D01*
X106429845Y-84788000D01*
X107623000Y-84788000D01*
X107623000Y-84768000D01*
X107877000Y-84768000D01*
X107877000Y-84788000D01*
X109070155Y-84788000D01*
X109191476Y-84558110D01*
X109146825Y-84410901D01*
X109021641Y-84148080D01*
X108847588Y-83914731D01*
X108763534Y-83838966D01*
X108844180Y-83814502D01*
X108954494Y-83755537D01*
X109051185Y-83676185D01*
X109130537Y-83579494D01*
X109189502Y-83469180D01*
X109225812Y-83349482D01*
X109238072Y-83225000D01*
X109238072Y-81525000D01*
X109225812Y-81400518D01*
X109189502Y-81280820D01*
X109130537Y-81170506D01*
X109051185Y-81073815D01*
X108954494Y-80994463D01*
X108844180Y-80935498D01*
X108724482Y-80899188D01*
X108600000Y-80886928D01*
X108585000Y-80886928D01*
X108585000Y-79673218D01*
X108589040Y-79632199D01*
X108572918Y-79468511D01*
X108525172Y-79311113D01*
X108447636Y-79166054D01*
X108343291Y-79038909D01*
X108311428Y-79012760D01*
X105938072Y-76639405D01*
X105938072Y-75450000D01*
X105925812Y-75325518D01*
X105889502Y-75205820D01*
X105830537Y-75095506D01*
X105751185Y-74998815D01*
X105654494Y-74919463D01*
X105544180Y-74860498D01*
X105424482Y-74824188D01*
X105300000Y-74811928D01*
X103700000Y-74811928D01*
X103575518Y-74824188D01*
X103455820Y-74860498D01*
X103425600Y-74876651D01*
X103425600Y-73992702D01*
X107186903Y-73992702D01*
X107258486Y-74236671D01*
X107513996Y-74357571D01*
X107788184Y-74426300D01*
X108070512Y-74440217D01*
X108350130Y-74398787D01*
X108616292Y-74303603D01*
X108741514Y-74236671D01*
X108813097Y-73992702D01*
X108000000Y-73179605D01*
X107186903Y-73992702D01*
X103425600Y-73992702D01*
X103425600Y-73070512D01*
X106559783Y-73070512D01*
X106601213Y-73350130D01*
X106696397Y-73616292D01*
X106763329Y-73741514D01*
X107007298Y-73813097D01*
X107820395Y-73000000D01*
X107007298Y-72186903D01*
X106763329Y-72258486D01*
X106642429Y-72513996D01*
X106573700Y-72788184D01*
X106559783Y-73070512D01*
X103425600Y-73070512D01*
X103425600Y-72007298D01*
X107186903Y-72007298D01*
X108000000Y-72820395D01*
X108813097Y-72007298D01*
X108741514Y-71763329D01*
X108486004Y-71642429D01*
X108211816Y-71573700D01*
X107929488Y-71559783D01*
X107649870Y-71601213D01*
X107383708Y-71696397D01*
X107258486Y-71763329D01*
X107186903Y-72007298D01*
X103425600Y-72007298D01*
X103425600Y-69584996D01*
X103585241Y-69744637D01*
X103820273Y-69901680D01*
X104081426Y-70009853D01*
X104358665Y-70065000D01*
X104641335Y-70065000D01*
X104918574Y-70009853D01*
X105179727Y-69901680D01*
X105414759Y-69744637D01*
X105614637Y-69544759D01*
X105771680Y-69309727D01*
X105879853Y-69048574D01*
X105935000Y-68771335D01*
X105935000Y-68488665D01*
X105879853Y-68211426D01*
X105771680Y-67950273D01*
X105614637Y-67715241D01*
X105414759Y-67515363D01*
X105179727Y-67358320D01*
X104918574Y-67250147D01*
X104641335Y-67195000D01*
X104358665Y-67195000D01*
X104081426Y-67250147D01*
X103820273Y-67358320D01*
X103585241Y-67515363D01*
X103425600Y-67675004D01*
X103425600Y-66877000D01*
X108945000Y-66877000D01*
X108945000Y-67277000D01*
X108997350Y-67554514D01*
X109102834Y-67816483D01*
X109257399Y-68052839D01*
X109455105Y-68254500D01*
X109688354Y-68413715D01*
X109948182Y-68524367D01*
X110030961Y-68541904D01*
X110253000Y-68419915D01*
X110253000Y-66877000D01*
X108945000Y-66877000D01*
X103425600Y-66877000D01*
X103425600Y-66223000D01*
X108945000Y-66223000D01*
X108945000Y-66623000D01*
X110253000Y-66623000D01*
X110253000Y-65080085D01*
X110030961Y-64958096D01*
X109948182Y-64975633D01*
X109688354Y-65086285D01*
X109455105Y-65245500D01*
X109257399Y-65447161D01*
X109102834Y-65683517D01*
X108997350Y-65945486D01*
X108945000Y-66223000D01*
X103425600Y-66223000D01*
X103425600Y-58659509D01*
X108945000Y-58659509D01*
X108945000Y-59600492D01*
X108965764Y-59811309D01*
X109047818Y-60081808D01*
X109181068Y-60331101D01*
X109360393Y-60549608D01*
X109578900Y-60728932D01*
X109828193Y-60862182D01*
X110098692Y-60944236D01*
X110380000Y-60971943D01*
X110661309Y-60944236D01*
X110931808Y-60862182D01*
X111181101Y-60728932D01*
X111399608Y-60549608D01*
X111578932Y-60331101D01*
X111650000Y-60198142D01*
X111721068Y-60331101D01*
X111900393Y-60549608D01*
X112118900Y-60728932D01*
X112368193Y-60862182D01*
X112638692Y-60944236D01*
X112920000Y-60971943D01*
X113201309Y-60944236D01*
X113471808Y-60862182D01*
X113721101Y-60728932D01*
X113939608Y-60549608D01*
X114118932Y-60331101D01*
X114190000Y-60198142D01*
X114261068Y-60331101D01*
X114440393Y-60549608D01*
X114658900Y-60728932D01*
X114908193Y-60862182D01*
X115178692Y-60944236D01*
X115460000Y-60971943D01*
X115741309Y-60944236D01*
X116011808Y-60862182D01*
X116261101Y-60728932D01*
X116479608Y-60549608D01*
X116658932Y-60331101D01*
X116730000Y-60198142D01*
X116801068Y-60331101D01*
X116980393Y-60549608D01*
X117198900Y-60728932D01*
X117448193Y-60862182D01*
X117718692Y-60944236D01*
X118000000Y-60971943D01*
X118281309Y-60944236D01*
X118551808Y-60862182D01*
X118801101Y-60728932D01*
X119019608Y-60549608D01*
X119198932Y-60331101D01*
X119332182Y-60081808D01*
X119414236Y-59811309D01*
X119435000Y-59600491D01*
X119435000Y-58659508D01*
X119414236Y-58448691D01*
X119332182Y-58178192D01*
X119198932Y-57928899D01*
X119019607Y-57710392D01*
X118801100Y-57531068D01*
X118551807Y-57397818D01*
X118281308Y-57315764D01*
X118000000Y-57288057D01*
X117718691Y-57315764D01*
X117448192Y-57397818D01*
X117198899Y-57531068D01*
X116980392Y-57710393D01*
X116801068Y-57928900D01*
X116730000Y-58061858D01*
X116658932Y-57928899D01*
X116479607Y-57710392D01*
X116261100Y-57531068D01*
X116011807Y-57397818D01*
X115741308Y-57315764D01*
X115460000Y-57288057D01*
X115178691Y-57315764D01*
X114908192Y-57397818D01*
X114658899Y-57531068D01*
X114440392Y-57710393D01*
X114261068Y-57928900D01*
X114190000Y-58061858D01*
X114118932Y-57928899D01*
X113939607Y-57710392D01*
X113721100Y-57531068D01*
X113471807Y-57397818D01*
X113201308Y-57315764D01*
X112920000Y-57288057D01*
X112638691Y-57315764D01*
X112368192Y-57397818D01*
X112118899Y-57531068D01*
X111900392Y-57710393D01*
X111721068Y-57928900D01*
X111650000Y-58061858D01*
X111578932Y-57928899D01*
X111399607Y-57710392D01*
X111181100Y-57531068D01*
X110931807Y-57397818D01*
X110661308Y-57315764D01*
X110380000Y-57288057D01*
X110098691Y-57315764D01*
X109828192Y-57397818D01*
X109578899Y-57531068D01*
X109360392Y-57710393D01*
X109181068Y-57928900D01*
X109047818Y-58178193D01*
X108965764Y-58448692D01*
X108945000Y-58659509D01*
X103425600Y-58659509D01*
X103425600Y-58295267D01*
X104764582Y-56956286D01*
X104858665Y-56975000D01*
X105141335Y-56975000D01*
X105418574Y-56919853D01*
X105679727Y-56811680D01*
X105914759Y-56654637D01*
X106114637Y-56454759D01*
X106271680Y-56219727D01*
X106379853Y-55958574D01*
X106435000Y-55681335D01*
X106435000Y-55398665D01*
X106379853Y-55121426D01*
X106271680Y-54860273D01*
X106114637Y-54625241D01*
X105914759Y-54425363D01*
X105682241Y-54270000D01*
X105914759Y-54114637D01*
X106114637Y-53914759D01*
X106271680Y-53679727D01*
X106379853Y-53418574D01*
X106435000Y-53141335D01*
X106435000Y-52858665D01*
X106416285Y-52764582D01*
X108500000Y-50680868D01*
X110583714Y-52764582D01*
X110565000Y-52858665D01*
X110565000Y-53141335D01*
X110620147Y-53418574D01*
X110728320Y-53679727D01*
X110885363Y-53914759D01*
X111085241Y-54114637D01*
X111320273Y-54271680D01*
X111581426Y-54379853D01*
X111858665Y-54435000D01*
X112141335Y-54435000D01*
X112418574Y-54379853D01*
X112679727Y-54271680D01*
X112914759Y-54114637D01*
X113114637Y-53914759D01*
X113270000Y-53682241D01*
X113425363Y-53914759D01*
X113625241Y-54114637D01*
X113860273Y-54271680D01*
X114121426Y-54379853D01*
X114398665Y-54435000D01*
X114681335Y-54435000D01*
X114958574Y-54379853D01*
X115219727Y-54271680D01*
X115454759Y-54114637D01*
X115654637Y-53914759D01*
X115811680Y-53679727D01*
X115919853Y-53418574D01*
X115975000Y-53141335D01*
X115975000Y-52858665D01*
X115919853Y-52581426D01*
X115811680Y-52320273D01*
X115654637Y-52085241D01*
X115454759Y-51885363D01*
X115219727Y-51728320D01*
X114958574Y-51620147D01*
X114681335Y-51565000D01*
X114398665Y-51565000D01*
X114121426Y-51620147D01*
X113860273Y-51728320D01*
X113625241Y-51885363D01*
X113425363Y-52085241D01*
X113270000Y-52317759D01*
X113114637Y-52085241D01*
X112914759Y-51885363D01*
X112679727Y-51728320D01*
X112418574Y-51620147D01*
X112141335Y-51565000D01*
X111858665Y-51565000D01*
X111764582Y-51583714D01*
X109318346Y-49137479D01*
X109292191Y-49105609D01*
X109165046Y-49001264D01*
X109134700Y-48985044D01*
X109134700Y-47745867D01*
X110194981Y-46685588D01*
X110248815Y-46751185D01*
X110345506Y-46830537D01*
X110455820Y-46889502D01*
X110575518Y-46925812D01*
X110700000Y-46938072D01*
X112300000Y-46938072D01*
X112424482Y-46925812D01*
X112544180Y-46889502D01*
X112654494Y-46830537D01*
X112751185Y-46751185D01*
X112830537Y-46654494D01*
X112889502Y-46544180D01*
X112905117Y-46492702D01*
X113186903Y-46492702D01*
X113258486Y-46736671D01*
X113513996Y-46857571D01*
X113788184Y-46926300D01*
X114070512Y-46940217D01*
X114350130Y-46898787D01*
X114616292Y-46803603D01*
X114741514Y-46736671D01*
X114813097Y-46492702D01*
X114000000Y-45679605D01*
X113186903Y-46492702D01*
X112905117Y-46492702D01*
X112925812Y-46424482D01*
X112938072Y-46300000D01*
X112938072Y-46292785D01*
X113007298Y-46313097D01*
X113820395Y-45500000D01*
X114179605Y-45500000D01*
X114992702Y-46313097D01*
X115236671Y-46241514D01*
X115357571Y-45986004D01*
X115426300Y-45711816D01*
X115440217Y-45429488D01*
X115398787Y-45149870D01*
X115303603Y-44883708D01*
X115236671Y-44758486D01*
X114992702Y-44686903D01*
X114179605Y-45500000D01*
X113820395Y-45500000D01*
X113007298Y-44686903D01*
X112938072Y-44707215D01*
X112938072Y-44700000D01*
X112925812Y-44575518D01*
X112905118Y-44507298D01*
X113186903Y-44507298D01*
X114000000Y-45320395D01*
X114813097Y-44507298D01*
X114741514Y-44263329D01*
X114486004Y-44142429D01*
X114211816Y-44073700D01*
X113929488Y-44059783D01*
X113649870Y-44101213D01*
X113383708Y-44196397D01*
X113258486Y-44263329D01*
X113186903Y-44507298D01*
X112905118Y-44507298D01*
X112889502Y-44455820D01*
X112830537Y-44345506D01*
X112751185Y-44248815D01*
X112654494Y-44169463D01*
X112544180Y-44110498D01*
X112424482Y-44074188D01*
X112300000Y-44061928D01*
X110700000Y-44061928D01*
X110575518Y-44074188D01*
X110455820Y-44110498D01*
X110345506Y-44169463D01*
X110248815Y-44248815D01*
X110169463Y-44345506D01*
X110110498Y-44455820D01*
X110074188Y-44575518D01*
X110064461Y-44674280D01*
X110036011Y-44677082D01*
X109878613Y-44724828D01*
X109733554Y-44802364D01*
X109606409Y-44906709D01*
X109580263Y-44938568D01*
X107953833Y-46565000D01*
X107291884Y-46565000D01*
X107313097Y-46492702D01*
X106500000Y-45679605D01*
X106485858Y-45693748D01*
X106306253Y-45514143D01*
X106320395Y-45500000D01*
X106679605Y-45500000D01*
X107492702Y-46313097D01*
X107736671Y-46241514D01*
X107857571Y-45986004D01*
X107926300Y-45711816D01*
X107940217Y-45429488D01*
X107898787Y-45149870D01*
X107803603Y-44883708D01*
X107736671Y-44758486D01*
X107492702Y-44686903D01*
X106679605Y-45500000D01*
X106320395Y-45500000D01*
X105507298Y-44686903D01*
X105438072Y-44707215D01*
X105438072Y-44700000D01*
X105425812Y-44575518D01*
X105405118Y-44507298D01*
X105686903Y-44507298D01*
X106500000Y-45320395D01*
X107313097Y-44507298D01*
X107241514Y-44263329D01*
X106986004Y-44142429D01*
X106711816Y-44073700D01*
X106429488Y-44059783D01*
X106149870Y-44101213D01*
X105883708Y-44196397D01*
X105758486Y-44263329D01*
X105686903Y-44507298D01*
X105405118Y-44507298D01*
X105389502Y-44455820D01*
X105330537Y-44345506D01*
X105251185Y-44248815D01*
X105154494Y-44169463D01*
X105044180Y-44110498D01*
X104924482Y-44074188D01*
X104800000Y-44061928D01*
X103200000Y-44061928D01*
X103075518Y-44074188D01*
X102955820Y-44110498D01*
X102845506Y-44169463D01*
X102748815Y-44248815D01*
X102669463Y-44345506D01*
X102610498Y-44455820D01*
X102574188Y-44575518D01*
X102561928Y-44700000D01*
X102561928Y-46300000D01*
X102574188Y-46424482D01*
X102610498Y-46544180D01*
X102669463Y-46654494D01*
X102748815Y-46751185D01*
X102845506Y-46830537D01*
X102955820Y-46889502D01*
X103075518Y-46925812D01*
X103200000Y-46938072D01*
X104257204Y-46938072D01*
X105280563Y-47961432D01*
X105306709Y-47993291D01*
X105433854Y-48097636D01*
X105578913Y-48175172D01*
X105736311Y-48222918D01*
X105858981Y-48235000D01*
X105858982Y-48235000D01*
X105900000Y-48239040D01*
X105941018Y-48235000D01*
X107464700Y-48235000D01*
X107464701Y-49354431D01*
X105235418Y-51583715D01*
X105141335Y-51565000D01*
X104858665Y-51565000D01*
X104581426Y-51620147D01*
X104320273Y-51728320D01*
X104085241Y-51885363D01*
X103885363Y-52085241D01*
X103728320Y-52320273D01*
X103620147Y-52581426D01*
X103565000Y-52858665D01*
X103565000Y-53141335D01*
X103583714Y-53235417D01*
X101660000Y-55159133D01*
X101660000Y-42779872D01*
X125765000Y-42779872D01*
X125765000Y-43220128D01*
X125850890Y-43651925D01*
X126019369Y-44058669D01*
X126263962Y-44424729D01*
X126575271Y-44736038D01*
X126941331Y-44980631D01*
X127348075Y-45149110D01*
X127779872Y-45235000D01*
X128220128Y-45235000D01*
X128651925Y-45149110D01*
X129058669Y-44980631D01*
X129424729Y-44736038D01*
X129736038Y-44424729D01*
X129980631Y-44058669D01*
X130149110Y-43651925D01*
X130235000Y-43220128D01*
X130235000Y-42779872D01*
X130149110Y-42348075D01*
X129980631Y-41941331D01*
X129736038Y-41575271D01*
X129424729Y-41263962D01*
X129058669Y-41019369D01*
X128651925Y-40850890D01*
X128220128Y-40765000D01*
X127779872Y-40765000D01*
X127348075Y-40850890D01*
X126941331Y-41019369D01*
X126575271Y-41263962D01*
X126263962Y-41575271D01*
X126019369Y-41941331D01*
X125850890Y-42348075D01*
X125765000Y-42779872D01*
X101660000Y-42779872D01*
X101660000Y-40660000D01*
X130340001Y-40660000D01*
X130340001Y-73409133D01*
G37*
X130340001Y-73409133D02*
X127860744Y-70929877D01*
X128070512Y-70940217D01*
X128350130Y-70898787D01*
X128616292Y-70803603D01*
X128741514Y-70736671D01*
X128813097Y-70492702D01*
X128000000Y-69679605D01*
X127985858Y-69693748D01*
X127806253Y-69514143D01*
X127820395Y-69500000D01*
X128179605Y-69500000D01*
X128992702Y-70313097D01*
X129236671Y-70241514D01*
X129357571Y-69986004D01*
X129426300Y-69711816D01*
X129440217Y-69429488D01*
X129398787Y-69149870D01*
X129303603Y-68883708D01*
X129236671Y-68758486D01*
X128992702Y-68686903D01*
X128179605Y-69500000D01*
X127820395Y-69500000D01*
X127007298Y-68686903D01*
X126763329Y-68758486D01*
X126642429Y-69013996D01*
X126573700Y-69288184D01*
X126559783Y-69570512D01*
X126569942Y-69639074D01*
X126166285Y-69235418D01*
X126185000Y-69141335D01*
X126185000Y-68858665D01*
X126129853Y-68581426D01*
X126021680Y-68320273D01*
X125864637Y-68085241D01*
X125664759Y-67885363D01*
X125462173Y-67750000D01*
X125664759Y-67614637D01*
X125864637Y-67414759D01*
X126021680Y-67179727D01*
X126129853Y-66918574D01*
X126141769Y-66858665D01*
X126565000Y-66858665D01*
X126565000Y-67141335D01*
X126620147Y-67418574D01*
X126728320Y-67679727D01*
X126885363Y-67914759D01*
X127085241Y-68114637D01*
X127285869Y-68248692D01*
X127258486Y-68263329D01*
X127186903Y-68507298D01*
X128000000Y-69320395D01*
X128813097Y-68507298D01*
X128741514Y-68263329D01*
X128712659Y-68249676D01*
X128914759Y-68114637D01*
X129114637Y-67914759D01*
X129271680Y-67679727D01*
X129379853Y-67418574D01*
X129435000Y-67141335D01*
X129435000Y-66858665D01*
X129379853Y-66581426D01*
X129271680Y-66320273D01*
X129114637Y-66085241D01*
X128914759Y-65885363D01*
X128679727Y-65728320D01*
X128418574Y-65620147D01*
X128141335Y-65565000D01*
X127858665Y-65565000D01*
X127581426Y-65620147D01*
X127320273Y-65728320D01*
X127085241Y-65885363D01*
X126885363Y-66085241D01*
X126728320Y-66320273D01*
X126620147Y-66581426D01*
X126565000Y-66858665D01*
X126141769Y-66858665D01*
X126185000Y-66641335D01*
X126185000Y-66358665D01*
X126129853Y-66081426D01*
X126021680Y-65820273D01*
X125864637Y-65585241D01*
X125664759Y-65385363D01*
X125585000Y-65332070D01*
X125585000Y-63969040D01*
X126608091Y-63969040D01*
X126702930Y-64233881D01*
X126847615Y-64475131D01*
X127036586Y-64683519D01*
X127262580Y-64851037D01*
X127516913Y-64971246D01*
X127650961Y-65011904D01*
X127873000Y-64889915D01*
X127873000Y-63747000D01*
X128127000Y-63747000D01*
X128127000Y-64889915D01*
X128349039Y-65011904D01*
X128483087Y-64971246D01*
X128737420Y-64851037D01*
X128963414Y-64683519D01*
X129152385Y-64475131D01*
X129297070Y-64233881D01*
X129391909Y-63969040D01*
X129270624Y-63747000D01*
X128127000Y-63747000D01*
X127873000Y-63747000D01*
X126729376Y-63747000D01*
X126608091Y-63969040D01*
X125585000Y-63969040D01*
X125585000Y-63270960D01*
X126608091Y-63270960D01*
X126729376Y-63493000D01*
X127873000Y-63493000D01*
X127873000Y-62350085D01*
X128127000Y-62350085D01*
X128127000Y-63493000D01*
X129270624Y-63493000D01*
X129391909Y-63270960D01*
X129297070Y-63006119D01*
X129152385Y-62764869D01*
X128963414Y-62556481D01*
X128737420Y-62388963D01*
X128483087Y-62268754D01*
X128349039Y-62228096D01*
X128127000Y-62350085D01*
X127873000Y-62350085D01*
X127650961Y-62228096D01*
X127516913Y-62268754D01*
X127262580Y-62388963D01*
X127036586Y-62556481D01*
X126847615Y-62764869D01*
X126702930Y-63006119D01*
X126608091Y-63270960D01*
X125585000Y-63270960D01*
X125585000Y-56436167D01*
X126561928Y-55459240D01*
X126561928Y-56800000D01*
X126574188Y-56924482D01*
X126610498Y-57044180D01*
X126669463Y-57154494D01*
X126748815Y-57251185D01*
X126845506Y-57330537D01*
X126955820Y-57389502D01*
X127075518Y-57425812D01*
X127200000Y-57438072D01*
X128800000Y-57438072D01*
X128924482Y-57425812D01*
X129044180Y-57389502D01*
X129154494Y-57330537D01*
X129251185Y-57251185D01*
X129330537Y-57154494D01*
X129389502Y-57044180D01*
X129425812Y-56924482D01*
X129438072Y-56800000D01*
X129438072Y-55200000D01*
X129425812Y-55075518D01*
X129389502Y-54955820D01*
X129330537Y-54845506D01*
X129251185Y-54748815D01*
X129154494Y-54669463D01*
X129044180Y-54610498D01*
X128924482Y-54574188D01*
X128800000Y-54561928D01*
X127459241Y-54561928D01*
X127561432Y-54459737D01*
X127593291Y-54433591D01*
X127697636Y-54306446D01*
X127775172Y-54161387D01*
X127822918Y-54003989D01*
X127835000Y-53881319D01*
X127835000Y-53881318D01*
X127839040Y-53840300D01*
X127835000Y-53799282D01*
X127835000Y-53707930D01*
X127914759Y-53654637D01*
X128114637Y-53454759D01*
X128271680Y-53219727D01*
X128379853Y-52958574D01*
X128435000Y-52681335D01*
X128435000Y-52398665D01*
X128379853Y-52121426D01*
X128271680Y-51860273D01*
X128114637Y-51625241D01*
X127914759Y-51425363D01*
X127682241Y-51270000D01*
X127914759Y-51114637D01*
X128114637Y-50914759D01*
X128271680Y-50679727D01*
X128379853Y-50418574D01*
X128435000Y-50141335D01*
X128435000Y-49858665D01*
X128379853Y-49581426D01*
X128271680Y-49320273D01*
X128114637Y-49085241D01*
X127914759Y-48885363D01*
X127679727Y-48728320D01*
X127418574Y-48620147D01*
X127141335Y-48565000D01*
X126858665Y-48565000D01*
X126581426Y-48620147D01*
X126320273Y-48728320D01*
X126085241Y-48885363D01*
X125885363Y-49085241D01*
X125728320Y-49320273D01*
X125620147Y-49581426D01*
X125565000Y-49858665D01*
X125565000Y-50141335D01*
X125620147Y-50418574D01*
X125728320Y-50679727D01*
X125885363Y-50914759D01*
X126085241Y-51114637D01*
X126317759Y-51270000D01*
X126085241Y-51425363D01*
X125885363Y-51625241D01*
X125728320Y-51860273D01*
X125620147Y-52121426D01*
X125565000Y-52398665D01*
X125565000Y-52681335D01*
X125620147Y-52958574D01*
X125728320Y-53219727D01*
X125885363Y-53454759D01*
X126045018Y-53614414D01*
X124188579Y-55470854D01*
X124156709Y-55497009D01*
X124052365Y-55624154D01*
X124052364Y-55624155D01*
X123974828Y-55769214D01*
X123927082Y-55926612D01*
X123910960Y-56090300D01*
X123915000Y-56131319D01*
X123915001Y-65332069D01*
X123835241Y-65385363D01*
X123635363Y-65585241D01*
X123478320Y-65820273D01*
X123370147Y-66081426D01*
X123315000Y-66358665D01*
X123315000Y-66641335D01*
X123370147Y-66918574D01*
X123478320Y-67179727D01*
X123635363Y-67414759D01*
X123835241Y-67614637D01*
X124037827Y-67750000D01*
X123835241Y-67885363D01*
X123635363Y-68085241D01*
X123478320Y-68320273D01*
X123370147Y-68581426D01*
X123315000Y-68858665D01*
X123315000Y-69141335D01*
X123370147Y-69418574D01*
X123478320Y-69679727D01*
X123635363Y-69914759D01*
X123835241Y-70114637D01*
X124070273Y-70271680D01*
X124331426Y-70379853D01*
X124608665Y-70435000D01*
X124891335Y-70435000D01*
X124985418Y-70416285D01*
X127171385Y-72602253D01*
X127081426Y-72620147D01*
X126820273Y-72728320D01*
X126585241Y-72885363D01*
X126385363Y-73085241D01*
X126228320Y-73320273D01*
X126120147Y-73581426D01*
X126065000Y-73858665D01*
X126065000Y-74141335D01*
X126120147Y-74418574D01*
X126228320Y-74679727D01*
X126385363Y-74914759D01*
X126585241Y-75114637D01*
X126817759Y-75270000D01*
X126585241Y-75425363D01*
X126385363Y-75625241D01*
X126228320Y-75860273D01*
X126120147Y-76121426D01*
X126065000Y-76398665D01*
X126065000Y-76681335D01*
X126120147Y-76958574D01*
X126228320Y-77219727D01*
X126385363Y-77454759D01*
X126585241Y-77654637D01*
X126820273Y-77811680D01*
X127081426Y-77919853D01*
X127358665Y-77975000D01*
X127641335Y-77975000D01*
X127918574Y-77919853D01*
X128179727Y-77811680D01*
X128414759Y-77654637D01*
X128614637Y-77454759D01*
X128771680Y-77219727D01*
X128879853Y-76958574D01*
X128935000Y-76681335D01*
X128935000Y-76398665D01*
X128879853Y-76121426D01*
X128771680Y-75860273D01*
X128614637Y-75625241D01*
X128414759Y-75425363D01*
X128182241Y-75270000D01*
X128414759Y-75114637D01*
X128614637Y-74914759D01*
X128771680Y-74679727D01*
X128879853Y-74418574D01*
X128897747Y-74328615D01*
X129523400Y-74954268D01*
X129523400Y-79511928D01*
X128150000Y-79511928D01*
X128025518Y-79524188D01*
X127905820Y-79560498D01*
X127795506Y-79619463D01*
X127698815Y-79698815D01*
X127664904Y-79740136D01*
X124252893Y-76328125D01*
X124224026Y-76183002D01*
X124146005Y-75994644D01*
X124032737Y-75825126D01*
X123888574Y-75680963D01*
X123719056Y-75567695D01*
X123530698Y-75489674D01*
X123330739Y-75449900D01*
X123145600Y-75449900D01*
X123145600Y-47878592D01*
X123237636Y-47766446D01*
X123315172Y-47621387D01*
X123362918Y-47463989D01*
X123375000Y-47341319D01*
X123375000Y-47341318D01*
X123379040Y-47300300D01*
X123375000Y-47259282D01*
X123375000Y-47167930D01*
X123454759Y-47114637D01*
X123654637Y-46914759D01*
X123811680Y-46679727D01*
X123919853Y-46418574D01*
X123975000Y-46141335D01*
X123975000Y-45858665D01*
X123919853Y-45581426D01*
X123811680Y-45320273D01*
X123654637Y-45085241D01*
X123454759Y-44885363D01*
X123219727Y-44728320D01*
X122958574Y-44620147D01*
X122681335Y-44565000D01*
X122398665Y-44565000D01*
X122121426Y-44620147D01*
X121860273Y-44728320D01*
X121625241Y-44885363D01*
X121425363Y-45085241D01*
X121270000Y-45317759D01*
X121114637Y-45085241D01*
X120914759Y-44885363D01*
X120679727Y-44728320D01*
X120418574Y-44620147D01*
X120141335Y-44565000D01*
X119858665Y-44565000D01*
X119581426Y-44620147D01*
X119320273Y-44728320D01*
X119085241Y-44885363D01*
X118885363Y-45085241D01*
X118728320Y-45320273D01*
X118620147Y-45581426D01*
X118565000Y-45858665D01*
X118565000Y-46141335D01*
X118620147Y-46418574D01*
X118728320Y-46679727D01*
X118885363Y-46914759D01*
X119085241Y-47114637D01*
X119320273Y-47271680D01*
X119581426Y-47379853D01*
X119858665Y-47435000D01*
X120141335Y-47435000D01*
X120168501Y-47429596D01*
X120168500Y-72707101D01*
X119958574Y-72620147D01*
X119681335Y-72565000D01*
X119398665Y-72565000D01*
X119121426Y-72620147D01*
X118860273Y-72728320D01*
X118625241Y-72885363D01*
X118425363Y-73085241D01*
X118270000Y-73317759D01*
X118114637Y-73085241D01*
X117914759Y-72885363D01*
X117679727Y-72728320D01*
X117418574Y-72620147D01*
X117141335Y-72565000D01*
X116858665Y-72565000D01*
X116581426Y-72620147D01*
X116354861Y-72713993D01*
X116295000Y-72654132D01*
X116295000Y-68321112D01*
X116479608Y-68169608D01*
X116572419Y-68056518D01*
X116574188Y-68074482D01*
X116610498Y-68194180D01*
X116669463Y-68304494D01*
X116748815Y-68401185D01*
X116845506Y-68480537D01*
X116955820Y-68539502D01*
X117075518Y-68575812D01*
X117200000Y-68588072D01*
X118800000Y-68588072D01*
X118924482Y-68575812D01*
X119044180Y-68539502D01*
X119154494Y-68480537D01*
X119251185Y-68401185D01*
X119330537Y-68304494D01*
X119389502Y-68194180D01*
X119425812Y-68074482D01*
X119438072Y-67950000D01*
X119438072Y-65550000D01*
X119425812Y-65425518D01*
X119389502Y-65305820D01*
X119330537Y-65195506D01*
X119251185Y-65098815D01*
X119154494Y-65019463D01*
X119044180Y-64960498D01*
X118924482Y-64924188D01*
X118800000Y-64911928D01*
X117200000Y-64911928D01*
X117075518Y-64924188D01*
X116955820Y-64960498D01*
X116845506Y-65019463D01*
X116748815Y-65098815D01*
X116669463Y-65195506D01*
X116610498Y-65305820D01*
X116574188Y-65425518D01*
X116572419Y-65443483D01*
X116479607Y-65330392D01*
X116261100Y-65151068D01*
X116011807Y-65017818D01*
X115741308Y-64935764D01*
X115460000Y-64908057D01*
X115178691Y-64935764D01*
X114908192Y-65017818D01*
X114658899Y-65151068D01*
X114440392Y-65330393D01*
X114261068Y-65548900D01*
X114190000Y-65681858D01*
X114118932Y-65548899D01*
X113939607Y-65330392D01*
X113721100Y-65151068D01*
X113471807Y-65017818D01*
X113201308Y-64935764D01*
X112920000Y-64908057D01*
X112638691Y-64935764D01*
X112368192Y-65017818D01*
X112118899Y-65151068D01*
X111900392Y-65330393D01*
X111721068Y-65548900D01*
X111652735Y-65676742D01*
X111502601Y-65447161D01*
X111304895Y-65245500D01*
X111071646Y-65086285D01*
X110811818Y-64975633D01*
X110729039Y-64958096D01*
X110507000Y-65080085D01*
X110507000Y-66623000D01*
X110527000Y-66623000D01*
X110527000Y-66877000D01*
X110507000Y-66877000D01*
X110507000Y-68419915D01*
X110729039Y-68541904D01*
X110811818Y-68524367D01*
X111071646Y-68413715D01*
X111304895Y-68254500D01*
X111502601Y-68052839D01*
X111652735Y-67823259D01*
X111721068Y-67951101D01*
X111900393Y-68169608D01*
X112118900Y-68348932D01*
X112368193Y-68482182D01*
X112638692Y-68564236D01*
X112920000Y-68591943D01*
X113201309Y-68564236D01*
X113471808Y-68482182D01*
X113721101Y-68348932D01*
X113939608Y-68169608D01*
X114118932Y-67951101D01*
X114190000Y-67818142D01*
X114261068Y-67951101D01*
X114440393Y-68169608D01*
X114625001Y-68321112D01*
X114625000Y-72165000D01*
X111707930Y-72165000D01*
X111654637Y-72085241D01*
X111454759Y-71885363D01*
X111219727Y-71728320D01*
X110958574Y-71620147D01*
X110681335Y-71565000D01*
X110398665Y-71565000D01*
X110121426Y-71620147D01*
X109860273Y-71728320D01*
X109625241Y-71885363D01*
X109425363Y-72085241D01*
X109269085Y-72319128D01*
X109236671Y-72258486D01*
X108992702Y-72186903D01*
X108179605Y-73000000D01*
X108992702Y-73813097D01*
X109236671Y-73741514D01*
X109267194Y-73677008D01*
X109268320Y-73679727D01*
X109425363Y-73914759D01*
X109625241Y-74114637D01*
X109860273Y-74271680D01*
X110121426Y-74379853D01*
X110398665Y-74435000D01*
X110681335Y-74435000D01*
X110958574Y-74379853D01*
X111219727Y-74271680D01*
X111454759Y-74114637D01*
X111654637Y-73914759D01*
X111707930Y-73835000D01*
X115114132Y-73835000D01*
X115600889Y-74321757D01*
X115620147Y-74418574D01*
X115728320Y-74679727D01*
X115885363Y-74914759D01*
X116085241Y-75114637D01*
X116320273Y-75271680D01*
X116581426Y-75379853D01*
X116858665Y-75435000D01*
X117141335Y-75435000D01*
X117418574Y-75379853D01*
X117679727Y-75271680D01*
X117914759Y-75114637D01*
X118114637Y-74914759D01*
X118270000Y-74682241D01*
X118425363Y-74914759D01*
X118625241Y-75114637D01*
X118860273Y-75271680D01*
X119121426Y-75379853D01*
X119398665Y-75435000D01*
X119681335Y-75435000D01*
X119958574Y-75379853D01*
X120168500Y-75292899D01*
X120168500Y-87559737D01*
X120153595Y-87582044D01*
X120075574Y-87770402D01*
X120035800Y-87970361D01*
X120035800Y-88174239D01*
X120075574Y-88374198D01*
X120153595Y-88562556D01*
X120266863Y-88732074D01*
X120411026Y-88876237D01*
X120580544Y-88989505D01*
X120768902Y-89067526D01*
X120968861Y-89107300D01*
X121172739Y-89107300D01*
X121372698Y-89067526D01*
X121561056Y-88989505D01*
X121730574Y-88876237D01*
X121731601Y-88875210D01*
X121731600Y-103225281D01*
X121727560Y-103266300D01*
X121731600Y-103307318D01*
X121743682Y-103429988D01*
X121791428Y-103587386D01*
X121838411Y-103675285D01*
X121748815Y-103748815D01*
X121669463Y-103845506D01*
X121610498Y-103955820D01*
X121574188Y-104075518D01*
X121561928Y-104200000D01*
X121561928Y-105800000D01*
X121574188Y-105924482D01*
X121610498Y-106044180D01*
X121669463Y-106154494D01*
X121748815Y-106251185D01*
X121845506Y-106330537D01*
X121955820Y-106389502D01*
X122075518Y-106425812D01*
X122200000Y-106438072D01*
X123465401Y-106438072D01*
X123465400Y-111263389D01*
X123349039Y-111228096D01*
X123127000Y-111350085D01*
X123127000Y-112493000D01*
X123147000Y-112493000D01*
X123147000Y-112747000D01*
X123127000Y-112747000D01*
X123127000Y-113889915D01*
X123349039Y-114011904D01*
X123465400Y-113976611D01*
X123465400Y-118019543D01*
X123418574Y-118000147D01*
X123141335Y-117945000D01*
X122858665Y-117945000D01*
X122581426Y-118000147D01*
X122320273Y-118108320D01*
X122085241Y-118265363D01*
X121885363Y-118465241D01*
X121728320Y-118700273D01*
X121620147Y-118961426D01*
X121565000Y-119238665D01*
X121565000Y-119521335D01*
X121620147Y-119798574D01*
X121728320Y-120059727D01*
X121885363Y-120294759D01*
X122085241Y-120494637D01*
X122320273Y-120651680D01*
X122402141Y-120685591D01*
X118223033Y-124864700D01*
X118041019Y-124864700D01*
X118000000Y-124860660D01*
X117958982Y-124864700D01*
X117958981Y-124864700D01*
X117836311Y-124876782D01*
X117678913Y-124924528D01*
X117533854Y-125002064D01*
X117406709Y-125106409D01*
X117302364Y-125233554D01*
X117224828Y-125378613D01*
X117177082Y-125536011D01*
X117174280Y-125564461D01*
X117075518Y-125574188D01*
X116955820Y-125610498D01*
X116845506Y-125669463D01*
X116748815Y-125748815D01*
X116670400Y-125844364D01*
X116670400Y-119903040D01*
X116702930Y-119993881D01*
X116847615Y-120235131D01*
X117036586Y-120443519D01*
X117262580Y-120611037D01*
X117516913Y-120731246D01*
X117650961Y-120771904D01*
X117873000Y-120649915D01*
X117873000Y-119507000D01*
X118127000Y-119507000D01*
X118127000Y-120649915D01*
X118349039Y-120771904D01*
X118483087Y-120731246D01*
X118737420Y-120611037D01*
X118963414Y-120443519D01*
X119152385Y-120235131D01*
X119297070Y-119993881D01*
X119391909Y-119729040D01*
X119270624Y-119507000D01*
X118127000Y-119507000D01*
X117873000Y-119507000D01*
X117853000Y-119507000D01*
X117853000Y-119253000D01*
X117873000Y-119253000D01*
X117873000Y-118110085D01*
X118127000Y-118110085D01*
X118127000Y-119253000D01*
X119270624Y-119253000D01*
X119391909Y-119030960D01*
X119297070Y-118766119D01*
X119152385Y-118524869D01*
X118963414Y-118316481D01*
X118737420Y-118148963D01*
X118483087Y-118028754D01*
X118349039Y-117988096D01*
X118127000Y-118110085D01*
X117873000Y-118110085D01*
X117650961Y-117988096D01*
X117516913Y-118028754D01*
X117262580Y-118148963D01*
X117036586Y-118316481D01*
X116847615Y-118524869D01*
X116702930Y-118766119D01*
X116670400Y-118856960D01*
X116670400Y-114200000D01*
X117561928Y-114200000D01*
X117561928Y-115800000D01*
X117574188Y-115924482D01*
X117610498Y-116044180D01*
X117669463Y-116154494D01*
X117748815Y-116251185D01*
X117845506Y-116330537D01*
X117955820Y-116389502D01*
X118075518Y-116425812D01*
X118200000Y-116438072D01*
X119800000Y-116438072D01*
X119924482Y-116425812D01*
X120044180Y-116389502D01*
X120154494Y-116330537D01*
X120251185Y-116251185D01*
X120330537Y-116154494D01*
X120389502Y-116044180D01*
X120425812Y-115924482D01*
X120438072Y-115800000D01*
X120438072Y-114200000D01*
X120425812Y-114075518D01*
X120389502Y-113955820D01*
X120330537Y-113845506D01*
X120251185Y-113748815D01*
X120154494Y-113669463D01*
X120044180Y-113610498D01*
X119924482Y-113574188D01*
X119800000Y-113561928D01*
X118200000Y-113561928D01*
X118075518Y-113574188D01*
X117955820Y-113610498D01*
X117845506Y-113669463D01*
X117748815Y-113748815D01*
X117669463Y-113845506D01*
X117610498Y-113955820D01*
X117574188Y-114075518D01*
X117561928Y-114200000D01*
X116670400Y-114200000D01*
X116670400Y-112969040D01*
X121608091Y-112969040D01*
X121702930Y-113233881D01*
X121847615Y-113475131D01*
X122036586Y-113683519D01*
X122262580Y-113851037D01*
X122516913Y-113971246D01*
X122650961Y-114011904D01*
X122873000Y-113889915D01*
X122873000Y-112747000D01*
X121729376Y-112747000D01*
X121608091Y-112969040D01*
X116670400Y-112969040D01*
X116670400Y-112270960D01*
X121608091Y-112270960D01*
X121729376Y-112493000D01*
X122873000Y-112493000D01*
X122873000Y-111350085D01*
X122650961Y-111228096D01*
X122516913Y-111268754D01*
X122262580Y-111388963D01*
X122036586Y-111556481D01*
X121847615Y-111764869D01*
X121702930Y-112006119D01*
X121608091Y-112270960D01*
X116670400Y-112270960D01*
X116670400Y-107238665D01*
X117565000Y-107238665D01*
X117565000Y-107521335D01*
X117620147Y-107798574D01*
X117728320Y-108059727D01*
X117885363Y-108294759D01*
X118085241Y-108494637D01*
X118320273Y-108651680D01*
X118581426Y-108759853D01*
X118858665Y-108815000D01*
X119141335Y-108815000D01*
X119418574Y-108759853D01*
X119679727Y-108651680D01*
X119914759Y-108494637D01*
X120114637Y-108294759D01*
X120271680Y-108059727D01*
X120379853Y-107798574D01*
X120435000Y-107521335D01*
X120435000Y-107238665D01*
X120379853Y-106961426D01*
X120271680Y-106700273D01*
X120114637Y-106465241D01*
X119914759Y-106265363D01*
X119679727Y-106108320D01*
X119418574Y-106000147D01*
X119141335Y-105945000D01*
X118858665Y-105945000D01*
X118581426Y-106000147D01*
X118320273Y-106108320D01*
X118085241Y-106265363D01*
X117885363Y-106465241D01*
X117728320Y-106700273D01*
X117620147Y-106961426D01*
X117565000Y-107238665D01*
X116670400Y-107238665D01*
X116670400Y-105310767D01*
X117586426Y-104394742D01*
X117618291Y-104368591D01*
X117722636Y-104241446D01*
X117800172Y-104096387D01*
X117847918Y-103938989D01*
X117850471Y-103913072D01*
X117875000Y-103913072D01*
X117999482Y-103900812D01*
X118119180Y-103864502D01*
X118229494Y-103805537D01*
X118326185Y-103726185D01*
X118405537Y-103629494D01*
X118464502Y-103519180D01*
X118500812Y-103399482D01*
X118513072Y-103275000D01*
X118513072Y-101575000D01*
X118500812Y-101450518D01*
X118464502Y-101330820D01*
X118405537Y-101220506D01*
X118326185Y-101123815D01*
X118229494Y-101044463D01*
X118119180Y-100985498D01*
X117999482Y-100949188D01*
X117875000Y-100936928D01*
X116175000Y-100936928D01*
X116050518Y-100949188D01*
X115930820Y-100985498D01*
X115820506Y-101044463D01*
X115723815Y-101123815D01*
X115644463Y-101220506D01*
X115585498Y-101330820D01*
X115561034Y-101411466D01*
X115485269Y-101327412D01*
X115251920Y-101153359D01*
X114989099Y-101028175D01*
X114841890Y-100983524D01*
X114612000Y-101104845D01*
X114612000Y-102298000D01*
X114632000Y-102298000D01*
X114632000Y-102552000D01*
X114612000Y-102552000D01*
X114612000Y-103745155D01*
X114841890Y-103866476D01*
X114989099Y-103821825D01*
X115251920Y-103696641D01*
X115485269Y-103522588D01*
X115561034Y-103438534D01*
X115585498Y-103519180D01*
X115644463Y-103629494D01*
X115723815Y-103726185D01*
X115816875Y-103802557D01*
X115273974Y-104345459D01*
X115242110Y-104371609D01*
X115215962Y-104403471D01*
X115137764Y-104498755D01*
X115060228Y-104643814D01*
X115012482Y-104801212D01*
X114996360Y-104964900D01*
X115000401Y-105005929D01*
X115000400Y-129578731D01*
X112577940Y-132001193D01*
X112446260Y-131975000D01*
X112153740Y-131975000D01*
X111866842Y-132032068D01*
X111596589Y-132144010D01*
X111353368Y-132306525D01*
X111146525Y-132513368D01*
X111030000Y-132687760D01*
X110913475Y-132513368D01*
X110706632Y-132306525D01*
X110463411Y-132144010D01*
X110193158Y-132032068D01*
X109906260Y-131975000D01*
X109613740Y-131975000D01*
X109326842Y-132032068D01*
X109056589Y-132144010D01*
X108813368Y-132306525D01*
X108606525Y-132513368D01*
X108490000Y-132687760D01*
X108373475Y-132513368D01*
X108166632Y-132306525D01*
X107923411Y-132144010D01*
X107653158Y-132032068D01*
X107366260Y-131975000D01*
X107073740Y-131975000D01*
X106786842Y-132032068D01*
X106516589Y-132144010D01*
X106273368Y-132306525D01*
X106066525Y-132513368D01*
X105904010Y-132756589D01*
X105792068Y-133026842D01*
X105735000Y-133313740D01*
X105735000Y-133606260D01*
X105792068Y-133893158D01*
X105904010Y-134163411D01*
X106066525Y-134406632D01*
X106273368Y-134613475D01*
X106447760Y-134730000D01*
X106273368Y-134846525D01*
X106066525Y-135053368D01*
X105904010Y-135296589D01*
X105792068Y-135566842D01*
X105735000Y-135853740D01*
X105735000Y-136146260D01*
X105792068Y-136433158D01*
X105904010Y-136703411D01*
X106066525Y-136946632D01*
X106273368Y-137153475D01*
X106516589Y-137315990D01*
X106786842Y-137427932D01*
X107073740Y-137485000D01*
X107366260Y-137485000D01*
X107653158Y-137427932D01*
X107923411Y-137315990D01*
X108166632Y-137153475D01*
X108373475Y-136946632D01*
X108490000Y-136772240D01*
X108606525Y-136946632D01*
X108813368Y-137153475D01*
X109056589Y-137315990D01*
X109326842Y-137427932D01*
X109613740Y-137485000D01*
X109906260Y-137485000D01*
X110193158Y-137427932D01*
X110463411Y-137315990D01*
X110706632Y-137153475D01*
X110913475Y-136946632D01*
X111030000Y-136772240D01*
X111146525Y-136946632D01*
X111353368Y-137153475D01*
X111596589Y-137315990D01*
X111866842Y-137427932D01*
X112153740Y-137485000D01*
X112446260Y-137485000D01*
X112733158Y-137427932D01*
X113003411Y-137315990D01*
X113246632Y-137153475D01*
X113453475Y-136946632D01*
X113570000Y-136772240D01*
X113686525Y-136946632D01*
X113893368Y-137153475D01*
X114136589Y-137315990D01*
X114406842Y-137427932D01*
X114693740Y-137485000D01*
X114986260Y-137485000D01*
X115273158Y-137427932D01*
X115543411Y-137315990D01*
X115786632Y-137153475D01*
X115911710Y-137028397D01*
X116531208Y-137028397D01*
X116608843Y-137277472D01*
X116872883Y-137403371D01*
X117156411Y-137475339D01*
X117448531Y-137490611D01*
X117738019Y-137448599D01*
X118013747Y-137350919D01*
X118151157Y-137277472D01*
X118228792Y-137028397D01*
X119071208Y-137028397D01*
X119148843Y-137277472D01*
X119412883Y-137403371D01*
X119696411Y-137475339D01*
X119988531Y-137490611D01*
X120278019Y-137448599D01*
X120553747Y-137350919D01*
X120691157Y-137277472D01*
X120768792Y-137028397D01*
X121611208Y-137028397D01*
X121688843Y-137277472D01*
X121952883Y-137403371D01*
X122236411Y-137475339D01*
X122528531Y-137490611D01*
X122818019Y-137448599D01*
X123093747Y-137350919D01*
X123231157Y-137277472D01*
X123308792Y-137028397D01*
X122460000Y-136179605D01*
X121611208Y-137028397D01*
X120768792Y-137028397D01*
X119920000Y-136179605D01*
X119071208Y-137028397D01*
X118228792Y-137028397D01*
X117380000Y-136179605D01*
X116531208Y-137028397D01*
X115911710Y-137028397D01*
X115993475Y-136946632D01*
X116109311Y-136773271D01*
X116351603Y-136848792D01*
X117200395Y-136000000D01*
X117559605Y-136000000D01*
X118408397Y-136848792D01*
X118650000Y-136773486D01*
X118891603Y-136848792D01*
X119740395Y-136000000D01*
X120099605Y-136000000D01*
X120948397Y-136848792D01*
X121190000Y-136773486D01*
X121431603Y-136848792D01*
X122280395Y-136000000D01*
X121431603Y-135151208D01*
X121190000Y-135226514D01*
X120948397Y-135151208D01*
X120099605Y-136000000D01*
X119740395Y-136000000D01*
X118891603Y-135151208D01*
X118650000Y-135226514D01*
X118408397Y-135151208D01*
X117559605Y-136000000D01*
X117200395Y-136000000D01*
X116351603Y-135151208D01*
X116109311Y-135226729D01*
X115993475Y-135053368D01*
X115786632Y-134846525D01*
X115612240Y-134730000D01*
X115786632Y-134613475D01*
X115911710Y-134488397D01*
X116531208Y-134488397D01*
X116606514Y-134730000D01*
X116531208Y-134971603D01*
X117380000Y-135820395D01*
X118228792Y-134971603D01*
X118153486Y-134730000D01*
X118228792Y-134488397D01*
X119071208Y-134488397D01*
X119146514Y-134730000D01*
X119071208Y-134971603D01*
X119920000Y-135820395D01*
X120768792Y-134971603D01*
X120693486Y-134730000D01*
X120768792Y-134488397D01*
X121611208Y-134488397D01*
X121686514Y-134730000D01*
X121611208Y-134971603D01*
X122460000Y-135820395D01*
X123308792Y-134971603D01*
X123233486Y-134730000D01*
X123308792Y-134488397D01*
X122460000Y-133639605D01*
X121611208Y-134488397D01*
X120768792Y-134488397D01*
X119920000Y-133639605D01*
X119071208Y-134488397D01*
X118228792Y-134488397D01*
X117380000Y-133639605D01*
X116531208Y-134488397D01*
X115911710Y-134488397D01*
X115993475Y-134406632D01*
X116109311Y-134233271D01*
X116351603Y-134308792D01*
X117200395Y-133460000D01*
X117559605Y-133460000D01*
X118408397Y-134308792D01*
X118650000Y-134233486D01*
X118891603Y-134308792D01*
X119740395Y-133460000D01*
X120099605Y-133460000D01*
X120948397Y-134308792D01*
X121190000Y-134233486D01*
X121431603Y-134308792D01*
X122280395Y-133460000D01*
X122639605Y-133460000D01*
X123488397Y-134308792D01*
X123730689Y-134233271D01*
X123846525Y-134406632D01*
X124033608Y-134593715D01*
X123906614Y-134661595D01*
X123772038Y-134772038D01*
X123661595Y-134906614D01*
X123579528Y-135060150D01*
X123546420Y-135169293D01*
X123488397Y-135151208D01*
X122639605Y-136000000D01*
X123488397Y-136848792D01*
X123546420Y-136830707D01*
X123579528Y-136939850D01*
X123661595Y-137093386D01*
X123772038Y-137227962D01*
X123906614Y-137338405D01*
X124060150Y-137420472D01*
X124226746Y-137471008D01*
X124400000Y-137488072D01*
X125600000Y-137488072D01*
X125773254Y-137471008D01*
X125939850Y-137420472D01*
X126093386Y-137338405D01*
X126227962Y-137227962D01*
X126338405Y-137093386D01*
X126420472Y-136939850D01*
X126471008Y-136773254D01*
X126488072Y-136600000D01*
X126488072Y-135400000D01*
X126471008Y-135226746D01*
X126420472Y-135060150D01*
X126338405Y-134906614D01*
X126227962Y-134772038D01*
X126093386Y-134661595D01*
X125966392Y-134593715D01*
X126153475Y-134406632D01*
X126315990Y-134163411D01*
X126427932Y-133893158D01*
X126485000Y-133606260D01*
X126485000Y-133313740D01*
X126427932Y-133026842D01*
X126315990Y-132756589D01*
X126153475Y-132513368D01*
X125946632Y-132306525D01*
X125703411Y-132144010D01*
X125433158Y-132032068D01*
X125146260Y-131975000D01*
X124853740Y-131975000D01*
X124566842Y-132032068D01*
X124296589Y-132144010D01*
X124053368Y-132306525D01*
X123846525Y-132513368D01*
X123730689Y-132686729D01*
X123488397Y-132611208D01*
X122639605Y-133460000D01*
X122280395Y-133460000D01*
X121431603Y-132611208D01*
X121190000Y-132686514D01*
X120948397Y-132611208D01*
X120099605Y-133460000D01*
X119740395Y-133460000D01*
X118891603Y-132611208D01*
X118650000Y-132686514D01*
X118408397Y-132611208D01*
X117559605Y-133460000D01*
X117200395Y-133460000D01*
X116351603Y-132611208D01*
X116109311Y-132686729D01*
X115993475Y-132513368D01*
X115911710Y-132431603D01*
X116531208Y-132431603D01*
X117380000Y-133280395D01*
X118228792Y-132431603D01*
X119071208Y-132431603D01*
X119920000Y-133280395D01*
X120768792Y-132431603D01*
X121611208Y-132431603D01*
X122460000Y-133280395D01*
X123308792Y-132431603D01*
X123231157Y-132182528D01*
X122967117Y-132056629D01*
X122683589Y-131984661D01*
X122391469Y-131969389D01*
X122101981Y-132011401D01*
X121826253Y-132109081D01*
X121688843Y-132182528D01*
X121611208Y-132431603D01*
X120768792Y-132431603D01*
X120691157Y-132182528D01*
X120427117Y-132056629D01*
X120143589Y-131984661D01*
X119851469Y-131969389D01*
X119561981Y-132011401D01*
X119286253Y-132109081D01*
X119148843Y-132182528D01*
X119071208Y-132431603D01*
X118228792Y-132431603D01*
X118151157Y-132182528D01*
X117887117Y-132056629D01*
X117603589Y-131984661D01*
X117311469Y-131969389D01*
X117021981Y-132011401D01*
X116746253Y-132109081D01*
X116608843Y-132182528D01*
X116531208Y-132431603D01*
X115911710Y-132431603D01*
X115786632Y-132306525D01*
X115543411Y-132144010D01*
X115273158Y-132032068D01*
X114986260Y-131975000D01*
X114965868Y-131975000D01*
X116396833Y-130544036D01*
X116428691Y-130517891D01*
X116533036Y-130390746D01*
X116610572Y-130245687D01*
X116658318Y-130088289D01*
X116670400Y-129965619D01*
X116670400Y-129965618D01*
X116674440Y-129924600D01*
X116670400Y-129883582D01*
X116670400Y-128155636D01*
X116748815Y-128251185D01*
X116845506Y-128330537D01*
X116955820Y-128389502D01*
X117075518Y-128425812D01*
X117200000Y-128438072D01*
X118800000Y-128438072D01*
X118924482Y-128425812D01*
X119044180Y-128389502D01*
X119154494Y-128330537D01*
X119251185Y-128251185D01*
X119330537Y-128154494D01*
X119389502Y-128044180D01*
X119425812Y-127924482D01*
X119438072Y-127800000D01*
X119438072Y-126200000D01*
X121561928Y-126200000D01*
X121561928Y-127800000D01*
X121574188Y-127924482D01*
X121610498Y-128044180D01*
X121669463Y-128154494D01*
X121748815Y-128251185D01*
X121845506Y-128330537D01*
X121955820Y-128389502D01*
X122075518Y-128425812D01*
X122200000Y-128438072D01*
X123800000Y-128438072D01*
X123924482Y-128425812D01*
X124044180Y-128389502D01*
X124154494Y-128330537D01*
X124251185Y-128251185D01*
X124330537Y-128154494D01*
X124389502Y-128044180D01*
X124412295Y-127969040D01*
X125608091Y-127969040D01*
X125702930Y-128233881D01*
X125847615Y-128475131D01*
X126036586Y-128683519D01*
X126262580Y-128851037D01*
X126516913Y-128971246D01*
X126650961Y-129011904D01*
X126873000Y-128889915D01*
X126873000Y-127747000D01*
X127127000Y-127747000D01*
X127127000Y-128889915D01*
X127349039Y-129011904D01*
X127483087Y-128971246D01*
X127737420Y-128851037D01*
X127963414Y-128683519D01*
X128152385Y-128475131D01*
X128297070Y-128233881D01*
X128391909Y-127969040D01*
X128270624Y-127747000D01*
X127127000Y-127747000D01*
X126873000Y-127747000D01*
X125729376Y-127747000D01*
X125608091Y-127969040D01*
X124412295Y-127969040D01*
X124425812Y-127924482D01*
X124438072Y-127800000D01*
X124438072Y-127270960D01*
X125608091Y-127270960D01*
X125729376Y-127493000D01*
X126873000Y-127493000D01*
X126873000Y-126350085D01*
X127127000Y-126350085D01*
X127127000Y-127493000D01*
X128270624Y-127493000D01*
X128391909Y-127270960D01*
X128297070Y-127006119D01*
X128152385Y-126764869D01*
X127963414Y-126556481D01*
X127737420Y-126388963D01*
X127483087Y-126268754D01*
X127349039Y-126228096D01*
X127127000Y-126350085D01*
X126873000Y-126350085D01*
X126650961Y-126228096D01*
X126516913Y-126268754D01*
X126262580Y-126388963D01*
X126036586Y-126556481D01*
X125847615Y-126764869D01*
X125702930Y-127006119D01*
X125608091Y-127270960D01*
X124438072Y-127270960D01*
X124438072Y-126200000D01*
X124425812Y-126075518D01*
X124389502Y-125955820D01*
X124330537Y-125845506D01*
X124251185Y-125748815D01*
X124154494Y-125669463D01*
X124044180Y-125610498D01*
X123924482Y-125574188D01*
X123800000Y-125561928D01*
X122200000Y-125561928D01*
X122075518Y-125574188D01*
X121955820Y-125610498D01*
X121845506Y-125669463D01*
X121748815Y-125748815D01*
X121669463Y-125845506D01*
X121610498Y-125955820D01*
X121574188Y-126075518D01*
X121561928Y-126200000D01*
X119438072Y-126200000D01*
X119425812Y-126075518D01*
X119413741Y-126035726D01*
X124861828Y-120587640D01*
X124893691Y-120561491D01*
X124998036Y-120434346D01*
X125075572Y-120289287D01*
X125123318Y-120131889D01*
X125135400Y-120009219D01*
X125135400Y-120009218D01*
X125139440Y-119968201D01*
X125135400Y-119927182D01*
X125135400Y-99381718D01*
X125139440Y-99340700D01*
X125134091Y-99286387D01*
X125123318Y-99177011D01*
X125075572Y-99019613D01*
X124998036Y-98874554D01*
X124893691Y-98747409D01*
X124893146Y-98746961D01*
X125078475Y-98561632D01*
X125240990Y-98318411D01*
X125270300Y-98247649D01*
X125270300Y-106064281D01*
X125266260Y-106105300D01*
X125270300Y-106146318D01*
X125282382Y-106268988D01*
X125330128Y-106426386D01*
X125407664Y-106571445D01*
X125512009Y-106698591D01*
X125543879Y-106724746D01*
X126583715Y-107764582D01*
X126565000Y-107858665D01*
X126565000Y-108141335D01*
X126620147Y-108418574D01*
X126728320Y-108679727D01*
X126885363Y-108914759D01*
X127085241Y-109114637D01*
X127320273Y-109271680D01*
X127473001Y-109334942D01*
X127473001Y-112642691D01*
X127418574Y-112620147D01*
X127141335Y-112565000D01*
X126858665Y-112565000D01*
X126581426Y-112620147D01*
X126320273Y-112728320D01*
X126085241Y-112885363D01*
X125885363Y-113085241D01*
X125728320Y-113320273D01*
X125620147Y-113581426D01*
X125565000Y-113858665D01*
X125565000Y-114141335D01*
X125620147Y-114418574D01*
X125728320Y-114679727D01*
X125885363Y-114914759D01*
X126085241Y-115114637D01*
X126317759Y-115270000D01*
X126085241Y-115425363D01*
X125885363Y-115625241D01*
X125728320Y-115860273D01*
X125620147Y-116121426D01*
X125565000Y-116398665D01*
X125565000Y-116681335D01*
X125620147Y-116958574D01*
X125728320Y-117219727D01*
X125885363Y-117454759D01*
X126085241Y-117654637D01*
X126320273Y-117811680D01*
X126581426Y-117919853D01*
X126596067Y-117922765D01*
X126438574Y-118080259D01*
X126406710Y-118106409D01*
X126329902Y-118200000D01*
X126302364Y-118233555D01*
X126224828Y-118378614D01*
X126177082Y-118536012D01*
X126174280Y-118564461D01*
X126075518Y-118574188D01*
X125955820Y-118610498D01*
X125845506Y-118669463D01*
X125748815Y-118748815D01*
X125669463Y-118845506D01*
X125610498Y-118955820D01*
X125574188Y-119075518D01*
X125561928Y-119200000D01*
X125561928Y-120800000D01*
X125574188Y-120924482D01*
X125610498Y-121044180D01*
X125669463Y-121154494D01*
X125748815Y-121251185D01*
X125845506Y-121330537D01*
X125955820Y-121389502D01*
X126075518Y-121425812D01*
X126200000Y-121438072D01*
X127800000Y-121438072D01*
X127924482Y-121425812D01*
X128044180Y-121389502D01*
X128154494Y-121330537D01*
X128251185Y-121251185D01*
X128330537Y-121154494D01*
X128389502Y-121044180D01*
X128425812Y-120924482D01*
X128438072Y-120800000D01*
X128438072Y-119200000D01*
X128425812Y-119075518D01*
X128389502Y-118955820D01*
X128330537Y-118845506D01*
X128251185Y-118748815D01*
X128185587Y-118694980D01*
X128869428Y-118011140D01*
X128901291Y-117984991D01*
X129005636Y-117857846D01*
X129083172Y-117712787D01*
X129130918Y-117555389D01*
X129143000Y-117432719D01*
X129143000Y-117432709D01*
X129147039Y-117391701D01*
X129143000Y-117350693D01*
X129143000Y-108872311D01*
X129271680Y-108679727D01*
X129379853Y-108418574D01*
X129435000Y-108141335D01*
X129435000Y-107858665D01*
X129379853Y-107581426D01*
X129271680Y-107320273D01*
X129114637Y-107085241D01*
X128914759Y-106885363D01*
X128682241Y-106730000D01*
X128914759Y-106574637D01*
X129114637Y-106374759D01*
X129271680Y-106139727D01*
X129379853Y-105878574D01*
X129435000Y-105601335D01*
X129435000Y-105318665D01*
X129379853Y-105041426D01*
X129271680Y-104780273D01*
X129114637Y-104545241D01*
X128914759Y-104345363D01*
X128835000Y-104292070D01*
X128835000Y-104200718D01*
X128839040Y-104159699D01*
X128822918Y-103996011D01*
X128775172Y-103838613D01*
X128766199Y-103821825D01*
X128697636Y-103693554D01*
X128593291Y-103566409D01*
X128561421Y-103540254D01*
X128464500Y-103443333D01*
X128464500Y-101960717D01*
X128533855Y-102017636D01*
X128678914Y-102095172D01*
X128836312Y-102142918D01*
X129000000Y-102159040D01*
X129163688Y-102142918D01*
X129321086Y-102095172D01*
X129466145Y-102017636D01*
X129561429Y-101939438D01*
X130340000Y-101160868D01*
X130340000Y-139340000D01*
X101660000Y-139340000D01*
X101660000Y-128779872D01*
X102015000Y-128779872D01*
X102015000Y-129220128D01*
X102100890Y-129651925D01*
X102269369Y-130058669D01*
X102513962Y-130424729D01*
X102825271Y-130736038D01*
X103191331Y-130980631D01*
X103598075Y-131149110D01*
X104029872Y-131235000D01*
X104470128Y-131235000D01*
X104901925Y-131149110D01*
X105308669Y-130980631D01*
X105674729Y-130736038D01*
X105986038Y-130424729D01*
X106230631Y-130058669D01*
X106399110Y-129651925D01*
X106485000Y-129220128D01*
X106485000Y-128779872D01*
X106399110Y-128348075D01*
X106230631Y-127941331D01*
X105986038Y-127575271D01*
X105674729Y-127263962D01*
X105308669Y-127019369D01*
X105187165Y-126969040D01*
X110608091Y-126969040D01*
X110702930Y-127233881D01*
X110847615Y-127475131D01*
X111036586Y-127683519D01*
X111262580Y-127851037D01*
X111516913Y-127971246D01*
X111650961Y-128011904D01*
X111873000Y-127889915D01*
X111873000Y-126747000D01*
X112127000Y-126747000D01*
X112127000Y-127889915D01*
X112349039Y-128011904D01*
X112483087Y-127971246D01*
X112737420Y-127851037D01*
X112963414Y-127683519D01*
X113152385Y-127475131D01*
X113297070Y-127233881D01*
X113391909Y-126969040D01*
X113270624Y-126747000D01*
X112127000Y-126747000D01*
X111873000Y-126747000D01*
X110729376Y-126747000D01*
X110608091Y-126969040D01*
X105187165Y-126969040D01*
X104901925Y-126850890D01*
X104470128Y-126765000D01*
X104029872Y-126765000D01*
X103598075Y-126850890D01*
X103191331Y-127019369D01*
X102825271Y-127263962D01*
X102513962Y-127575271D01*
X102269369Y-127941331D01*
X102100890Y-128348075D01*
X102015000Y-128779872D01*
X101660000Y-128779872D01*
X101660000Y-126270960D01*
X110608091Y-126270960D01*
X110729376Y-126493000D01*
X111873000Y-126493000D01*
X111873000Y-125350085D01*
X112127000Y-125350085D01*
X112127000Y-126493000D01*
X113270624Y-126493000D01*
X113391909Y-126270960D01*
X113297070Y-126006119D01*
X113152385Y-125764869D01*
X112963414Y-125556481D01*
X112737420Y-125388963D01*
X112483087Y-125268754D01*
X112349039Y-125228096D01*
X112127000Y-125350085D01*
X111873000Y-125350085D01*
X111650961Y-125228096D01*
X111516913Y-125268754D01*
X111262580Y-125388963D01*
X111036586Y-125556481D01*
X110847615Y-125764869D01*
X110702930Y-126006119D01*
X110608091Y-126270960D01*
X101660000Y-126270960D01*
X101660000Y-121478665D01*
X102565000Y-121478665D01*
X102565000Y-121761335D01*
X102620147Y-122038574D01*
X102728320Y-122299727D01*
X102885363Y-122534759D01*
X103085241Y-122734637D01*
X103320273Y-122891680D01*
X103581426Y-122999853D01*
X103858665Y-123055000D01*
X104141335Y-123055000D01*
X104418574Y-122999853D01*
X104679727Y-122891680D01*
X104914759Y-122734637D01*
X105114637Y-122534759D01*
X105271680Y-122299727D01*
X105379853Y-122038574D01*
X105435000Y-121761335D01*
X105435000Y-121478665D01*
X105379853Y-121201426D01*
X105271680Y-120940273D01*
X105114637Y-120705241D01*
X104914759Y-120505363D01*
X104679727Y-120348320D01*
X104418574Y-120240147D01*
X104141335Y-120185000D01*
X103858665Y-120185000D01*
X103581426Y-120240147D01*
X103320273Y-120348320D01*
X103085241Y-120505363D01*
X102885363Y-120705241D01*
X102728320Y-120940273D01*
X102620147Y-121201426D01*
X102565000Y-121478665D01*
X101660000Y-121478665D01*
X101660000Y-108540567D01*
X102814413Y-109694980D01*
X102748815Y-109748815D01*
X102669463Y-109845506D01*
X102610498Y-109955820D01*
X102574188Y-110075518D01*
X102561928Y-110200000D01*
X102561928Y-111800000D01*
X102574188Y-111924482D01*
X102610498Y-112044180D01*
X102669463Y-112154494D01*
X102748815Y-112251185D01*
X102845506Y-112330537D01*
X102955820Y-112389502D01*
X103075518Y-112425812D01*
X103165001Y-112434625D01*
X103165000Y-112565375D01*
X103075518Y-112574188D01*
X102955820Y-112610498D01*
X102845506Y-112669463D01*
X102748815Y-112748815D01*
X102669463Y-112845506D01*
X102610498Y-112955820D01*
X102574188Y-113075518D01*
X102561928Y-113200000D01*
X102561928Y-114800000D01*
X102574188Y-114924482D01*
X102610498Y-115044180D01*
X102669463Y-115154494D01*
X102748815Y-115251185D01*
X102845506Y-115330537D01*
X102955820Y-115389502D01*
X103075518Y-115425812D01*
X103200000Y-115438072D01*
X104800000Y-115438072D01*
X104924482Y-115425812D01*
X105044180Y-115389502D01*
X105154494Y-115330537D01*
X105251185Y-115251185D01*
X105330537Y-115154494D01*
X105389502Y-115044180D01*
X105425812Y-114924482D01*
X105438072Y-114800000D01*
X105438072Y-113200000D01*
X105425812Y-113075518D01*
X105389502Y-112955820D01*
X105330537Y-112845506D01*
X105251185Y-112748815D01*
X105154494Y-112669463D01*
X105044180Y-112610498D01*
X104924482Y-112574188D01*
X104835000Y-112565375D01*
X104835000Y-112434625D01*
X104924482Y-112425812D01*
X105044180Y-112389502D01*
X105154494Y-112330537D01*
X105251185Y-112251185D01*
X105330537Y-112154494D01*
X105389502Y-112044180D01*
X105425812Y-111924482D01*
X105438072Y-111800000D01*
X105438072Y-110200000D01*
X105425812Y-110075518D01*
X105389502Y-109955820D01*
X105330537Y-109845506D01*
X105251185Y-109748815D01*
X105154494Y-109669463D01*
X105044180Y-109610498D01*
X104924482Y-109574188D01*
X104825720Y-109564461D01*
X104822918Y-109536011D01*
X104775172Y-109378613D01*
X104697636Y-109233554D01*
X104593291Y-109106409D01*
X104561427Y-109080259D01*
X102484700Y-107003533D01*
X102484700Y-100173908D01*
X102566842Y-100207932D01*
X102853740Y-100265000D01*
X103146260Y-100265000D01*
X103433158Y-100207932D01*
X103703411Y-100095990D01*
X103946632Y-99933475D01*
X104153475Y-99726632D01*
X104315990Y-99483411D01*
X104427932Y-99213158D01*
X104485000Y-98926260D01*
X104485000Y-98633740D01*
X104427932Y-98346842D01*
X104315990Y-98076589D01*
X104153475Y-97833368D01*
X103946632Y-97626525D01*
X103772240Y-97510000D01*
X103946632Y-97393475D01*
X104134774Y-97205333D01*
X107973660Y-101044129D01*
X107999809Y-101075991D01*
X108031669Y-101102138D01*
X108954504Y-102025000D01*
X108858665Y-102025000D01*
X108581426Y-102080147D01*
X108320273Y-102188320D01*
X108085241Y-102345363D01*
X107885363Y-102545241D01*
X107728320Y-102780273D01*
X107620147Y-103041426D01*
X107565000Y-103318665D01*
X107565000Y-103601335D01*
X107620147Y-103878574D01*
X107728320Y-104139727D01*
X107885363Y-104374759D01*
X108085241Y-104574637D01*
X108317759Y-104730000D01*
X108085241Y-104885363D01*
X108035886Y-104934718D01*
X105919746Y-102818579D01*
X105893591Y-102786709D01*
X105766446Y-102682364D01*
X105621387Y-102604828D01*
X105463989Y-102557082D01*
X105341319Y-102545000D01*
X105341318Y-102545000D01*
X105300300Y-102540960D01*
X105259282Y-102545000D01*
X105167930Y-102545000D01*
X105114637Y-102465241D01*
X104914759Y-102265363D01*
X104679727Y-102108320D01*
X104418574Y-102000147D01*
X104141335Y-101945000D01*
X103858665Y-101945000D01*
X103581426Y-102000147D01*
X103320273Y-102108320D01*
X103085241Y-102265363D01*
X102885363Y-102465241D01*
X102728320Y-102700273D01*
X102620147Y-102961426D01*
X102565000Y-103238665D01*
X102565000Y-103521335D01*
X102620147Y-103798574D01*
X102728320Y-104059727D01*
X102885363Y-104294759D01*
X103085241Y-104494637D01*
X103320273Y-104651680D01*
X103581426Y-104759853D01*
X103858665Y-104815000D01*
X104141335Y-104815000D01*
X104418574Y-104759853D01*
X104679727Y-104651680D01*
X104914759Y-104494637D01*
X105074414Y-104334982D01*
X107300863Y-106561432D01*
X107327009Y-106593291D01*
X107454154Y-106697636D01*
X107599213Y-106775172D01*
X107756611Y-106822918D01*
X107828744Y-106830023D01*
X107885363Y-106914759D01*
X108085241Y-107114637D01*
X108320273Y-107271680D01*
X108581426Y-107379853D01*
X108858665Y-107435000D01*
X109141335Y-107435000D01*
X109418574Y-107379853D01*
X109679727Y-107271680D01*
X109914759Y-107114637D01*
X110114637Y-106914759D01*
X110271680Y-106679727D01*
X110379853Y-106418574D01*
X110435000Y-106141335D01*
X110435000Y-105858665D01*
X110379853Y-105581426D01*
X110271680Y-105320273D01*
X110114637Y-105085241D01*
X109914759Y-104885363D01*
X109682241Y-104730000D01*
X109914759Y-104574637D01*
X110114637Y-104374759D01*
X110271680Y-104139727D01*
X110379853Y-103878574D01*
X110435000Y-103601335D01*
X110435000Y-103505539D01*
X111165001Y-104235562D01*
X111165000Y-117565375D01*
X111075518Y-117574188D01*
X110955820Y-117610498D01*
X110845506Y-117669463D01*
X110748815Y-117748815D01*
X110669463Y-117845506D01*
X110610498Y-117955820D01*
X110574188Y-118075518D01*
X110561928Y-118200000D01*
X110561928Y-119800000D01*
X110574188Y-119924482D01*
X110610498Y-120044180D01*
X110669463Y-120154494D01*
X110748815Y-120251185D01*
X110845506Y-120330537D01*
X110955820Y-120389502D01*
X111075518Y-120425812D01*
X111200000Y-120438072D01*
X112800000Y-120438072D01*
X112924482Y-120425812D01*
X113044180Y-120389502D01*
X113154494Y-120330537D01*
X113251185Y-120251185D01*
X113330537Y-120154494D01*
X113389502Y-120044180D01*
X113425812Y-119924482D01*
X113438072Y-119800000D01*
X113438072Y-118200000D01*
X113425812Y-118075518D01*
X113389502Y-117955820D01*
X113330537Y-117845506D01*
X113251185Y-117748815D01*
X113154494Y-117669463D01*
X113044180Y-117610498D01*
X112924482Y-117574188D01*
X112835000Y-117565375D01*
X112835000Y-103930723D01*
X112839040Y-103889712D01*
X112835000Y-103848688D01*
X112835000Y-103848681D01*
X112823552Y-103732445D01*
X112822920Y-103726024D01*
X112822919Y-103726020D01*
X112822918Y-103726011D01*
X112780867Y-103587386D01*
X112775176Y-103568624D01*
X112775174Y-103568621D01*
X112775172Y-103568613D01*
X112718220Y-103462064D01*
X112697643Y-103423565D01*
X112697640Y-103423561D01*
X112697636Y-103423554D01*
X112645590Y-103360136D01*
X112619447Y-103328279D01*
X112619441Y-103328273D01*
X112593291Y-103296409D01*
X112561436Y-103270266D01*
X112073076Y-102781891D01*
X113043519Y-102781891D01*
X113140843Y-103056252D01*
X113289822Y-103306355D01*
X113484731Y-103522588D01*
X113718080Y-103696641D01*
X113980901Y-103821825D01*
X114128110Y-103866476D01*
X114358000Y-103745155D01*
X114358000Y-102552000D01*
X113164186Y-102552000D01*
X113043519Y-102781891D01*
X112073076Y-102781891D01*
X111359315Y-102068109D01*
X113043519Y-102068109D01*
X113164186Y-102298000D01*
X114358000Y-102298000D01*
X114358000Y-101104845D01*
X114128110Y-100983524D01*
X113980901Y-101028175D01*
X113718080Y-101153359D01*
X113484731Y-101327412D01*
X113289822Y-101543645D01*
X113140843Y-101793748D01*
X113043519Y-102068109D01*
X111359315Y-102068109D01*
X109807608Y-100516359D01*
X111535276Y-98788692D01*
X111680398Y-98759826D01*
X111868756Y-98681805D01*
X112038274Y-98568537D01*
X112182437Y-98424374D01*
X112295705Y-98254856D01*
X112373726Y-98066498D01*
X112413500Y-97866539D01*
X112413500Y-97662661D01*
X112373726Y-97462702D01*
X112295705Y-97274344D01*
X112182437Y-97104826D01*
X112038274Y-96960663D01*
X111868756Y-96847395D01*
X111680398Y-96769374D01*
X111480439Y-96729600D01*
X111276561Y-96729600D01*
X111076602Y-96769374D01*
X110909258Y-96838691D01*
X112219827Y-95528122D01*
X112251691Y-95501972D01*
X112356036Y-95374827D01*
X112433572Y-95229768D01*
X112481318Y-95072370D01*
X112493400Y-94949700D01*
X112497440Y-94908682D01*
X112493400Y-94867663D01*
X112493400Y-91938207D01*
X112497439Y-91897199D01*
X112493400Y-91856191D01*
X112493400Y-91856181D01*
X112481318Y-91733511D01*
X112433572Y-91576113D01*
X112356036Y-91431054D01*
X112251691Y-91303909D01*
X112219828Y-91277760D01*
X110837898Y-89895831D01*
X110837898Y-89538685D01*
X110920103Y-89415656D01*
X110998124Y-89227298D01*
X111037898Y-89027339D01*
X111037898Y-88823461D01*
X110998124Y-88623502D01*
X110920103Y-88435144D01*
X110806835Y-88265626D01*
X110662672Y-88121463D01*
X110493154Y-88008195D01*
X110304796Y-87930174D01*
X110104837Y-87890400D01*
X109900959Y-87890400D01*
X109701000Y-87930174D01*
X109512642Y-88008195D01*
X109343124Y-88121463D01*
X109198961Y-88265626D01*
X109085693Y-88435144D01*
X109007672Y-88623502D01*
X108967898Y-88823461D01*
X108967898Y-89027339D01*
X109001161Y-89194566D01*
X108903475Y-89048368D01*
X108696632Y-88841525D01*
X108522240Y-88725000D01*
X108696632Y-88608475D01*
X108903475Y-88401632D01*
X109065990Y-88158411D01*
X109177932Y-87888158D01*
X109235000Y-87601260D01*
X109235000Y-87308740D01*
X109177932Y-87021842D01*
X109065990Y-86751589D01*
X108903475Y-86508368D01*
X108696632Y-86301525D01*
X108514466Y-86179805D01*
X108631355Y-86110178D01*
X108847588Y-85915269D01*
X109021641Y-85681920D01*
X109146825Y-85419099D01*
X109191476Y-85271890D01*
X109070155Y-85042000D01*
X107877000Y-85042000D01*
X107877000Y-85062000D01*
X107623000Y-85062000D01*
X107623000Y-85042000D01*
X106429845Y-85042000D01*
X106308524Y-85271890D01*
X106353175Y-85419099D01*
X106478359Y-85681920D01*
X106652412Y-85915269D01*
X106868645Y-86110178D01*
X106985534Y-86179805D01*
X106803368Y-86301525D01*
X106596525Y-86508368D01*
X106434010Y-86751589D01*
X106322068Y-87021842D01*
X106265000Y-87308740D01*
X106265000Y-87601260D01*
X106322068Y-87888158D01*
X106434010Y-88158411D01*
X106596525Y-88401632D01*
X106803368Y-88608475D01*
X106977760Y-88725000D01*
X106803368Y-88841525D01*
X106596525Y-89048368D01*
X106434010Y-89291589D01*
X106322068Y-89561842D01*
X106265000Y-89848740D01*
X106265000Y-90141260D01*
X106322068Y-90428158D01*
X106434010Y-90698411D01*
X106596525Y-90941632D01*
X106803368Y-91148475D01*
X106977760Y-91265000D01*
X106803368Y-91381525D01*
X106596525Y-91588368D01*
X106434010Y-91831589D01*
X106322068Y-92101842D01*
X106265000Y-92388740D01*
X106265000Y-92681260D01*
X106322068Y-92968158D01*
X106434010Y-93238411D01*
X106596525Y-93481632D01*
X106803368Y-93688475D01*
X106977760Y-93805000D01*
X106803368Y-93921525D01*
X106596525Y-94128368D01*
X106434010Y-94371589D01*
X106322068Y-94641842D01*
X106265000Y-94928740D01*
X106265000Y-95221260D01*
X106322068Y-95508158D01*
X106434010Y-95778411D01*
X106596525Y-96021632D01*
X106803368Y-96228475D01*
X106977760Y-96345000D01*
X106803368Y-96461525D01*
X106596525Y-96668368D01*
X106434010Y-96911589D01*
X106366288Y-97075086D01*
X104969740Y-95678571D01*
X104943591Y-95646709D01*
X104816446Y-95542364D01*
X104671387Y-95464828D01*
X104513989Y-95417082D01*
X104513982Y-95417081D01*
X104513978Y-95417080D01*
X104432518Y-95409058D01*
X104391319Y-95405000D01*
X104391314Y-95405000D01*
X104350291Y-95400960D01*
X104309278Y-95405000D01*
X104228065Y-95405000D01*
X104153475Y-95293368D01*
X103946632Y-95086525D01*
X103772240Y-94970000D01*
X103946632Y-94853475D01*
X104153475Y-94646632D01*
X104315990Y-94403411D01*
X104427932Y-94133158D01*
X104485000Y-93846260D01*
X104485000Y-93553740D01*
X104427932Y-93266842D01*
X104315990Y-92996589D01*
X104153475Y-92753368D01*
X103946632Y-92546525D01*
X103772240Y-92430000D01*
X103946632Y-92313475D01*
X104153475Y-92106632D01*
X104315990Y-91863411D01*
X104427932Y-91593158D01*
X104485000Y-91306260D01*
X104485000Y-91013740D01*
X104427932Y-90726842D01*
X104315990Y-90456589D01*
X104153475Y-90213368D01*
X103946632Y-90006525D01*
X103772240Y-89890000D01*
X103946632Y-89773475D01*
X104153475Y-89566632D01*
X104315990Y-89323411D01*
X104427932Y-89053158D01*
X104485000Y-88766260D01*
X104485000Y-88473740D01*
X104427932Y-88186842D01*
X104315990Y-87916589D01*
X104153475Y-87673368D01*
X103946632Y-87466525D01*
X103772240Y-87350000D01*
X103946632Y-87233475D01*
X104153475Y-87026632D01*
X104315990Y-86783411D01*
X104427932Y-86513158D01*
X104485000Y-86226260D01*
X104485000Y-85933740D01*
X104458807Y-85802061D01*
X106361833Y-83899036D01*
X106393691Y-83872891D01*
X106498036Y-83745746D01*
X106508872Y-83725473D01*
X106545506Y-83755537D01*
X106655820Y-83814502D01*
X106736466Y-83838966D01*
X106652412Y-83914731D01*
X106478359Y-84148080D01*
X106353175Y-84410901D01*
X106308524Y-84558110D01*
X106429845Y-84788000D01*
X107623000Y-84788000D01*
X107623000Y-84768000D01*
X107877000Y-84768000D01*
X107877000Y-84788000D01*
X109070155Y-84788000D01*
X109191476Y-84558110D01*
X109146825Y-84410901D01*
X109021641Y-84148080D01*
X108847588Y-83914731D01*
X108763534Y-83838966D01*
X108844180Y-83814502D01*
X108954494Y-83755537D01*
X109051185Y-83676185D01*
X109130537Y-83579494D01*
X109189502Y-83469180D01*
X109225812Y-83349482D01*
X109238072Y-83225000D01*
X109238072Y-81525000D01*
X109225812Y-81400518D01*
X109189502Y-81280820D01*
X109130537Y-81170506D01*
X109051185Y-81073815D01*
X108954494Y-80994463D01*
X108844180Y-80935498D01*
X108724482Y-80899188D01*
X108600000Y-80886928D01*
X108585000Y-80886928D01*
X108585000Y-79673218D01*
X108589040Y-79632199D01*
X108572918Y-79468511D01*
X108525172Y-79311113D01*
X108447636Y-79166054D01*
X108343291Y-79038909D01*
X108311428Y-79012760D01*
X105938072Y-76639405D01*
X105938072Y-75450000D01*
X105925812Y-75325518D01*
X105889502Y-75205820D01*
X105830537Y-75095506D01*
X105751185Y-74998815D01*
X105654494Y-74919463D01*
X105544180Y-74860498D01*
X105424482Y-74824188D01*
X105300000Y-74811928D01*
X103700000Y-74811928D01*
X103575518Y-74824188D01*
X103455820Y-74860498D01*
X103425600Y-74876651D01*
X103425600Y-73992702D01*
X107186903Y-73992702D01*
X107258486Y-74236671D01*
X107513996Y-74357571D01*
X107788184Y-74426300D01*
X108070512Y-74440217D01*
X108350130Y-74398787D01*
X108616292Y-74303603D01*
X108741514Y-74236671D01*
X108813097Y-73992702D01*
X108000000Y-73179605D01*
X107186903Y-73992702D01*
X103425600Y-73992702D01*
X103425600Y-73070512D01*
X106559783Y-73070512D01*
X106601213Y-73350130D01*
X106696397Y-73616292D01*
X106763329Y-73741514D01*
X107007298Y-73813097D01*
X107820395Y-73000000D01*
X107007298Y-72186903D01*
X106763329Y-72258486D01*
X106642429Y-72513996D01*
X106573700Y-72788184D01*
X106559783Y-73070512D01*
X103425600Y-73070512D01*
X103425600Y-72007298D01*
X107186903Y-72007298D01*
X108000000Y-72820395D01*
X108813097Y-72007298D01*
X108741514Y-71763329D01*
X108486004Y-71642429D01*
X108211816Y-71573700D01*
X107929488Y-71559783D01*
X107649870Y-71601213D01*
X107383708Y-71696397D01*
X107258486Y-71763329D01*
X107186903Y-72007298D01*
X103425600Y-72007298D01*
X103425600Y-69584996D01*
X103585241Y-69744637D01*
X103820273Y-69901680D01*
X104081426Y-70009853D01*
X104358665Y-70065000D01*
X104641335Y-70065000D01*
X104918574Y-70009853D01*
X105179727Y-69901680D01*
X105414759Y-69744637D01*
X105614637Y-69544759D01*
X105771680Y-69309727D01*
X105879853Y-69048574D01*
X105935000Y-68771335D01*
X105935000Y-68488665D01*
X105879853Y-68211426D01*
X105771680Y-67950273D01*
X105614637Y-67715241D01*
X105414759Y-67515363D01*
X105179727Y-67358320D01*
X104918574Y-67250147D01*
X104641335Y-67195000D01*
X104358665Y-67195000D01*
X104081426Y-67250147D01*
X103820273Y-67358320D01*
X103585241Y-67515363D01*
X103425600Y-67675004D01*
X103425600Y-66877000D01*
X108945000Y-66877000D01*
X108945000Y-67277000D01*
X108997350Y-67554514D01*
X109102834Y-67816483D01*
X109257399Y-68052839D01*
X109455105Y-68254500D01*
X109688354Y-68413715D01*
X109948182Y-68524367D01*
X110030961Y-68541904D01*
X110253000Y-68419915D01*
X110253000Y-66877000D01*
X108945000Y-66877000D01*
X103425600Y-66877000D01*
X103425600Y-66223000D01*
X108945000Y-66223000D01*
X108945000Y-66623000D01*
X110253000Y-66623000D01*
X110253000Y-65080085D01*
X110030961Y-64958096D01*
X109948182Y-64975633D01*
X109688354Y-65086285D01*
X109455105Y-65245500D01*
X109257399Y-65447161D01*
X109102834Y-65683517D01*
X108997350Y-65945486D01*
X108945000Y-66223000D01*
X103425600Y-66223000D01*
X103425600Y-58659509D01*
X108945000Y-58659509D01*
X108945000Y-59600492D01*
X108965764Y-59811309D01*
X109047818Y-60081808D01*
X109181068Y-60331101D01*
X109360393Y-60549608D01*
X109578900Y-60728932D01*
X109828193Y-60862182D01*
X110098692Y-60944236D01*
X110380000Y-60971943D01*
X110661309Y-60944236D01*
X110931808Y-60862182D01*
X111181101Y-60728932D01*
X111399608Y-60549608D01*
X111578932Y-60331101D01*
X111650000Y-60198142D01*
X111721068Y-60331101D01*
X111900393Y-60549608D01*
X112118900Y-60728932D01*
X112368193Y-60862182D01*
X112638692Y-60944236D01*
X112920000Y-60971943D01*
X113201309Y-60944236D01*
X113471808Y-60862182D01*
X113721101Y-60728932D01*
X113939608Y-60549608D01*
X114118932Y-60331101D01*
X114190000Y-60198142D01*
X114261068Y-60331101D01*
X114440393Y-60549608D01*
X114658900Y-60728932D01*
X114908193Y-60862182D01*
X115178692Y-60944236D01*
X115460000Y-60971943D01*
X115741309Y-60944236D01*
X116011808Y-60862182D01*
X116261101Y-60728932D01*
X116479608Y-60549608D01*
X116658932Y-60331101D01*
X116730000Y-60198142D01*
X116801068Y-60331101D01*
X116980393Y-60549608D01*
X117198900Y-60728932D01*
X117448193Y-60862182D01*
X117718692Y-60944236D01*
X118000000Y-60971943D01*
X118281309Y-60944236D01*
X118551808Y-60862182D01*
X118801101Y-60728932D01*
X119019608Y-60549608D01*
X119198932Y-60331101D01*
X119332182Y-60081808D01*
X119414236Y-59811309D01*
X119435000Y-59600491D01*
X119435000Y-58659508D01*
X119414236Y-58448691D01*
X119332182Y-58178192D01*
X119198932Y-57928899D01*
X119019607Y-57710392D01*
X118801100Y-57531068D01*
X118551807Y-57397818D01*
X118281308Y-57315764D01*
X118000000Y-57288057D01*
X117718691Y-57315764D01*
X117448192Y-57397818D01*
X117198899Y-57531068D01*
X116980392Y-57710393D01*
X116801068Y-57928900D01*
X116730000Y-58061858D01*
X116658932Y-57928899D01*
X116479607Y-57710392D01*
X116261100Y-57531068D01*
X116011807Y-57397818D01*
X115741308Y-57315764D01*
X115460000Y-57288057D01*
X115178691Y-57315764D01*
X114908192Y-57397818D01*
X114658899Y-57531068D01*
X114440392Y-57710393D01*
X114261068Y-57928900D01*
X114190000Y-58061858D01*
X114118932Y-57928899D01*
X113939607Y-57710392D01*
X113721100Y-57531068D01*
X113471807Y-57397818D01*
X113201308Y-57315764D01*
X112920000Y-57288057D01*
X112638691Y-57315764D01*
X112368192Y-57397818D01*
X112118899Y-57531068D01*
X111900392Y-57710393D01*
X111721068Y-57928900D01*
X111650000Y-58061858D01*
X111578932Y-57928899D01*
X111399607Y-57710392D01*
X111181100Y-57531068D01*
X110931807Y-57397818D01*
X110661308Y-57315764D01*
X110380000Y-57288057D01*
X110098691Y-57315764D01*
X109828192Y-57397818D01*
X109578899Y-57531068D01*
X109360392Y-57710393D01*
X109181068Y-57928900D01*
X109047818Y-58178193D01*
X108965764Y-58448692D01*
X108945000Y-58659509D01*
X103425600Y-58659509D01*
X103425600Y-58295267D01*
X104764582Y-56956286D01*
X104858665Y-56975000D01*
X105141335Y-56975000D01*
X105418574Y-56919853D01*
X105679727Y-56811680D01*
X105914759Y-56654637D01*
X106114637Y-56454759D01*
X106271680Y-56219727D01*
X106379853Y-55958574D01*
X106435000Y-55681335D01*
X106435000Y-55398665D01*
X106379853Y-55121426D01*
X106271680Y-54860273D01*
X106114637Y-54625241D01*
X105914759Y-54425363D01*
X105682241Y-54270000D01*
X105914759Y-54114637D01*
X106114637Y-53914759D01*
X106271680Y-53679727D01*
X106379853Y-53418574D01*
X106435000Y-53141335D01*
X106435000Y-52858665D01*
X106416285Y-52764582D01*
X108500000Y-50680868D01*
X110583714Y-52764582D01*
X110565000Y-52858665D01*
X110565000Y-53141335D01*
X110620147Y-53418574D01*
X110728320Y-53679727D01*
X110885363Y-53914759D01*
X111085241Y-54114637D01*
X111320273Y-54271680D01*
X111581426Y-54379853D01*
X111858665Y-54435000D01*
X112141335Y-54435000D01*
X112418574Y-54379853D01*
X112679727Y-54271680D01*
X112914759Y-54114637D01*
X113114637Y-53914759D01*
X113270000Y-53682241D01*
X113425363Y-53914759D01*
X113625241Y-54114637D01*
X113860273Y-54271680D01*
X114121426Y-54379853D01*
X114398665Y-54435000D01*
X114681335Y-54435000D01*
X114958574Y-54379853D01*
X115219727Y-54271680D01*
X115454759Y-54114637D01*
X115654637Y-53914759D01*
X115811680Y-53679727D01*
X115919853Y-53418574D01*
X115975000Y-53141335D01*
X115975000Y-52858665D01*
X115919853Y-52581426D01*
X115811680Y-52320273D01*
X115654637Y-52085241D01*
X115454759Y-51885363D01*
X115219727Y-51728320D01*
X114958574Y-51620147D01*
X114681335Y-51565000D01*
X114398665Y-51565000D01*
X114121426Y-51620147D01*
X113860273Y-51728320D01*
X113625241Y-51885363D01*
X113425363Y-52085241D01*
X113270000Y-52317759D01*
X113114637Y-52085241D01*
X112914759Y-51885363D01*
X112679727Y-51728320D01*
X112418574Y-51620147D01*
X112141335Y-51565000D01*
X111858665Y-51565000D01*
X111764582Y-51583714D01*
X109318346Y-49137479D01*
X109292191Y-49105609D01*
X109165046Y-49001264D01*
X109134700Y-48985044D01*
X109134700Y-47745867D01*
X110194981Y-46685588D01*
X110248815Y-46751185D01*
X110345506Y-46830537D01*
X110455820Y-46889502D01*
X110575518Y-46925812D01*
X110700000Y-46938072D01*
X112300000Y-46938072D01*
X112424482Y-46925812D01*
X112544180Y-46889502D01*
X112654494Y-46830537D01*
X112751185Y-46751185D01*
X112830537Y-46654494D01*
X112889502Y-46544180D01*
X112905117Y-46492702D01*
X113186903Y-46492702D01*
X113258486Y-46736671D01*
X113513996Y-46857571D01*
X113788184Y-46926300D01*
X114070512Y-46940217D01*
X114350130Y-46898787D01*
X114616292Y-46803603D01*
X114741514Y-46736671D01*
X114813097Y-46492702D01*
X114000000Y-45679605D01*
X113186903Y-46492702D01*
X112905117Y-46492702D01*
X112925812Y-46424482D01*
X112938072Y-46300000D01*
X112938072Y-46292785D01*
X113007298Y-46313097D01*
X113820395Y-45500000D01*
X114179605Y-45500000D01*
X114992702Y-46313097D01*
X115236671Y-46241514D01*
X115357571Y-45986004D01*
X115426300Y-45711816D01*
X115440217Y-45429488D01*
X115398787Y-45149870D01*
X115303603Y-44883708D01*
X115236671Y-44758486D01*
X114992702Y-44686903D01*
X114179605Y-45500000D01*
X113820395Y-45500000D01*
X113007298Y-44686903D01*
X112938072Y-44707215D01*
X112938072Y-44700000D01*
X112925812Y-44575518D01*
X112905118Y-44507298D01*
X113186903Y-44507298D01*
X114000000Y-45320395D01*
X114813097Y-44507298D01*
X114741514Y-44263329D01*
X114486004Y-44142429D01*
X114211816Y-44073700D01*
X113929488Y-44059783D01*
X113649870Y-44101213D01*
X113383708Y-44196397D01*
X113258486Y-44263329D01*
X113186903Y-44507298D01*
X112905118Y-44507298D01*
X112889502Y-44455820D01*
X112830537Y-44345506D01*
X112751185Y-44248815D01*
X112654494Y-44169463D01*
X112544180Y-44110498D01*
X112424482Y-44074188D01*
X112300000Y-44061928D01*
X110700000Y-44061928D01*
X110575518Y-44074188D01*
X110455820Y-44110498D01*
X110345506Y-44169463D01*
X110248815Y-44248815D01*
X110169463Y-44345506D01*
X110110498Y-44455820D01*
X110074188Y-44575518D01*
X110064461Y-44674280D01*
X110036011Y-44677082D01*
X109878613Y-44724828D01*
X109733554Y-44802364D01*
X109606409Y-44906709D01*
X109580263Y-44938568D01*
X107953833Y-46565000D01*
X107291884Y-46565000D01*
X107313097Y-46492702D01*
X106500000Y-45679605D01*
X106485858Y-45693748D01*
X106306253Y-45514143D01*
X106320395Y-45500000D01*
X106679605Y-45500000D01*
X107492702Y-46313097D01*
X107736671Y-46241514D01*
X107857571Y-45986004D01*
X107926300Y-45711816D01*
X107940217Y-45429488D01*
X107898787Y-45149870D01*
X107803603Y-44883708D01*
X107736671Y-44758486D01*
X107492702Y-44686903D01*
X106679605Y-45500000D01*
X106320395Y-45500000D01*
X105507298Y-44686903D01*
X105438072Y-44707215D01*
X105438072Y-44700000D01*
X105425812Y-44575518D01*
X105405118Y-44507298D01*
X105686903Y-44507298D01*
X106500000Y-45320395D01*
X107313097Y-44507298D01*
X107241514Y-44263329D01*
X106986004Y-44142429D01*
X106711816Y-44073700D01*
X106429488Y-44059783D01*
X106149870Y-44101213D01*
X105883708Y-44196397D01*
X105758486Y-44263329D01*
X105686903Y-44507298D01*
X105405118Y-44507298D01*
X105389502Y-44455820D01*
X105330537Y-44345506D01*
X105251185Y-44248815D01*
X105154494Y-44169463D01*
X105044180Y-44110498D01*
X104924482Y-44074188D01*
X104800000Y-44061928D01*
X103200000Y-44061928D01*
X103075518Y-44074188D01*
X102955820Y-44110498D01*
X102845506Y-44169463D01*
X102748815Y-44248815D01*
X102669463Y-44345506D01*
X102610498Y-44455820D01*
X102574188Y-44575518D01*
X102561928Y-44700000D01*
X102561928Y-46300000D01*
X102574188Y-46424482D01*
X102610498Y-46544180D01*
X102669463Y-46654494D01*
X102748815Y-46751185D01*
X102845506Y-46830537D01*
X102955820Y-46889502D01*
X103075518Y-46925812D01*
X103200000Y-46938072D01*
X104257204Y-46938072D01*
X105280563Y-47961432D01*
X105306709Y-47993291D01*
X105433854Y-48097636D01*
X105578913Y-48175172D01*
X105736311Y-48222918D01*
X105858981Y-48235000D01*
X105858982Y-48235000D01*
X105900000Y-48239040D01*
X105941018Y-48235000D01*
X107464700Y-48235000D01*
X107464701Y-49354431D01*
X105235418Y-51583715D01*
X105141335Y-51565000D01*
X104858665Y-51565000D01*
X104581426Y-51620147D01*
X104320273Y-51728320D01*
X104085241Y-51885363D01*
X103885363Y-52085241D01*
X103728320Y-52320273D01*
X103620147Y-52581426D01*
X103565000Y-52858665D01*
X103565000Y-53141335D01*
X103583714Y-53235417D01*
X101660000Y-55159133D01*
X101660000Y-42779872D01*
X125765000Y-42779872D01*
X125765000Y-43220128D01*
X125850890Y-43651925D01*
X126019369Y-44058669D01*
X126263962Y-44424729D01*
X126575271Y-44736038D01*
X126941331Y-44980631D01*
X127348075Y-45149110D01*
X127779872Y-45235000D01*
X128220128Y-45235000D01*
X128651925Y-45149110D01*
X129058669Y-44980631D01*
X129424729Y-44736038D01*
X129736038Y-44424729D01*
X129980631Y-44058669D01*
X130149110Y-43651925D01*
X130235000Y-43220128D01*
X130235000Y-42779872D01*
X130149110Y-42348075D01*
X129980631Y-41941331D01*
X129736038Y-41575271D01*
X129424729Y-41263962D01*
X129058669Y-41019369D01*
X128651925Y-40850890D01*
X128220128Y-40765000D01*
X127779872Y-40765000D01*
X127348075Y-40850890D01*
X126941331Y-41019369D01*
X126575271Y-41263962D01*
X126263962Y-41575271D01*
X126019369Y-41941331D01*
X125850890Y-42348075D01*
X125765000Y-42779872D01*
X101660000Y-42779872D01*
X101660000Y-40660000D01*
X130340001Y-40660000D01*
X130340001Y-73409133D01*
G36*
X103281341Y-79519409D02*
G01*
X103127000Y-79673750D01*
X103127000Y-80873000D01*
X104326250Y-80873000D01*
X104480591Y-80718659D01*
X104965401Y-81203470D01*
X104965400Y-82933731D01*
X104485000Y-83414132D01*
X104485000Y-83393740D01*
X104427932Y-83106842D01*
X104315990Y-82836589D01*
X104153475Y-82593368D01*
X104021620Y-82461513D01*
X104094180Y-82439502D01*
X104204494Y-82380537D01*
X104301185Y-82301185D01*
X104380537Y-82204494D01*
X104439502Y-82094180D01*
X104475812Y-81974482D01*
X104488072Y-81850000D01*
X104485000Y-81285750D01*
X104326250Y-81127000D01*
X103127000Y-81127000D01*
X103127000Y-81147000D01*
X102873000Y-81147000D01*
X102873000Y-81127000D01*
X102853000Y-81127000D01*
X102853000Y-80873000D01*
X102873000Y-80873000D01*
X102873000Y-79673750D01*
X102714250Y-79515000D01*
X102484700Y-79513750D01*
X102484700Y-78722767D01*
X103281341Y-79519409D01*
G37*
X103281341Y-79519409D02*
X103127000Y-79673750D01*
X103127000Y-80873000D01*
X104326250Y-80873000D01*
X104480591Y-80718659D01*
X104965401Y-81203470D01*
X104965400Y-82933731D01*
X104485000Y-83414132D01*
X104485000Y-83393740D01*
X104427932Y-83106842D01*
X104315990Y-82836589D01*
X104153475Y-82593368D01*
X104021620Y-82461513D01*
X104094180Y-82439502D01*
X104204494Y-82380537D01*
X104301185Y-82301185D01*
X104380537Y-82204494D01*
X104439502Y-82094180D01*
X104475812Y-81974482D01*
X104488072Y-81850000D01*
X104485000Y-81285750D01*
X104326250Y-81127000D01*
X103127000Y-81127000D01*
X103127000Y-81147000D01*
X102873000Y-81147000D01*
X102873000Y-81127000D01*
X102853000Y-81127000D01*
X102853000Y-80873000D01*
X102873000Y-80873000D01*
X102873000Y-79673750D01*
X102714250Y-79515000D01*
X102484700Y-79513750D01*
X102484700Y-78722767D01*
X103281341Y-79519409D01*
%TD*%
M02*
