%TF.GenerationSoftware,KiCad,Pcbnew,(5.1.6)-1*%
%TF.CreationDate,2021-08-09T18:11:52+02:00*%
%TF.ProjectId,4ch_Sampler_main,3463685f-5361-46d7-906c-65725f6d6169,rev?*%
%TF.SameCoordinates,Original*%
%TF.FileFunction,Legend,Top*%
%TF.FilePolarity,Positive*%
%FSLAX46Y46*%
G04 Gerber Fmt 4.6, Leading zero omitted, Abs format (unit mm)*
G04 Created by KiCad (PCBNEW (5.1.6)-1) date 2021-08-09 18:11:52*
%MOMM*%
%LPD*%
G01*
G04 APERTURE LIST*
%ADD10C,0.120000*%
%ADD11C,0.150000*%
G04 APERTURE END LIST*
D10*
%TO.C,Conn2*%
X127670000Y-82270000D02*
X130330000Y-82270000D01*
X127670000Y-82270000D02*
X127670000Y-100110000D01*
X127670000Y-100110000D02*
X130330000Y-100110000D01*
X130330000Y-82270000D02*
X130330000Y-100110000D01*
X130330000Y-79670000D02*
X130330000Y-81000000D01*
X129000000Y-79670000D02*
X130330000Y-79670000D01*
%TO.C,Conn1*%
X101670000Y-82270000D02*
X104330000Y-82270000D01*
X101670000Y-82270000D02*
X101670000Y-100110000D01*
X101670000Y-100110000D02*
X104330000Y-100110000D01*
X104330000Y-82270000D02*
X104330000Y-100110000D01*
X104330000Y-79670000D02*
X104330000Y-81000000D01*
X103000000Y-79670000D02*
X104330000Y-79670000D01*
%TO.C,R10*%
X109971380Y-104655225D02*
G75*
G02*
X108200000Y-104546728I-971380J-1344775D01*
G01*
%TO.C,R9*%
X121344775Y-46971380D02*
G75*
G02*
X121453272Y-45200000I-1344775J971380D01*
G01*
%TO.C,R8*%
X128971380Y-106655225D02*
G75*
G02*
X127200000Y-106546728I-971380J-1344775D01*
G01*
%TO.C,R7*%
X126028620Y-115344775D02*
G75*
G02*
X127800000Y-115453272I971380J1344775D01*
G01*
%TO.C,R6*%
X126028620Y-51344775D02*
G75*
G02*
X127800000Y-51453272I971380J1344775D01*
G01*
%TO.C,R5*%
X109344775Y-73971380D02*
G75*
G02*
X109453272Y-72200000I-1344775J971380D01*
G01*
%TO.C,R4*%
X118344775Y-74971380D02*
G75*
G02*
X118453272Y-73200000I-1344775J971380D01*
G01*
%TO.C,R3*%
X126528620Y-75344775D02*
G75*
G02*
X128300000Y-75453272I971380J1344775D01*
G01*
%TO.C,R2*%
X104028620Y-54344775D02*
G75*
G02*
X105800000Y-54453272I971380J1344775D01*
G01*
%TO.C,R1*%
X113344775Y-53971380D02*
G75*
G02*
X113453272Y-52200000I-1344775J971380D01*
G01*
%TO.C,D13*%
X102880000Y-109310000D02*
X105120000Y-109310000D01*
X105120000Y-109310000D02*
X105120000Y-105070000D01*
X105120000Y-105070000D02*
X102880000Y-105070000D01*
X102880000Y-105070000D02*
X102880000Y-109310000D01*
X104000000Y-109960000D02*
X104000000Y-109310000D01*
X104000000Y-104420000D02*
X104000000Y-105070000D01*
X102880000Y-108590000D02*
X105120000Y-108590000D01*
X102880000Y-108470000D02*
X105120000Y-108470000D01*
X102880000Y-108710000D02*
X105120000Y-108710000D01*
%TO.C,D12*%
X116880000Y-125310000D02*
X119120000Y-125310000D01*
X119120000Y-125310000D02*
X119120000Y-121070000D01*
X119120000Y-121070000D02*
X116880000Y-121070000D01*
X116880000Y-121070000D02*
X116880000Y-125310000D01*
X118000000Y-125960000D02*
X118000000Y-125310000D01*
X118000000Y-120420000D02*
X118000000Y-121070000D01*
X116880000Y-124590000D02*
X119120000Y-124590000D01*
X116880000Y-124470000D02*
X119120000Y-124470000D01*
X116880000Y-124710000D02*
X119120000Y-124710000D01*
%TO.C,D10*%
X105120000Y-115690000D02*
X102880000Y-115690000D01*
X102880000Y-115690000D02*
X102880000Y-119930000D01*
X102880000Y-119930000D02*
X105120000Y-119930000D01*
X105120000Y-119930000D02*
X105120000Y-115690000D01*
X104000000Y-115040000D02*
X104000000Y-115690000D01*
X104000000Y-120580000D02*
X104000000Y-119930000D01*
X105120000Y-116410000D02*
X102880000Y-116410000D01*
X105120000Y-116530000D02*
X102880000Y-116530000D01*
X105120000Y-116290000D02*
X102880000Y-116290000D01*
%TO.C,D9*%
X113120000Y-120690000D02*
X110880000Y-120690000D01*
X110880000Y-120690000D02*
X110880000Y-124930000D01*
X110880000Y-124930000D02*
X113120000Y-124930000D01*
X113120000Y-124930000D02*
X113120000Y-120690000D01*
X112000000Y-120040000D02*
X112000000Y-120690000D01*
X112000000Y-125580000D02*
X112000000Y-124930000D01*
X113120000Y-121410000D02*
X110880000Y-121410000D01*
X113120000Y-121530000D02*
X110880000Y-121530000D01*
X113120000Y-121290000D02*
X110880000Y-121290000D01*
%TO.C,D7*%
X121880000Y-125310000D02*
X124120000Y-125310000D01*
X124120000Y-125310000D02*
X124120000Y-121070000D01*
X124120000Y-121070000D02*
X121880000Y-121070000D01*
X121880000Y-121070000D02*
X121880000Y-125310000D01*
X123000000Y-125960000D02*
X123000000Y-125310000D01*
X123000000Y-120420000D02*
X123000000Y-121070000D01*
X121880000Y-124590000D02*
X124120000Y-124590000D01*
X121880000Y-124470000D02*
X124120000Y-124470000D01*
X121880000Y-124710000D02*
X124120000Y-124710000D01*
%TO.C,D6*%
X128120000Y-121690000D02*
X125880000Y-121690000D01*
X125880000Y-121690000D02*
X125880000Y-125930000D01*
X125880000Y-125930000D02*
X128120000Y-125930000D01*
X128120000Y-125930000D02*
X128120000Y-121690000D01*
X127000000Y-121040000D02*
X127000000Y-121690000D01*
X127000000Y-126580000D02*
X127000000Y-125930000D01*
X128120000Y-122410000D02*
X125880000Y-122410000D01*
X128120000Y-122530000D02*
X125880000Y-122530000D01*
X128120000Y-122290000D02*
X125880000Y-122290000D01*
%TO.C,D4*%
X117880000Y-113310000D02*
X120120000Y-113310000D01*
X120120000Y-113310000D02*
X120120000Y-109070000D01*
X120120000Y-109070000D02*
X117880000Y-109070000D01*
X117880000Y-109070000D02*
X117880000Y-113310000D01*
X119000000Y-113960000D02*
X119000000Y-113310000D01*
X119000000Y-108420000D02*
X119000000Y-109070000D01*
X117880000Y-112590000D02*
X120120000Y-112590000D01*
X117880000Y-112470000D02*
X120120000Y-112470000D01*
X117880000Y-112710000D02*
X120120000Y-112710000D01*
%TO.C,D3*%
X124120000Y-106690000D02*
X121880000Y-106690000D01*
X121880000Y-106690000D02*
X121880000Y-110930000D01*
X121880000Y-110930000D02*
X124120000Y-110930000D01*
X124120000Y-110930000D02*
X124120000Y-106690000D01*
X123000000Y-106040000D02*
X123000000Y-106690000D01*
X123000000Y-111580000D02*
X123000000Y-110930000D01*
X124120000Y-107410000D02*
X121880000Y-107410000D01*
X124120000Y-107530000D02*
X121880000Y-107530000D01*
X124120000Y-107290000D02*
X121880000Y-107290000D01*
%TO.C,D2*%
X103380000Y-74560000D02*
X105620000Y-74560000D01*
X105620000Y-74560000D02*
X105620000Y-70320000D01*
X105620000Y-70320000D02*
X103380000Y-70320000D01*
X103380000Y-70320000D02*
X103380000Y-74560000D01*
X104500000Y-75210000D02*
X104500000Y-74560000D01*
X104500000Y-69670000D02*
X104500000Y-70320000D01*
X103380000Y-73840000D02*
X105620000Y-73840000D01*
X103380000Y-73720000D02*
X105620000Y-73720000D01*
X103380000Y-73960000D02*
X105620000Y-73960000D01*
%TO.C,D1*%
X129120000Y-57690000D02*
X126880000Y-57690000D01*
X126880000Y-57690000D02*
X126880000Y-61930000D01*
X126880000Y-61930000D02*
X129120000Y-61930000D01*
X129120000Y-61930000D02*
X129120000Y-57690000D01*
X128000000Y-57040000D02*
X128000000Y-57690000D01*
X128000000Y-62580000D02*
X128000000Y-61930000D01*
X129120000Y-58410000D02*
X126880000Y-58410000D01*
X129120000Y-58530000D02*
X126880000Y-58530000D01*
X129120000Y-58290000D02*
X126880000Y-58290000D01*
%TO.C,C4*%
X123630000Y-69370000D02*
X123630000Y-66130000D01*
X125870000Y-69370000D02*
X125870000Y-66130000D01*
X123630000Y-69370000D02*
X123695000Y-69370000D01*
X125805000Y-69370000D02*
X125870000Y-69370000D01*
X123630000Y-66130000D02*
X123695000Y-66130000D01*
X125805000Y-66130000D02*
X125870000Y-66130000D01*
%TO.C,C3*%
X129120000Y-66630000D02*
X129120000Y-69870000D01*
X126880000Y-66630000D02*
X126880000Y-69870000D01*
X129120000Y-66630000D02*
X129055000Y-66630000D01*
X126945000Y-66630000D02*
X126880000Y-66630000D01*
X129120000Y-69870000D02*
X129055000Y-69870000D01*
X126945000Y-69870000D02*
X126880000Y-69870000D01*
%TO.C,Conn2*%
D11*
X127476190Y-79027142D02*
X127428571Y-79074761D01*
X127285714Y-79122380D01*
X127190476Y-79122380D01*
X127047619Y-79074761D01*
X126952380Y-78979523D01*
X126904761Y-78884285D01*
X126857142Y-78693809D01*
X126857142Y-78550952D01*
X126904761Y-78360476D01*
X126952380Y-78265238D01*
X127047619Y-78170000D01*
X127190476Y-78122380D01*
X127285714Y-78122380D01*
X127428571Y-78170000D01*
X127476190Y-78217619D01*
X128047619Y-79122380D02*
X127952380Y-79074761D01*
X127904761Y-79027142D01*
X127857142Y-78931904D01*
X127857142Y-78646190D01*
X127904761Y-78550952D01*
X127952380Y-78503333D01*
X128047619Y-78455714D01*
X128190476Y-78455714D01*
X128285714Y-78503333D01*
X128333333Y-78550952D01*
X128380952Y-78646190D01*
X128380952Y-78931904D01*
X128333333Y-79027142D01*
X128285714Y-79074761D01*
X128190476Y-79122380D01*
X128047619Y-79122380D01*
X128809523Y-78455714D02*
X128809523Y-79122380D01*
X128809523Y-78550952D02*
X128857142Y-78503333D01*
X128952380Y-78455714D01*
X129095238Y-78455714D01*
X129190476Y-78503333D01*
X129238095Y-78598571D01*
X129238095Y-79122380D01*
X129714285Y-78455714D02*
X129714285Y-79122380D01*
X129714285Y-78550952D02*
X129761904Y-78503333D01*
X129857142Y-78455714D01*
X130000000Y-78455714D01*
X130095238Y-78503333D01*
X130142857Y-78598571D01*
X130142857Y-79122380D01*
X130571428Y-78217619D02*
X130619047Y-78170000D01*
X130714285Y-78122380D01*
X130952380Y-78122380D01*
X131047619Y-78170000D01*
X131095238Y-78217619D01*
X131142857Y-78312857D01*
X131142857Y-78408095D01*
X131095238Y-78550952D01*
X130523809Y-79122380D01*
X131142857Y-79122380D01*
%TO.C,Conn1*%
X101476190Y-79027142D02*
X101428571Y-79074761D01*
X101285714Y-79122380D01*
X101190476Y-79122380D01*
X101047619Y-79074761D01*
X100952380Y-78979523D01*
X100904761Y-78884285D01*
X100857142Y-78693809D01*
X100857142Y-78550952D01*
X100904761Y-78360476D01*
X100952380Y-78265238D01*
X101047619Y-78170000D01*
X101190476Y-78122380D01*
X101285714Y-78122380D01*
X101428571Y-78170000D01*
X101476190Y-78217619D01*
X102047619Y-79122380D02*
X101952380Y-79074761D01*
X101904761Y-79027142D01*
X101857142Y-78931904D01*
X101857142Y-78646190D01*
X101904761Y-78550952D01*
X101952380Y-78503333D01*
X102047619Y-78455714D01*
X102190476Y-78455714D01*
X102285714Y-78503333D01*
X102333333Y-78550952D01*
X102380952Y-78646190D01*
X102380952Y-78931904D01*
X102333333Y-79027142D01*
X102285714Y-79074761D01*
X102190476Y-79122380D01*
X102047619Y-79122380D01*
X102809523Y-78455714D02*
X102809523Y-79122380D01*
X102809523Y-78550952D02*
X102857142Y-78503333D01*
X102952380Y-78455714D01*
X103095238Y-78455714D01*
X103190476Y-78503333D01*
X103238095Y-78598571D01*
X103238095Y-79122380D01*
X103714285Y-78455714D02*
X103714285Y-79122380D01*
X103714285Y-78550952D02*
X103761904Y-78503333D01*
X103857142Y-78455714D01*
X104000000Y-78455714D01*
X104095238Y-78503333D01*
X104142857Y-78598571D01*
X104142857Y-79122380D01*
X105142857Y-79122380D02*
X104571428Y-79122380D01*
X104857142Y-79122380D02*
X104857142Y-78122380D01*
X104761904Y-78265238D01*
X104666666Y-78360476D01*
X104571428Y-78408095D01*
%TO.C,R10*%
X106732380Y-105372857D02*
X106256190Y-105706190D01*
X106732380Y-105944285D02*
X105732380Y-105944285D01*
X105732380Y-105563333D01*
X105780000Y-105468095D01*
X105827619Y-105420476D01*
X105922857Y-105372857D01*
X106065714Y-105372857D01*
X106160952Y-105420476D01*
X106208571Y-105468095D01*
X106256190Y-105563333D01*
X106256190Y-105944285D01*
X106732380Y-104420476D02*
X106732380Y-104991904D01*
X106732380Y-104706190D02*
X105732380Y-104706190D01*
X105875238Y-104801428D01*
X105970476Y-104896666D01*
X106018095Y-104991904D01*
X105732380Y-103801428D02*
X105732380Y-103706190D01*
X105780000Y-103610952D01*
X105827619Y-103563333D01*
X105922857Y-103515714D01*
X106113333Y-103468095D01*
X106351428Y-103468095D01*
X106541904Y-103515714D01*
X106637142Y-103563333D01*
X106684761Y-103610952D01*
X106732380Y-103706190D01*
X106732380Y-103801428D01*
X106684761Y-103896666D01*
X106637142Y-103944285D01*
X106541904Y-103991904D01*
X106351428Y-104039523D01*
X106113333Y-104039523D01*
X105922857Y-103991904D01*
X105827619Y-103944285D01*
X105780000Y-103896666D01*
X105732380Y-103801428D01*
%TO.C,R9*%
X121103333Y-43732380D02*
X120770000Y-43256190D01*
X120531904Y-43732380D02*
X120531904Y-42732380D01*
X120912857Y-42732380D01*
X121008095Y-42780000D01*
X121055714Y-42827619D01*
X121103333Y-42922857D01*
X121103333Y-43065714D01*
X121055714Y-43160952D01*
X121008095Y-43208571D01*
X120912857Y-43256190D01*
X120531904Y-43256190D01*
X121579523Y-43732380D02*
X121770000Y-43732380D01*
X121865238Y-43684761D01*
X121912857Y-43637142D01*
X122008095Y-43494285D01*
X122055714Y-43303809D01*
X122055714Y-42922857D01*
X122008095Y-42827619D01*
X121960476Y-42780000D01*
X121865238Y-42732380D01*
X121674761Y-42732380D01*
X121579523Y-42780000D01*
X121531904Y-42827619D01*
X121484285Y-42922857D01*
X121484285Y-43160952D01*
X121531904Y-43256190D01*
X121579523Y-43303809D01*
X121674761Y-43351428D01*
X121865238Y-43351428D01*
X121960476Y-43303809D01*
X122008095Y-43256190D01*
X122055714Y-43160952D01*
%TO.C,R8*%
X127833333Y-111452380D02*
X127500000Y-110976190D01*
X127261904Y-111452380D02*
X127261904Y-110452380D01*
X127642857Y-110452380D01*
X127738095Y-110500000D01*
X127785714Y-110547619D01*
X127833333Y-110642857D01*
X127833333Y-110785714D01*
X127785714Y-110880952D01*
X127738095Y-110928571D01*
X127642857Y-110976190D01*
X127261904Y-110976190D01*
X128404761Y-110880952D02*
X128309523Y-110833333D01*
X128261904Y-110785714D01*
X128214285Y-110690476D01*
X128214285Y-110642857D01*
X128261904Y-110547619D01*
X128309523Y-110500000D01*
X128404761Y-110452380D01*
X128595238Y-110452380D01*
X128690476Y-110500000D01*
X128738095Y-110547619D01*
X128785714Y-110642857D01*
X128785714Y-110690476D01*
X128738095Y-110785714D01*
X128690476Y-110833333D01*
X128595238Y-110880952D01*
X128404761Y-110880952D01*
X128309523Y-110928571D01*
X128261904Y-110976190D01*
X128214285Y-111071428D01*
X128214285Y-111261904D01*
X128261904Y-111357142D01*
X128309523Y-111404761D01*
X128404761Y-111452380D01*
X128595238Y-111452380D01*
X128690476Y-111404761D01*
X128738095Y-111357142D01*
X128785714Y-111261904D01*
X128785714Y-111071428D01*
X128738095Y-110976190D01*
X128690476Y-110928571D01*
X128595238Y-110880952D01*
%TO.C,R7*%
X130172380Y-115436666D02*
X129696190Y-115770000D01*
X130172380Y-116008095D02*
X129172380Y-116008095D01*
X129172380Y-115627142D01*
X129220000Y-115531904D01*
X129267619Y-115484285D01*
X129362857Y-115436666D01*
X129505714Y-115436666D01*
X129600952Y-115484285D01*
X129648571Y-115531904D01*
X129696190Y-115627142D01*
X129696190Y-116008095D01*
X129172380Y-115103333D02*
X129172380Y-114436666D01*
X130172380Y-114865238D01*
%TO.C,R6*%
X130172380Y-51436666D02*
X129696190Y-51770000D01*
X130172380Y-52008095D02*
X129172380Y-52008095D01*
X129172380Y-51627142D01*
X129220000Y-51531904D01*
X129267619Y-51484285D01*
X129362857Y-51436666D01*
X129505714Y-51436666D01*
X129600952Y-51484285D01*
X129648571Y-51531904D01*
X129696190Y-51627142D01*
X129696190Y-52008095D01*
X129172380Y-50579523D02*
X129172380Y-50770000D01*
X129220000Y-50865238D01*
X129267619Y-50912857D01*
X129410476Y-51008095D01*
X129600952Y-51055714D01*
X129981904Y-51055714D01*
X130077142Y-51008095D01*
X130124761Y-50960476D01*
X130172380Y-50865238D01*
X130172380Y-50674761D01*
X130124761Y-50579523D01*
X130077142Y-50531904D01*
X129981904Y-50484285D01*
X129743809Y-50484285D01*
X129648571Y-50531904D01*
X129600952Y-50579523D01*
X129553333Y-50674761D01*
X129553333Y-50865238D01*
X129600952Y-50960476D01*
X129648571Y-51008095D01*
X129743809Y-51055714D01*
%TO.C,R5*%
X109103333Y-70732380D02*
X108770000Y-70256190D01*
X108531904Y-70732380D02*
X108531904Y-69732380D01*
X108912857Y-69732380D01*
X109008095Y-69780000D01*
X109055714Y-69827619D01*
X109103333Y-69922857D01*
X109103333Y-70065714D01*
X109055714Y-70160952D01*
X109008095Y-70208571D01*
X108912857Y-70256190D01*
X108531904Y-70256190D01*
X110008095Y-69732380D02*
X109531904Y-69732380D01*
X109484285Y-70208571D01*
X109531904Y-70160952D01*
X109627142Y-70113333D01*
X109865238Y-70113333D01*
X109960476Y-70160952D01*
X110008095Y-70208571D01*
X110055714Y-70303809D01*
X110055714Y-70541904D01*
X110008095Y-70637142D01*
X109960476Y-70684761D01*
X109865238Y-70732380D01*
X109627142Y-70732380D01*
X109531904Y-70684761D01*
X109484285Y-70637142D01*
%TO.C,R4*%
X118103333Y-71732380D02*
X117770000Y-71256190D01*
X117531904Y-71732380D02*
X117531904Y-70732380D01*
X117912857Y-70732380D01*
X118008095Y-70780000D01*
X118055714Y-70827619D01*
X118103333Y-70922857D01*
X118103333Y-71065714D01*
X118055714Y-71160952D01*
X118008095Y-71208571D01*
X117912857Y-71256190D01*
X117531904Y-71256190D01*
X118960476Y-71065714D02*
X118960476Y-71732380D01*
X118722380Y-70684761D02*
X118484285Y-71399047D01*
X119103333Y-71399047D01*
%TO.C,R3*%
X130672380Y-75436666D02*
X130196190Y-75770000D01*
X130672380Y-76008095D02*
X129672380Y-76008095D01*
X129672380Y-75627142D01*
X129720000Y-75531904D01*
X129767619Y-75484285D01*
X129862857Y-75436666D01*
X130005714Y-75436666D01*
X130100952Y-75484285D01*
X130148571Y-75531904D01*
X130196190Y-75627142D01*
X130196190Y-76008095D01*
X129672380Y-75103333D02*
X129672380Y-74484285D01*
X130053333Y-74817619D01*
X130053333Y-74674761D01*
X130100952Y-74579523D01*
X130148571Y-74531904D01*
X130243809Y-74484285D01*
X130481904Y-74484285D01*
X130577142Y-74531904D01*
X130624761Y-74579523D01*
X130672380Y-74674761D01*
X130672380Y-74960476D01*
X130624761Y-75055714D01*
X130577142Y-75103333D01*
%TO.C,R2*%
X108172380Y-54436666D02*
X107696190Y-54770000D01*
X108172380Y-55008095D02*
X107172380Y-55008095D01*
X107172380Y-54627142D01*
X107220000Y-54531904D01*
X107267619Y-54484285D01*
X107362857Y-54436666D01*
X107505714Y-54436666D01*
X107600952Y-54484285D01*
X107648571Y-54531904D01*
X107696190Y-54627142D01*
X107696190Y-55008095D01*
X107267619Y-54055714D02*
X107220000Y-54008095D01*
X107172380Y-53912857D01*
X107172380Y-53674761D01*
X107220000Y-53579523D01*
X107267619Y-53531904D01*
X107362857Y-53484285D01*
X107458095Y-53484285D01*
X107600952Y-53531904D01*
X108172380Y-54103333D01*
X108172380Y-53484285D01*
%TO.C,R1*%
X113103333Y-50732380D02*
X112770000Y-50256190D01*
X112531904Y-50732380D02*
X112531904Y-49732380D01*
X112912857Y-49732380D01*
X113008095Y-49780000D01*
X113055714Y-49827619D01*
X113103333Y-49922857D01*
X113103333Y-50065714D01*
X113055714Y-50160952D01*
X113008095Y-50208571D01*
X112912857Y-50256190D01*
X112531904Y-50256190D01*
X114055714Y-50732380D02*
X113484285Y-50732380D01*
X113770000Y-50732380D02*
X113770000Y-49732380D01*
X113674761Y-49875238D01*
X113579523Y-49970476D01*
X113484285Y-50018095D01*
%TO.C,D13*%
X102332380Y-108404285D02*
X101332380Y-108404285D01*
X101332380Y-108166190D01*
X101380000Y-108023333D01*
X101475238Y-107928095D01*
X101570476Y-107880476D01*
X101760952Y-107832857D01*
X101903809Y-107832857D01*
X102094285Y-107880476D01*
X102189523Y-107928095D01*
X102284761Y-108023333D01*
X102332380Y-108166190D01*
X102332380Y-108404285D01*
X102332380Y-106880476D02*
X102332380Y-107451904D01*
X102332380Y-107166190D02*
X101332380Y-107166190D01*
X101475238Y-107261428D01*
X101570476Y-107356666D01*
X101618095Y-107451904D01*
X101332380Y-106547142D02*
X101332380Y-105928095D01*
X101713333Y-106261428D01*
X101713333Y-106118571D01*
X101760952Y-106023333D01*
X101808571Y-105975714D01*
X101903809Y-105928095D01*
X102141904Y-105928095D01*
X102237142Y-105975714D01*
X102284761Y-106023333D01*
X102332380Y-106118571D01*
X102332380Y-106404285D01*
X102284761Y-106499523D01*
X102237142Y-106547142D01*
X102652380Y-111261904D02*
X101652380Y-111261904D01*
X102652380Y-110690476D02*
X102080952Y-111119047D01*
X101652380Y-110690476D02*
X102223809Y-111261904D01*
%TO.C,D12*%
X116332380Y-124404285D02*
X115332380Y-124404285D01*
X115332380Y-124166190D01*
X115380000Y-124023333D01*
X115475238Y-123928095D01*
X115570476Y-123880476D01*
X115760952Y-123832857D01*
X115903809Y-123832857D01*
X116094285Y-123880476D01*
X116189523Y-123928095D01*
X116284761Y-124023333D01*
X116332380Y-124166190D01*
X116332380Y-124404285D01*
X116332380Y-122880476D02*
X116332380Y-123451904D01*
X116332380Y-123166190D02*
X115332380Y-123166190D01*
X115475238Y-123261428D01*
X115570476Y-123356666D01*
X115618095Y-123451904D01*
X115427619Y-122499523D02*
X115380000Y-122451904D01*
X115332380Y-122356666D01*
X115332380Y-122118571D01*
X115380000Y-122023333D01*
X115427619Y-121975714D01*
X115522857Y-121928095D01*
X115618095Y-121928095D01*
X115760952Y-121975714D01*
X116332380Y-122547142D01*
X116332380Y-121928095D01*
X116652380Y-127261904D02*
X115652380Y-127261904D01*
X116652380Y-126690476D02*
X116080952Y-127119047D01*
X115652380Y-126690476D02*
X116223809Y-127261904D01*
%TO.C,D10*%
X106572380Y-119024285D02*
X105572380Y-119024285D01*
X105572380Y-118786190D01*
X105620000Y-118643333D01*
X105715238Y-118548095D01*
X105810476Y-118500476D01*
X106000952Y-118452857D01*
X106143809Y-118452857D01*
X106334285Y-118500476D01*
X106429523Y-118548095D01*
X106524761Y-118643333D01*
X106572380Y-118786190D01*
X106572380Y-119024285D01*
X106572380Y-117500476D02*
X106572380Y-118071904D01*
X106572380Y-117786190D02*
X105572380Y-117786190D01*
X105715238Y-117881428D01*
X105810476Y-117976666D01*
X105858095Y-118071904D01*
X105572380Y-116881428D02*
X105572380Y-116786190D01*
X105620000Y-116690952D01*
X105667619Y-116643333D01*
X105762857Y-116595714D01*
X105953333Y-116548095D01*
X106191428Y-116548095D01*
X106381904Y-116595714D01*
X106477142Y-116643333D01*
X106524761Y-116690952D01*
X106572380Y-116786190D01*
X106572380Y-116881428D01*
X106524761Y-116976666D01*
X106477142Y-117024285D01*
X106381904Y-117071904D01*
X106191428Y-117119523D01*
X105953333Y-117119523D01*
X105762857Y-117071904D01*
X105667619Y-117024285D01*
X105620000Y-116976666D01*
X105572380Y-116881428D01*
X106252380Y-114261904D02*
X105252380Y-114261904D01*
X106252380Y-113690476D02*
X105680952Y-114119047D01*
X105252380Y-113690476D02*
X105823809Y-114261904D01*
%TO.C,D9*%
X114572380Y-123548095D02*
X113572380Y-123548095D01*
X113572380Y-123310000D01*
X113620000Y-123167142D01*
X113715238Y-123071904D01*
X113810476Y-123024285D01*
X114000952Y-122976666D01*
X114143809Y-122976666D01*
X114334285Y-123024285D01*
X114429523Y-123071904D01*
X114524761Y-123167142D01*
X114572380Y-123310000D01*
X114572380Y-123548095D01*
X114572380Y-122500476D02*
X114572380Y-122310000D01*
X114524761Y-122214761D01*
X114477142Y-122167142D01*
X114334285Y-122071904D01*
X114143809Y-122024285D01*
X113762857Y-122024285D01*
X113667619Y-122071904D01*
X113620000Y-122119523D01*
X113572380Y-122214761D01*
X113572380Y-122405238D01*
X113620000Y-122500476D01*
X113667619Y-122548095D01*
X113762857Y-122595714D01*
X114000952Y-122595714D01*
X114096190Y-122548095D01*
X114143809Y-122500476D01*
X114191428Y-122405238D01*
X114191428Y-122214761D01*
X114143809Y-122119523D01*
X114096190Y-122071904D01*
X114000952Y-122024285D01*
X114252380Y-119261904D02*
X113252380Y-119261904D01*
X114252380Y-118690476D02*
X113680952Y-119119047D01*
X113252380Y-118690476D02*
X113823809Y-119261904D01*
%TO.C,D7*%
X121332380Y-123928095D02*
X120332380Y-123928095D01*
X120332380Y-123690000D01*
X120380000Y-123547142D01*
X120475238Y-123451904D01*
X120570476Y-123404285D01*
X120760952Y-123356666D01*
X120903809Y-123356666D01*
X121094285Y-123404285D01*
X121189523Y-123451904D01*
X121284761Y-123547142D01*
X121332380Y-123690000D01*
X121332380Y-123928095D01*
X120332380Y-123023333D02*
X120332380Y-122356666D01*
X121332380Y-122785238D01*
X121652380Y-127261904D02*
X120652380Y-127261904D01*
X121652380Y-126690476D02*
X121080952Y-127119047D01*
X120652380Y-126690476D02*
X121223809Y-127261904D01*
%TO.C,D6*%
X129572380Y-124548095D02*
X128572380Y-124548095D01*
X128572380Y-124310000D01*
X128620000Y-124167142D01*
X128715238Y-124071904D01*
X128810476Y-124024285D01*
X129000952Y-123976666D01*
X129143809Y-123976666D01*
X129334285Y-124024285D01*
X129429523Y-124071904D01*
X129524761Y-124167142D01*
X129572380Y-124310000D01*
X129572380Y-124548095D01*
X128572380Y-123119523D02*
X128572380Y-123310000D01*
X128620000Y-123405238D01*
X128667619Y-123452857D01*
X128810476Y-123548095D01*
X129000952Y-123595714D01*
X129381904Y-123595714D01*
X129477142Y-123548095D01*
X129524761Y-123500476D01*
X129572380Y-123405238D01*
X129572380Y-123214761D01*
X129524761Y-123119523D01*
X129477142Y-123071904D01*
X129381904Y-123024285D01*
X129143809Y-123024285D01*
X129048571Y-123071904D01*
X129000952Y-123119523D01*
X128953333Y-123214761D01*
X128953333Y-123405238D01*
X129000952Y-123500476D01*
X129048571Y-123548095D01*
X129143809Y-123595714D01*
X129252380Y-120261904D02*
X128252380Y-120261904D01*
X129252380Y-119690476D02*
X128680952Y-120119047D01*
X128252380Y-119690476D02*
X128823809Y-120261904D01*
%TO.C,D4*%
X117332380Y-111928095D02*
X116332380Y-111928095D01*
X116332380Y-111690000D01*
X116380000Y-111547142D01*
X116475238Y-111451904D01*
X116570476Y-111404285D01*
X116760952Y-111356666D01*
X116903809Y-111356666D01*
X117094285Y-111404285D01*
X117189523Y-111451904D01*
X117284761Y-111547142D01*
X117332380Y-111690000D01*
X117332380Y-111928095D01*
X116665714Y-110499523D02*
X117332380Y-110499523D01*
X116284761Y-110737619D02*
X116999047Y-110975714D01*
X116999047Y-110356666D01*
X117652380Y-115261904D02*
X116652380Y-115261904D01*
X117652380Y-114690476D02*
X117080952Y-115119047D01*
X116652380Y-114690476D02*
X117223809Y-115261904D01*
%TO.C,D3*%
X125572380Y-109548095D02*
X124572380Y-109548095D01*
X124572380Y-109310000D01*
X124620000Y-109167142D01*
X124715238Y-109071904D01*
X124810476Y-109024285D01*
X125000952Y-108976666D01*
X125143809Y-108976666D01*
X125334285Y-109024285D01*
X125429523Y-109071904D01*
X125524761Y-109167142D01*
X125572380Y-109310000D01*
X125572380Y-109548095D01*
X124572380Y-108643333D02*
X124572380Y-108024285D01*
X124953333Y-108357619D01*
X124953333Y-108214761D01*
X125000952Y-108119523D01*
X125048571Y-108071904D01*
X125143809Y-108024285D01*
X125381904Y-108024285D01*
X125477142Y-108071904D01*
X125524761Y-108119523D01*
X125572380Y-108214761D01*
X125572380Y-108500476D01*
X125524761Y-108595714D01*
X125477142Y-108643333D01*
X125252380Y-105261904D02*
X124252380Y-105261904D01*
X125252380Y-104690476D02*
X124680952Y-105119047D01*
X124252380Y-104690476D02*
X124823809Y-105261904D01*
%TO.C,D2*%
X102832380Y-73178095D02*
X101832380Y-73178095D01*
X101832380Y-72940000D01*
X101880000Y-72797142D01*
X101975238Y-72701904D01*
X102070476Y-72654285D01*
X102260952Y-72606666D01*
X102403809Y-72606666D01*
X102594285Y-72654285D01*
X102689523Y-72701904D01*
X102784761Y-72797142D01*
X102832380Y-72940000D01*
X102832380Y-73178095D01*
X101927619Y-72225714D02*
X101880000Y-72178095D01*
X101832380Y-72082857D01*
X101832380Y-71844761D01*
X101880000Y-71749523D01*
X101927619Y-71701904D01*
X102022857Y-71654285D01*
X102118095Y-71654285D01*
X102260952Y-71701904D01*
X102832380Y-72273333D01*
X102832380Y-71654285D01*
X103152380Y-76511904D02*
X102152380Y-76511904D01*
X103152380Y-75940476D02*
X102580952Y-76369047D01*
X102152380Y-75940476D02*
X102723809Y-76511904D01*
%TO.C,D1*%
X130572380Y-60548095D02*
X129572380Y-60548095D01*
X129572380Y-60310000D01*
X129620000Y-60167142D01*
X129715238Y-60071904D01*
X129810476Y-60024285D01*
X130000952Y-59976666D01*
X130143809Y-59976666D01*
X130334285Y-60024285D01*
X130429523Y-60071904D01*
X130524761Y-60167142D01*
X130572380Y-60310000D01*
X130572380Y-60548095D01*
X130572380Y-59024285D02*
X130572380Y-59595714D01*
X130572380Y-59310000D02*
X129572380Y-59310000D01*
X129715238Y-59405238D01*
X129810476Y-59500476D01*
X129858095Y-59595714D01*
X130252380Y-56261904D02*
X129252380Y-56261904D01*
X130252380Y-55690476D02*
X129680952Y-56119047D01*
X129252380Y-55690476D02*
X129823809Y-56261904D01*
%TO.C,C4*%
X122857142Y-67916666D02*
X122904761Y-67964285D01*
X122952380Y-68107142D01*
X122952380Y-68202380D01*
X122904761Y-68345238D01*
X122809523Y-68440476D01*
X122714285Y-68488095D01*
X122523809Y-68535714D01*
X122380952Y-68535714D01*
X122190476Y-68488095D01*
X122095238Y-68440476D01*
X122000000Y-68345238D01*
X121952380Y-68202380D01*
X121952380Y-68107142D01*
X122000000Y-67964285D01*
X122047619Y-67916666D01*
X122285714Y-67059523D02*
X122952380Y-67059523D01*
X121904761Y-67297619D02*
X122619047Y-67535714D01*
X122619047Y-66916666D01*
%TO.C,C3*%
X130607142Y-68416666D02*
X130654761Y-68464285D01*
X130702380Y-68607142D01*
X130702380Y-68702380D01*
X130654761Y-68845238D01*
X130559523Y-68940476D01*
X130464285Y-68988095D01*
X130273809Y-69035714D01*
X130130952Y-69035714D01*
X129940476Y-68988095D01*
X129845238Y-68940476D01*
X129750000Y-68845238D01*
X129702380Y-68702380D01*
X129702380Y-68607142D01*
X129750000Y-68464285D01*
X129797619Y-68416666D01*
X129702380Y-68083333D02*
X129702380Y-67464285D01*
X130083333Y-67797619D01*
X130083333Y-67654761D01*
X130130952Y-67559523D01*
X130178571Y-67511904D01*
X130273809Y-67464285D01*
X130511904Y-67464285D01*
X130607142Y-67511904D01*
X130654761Y-67559523D01*
X130702380Y-67654761D01*
X130702380Y-67940476D01*
X130654761Y-68035714D01*
X130607142Y-68083333D01*
%TD*%
M02*
