%TF.GenerationSoftware,KiCad,Pcbnew,(5.1.6)-1*%
%TF.CreationDate,2021-08-09T18:08:13+02:00*%
%TF.ProjectId,4ch_Sampler_comtrol,3463685f-5361-46d7-906c-65725f636f6d,rev?*%
%TF.SameCoordinates,Original*%
%TF.FileFunction,Legend,Top*%
%TF.FilePolarity,Positive*%
%FSLAX46Y46*%
G04 Gerber Fmt 4.6, Leading zero omitted, Abs format (unit mm)*
G04 Created by KiCad (PCBNEW (5.1.6)-1) date 2021-08-09 18:08:13*
%MOMM*%
%LPD*%
G01*
G04 APERTURE LIST*
%ADD10C,0.120000*%
%ADD11C,0.150000*%
G04 APERTURE END LIST*
D10*
%TO.C,TOUCH3*%
X148800000Y-86200000D02*
X148800000Y-83800000D01*
X151200000Y-86200000D02*
X148800000Y-86200000D01*
X151200000Y-83800000D02*
X151200000Y-86200000D01*
X148800000Y-83800000D02*
X151200000Y-83800000D01*
%TO.C,TOUCH2*%
X153800000Y-78300000D02*
X156200000Y-78300000D01*
X156200000Y-78300000D02*
X156200000Y-80700000D01*
X156200000Y-80700000D02*
X153800000Y-80700000D01*
X153800000Y-80700000D02*
X153800000Y-78300000D01*
%TO.C,TOUCH1*%
X144300000Y-80700000D02*
X144300000Y-78300000D01*
X146700000Y-80700000D02*
X144300000Y-80700000D01*
X146700000Y-78300000D02*
X146700000Y-80700000D01*
X144300000Y-78300000D02*
X146700000Y-78300000D01*
%TO.C,SW1*%
X153500000Y-98500000D02*
X153500000Y-97000000D01*
X152250000Y-94500000D02*
X147750000Y-94500000D01*
X146500000Y-97000000D02*
X146500000Y-98500000D01*
X147750000Y-101000000D02*
X152250000Y-101000000D01*
%TO.C,J5*%
X153480000Y-139000000D02*
X163980000Y-139000000D01*
X153480000Y-130000000D02*
X163980000Y-130000000D01*
X163980000Y-130000000D02*
X163980000Y-134000000D01*
X163980000Y-135000000D02*
X163980000Y-139000000D01*
X153480000Y-130000000D02*
X153480000Y-134150000D01*
X153480000Y-134850000D02*
X153480000Y-139000000D01*
X159780000Y-134500000D02*
G75*
G03*
X159780000Y-134500000I-1800000J0D01*
G01*
X150500000Y-135560000D02*
X151300000Y-135560000D01*
X150500000Y-135560000D02*
X150500000Y-134700000D01*
%TO.C,J4*%
X153480000Y-125000000D02*
X163980000Y-125000000D01*
X153480000Y-116000000D02*
X163980000Y-116000000D01*
X163980000Y-116000000D02*
X163980000Y-120000000D01*
X163980000Y-121000000D02*
X163980000Y-125000000D01*
X153480000Y-116000000D02*
X153480000Y-120150000D01*
X153480000Y-120850000D02*
X153480000Y-125000000D01*
X159780000Y-120500000D02*
G75*
G03*
X159780000Y-120500000I-1800000J0D01*
G01*
X150500000Y-121560000D02*
X151300000Y-121560000D01*
X150500000Y-121560000D02*
X150500000Y-120700000D01*
%TO.C,J3*%
X146520000Y-116000000D02*
X136020000Y-116000000D01*
X146520000Y-125000000D02*
X136020000Y-125000000D01*
X136020000Y-125000000D02*
X136020000Y-121000000D01*
X136020000Y-120000000D02*
X136020000Y-116000000D01*
X146520000Y-125000000D02*
X146520000Y-120850000D01*
X146520000Y-120150000D02*
X146520000Y-116000000D01*
X143820000Y-120500000D02*
G75*
G03*
X143820000Y-120500000I-1800000J0D01*
G01*
X149500000Y-119440000D02*
X148700000Y-119440000D01*
X149500000Y-119440000D02*
X149500000Y-120300000D01*
%TO.C,J2*%
X153480000Y-114750000D02*
X163980000Y-114750000D01*
X153480000Y-105750000D02*
X163980000Y-105750000D01*
X163980000Y-105750000D02*
X163980000Y-109750000D01*
X163980000Y-110750000D02*
X163980000Y-114750000D01*
X153480000Y-105750000D02*
X153480000Y-109900000D01*
X153480000Y-110600000D02*
X153480000Y-114750000D01*
X159780000Y-110250000D02*
G75*
G03*
X159780000Y-110250000I-1800000J0D01*
G01*
X150500000Y-111310000D02*
X151300000Y-111310000D01*
X150500000Y-111310000D02*
X150500000Y-110450000D01*
%TO.C,J1*%
X146520000Y-105750000D02*
X136020000Y-105750000D01*
X146520000Y-114750000D02*
X136020000Y-114750000D01*
X136020000Y-114750000D02*
X136020000Y-110750000D01*
X136020000Y-109750000D02*
X136020000Y-105750000D01*
X146520000Y-114750000D02*
X146520000Y-110600000D01*
X146520000Y-109900000D02*
X146520000Y-105750000D01*
X143820000Y-110250000D02*
G75*
G03*
X143820000Y-110250000I-1800000J0D01*
G01*
X149500000Y-109190000D02*
X148700000Y-109190000D01*
X149500000Y-109190000D02*
X149500000Y-110050000D01*
%TO.C,D14*%
X160460000Y-70014000D02*
X160460000Y-70170000D01*
X160460000Y-72330000D02*
X160460000Y-72486000D01*
X163061130Y-72329837D02*
G75*
G02*
X160979039Y-72330000I-1041130J1079837D01*
G01*
X163061130Y-70170163D02*
G75*
G03*
X160979039Y-70170000I-1041130J-1079837D01*
G01*
X163692335Y-72328608D02*
G75*
G02*
X160460000Y-72485516I-1672335J1078608D01*
G01*
X163692335Y-70171392D02*
G75*
G03*
X160460000Y-70014484I-1672335J-1078608D01*
G01*
%TO.C,D11*%
X152460000Y-70014000D02*
X152460000Y-70170000D01*
X152460000Y-72330000D02*
X152460000Y-72486000D01*
X155061130Y-72329837D02*
G75*
G02*
X152979039Y-72330000I-1041130J1079837D01*
G01*
X155061130Y-70170163D02*
G75*
G03*
X152979039Y-70170000I-1041130J-1079837D01*
G01*
X155692335Y-72328608D02*
G75*
G02*
X152460000Y-72485516I-1672335J1078608D01*
G01*
X155692335Y-70171392D02*
G75*
G03*
X152460000Y-70014484I-1672335J-1078608D01*
G01*
%TO.C,D8*%
X144460000Y-70014000D02*
X144460000Y-70170000D01*
X144460000Y-72330000D02*
X144460000Y-72486000D01*
X147061130Y-72329837D02*
G75*
G02*
X144979039Y-72330000I-1041130J1079837D01*
G01*
X147061130Y-70170163D02*
G75*
G03*
X144979039Y-70170000I-1041130J-1079837D01*
G01*
X147692335Y-72328608D02*
G75*
G02*
X144460000Y-72485516I-1672335J1078608D01*
G01*
X147692335Y-70171392D02*
G75*
G03*
X144460000Y-70014484I-1672335J-1078608D01*
G01*
%TO.C,D5*%
X136460000Y-70014000D02*
X136460000Y-70170000D01*
X136460000Y-72330000D02*
X136460000Y-72486000D01*
X139061130Y-72329837D02*
G75*
G02*
X136979039Y-72330000I-1041130J1079837D01*
G01*
X139061130Y-70170163D02*
G75*
G03*
X136979039Y-70170000I-1041130J-1079837D01*
G01*
X139692335Y-72328608D02*
G75*
G02*
X136460000Y-72485516I-1672335J1078608D01*
G01*
X139692335Y-70171392D02*
G75*
G03*
X136460000Y-70014484I-1672335J-1078608D01*
G01*
%TO.C,Brd1*%
X163212000Y-43983000D02*
X162958000Y-43995000D01*
X163212000Y-60620000D02*
X163212000Y-43983000D01*
X159872000Y-60595000D02*
X163212000Y-60620000D01*
X159872000Y-43995000D02*
X162958000Y-43995000D01*
X145051000Y-41189000D02*
X145051000Y-43602000D01*
X154830000Y-43602000D02*
X145051000Y-43602000D01*
X154830000Y-41189000D02*
X154830000Y-43602000D01*
X145051000Y-41189000D02*
X154830000Y-41189000D01*
X136772000Y-43995000D02*
X159872000Y-43995000D01*
X136772000Y-60595000D02*
X136772000Y-43995000D01*
X159872000Y-60595000D02*
X136772000Y-60595000D01*
X136350000Y-68000000D02*
X136350000Y-40700000D01*
X163750000Y-68000000D02*
X136350000Y-68000000D01*
X163750000Y-40700000D02*
X163750000Y-68000000D01*
X136350000Y-40700000D02*
X163750000Y-40700000D01*
%TO.C,TOUCH3*%
D11*
X147166666Y-82454380D02*
X147738095Y-82454380D01*
X147452380Y-83454380D02*
X147452380Y-82454380D01*
X148261904Y-82454380D02*
X148452380Y-82454380D01*
X148547619Y-82502000D01*
X148642857Y-82597238D01*
X148690476Y-82787714D01*
X148690476Y-83121047D01*
X148642857Y-83311523D01*
X148547619Y-83406761D01*
X148452380Y-83454380D01*
X148261904Y-83454380D01*
X148166666Y-83406761D01*
X148071428Y-83311523D01*
X148023809Y-83121047D01*
X148023809Y-82787714D01*
X148071428Y-82597238D01*
X148166666Y-82502000D01*
X148261904Y-82454380D01*
X149119047Y-82454380D02*
X149119047Y-83263904D01*
X149166666Y-83359142D01*
X149214285Y-83406761D01*
X149309523Y-83454380D01*
X149500000Y-83454380D01*
X149595238Y-83406761D01*
X149642857Y-83359142D01*
X149690476Y-83263904D01*
X149690476Y-82454380D01*
X150738095Y-83359142D02*
X150690476Y-83406761D01*
X150547619Y-83454380D01*
X150452380Y-83454380D01*
X150309523Y-83406761D01*
X150214285Y-83311523D01*
X150166666Y-83216285D01*
X150119047Y-83025809D01*
X150119047Y-82882952D01*
X150166666Y-82692476D01*
X150214285Y-82597238D01*
X150309523Y-82502000D01*
X150452380Y-82454380D01*
X150547619Y-82454380D01*
X150690476Y-82502000D01*
X150738095Y-82549619D01*
X151166666Y-83454380D02*
X151166666Y-82454380D01*
X151166666Y-82930571D02*
X151738095Y-82930571D01*
X151738095Y-83454380D02*
X151738095Y-82454380D01*
X152119047Y-82454380D02*
X152738095Y-82454380D01*
X152404761Y-82835333D01*
X152547619Y-82835333D01*
X152642857Y-82882952D01*
X152690476Y-82930571D01*
X152738095Y-83025809D01*
X152738095Y-83263904D01*
X152690476Y-83359142D01*
X152642857Y-83406761D01*
X152547619Y-83454380D01*
X152261904Y-83454380D01*
X152166666Y-83406761D01*
X152119047Y-83359142D01*
%TO.C,TOUCH2*%
X152166666Y-76954380D02*
X152738095Y-76954380D01*
X152452380Y-77954380D02*
X152452380Y-76954380D01*
X153261904Y-76954380D02*
X153452380Y-76954380D01*
X153547619Y-77002000D01*
X153642857Y-77097238D01*
X153690476Y-77287714D01*
X153690476Y-77621047D01*
X153642857Y-77811523D01*
X153547619Y-77906761D01*
X153452380Y-77954380D01*
X153261904Y-77954380D01*
X153166666Y-77906761D01*
X153071428Y-77811523D01*
X153023809Y-77621047D01*
X153023809Y-77287714D01*
X153071428Y-77097238D01*
X153166666Y-77002000D01*
X153261904Y-76954380D01*
X154119047Y-76954380D02*
X154119047Y-77763904D01*
X154166666Y-77859142D01*
X154214285Y-77906761D01*
X154309523Y-77954380D01*
X154500000Y-77954380D01*
X154595238Y-77906761D01*
X154642857Y-77859142D01*
X154690476Y-77763904D01*
X154690476Y-76954380D01*
X155738095Y-77859142D02*
X155690476Y-77906761D01*
X155547619Y-77954380D01*
X155452380Y-77954380D01*
X155309523Y-77906761D01*
X155214285Y-77811523D01*
X155166666Y-77716285D01*
X155119047Y-77525809D01*
X155119047Y-77382952D01*
X155166666Y-77192476D01*
X155214285Y-77097238D01*
X155309523Y-77002000D01*
X155452380Y-76954380D01*
X155547619Y-76954380D01*
X155690476Y-77002000D01*
X155738095Y-77049619D01*
X156166666Y-77954380D02*
X156166666Y-76954380D01*
X156166666Y-77430571D02*
X156738095Y-77430571D01*
X156738095Y-77954380D02*
X156738095Y-76954380D01*
X157166666Y-77049619D02*
X157214285Y-77002000D01*
X157309523Y-76954380D01*
X157547619Y-76954380D01*
X157642857Y-77002000D01*
X157690476Y-77049619D01*
X157738095Y-77144857D01*
X157738095Y-77240095D01*
X157690476Y-77382952D01*
X157119047Y-77954380D01*
X157738095Y-77954380D01*
%TO.C,TOUCH1*%
X142666666Y-76954380D02*
X143238095Y-76954380D01*
X142952380Y-77954380D02*
X142952380Y-76954380D01*
X143761904Y-76954380D02*
X143952380Y-76954380D01*
X144047619Y-77002000D01*
X144142857Y-77097238D01*
X144190476Y-77287714D01*
X144190476Y-77621047D01*
X144142857Y-77811523D01*
X144047619Y-77906761D01*
X143952380Y-77954380D01*
X143761904Y-77954380D01*
X143666666Y-77906761D01*
X143571428Y-77811523D01*
X143523809Y-77621047D01*
X143523809Y-77287714D01*
X143571428Y-77097238D01*
X143666666Y-77002000D01*
X143761904Y-76954380D01*
X144619047Y-76954380D02*
X144619047Y-77763904D01*
X144666666Y-77859142D01*
X144714285Y-77906761D01*
X144809523Y-77954380D01*
X145000000Y-77954380D01*
X145095238Y-77906761D01*
X145142857Y-77859142D01*
X145190476Y-77763904D01*
X145190476Y-76954380D01*
X146238095Y-77859142D02*
X146190476Y-77906761D01*
X146047619Y-77954380D01*
X145952380Y-77954380D01*
X145809523Y-77906761D01*
X145714285Y-77811523D01*
X145666666Y-77716285D01*
X145619047Y-77525809D01*
X145619047Y-77382952D01*
X145666666Y-77192476D01*
X145714285Y-77097238D01*
X145809523Y-77002000D01*
X145952380Y-76954380D01*
X146047619Y-76954380D01*
X146190476Y-77002000D01*
X146238095Y-77049619D01*
X146666666Y-77954380D02*
X146666666Y-76954380D01*
X146666666Y-77430571D02*
X147238095Y-77430571D01*
X147238095Y-77954380D02*
X147238095Y-76954380D01*
X148238095Y-77954380D02*
X147666666Y-77954380D01*
X147952380Y-77954380D02*
X147952380Y-76954380D01*
X147857142Y-77097238D01*
X147761904Y-77192476D01*
X147666666Y-77240095D01*
%TO.C,SW1*%
X149226666Y-93824761D02*
X149369523Y-93872380D01*
X149607619Y-93872380D01*
X149702857Y-93824761D01*
X149750476Y-93777142D01*
X149798095Y-93681904D01*
X149798095Y-93586666D01*
X149750476Y-93491428D01*
X149702857Y-93443809D01*
X149607619Y-93396190D01*
X149417142Y-93348571D01*
X149321904Y-93300952D01*
X149274285Y-93253333D01*
X149226666Y-93158095D01*
X149226666Y-93062857D01*
X149274285Y-92967619D01*
X149321904Y-92920000D01*
X149417142Y-92872380D01*
X149655238Y-92872380D01*
X149798095Y-92920000D01*
X150131428Y-92872380D02*
X150369523Y-93872380D01*
X150560000Y-93158095D01*
X150750476Y-93872380D01*
X150988571Y-92872380D01*
X151893333Y-93872380D02*
X151321904Y-93872380D01*
X151607619Y-93872380D02*
X151607619Y-92872380D01*
X151512380Y-93015238D01*
X151417142Y-93110476D01*
X151321904Y-93158095D01*
%TO.C,J5*%
X152032380Y-138863333D02*
X152746666Y-138863333D01*
X152889523Y-138910952D01*
X152984761Y-139006190D01*
X153032380Y-139149047D01*
X153032380Y-139244285D01*
X152032380Y-137910952D02*
X152032380Y-138387142D01*
X152508571Y-138434761D01*
X152460952Y-138387142D01*
X152413333Y-138291904D01*
X152413333Y-138053809D01*
X152460952Y-137958571D01*
X152508571Y-137910952D01*
X152603809Y-137863333D01*
X152841904Y-137863333D01*
X152937142Y-137910952D01*
X152984761Y-137958571D01*
X153032380Y-138053809D01*
X153032380Y-138291904D01*
X152984761Y-138387142D01*
X152937142Y-138434761D01*
%TO.C,J4*%
X152032380Y-124863333D02*
X152746666Y-124863333D01*
X152889523Y-124910952D01*
X152984761Y-125006190D01*
X153032380Y-125149047D01*
X153032380Y-125244285D01*
X152365714Y-123958571D02*
X153032380Y-123958571D01*
X151984761Y-124196666D02*
X152699047Y-124434761D01*
X152699047Y-123815714D01*
%TO.C,J3*%
X146872380Y-116803333D02*
X147586666Y-116803333D01*
X147729523Y-116850952D01*
X147824761Y-116946190D01*
X147872380Y-117089047D01*
X147872380Y-117184285D01*
X146872380Y-116422380D02*
X146872380Y-115803333D01*
X147253333Y-116136666D01*
X147253333Y-115993809D01*
X147300952Y-115898571D01*
X147348571Y-115850952D01*
X147443809Y-115803333D01*
X147681904Y-115803333D01*
X147777142Y-115850952D01*
X147824761Y-115898571D01*
X147872380Y-115993809D01*
X147872380Y-116279523D01*
X147824761Y-116374761D01*
X147777142Y-116422380D01*
%TO.C,J2*%
X152032380Y-114613333D02*
X152746666Y-114613333D01*
X152889523Y-114660952D01*
X152984761Y-114756190D01*
X153032380Y-114899047D01*
X153032380Y-114994285D01*
X152127619Y-114184761D02*
X152080000Y-114137142D01*
X152032380Y-114041904D01*
X152032380Y-113803809D01*
X152080000Y-113708571D01*
X152127619Y-113660952D01*
X152222857Y-113613333D01*
X152318095Y-113613333D01*
X152460952Y-113660952D01*
X153032380Y-114232380D01*
X153032380Y-113613333D01*
%TO.C,J1*%
X146872380Y-106553333D02*
X147586666Y-106553333D01*
X147729523Y-106600952D01*
X147824761Y-106696190D01*
X147872380Y-106839047D01*
X147872380Y-106934285D01*
X147872380Y-105553333D02*
X147872380Y-106124761D01*
X147872380Y-105839047D02*
X146872380Y-105839047D01*
X147015238Y-105934285D01*
X147110476Y-106029523D01*
X147158095Y-106124761D01*
%TO.C,D14*%
X160805714Y-68742380D02*
X160805714Y-67742380D01*
X161043809Y-67742380D01*
X161186666Y-67790000D01*
X161281904Y-67885238D01*
X161329523Y-67980476D01*
X161377142Y-68170952D01*
X161377142Y-68313809D01*
X161329523Y-68504285D01*
X161281904Y-68599523D01*
X161186666Y-68694761D01*
X161043809Y-68742380D01*
X160805714Y-68742380D01*
X162329523Y-68742380D02*
X161758095Y-68742380D01*
X162043809Y-68742380D02*
X162043809Y-67742380D01*
X161948571Y-67885238D01*
X161853333Y-67980476D01*
X161758095Y-68028095D01*
X163186666Y-68075714D02*
X163186666Y-68742380D01*
X162948571Y-67694761D02*
X162710476Y-68409047D01*
X163329523Y-68409047D01*
%TO.C,D11*%
X152805714Y-68742380D02*
X152805714Y-67742380D01*
X153043809Y-67742380D01*
X153186666Y-67790000D01*
X153281904Y-67885238D01*
X153329523Y-67980476D01*
X153377142Y-68170952D01*
X153377142Y-68313809D01*
X153329523Y-68504285D01*
X153281904Y-68599523D01*
X153186666Y-68694761D01*
X153043809Y-68742380D01*
X152805714Y-68742380D01*
X154329523Y-68742380D02*
X153758095Y-68742380D01*
X154043809Y-68742380D02*
X154043809Y-67742380D01*
X153948571Y-67885238D01*
X153853333Y-67980476D01*
X153758095Y-68028095D01*
X155281904Y-68742380D02*
X154710476Y-68742380D01*
X154996190Y-68742380D02*
X154996190Y-67742380D01*
X154900952Y-67885238D01*
X154805714Y-67980476D01*
X154710476Y-68028095D01*
%TO.C,D8*%
X145281904Y-68742380D02*
X145281904Y-67742380D01*
X145520000Y-67742380D01*
X145662857Y-67790000D01*
X145758095Y-67885238D01*
X145805714Y-67980476D01*
X145853333Y-68170952D01*
X145853333Y-68313809D01*
X145805714Y-68504285D01*
X145758095Y-68599523D01*
X145662857Y-68694761D01*
X145520000Y-68742380D01*
X145281904Y-68742380D01*
X146424761Y-68170952D02*
X146329523Y-68123333D01*
X146281904Y-68075714D01*
X146234285Y-67980476D01*
X146234285Y-67932857D01*
X146281904Y-67837619D01*
X146329523Y-67790000D01*
X146424761Y-67742380D01*
X146615238Y-67742380D01*
X146710476Y-67790000D01*
X146758095Y-67837619D01*
X146805714Y-67932857D01*
X146805714Y-67980476D01*
X146758095Y-68075714D01*
X146710476Y-68123333D01*
X146615238Y-68170952D01*
X146424761Y-68170952D01*
X146329523Y-68218571D01*
X146281904Y-68266190D01*
X146234285Y-68361428D01*
X146234285Y-68551904D01*
X146281904Y-68647142D01*
X146329523Y-68694761D01*
X146424761Y-68742380D01*
X146615238Y-68742380D01*
X146710476Y-68694761D01*
X146758095Y-68647142D01*
X146805714Y-68551904D01*
X146805714Y-68361428D01*
X146758095Y-68266190D01*
X146710476Y-68218571D01*
X146615238Y-68170952D01*
%TO.C,D5*%
X137281904Y-68742380D02*
X137281904Y-67742380D01*
X137520000Y-67742380D01*
X137662857Y-67790000D01*
X137758095Y-67885238D01*
X137805714Y-67980476D01*
X137853333Y-68170952D01*
X137853333Y-68313809D01*
X137805714Y-68504285D01*
X137758095Y-68599523D01*
X137662857Y-68694761D01*
X137520000Y-68742380D01*
X137281904Y-68742380D01*
X138758095Y-67742380D02*
X138281904Y-67742380D01*
X138234285Y-68218571D01*
X138281904Y-68170952D01*
X138377142Y-68123333D01*
X138615238Y-68123333D01*
X138710476Y-68170952D01*
X138758095Y-68218571D01*
X138805714Y-68313809D01*
X138805714Y-68551904D01*
X138758095Y-68647142D01*
X138710476Y-68694761D01*
X138615238Y-68742380D01*
X138377142Y-68742380D01*
X138281904Y-68694761D01*
X138234285Y-68647142D01*
%TO.C,Brd1*%
X148583333Y-53182571D02*
X148726190Y-53230190D01*
X148773809Y-53277809D01*
X148821428Y-53373047D01*
X148821428Y-53515904D01*
X148773809Y-53611142D01*
X148726190Y-53658761D01*
X148630952Y-53706380D01*
X148250000Y-53706380D01*
X148250000Y-52706380D01*
X148583333Y-52706380D01*
X148678571Y-52754000D01*
X148726190Y-52801619D01*
X148773809Y-52896857D01*
X148773809Y-52992095D01*
X148726190Y-53087333D01*
X148678571Y-53134952D01*
X148583333Y-53182571D01*
X148250000Y-53182571D01*
X149250000Y-53706380D02*
X149250000Y-53039714D01*
X149250000Y-53230190D02*
X149297619Y-53134952D01*
X149345238Y-53087333D01*
X149440476Y-53039714D01*
X149535714Y-53039714D01*
X150297619Y-53706380D02*
X150297619Y-52706380D01*
X150297619Y-53658761D02*
X150202380Y-53706380D01*
X150011904Y-53706380D01*
X149916666Y-53658761D01*
X149869047Y-53611142D01*
X149821428Y-53515904D01*
X149821428Y-53230190D01*
X149869047Y-53134952D01*
X149916666Y-53087333D01*
X150011904Y-53039714D01*
X150202380Y-53039714D01*
X150297619Y-53087333D01*
X151297619Y-53706380D02*
X150726190Y-53706380D01*
X151011904Y-53706380D02*
X151011904Y-52706380D01*
X150916666Y-52849238D01*
X150821428Y-52944476D01*
X150726190Y-52992095D01*
%TD*%
M02*
