%TF.GenerationSoftware,KiCad,Pcbnew,(5.1.6)-1*%
%TF.CreationDate,2021-08-09T18:08:13+02:00*%
%TF.ProjectId,4ch_Sampler_comtrol,3463685f-5361-46d7-906c-65725f636f6d,rev?*%
%TF.SameCoordinates,Original*%
%TF.FileFunction,Copper,L2,Bot*%
%TF.FilePolarity,Positive*%
%FSLAX46Y46*%
G04 Gerber Fmt 4.6, Leading zero omitted, Abs format (unit mm)*
G04 Created by KiCad (PCBNEW (5.1.6)-1) date 2021-08-09 18:08:13*
%MOMM*%
%LPD*%
G01*
G04 APERTURE LIST*
%TA.AperFunction,ComponentPad*%
%ADD10O,1.700000X1.700000*%
%TD*%
%TA.AperFunction,ComponentPad*%
%ADD11R,1.700000X1.700000*%
%TD*%
%TA.AperFunction,ComponentPad*%
%ADD12R,2.000000X2.000000*%
%TD*%
%TA.AperFunction,ComponentPad*%
%ADD13C,2.000000*%
%TD*%
%TA.AperFunction,ComponentPad*%
%ADD14C,2.130000*%
%TD*%
%TA.AperFunction,ComponentPad*%
%ADD15R,1.830000X1.930000*%
%TD*%
%TA.AperFunction,ComponentPad*%
%ADD16C,1.800000*%
%TD*%
%TA.AperFunction,ComponentPad*%
%ADD17R,1.800000X1.800000*%
%TD*%
%TA.AperFunction,ComponentPad*%
%ADD18O,1.600000X2.000000*%
%TD*%
%TA.AperFunction,Conductor*%
%ADD19C,0.400000*%
%TD*%
%TA.AperFunction,Conductor*%
%ADD20C,0.254000*%
%TD*%
G04 APERTURE END LIST*
D10*
%TO.P,Conn2,9*%
%TO.N,Net-(C4-Pad1)*%
X163000000Y-101320000D03*
%TO.P,Conn2,8*%
%TO.N,Net-(J4-PadT)*%
X163000000Y-98780000D03*
%TO.P,Conn2,7*%
%TO.N,Net-(J3-PadT)*%
X163000000Y-96240000D03*
%TO.P,Conn2,6*%
%TO.N,Net-(J2-PadT)*%
X163000000Y-93700000D03*
%TO.P,Conn2,5*%
%TO.N,Net-(J1-PadT)*%
X163000000Y-91160000D03*
%TO.P,Conn2,4*%
%TO.N,Net-(SW1-Pad2)*%
X163000000Y-88620000D03*
%TO.P,Conn2,3*%
%TO.N,TOUCH_SENSOR3*%
X163000000Y-86080000D03*
%TO.P,Conn2,2*%
%TO.N,TOUCH_SENSOR2*%
X163000000Y-83540000D03*
D11*
%TO.P,Conn2,1*%
%TO.N,TOUCH_SENSOR1*%
X163000000Y-81000000D03*
%TD*%
D12*
%TO.P,TOUCH3,1*%
%TO.N,TOUCH_SENSOR3*%
X150000000Y-85000000D03*
%TD*%
%TO.P,TOUCH2,1*%
%TO.N,TOUCH_SENSOR2*%
X155000000Y-79500000D03*
%TD*%
%TO.P,TOUCH1,1*%
%TO.N,TOUCH_SENSOR1*%
X145500000Y-79500000D03*
%TD*%
D13*
%TO.P,SW1,1*%
%TO.N,GND*%
X153250000Y-95500000D03*
%TO.P,SW1,2*%
%TO.N,Net-(SW1-Pad2)*%
X153250000Y-100000000D03*
%TO.P,SW1,1*%
%TO.N,GND*%
X146750000Y-95500000D03*
%TO.P,SW1,2*%
%TO.N,Net-(SW1-Pad2)*%
X146750000Y-100000000D03*
%TD*%
D11*
%TO.P,Conn1,1*%
%TO.N,GND*%
X137000000Y-81000000D03*
D10*
%TO.P,Conn1,2*%
%TO.N,3.3V*%
X137000000Y-83540000D03*
%TO.P,Conn1,3*%
%TO.N,Net-(Brd1-Pad3)*%
X137000000Y-86080000D03*
%TO.P,Conn1,4*%
%TO.N,Net-(Brd1-Pad4)*%
X137000000Y-88620000D03*
%TO.P,Conn1,5*%
%TO.N,Net-(D3-Pad1)*%
X137000000Y-91160000D03*
%TO.P,Conn1,6*%
%TO.N,Net-(D6-Pad1)*%
X137000000Y-93700000D03*
%TO.P,Conn1,7*%
%TO.N,Net-(D10-Pad2)*%
X137000000Y-96240000D03*
%TO.P,Conn1,8*%
%TO.N,Net-(D12-Pad1)*%
X137000000Y-98780000D03*
%TD*%
D14*
%TO.P,J5,T*%
%TO.N,Net-(C4-Pad1)*%
X162900000Y-134500000D03*
D15*
%TO.P,J5,S*%
%TO.N,GND*%
X151500000Y-134500000D03*
D14*
%TO.P,J5,TN*%
%TO.N,N/C*%
X154600000Y-134500000D03*
%TD*%
%TO.P,J4,T*%
%TO.N,Net-(J4-PadT)*%
X162900000Y-120500000D03*
D15*
%TO.P,J4,S*%
%TO.N,GND*%
X151500000Y-120500000D03*
D14*
%TO.P,J4,TN*%
%TO.N,N/C*%
X154600000Y-120500000D03*
%TD*%
%TO.P,J3,T*%
%TO.N,Net-(J3-PadT)*%
X137100000Y-120500000D03*
D15*
%TO.P,J3,S*%
%TO.N,GND*%
X148500000Y-120500000D03*
D14*
%TO.P,J3,TN*%
%TO.N,N/C*%
X145400000Y-120500000D03*
%TD*%
%TO.P,J2,T*%
%TO.N,Net-(J2-PadT)*%
X162900000Y-110250000D03*
D15*
%TO.P,J2,S*%
%TO.N,GND*%
X151500000Y-110250000D03*
D14*
%TO.P,J2,TN*%
%TO.N,N/C*%
X154600000Y-110250000D03*
%TD*%
%TO.P,J1,T*%
%TO.N,Net-(J1-PadT)*%
X137100000Y-110250000D03*
D15*
%TO.P,J1,S*%
%TO.N,GND*%
X148500000Y-110250000D03*
D14*
%TO.P,J1,TN*%
%TO.N,N/C*%
X145400000Y-110250000D03*
%TD*%
D16*
%TO.P,D14,2*%
%TO.N,Net-(D12-Pad1)*%
X163290000Y-71250000D03*
D17*
%TO.P,D14,1*%
%TO.N,GND*%
X160750000Y-71250000D03*
%TD*%
D16*
%TO.P,D11,2*%
%TO.N,Net-(D10-Pad2)*%
X155290000Y-71250000D03*
D17*
%TO.P,D11,1*%
%TO.N,GND*%
X152750000Y-71250000D03*
%TD*%
D16*
%TO.P,D8,2*%
%TO.N,Net-(D6-Pad1)*%
X147290000Y-71250000D03*
D17*
%TO.P,D8,1*%
%TO.N,GND*%
X144750000Y-71250000D03*
%TD*%
D16*
%TO.P,D5,2*%
%TO.N,Net-(D3-Pad1)*%
X139290000Y-71250000D03*
D17*
%TO.P,D5,1*%
%TO.N,GND*%
X136750000Y-71250000D03*
%TD*%
D18*
%TO.P,Brd1,2*%
%TO.N,3.3V*%
X148670000Y-42400000D03*
%TO.P,Brd1,1*%
%TO.N,GND*%
X146130000Y-42400000D03*
%TO.P,Brd1,3*%
%TO.N,Net-(Brd1-Pad3)*%
X151210000Y-42400000D03*
%TO.P,Brd1,4*%
%TO.N,Net-(Brd1-Pad4)*%
X153750000Y-42400000D03*
%TD*%
D19*
%TO.N,3.3V*%
X148670000Y-42400000D02*
X141114400Y-49955600D01*
X141114400Y-49955600D02*
X141114400Y-79425600D01*
X141114400Y-79425600D02*
X137000000Y-83540000D01*
%TO.N,Net-(Brd1-Pad4)*%
X153750000Y-42400000D02*
X143144100Y-53005900D01*
X143144100Y-53005900D02*
X143144100Y-82475900D01*
X143144100Y-82475900D02*
X137000000Y-88620000D01*
%TO.N,Net-(D3-Pad1)*%
X139290000Y-71250000D02*
X135641600Y-74898400D01*
X135641600Y-74898400D02*
X135641600Y-89801600D01*
X135641600Y-89801600D02*
X137000000Y-91160000D01*
%TO.N,Net-(J1-PadT)*%
X163000000Y-91160000D02*
X154985500Y-99174500D01*
X154985500Y-99174500D02*
X154985500Y-100410100D01*
X154985500Y-100410100D02*
X150724100Y-104671500D01*
X150724100Y-104671500D02*
X142678500Y-104671500D01*
X142678500Y-104671500D02*
X137100000Y-110250000D01*
%TO.N,Net-(J2-PadT)*%
X162900000Y-110250000D02*
X164358400Y-108791600D01*
X164358400Y-108791600D02*
X164358400Y-95058400D01*
X164358400Y-95058400D02*
X163000000Y-93700000D01*
%TO.N,Net-(J3-PadT)*%
X163000000Y-96240000D02*
X161649700Y-96240000D01*
X137100000Y-120500000D02*
X137385100Y-120500000D01*
X137385100Y-120500000D02*
X147084600Y-110800500D01*
X147084600Y-110800500D02*
X147084600Y-109043000D01*
X147084600Y-109043000D02*
X147443000Y-108684600D01*
X147443000Y-108684600D02*
X149205100Y-108684600D01*
X149205100Y-108684600D02*
X161649700Y-96240000D01*
%TO.N,Net-(SW1-Pad2)*%
X151500900Y-98250900D02*
X153250000Y-100000000D01*
X146750000Y-100000000D02*
X148499100Y-98250900D01*
X148499100Y-98250900D02*
X151500900Y-98250900D01*
X151500900Y-98250900D02*
X151500900Y-95100800D01*
X151500900Y-95100800D02*
X157981700Y-88620000D01*
X157981700Y-88620000D02*
X163000000Y-88620000D01*
%TO.N,TOUCH_SENSOR1*%
X163000000Y-81000000D02*
X161649700Y-81000000D01*
X145500000Y-79500000D02*
X147000300Y-79500000D01*
X147000300Y-79500000D02*
X148559500Y-77940800D01*
X148559500Y-77940800D02*
X158590500Y-77940800D01*
X158590500Y-77940800D02*
X161649700Y-81000000D01*
%TO.N,TOUCH_SENSOR2*%
X155000000Y-79500000D02*
X156500300Y-79500000D01*
X156500300Y-79500000D02*
X160540300Y-83540000D01*
X160540300Y-83540000D02*
X163000000Y-83540000D01*
%TO.N,TOUCH_SENSOR3*%
X150000000Y-85000000D02*
X151500300Y-85000000D01*
X161649700Y-86080000D02*
X160569700Y-85000000D01*
X160569700Y-85000000D02*
X151500300Y-85000000D01*
X163000000Y-86080000D02*
X161649700Y-86080000D01*
%TD*%
D20*
%TO.N,GND*%
G36*
X162053368Y-97393475D02*
G01*
X162227760Y-97510000D01*
X162053368Y-97626525D01*
X161846525Y-97833368D01*
X161684010Y-98076589D01*
X161572068Y-98346842D01*
X161515000Y-98633740D01*
X161515000Y-98926260D01*
X161572068Y-99213158D01*
X161684010Y-99483411D01*
X161846525Y-99726632D01*
X162053368Y-99933475D01*
X162227760Y-100050000D01*
X162053368Y-100166525D01*
X161846525Y-100373368D01*
X161684010Y-100616589D01*
X161572068Y-100886842D01*
X161515000Y-101173740D01*
X161515000Y-101466260D01*
X161572068Y-101753158D01*
X161684010Y-102023411D01*
X161846525Y-102266632D01*
X162053368Y-102473475D01*
X162296589Y-102635990D01*
X162566842Y-102747932D01*
X162853740Y-102805000D01*
X163146260Y-102805000D01*
X163433158Y-102747932D01*
X163523400Y-102710553D01*
X163523400Y-108445732D01*
X163360782Y-108608350D01*
X163067435Y-108550000D01*
X162732565Y-108550000D01*
X162404128Y-108615330D01*
X162094748Y-108743479D01*
X161816313Y-108929523D01*
X161579523Y-109166313D01*
X161393479Y-109444748D01*
X161265330Y-109754128D01*
X161200000Y-110082565D01*
X161200000Y-110417435D01*
X161265330Y-110745872D01*
X161393479Y-111055252D01*
X161579523Y-111333687D01*
X161816313Y-111570477D01*
X162094748Y-111756521D01*
X162404128Y-111884670D01*
X162732565Y-111950000D01*
X163067435Y-111950000D01*
X163395872Y-111884670D01*
X163705252Y-111756521D01*
X163983687Y-111570477D01*
X164220477Y-111333687D01*
X164340000Y-111154807D01*
X164340000Y-119595192D01*
X164220477Y-119416313D01*
X163983687Y-119179523D01*
X163705252Y-118993479D01*
X163395872Y-118865330D01*
X163067435Y-118800000D01*
X162732565Y-118800000D01*
X162404128Y-118865330D01*
X162094748Y-118993479D01*
X161816313Y-119179523D01*
X161579523Y-119416313D01*
X161393479Y-119694748D01*
X161265330Y-120004128D01*
X161200000Y-120332565D01*
X161200000Y-120667435D01*
X161265330Y-120995872D01*
X161393479Y-121305252D01*
X161579523Y-121583687D01*
X161816313Y-121820477D01*
X162094748Y-122006521D01*
X162404128Y-122134670D01*
X162732565Y-122200000D01*
X163067435Y-122200000D01*
X163395872Y-122134670D01*
X163705252Y-122006521D01*
X163983687Y-121820477D01*
X164220477Y-121583687D01*
X164340000Y-121404808D01*
X164340000Y-133595192D01*
X164220477Y-133416313D01*
X163983687Y-133179523D01*
X163705252Y-132993479D01*
X163395872Y-132865330D01*
X163067435Y-132800000D01*
X162732565Y-132800000D01*
X162404128Y-132865330D01*
X162094748Y-132993479D01*
X161816313Y-133179523D01*
X161579523Y-133416313D01*
X161393479Y-133694748D01*
X161265330Y-134004128D01*
X161200000Y-134332565D01*
X161200000Y-134667435D01*
X161265330Y-134995872D01*
X161393479Y-135305252D01*
X161579523Y-135583687D01*
X161816313Y-135820477D01*
X162094748Y-136006521D01*
X162404128Y-136134670D01*
X162732565Y-136200000D01*
X163067435Y-136200000D01*
X163395872Y-136134670D01*
X163705252Y-136006521D01*
X163983687Y-135820477D01*
X164220477Y-135583687D01*
X164340000Y-135404808D01*
X164340000Y-139340000D01*
X135660000Y-139340000D01*
X135660000Y-135465000D01*
X149946928Y-135465000D01*
X149959188Y-135589482D01*
X149995498Y-135709180D01*
X150054463Y-135819494D01*
X150133815Y-135916185D01*
X150230506Y-135995537D01*
X150340820Y-136054502D01*
X150460518Y-136090812D01*
X150585000Y-136103072D01*
X151214250Y-136100000D01*
X151373000Y-135941250D01*
X151373000Y-134627000D01*
X150108750Y-134627000D01*
X149950000Y-134785750D01*
X149946928Y-135465000D01*
X135660000Y-135465000D01*
X135660000Y-133535000D01*
X149946928Y-133535000D01*
X149950000Y-134214250D01*
X150108750Y-134373000D01*
X151373000Y-134373000D01*
X151373000Y-133058750D01*
X151627000Y-133058750D01*
X151627000Y-134373000D01*
X151647000Y-134373000D01*
X151647000Y-134627000D01*
X151627000Y-134627000D01*
X151627000Y-135941250D01*
X151785750Y-136100000D01*
X152415000Y-136103072D01*
X152539482Y-136090812D01*
X152659180Y-136054502D01*
X152769494Y-135995537D01*
X152866185Y-135916185D01*
X152945537Y-135819494D01*
X153004502Y-135709180D01*
X153040812Y-135589482D01*
X153053072Y-135465000D01*
X153051895Y-135204860D01*
X153093479Y-135305252D01*
X153279523Y-135583687D01*
X153516313Y-135820477D01*
X153794748Y-136006521D01*
X154104128Y-136134670D01*
X154432565Y-136200000D01*
X154767435Y-136200000D01*
X155095872Y-136134670D01*
X155405252Y-136006521D01*
X155683687Y-135820477D01*
X155920477Y-135583687D01*
X156106521Y-135305252D01*
X156234670Y-134995872D01*
X156300000Y-134667435D01*
X156300000Y-134332565D01*
X156234670Y-134004128D01*
X156106521Y-133694748D01*
X155920477Y-133416313D01*
X155683687Y-133179523D01*
X155405252Y-132993479D01*
X155095872Y-132865330D01*
X154767435Y-132800000D01*
X154432565Y-132800000D01*
X154104128Y-132865330D01*
X153794748Y-132993479D01*
X153516313Y-133179523D01*
X153279523Y-133416313D01*
X153093479Y-133694748D01*
X153051895Y-133795140D01*
X153053072Y-133535000D01*
X153040812Y-133410518D01*
X153004502Y-133290820D01*
X152945537Y-133180506D01*
X152866185Y-133083815D01*
X152769494Y-133004463D01*
X152659180Y-132945498D01*
X152539482Y-132909188D01*
X152415000Y-132896928D01*
X151785750Y-132900000D01*
X151627000Y-133058750D01*
X151373000Y-133058750D01*
X151214250Y-132900000D01*
X150585000Y-132896928D01*
X150460518Y-132909188D01*
X150340820Y-132945498D01*
X150230506Y-133004463D01*
X150133815Y-133083815D01*
X150054463Y-133180506D01*
X149995498Y-133290820D01*
X149959188Y-133410518D01*
X149946928Y-133535000D01*
X135660000Y-133535000D01*
X135660000Y-128779872D01*
X135765000Y-128779872D01*
X135765000Y-129220128D01*
X135850890Y-129651925D01*
X136019369Y-130058669D01*
X136263962Y-130424729D01*
X136575271Y-130736038D01*
X136941331Y-130980631D01*
X137348075Y-131149110D01*
X137779872Y-131235000D01*
X138220128Y-131235000D01*
X138651925Y-131149110D01*
X139058669Y-130980631D01*
X139424729Y-130736038D01*
X139736038Y-130424729D01*
X139980631Y-130058669D01*
X140149110Y-129651925D01*
X140235000Y-129220128D01*
X140235000Y-128779872D01*
X140149110Y-128348075D01*
X139980631Y-127941331D01*
X139736038Y-127575271D01*
X139424729Y-127263962D01*
X139058669Y-127019369D01*
X138651925Y-126850890D01*
X138220128Y-126765000D01*
X137779872Y-126765000D01*
X137348075Y-126850890D01*
X136941331Y-127019369D01*
X136575271Y-127263962D01*
X136263962Y-127575271D01*
X136019369Y-127941331D01*
X135850890Y-128348075D01*
X135765000Y-128779872D01*
X135660000Y-128779872D01*
X135660000Y-121404808D01*
X135779523Y-121583687D01*
X136016313Y-121820477D01*
X136294748Y-122006521D01*
X136604128Y-122134670D01*
X136932565Y-122200000D01*
X137267435Y-122200000D01*
X137595872Y-122134670D01*
X137905252Y-122006521D01*
X138183687Y-121820477D01*
X138420477Y-121583687D01*
X138606521Y-121305252D01*
X138734670Y-120995872D01*
X138800000Y-120667435D01*
X138800000Y-120332565D01*
X143700000Y-120332565D01*
X143700000Y-120667435D01*
X143765330Y-120995872D01*
X143893479Y-121305252D01*
X144079523Y-121583687D01*
X144316313Y-121820477D01*
X144594748Y-122006521D01*
X144904128Y-122134670D01*
X145232565Y-122200000D01*
X145567435Y-122200000D01*
X145895872Y-122134670D01*
X146205252Y-122006521D01*
X146483687Y-121820477D01*
X146720477Y-121583687D01*
X146906521Y-121305252D01*
X146948105Y-121204860D01*
X146946928Y-121465000D01*
X146959188Y-121589482D01*
X146995498Y-121709180D01*
X147054463Y-121819494D01*
X147133815Y-121916185D01*
X147230506Y-121995537D01*
X147340820Y-122054502D01*
X147460518Y-122090812D01*
X147585000Y-122103072D01*
X148214250Y-122100000D01*
X148373000Y-121941250D01*
X148373000Y-120627000D01*
X148627000Y-120627000D01*
X148627000Y-121941250D01*
X148785750Y-122100000D01*
X149415000Y-122103072D01*
X149539482Y-122090812D01*
X149659180Y-122054502D01*
X149769494Y-121995537D01*
X149866185Y-121916185D01*
X149945537Y-121819494D01*
X150000000Y-121717603D01*
X150054463Y-121819494D01*
X150133815Y-121916185D01*
X150230506Y-121995537D01*
X150340820Y-122054502D01*
X150460518Y-122090812D01*
X150585000Y-122103072D01*
X151214250Y-122100000D01*
X151373000Y-121941250D01*
X151373000Y-120627000D01*
X150108750Y-120627000D01*
X150000000Y-120735750D01*
X149891250Y-120627000D01*
X148627000Y-120627000D01*
X148373000Y-120627000D01*
X148353000Y-120627000D01*
X148353000Y-120373000D01*
X148373000Y-120373000D01*
X148373000Y-119058750D01*
X148627000Y-119058750D01*
X148627000Y-120373000D01*
X149891250Y-120373000D01*
X150000000Y-120264250D01*
X150108750Y-120373000D01*
X151373000Y-120373000D01*
X151373000Y-119058750D01*
X151627000Y-119058750D01*
X151627000Y-120373000D01*
X151647000Y-120373000D01*
X151647000Y-120627000D01*
X151627000Y-120627000D01*
X151627000Y-121941250D01*
X151785750Y-122100000D01*
X152415000Y-122103072D01*
X152539482Y-122090812D01*
X152659180Y-122054502D01*
X152769494Y-121995537D01*
X152866185Y-121916185D01*
X152945537Y-121819494D01*
X153004502Y-121709180D01*
X153040812Y-121589482D01*
X153053072Y-121465000D01*
X153051895Y-121204860D01*
X153093479Y-121305252D01*
X153279523Y-121583687D01*
X153516313Y-121820477D01*
X153794748Y-122006521D01*
X154104128Y-122134670D01*
X154432565Y-122200000D01*
X154767435Y-122200000D01*
X155095872Y-122134670D01*
X155405252Y-122006521D01*
X155683687Y-121820477D01*
X155920477Y-121583687D01*
X156106521Y-121305252D01*
X156234670Y-120995872D01*
X156300000Y-120667435D01*
X156300000Y-120332565D01*
X156234670Y-120004128D01*
X156106521Y-119694748D01*
X155920477Y-119416313D01*
X155683687Y-119179523D01*
X155405252Y-118993479D01*
X155095872Y-118865330D01*
X154767435Y-118800000D01*
X154432565Y-118800000D01*
X154104128Y-118865330D01*
X153794748Y-118993479D01*
X153516313Y-119179523D01*
X153279523Y-119416313D01*
X153093479Y-119694748D01*
X153051895Y-119795140D01*
X153053072Y-119535000D01*
X153040812Y-119410518D01*
X153004502Y-119290820D01*
X152945537Y-119180506D01*
X152866185Y-119083815D01*
X152769494Y-119004463D01*
X152659180Y-118945498D01*
X152539482Y-118909188D01*
X152415000Y-118896928D01*
X151785750Y-118900000D01*
X151627000Y-119058750D01*
X151373000Y-119058750D01*
X151214250Y-118900000D01*
X150585000Y-118896928D01*
X150460518Y-118909188D01*
X150340820Y-118945498D01*
X150230506Y-119004463D01*
X150133815Y-119083815D01*
X150054463Y-119180506D01*
X150000000Y-119282397D01*
X149945537Y-119180506D01*
X149866185Y-119083815D01*
X149769494Y-119004463D01*
X149659180Y-118945498D01*
X149539482Y-118909188D01*
X149415000Y-118896928D01*
X148785750Y-118900000D01*
X148627000Y-119058750D01*
X148373000Y-119058750D01*
X148214250Y-118900000D01*
X147585000Y-118896928D01*
X147460518Y-118909188D01*
X147340820Y-118945498D01*
X147230506Y-119004463D01*
X147133815Y-119083815D01*
X147054463Y-119180506D01*
X146995498Y-119290820D01*
X146959188Y-119410518D01*
X146946928Y-119535000D01*
X146948105Y-119795140D01*
X146906521Y-119694748D01*
X146720477Y-119416313D01*
X146483687Y-119179523D01*
X146205252Y-118993479D01*
X145895872Y-118865330D01*
X145567435Y-118800000D01*
X145232565Y-118800000D01*
X144904128Y-118865330D01*
X144594748Y-118993479D01*
X144316313Y-119179523D01*
X144079523Y-119416313D01*
X143893479Y-119694748D01*
X143765330Y-120004128D01*
X143700000Y-120332565D01*
X138800000Y-120332565D01*
X138788951Y-120277016D01*
X147289107Y-111776861D01*
X147340820Y-111804502D01*
X147460518Y-111840812D01*
X147585000Y-111853072D01*
X148214250Y-111850000D01*
X148373000Y-111691250D01*
X148373000Y-110377000D01*
X148627000Y-110377000D01*
X148627000Y-111691250D01*
X148785750Y-111850000D01*
X149415000Y-111853072D01*
X149539482Y-111840812D01*
X149659180Y-111804502D01*
X149769494Y-111745537D01*
X149866185Y-111666185D01*
X149945537Y-111569494D01*
X150000000Y-111467603D01*
X150054463Y-111569494D01*
X150133815Y-111666185D01*
X150230506Y-111745537D01*
X150340820Y-111804502D01*
X150460518Y-111840812D01*
X150585000Y-111853072D01*
X151214250Y-111850000D01*
X151373000Y-111691250D01*
X151373000Y-110377000D01*
X150108750Y-110377000D01*
X150000000Y-110485750D01*
X149891250Y-110377000D01*
X148627000Y-110377000D01*
X148373000Y-110377000D01*
X148353000Y-110377000D01*
X148353000Y-110123000D01*
X148373000Y-110123000D01*
X148373000Y-110103000D01*
X148627000Y-110103000D01*
X148627000Y-110123000D01*
X149891250Y-110123000D01*
X150000000Y-110014250D01*
X150108750Y-110123000D01*
X151373000Y-110123000D01*
X151373000Y-108808750D01*
X151627000Y-108808750D01*
X151627000Y-110123000D01*
X151647000Y-110123000D01*
X151647000Y-110377000D01*
X151627000Y-110377000D01*
X151627000Y-111691250D01*
X151785750Y-111850000D01*
X152415000Y-111853072D01*
X152539482Y-111840812D01*
X152659180Y-111804502D01*
X152769494Y-111745537D01*
X152866185Y-111666185D01*
X152945537Y-111569494D01*
X153004502Y-111459180D01*
X153040812Y-111339482D01*
X153053072Y-111215000D01*
X153051895Y-110954860D01*
X153093479Y-111055252D01*
X153279523Y-111333687D01*
X153516313Y-111570477D01*
X153794748Y-111756521D01*
X154104128Y-111884670D01*
X154432565Y-111950000D01*
X154767435Y-111950000D01*
X155095872Y-111884670D01*
X155405252Y-111756521D01*
X155683687Y-111570477D01*
X155920477Y-111333687D01*
X156106521Y-111055252D01*
X156234670Y-110745872D01*
X156300000Y-110417435D01*
X156300000Y-110082565D01*
X156234670Y-109754128D01*
X156106521Y-109444748D01*
X155920477Y-109166313D01*
X155683687Y-108929523D01*
X155405252Y-108743479D01*
X155095872Y-108615330D01*
X154767435Y-108550000D01*
X154432565Y-108550000D01*
X154104128Y-108615330D01*
X153794748Y-108743479D01*
X153516313Y-108929523D01*
X153279523Y-109166313D01*
X153093479Y-109444748D01*
X153051895Y-109545140D01*
X153053072Y-109285000D01*
X153040812Y-109160518D01*
X153004502Y-109040820D01*
X152945537Y-108930506D01*
X152866185Y-108833815D01*
X152769494Y-108754463D01*
X152659180Y-108695498D01*
X152539482Y-108659188D01*
X152415000Y-108646928D01*
X151785750Y-108650000D01*
X151627000Y-108808750D01*
X151373000Y-108808750D01*
X151214250Y-108650000D01*
X150585000Y-108646928D01*
X150460518Y-108659188D01*
X150389982Y-108680585D01*
X161865230Y-97205337D01*
X162053368Y-97393475D01*
G37*
X162053368Y-97393475D02*
X162227760Y-97510000D01*
X162053368Y-97626525D01*
X161846525Y-97833368D01*
X161684010Y-98076589D01*
X161572068Y-98346842D01*
X161515000Y-98633740D01*
X161515000Y-98926260D01*
X161572068Y-99213158D01*
X161684010Y-99483411D01*
X161846525Y-99726632D01*
X162053368Y-99933475D01*
X162227760Y-100050000D01*
X162053368Y-100166525D01*
X161846525Y-100373368D01*
X161684010Y-100616589D01*
X161572068Y-100886842D01*
X161515000Y-101173740D01*
X161515000Y-101466260D01*
X161572068Y-101753158D01*
X161684010Y-102023411D01*
X161846525Y-102266632D01*
X162053368Y-102473475D01*
X162296589Y-102635990D01*
X162566842Y-102747932D01*
X162853740Y-102805000D01*
X163146260Y-102805000D01*
X163433158Y-102747932D01*
X163523400Y-102710553D01*
X163523400Y-108445732D01*
X163360782Y-108608350D01*
X163067435Y-108550000D01*
X162732565Y-108550000D01*
X162404128Y-108615330D01*
X162094748Y-108743479D01*
X161816313Y-108929523D01*
X161579523Y-109166313D01*
X161393479Y-109444748D01*
X161265330Y-109754128D01*
X161200000Y-110082565D01*
X161200000Y-110417435D01*
X161265330Y-110745872D01*
X161393479Y-111055252D01*
X161579523Y-111333687D01*
X161816313Y-111570477D01*
X162094748Y-111756521D01*
X162404128Y-111884670D01*
X162732565Y-111950000D01*
X163067435Y-111950000D01*
X163395872Y-111884670D01*
X163705252Y-111756521D01*
X163983687Y-111570477D01*
X164220477Y-111333687D01*
X164340000Y-111154807D01*
X164340000Y-119595192D01*
X164220477Y-119416313D01*
X163983687Y-119179523D01*
X163705252Y-118993479D01*
X163395872Y-118865330D01*
X163067435Y-118800000D01*
X162732565Y-118800000D01*
X162404128Y-118865330D01*
X162094748Y-118993479D01*
X161816313Y-119179523D01*
X161579523Y-119416313D01*
X161393479Y-119694748D01*
X161265330Y-120004128D01*
X161200000Y-120332565D01*
X161200000Y-120667435D01*
X161265330Y-120995872D01*
X161393479Y-121305252D01*
X161579523Y-121583687D01*
X161816313Y-121820477D01*
X162094748Y-122006521D01*
X162404128Y-122134670D01*
X162732565Y-122200000D01*
X163067435Y-122200000D01*
X163395872Y-122134670D01*
X163705252Y-122006521D01*
X163983687Y-121820477D01*
X164220477Y-121583687D01*
X164340000Y-121404808D01*
X164340000Y-133595192D01*
X164220477Y-133416313D01*
X163983687Y-133179523D01*
X163705252Y-132993479D01*
X163395872Y-132865330D01*
X163067435Y-132800000D01*
X162732565Y-132800000D01*
X162404128Y-132865330D01*
X162094748Y-132993479D01*
X161816313Y-133179523D01*
X161579523Y-133416313D01*
X161393479Y-133694748D01*
X161265330Y-134004128D01*
X161200000Y-134332565D01*
X161200000Y-134667435D01*
X161265330Y-134995872D01*
X161393479Y-135305252D01*
X161579523Y-135583687D01*
X161816313Y-135820477D01*
X162094748Y-136006521D01*
X162404128Y-136134670D01*
X162732565Y-136200000D01*
X163067435Y-136200000D01*
X163395872Y-136134670D01*
X163705252Y-136006521D01*
X163983687Y-135820477D01*
X164220477Y-135583687D01*
X164340000Y-135404808D01*
X164340000Y-139340000D01*
X135660000Y-139340000D01*
X135660000Y-135465000D01*
X149946928Y-135465000D01*
X149959188Y-135589482D01*
X149995498Y-135709180D01*
X150054463Y-135819494D01*
X150133815Y-135916185D01*
X150230506Y-135995537D01*
X150340820Y-136054502D01*
X150460518Y-136090812D01*
X150585000Y-136103072D01*
X151214250Y-136100000D01*
X151373000Y-135941250D01*
X151373000Y-134627000D01*
X150108750Y-134627000D01*
X149950000Y-134785750D01*
X149946928Y-135465000D01*
X135660000Y-135465000D01*
X135660000Y-133535000D01*
X149946928Y-133535000D01*
X149950000Y-134214250D01*
X150108750Y-134373000D01*
X151373000Y-134373000D01*
X151373000Y-133058750D01*
X151627000Y-133058750D01*
X151627000Y-134373000D01*
X151647000Y-134373000D01*
X151647000Y-134627000D01*
X151627000Y-134627000D01*
X151627000Y-135941250D01*
X151785750Y-136100000D01*
X152415000Y-136103072D01*
X152539482Y-136090812D01*
X152659180Y-136054502D01*
X152769494Y-135995537D01*
X152866185Y-135916185D01*
X152945537Y-135819494D01*
X153004502Y-135709180D01*
X153040812Y-135589482D01*
X153053072Y-135465000D01*
X153051895Y-135204860D01*
X153093479Y-135305252D01*
X153279523Y-135583687D01*
X153516313Y-135820477D01*
X153794748Y-136006521D01*
X154104128Y-136134670D01*
X154432565Y-136200000D01*
X154767435Y-136200000D01*
X155095872Y-136134670D01*
X155405252Y-136006521D01*
X155683687Y-135820477D01*
X155920477Y-135583687D01*
X156106521Y-135305252D01*
X156234670Y-134995872D01*
X156300000Y-134667435D01*
X156300000Y-134332565D01*
X156234670Y-134004128D01*
X156106521Y-133694748D01*
X155920477Y-133416313D01*
X155683687Y-133179523D01*
X155405252Y-132993479D01*
X155095872Y-132865330D01*
X154767435Y-132800000D01*
X154432565Y-132800000D01*
X154104128Y-132865330D01*
X153794748Y-132993479D01*
X153516313Y-133179523D01*
X153279523Y-133416313D01*
X153093479Y-133694748D01*
X153051895Y-133795140D01*
X153053072Y-133535000D01*
X153040812Y-133410518D01*
X153004502Y-133290820D01*
X152945537Y-133180506D01*
X152866185Y-133083815D01*
X152769494Y-133004463D01*
X152659180Y-132945498D01*
X152539482Y-132909188D01*
X152415000Y-132896928D01*
X151785750Y-132900000D01*
X151627000Y-133058750D01*
X151373000Y-133058750D01*
X151214250Y-132900000D01*
X150585000Y-132896928D01*
X150460518Y-132909188D01*
X150340820Y-132945498D01*
X150230506Y-133004463D01*
X150133815Y-133083815D01*
X150054463Y-133180506D01*
X149995498Y-133290820D01*
X149959188Y-133410518D01*
X149946928Y-133535000D01*
X135660000Y-133535000D01*
X135660000Y-128779872D01*
X135765000Y-128779872D01*
X135765000Y-129220128D01*
X135850890Y-129651925D01*
X136019369Y-130058669D01*
X136263962Y-130424729D01*
X136575271Y-130736038D01*
X136941331Y-130980631D01*
X137348075Y-131149110D01*
X137779872Y-131235000D01*
X138220128Y-131235000D01*
X138651925Y-131149110D01*
X139058669Y-130980631D01*
X139424729Y-130736038D01*
X139736038Y-130424729D01*
X139980631Y-130058669D01*
X140149110Y-129651925D01*
X140235000Y-129220128D01*
X140235000Y-128779872D01*
X140149110Y-128348075D01*
X139980631Y-127941331D01*
X139736038Y-127575271D01*
X139424729Y-127263962D01*
X139058669Y-127019369D01*
X138651925Y-126850890D01*
X138220128Y-126765000D01*
X137779872Y-126765000D01*
X137348075Y-126850890D01*
X136941331Y-127019369D01*
X136575271Y-127263962D01*
X136263962Y-127575271D01*
X136019369Y-127941331D01*
X135850890Y-128348075D01*
X135765000Y-128779872D01*
X135660000Y-128779872D01*
X135660000Y-121404808D01*
X135779523Y-121583687D01*
X136016313Y-121820477D01*
X136294748Y-122006521D01*
X136604128Y-122134670D01*
X136932565Y-122200000D01*
X137267435Y-122200000D01*
X137595872Y-122134670D01*
X137905252Y-122006521D01*
X138183687Y-121820477D01*
X138420477Y-121583687D01*
X138606521Y-121305252D01*
X138734670Y-120995872D01*
X138800000Y-120667435D01*
X138800000Y-120332565D01*
X143700000Y-120332565D01*
X143700000Y-120667435D01*
X143765330Y-120995872D01*
X143893479Y-121305252D01*
X144079523Y-121583687D01*
X144316313Y-121820477D01*
X144594748Y-122006521D01*
X144904128Y-122134670D01*
X145232565Y-122200000D01*
X145567435Y-122200000D01*
X145895872Y-122134670D01*
X146205252Y-122006521D01*
X146483687Y-121820477D01*
X146720477Y-121583687D01*
X146906521Y-121305252D01*
X146948105Y-121204860D01*
X146946928Y-121465000D01*
X146959188Y-121589482D01*
X146995498Y-121709180D01*
X147054463Y-121819494D01*
X147133815Y-121916185D01*
X147230506Y-121995537D01*
X147340820Y-122054502D01*
X147460518Y-122090812D01*
X147585000Y-122103072D01*
X148214250Y-122100000D01*
X148373000Y-121941250D01*
X148373000Y-120627000D01*
X148627000Y-120627000D01*
X148627000Y-121941250D01*
X148785750Y-122100000D01*
X149415000Y-122103072D01*
X149539482Y-122090812D01*
X149659180Y-122054502D01*
X149769494Y-121995537D01*
X149866185Y-121916185D01*
X149945537Y-121819494D01*
X150000000Y-121717603D01*
X150054463Y-121819494D01*
X150133815Y-121916185D01*
X150230506Y-121995537D01*
X150340820Y-122054502D01*
X150460518Y-122090812D01*
X150585000Y-122103072D01*
X151214250Y-122100000D01*
X151373000Y-121941250D01*
X151373000Y-120627000D01*
X150108750Y-120627000D01*
X150000000Y-120735750D01*
X149891250Y-120627000D01*
X148627000Y-120627000D01*
X148373000Y-120627000D01*
X148353000Y-120627000D01*
X148353000Y-120373000D01*
X148373000Y-120373000D01*
X148373000Y-119058750D01*
X148627000Y-119058750D01*
X148627000Y-120373000D01*
X149891250Y-120373000D01*
X150000000Y-120264250D01*
X150108750Y-120373000D01*
X151373000Y-120373000D01*
X151373000Y-119058750D01*
X151627000Y-119058750D01*
X151627000Y-120373000D01*
X151647000Y-120373000D01*
X151647000Y-120627000D01*
X151627000Y-120627000D01*
X151627000Y-121941250D01*
X151785750Y-122100000D01*
X152415000Y-122103072D01*
X152539482Y-122090812D01*
X152659180Y-122054502D01*
X152769494Y-121995537D01*
X152866185Y-121916185D01*
X152945537Y-121819494D01*
X153004502Y-121709180D01*
X153040812Y-121589482D01*
X153053072Y-121465000D01*
X153051895Y-121204860D01*
X153093479Y-121305252D01*
X153279523Y-121583687D01*
X153516313Y-121820477D01*
X153794748Y-122006521D01*
X154104128Y-122134670D01*
X154432565Y-122200000D01*
X154767435Y-122200000D01*
X155095872Y-122134670D01*
X155405252Y-122006521D01*
X155683687Y-121820477D01*
X155920477Y-121583687D01*
X156106521Y-121305252D01*
X156234670Y-120995872D01*
X156300000Y-120667435D01*
X156300000Y-120332565D01*
X156234670Y-120004128D01*
X156106521Y-119694748D01*
X155920477Y-119416313D01*
X155683687Y-119179523D01*
X155405252Y-118993479D01*
X155095872Y-118865330D01*
X154767435Y-118800000D01*
X154432565Y-118800000D01*
X154104128Y-118865330D01*
X153794748Y-118993479D01*
X153516313Y-119179523D01*
X153279523Y-119416313D01*
X153093479Y-119694748D01*
X153051895Y-119795140D01*
X153053072Y-119535000D01*
X153040812Y-119410518D01*
X153004502Y-119290820D01*
X152945537Y-119180506D01*
X152866185Y-119083815D01*
X152769494Y-119004463D01*
X152659180Y-118945498D01*
X152539482Y-118909188D01*
X152415000Y-118896928D01*
X151785750Y-118900000D01*
X151627000Y-119058750D01*
X151373000Y-119058750D01*
X151214250Y-118900000D01*
X150585000Y-118896928D01*
X150460518Y-118909188D01*
X150340820Y-118945498D01*
X150230506Y-119004463D01*
X150133815Y-119083815D01*
X150054463Y-119180506D01*
X150000000Y-119282397D01*
X149945537Y-119180506D01*
X149866185Y-119083815D01*
X149769494Y-119004463D01*
X149659180Y-118945498D01*
X149539482Y-118909188D01*
X149415000Y-118896928D01*
X148785750Y-118900000D01*
X148627000Y-119058750D01*
X148373000Y-119058750D01*
X148214250Y-118900000D01*
X147585000Y-118896928D01*
X147460518Y-118909188D01*
X147340820Y-118945498D01*
X147230506Y-119004463D01*
X147133815Y-119083815D01*
X147054463Y-119180506D01*
X146995498Y-119290820D01*
X146959188Y-119410518D01*
X146946928Y-119535000D01*
X146948105Y-119795140D01*
X146906521Y-119694748D01*
X146720477Y-119416313D01*
X146483687Y-119179523D01*
X146205252Y-118993479D01*
X145895872Y-118865330D01*
X145567435Y-118800000D01*
X145232565Y-118800000D01*
X144904128Y-118865330D01*
X144594748Y-118993479D01*
X144316313Y-119179523D01*
X144079523Y-119416313D01*
X143893479Y-119694748D01*
X143765330Y-120004128D01*
X143700000Y-120332565D01*
X138800000Y-120332565D01*
X138788951Y-120277016D01*
X147289107Y-111776861D01*
X147340820Y-111804502D01*
X147460518Y-111840812D01*
X147585000Y-111853072D01*
X148214250Y-111850000D01*
X148373000Y-111691250D01*
X148373000Y-110377000D01*
X148627000Y-110377000D01*
X148627000Y-111691250D01*
X148785750Y-111850000D01*
X149415000Y-111853072D01*
X149539482Y-111840812D01*
X149659180Y-111804502D01*
X149769494Y-111745537D01*
X149866185Y-111666185D01*
X149945537Y-111569494D01*
X150000000Y-111467603D01*
X150054463Y-111569494D01*
X150133815Y-111666185D01*
X150230506Y-111745537D01*
X150340820Y-111804502D01*
X150460518Y-111840812D01*
X150585000Y-111853072D01*
X151214250Y-111850000D01*
X151373000Y-111691250D01*
X151373000Y-110377000D01*
X150108750Y-110377000D01*
X150000000Y-110485750D01*
X149891250Y-110377000D01*
X148627000Y-110377000D01*
X148373000Y-110377000D01*
X148353000Y-110377000D01*
X148353000Y-110123000D01*
X148373000Y-110123000D01*
X148373000Y-110103000D01*
X148627000Y-110103000D01*
X148627000Y-110123000D01*
X149891250Y-110123000D01*
X150000000Y-110014250D01*
X150108750Y-110123000D01*
X151373000Y-110123000D01*
X151373000Y-108808750D01*
X151627000Y-108808750D01*
X151627000Y-110123000D01*
X151647000Y-110123000D01*
X151647000Y-110377000D01*
X151627000Y-110377000D01*
X151627000Y-111691250D01*
X151785750Y-111850000D01*
X152415000Y-111853072D01*
X152539482Y-111840812D01*
X152659180Y-111804502D01*
X152769494Y-111745537D01*
X152866185Y-111666185D01*
X152945537Y-111569494D01*
X153004502Y-111459180D01*
X153040812Y-111339482D01*
X153053072Y-111215000D01*
X153051895Y-110954860D01*
X153093479Y-111055252D01*
X153279523Y-111333687D01*
X153516313Y-111570477D01*
X153794748Y-111756521D01*
X154104128Y-111884670D01*
X154432565Y-111950000D01*
X154767435Y-111950000D01*
X155095872Y-111884670D01*
X155405252Y-111756521D01*
X155683687Y-111570477D01*
X155920477Y-111333687D01*
X156106521Y-111055252D01*
X156234670Y-110745872D01*
X156300000Y-110417435D01*
X156300000Y-110082565D01*
X156234670Y-109754128D01*
X156106521Y-109444748D01*
X155920477Y-109166313D01*
X155683687Y-108929523D01*
X155405252Y-108743479D01*
X155095872Y-108615330D01*
X154767435Y-108550000D01*
X154432565Y-108550000D01*
X154104128Y-108615330D01*
X153794748Y-108743479D01*
X153516313Y-108929523D01*
X153279523Y-109166313D01*
X153093479Y-109444748D01*
X153051895Y-109545140D01*
X153053072Y-109285000D01*
X153040812Y-109160518D01*
X153004502Y-109040820D01*
X152945537Y-108930506D01*
X152866185Y-108833815D01*
X152769494Y-108754463D01*
X152659180Y-108695498D01*
X152539482Y-108659188D01*
X152415000Y-108646928D01*
X151785750Y-108650000D01*
X151627000Y-108808750D01*
X151373000Y-108808750D01*
X151214250Y-108650000D01*
X150585000Y-108646928D01*
X150460518Y-108659188D01*
X150389982Y-108680585D01*
X161865230Y-97205337D01*
X162053368Y-97393475D01*
G36*
X153361928Y-80500000D02*
G01*
X153374188Y-80624482D01*
X153410498Y-80744180D01*
X153469463Y-80854494D01*
X153548815Y-80951185D01*
X153645506Y-81030537D01*
X153755820Y-81089502D01*
X153875518Y-81125812D01*
X154000000Y-81138072D01*
X156000000Y-81138072D01*
X156124482Y-81125812D01*
X156244180Y-81089502D01*
X156354494Y-81030537D01*
X156451185Y-80951185D01*
X156530537Y-80854494D01*
X156580484Y-80761051D01*
X159920863Y-84101432D01*
X159947009Y-84133291D01*
X159978868Y-84159437D01*
X159978870Y-84159439D01*
X159985646Y-84165000D01*
X151638072Y-84165000D01*
X151638072Y-84000000D01*
X151625812Y-83875518D01*
X151589502Y-83755820D01*
X151530537Y-83645506D01*
X151451185Y-83548815D01*
X151354494Y-83469463D01*
X151244180Y-83410498D01*
X151124482Y-83374188D01*
X151000000Y-83361928D01*
X149000000Y-83361928D01*
X148875518Y-83374188D01*
X148755820Y-83410498D01*
X148645506Y-83469463D01*
X148548815Y-83548815D01*
X148469463Y-83645506D01*
X148410498Y-83755820D01*
X148374188Y-83875518D01*
X148361928Y-84000000D01*
X148361928Y-86000000D01*
X148374188Y-86124482D01*
X148410498Y-86244180D01*
X148469463Y-86354494D01*
X148548815Y-86451185D01*
X148645506Y-86530537D01*
X148755820Y-86589502D01*
X148875518Y-86625812D01*
X149000000Y-86638072D01*
X151000000Y-86638072D01*
X151124482Y-86625812D01*
X151244180Y-86589502D01*
X151354494Y-86530537D01*
X151451185Y-86451185D01*
X151530537Y-86354494D01*
X151589502Y-86244180D01*
X151625812Y-86124482D01*
X151638072Y-86000000D01*
X151638072Y-85835000D01*
X160223833Y-85835000D01*
X161030263Y-86641432D01*
X161056409Y-86673291D01*
X161183554Y-86777636D01*
X161328613Y-86855172D01*
X161486011Y-86902918D01*
X161608681Y-86915000D01*
X161608682Y-86915000D01*
X161649700Y-86919040D01*
X161690718Y-86915000D01*
X161771935Y-86915000D01*
X161846525Y-87026632D01*
X162053368Y-87233475D01*
X162227760Y-87350000D01*
X162053368Y-87466525D01*
X161846525Y-87673368D01*
X161771935Y-87785000D01*
X158022707Y-87785000D01*
X157981699Y-87780961D01*
X157940691Y-87785000D01*
X157940681Y-87785000D01*
X157818011Y-87797082D01*
X157660613Y-87844828D01*
X157515554Y-87922364D01*
X157388409Y-88026709D01*
X157362261Y-88058571D01*
X150939474Y-94481359D01*
X150907610Y-94507509D01*
X150881462Y-94539371D01*
X150803264Y-94634655D01*
X150725728Y-94779714D01*
X150677982Y-94937112D01*
X150661860Y-95100800D01*
X150665901Y-95141828D01*
X150665900Y-97415900D01*
X148540118Y-97415900D01*
X148499100Y-97411860D01*
X148458081Y-97415900D01*
X148335411Y-97427982D01*
X148178013Y-97475728D01*
X148032954Y-97553264D01*
X147905809Y-97657609D01*
X147879663Y-97689468D01*
X147155504Y-98413628D01*
X146911033Y-98365000D01*
X146588967Y-98365000D01*
X146273088Y-98427832D01*
X145975537Y-98551082D01*
X145707748Y-98730013D01*
X145480013Y-98957748D01*
X145301082Y-99225537D01*
X145177832Y-99523088D01*
X145115000Y-99838967D01*
X145115000Y-100161033D01*
X145177832Y-100476912D01*
X145301082Y-100774463D01*
X145480013Y-101042252D01*
X145707748Y-101269987D01*
X145975537Y-101448918D01*
X146273088Y-101572168D01*
X146588967Y-101635000D01*
X146911033Y-101635000D01*
X147226912Y-101572168D01*
X147524463Y-101448918D01*
X147792252Y-101269987D01*
X148019987Y-101042252D01*
X148198918Y-100774463D01*
X148322168Y-100476912D01*
X148385000Y-100161033D01*
X148385000Y-99838967D01*
X148336372Y-99594496D01*
X148844969Y-99085900D01*
X151155033Y-99085900D01*
X151663628Y-99594496D01*
X151615000Y-99838967D01*
X151615000Y-100161033D01*
X151677832Y-100476912D01*
X151801082Y-100774463D01*
X151980013Y-101042252D01*
X152207748Y-101269987D01*
X152475537Y-101448918D01*
X152680794Y-101533938D01*
X150378233Y-103836500D01*
X142719507Y-103836500D01*
X142678499Y-103832461D01*
X142637491Y-103836500D01*
X142637481Y-103836500D01*
X142514811Y-103848582D01*
X142357413Y-103896328D01*
X142212354Y-103973864D01*
X142085209Y-104078209D01*
X142059061Y-104110071D01*
X137560783Y-108608350D01*
X137267435Y-108550000D01*
X136932565Y-108550000D01*
X136604128Y-108615330D01*
X136294748Y-108743479D01*
X136016313Y-108929523D01*
X135779523Y-109166313D01*
X135660000Y-109345192D01*
X135660000Y-99425445D01*
X135684010Y-99483411D01*
X135846525Y-99726632D01*
X136053368Y-99933475D01*
X136296589Y-100095990D01*
X136566842Y-100207932D01*
X136853740Y-100265000D01*
X137146260Y-100265000D01*
X137433158Y-100207932D01*
X137703411Y-100095990D01*
X137946632Y-99933475D01*
X138153475Y-99726632D01*
X138315990Y-99483411D01*
X138427932Y-99213158D01*
X138485000Y-98926260D01*
X138485000Y-98633740D01*
X138427932Y-98346842D01*
X138315990Y-98076589D01*
X138153475Y-97833368D01*
X137946632Y-97626525D01*
X137772240Y-97510000D01*
X137946632Y-97393475D01*
X138153475Y-97186632D01*
X138315990Y-96943411D01*
X138427932Y-96673158D01*
X138435440Y-96635413D01*
X145794192Y-96635413D01*
X145889956Y-96899814D01*
X146179571Y-97040704D01*
X146491108Y-97122384D01*
X146812595Y-97141718D01*
X147131675Y-97097961D01*
X147436088Y-96992795D01*
X147610044Y-96899814D01*
X147705808Y-96635413D01*
X146750000Y-95679605D01*
X145794192Y-96635413D01*
X138435440Y-96635413D01*
X138485000Y-96386260D01*
X138485000Y-96093740D01*
X138427932Y-95806842D01*
X138326762Y-95562595D01*
X145108282Y-95562595D01*
X145152039Y-95881675D01*
X145257205Y-96186088D01*
X145350186Y-96360044D01*
X145614587Y-96455808D01*
X146570395Y-95500000D01*
X146929605Y-95500000D01*
X147885413Y-96455808D01*
X148149814Y-96360044D01*
X148290704Y-96070429D01*
X148372384Y-95758892D01*
X148391718Y-95437405D01*
X148347961Y-95118325D01*
X148242795Y-94813912D01*
X148149814Y-94639956D01*
X147885413Y-94544192D01*
X146929605Y-95500000D01*
X146570395Y-95500000D01*
X145614587Y-94544192D01*
X145350186Y-94639956D01*
X145209296Y-94929571D01*
X145127616Y-95241108D01*
X145108282Y-95562595D01*
X138326762Y-95562595D01*
X138315990Y-95536589D01*
X138153475Y-95293368D01*
X137946632Y-95086525D01*
X137772240Y-94970000D01*
X137946632Y-94853475D01*
X138153475Y-94646632D01*
X138315990Y-94403411D01*
X138332071Y-94364587D01*
X145794192Y-94364587D01*
X146750000Y-95320395D01*
X147705808Y-94364587D01*
X147610044Y-94100186D01*
X147320429Y-93959296D01*
X147008892Y-93877616D01*
X146687405Y-93858282D01*
X146368325Y-93902039D01*
X146063912Y-94007205D01*
X145889956Y-94100186D01*
X145794192Y-94364587D01*
X138332071Y-94364587D01*
X138427932Y-94133158D01*
X138485000Y-93846260D01*
X138485000Y-93553740D01*
X138427932Y-93266842D01*
X138315990Y-92996589D01*
X138153475Y-92753368D01*
X137946632Y-92546525D01*
X137772240Y-92430000D01*
X137946632Y-92313475D01*
X138153475Y-92106632D01*
X138315990Y-91863411D01*
X138427932Y-91593158D01*
X138485000Y-91306260D01*
X138485000Y-91013740D01*
X138427932Y-90726842D01*
X138315990Y-90456589D01*
X138153475Y-90213368D01*
X137946632Y-90006525D01*
X137772240Y-89890000D01*
X137946632Y-89773475D01*
X138153475Y-89566632D01*
X138315990Y-89323411D01*
X138427932Y-89053158D01*
X138485000Y-88766260D01*
X138485000Y-88473740D01*
X138458807Y-88342060D01*
X143705532Y-83095337D01*
X143737391Y-83069191D01*
X143841736Y-82942046D01*
X143919272Y-82796987D01*
X143967018Y-82639589D01*
X143979100Y-82516919D01*
X143979100Y-82516918D01*
X143983140Y-82475900D01*
X143979100Y-82434882D01*
X143979100Y-80866237D01*
X144048815Y-80951185D01*
X144145506Y-81030537D01*
X144255820Y-81089502D01*
X144375518Y-81125812D01*
X144500000Y-81138072D01*
X146500000Y-81138072D01*
X146624482Y-81125812D01*
X146744180Y-81089502D01*
X146854494Y-81030537D01*
X146951185Y-80951185D01*
X147030537Y-80854494D01*
X147089502Y-80744180D01*
X147125812Y-80624482D01*
X147138072Y-80500000D01*
X147138072Y-80325471D01*
X147163989Y-80322918D01*
X147321387Y-80275172D01*
X147466446Y-80197636D01*
X147593591Y-80093291D01*
X147619746Y-80061422D01*
X148905369Y-78775800D01*
X153361928Y-78775800D01*
X153361928Y-80500000D01*
G37*
X153361928Y-80500000D02*
X153374188Y-80624482D01*
X153410498Y-80744180D01*
X153469463Y-80854494D01*
X153548815Y-80951185D01*
X153645506Y-81030537D01*
X153755820Y-81089502D01*
X153875518Y-81125812D01*
X154000000Y-81138072D01*
X156000000Y-81138072D01*
X156124482Y-81125812D01*
X156244180Y-81089502D01*
X156354494Y-81030537D01*
X156451185Y-80951185D01*
X156530537Y-80854494D01*
X156580484Y-80761051D01*
X159920863Y-84101432D01*
X159947009Y-84133291D01*
X159978868Y-84159437D01*
X159978870Y-84159439D01*
X159985646Y-84165000D01*
X151638072Y-84165000D01*
X151638072Y-84000000D01*
X151625812Y-83875518D01*
X151589502Y-83755820D01*
X151530537Y-83645506D01*
X151451185Y-83548815D01*
X151354494Y-83469463D01*
X151244180Y-83410498D01*
X151124482Y-83374188D01*
X151000000Y-83361928D01*
X149000000Y-83361928D01*
X148875518Y-83374188D01*
X148755820Y-83410498D01*
X148645506Y-83469463D01*
X148548815Y-83548815D01*
X148469463Y-83645506D01*
X148410498Y-83755820D01*
X148374188Y-83875518D01*
X148361928Y-84000000D01*
X148361928Y-86000000D01*
X148374188Y-86124482D01*
X148410498Y-86244180D01*
X148469463Y-86354494D01*
X148548815Y-86451185D01*
X148645506Y-86530537D01*
X148755820Y-86589502D01*
X148875518Y-86625812D01*
X149000000Y-86638072D01*
X151000000Y-86638072D01*
X151124482Y-86625812D01*
X151244180Y-86589502D01*
X151354494Y-86530537D01*
X151451185Y-86451185D01*
X151530537Y-86354494D01*
X151589502Y-86244180D01*
X151625812Y-86124482D01*
X151638072Y-86000000D01*
X151638072Y-85835000D01*
X160223833Y-85835000D01*
X161030263Y-86641432D01*
X161056409Y-86673291D01*
X161183554Y-86777636D01*
X161328613Y-86855172D01*
X161486011Y-86902918D01*
X161608681Y-86915000D01*
X161608682Y-86915000D01*
X161649700Y-86919040D01*
X161690718Y-86915000D01*
X161771935Y-86915000D01*
X161846525Y-87026632D01*
X162053368Y-87233475D01*
X162227760Y-87350000D01*
X162053368Y-87466525D01*
X161846525Y-87673368D01*
X161771935Y-87785000D01*
X158022707Y-87785000D01*
X157981699Y-87780961D01*
X157940691Y-87785000D01*
X157940681Y-87785000D01*
X157818011Y-87797082D01*
X157660613Y-87844828D01*
X157515554Y-87922364D01*
X157388409Y-88026709D01*
X157362261Y-88058571D01*
X150939474Y-94481359D01*
X150907610Y-94507509D01*
X150881462Y-94539371D01*
X150803264Y-94634655D01*
X150725728Y-94779714D01*
X150677982Y-94937112D01*
X150661860Y-95100800D01*
X150665901Y-95141828D01*
X150665900Y-97415900D01*
X148540118Y-97415900D01*
X148499100Y-97411860D01*
X148458081Y-97415900D01*
X148335411Y-97427982D01*
X148178013Y-97475728D01*
X148032954Y-97553264D01*
X147905809Y-97657609D01*
X147879663Y-97689468D01*
X147155504Y-98413628D01*
X146911033Y-98365000D01*
X146588967Y-98365000D01*
X146273088Y-98427832D01*
X145975537Y-98551082D01*
X145707748Y-98730013D01*
X145480013Y-98957748D01*
X145301082Y-99225537D01*
X145177832Y-99523088D01*
X145115000Y-99838967D01*
X145115000Y-100161033D01*
X145177832Y-100476912D01*
X145301082Y-100774463D01*
X145480013Y-101042252D01*
X145707748Y-101269987D01*
X145975537Y-101448918D01*
X146273088Y-101572168D01*
X146588967Y-101635000D01*
X146911033Y-101635000D01*
X147226912Y-101572168D01*
X147524463Y-101448918D01*
X147792252Y-101269987D01*
X148019987Y-101042252D01*
X148198918Y-100774463D01*
X148322168Y-100476912D01*
X148385000Y-100161033D01*
X148385000Y-99838967D01*
X148336372Y-99594496D01*
X148844969Y-99085900D01*
X151155033Y-99085900D01*
X151663628Y-99594496D01*
X151615000Y-99838967D01*
X151615000Y-100161033D01*
X151677832Y-100476912D01*
X151801082Y-100774463D01*
X151980013Y-101042252D01*
X152207748Y-101269987D01*
X152475537Y-101448918D01*
X152680794Y-101533938D01*
X150378233Y-103836500D01*
X142719507Y-103836500D01*
X142678499Y-103832461D01*
X142637491Y-103836500D01*
X142637481Y-103836500D01*
X142514811Y-103848582D01*
X142357413Y-103896328D01*
X142212354Y-103973864D01*
X142085209Y-104078209D01*
X142059061Y-104110071D01*
X137560783Y-108608350D01*
X137267435Y-108550000D01*
X136932565Y-108550000D01*
X136604128Y-108615330D01*
X136294748Y-108743479D01*
X136016313Y-108929523D01*
X135779523Y-109166313D01*
X135660000Y-109345192D01*
X135660000Y-99425445D01*
X135684010Y-99483411D01*
X135846525Y-99726632D01*
X136053368Y-99933475D01*
X136296589Y-100095990D01*
X136566842Y-100207932D01*
X136853740Y-100265000D01*
X137146260Y-100265000D01*
X137433158Y-100207932D01*
X137703411Y-100095990D01*
X137946632Y-99933475D01*
X138153475Y-99726632D01*
X138315990Y-99483411D01*
X138427932Y-99213158D01*
X138485000Y-98926260D01*
X138485000Y-98633740D01*
X138427932Y-98346842D01*
X138315990Y-98076589D01*
X138153475Y-97833368D01*
X137946632Y-97626525D01*
X137772240Y-97510000D01*
X137946632Y-97393475D01*
X138153475Y-97186632D01*
X138315990Y-96943411D01*
X138427932Y-96673158D01*
X138435440Y-96635413D01*
X145794192Y-96635413D01*
X145889956Y-96899814D01*
X146179571Y-97040704D01*
X146491108Y-97122384D01*
X146812595Y-97141718D01*
X147131675Y-97097961D01*
X147436088Y-96992795D01*
X147610044Y-96899814D01*
X147705808Y-96635413D01*
X146750000Y-95679605D01*
X145794192Y-96635413D01*
X138435440Y-96635413D01*
X138485000Y-96386260D01*
X138485000Y-96093740D01*
X138427932Y-95806842D01*
X138326762Y-95562595D01*
X145108282Y-95562595D01*
X145152039Y-95881675D01*
X145257205Y-96186088D01*
X145350186Y-96360044D01*
X145614587Y-96455808D01*
X146570395Y-95500000D01*
X146929605Y-95500000D01*
X147885413Y-96455808D01*
X148149814Y-96360044D01*
X148290704Y-96070429D01*
X148372384Y-95758892D01*
X148391718Y-95437405D01*
X148347961Y-95118325D01*
X148242795Y-94813912D01*
X148149814Y-94639956D01*
X147885413Y-94544192D01*
X146929605Y-95500000D01*
X146570395Y-95500000D01*
X145614587Y-94544192D01*
X145350186Y-94639956D01*
X145209296Y-94929571D01*
X145127616Y-95241108D01*
X145108282Y-95562595D01*
X138326762Y-95562595D01*
X138315990Y-95536589D01*
X138153475Y-95293368D01*
X137946632Y-95086525D01*
X137772240Y-94970000D01*
X137946632Y-94853475D01*
X138153475Y-94646632D01*
X138315990Y-94403411D01*
X138332071Y-94364587D01*
X145794192Y-94364587D01*
X146750000Y-95320395D01*
X147705808Y-94364587D01*
X147610044Y-94100186D01*
X147320429Y-93959296D01*
X147008892Y-93877616D01*
X146687405Y-93858282D01*
X146368325Y-93902039D01*
X146063912Y-94007205D01*
X145889956Y-94100186D01*
X145794192Y-94364587D01*
X138332071Y-94364587D01*
X138427932Y-94133158D01*
X138485000Y-93846260D01*
X138485000Y-93553740D01*
X138427932Y-93266842D01*
X138315990Y-92996589D01*
X138153475Y-92753368D01*
X137946632Y-92546525D01*
X137772240Y-92430000D01*
X137946632Y-92313475D01*
X138153475Y-92106632D01*
X138315990Y-91863411D01*
X138427932Y-91593158D01*
X138485000Y-91306260D01*
X138485000Y-91013740D01*
X138427932Y-90726842D01*
X138315990Y-90456589D01*
X138153475Y-90213368D01*
X137946632Y-90006525D01*
X137772240Y-89890000D01*
X137946632Y-89773475D01*
X138153475Y-89566632D01*
X138315990Y-89323411D01*
X138427932Y-89053158D01*
X138485000Y-88766260D01*
X138485000Y-88473740D01*
X138458807Y-88342060D01*
X143705532Y-83095337D01*
X143737391Y-83069191D01*
X143841736Y-82942046D01*
X143919272Y-82796987D01*
X143967018Y-82639589D01*
X143979100Y-82516919D01*
X143979100Y-82516918D01*
X143983140Y-82475900D01*
X143979100Y-82434882D01*
X143979100Y-80866237D01*
X144048815Y-80951185D01*
X144145506Y-81030537D01*
X144255820Y-81089502D01*
X144375518Y-81125812D01*
X144500000Y-81138072D01*
X146500000Y-81138072D01*
X146624482Y-81125812D01*
X146744180Y-81089502D01*
X146854494Y-81030537D01*
X146951185Y-80951185D01*
X147030537Y-80854494D01*
X147089502Y-80744180D01*
X147125812Y-80624482D01*
X147138072Y-80500000D01*
X147138072Y-80325471D01*
X147163989Y-80322918D01*
X147321387Y-80275172D01*
X147466446Y-80197636D01*
X147593591Y-80093291D01*
X147619746Y-80061422D01*
X148905369Y-78775800D01*
X153361928Y-78775800D01*
X153361928Y-80500000D01*
G36*
X161846525Y-89566632D02*
G01*
X162053368Y-89773475D01*
X162227760Y-89890000D01*
X162053368Y-90006525D01*
X161846525Y-90213368D01*
X161684010Y-90456589D01*
X161572068Y-90726842D01*
X161515000Y-91013740D01*
X161515000Y-91306260D01*
X161541193Y-91437939D01*
X154424079Y-98555054D01*
X154392209Y-98581209D01*
X154287865Y-98708354D01*
X154287864Y-98708355D01*
X154280489Y-98722153D01*
X154024463Y-98551082D01*
X153726912Y-98427832D01*
X153411033Y-98365000D01*
X153088967Y-98365000D01*
X152844496Y-98413628D01*
X152335900Y-97905033D01*
X152335900Y-96750567D01*
X152389956Y-96899814D01*
X152679571Y-97040704D01*
X152991108Y-97122384D01*
X153312595Y-97141718D01*
X153631675Y-97097961D01*
X153936088Y-96992795D01*
X154110044Y-96899814D01*
X154205808Y-96635413D01*
X153250000Y-95679605D01*
X153235858Y-95693748D01*
X153056253Y-95514143D01*
X153070395Y-95500000D01*
X153429605Y-95500000D01*
X154385413Y-96455808D01*
X154649814Y-96360044D01*
X154790704Y-96070429D01*
X154872384Y-95758892D01*
X154891718Y-95437405D01*
X154847961Y-95118325D01*
X154742795Y-94813912D01*
X154649814Y-94639956D01*
X154385413Y-94544192D01*
X153429605Y-95500000D01*
X153070395Y-95500000D01*
X153056253Y-95485858D01*
X153235858Y-95306253D01*
X153250000Y-95320395D01*
X154205808Y-94364587D01*
X154110044Y-94100186D01*
X153822341Y-93960226D01*
X158327568Y-89455000D01*
X161771935Y-89455000D01*
X161846525Y-89566632D01*
G37*
X161846525Y-89566632D02*
X162053368Y-89773475D01*
X162227760Y-89890000D01*
X162053368Y-90006525D01*
X161846525Y-90213368D01*
X161684010Y-90456589D01*
X161572068Y-90726842D01*
X161515000Y-91013740D01*
X161515000Y-91306260D01*
X161541193Y-91437939D01*
X154424079Y-98555054D01*
X154392209Y-98581209D01*
X154287865Y-98708354D01*
X154287864Y-98708355D01*
X154280489Y-98722153D01*
X154024463Y-98551082D01*
X153726912Y-98427832D01*
X153411033Y-98365000D01*
X153088967Y-98365000D01*
X152844496Y-98413628D01*
X152335900Y-97905033D01*
X152335900Y-96750567D01*
X152389956Y-96899814D01*
X152679571Y-97040704D01*
X152991108Y-97122384D01*
X153312595Y-97141718D01*
X153631675Y-97097961D01*
X153936088Y-96992795D01*
X154110044Y-96899814D01*
X154205808Y-96635413D01*
X153250000Y-95679605D01*
X153235858Y-95693748D01*
X153056253Y-95514143D01*
X153070395Y-95500000D01*
X153429605Y-95500000D01*
X154385413Y-96455808D01*
X154649814Y-96360044D01*
X154790704Y-96070429D01*
X154872384Y-95758892D01*
X154891718Y-95437405D01*
X154847961Y-95118325D01*
X154742795Y-94813912D01*
X154649814Y-94639956D01*
X154385413Y-94544192D01*
X153429605Y-95500000D01*
X153070395Y-95500000D01*
X153056253Y-95485858D01*
X153235858Y-95306253D01*
X153250000Y-95320395D01*
X154205808Y-94364587D01*
X154110044Y-94100186D01*
X153822341Y-93960226D01*
X158327568Y-89455000D01*
X161771935Y-89455000D01*
X161846525Y-89566632D01*
G36*
X140279401Y-79079731D02*
G01*
X138485000Y-80874133D01*
X138485000Y-80872998D01*
X138326252Y-80872998D01*
X138485000Y-80714250D01*
X138488072Y-80150000D01*
X138475812Y-80025518D01*
X138439502Y-79905820D01*
X138380537Y-79795506D01*
X138301185Y-79698815D01*
X138204494Y-79619463D01*
X138094180Y-79560498D01*
X137974482Y-79524188D01*
X137850000Y-79511928D01*
X137285750Y-79515000D01*
X137127000Y-79673750D01*
X137127000Y-80873000D01*
X137147000Y-80873000D01*
X137147000Y-81127000D01*
X137127000Y-81127000D01*
X137127000Y-81147000D01*
X136873000Y-81147000D01*
X136873000Y-81127000D01*
X136853000Y-81127000D01*
X136853000Y-80873000D01*
X136873000Y-80873000D01*
X136873000Y-79673750D01*
X136714250Y-79515000D01*
X136476600Y-79513706D01*
X136476600Y-75244267D01*
X138969540Y-72751329D01*
X139138816Y-72785000D01*
X139441184Y-72785000D01*
X139737743Y-72726011D01*
X140017095Y-72610299D01*
X140268505Y-72442312D01*
X140279401Y-72431416D01*
X140279401Y-79079731D01*
G37*
X140279401Y-79079731D02*
X138485000Y-80874133D01*
X138485000Y-80872998D01*
X138326252Y-80872998D01*
X138485000Y-80714250D01*
X138488072Y-80150000D01*
X138475812Y-80025518D01*
X138439502Y-79905820D01*
X138380537Y-79795506D01*
X138301185Y-79698815D01*
X138204494Y-79619463D01*
X138094180Y-79560498D01*
X137974482Y-79524188D01*
X137850000Y-79511928D01*
X137285750Y-79515000D01*
X137127000Y-79673750D01*
X137127000Y-80873000D01*
X137147000Y-80873000D01*
X137147000Y-81127000D01*
X137127000Y-81127000D01*
X137127000Y-81147000D01*
X136873000Y-81147000D01*
X136873000Y-81127000D01*
X136853000Y-81127000D01*
X136853000Y-80873000D01*
X136873000Y-80873000D01*
X136873000Y-79673750D01*
X136714250Y-79515000D01*
X136476600Y-79513706D01*
X136476600Y-75244267D01*
X138969540Y-72751329D01*
X139138816Y-72785000D01*
X139441184Y-72785000D01*
X139737743Y-72726011D01*
X140017095Y-72610299D01*
X140268505Y-72442312D01*
X140279401Y-72431416D01*
X140279401Y-79079731D01*
G36*
X164340001Y-70129184D02*
G01*
X164268505Y-70057688D01*
X164017095Y-69889701D01*
X163737743Y-69773989D01*
X163441184Y-69715000D01*
X163138816Y-69715000D01*
X162842257Y-69773989D01*
X162562905Y-69889701D01*
X162311495Y-70057688D01*
X162245056Y-70124127D01*
X162239502Y-70105820D01*
X162180537Y-69995506D01*
X162101185Y-69898815D01*
X162004494Y-69819463D01*
X161894180Y-69760498D01*
X161774482Y-69724188D01*
X161650000Y-69711928D01*
X161035750Y-69715000D01*
X160877000Y-69873750D01*
X160877000Y-71123000D01*
X160897000Y-71123000D01*
X160897000Y-71377000D01*
X160877000Y-71377000D01*
X160877000Y-72626250D01*
X161035750Y-72785000D01*
X161650000Y-72788072D01*
X161774482Y-72775812D01*
X161894180Y-72739502D01*
X162004494Y-72680537D01*
X162101185Y-72601185D01*
X162180537Y-72504494D01*
X162239502Y-72394180D01*
X162245056Y-72375873D01*
X162311495Y-72442312D01*
X162562905Y-72610299D01*
X162842257Y-72726011D01*
X163138816Y-72785000D01*
X163441184Y-72785000D01*
X163737743Y-72726011D01*
X164017095Y-72610299D01*
X164268505Y-72442312D01*
X164340001Y-72370816D01*
X164340001Y-79746112D01*
X164301185Y-79698815D01*
X164204494Y-79619463D01*
X164094180Y-79560498D01*
X163974482Y-79524188D01*
X163850000Y-79511928D01*
X162150000Y-79511928D01*
X162025518Y-79524188D01*
X161905820Y-79560498D01*
X161795506Y-79619463D01*
X161698815Y-79698815D01*
X161622443Y-79791875D01*
X159209946Y-77379379D01*
X159183791Y-77347509D01*
X159056646Y-77243164D01*
X158911587Y-77165628D01*
X158754189Y-77117882D01*
X158631519Y-77105800D01*
X158631518Y-77105800D01*
X158590500Y-77101760D01*
X158549482Y-77105800D01*
X148600518Y-77105800D01*
X148559500Y-77101760D01*
X148518482Y-77105800D01*
X148518481Y-77105800D01*
X148395811Y-77117882D01*
X148238413Y-77165628D01*
X148093354Y-77243164D01*
X147966209Y-77347509D01*
X147940063Y-77379368D01*
X147080484Y-78238948D01*
X147030537Y-78145506D01*
X146951185Y-78048815D01*
X146854494Y-77969463D01*
X146744180Y-77910498D01*
X146624482Y-77874188D01*
X146500000Y-77861928D01*
X144500000Y-77861928D01*
X144375518Y-77874188D01*
X144255820Y-77910498D01*
X144145506Y-77969463D01*
X144048815Y-78048815D01*
X143979100Y-78133763D01*
X143979100Y-72787426D01*
X144464250Y-72785000D01*
X144623000Y-72626250D01*
X144623000Y-71377000D01*
X144603000Y-71377000D01*
X144603000Y-71123000D01*
X144623000Y-71123000D01*
X144623000Y-69873750D01*
X144877000Y-69873750D01*
X144877000Y-71123000D01*
X144897000Y-71123000D01*
X144897000Y-71377000D01*
X144877000Y-71377000D01*
X144877000Y-72626250D01*
X145035750Y-72785000D01*
X145650000Y-72788072D01*
X145774482Y-72775812D01*
X145894180Y-72739502D01*
X146004494Y-72680537D01*
X146101185Y-72601185D01*
X146180537Y-72504494D01*
X146239502Y-72394180D01*
X146245056Y-72375873D01*
X146311495Y-72442312D01*
X146562905Y-72610299D01*
X146842257Y-72726011D01*
X147138816Y-72785000D01*
X147441184Y-72785000D01*
X147737743Y-72726011D01*
X148017095Y-72610299D01*
X148268505Y-72442312D01*
X148482312Y-72228505D01*
X148534767Y-72150000D01*
X151211928Y-72150000D01*
X151224188Y-72274482D01*
X151260498Y-72394180D01*
X151319463Y-72504494D01*
X151398815Y-72601185D01*
X151495506Y-72680537D01*
X151605820Y-72739502D01*
X151725518Y-72775812D01*
X151850000Y-72788072D01*
X152464250Y-72785000D01*
X152623000Y-72626250D01*
X152623000Y-71377000D01*
X151373750Y-71377000D01*
X151215000Y-71535750D01*
X151211928Y-72150000D01*
X148534767Y-72150000D01*
X148650299Y-71977095D01*
X148766011Y-71697743D01*
X148825000Y-71401184D01*
X148825000Y-71098816D01*
X148766011Y-70802257D01*
X148650299Y-70522905D01*
X148534768Y-70350000D01*
X151211928Y-70350000D01*
X151215000Y-70964250D01*
X151373750Y-71123000D01*
X152623000Y-71123000D01*
X152623000Y-69873750D01*
X152877000Y-69873750D01*
X152877000Y-71123000D01*
X152897000Y-71123000D01*
X152897000Y-71377000D01*
X152877000Y-71377000D01*
X152877000Y-72626250D01*
X153035750Y-72785000D01*
X153650000Y-72788072D01*
X153774482Y-72775812D01*
X153894180Y-72739502D01*
X154004494Y-72680537D01*
X154101185Y-72601185D01*
X154180537Y-72504494D01*
X154239502Y-72394180D01*
X154245056Y-72375873D01*
X154311495Y-72442312D01*
X154562905Y-72610299D01*
X154842257Y-72726011D01*
X155138816Y-72785000D01*
X155441184Y-72785000D01*
X155737743Y-72726011D01*
X156017095Y-72610299D01*
X156268505Y-72442312D01*
X156482312Y-72228505D01*
X156534767Y-72150000D01*
X159211928Y-72150000D01*
X159224188Y-72274482D01*
X159260498Y-72394180D01*
X159319463Y-72504494D01*
X159398815Y-72601185D01*
X159495506Y-72680537D01*
X159605820Y-72739502D01*
X159725518Y-72775812D01*
X159850000Y-72788072D01*
X160464250Y-72785000D01*
X160623000Y-72626250D01*
X160623000Y-71377000D01*
X159373750Y-71377000D01*
X159215000Y-71535750D01*
X159211928Y-72150000D01*
X156534767Y-72150000D01*
X156650299Y-71977095D01*
X156766011Y-71697743D01*
X156825000Y-71401184D01*
X156825000Y-71098816D01*
X156766011Y-70802257D01*
X156650299Y-70522905D01*
X156534768Y-70350000D01*
X159211928Y-70350000D01*
X159215000Y-70964250D01*
X159373750Y-71123000D01*
X160623000Y-71123000D01*
X160623000Y-69873750D01*
X160464250Y-69715000D01*
X159850000Y-69711928D01*
X159725518Y-69724188D01*
X159605820Y-69760498D01*
X159495506Y-69819463D01*
X159398815Y-69898815D01*
X159319463Y-69995506D01*
X159260498Y-70105820D01*
X159224188Y-70225518D01*
X159211928Y-70350000D01*
X156534768Y-70350000D01*
X156482312Y-70271495D01*
X156268505Y-70057688D01*
X156017095Y-69889701D01*
X155737743Y-69773989D01*
X155441184Y-69715000D01*
X155138816Y-69715000D01*
X154842257Y-69773989D01*
X154562905Y-69889701D01*
X154311495Y-70057688D01*
X154245056Y-70124127D01*
X154239502Y-70105820D01*
X154180537Y-69995506D01*
X154101185Y-69898815D01*
X154004494Y-69819463D01*
X153894180Y-69760498D01*
X153774482Y-69724188D01*
X153650000Y-69711928D01*
X153035750Y-69715000D01*
X152877000Y-69873750D01*
X152623000Y-69873750D01*
X152464250Y-69715000D01*
X151850000Y-69711928D01*
X151725518Y-69724188D01*
X151605820Y-69760498D01*
X151495506Y-69819463D01*
X151398815Y-69898815D01*
X151319463Y-69995506D01*
X151260498Y-70105820D01*
X151224188Y-70225518D01*
X151211928Y-70350000D01*
X148534768Y-70350000D01*
X148482312Y-70271495D01*
X148268505Y-70057688D01*
X148017095Y-69889701D01*
X147737743Y-69773989D01*
X147441184Y-69715000D01*
X147138816Y-69715000D01*
X146842257Y-69773989D01*
X146562905Y-69889701D01*
X146311495Y-70057688D01*
X146245056Y-70124127D01*
X146239502Y-70105820D01*
X146180537Y-69995506D01*
X146101185Y-69898815D01*
X146004494Y-69819463D01*
X145894180Y-69760498D01*
X145774482Y-69724188D01*
X145650000Y-69711928D01*
X145035750Y-69715000D01*
X144877000Y-69873750D01*
X144623000Y-69873750D01*
X144464250Y-69715000D01*
X143979100Y-69712574D01*
X143979100Y-53351767D01*
X153352023Y-43978845D01*
X153468692Y-44014236D01*
X153750000Y-44041943D01*
X154031309Y-44014236D01*
X154301808Y-43932182D01*
X154551101Y-43798932D01*
X154769608Y-43619608D01*
X154948932Y-43401101D01*
X155082182Y-43151807D01*
X155164236Y-42881308D01*
X155174226Y-42779872D01*
X159765000Y-42779872D01*
X159765000Y-43220128D01*
X159850890Y-43651925D01*
X160019369Y-44058669D01*
X160263962Y-44424729D01*
X160575271Y-44736038D01*
X160941331Y-44980631D01*
X161348075Y-45149110D01*
X161779872Y-45235000D01*
X162220128Y-45235000D01*
X162651925Y-45149110D01*
X163058669Y-44980631D01*
X163424729Y-44736038D01*
X163736038Y-44424729D01*
X163980631Y-44058669D01*
X164149110Y-43651925D01*
X164235000Y-43220128D01*
X164235000Y-42779872D01*
X164149110Y-42348075D01*
X163980631Y-41941331D01*
X163736038Y-41575271D01*
X163424729Y-41263962D01*
X163058669Y-41019369D01*
X162651925Y-40850890D01*
X162220128Y-40765000D01*
X161779872Y-40765000D01*
X161348075Y-40850890D01*
X160941331Y-41019369D01*
X160575271Y-41263962D01*
X160263962Y-41575271D01*
X160019369Y-41941331D01*
X159850890Y-42348075D01*
X159765000Y-42779872D01*
X155174226Y-42779872D01*
X155185000Y-42670491D01*
X155185000Y-42129508D01*
X155164236Y-41918691D01*
X155082182Y-41648192D01*
X154948932Y-41398899D01*
X154769607Y-41180392D01*
X154551100Y-41001068D01*
X154301807Y-40867818D01*
X154031308Y-40785764D01*
X153750000Y-40758057D01*
X153468691Y-40785764D01*
X153198192Y-40867818D01*
X152948899Y-41001068D01*
X152730392Y-41180393D01*
X152551068Y-41398900D01*
X152480000Y-41531858D01*
X152408932Y-41398899D01*
X152229607Y-41180392D01*
X152011100Y-41001068D01*
X151761807Y-40867818D01*
X151491308Y-40785764D01*
X151210000Y-40758057D01*
X150928691Y-40785764D01*
X150658192Y-40867818D01*
X150408899Y-41001068D01*
X150190392Y-41180393D01*
X150011068Y-41398900D01*
X149940000Y-41531858D01*
X149868932Y-41398899D01*
X149689607Y-41180392D01*
X149471100Y-41001068D01*
X149221807Y-40867818D01*
X148951308Y-40785764D01*
X148670000Y-40758057D01*
X148388691Y-40785764D01*
X148118192Y-40867818D01*
X147868899Y-41001068D01*
X147650392Y-41180393D01*
X147471068Y-41398900D01*
X147401878Y-41528345D01*
X147394430Y-41510773D01*
X147235673Y-41277338D01*
X147034425Y-41079361D01*
X146798421Y-40924449D01*
X146536730Y-40818556D01*
X146479039Y-40808096D01*
X146257000Y-40930085D01*
X146257000Y-42273000D01*
X146277000Y-42273000D01*
X146277000Y-42527000D01*
X146257000Y-42527000D01*
X146257000Y-42547000D01*
X146003000Y-42547000D01*
X146003000Y-42527000D01*
X144850526Y-42527000D01*
X144698063Y-42752887D01*
X144755404Y-43029306D01*
X144865570Y-43289227D01*
X145024327Y-43522662D01*
X145225575Y-43720639D01*
X145461579Y-43875551D01*
X145723270Y-43981444D01*
X145780961Y-43991904D01*
X146002998Y-43869916D01*
X146002998Y-43886134D01*
X140552979Y-49336154D01*
X140521109Y-49362309D01*
X140416765Y-49489454D01*
X140416764Y-49489455D01*
X140339228Y-49634514D01*
X140291482Y-49791912D01*
X140275360Y-49955600D01*
X140279400Y-49996618D01*
X140279401Y-70068584D01*
X140268505Y-70057688D01*
X140017095Y-69889701D01*
X139737743Y-69773989D01*
X139441184Y-69715000D01*
X139138816Y-69715000D01*
X138842257Y-69773989D01*
X138562905Y-69889701D01*
X138311495Y-70057688D01*
X138245056Y-70124127D01*
X138239502Y-70105820D01*
X138180537Y-69995506D01*
X138101185Y-69898815D01*
X138004494Y-69819463D01*
X137894180Y-69760498D01*
X137774482Y-69724188D01*
X137650000Y-69711928D01*
X137035750Y-69715000D01*
X136877000Y-69873750D01*
X136877000Y-71123000D01*
X136897000Y-71123000D01*
X136897000Y-71377000D01*
X136877000Y-71377000D01*
X136877000Y-71397000D01*
X136623000Y-71397000D01*
X136623000Y-71377000D01*
X136603000Y-71377000D01*
X136603000Y-71123000D01*
X136623000Y-71123000D01*
X136623000Y-69873750D01*
X136464250Y-69715000D01*
X135850000Y-69711928D01*
X135725518Y-69724188D01*
X135660000Y-69744063D01*
X135660000Y-42047113D01*
X144698063Y-42047113D01*
X144850526Y-42273000D01*
X146003000Y-42273000D01*
X146003000Y-40930085D01*
X145780961Y-40808096D01*
X145723270Y-40818556D01*
X145461579Y-40924449D01*
X145225575Y-41079361D01*
X145024327Y-41277338D01*
X144865570Y-41510773D01*
X144755404Y-41770694D01*
X144698063Y-42047113D01*
X135660000Y-42047113D01*
X135660000Y-40660000D01*
X164340001Y-40660000D01*
X164340001Y-70129184D01*
G37*
X164340001Y-70129184D02*
X164268505Y-70057688D01*
X164017095Y-69889701D01*
X163737743Y-69773989D01*
X163441184Y-69715000D01*
X163138816Y-69715000D01*
X162842257Y-69773989D01*
X162562905Y-69889701D01*
X162311495Y-70057688D01*
X162245056Y-70124127D01*
X162239502Y-70105820D01*
X162180537Y-69995506D01*
X162101185Y-69898815D01*
X162004494Y-69819463D01*
X161894180Y-69760498D01*
X161774482Y-69724188D01*
X161650000Y-69711928D01*
X161035750Y-69715000D01*
X160877000Y-69873750D01*
X160877000Y-71123000D01*
X160897000Y-71123000D01*
X160897000Y-71377000D01*
X160877000Y-71377000D01*
X160877000Y-72626250D01*
X161035750Y-72785000D01*
X161650000Y-72788072D01*
X161774482Y-72775812D01*
X161894180Y-72739502D01*
X162004494Y-72680537D01*
X162101185Y-72601185D01*
X162180537Y-72504494D01*
X162239502Y-72394180D01*
X162245056Y-72375873D01*
X162311495Y-72442312D01*
X162562905Y-72610299D01*
X162842257Y-72726011D01*
X163138816Y-72785000D01*
X163441184Y-72785000D01*
X163737743Y-72726011D01*
X164017095Y-72610299D01*
X164268505Y-72442312D01*
X164340001Y-72370816D01*
X164340001Y-79746112D01*
X164301185Y-79698815D01*
X164204494Y-79619463D01*
X164094180Y-79560498D01*
X163974482Y-79524188D01*
X163850000Y-79511928D01*
X162150000Y-79511928D01*
X162025518Y-79524188D01*
X161905820Y-79560498D01*
X161795506Y-79619463D01*
X161698815Y-79698815D01*
X161622443Y-79791875D01*
X159209946Y-77379379D01*
X159183791Y-77347509D01*
X159056646Y-77243164D01*
X158911587Y-77165628D01*
X158754189Y-77117882D01*
X158631519Y-77105800D01*
X158631518Y-77105800D01*
X158590500Y-77101760D01*
X158549482Y-77105800D01*
X148600518Y-77105800D01*
X148559500Y-77101760D01*
X148518482Y-77105800D01*
X148518481Y-77105800D01*
X148395811Y-77117882D01*
X148238413Y-77165628D01*
X148093354Y-77243164D01*
X147966209Y-77347509D01*
X147940063Y-77379368D01*
X147080484Y-78238948D01*
X147030537Y-78145506D01*
X146951185Y-78048815D01*
X146854494Y-77969463D01*
X146744180Y-77910498D01*
X146624482Y-77874188D01*
X146500000Y-77861928D01*
X144500000Y-77861928D01*
X144375518Y-77874188D01*
X144255820Y-77910498D01*
X144145506Y-77969463D01*
X144048815Y-78048815D01*
X143979100Y-78133763D01*
X143979100Y-72787426D01*
X144464250Y-72785000D01*
X144623000Y-72626250D01*
X144623000Y-71377000D01*
X144603000Y-71377000D01*
X144603000Y-71123000D01*
X144623000Y-71123000D01*
X144623000Y-69873750D01*
X144877000Y-69873750D01*
X144877000Y-71123000D01*
X144897000Y-71123000D01*
X144897000Y-71377000D01*
X144877000Y-71377000D01*
X144877000Y-72626250D01*
X145035750Y-72785000D01*
X145650000Y-72788072D01*
X145774482Y-72775812D01*
X145894180Y-72739502D01*
X146004494Y-72680537D01*
X146101185Y-72601185D01*
X146180537Y-72504494D01*
X146239502Y-72394180D01*
X146245056Y-72375873D01*
X146311495Y-72442312D01*
X146562905Y-72610299D01*
X146842257Y-72726011D01*
X147138816Y-72785000D01*
X147441184Y-72785000D01*
X147737743Y-72726011D01*
X148017095Y-72610299D01*
X148268505Y-72442312D01*
X148482312Y-72228505D01*
X148534767Y-72150000D01*
X151211928Y-72150000D01*
X151224188Y-72274482D01*
X151260498Y-72394180D01*
X151319463Y-72504494D01*
X151398815Y-72601185D01*
X151495506Y-72680537D01*
X151605820Y-72739502D01*
X151725518Y-72775812D01*
X151850000Y-72788072D01*
X152464250Y-72785000D01*
X152623000Y-72626250D01*
X152623000Y-71377000D01*
X151373750Y-71377000D01*
X151215000Y-71535750D01*
X151211928Y-72150000D01*
X148534767Y-72150000D01*
X148650299Y-71977095D01*
X148766011Y-71697743D01*
X148825000Y-71401184D01*
X148825000Y-71098816D01*
X148766011Y-70802257D01*
X148650299Y-70522905D01*
X148534768Y-70350000D01*
X151211928Y-70350000D01*
X151215000Y-70964250D01*
X151373750Y-71123000D01*
X152623000Y-71123000D01*
X152623000Y-69873750D01*
X152877000Y-69873750D01*
X152877000Y-71123000D01*
X152897000Y-71123000D01*
X152897000Y-71377000D01*
X152877000Y-71377000D01*
X152877000Y-72626250D01*
X153035750Y-72785000D01*
X153650000Y-72788072D01*
X153774482Y-72775812D01*
X153894180Y-72739502D01*
X154004494Y-72680537D01*
X154101185Y-72601185D01*
X154180537Y-72504494D01*
X154239502Y-72394180D01*
X154245056Y-72375873D01*
X154311495Y-72442312D01*
X154562905Y-72610299D01*
X154842257Y-72726011D01*
X155138816Y-72785000D01*
X155441184Y-72785000D01*
X155737743Y-72726011D01*
X156017095Y-72610299D01*
X156268505Y-72442312D01*
X156482312Y-72228505D01*
X156534767Y-72150000D01*
X159211928Y-72150000D01*
X159224188Y-72274482D01*
X159260498Y-72394180D01*
X159319463Y-72504494D01*
X159398815Y-72601185D01*
X159495506Y-72680537D01*
X159605820Y-72739502D01*
X159725518Y-72775812D01*
X159850000Y-72788072D01*
X160464250Y-72785000D01*
X160623000Y-72626250D01*
X160623000Y-71377000D01*
X159373750Y-71377000D01*
X159215000Y-71535750D01*
X159211928Y-72150000D01*
X156534767Y-72150000D01*
X156650299Y-71977095D01*
X156766011Y-71697743D01*
X156825000Y-71401184D01*
X156825000Y-71098816D01*
X156766011Y-70802257D01*
X156650299Y-70522905D01*
X156534768Y-70350000D01*
X159211928Y-70350000D01*
X159215000Y-70964250D01*
X159373750Y-71123000D01*
X160623000Y-71123000D01*
X160623000Y-69873750D01*
X160464250Y-69715000D01*
X159850000Y-69711928D01*
X159725518Y-69724188D01*
X159605820Y-69760498D01*
X159495506Y-69819463D01*
X159398815Y-69898815D01*
X159319463Y-69995506D01*
X159260498Y-70105820D01*
X159224188Y-70225518D01*
X159211928Y-70350000D01*
X156534768Y-70350000D01*
X156482312Y-70271495D01*
X156268505Y-70057688D01*
X156017095Y-69889701D01*
X155737743Y-69773989D01*
X155441184Y-69715000D01*
X155138816Y-69715000D01*
X154842257Y-69773989D01*
X154562905Y-69889701D01*
X154311495Y-70057688D01*
X154245056Y-70124127D01*
X154239502Y-70105820D01*
X154180537Y-69995506D01*
X154101185Y-69898815D01*
X154004494Y-69819463D01*
X153894180Y-69760498D01*
X153774482Y-69724188D01*
X153650000Y-69711928D01*
X153035750Y-69715000D01*
X152877000Y-69873750D01*
X152623000Y-69873750D01*
X152464250Y-69715000D01*
X151850000Y-69711928D01*
X151725518Y-69724188D01*
X151605820Y-69760498D01*
X151495506Y-69819463D01*
X151398815Y-69898815D01*
X151319463Y-69995506D01*
X151260498Y-70105820D01*
X151224188Y-70225518D01*
X151211928Y-70350000D01*
X148534768Y-70350000D01*
X148482312Y-70271495D01*
X148268505Y-70057688D01*
X148017095Y-69889701D01*
X147737743Y-69773989D01*
X147441184Y-69715000D01*
X147138816Y-69715000D01*
X146842257Y-69773989D01*
X146562905Y-69889701D01*
X146311495Y-70057688D01*
X146245056Y-70124127D01*
X146239502Y-70105820D01*
X146180537Y-69995506D01*
X146101185Y-69898815D01*
X146004494Y-69819463D01*
X145894180Y-69760498D01*
X145774482Y-69724188D01*
X145650000Y-69711928D01*
X145035750Y-69715000D01*
X144877000Y-69873750D01*
X144623000Y-69873750D01*
X144464250Y-69715000D01*
X143979100Y-69712574D01*
X143979100Y-53351767D01*
X153352023Y-43978845D01*
X153468692Y-44014236D01*
X153750000Y-44041943D01*
X154031309Y-44014236D01*
X154301808Y-43932182D01*
X154551101Y-43798932D01*
X154769608Y-43619608D01*
X154948932Y-43401101D01*
X155082182Y-43151807D01*
X155164236Y-42881308D01*
X155174226Y-42779872D01*
X159765000Y-42779872D01*
X159765000Y-43220128D01*
X159850890Y-43651925D01*
X160019369Y-44058669D01*
X160263962Y-44424729D01*
X160575271Y-44736038D01*
X160941331Y-44980631D01*
X161348075Y-45149110D01*
X161779872Y-45235000D01*
X162220128Y-45235000D01*
X162651925Y-45149110D01*
X163058669Y-44980631D01*
X163424729Y-44736038D01*
X163736038Y-44424729D01*
X163980631Y-44058669D01*
X164149110Y-43651925D01*
X164235000Y-43220128D01*
X164235000Y-42779872D01*
X164149110Y-42348075D01*
X163980631Y-41941331D01*
X163736038Y-41575271D01*
X163424729Y-41263962D01*
X163058669Y-41019369D01*
X162651925Y-40850890D01*
X162220128Y-40765000D01*
X161779872Y-40765000D01*
X161348075Y-40850890D01*
X160941331Y-41019369D01*
X160575271Y-41263962D01*
X160263962Y-41575271D01*
X160019369Y-41941331D01*
X159850890Y-42348075D01*
X159765000Y-42779872D01*
X155174226Y-42779872D01*
X155185000Y-42670491D01*
X155185000Y-42129508D01*
X155164236Y-41918691D01*
X155082182Y-41648192D01*
X154948932Y-41398899D01*
X154769607Y-41180392D01*
X154551100Y-41001068D01*
X154301807Y-40867818D01*
X154031308Y-40785764D01*
X153750000Y-40758057D01*
X153468691Y-40785764D01*
X153198192Y-40867818D01*
X152948899Y-41001068D01*
X152730392Y-41180393D01*
X152551068Y-41398900D01*
X152480000Y-41531858D01*
X152408932Y-41398899D01*
X152229607Y-41180392D01*
X152011100Y-41001068D01*
X151761807Y-40867818D01*
X151491308Y-40785764D01*
X151210000Y-40758057D01*
X150928691Y-40785764D01*
X150658192Y-40867818D01*
X150408899Y-41001068D01*
X150190392Y-41180393D01*
X150011068Y-41398900D01*
X149940000Y-41531858D01*
X149868932Y-41398899D01*
X149689607Y-41180392D01*
X149471100Y-41001068D01*
X149221807Y-40867818D01*
X148951308Y-40785764D01*
X148670000Y-40758057D01*
X148388691Y-40785764D01*
X148118192Y-40867818D01*
X147868899Y-41001068D01*
X147650392Y-41180393D01*
X147471068Y-41398900D01*
X147401878Y-41528345D01*
X147394430Y-41510773D01*
X147235673Y-41277338D01*
X147034425Y-41079361D01*
X146798421Y-40924449D01*
X146536730Y-40818556D01*
X146479039Y-40808096D01*
X146257000Y-40930085D01*
X146257000Y-42273000D01*
X146277000Y-42273000D01*
X146277000Y-42527000D01*
X146257000Y-42527000D01*
X146257000Y-42547000D01*
X146003000Y-42547000D01*
X146003000Y-42527000D01*
X144850526Y-42527000D01*
X144698063Y-42752887D01*
X144755404Y-43029306D01*
X144865570Y-43289227D01*
X145024327Y-43522662D01*
X145225575Y-43720639D01*
X145461579Y-43875551D01*
X145723270Y-43981444D01*
X145780961Y-43991904D01*
X146002998Y-43869916D01*
X146002998Y-43886134D01*
X140552979Y-49336154D01*
X140521109Y-49362309D01*
X140416765Y-49489454D01*
X140416764Y-49489455D01*
X140339228Y-49634514D01*
X140291482Y-49791912D01*
X140275360Y-49955600D01*
X140279400Y-49996618D01*
X140279401Y-70068584D01*
X140268505Y-70057688D01*
X140017095Y-69889701D01*
X139737743Y-69773989D01*
X139441184Y-69715000D01*
X139138816Y-69715000D01*
X138842257Y-69773989D01*
X138562905Y-69889701D01*
X138311495Y-70057688D01*
X138245056Y-70124127D01*
X138239502Y-70105820D01*
X138180537Y-69995506D01*
X138101185Y-69898815D01*
X138004494Y-69819463D01*
X137894180Y-69760498D01*
X137774482Y-69724188D01*
X137650000Y-69711928D01*
X137035750Y-69715000D01*
X136877000Y-69873750D01*
X136877000Y-71123000D01*
X136897000Y-71123000D01*
X136897000Y-71377000D01*
X136877000Y-71377000D01*
X136877000Y-71397000D01*
X136623000Y-71397000D01*
X136623000Y-71377000D01*
X136603000Y-71377000D01*
X136603000Y-71123000D01*
X136623000Y-71123000D01*
X136623000Y-69873750D01*
X136464250Y-69715000D01*
X135850000Y-69711928D01*
X135725518Y-69724188D01*
X135660000Y-69744063D01*
X135660000Y-42047113D01*
X144698063Y-42047113D01*
X144850526Y-42273000D01*
X146003000Y-42273000D01*
X146003000Y-40930085D01*
X145780961Y-40808096D01*
X145723270Y-40818556D01*
X145461579Y-40924449D01*
X145225575Y-41079361D01*
X145024327Y-41277338D01*
X144865570Y-41510773D01*
X144755404Y-41770694D01*
X144698063Y-42047113D01*
X135660000Y-42047113D01*
X135660000Y-40660000D01*
X164340001Y-40660000D01*
X164340001Y-70129184D01*
%TD*%
M02*
