%TF.GenerationSoftware,KiCad,Pcbnew,(5.1.6)-1*%
%TF.CreationDate,2021-08-09T18:08:13+02:00*%
%TF.ProjectId,4ch_Sampler_comtrol,3463685f-5361-46d7-906c-65725f636f6d,rev?*%
%TF.SameCoordinates,Original*%
%TF.FileFunction,Legend,Bot*%
%TF.FilePolarity,Positive*%
%FSLAX46Y46*%
G04 Gerber Fmt 4.6, Leading zero omitted, Abs format (unit mm)*
G04 Created by KiCad (PCBNEW (5.1.6)-1) date 2021-08-09 18:08:13*
%MOMM*%
%LPD*%
G01*
G04 APERTURE LIST*
%ADD10C,0.120000*%
%ADD11C,0.150000*%
G04 APERTURE END LIST*
D10*
%TO.C,Conn2*%
X164330000Y-79670000D02*
X163000000Y-79670000D01*
X164330000Y-81000000D02*
X164330000Y-79670000D01*
X164330000Y-82270000D02*
X161670000Y-82270000D01*
X161670000Y-82270000D02*
X161670000Y-102650000D01*
X164330000Y-82270000D02*
X164330000Y-102650000D01*
X164330000Y-102650000D02*
X161670000Y-102650000D01*
%TO.C,Conn1*%
X138330000Y-79670000D02*
X137000000Y-79670000D01*
X138330000Y-81000000D02*
X138330000Y-79670000D01*
X138330000Y-82270000D02*
X135670000Y-82270000D01*
X135670000Y-82270000D02*
X135670000Y-100110000D01*
X138330000Y-82270000D02*
X138330000Y-100110000D01*
X138330000Y-100110000D02*
X135670000Y-100110000D01*
%TO.C,Conn2*%
D11*
X164523809Y-79027142D02*
X164571428Y-79074761D01*
X164714285Y-79122380D01*
X164809523Y-79122380D01*
X164952380Y-79074761D01*
X165047619Y-78979523D01*
X165095238Y-78884285D01*
X165142857Y-78693809D01*
X165142857Y-78550952D01*
X165095238Y-78360476D01*
X165047619Y-78265238D01*
X164952380Y-78170000D01*
X164809523Y-78122380D01*
X164714285Y-78122380D01*
X164571428Y-78170000D01*
X164523809Y-78217619D01*
X163952380Y-79122380D02*
X164047619Y-79074761D01*
X164095238Y-79027142D01*
X164142857Y-78931904D01*
X164142857Y-78646190D01*
X164095238Y-78550952D01*
X164047619Y-78503333D01*
X163952380Y-78455714D01*
X163809523Y-78455714D01*
X163714285Y-78503333D01*
X163666666Y-78550952D01*
X163619047Y-78646190D01*
X163619047Y-78931904D01*
X163666666Y-79027142D01*
X163714285Y-79074761D01*
X163809523Y-79122380D01*
X163952380Y-79122380D01*
X163190476Y-78455714D02*
X163190476Y-79122380D01*
X163190476Y-78550952D02*
X163142857Y-78503333D01*
X163047619Y-78455714D01*
X162904761Y-78455714D01*
X162809523Y-78503333D01*
X162761904Y-78598571D01*
X162761904Y-79122380D01*
X162285714Y-78455714D02*
X162285714Y-79122380D01*
X162285714Y-78550952D02*
X162238095Y-78503333D01*
X162142857Y-78455714D01*
X162000000Y-78455714D01*
X161904761Y-78503333D01*
X161857142Y-78598571D01*
X161857142Y-79122380D01*
X161428571Y-78217619D02*
X161380952Y-78170000D01*
X161285714Y-78122380D01*
X161047619Y-78122380D01*
X160952380Y-78170000D01*
X160904761Y-78217619D01*
X160857142Y-78312857D01*
X160857142Y-78408095D01*
X160904761Y-78550952D01*
X161476190Y-79122380D01*
X160857142Y-79122380D01*
%TO.C,Conn1*%
X138523809Y-79027142D02*
X138571428Y-79074761D01*
X138714285Y-79122380D01*
X138809523Y-79122380D01*
X138952380Y-79074761D01*
X139047619Y-78979523D01*
X139095238Y-78884285D01*
X139142857Y-78693809D01*
X139142857Y-78550952D01*
X139095238Y-78360476D01*
X139047619Y-78265238D01*
X138952380Y-78170000D01*
X138809523Y-78122380D01*
X138714285Y-78122380D01*
X138571428Y-78170000D01*
X138523809Y-78217619D01*
X137952380Y-79122380D02*
X138047619Y-79074761D01*
X138095238Y-79027142D01*
X138142857Y-78931904D01*
X138142857Y-78646190D01*
X138095238Y-78550952D01*
X138047619Y-78503333D01*
X137952380Y-78455714D01*
X137809523Y-78455714D01*
X137714285Y-78503333D01*
X137666666Y-78550952D01*
X137619047Y-78646190D01*
X137619047Y-78931904D01*
X137666666Y-79027142D01*
X137714285Y-79074761D01*
X137809523Y-79122380D01*
X137952380Y-79122380D01*
X137190476Y-78455714D02*
X137190476Y-79122380D01*
X137190476Y-78550952D02*
X137142857Y-78503333D01*
X137047619Y-78455714D01*
X136904761Y-78455714D01*
X136809523Y-78503333D01*
X136761904Y-78598571D01*
X136761904Y-79122380D01*
X136285714Y-78455714D02*
X136285714Y-79122380D01*
X136285714Y-78550952D02*
X136238095Y-78503333D01*
X136142857Y-78455714D01*
X136000000Y-78455714D01*
X135904761Y-78503333D01*
X135857142Y-78598571D01*
X135857142Y-79122380D01*
X134857142Y-79122380D02*
X135428571Y-79122380D01*
X135142857Y-79122380D02*
X135142857Y-78122380D01*
X135238095Y-78265238D01*
X135333333Y-78360476D01*
X135428571Y-78408095D01*
%TD*%
M02*
