M48
; DRILL file {KiCad (5.1.6)-1} date 08/09/21 18:08:16
; FORMAT={-:-/ absolute / inch / decimal}
; #@! TF.CreationDate,2021-08-09T18:08:16+02:00
; #@! TF.GenerationSoftware,Kicad,Pcbnew,(5.1.6)-1
; #@! TF.FileFunction,Plated,1,2,PTH
FMAT,2
INCH
T1C0.0354
T2C0.0394
T3C0.0433
T4C0.0480
T5C0.0559
T6C0.0563
%
G90
G05
T1
X5.3839Y-2.8051
X5.7988Y-2.8051
X6.3287Y-2.8051
X6.4287Y-2.8051
X6.0138Y-2.8051
X6.1138Y-2.8051
X5.4839Y-2.8051
X5.6988Y-2.8051
T2
X6.4173Y-3.189
X6.4173Y-3.289
X6.4173Y-3.389
X6.4173Y-3.489
X6.4173Y-3.589
X6.4173Y-3.689
X6.4173Y-3.789
X6.4173Y-3.889
X6.4173Y-3.989
X5.7531Y-1.6693
X5.8531Y-1.6693
X5.9531Y-1.6693
X6.0531Y-1.6693
X6.1024Y-3.1299
X5.9055Y-3.3465
X5.3937Y-3.189
X5.3937Y-3.289
X5.3937Y-3.389
X5.3937Y-3.489
X5.3937Y-3.589
X5.3937Y-3.689
X5.3937Y-3.789
X5.3937Y-3.889
X5.7283Y-3.1299
T3
X5.7776Y-3.7598
X5.7776Y-3.937
X6.0335Y-3.7598
X6.0335Y-3.937
T4
X5.9646Y-4.3406
X5.8465Y-4.7441
X5.9646Y-4.7441
X5.9646Y-5.2953
X5.8465Y-4.3406
T5
X6.0866Y-4.7441
X6.0866Y-5.2953
X5.7244Y-4.3406
X6.0866Y-4.3406
X5.7244Y-4.7441
T6
X6.4134Y-4.7441
X5.3976Y-4.3406
X6.4134Y-4.3406
X5.3976Y-4.7441
X6.4134Y-5.2953
T0
M30
