%TF.GenerationSoftware,KiCad,Pcbnew,(5.1.9)-1*%
%TF.CreationDate,2021-06-26T11:37:54+09:00*%
%TF.ProjectId,CHORD_VCO,43484f52-445f-4564-934f-2e6b69636164,rev?*%
%TF.SameCoordinates,Original*%
%TF.FileFunction,Copper,L2,Bot*%
%TF.FilePolarity,Positive*%
%FSLAX46Y46*%
G04 Gerber Fmt 4.6, Leading zero omitted, Abs format (unit mm)*
G04 Created by KiCad (PCBNEW (5.1.9)-1) date 2021-06-26 11:37:54*
%MOMM*%
%LPD*%
G01*
G04 APERTURE LIST*
%TA.AperFunction,ComponentPad*%
%ADD10O,1.600000X1.600000*%
%TD*%
%TA.AperFunction,ComponentPad*%
%ADD11C,1.600000*%
%TD*%
%TA.AperFunction,ComponentPad*%
%ADD12R,1.700000X1.700000*%
%TD*%
%TA.AperFunction,ComponentPad*%
%ADD13R,1.600000X1.600000*%
%TD*%
%TA.AperFunction,ComponentPad*%
%ADD14C,1.700000*%
%TD*%
%TA.AperFunction,ViaPad*%
%ADD15C,0.800000*%
%TD*%
%TA.AperFunction,Conductor*%
%ADD16C,0.400000*%
%TD*%
%TA.AperFunction,Conductor*%
%ADD17C,0.254000*%
%TD*%
%TA.AperFunction,Conductor*%
%ADD18C,0.100000*%
%TD*%
G04 APERTURE END LIST*
D10*
%TO.P,R11,2*%
%TO.N,Net-(C7-Pad1)*%
X118500000Y-103540000D03*
D11*
%TO.P,R11,1*%
%TO.N,D9*%
X118500000Y-101000000D03*
%TD*%
D10*
%TO.P,R9,2*%
%TO.N,A5*%
X115000000Y-110290000D03*
D11*
%TO.P,R9,1*%
%TO.N,GND*%
X115000000Y-107750000D03*
%TD*%
D10*
%TO.P,R4,2*%
%TO.N,Net-(J1-PadT)*%
X119000000Y-129460000D03*
D11*
%TO.P,R4,1*%
%TO.N,A7*%
X119000000Y-132000000D03*
%TD*%
D10*
%TO.P,R10,2*%
%TO.N,Net-(C7-Pad1)*%
X126250000Y-108040000D03*
D11*
%TO.P,R10,1*%
%TO.N,D10*%
X126250000Y-105500000D03*
%TD*%
D10*
%TO.P,R8,2*%
%TO.N,A5*%
X126250000Y-95040000D03*
D11*
%TO.P,R8,1*%
%TO.N,Net-(J3-PadT)*%
X126250000Y-92500000D03*
%TD*%
D10*
%TO.P,R2,2*%
%TO.N,Net-(R2-Pad2)*%
X103500000Y-109710000D03*
D11*
%TO.P,R2,1*%
%TO.N,A1*%
X103500000Y-112250000D03*
%TD*%
D10*
%TO.P,R1,2*%
%TO.N,Net-(R1-Pad2)*%
X103250000Y-98960000D03*
D11*
%TO.P,R1,1*%
%TO.N,A0*%
X103250000Y-101500000D03*
%TD*%
D10*
%TO.P,R12,2*%
%TO.N,Net-(C8-Pad1)*%
X127250000Y-77960000D03*
D11*
%TO.P,R12,1*%
%TO.N,Net-(C7-Pad1)*%
X127250000Y-80500000D03*
%TD*%
D10*
%TO.P,R3,2*%
%TO.N,Net-(R3-Pad2)*%
X103500000Y-81960000D03*
D11*
%TO.P,R3,1*%
%TO.N,A3*%
X103500000Y-84500000D03*
%TD*%
D10*
%TO.P,R13,2*%
%TO.N,Net-(C9-Pad2)*%
X127000000Y-62290000D03*
D11*
%TO.P,R13,1*%
%TO.N,Net-(D7-Pad2)*%
X127000000Y-59750000D03*
%TD*%
D10*
%TO.P,R6,2*%
%TO.N,A4*%
X113500000Y-63960000D03*
D11*
%TO.P,R6,1*%
%TO.N,Net-(J2-PadT)*%
X113500000Y-66500000D03*
%TD*%
D10*
%TO.P,R7,2*%
%TO.N,A4*%
X107250000Y-65790000D03*
D11*
%TO.P,R7,1*%
%TO.N,GND*%
X107250000Y-63250000D03*
%TD*%
D10*
%TO.P,R5,2*%
%TO.N,Net-(J1-PadT)*%
X102750000Y-55540000D03*
D11*
%TO.P,R5,1*%
%TO.N,GND*%
X102750000Y-53000000D03*
%TD*%
D12*
%TO.P,ROOT_FREG,1*%
%TO.N,Net-(R1-Pad2)*%
X121500000Y-86250000D03*
%TD*%
%TO.P,INVERSION,1*%
%TO.N,Net-(R2-Pad2)*%
X114750000Y-88500000D03*
%TD*%
%TO.P,CHORD/WAVE,1*%
%TO.N,Net-(R3-Pad2)*%
X108250000Y-85750000D03*
%TD*%
%TO.P,J3,1*%
%TO.N,Net-(J3-PadT)*%
X118000000Y-76000000D03*
%TD*%
%TO.P,J2,1*%
%TO.N,Net-(J2-PadT)*%
X110750000Y-76000000D03*
%TD*%
%TO.P,J1,1*%
%TO.N,Net-(J1-PadT)*%
X103250000Y-74000000D03*
%TD*%
%TO.P,J4,1*%
%TO.N,Net-(C9-Pad1)*%
X126000000Y-74000000D03*
%TD*%
D10*
%TO.P,U1,8*%
%TO.N,5V*%
X118620000Y-53250000D03*
%TO.P,U1,4*%
%TO.N,GND*%
X111000000Y-60870000D03*
%TO.P,U1,7*%
%TO.N,N/C*%
X118620000Y-55790000D03*
%TO.P,U1,3*%
%TO.N,Net-(C8-Pad1)*%
X111000000Y-58330000D03*
%TO.P,U1,6*%
%TO.N,N/C*%
X118620000Y-58330000D03*
%TO.P,U1,2*%
%TO.N,Net-(D7-Pad2)*%
X111000000Y-55790000D03*
%TO.P,U1,5*%
%TO.N,N/C*%
X118620000Y-60870000D03*
D13*
%TO.P,U1,1*%
%TO.N,Net-(D7-Pad2)*%
X111000000Y-53250000D03*
%TD*%
D14*
%TO.P,J5,10*%
%TO.N,EURO12V*%
X124410000Y-143710000D03*
%TO.P,J5,8*%
%TO.N,GND*%
X121870000Y-143710000D03*
%TO.P,J5,6*%
X119330000Y-143710000D03*
%TO.P,J5,4*%
X116790000Y-143710000D03*
%TO.P,J5,2*%
%TO.N,Net-(J5-Pad2)*%
X114250000Y-143710000D03*
%TO.P,J5,9*%
%TO.N,EURO12V*%
X124410000Y-146250000D03*
%TO.P,J5,7*%
%TO.N,GND*%
X121870000Y-146250000D03*
%TO.P,J5,5*%
X119330000Y-146250000D03*
%TO.P,J5,3*%
X116790000Y-146250000D03*
%TO.P,J5,1*%
%TO.N,Net-(J5-Pad1)*%
%TA.AperFunction,ComponentPad*%
G36*
G01*
X114850000Y-147100000D02*
X113650000Y-147100000D01*
G75*
G02*
X113400000Y-146850000I0J250000D01*
G01*
X113400000Y-145650000D01*
G75*
G02*
X113650000Y-145400000I250000J0D01*
G01*
X114850000Y-145400000D01*
G75*
G02*
X115100000Y-145650000I0J-250000D01*
G01*
X115100000Y-146850000D01*
G75*
G02*
X114850000Y-147100000I-250000J0D01*
G01*
G37*
%TD.AperFunction*%
%TD*%
D10*
%TO.P,D8,2*%
%TO.N,GND*%
X107250000Y-60370000D03*
D13*
%TO.P,D8,1*%
%TO.N,Net-(D7-Pad2)*%
X107250000Y-52750000D03*
%TD*%
D10*
%TO.P,D7,2*%
%TO.N,Net-(D7-Pad2)*%
X121750000Y-62620000D03*
D13*
%TO.P,D7,1*%
%TO.N,5V*%
X121750000Y-55000000D03*
%TD*%
D10*
%TO.P,D6,2*%
%TO.N,GND*%
X111000000Y-105630000D03*
D13*
%TO.P,D6,1*%
%TO.N,A5*%
X111000000Y-113250000D03*
%TD*%
D10*
%TO.P,D5,2*%
%TO.N,A5*%
X103750000Y-115380000D03*
D13*
%TO.P,D5,1*%
%TO.N,5V*%
X103750000Y-123000000D03*
%TD*%
D10*
%TO.P,D4,2*%
%TO.N,GND*%
X114750000Y-124370000D03*
D13*
%TO.P,D4,1*%
%TO.N,A4*%
X114750000Y-116750000D03*
%TD*%
D10*
%TO.P,D3,2*%
%TO.N,A4*%
X111000000Y-116630000D03*
D13*
%TO.P,D3,1*%
%TO.N,5V*%
X111000000Y-124250000D03*
%TD*%
D10*
%TO.P,D2,2*%
%TO.N,A7*%
X111000000Y-135120000D03*
D13*
%TO.P,D2,1*%
%TO.N,5V*%
X111000000Y-127500000D03*
%TD*%
D10*
%TO.P,D1,2*%
%TO.N,GND*%
X103750000Y-141620000D03*
D13*
%TO.P,D1,1*%
%TO.N,A7*%
X103750000Y-134000000D03*
%TD*%
D11*
%TO.P,C9,2*%
%TO.N,Net-(C9-Pad2)*%
X127000000Y-65000000D03*
%TO.P,C9,1*%
%TO.N,Net-(C9-Pad1)*%
X127000000Y-70000000D03*
%TD*%
%TO.P,C8,2*%
%TO.N,GND*%
X102750000Y-63250000D03*
%TO.P,C8,1*%
%TO.N,Net-(C8-Pad1)*%
X102750000Y-58250000D03*
%TD*%
%TO.P,C7,2*%
%TO.N,GND*%
X126250000Y-136000000D03*
%TO.P,C7,1*%
%TO.N,Net-(C7-Pad1)*%
X126250000Y-131000000D03*
%TD*%
%TO.P,C6,2*%
%TO.N,GND*%
X119000000Y-106500000D03*
%TO.P,C6,1*%
%TO.N,A5*%
X119000000Y-111500000D03*
%TD*%
%TO.P,C5,2*%
%TO.N,GND*%
X119000000Y-121750000D03*
%TO.P,C5,1*%
%TO.N,A4*%
X119000000Y-116750000D03*
%TD*%
%TO.P,C4,2*%
%TO.N,GND*%
X103750000Y-125750000D03*
%TO.P,C4,1*%
%TO.N,A7*%
X103750000Y-130750000D03*
%TD*%
%TO.P,C3,2*%
%TO.N,GND*%
X103250000Y-95250000D03*
%TO.P,C3,1*%
%TO.N,A3*%
X103250000Y-90250000D03*
%TD*%
%TO.P,C2,2*%
%TO.N,GND*%
X114750000Y-97500000D03*
%TO.P,C2,1*%
%TO.N,A1*%
X114750000Y-102500000D03*
%TD*%
%TO.P,C1,2*%
%TO.N,GND*%
X111000000Y-102500000D03*
%TO.P,C1,1*%
%TO.N,A0*%
X111000000Y-97500000D03*
%TD*%
D10*
%TO.P,A1,16*%
%TO.N,Net-(A1-Pad16)*%
X107260000Y-97690000D03*
%TO.P,A1,15*%
%TO.N,Net-(A1-Pad15)*%
X122500000Y-97690000D03*
%TO.P,A1,30*%
%TO.N,EURO12V*%
X107260000Y-133250000D03*
%TO.P,A1,14*%
%TO.N,Net-(A1-Pad14)*%
X122500000Y-100230000D03*
%TO.P,A1,29*%
%TO.N,GND*%
X107260000Y-130710000D03*
%TO.P,A1,13*%
%TO.N,D10*%
X122500000Y-102770000D03*
%TO.P,A1,28*%
%TO.N,Net-(A1-Pad28)*%
X107260000Y-128170000D03*
%TO.P,A1,12*%
%TO.N,D9*%
X122500000Y-105310000D03*
%TO.P,A1,27*%
%TO.N,5V*%
X107260000Y-125630000D03*
%TO.P,A1,11*%
%TO.N,Net-(A1-Pad11)*%
X122500000Y-107850000D03*
%TO.P,A1,26*%
%TO.N,A7*%
X107260000Y-123090000D03*
%TO.P,A1,10*%
%TO.N,Net-(A1-Pad10)*%
X122500000Y-110390000D03*
%TO.P,A1,25*%
%TO.N,Net-(A1-Pad25)*%
X107260000Y-120550000D03*
%TO.P,A1,9*%
%TO.N,Net-(A1-Pad9)*%
X122500000Y-112930000D03*
%TO.P,A1,24*%
%TO.N,A5*%
X107260000Y-118010000D03*
%TO.P,A1,8*%
%TO.N,Net-(A1-Pad8)*%
X122500000Y-115470000D03*
%TO.P,A1,23*%
%TO.N,A4*%
X107260000Y-115470000D03*
%TO.P,A1,7*%
%TO.N,Net-(A1-Pad7)*%
X122500000Y-118010000D03*
%TO.P,A1,22*%
%TO.N,A3*%
X107260000Y-112930000D03*
%TO.P,A1,6*%
%TO.N,Net-(A1-Pad6)*%
X122500000Y-120550000D03*
%TO.P,A1,21*%
%TO.N,Net-(A1-Pad21)*%
X107260000Y-110390000D03*
%TO.P,A1,5*%
%TO.N,Net-(A1-Pad5)*%
X122500000Y-123090000D03*
%TO.P,A1,20*%
%TO.N,A1*%
X107260000Y-107850000D03*
%TO.P,A1,4*%
%TO.N,GND*%
X122500000Y-125630000D03*
%TO.P,A1,19*%
%TO.N,A0*%
X107260000Y-105310000D03*
%TO.P,A1,3*%
%TO.N,Net-(A1-Pad3)*%
X122500000Y-128170000D03*
%TO.P,A1,18*%
%TO.N,Net-(A1-Pad18)*%
X107260000Y-102770000D03*
%TO.P,A1,2*%
%TO.N,Net-(A1-Pad2)*%
X122500000Y-130710000D03*
%TO.P,A1,17*%
%TO.N,Net-(A1-Pad17)*%
X107260000Y-100230000D03*
D13*
%TO.P,A1,1*%
%TO.N,Net-(A1-Pad1)*%
X122500000Y-133250000D03*
%TD*%
D15*
%TO.N,Net-(J1-PadT)*%
X112875000Y-118109400D03*
%TD*%
D16*
%TO.N,EURO12V*%
X107260000Y-133250000D02*
X113950000Y-133250000D01*
X113950000Y-133250000D02*
X124410000Y-143710000D01*
%TO.N,D10*%
X122500000Y-102770000D02*
X123800300Y-102770000D01*
X123800300Y-102770000D02*
X123800300Y-103050300D01*
X123800300Y-103050300D02*
X126250000Y-105500000D01*
%TO.N,D9*%
X122500000Y-105310000D02*
X118500000Y-101310000D01*
X118500000Y-101310000D02*
X118500000Y-101000000D01*
%TO.N,5V*%
X111000000Y-127500000D02*
X109699700Y-127500000D01*
X109699700Y-127500000D02*
X109699700Y-126769400D01*
X109699700Y-126769400D02*
X108560300Y-125630000D01*
X107260000Y-125630000D02*
X108560300Y-125630000D01*
X111000000Y-124250000D02*
X109699700Y-124250000D01*
X108560300Y-125630000D02*
X108560300Y-125389400D01*
X108560300Y-125389400D02*
X109699700Y-124250000D01*
%TO.N,A7*%
X103750000Y-130750000D02*
X105565000Y-128935000D01*
X105565000Y-128935000D02*
X105565000Y-124785000D01*
X105565000Y-124785000D02*
X107260000Y-123090000D01*
X103750000Y-134000000D02*
X105050300Y-134000000D01*
X105050300Y-134000000D02*
X106170300Y-135120000D01*
X106170300Y-135120000D02*
X111000000Y-135120000D01*
%TO.N,A5*%
X116904900Y-110290000D02*
X116904900Y-100676600D01*
X116904900Y-100676600D02*
X122541500Y-95040000D01*
X122541500Y-95040000D02*
X126250000Y-95040000D01*
X119000000Y-111500000D02*
X118114900Y-111500000D01*
X118114900Y-111500000D02*
X116904900Y-110290000D01*
X116904900Y-110290000D02*
X116300300Y-110290000D01*
X115000000Y-110290000D02*
X115000000Y-111590300D01*
X111000000Y-113250000D02*
X112300300Y-113250000D01*
X112300300Y-113250000D02*
X113960000Y-111590300D01*
X113960000Y-111590300D02*
X115000000Y-111590300D01*
X115000000Y-110290000D02*
X116300300Y-110290000D01*
X103750000Y-115380000D02*
X103750000Y-116680300D01*
X107260000Y-118010000D02*
X105959700Y-118010000D01*
X105959700Y-118010000D02*
X104630000Y-116680300D01*
X104630000Y-116680300D02*
X103750000Y-116680300D01*
%TO.N,A4*%
X113500000Y-63960000D02*
X112199700Y-63960000D01*
X107250000Y-65790000D02*
X110369700Y-65790000D01*
X110369700Y-65790000D02*
X112199700Y-63960000D01*
X111000000Y-116630000D02*
X112300300Y-116630000D01*
X114750000Y-116750000D02*
X112420300Y-116750000D01*
X112420300Y-116750000D02*
X112300300Y-116630000D01*
X119000000Y-116750000D02*
X114750000Y-116750000D01*
X107260000Y-115470000D02*
X108560300Y-115470000D01*
X111000000Y-116630000D02*
X109699700Y-116630000D01*
X108560300Y-115470000D02*
X108560300Y-115490600D01*
X108560300Y-115490600D02*
X109699700Y-116630000D01*
%TO.N,A1*%
X114750000Y-102500000D02*
X113185000Y-104065000D01*
X113185000Y-104065000D02*
X110720300Y-104065000D01*
X110720300Y-104065000D02*
X107260000Y-107525300D01*
X107260000Y-107525300D02*
X107260000Y-107850000D01*
X107260000Y-107850000D02*
X103500000Y-111610000D01*
X103500000Y-111610000D02*
X103500000Y-112250000D01*
%TO.N,A0*%
X107260000Y-105310000D02*
X105959700Y-105310000D01*
X105959700Y-105310000D02*
X105959700Y-104209700D01*
X105959700Y-104209700D02*
X103250000Y-101500000D01*
%TO.N,Net-(C8-Pad1)*%
X111000000Y-58330000D02*
X109699700Y-58330000D01*
X102750000Y-58250000D02*
X109619700Y-58250000D01*
X109619700Y-58250000D02*
X109699700Y-58330000D01*
X127250000Y-77960000D02*
X127250000Y-76659700D01*
X111000000Y-58330000D02*
X124640400Y-71970400D01*
X124640400Y-71970400D02*
X124640400Y-75064800D01*
X124640400Y-75064800D02*
X126235300Y-76659700D01*
X126235300Y-76659700D02*
X127250000Y-76659700D01*
%TO.N,Net-(C9-Pad1)*%
X127000000Y-70000000D02*
X126000000Y-71000000D01*
X126000000Y-71000000D02*
X126000000Y-74000000D01*
%TO.N,Net-(D7-Pad2)*%
X111000000Y-55790000D02*
X112300300Y-55790000D01*
X112300300Y-55790000D02*
X112300300Y-56440200D01*
X112300300Y-56440200D02*
X118480100Y-62620000D01*
X118480100Y-62620000D02*
X121750000Y-62620000D01*
X121750000Y-62620000D02*
X123050300Y-62620000D01*
X123050300Y-62620000D02*
X125920300Y-59750000D01*
X125920300Y-59750000D02*
X127000000Y-59750000D01*
%TO.N,Net-(R1-Pad2)*%
X103250000Y-98960000D02*
X104550300Y-98960000D01*
X121500000Y-86250000D02*
X120149700Y-86250000D01*
X120149700Y-86250000D02*
X110473500Y-95926200D01*
X110473500Y-95926200D02*
X107180000Y-95926200D01*
X107180000Y-95926200D02*
X104550300Y-98555900D01*
X104550300Y-98555900D02*
X104550300Y-98960000D01*
%TO.N,Net-(R2-Pad2)*%
X103500000Y-109710000D02*
X103500000Y-108409700D01*
X114750000Y-88500000D02*
X111870900Y-88500000D01*
X111870900Y-88500000D02*
X101930400Y-98440500D01*
X101930400Y-98440500D02*
X101930400Y-106840100D01*
X101930400Y-106840100D02*
X103500000Y-108409700D01*
%TO.N,Net-(R3-Pad2)*%
X108250000Y-85750000D02*
X106899700Y-85750000D01*
X106899700Y-85750000D02*
X106899700Y-85359700D01*
X106899700Y-85359700D02*
X103500000Y-81960000D01*
%TO.N,Net-(J1-PadT)*%
X102750000Y-55540000D02*
X102750000Y-56840300D01*
X103250000Y-74000000D02*
X103250000Y-72649700D01*
X103250000Y-72649700D02*
X101428500Y-70828200D01*
X101428500Y-70828200D02*
X101428500Y-57623000D01*
X101428500Y-57623000D02*
X102211200Y-56840300D01*
X102211200Y-56840300D02*
X102750000Y-56840300D01*
X112875000Y-118109400D02*
X119000000Y-124234400D01*
X119000000Y-124234400D02*
X119000000Y-129460000D01*
%TO.N,Net-(J2-PadT)*%
X110750000Y-76000000D02*
X110750000Y-69250000D01*
X110750000Y-69250000D02*
X113500000Y-66500000D01*
%TO.N,Net-(J3-PadT)*%
X118000000Y-76000000D02*
X118000000Y-77350300D01*
X118000000Y-77350300D02*
X126250000Y-85600300D01*
X126250000Y-85600300D02*
X126250000Y-92500000D01*
%TD*%
D17*
%TO.N,GND*%
X126191331Y-50769369D02*
X125825271Y-51013962D01*
X125513962Y-51325271D01*
X125269369Y-51691331D01*
X125100890Y-52098075D01*
X125015000Y-52529872D01*
X125015000Y-52970128D01*
X125100890Y-53401925D01*
X125269369Y-53808669D01*
X125513962Y-54174729D01*
X125825271Y-54486038D01*
X126191331Y-54730631D01*
X126598075Y-54899110D01*
X127029872Y-54985000D01*
X127470128Y-54985000D01*
X127901925Y-54899110D01*
X128308669Y-54730631D01*
X128674729Y-54486038D01*
X128986038Y-54174729D01*
X129230631Y-53808669D01*
X129340001Y-53544627D01*
X129340000Y-149340000D01*
X103544629Y-149340000D01*
X103808669Y-149230631D01*
X104174729Y-148986038D01*
X104486038Y-148674729D01*
X104730631Y-148308669D01*
X104899110Y-147901925D01*
X104985000Y-147470128D01*
X104985000Y-147029872D01*
X104899110Y-146598075D01*
X104730631Y-146191331D01*
X104486038Y-145825271D01*
X104310767Y-145650000D01*
X112761928Y-145650000D01*
X112761928Y-146850000D01*
X112778992Y-147023254D01*
X112829528Y-147189850D01*
X112911595Y-147343386D01*
X113022038Y-147477962D01*
X113156614Y-147588405D01*
X113310150Y-147670472D01*
X113476746Y-147721008D01*
X113650000Y-147738072D01*
X114850000Y-147738072D01*
X115023254Y-147721008D01*
X115189850Y-147670472D01*
X115343386Y-147588405D01*
X115477962Y-147477962D01*
X115588405Y-147343386D01*
X115623142Y-147278397D01*
X115941208Y-147278397D01*
X116018843Y-147527472D01*
X116282883Y-147653371D01*
X116566411Y-147725339D01*
X116858531Y-147740611D01*
X117148019Y-147698599D01*
X117423747Y-147600919D01*
X117561157Y-147527472D01*
X117638792Y-147278397D01*
X118481208Y-147278397D01*
X118558843Y-147527472D01*
X118822883Y-147653371D01*
X119106411Y-147725339D01*
X119398531Y-147740611D01*
X119688019Y-147698599D01*
X119963747Y-147600919D01*
X120101157Y-147527472D01*
X120178792Y-147278397D01*
X121021208Y-147278397D01*
X121098843Y-147527472D01*
X121362883Y-147653371D01*
X121646411Y-147725339D01*
X121938531Y-147740611D01*
X122228019Y-147698599D01*
X122503747Y-147600919D01*
X122641157Y-147527472D01*
X122718792Y-147278397D01*
X121870000Y-146429605D01*
X121021208Y-147278397D01*
X120178792Y-147278397D01*
X119330000Y-146429605D01*
X118481208Y-147278397D01*
X117638792Y-147278397D01*
X116790000Y-146429605D01*
X115941208Y-147278397D01*
X115623142Y-147278397D01*
X115670472Y-147189850D01*
X115703580Y-147080707D01*
X115761603Y-147098792D01*
X116610395Y-146250000D01*
X116969605Y-146250000D01*
X117818397Y-147098792D01*
X118060000Y-147023486D01*
X118301603Y-147098792D01*
X119150395Y-146250000D01*
X119509605Y-146250000D01*
X120358397Y-147098792D01*
X120600000Y-147023486D01*
X120841603Y-147098792D01*
X121690395Y-146250000D01*
X120841603Y-145401208D01*
X120600000Y-145476514D01*
X120358397Y-145401208D01*
X119509605Y-146250000D01*
X119150395Y-146250000D01*
X118301603Y-145401208D01*
X118060000Y-145476514D01*
X117818397Y-145401208D01*
X116969605Y-146250000D01*
X116610395Y-146250000D01*
X115761603Y-145401208D01*
X115703580Y-145419293D01*
X115670472Y-145310150D01*
X115588405Y-145156614D01*
X115477962Y-145022038D01*
X115343386Y-144911595D01*
X115216392Y-144843715D01*
X115321710Y-144738397D01*
X115941208Y-144738397D01*
X116016514Y-144980000D01*
X115941208Y-145221603D01*
X116790000Y-146070395D01*
X117638792Y-145221603D01*
X117563486Y-144980000D01*
X117638792Y-144738397D01*
X118481208Y-144738397D01*
X118556514Y-144980000D01*
X118481208Y-145221603D01*
X119330000Y-146070395D01*
X120178792Y-145221603D01*
X120103486Y-144980000D01*
X120178792Y-144738397D01*
X121021208Y-144738397D01*
X121096514Y-144980000D01*
X121021208Y-145221603D01*
X121870000Y-146070395D01*
X122718792Y-145221603D01*
X122643486Y-144980000D01*
X122718792Y-144738397D01*
X121870000Y-143889605D01*
X121021208Y-144738397D01*
X120178792Y-144738397D01*
X119330000Y-143889605D01*
X118481208Y-144738397D01*
X117638792Y-144738397D01*
X116790000Y-143889605D01*
X115941208Y-144738397D01*
X115321710Y-144738397D01*
X115403475Y-144656632D01*
X115519311Y-144483271D01*
X115761603Y-144558792D01*
X116610395Y-143710000D01*
X116969605Y-143710000D01*
X117818397Y-144558792D01*
X118060000Y-144483486D01*
X118301603Y-144558792D01*
X119150395Y-143710000D01*
X119509605Y-143710000D01*
X120358397Y-144558792D01*
X120600000Y-144483486D01*
X120841603Y-144558792D01*
X121690395Y-143710000D01*
X120841603Y-142861208D01*
X120600000Y-142936514D01*
X120358397Y-142861208D01*
X119509605Y-143710000D01*
X119150395Y-143710000D01*
X118301603Y-142861208D01*
X118060000Y-142936514D01*
X117818397Y-142861208D01*
X116969605Y-143710000D01*
X116610395Y-143710000D01*
X115761603Y-142861208D01*
X115519311Y-142936729D01*
X115403475Y-142763368D01*
X115321710Y-142681603D01*
X115941208Y-142681603D01*
X116790000Y-143530395D01*
X117638792Y-142681603D01*
X118481208Y-142681603D01*
X119330000Y-143530395D01*
X120178792Y-142681603D01*
X120101157Y-142432528D01*
X119837117Y-142306629D01*
X119553589Y-142234661D01*
X119261469Y-142219389D01*
X118971981Y-142261401D01*
X118696253Y-142359081D01*
X118558843Y-142432528D01*
X118481208Y-142681603D01*
X117638792Y-142681603D01*
X117561157Y-142432528D01*
X117297117Y-142306629D01*
X117013589Y-142234661D01*
X116721469Y-142219389D01*
X116431981Y-142261401D01*
X116156253Y-142359081D01*
X116018843Y-142432528D01*
X115941208Y-142681603D01*
X115321710Y-142681603D01*
X115196632Y-142556525D01*
X114953411Y-142394010D01*
X114683158Y-142282068D01*
X114396260Y-142225000D01*
X114103740Y-142225000D01*
X113816842Y-142282068D01*
X113546589Y-142394010D01*
X113303368Y-142556525D01*
X113096525Y-142763368D01*
X112934010Y-143006589D01*
X112822068Y-143276842D01*
X112765000Y-143563740D01*
X112765000Y-143856260D01*
X112822068Y-144143158D01*
X112934010Y-144413411D01*
X113096525Y-144656632D01*
X113283608Y-144843715D01*
X113156614Y-144911595D01*
X113022038Y-145022038D01*
X112911595Y-145156614D01*
X112829528Y-145310150D01*
X112778992Y-145476746D01*
X112761928Y-145650000D01*
X104310767Y-145650000D01*
X104174729Y-145513962D01*
X103808669Y-145269369D01*
X103401925Y-145100890D01*
X102970128Y-145015000D01*
X102529872Y-145015000D01*
X102098075Y-145100890D01*
X101691331Y-145269369D01*
X101325271Y-145513962D01*
X101013962Y-145825271D01*
X100769369Y-146191331D01*
X100660000Y-146455371D01*
X100660000Y-141969040D01*
X102358091Y-141969040D01*
X102452930Y-142233881D01*
X102597615Y-142475131D01*
X102786586Y-142683519D01*
X103012580Y-142851037D01*
X103266913Y-142971246D01*
X103400961Y-143011904D01*
X103623000Y-142889915D01*
X103623000Y-141747000D01*
X103877000Y-141747000D01*
X103877000Y-142889915D01*
X104099039Y-143011904D01*
X104233087Y-142971246D01*
X104487420Y-142851037D01*
X104713414Y-142683519D01*
X104902385Y-142475131D01*
X105047070Y-142233881D01*
X105141909Y-141969040D01*
X105020624Y-141747000D01*
X103877000Y-141747000D01*
X103623000Y-141747000D01*
X102479376Y-141747000D01*
X102358091Y-141969040D01*
X100660000Y-141969040D01*
X100660000Y-141270960D01*
X102358091Y-141270960D01*
X102479376Y-141493000D01*
X103623000Y-141493000D01*
X103623000Y-140350085D01*
X103877000Y-140350085D01*
X103877000Y-141493000D01*
X105020624Y-141493000D01*
X105141909Y-141270960D01*
X105047070Y-141006119D01*
X104902385Y-140764869D01*
X104713414Y-140556481D01*
X104487420Y-140388963D01*
X104233087Y-140268754D01*
X104099039Y-140228096D01*
X103877000Y-140350085D01*
X103623000Y-140350085D01*
X103400961Y-140228096D01*
X103266913Y-140268754D01*
X103012580Y-140388963D01*
X102786586Y-140556481D01*
X102597615Y-140764869D01*
X102452930Y-141006119D01*
X102358091Y-141270960D01*
X100660000Y-141270960D01*
X100660000Y-133200000D01*
X102311928Y-133200000D01*
X102311928Y-134800000D01*
X102324188Y-134924482D01*
X102360498Y-135044180D01*
X102419463Y-135154494D01*
X102498815Y-135251185D01*
X102595506Y-135330537D01*
X102705820Y-135389502D01*
X102825518Y-135425812D01*
X102950000Y-135438072D01*
X104550000Y-135438072D01*
X104674482Y-135425812D01*
X104794180Y-135389502D01*
X104904494Y-135330537D01*
X105001185Y-135251185D01*
X105055020Y-135185587D01*
X105550858Y-135681426D01*
X105577009Y-135713291D01*
X105668267Y-135788184D01*
X105704154Y-135817636D01*
X105849213Y-135895172D01*
X106006611Y-135942918D01*
X106170299Y-135959040D01*
X106211318Y-135955000D01*
X109832070Y-135955000D01*
X109885363Y-136034759D01*
X110085241Y-136234637D01*
X110320273Y-136391680D01*
X110581426Y-136499853D01*
X110858665Y-136555000D01*
X111141335Y-136555000D01*
X111418574Y-136499853D01*
X111679727Y-136391680D01*
X111914759Y-136234637D01*
X112114637Y-136034759D01*
X112271680Y-135799727D01*
X112379853Y-135538574D01*
X112435000Y-135261335D01*
X112435000Y-134978665D01*
X112379853Y-134701426D01*
X112271680Y-134440273D01*
X112114637Y-134205241D01*
X111994396Y-134085000D01*
X113604133Y-134085000D01*
X121746498Y-142227367D01*
X121511981Y-142261401D01*
X121236253Y-142359081D01*
X121098843Y-142432528D01*
X121021208Y-142681603D01*
X121870000Y-143530395D01*
X121884143Y-143516253D01*
X122063748Y-143695858D01*
X122049605Y-143710000D01*
X122898397Y-144558792D01*
X123140689Y-144483271D01*
X123256525Y-144656632D01*
X123463368Y-144863475D01*
X123637760Y-144980000D01*
X123463368Y-145096525D01*
X123256525Y-145303368D01*
X123140689Y-145476729D01*
X122898397Y-145401208D01*
X122049605Y-146250000D01*
X122898397Y-147098792D01*
X123140689Y-147023271D01*
X123256525Y-147196632D01*
X123463368Y-147403475D01*
X123706589Y-147565990D01*
X123976842Y-147677932D01*
X124263740Y-147735000D01*
X124556260Y-147735000D01*
X124843158Y-147677932D01*
X125113411Y-147565990D01*
X125356632Y-147403475D01*
X125563475Y-147196632D01*
X125725990Y-146953411D01*
X125837932Y-146683158D01*
X125895000Y-146396260D01*
X125895000Y-146103740D01*
X125837932Y-145816842D01*
X125725990Y-145546589D01*
X125563475Y-145303368D01*
X125356632Y-145096525D01*
X125182240Y-144980000D01*
X125356632Y-144863475D01*
X125563475Y-144656632D01*
X125725990Y-144413411D01*
X125837932Y-144143158D01*
X125895000Y-143856260D01*
X125895000Y-143563740D01*
X125837932Y-143276842D01*
X125725990Y-143006589D01*
X125563475Y-142763368D01*
X125356632Y-142556525D01*
X125113411Y-142394010D01*
X124843158Y-142282068D01*
X124556260Y-142225000D01*
X124263740Y-142225000D01*
X124132062Y-142251193D01*
X118873571Y-136992702D01*
X125436903Y-136992702D01*
X125508486Y-137236671D01*
X125763996Y-137357571D01*
X126038184Y-137426300D01*
X126320512Y-137440217D01*
X126600130Y-137398787D01*
X126866292Y-137303603D01*
X126991514Y-137236671D01*
X127063097Y-136992702D01*
X126250000Y-136179605D01*
X125436903Y-136992702D01*
X118873571Y-136992702D01*
X117951380Y-136070512D01*
X124809783Y-136070512D01*
X124851213Y-136350130D01*
X124946397Y-136616292D01*
X125013329Y-136741514D01*
X125257298Y-136813097D01*
X126070395Y-136000000D01*
X126429605Y-136000000D01*
X127242702Y-136813097D01*
X127486671Y-136741514D01*
X127607571Y-136486004D01*
X127676300Y-136211816D01*
X127690217Y-135929488D01*
X127648787Y-135649870D01*
X127553603Y-135383708D01*
X127486671Y-135258486D01*
X127242702Y-135186903D01*
X126429605Y-136000000D01*
X126070395Y-136000000D01*
X125257298Y-135186903D01*
X125013329Y-135258486D01*
X124892429Y-135513996D01*
X124823700Y-135788184D01*
X124809783Y-136070512D01*
X117951380Y-136070512D01*
X116888166Y-135007298D01*
X125436903Y-135007298D01*
X126250000Y-135820395D01*
X127063097Y-135007298D01*
X126991514Y-134763329D01*
X126736004Y-134642429D01*
X126461816Y-134573700D01*
X126179488Y-134559783D01*
X125899870Y-134601213D01*
X125633708Y-134696397D01*
X125508486Y-134763329D01*
X125436903Y-135007298D01*
X116888166Y-135007298D01*
X114569446Y-132688579D01*
X114543291Y-132656709D01*
X114416146Y-132552364D01*
X114271087Y-132474828D01*
X114113689Y-132427082D01*
X113991019Y-132415000D01*
X113991018Y-132415000D01*
X113950000Y-132410960D01*
X113908982Y-132415000D01*
X108427930Y-132415000D01*
X108374637Y-132335241D01*
X108174759Y-132135363D01*
X107939727Y-131978320D01*
X107929135Y-131973933D01*
X108115131Y-131862385D01*
X108323519Y-131673414D01*
X108491037Y-131447420D01*
X108611246Y-131193087D01*
X108651904Y-131059039D01*
X108529915Y-130837000D01*
X107387000Y-130837000D01*
X107387000Y-130857000D01*
X107133000Y-130857000D01*
X107133000Y-130837000D01*
X105990085Y-130837000D01*
X105868096Y-131059039D01*
X105908754Y-131193087D01*
X106028963Y-131447420D01*
X106196481Y-131673414D01*
X106404869Y-131862385D01*
X106590865Y-131973933D01*
X106580273Y-131978320D01*
X106345241Y-132135363D01*
X106145363Y-132335241D01*
X105988320Y-132570273D01*
X105880147Y-132831426D01*
X105825000Y-133108665D01*
X105825000Y-133391335D01*
X105875282Y-133644114D01*
X105669746Y-133438579D01*
X105643591Y-133406709D01*
X105516446Y-133302364D01*
X105371387Y-133224828D01*
X105213989Y-133177082D01*
X105185539Y-133174280D01*
X105175812Y-133075518D01*
X105139502Y-132955820D01*
X105080537Y-132845506D01*
X105001185Y-132748815D01*
X104904494Y-132669463D01*
X104794180Y-132610498D01*
X104674482Y-132574188D01*
X104550000Y-132561928D01*
X102950000Y-132561928D01*
X102825518Y-132574188D01*
X102705820Y-132610498D01*
X102595506Y-132669463D01*
X102498815Y-132748815D01*
X102419463Y-132845506D01*
X102360498Y-132955820D01*
X102324188Y-133075518D01*
X102311928Y-133200000D01*
X100660000Y-133200000D01*
X100660000Y-125820512D01*
X102309783Y-125820512D01*
X102351213Y-126100130D01*
X102446397Y-126366292D01*
X102513329Y-126491514D01*
X102757298Y-126563097D01*
X103570395Y-125750000D01*
X102757298Y-124936903D01*
X102513329Y-125008486D01*
X102392429Y-125263996D01*
X102323700Y-125538184D01*
X102309783Y-125820512D01*
X100660000Y-125820512D01*
X100660000Y-98440500D01*
X101091360Y-98440500D01*
X101095400Y-98481519D01*
X101095401Y-106799071D01*
X101091360Y-106840100D01*
X101107482Y-107003788D01*
X101155228Y-107161186D01*
X101232764Y-107306245D01*
X101232765Y-107306246D01*
X101337110Y-107433391D01*
X101368974Y-107459541D01*
X102545018Y-108635586D01*
X102385363Y-108795241D01*
X102228320Y-109030273D01*
X102120147Y-109291426D01*
X102065000Y-109568665D01*
X102065000Y-109851335D01*
X102120147Y-110128574D01*
X102228320Y-110389727D01*
X102385363Y-110624759D01*
X102585241Y-110824637D01*
X102817759Y-110980000D01*
X102585241Y-111135363D01*
X102385363Y-111335241D01*
X102228320Y-111570273D01*
X102120147Y-111831426D01*
X102065000Y-112108665D01*
X102065000Y-112391335D01*
X102120147Y-112668574D01*
X102228320Y-112929727D01*
X102385363Y-113164759D01*
X102585241Y-113364637D01*
X102820273Y-113521680D01*
X103081426Y-113629853D01*
X103358665Y-113685000D01*
X103641335Y-113685000D01*
X103918574Y-113629853D01*
X104179727Y-113521680D01*
X104414759Y-113364637D01*
X104614637Y-113164759D01*
X104771680Y-112929727D01*
X104879853Y-112668574D01*
X104935000Y-112391335D01*
X104935000Y-112108665D01*
X104879853Y-111831426D01*
X104771680Y-111570273D01*
X104751218Y-111539649D01*
X105825000Y-110465867D01*
X105825000Y-110531335D01*
X105880147Y-110808574D01*
X105988320Y-111069727D01*
X106145363Y-111304759D01*
X106345241Y-111504637D01*
X106577759Y-111660000D01*
X106345241Y-111815363D01*
X106145363Y-112015241D01*
X105988320Y-112250273D01*
X105880147Y-112511426D01*
X105825000Y-112788665D01*
X105825000Y-113071335D01*
X105880147Y-113348574D01*
X105988320Y-113609727D01*
X106145363Y-113844759D01*
X106345241Y-114044637D01*
X106577759Y-114200000D01*
X106345241Y-114355363D01*
X106145363Y-114555241D01*
X105988320Y-114790273D01*
X105880147Y-115051426D01*
X105825000Y-115328665D01*
X105825000Y-115611335D01*
X105880147Y-115888574D01*
X105988320Y-116149727D01*
X106145363Y-116384759D01*
X106345241Y-116584637D01*
X106577759Y-116740000D01*
X106345241Y-116895363D01*
X106185586Y-117055018D01*
X105249446Y-116118878D01*
X105223291Y-116087009D01*
X105096146Y-115982664D01*
X105061313Y-115964045D01*
X105129853Y-115798574D01*
X105185000Y-115521335D01*
X105185000Y-115238665D01*
X105129853Y-114961426D01*
X105021680Y-114700273D01*
X104864637Y-114465241D01*
X104664759Y-114265363D01*
X104429727Y-114108320D01*
X104168574Y-114000147D01*
X103891335Y-113945000D01*
X103608665Y-113945000D01*
X103331426Y-114000147D01*
X103070273Y-114108320D01*
X102835241Y-114265363D01*
X102635363Y-114465241D01*
X102478320Y-114700273D01*
X102370147Y-114961426D01*
X102315000Y-115238665D01*
X102315000Y-115521335D01*
X102370147Y-115798574D01*
X102478320Y-116059727D01*
X102635363Y-116294759D01*
X102835241Y-116494637D01*
X102915001Y-116547931D01*
X102915001Y-116639272D01*
X102910960Y-116680300D01*
X102927082Y-116843989D01*
X102974828Y-117001387D01*
X103052364Y-117146446D01*
X103156709Y-117273591D01*
X103283854Y-117377936D01*
X103428913Y-117455472D01*
X103586311Y-117503218D01*
X103708981Y-117515300D01*
X103708982Y-117515300D01*
X103750000Y-117519340D01*
X103791019Y-117515300D01*
X104284133Y-117515300D01*
X105340263Y-118571432D01*
X105366409Y-118603291D01*
X105493554Y-118707636D01*
X105638613Y-118785172D01*
X105796011Y-118832918D01*
X105918681Y-118845000D01*
X105918682Y-118845000D01*
X105959700Y-118849040D01*
X106000718Y-118845000D01*
X106092070Y-118845000D01*
X106145363Y-118924759D01*
X106345241Y-119124637D01*
X106577759Y-119280000D01*
X106345241Y-119435363D01*
X106145363Y-119635241D01*
X105988320Y-119870273D01*
X105880147Y-120131426D01*
X105825000Y-120408665D01*
X105825000Y-120691335D01*
X105880147Y-120968574D01*
X105988320Y-121229727D01*
X106145363Y-121464759D01*
X106345241Y-121664637D01*
X106577759Y-121820000D01*
X106345241Y-121975363D01*
X106145363Y-122175241D01*
X105988320Y-122410273D01*
X105880147Y-122671426D01*
X105825000Y-122948665D01*
X105825000Y-123231335D01*
X105843715Y-123325418D01*
X105145837Y-124023296D01*
X105175812Y-123924482D01*
X105188072Y-123800000D01*
X105188072Y-122200000D01*
X105175812Y-122075518D01*
X105139502Y-121955820D01*
X105080537Y-121845506D01*
X105001185Y-121748815D01*
X104904494Y-121669463D01*
X104794180Y-121610498D01*
X104674482Y-121574188D01*
X104550000Y-121561928D01*
X102950000Y-121561928D01*
X102825518Y-121574188D01*
X102705820Y-121610498D01*
X102595506Y-121669463D01*
X102498815Y-121748815D01*
X102419463Y-121845506D01*
X102360498Y-121955820D01*
X102324188Y-122075518D01*
X102311928Y-122200000D01*
X102311928Y-123800000D01*
X102324188Y-123924482D01*
X102360498Y-124044180D01*
X102419463Y-124154494D01*
X102498815Y-124251185D01*
X102595506Y-124330537D01*
X102705820Y-124389502D01*
X102825518Y-124425812D01*
X102950000Y-124438072D01*
X103156987Y-124438072D01*
X103133708Y-124446397D01*
X103008486Y-124513329D01*
X102936903Y-124757298D01*
X103750000Y-125570395D01*
X103764143Y-125556253D01*
X103943748Y-125735858D01*
X103929605Y-125750000D01*
X103943748Y-125764143D01*
X103764143Y-125943748D01*
X103750000Y-125929605D01*
X102936903Y-126742702D01*
X103008486Y-126986671D01*
X103263996Y-127107571D01*
X103538184Y-127176300D01*
X103820512Y-127190217D01*
X104100130Y-127148787D01*
X104366292Y-127053603D01*
X104491514Y-126986671D01*
X104563097Y-126742704D01*
X104679370Y-126858977D01*
X104730001Y-126808346D01*
X104730000Y-128589131D01*
X103985418Y-129333714D01*
X103891335Y-129315000D01*
X103608665Y-129315000D01*
X103331426Y-129370147D01*
X103070273Y-129478320D01*
X102835241Y-129635363D01*
X102635363Y-129835241D01*
X102478320Y-130070273D01*
X102370147Y-130331426D01*
X102315000Y-130608665D01*
X102315000Y-130891335D01*
X102370147Y-131168574D01*
X102478320Y-131429727D01*
X102635363Y-131664759D01*
X102835241Y-131864637D01*
X103070273Y-132021680D01*
X103331426Y-132129853D01*
X103608665Y-132185000D01*
X103891335Y-132185000D01*
X104168574Y-132129853D01*
X104429727Y-132021680D01*
X104664759Y-131864637D01*
X104864637Y-131664759D01*
X105021680Y-131429727D01*
X105129853Y-131168574D01*
X105185000Y-130891335D01*
X105185000Y-130608665D01*
X105166286Y-130514582D01*
X106126433Y-129554436D01*
X106158291Y-129528291D01*
X106262636Y-129401146D01*
X106331993Y-129271389D01*
X106345241Y-129284637D01*
X106580273Y-129441680D01*
X106590865Y-129446067D01*
X106404869Y-129557615D01*
X106196481Y-129746586D01*
X106028963Y-129972580D01*
X105908754Y-130226913D01*
X105868096Y-130360961D01*
X105990085Y-130583000D01*
X107133000Y-130583000D01*
X107133000Y-130563000D01*
X107387000Y-130563000D01*
X107387000Y-130583000D01*
X108529915Y-130583000D01*
X108651904Y-130360961D01*
X108611246Y-130226913D01*
X108491037Y-129972580D01*
X108323519Y-129746586D01*
X108115131Y-129557615D01*
X107929135Y-129446067D01*
X107939727Y-129441680D01*
X108174759Y-129284637D01*
X108374637Y-129084759D01*
X108531680Y-128849727D01*
X108639853Y-128588574D01*
X108695000Y-128311335D01*
X108695000Y-128028665D01*
X108639853Y-127751426D01*
X108531680Y-127490273D01*
X108374637Y-127255241D01*
X108174759Y-127055363D01*
X107942241Y-126900000D01*
X108174759Y-126744637D01*
X108334414Y-126584982D01*
X108864700Y-127115269D01*
X108864700Y-127458981D01*
X108860660Y-127500000D01*
X108876782Y-127663689D01*
X108924528Y-127821087D01*
X109002064Y-127966146D01*
X109053372Y-128028665D01*
X109106409Y-128093291D01*
X109233554Y-128197636D01*
X109378613Y-128275172D01*
X109536011Y-128322918D01*
X109564461Y-128325720D01*
X109574188Y-128424482D01*
X109610498Y-128544180D01*
X109669463Y-128654494D01*
X109748815Y-128751185D01*
X109845506Y-128830537D01*
X109955820Y-128889502D01*
X110075518Y-128925812D01*
X110200000Y-128938072D01*
X111800000Y-128938072D01*
X111924482Y-128925812D01*
X112044180Y-128889502D01*
X112154494Y-128830537D01*
X112251185Y-128751185D01*
X112330537Y-128654494D01*
X112389502Y-128544180D01*
X112425812Y-128424482D01*
X112438072Y-128300000D01*
X112438072Y-126700000D01*
X112425812Y-126575518D01*
X112389502Y-126455820D01*
X112330537Y-126345506D01*
X112251185Y-126248815D01*
X112154494Y-126169463D01*
X112044180Y-126110498D01*
X111924482Y-126074188D01*
X111800000Y-126061928D01*
X110200000Y-126061928D01*
X110175509Y-126064340D01*
X109620868Y-125509700D01*
X109694981Y-125435587D01*
X109748815Y-125501185D01*
X109845506Y-125580537D01*
X109955820Y-125639502D01*
X110075518Y-125675812D01*
X110200000Y-125688072D01*
X111800000Y-125688072D01*
X111924482Y-125675812D01*
X112044180Y-125639502D01*
X112154494Y-125580537D01*
X112251185Y-125501185D01*
X112330537Y-125404494D01*
X112389502Y-125294180D01*
X112425812Y-125174482D01*
X112438072Y-125050000D01*
X112438072Y-124719040D01*
X113358091Y-124719040D01*
X113452930Y-124983881D01*
X113597615Y-125225131D01*
X113786586Y-125433519D01*
X114012580Y-125601037D01*
X114266913Y-125721246D01*
X114400961Y-125761904D01*
X114623000Y-125639915D01*
X114623000Y-124497000D01*
X114877000Y-124497000D01*
X114877000Y-125639915D01*
X115099039Y-125761904D01*
X115233087Y-125721246D01*
X115487420Y-125601037D01*
X115713414Y-125433519D01*
X115902385Y-125225131D01*
X116047070Y-124983881D01*
X116141909Y-124719040D01*
X116020624Y-124497000D01*
X114877000Y-124497000D01*
X114623000Y-124497000D01*
X113479376Y-124497000D01*
X113358091Y-124719040D01*
X112438072Y-124719040D01*
X112438072Y-124020960D01*
X113358091Y-124020960D01*
X113479376Y-124243000D01*
X114623000Y-124243000D01*
X114623000Y-123100085D01*
X114877000Y-123100085D01*
X114877000Y-124243000D01*
X116020624Y-124243000D01*
X116141909Y-124020960D01*
X116047070Y-123756119D01*
X115902385Y-123514869D01*
X115713414Y-123306481D01*
X115487420Y-123138963D01*
X115233087Y-123018754D01*
X115099039Y-122978096D01*
X114877000Y-123100085D01*
X114623000Y-123100085D01*
X114400961Y-122978096D01*
X114266913Y-123018754D01*
X114012580Y-123138963D01*
X113786586Y-123306481D01*
X113597615Y-123514869D01*
X113452930Y-123756119D01*
X113358091Y-124020960D01*
X112438072Y-124020960D01*
X112438072Y-123450000D01*
X112425812Y-123325518D01*
X112389502Y-123205820D01*
X112330537Y-123095506D01*
X112251185Y-122998815D01*
X112154494Y-122919463D01*
X112044180Y-122860498D01*
X111924482Y-122824188D01*
X111800000Y-122811928D01*
X110200000Y-122811928D01*
X110075518Y-122824188D01*
X109955820Y-122860498D01*
X109845506Y-122919463D01*
X109748815Y-122998815D01*
X109669463Y-123095506D01*
X109610498Y-123205820D01*
X109574188Y-123325518D01*
X109564461Y-123424280D01*
X109536011Y-123427082D01*
X109378613Y-123474828D01*
X109233554Y-123552364D01*
X109106409Y-123656709D01*
X109080263Y-123688568D01*
X108214114Y-124554718D01*
X108174759Y-124515363D01*
X107942241Y-124360000D01*
X108174759Y-124204637D01*
X108374637Y-124004759D01*
X108531680Y-123769727D01*
X108639853Y-123508574D01*
X108695000Y-123231335D01*
X108695000Y-122948665D01*
X108639853Y-122671426D01*
X108531680Y-122410273D01*
X108374637Y-122175241D01*
X108174759Y-121975363D01*
X107942241Y-121820000D01*
X108174759Y-121664637D01*
X108374637Y-121464759D01*
X108531680Y-121229727D01*
X108639853Y-120968574D01*
X108695000Y-120691335D01*
X108695000Y-120408665D01*
X108639853Y-120131426D01*
X108531680Y-119870273D01*
X108374637Y-119635241D01*
X108174759Y-119435363D01*
X107942241Y-119280000D01*
X108174759Y-119124637D01*
X108374637Y-118924759D01*
X108531680Y-118689727D01*
X108639853Y-118428574D01*
X108695000Y-118151335D01*
X108695000Y-117868665D01*
X108639853Y-117591426D01*
X108531680Y-117330273D01*
X108374637Y-117095241D01*
X108174759Y-116895363D01*
X107942241Y-116740000D01*
X108174759Y-116584637D01*
X108324114Y-116435282D01*
X109080263Y-117191432D01*
X109106409Y-117223291D01*
X109138268Y-117249437D01*
X109138270Y-117249439D01*
X109233554Y-117327636D01*
X109378613Y-117405172D01*
X109536011Y-117452918D01*
X109699700Y-117469040D01*
X109740718Y-117465000D01*
X109832070Y-117465000D01*
X109885363Y-117544759D01*
X110085241Y-117744637D01*
X110320273Y-117901680D01*
X110581426Y-118009853D01*
X110858665Y-118065000D01*
X111141335Y-118065000D01*
X111418574Y-118009853D01*
X111679727Y-117901680D01*
X111902390Y-117752901D01*
X111879774Y-117807502D01*
X111840000Y-118007461D01*
X111840000Y-118211339D01*
X111879774Y-118411298D01*
X111957795Y-118599656D01*
X112071063Y-118769174D01*
X112215226Y-118913337D01*
X112384744Y-119026605D01*
X112573102Y-119104626D01*
X112718226Y-119133493D01*
X118165000Y-124580268D01*
X118165001Y-128292069D01*
X118085241Y-128345363D01*
X117885363Y-128545241D01*
X117728320Y-128780273D01*
X117620147Y-129041426D01*
X117565000Y-129318665D01*
X117565000Y-129601335D01*
X117620147Y-129878574D01*
X117728320Y-130139727D01*
X117885363Y-130374759D01*
X118085241Y-130574637D01*
X118317759Y-130730000D01*
X118085241Y-130885363D01*
X117885363Y-131085241D01*
X117728320Y-131320273D01*
X117620147Y-131581426D01*
X117565000Y-131858665D01*
X117565000Y-132141335D01*
X117620147Y-132418574D01*
X117728320Y-132679727D01*
X117885363Y-132914759D01*
X118085241Y-133114637D01*
X118320273Y-133271680D01*
X118581426Y-133379853D01*
X118858665Y-133435000D01*
X119141335Y-133435000D01*
X119418574Y-133379853D01*
X119679727Y-133271680D01*
X119914759Y-133114637D01*
X120114637Y-132914759D01*
X120271680Y-132679727D01*
X120366835Y-132450000D01*
X121061928Y-132450000D01*
X121061928Y-134050000D01*
X121074188Y-134174482D01*
X121110498Y-134294180D01*
X121169463Y-134404494D01*
X121248815Y-134501185D01*
X121345506Y-134580537D01*
X121455820Y-134639502D01*
X121575518Y-134675812D01*
X121700000Y-134688072D01*
X123300000Y-134688072D01*
X123424482Y-134675812D01*
X123544180Y-134639502D01*
X123654494Y-134580537D01*
X123751185Y-134501185D01*
X123830537Y-134404494D01*
X123889502Y-134294180D01*
X123925812Y-134174482D01*
X123938072Y-134050000D01*
X123938072Y-132450000D01*
X123925812Y-132325518D01*
X123889502Y-132205820D01*
X123830537Y-132095506D01*
X123751185Y-131998815D01*
X123654494Y-131919463D01*
X123544180Y-131860498D01*
X123424482Y-131824188D01*
X123416039Y-131823357D01*
X123614637Y-131624759D01*
X123771680Y-131389727D01*
X123879853Y-131128574D01*
X123933541Y-130858665D01*
X124815000Y-130858665D01*
X124815000Y-131141335D01*
X124870147Y-131418574D01*
X124978320Y-131679727D01*
X125135363Y-131914759D01*
X125335241Y-132114637D01*
X125570273Y-132271680D01*
X125831426Y-132379853D01*
X126108665Y-132435000D01*
X126391335Y-132435000D01*
X126668574Y-132379853D01*
X126929727Y-132271680D01*
X127164759Y-132114637D01*
X127364637Y-131914759D01*
X127521680Y-131679727D01*
X127629853Y-131418574D01*
X127685000Y-131141335D01*
X127685000Y-130858665D01*
X127629853Y-130581426D01*
X127521680Y-130320273D01*
X127364637Y-130085241D01*
X127164759Y-129885363D01*
X126929727Y-129728320D01*
X126668574Y-129620147D01*
X126391335Y-129565000D01*
X126108665Y-129565000D01*
X125831426Y-129620147D01*
X125570273Y-129728320D01*
X125335241Y-129885363D01*
X125135363Y-130085241D01*
X124978320Y-130320273D01*
X124870147Y-130581426D01*
X124815000Y-130858665D01*
X123933541Y-130858665D01*
X123935000Y-130851335D01*
X123935000Y-130568665D01*
X123879853Y-130291426D01*
X123771680Y-130030273D01*
X123614637Y-129795241D01*
X123414759Y-129595363D01*
X123182241Y-129440000D01*
X123414759Y-129284637D01*
X123614637Y-129084759D01*
X123771680Y-128849727D01*
X123879853Y-128588574D01*
X123935000Y-128311335D01*
X123935000Y-128028665D01*
X123879853Y-127751426D01*
X123771680Y-127490273D01*
X123614637Y-127255241D01*
X123414759Y-127055363D01*
X123179727Y-126898320D01*
X123169135Y-126893933D01*
X123355131Y-126782385D01*
X123563519Y-126593414D01*
X123731037Y-126367420D01*
X123851246Y-126113087D01*
X123891904Y-125979039D01*
X123769915Y-125757000D01*
X122627000Y-125757000D01*
X122627000Y-125777000D01*
X122373000Y-125777000D01*
X122373000Y-125757000D01*
X121230085Y-125757000D01*
X121108096Y-125979039D01*
X121148754Y-126113087D01*
X121268963Y-126367420D01*
X121436481Y-126593414D01*
X121644869Y-126782385D01*
X121830865Y-126893933D01*
X121820273Y-126898320D01*
X121585241Y-127055363D01*
X121385363Y-127255241D01*
X121228320Y-127490273D01*
X121120147Y-127751426D01*
X121065000Y-128028665D01*
X121065000Y-128311335D01*
X121120147Y-128588574D01*
X121228320Y-128849727D01*
X121385363Y-129084759D01*
X121585241Y-129284637D01*
X121817759Y-129440000D01*
X121585241Y-129595363D01*
X121385363Y-129795241D01*
X121228320Y-130030273D01*
X121120147Y-130291426D01*
X121065000Y-130568665D01*
X121065000Y-130851335D01*
X121120147Y-131128574D01*
X121228320Y-131389727D01*
X121385363Y-131624759D01*
X121583961Y-131823357D01*
X121575518Y-131824188D01*
X121455820Y-131860498D01*
X121345506Y-131919463D01*
X121248815Y-131998815D01*
X121169463Y-132095506D01*
X121110498Y-132205820D01*
X121074188Y-132325518D01*
X121061928Y-132450000D01*
X120366835Y-132450000D01*
X120379853Y-132418574D01*
X120435000Y-132141335D01*
X120435000Y-131858665D01*
X120379853Y-131581426D01*
X120271680Y-131320273D01*
X120114637Y-131085241D01*
X119914759Y-130885363D01*
X119682241Y-130730000D01*
X119914759Y-130574637D01*
X120114637Y-130374759D01*
X120271680Y-130139727D01*
X120379853Y-129878574D01*
X120435000Y-129601335D01*
X120435000Y-129318665D01*
X120379853Y-129041426D01*
X120271680Y-128780273D01*
X120114637Y-128545241D01*
X119914759Y-128345363D01*
X119835000Y-128292070D01*
X119835000Y-124275418D01*
X119839040Y-124234399D01*
X119822918Y-124070711D01*
X119775172Y-123913313D01*
X119697636Y-123768254D01*
X119687677Y-123756119D01*
X119593291Y-123641109D01*
X119561428Y-123614960D01*
X119128146Y-123181678D01*
X119350130Y-123148787D01*
X119616292Y-123053603D01*
X119741514Y-122986671D01*
X119813097Y-122742702D01*
X119000000Y-121929605D01*
X118985858Y-121943748D01*
X118806253Y-121764143D01*
X118820395Y-121750000D01*
X119179605Y-121750000D01*
X119992702Y-122563097D01*
X120236671Y-122491514D01*
X120357571Y-122236004D01*
X120426300Y-121961816D01*
X120440217Y-121679488D01*
X120398787Y-121399870D01*
X120303603Y-121133708D01*
X120236671Y-121008486D01*
X119992702Y-120936903D01*
X119179605Y-121750000D01*
X118820395Y-121750000D01*
X118007298Y-120936903D01*
X117763329Y-121008486D01*
X117642429Y-121263996D01*
X117573700Y-121538184D01*
X117569517Y-121623049D01*
X116703766Y-120757298D01*
X118186903Y-120757298D01*
X119000000Y-121570395D01*
X119813097Y-120757298D01*
X119741514Y-120513329D01*
X119486004Y-120392429D01*
X119211816Y-120323700D01*
X118929488Y-120309783D01*
X118649870Y-120351213D01*
X118383708Y-120446397D01*
X118258486Y-120513329D01*
X118186903Y-120757298D01*
X116703766Y-120757298D01*
X114134539Y-118188072D01*
X115550000Y-118188072D01*
X115674482Y-118175812D01*
X115794180Y-118139502D01*
X115904494Y-118080537D01*
X116001185Y-118001185D01*
X116080537Y-117904494D01*
X116139502Y-117794180D01*
X116175812Y-117674482D01*
X116184625Y-117585000D01*
X117832070Y-117585000D01*
X117885363Y-117664759D01*
X118085241Y-117864637D01*
X118320273Y-118021680D01*
X118581426Y-118129853D01*
X118858665Y-118185000D01*
X119141335Y-118185000D01*
X119418574Y-118129853D01*
X119679727Y-118021680D01*
X119914759Y-117864637D01*
X120114637Y-117664759D01*
X120271680Y-117429727D01*
X120379853Y-117168574D01*
X120435000Y-116891335D01*
X120435000Y-116608665D01*
X120379853Y-116331426D01*
X120271680Y-116070273D01*
X120114637Y-115835241D01*
X119914759Y-115635363D01*
X119679727Y-115478320D01*
X119418574Y-115370147D01*
X119141335Y-115315000D01*
X118858665Y-115315000D01*
X118581426Y-115370147D01*
X118320273Y-115478320D01*
X118085241Y-115635363D01*
X117885363Y-115835241D01*
X117832070Y-115915000D01*
X116184625Y-115915000D01*
X116175812Y-115825518D01*
X116139502Y-115705820D01*
X116080537Y-115595506D01*
X116001185Y-115498815D01*
X115904494Y-115419463D01*
X115794180Y-115360498D01*
X115674482Y-115324188D01*
X115550000Y-115311928D01*
X113950000Y-115311928D01*
X113825518Y-115324188D01*
X113705820Y-115360498D01*
X113595506Y-115419463D01*
X113498815Y-115498815D01*
X113419463Y-115595506D01*
X113360498Y-115705820D01*
X113324188Y-115825518D01*
X113315375Y-115915000D01*
X112733960Y-115915000D01*
X112621387Y-115854828D01*
X112463989Y-115807082D01*
X112341319Y-115795000D01*
X112341318Y-115795000D01*
X112300300Y-115790960D01*
X112259282Y-115795000D01*
X112167930Y-115795000D01*
X112114637Y-115715241D01*
X111914759Y-115515363D01*
X111679727Y-115358320D01*
X111418574Y-115250147D01*
X111141335Y-115195000D01*
X110858665Y-115195000D01*
X110581426Y-115250147D01*
X110320273Y-115358320D01*
X110085241Y-115515363D01*
X109925586Y-115675018D01*
X109261972Y-115011405D01*
X109257936Y-115003854D01*
X109153591Y-114876709D01*
X109026446Y-114772364D01*
X108881387Y-114694828D01*
X108723989Y-114647082D01*
X108601319Y-114635000D01*
X108601318Y-114635000D01*
X108560300Y-114630960D01*
X108519281Y-114635000D01*
X108427930Y-114635000D01*
X108374637Y-114555241D01*
X108174759Y-114355363D01*
X107942241Y-114200000D01*
X108174759Y-114044637D01*
X108374637Y-113844759D01*
X108531680Y-113609727D01*
X108639853Y-113348574D01*
X108695000Y-113071335D01*
X108695000Y-112788665D01*
X108639853Y-112511426D01*
X108531680Y-112250273D01*
X108374637Y-112015241D01*
X108174759Y-111815363D01*
X107942241Y-111660000D01*
X108174759Y-111504637D01*
X108374637Y-111304759D01*
X108531680Y-111069727D01*
X108639853Y-110808574D01*
X108695000Y-110531335D01*
X108695000Y-110248665D01*
X108639853Y-109971426D01*
X108531680Y-109710273D01*
X108374637Y-109475241D01*
X108174759Y-109275363D01*
X107942241Y-109120000D01*
X108174759Y-108964637D01*
X108374637Y-108764759D01*
X108531680Y-108529727D01*
X108639853Y-108268574D01*
X108695000Y-107991335D01*
X108695000Y-107820512D01*
X113559783Y-107820512D01*
X113601213Y-108100130D01*
X113696397Y-108366292D01*
X113763329Y-108491514D01*
X114007298Y-108563097D01*
X114820395Y-107750000D01*
X114007298Y-106936903D01*
X113763329Y-107008486D01*
X113642429Y-107263996D01*
X113573700Y-107538184D01*
X113559783Y-107820512D01*
X108695000Y-107820512D01*
X108695000Y-107708665D01*
X108639853Y-107431426D01*
X108609066Y-107357101D01*
X109710187Y-106255981D01*
X109847615Y-106485131D01*
X110036586Y-106693519D01*
X110262580Y-106861037D01*
X110516913Y-106981246D01*
X110650961Y-107021904D01*
X110873000Y-106899915D01*
X110873000Y-105757000D01*
X111127000Y-105757000D01*
X111127000Y-106899915D01*
X111349039Y-107021904D01*
X111483087Y-106981246D01*
X111737420Y-106861037D01*
X111877371Y-106757298D01*
X114186903Y-106757298D01*
X115000000Y-107570395D01*
X115813097Y-106757298D01*
X115741514Y-106513329D01*
X115486004Y-106392429D01*
X115211816Y-106323700D01*
X114929488Y-106309783D01*
X114649870Y-106351213D01*
X114383708Y-106446397D01*
X114258486Y-106513329D01*
X114186903Y-106757298D01*
X111877371Y-106757298D01*
X111963414Y-106693519D01*
X112152385Y-106485131D01*
X112297070Y-106243881D01*
X112391909Y-105979040D01*
X112270624Y-105757000D01*
X111127000Y-105757000D01*
X110873000Y-105757000D01*
X110853000Y-105757000D01*
X110853000Y-105503000D01*
X110873000Y-105503000D01*
X110873000Y-105483000D01*
X111127000Y-105483000D01*
X111127000Y-105503000D01*
X112270624Y-105503000D01*
X112391909Y-105280960D01*
X112297070Y-105016119D01*
X112227430Y-104900000D01*
X113143982Y-104900000D01*
X113185000Y-104904040D01*
X113226018Y-104900000D01*
X113226019Y-104900000D01*
X113348689Y-104887918D01*
X113506087Y-104840172D01*
X113651146Y-104762636D01*
X113778291Y-104658291D01*
X113804446Y-104626421D01*
X114514582Y-103916285D01*
X114608665Y-103935000D01*
X114891335Y-103935000D01*
X115168574Y-103879853D01*
X115429727Y-103771680D01*
X115664759Y-103614637D01*
X115864637Y-103414759D01*
X116021680Y-103179727D01*
X116069901Y-103063312D01*
X116069900Y-106959554D01*
X115992702Y-106936903D01*
X115179605Y-107750000D01*
X115992702Y-108563097D01*
X116069900Y-108540446D01*
X116069900Y-109330504D01*
X115914759Y-109175363D01*
X115680872Y-109019085D01*
X115741514Y-108986671D01*
X115813097Y-108742702D01*
X115000000Y-107929605D01*
X114186903Y-108742702D01*
X114258486Y-108986671D01*
X114322992Y-109017194D01*
X114320273Y-109018320D01*
X114085241Y-109175363D01*
X113885363Y-109375241D01*
X113728320Y-109610273D01*
X113620147Y-109871426D01*
X113565000Y-110148665D01*
X113565000Y-110431335D01*
X113620147Y-110708574D01*
X113661451Y-110808291D01*
X113638913Y-110815128D01*
X113493854Y-110892664D01*
X113366709Y-110997009D01*
X113340559Y-111028874D01*
X112305020Y-112064413D01*
X112251185Y-111998815D01*
X112154494Y-111919463D01*
X112044180Y-111860498D01*
X111924482Y-111824188D01*
X111800000Y-111811928D01*
X110200000Y-111811928D01*
X110075518Y-111824188D01*
X109955820Y-111860498D01*
X109845506Y-111919463D01*
X109748815Y-111998815D01*
X109669463Y-112095506D01*
X109610498Y-112205820D01*
X109574188Y-112325518D01*
X109561928Y-112450000D01*
X109561928Y-114050000D01*
X109574188Y-114174482D01*
X109610498Y-114294180D01*
X109669463Y-114404494D01*
X109748815Y-114501185D01*
X109845506Y-114580537D01*
X109955820Y-114639502D01*
X110075518Y-114675812D01*
X110200000Y-114688072D01*
X111800000Y-114688072D01*
X111924482Y-114675812D01*
X112044180Y-114639502D01*
X112154494Y-114580537D01*
X112251185Y-114501185D01*
X112330537Y-114404494D01*
X112389502Y-114294180D01*
X112425812Y-114174482D01*
X112435539Y-114075720D01*
X112463989Y-114072918D01*
X112621387Y-114025172D01*
X112766446Y-113947636D01*
X112893591Y-113843291D01*
X112919746Y-113811421D01*
X114305868Y-112425300D01*
X114958982Y-112425300D01*
X115000000Y-112429340D01*
X115163689Y-112413218D01*
X115321087Y-112365472D01*
X115466146Y-112287936D01*
X115593291Y-112183591D01*
X115697636Y-112056446D01*
X115775172Y-111911387D01*
X115822918Y-111753989D01*
X115835000Y-111631319D01*
X115839040Y-111590300D01*
X115835000Y-111549281D01*
X115835000Y-111457930D01*
X115914759Y-111404637D01*
X116114637Y-111204759D01*
X116167930Y-111125000D01*
X116559033Y-111125000D01*
X117495458Y-112061426D01*
X117521609Y-112093291D01*
X117648754Y-112197636D01*
X117791139Y-112273743D01*
X117885363Y-112414759D01*
X118085241Y-112614637D01*
X118320273Y-112771680D01*
X118581426Y-112879853D01*
X118858665Y-112935000D01*
X119141335Y-112935000D01*
X119418574Y-112879853D01*
X119679727Y-112771680D01*
X119914759Y-112614637D01*
X120114637Y-112414759D01*
X120271680Y-112179727D01*
X120379853Y-111918574D01*
X120435000Y-111641335D01*
X120435000Y-111358665D01*
X120379853Y-111081426D01*
X120271680Y-110820273D01*
X120114637Y-110585241D01*
X119914759Y-110385363D01*
X119679727Y-110228320D01*
X119418574Y-110120147D01*
X119141335Y-110065000D01*
X118858665Y-110065000D01*
X118581426Y-110120147D01*
X118320273Y-110228320D01*
X118142723Y-110346955D01*
X117739900Y-109944133D01*
X117739900Y-107492702D01*
X118186903Y-107492702D01*
X118258486Y-107736671D01*
X118513996Y-107857571D01*
X118788184Y-107926300D01*
X119070512Y-107940217D01*
X119350130Y-107898787D01*
X119616292Y-107803603D01*
X119741514Y-107736671D01*
X119813097Y-107492702D01*
X119000000Y-106679605D01*
X118186903Y-107492702D01*
X117739900Y-107492702D01*
X117739900Y-107197681D01*
X117763329Y-107241514D01*
X118007298Y-107313097D01*
X118820395Y-106500000D01*
X119179605Y-106500000D01*
X119992702Y-107313097D01*
X120236671Y-107241514D01*
X120357571Y-106986004D01*
X120426300Y-106711816D01*
X120440217Y-106429488D01*
X120398787Y-106149870D01*
X120303603Y-105883708D01*
X120236671Y-105758486D01*
X119992702Y-105686903D01*
X119179605Y-106500000D01*
X118820395Y-106500000D01*
X118007298Y-105686903D01*
X117763329Y-105758486D01*
X117739900Y-105808001D01*
X117739900Y-105507298D01*
X118186903Y-105507298D01*
X119000000Y-106320395D01*
X119813097Y-105507298D01*
X119741514Y-105263329D01*
X119486004Y-105142429D01*
X119211816Y-105073700D01*
X118929488Y-105059783D01*
X118649870Y-105101213D01*
X118383708Y-105196397D01*
X118258486Y-105263329D01*
X118186903Y-105507298D01*
X117739900Y-105507298D01*
X117739900Y-104757977D01*
X117820273Y-104811680D01*
X118081426Y-104919853D01*
X118358665Y-104975000D01*
X118641335Y-104975000D01*
X118918574Y-104919853D01*
X119179727Y-104811680D01*
X119414759Y-104654637D01*
X119614637Y-104454759D01*
X119771680Y-104219727D01*
X119879853Y-103958574D01*
X119894429Y-103885296D01*
X121083714Y-105074582D01*
X121065000Y-105168665D01*
X121065000Y-105451335D01*
X121120147Y-105728574D01*
X121228320Y-105989727D01*
X121385363Y-106224759D01*
X121585241Y-106424637D01*
X121817759Y-106580000D01*
X121585241Y-106735363D01*
X121385363Y-106935241D01*
X121228320Y-107170273D01*
X121120147Y-107431426D01*
X121065000Y-107708665D01*
X121065000Y-107991335D01*
X121120147Y-108268574D01*
X121228320Y-108529727D01*
X121385363Y-108764759D01*
X121585241Y-108964637D01*
X121817759Y-109120000D01*
X121585241Y-109275363D01*
X121385363Y-109475241D01*
X121228320Y-109710273D01*
X121120147Y-109971426D01*
X121065000Y-110248665D01*
X121065000Y-110531335D01*
X121120147Y-110808574D01*
X121228320Y-111069727D01*
X121385363Y-111304759D01*
X121585241Y-111504637D01*
X121817759Y-111660000D01*
X121585241Y-111815363D01*
X121385363Y-112015241D01*
X121228320Y-112250273D01*
X121120147Y-112511426D01*
X121065000Y-112788665D01*
X121065000Y-113071335D01*
X121120147Y-113348574D01*
X121228320Y-113609727D01*
X121385363Y-113844759D01*
X121585241Y-114044637D01*
X121817759Y-114200000D01*
X121585241Y-114355363D01*
X121385363Y-114555241D01*
X121228320Y-114790273D01*
X121120147Y-115051426D01*
X121065000Y-115328665D01*
X121065000Y-115611335D01*
X121120147Y-115888574D01*
X121228320Y-116149727D01*
X121385363Y-116384759D01*
X121585241Y-116584637D01*
X121817759Y-116740000D01*
X121585241Y-116895363D01*
X121385363Y-117095241D01*
X121228320Y-117330273D01*
X121120147Y-117591426D01*
X121065000Y-117868665D01*
X121065000Y-118151335D01*
X121120147Y-118428574D01*
X121228320Y-118689727D01*
X121385363Y-118924759D01*
X121585241Y-119124637D01*
X121817759Y-119280000D01*
X121585241Y-119435363D01*
X121385363Y-119635241D01*
X121228320Y-119870273D01*
X121120147Y-120131426D01*
X121065000Y-120408665D01*
X121065000Y-120691335D01*
X121120147Y-120968574D01*
X121228320Y-121229727D01*
X121385363Y-121464759D01*
X121585241Y-121664637D01*
X121817759Y-121820000D01*
X121585241Y-121975363D01*
X121385363Y-122175241D01*
X121228320Y-122410273D01*
X121120147Y-122671426D01*
X121065000Y-122948665D01*
X121065000Y-123231335D01*
X121120147Y-123508574D01*
X121228320Y-123769727D01*
X121385363Y-124004759D01*
X121585241Y-124204637D01*
X121820273Y-124361680D01*
X121830865Y-124366067D01*
X121644869Y-124477615D01*
X121436481Y-124666586D01*
X121268963Y-124892580D01*
X121148754Y-125146913D01*
X121108096Y-125280961D01*
X121230085Y-125503000D01*
X122373000Y-125503000D01*
X122373000Y-125483000D01*
X122627000Y-125483000D01*
X122627000Y-125503000D01*
X123769915Y-125503000D01*
X123891904Y-125280961D01*
X123851246Y-125146913D01*
X123731037Y-124892580D01*
X123563519Y-124666586D01*
X123355131Y-124477615D01*
X123169135Y-124366067D01*
X123179727Y-124361680D01*
X123414759Y-124204637D01*
X123614637Y-124004759D01*
X123771680Y-123769727D01*
X123879853Y-123508574D01*
X123935000Y-123231335D01*
X123935000Y-122948665D01*
X123879853Y-122671426D01*
X123771680Y-122410273D01*
X123614637Y-122175241D01*
X123414759Y-121975363D01*
X123182241Y-121820000D01*
X123414759Y-121664637D01*
X123614637Y-121464759D01*
X123771680Y-121229727D01*
X123879853Y-120968574D01*
X123935000Y-120691335D01*
X123935000Y-120408665D01*
X123879853Y-120131426D01*
X123771680Y-119870273D01*
X123614637Y-119635241D01*
X123414759Y-119435363D01*
X123182241Y-119280000D01*
X123414759Y-119124637D01*
X123614637Y-118924759D01*
X123771680Y-118689727D01*
X123879853Y-118428574D01*
X123935000Y-118151335D01*
X123935000Y-117868665D01*
X123879853Y-117591426D01*
X123771680Y-117330273D01*
X123614637Y-117095241D01*
X123414759Y-116895363D01*
X123182241Y-116740000D01*
X123414759Y-116584637D01*
X123614637Y-116384759D01*
X123771680Y-116149727D01*
X123879853Y-115888574D01*
X123935000Y-115611335D01*
X123935000Y-115328665D01*
X123879853Y-115051426D01*
X123771680Y-114790273D01*
X123614637Y-114555241D01*
X123414759Y-114355363D01*
X123182241Y-114200000D01*
X123414759Y-114044637D01*
X123614637Y-113844759D01*
X123771680Y-113609727D01*
X123879853Y-113348574D01*
X123935000Y-113071335D01*
X123935000Y-112788665D01*
X123879853Y-112511426D01*
X123771680Y-112250273D01*
X123614637Y-112015241D01*
X123414759Y-111815363D01*
X123182241Y-111660000D01*
X123414759Y-111504637D01*
X123614637Y-111304759D01*
X123771680Y-111069727D01*
X123879853Y-110808574D01*
X123935000Y-110531335D01*
X123935000Y-110248665D01*
X123879853Y-109971426D01*
X123771680Y-109710273D01*
X123614637Y-109475241D01*
X123414759Y-109275363D01*
X123182241Y-109120000D01*
X123414759Y-108964637D01*
X123614637Y-108764759D01*
X123771680Y-108529727D01*
X123879853Y-108268574D01*
X123935000Y-107991335D01*
X123935000Y-107708665D01*
X123879853Y-107431426D01*
X123771680Y-107170273D01*
X123614637Y-106935241D01*
X123414759Y-106735363D01*
X123182241Y-106580000D01*
X123414759Y-106424637D01*
X123614637Y-106224759D01*
X123771680Y-105989727D01*
X123879853Y-105728574D01*
X123935000Y-105451335D01*
X123935000Y-105168665D01*
X123879853Y-104891426D01*
X123771680Y-104630273D01*
X123614637Y-104395241D01*
X123414759Y-104195363D01*
X123182241Y-104040000D01*
X123414759Y-103884637D01*
X123434264Y-103865132D01*
X124833714Y-105264583D01*
X124815000Y-105358665D01*
X124815000Y-105641335D01*
X124870147Y-105918574D01*
X124978320Y-106179727D01*
X125135363Y-106414759D01*
X125335241Y-106614637D01*
X125567759Y-106770000D01*
X125335241Y-106925363D01*
X125135363Y-107125241D01*
X124978320Y-107360273D01*
X124870147Y-107621426D01*
X124815000Y-107898665D01*
X124815000Y-108181335D01*
X124870147Y-108458574D01*
X124978320Y-108719727D01*
X125135363Y-108954759D01*
X125335241Y-109154637D01*
X125570273Y-109311680D01*
X125831426Y-109419853D01*
X126108665Y-109475000D01*
X126391335Y-109475000D01*
X126668574Y-109419853D01*
X126929727Y-109311680D01*
X127164759Y-109154637D01*
X127364637Y-108954759D01*
X127521680Y-108719727D01*
X127629853Y-108458574D01*
X127685000Y-108181335D01*
X127685000Y-107898665D01*
X127629853Y-107621426D01*
X127521680Y-107360273D01*
X127364637Y-107125241D01*
X127164759Y-106925363D01*
X126932241Y-106770000D01*
X127164759Y-106614637D01*
X127364637Y-106414759D01*
X127521680Y-106179727D01*
X127629853Y-105918574D01*
X127685000Y-105641335D01*
X127685000Y-105358665D01*
X127629853Y-105081426D01*
X127521680Y-104820273D01*
X127364637Y-104585241D01*
X127164759Y-104385363D01*
X126929727Y-104228320D01*
X126668574Y-104120147D01*
X126391335Y-104065000D01*
X126108665Y-104065000D01*
X126014583Y-104083714D01*
X124632618Y-102701751D01*
X124623218Y-102606311D01*
X124575472Y-102448913D01*
X124497936Y-102303854D01*
X124393591Y-102176709D01*
X124266446Y-102072364D01*
X124121387Y-101994828D01*
X123963989Y-101947082D01*
X123841319Y-101935000D01*
X123841318Y-101935000D01*
X123800300Y-101930960D01*
X123759281Y-101935000D01*
X123667930Y-101935000D01*
X123614637Y-101855241D01*
X123414759Y-101655363D01*
X123182241Y-101500000D01*
X123414759Y-101344637D01*
X123614637Y-101144759D01*
X123771680Y-100909727D01*
X123879853Y-100648574D01*
X123935000Y-100371335D01*
X123935000Y-100088665D01*
X123879853Y-99811426D01*
X123771680Y-99550273D01*
X123614637Y-99315241D01*
X123414759Y-99115363D01*
X123182241Y-98960000D01*
X123414759Y-98804637D01*
X123614637Y-98604759D01*
X123771680Y-98369727D01*
X123879853Y-98108574D01*
X123935000Y-97831335D01*
X123935000Y-97548665D01*
X123879853Y-97271426D01*
X123771680Y-97010273D01*
X123614637Y-96775241D01*
X123414759Y-96575363D01*
X123179727Y-96418320D01*
X122918574Y-96310147D01*
X122641335Y-96255000D01*
X122507368Y-96255000D01*
X122887368Y-95875000D01*
X125082070Y-95875000D01*
X125135363Y-95954759D01*
X125335241Y-96154637D01*
X125570273Y-96311680D01*
X125831426Y-96419853D01*
X126108665Y-96475000D01*
X126391335Y-96475000D01*
X126668574Y-96419853D01*
X126929727Y-96311680D01*
X127164759Y-96154637D01*
X127364637Y-95954759D01*
X127521680Y-95719727D01*
X127629853Y-95458574D01*
X127685000Y-95181335D01*
X127685000Y-94898665D01*
X127629853Y-94621426D01*
X127521680Y-94360273D01*
X127364637Y-94125241D01*
X127164759Y-93925363D01*
X126932241Y-93770000D01*
X127164759Y-93614637D01*
X127364637Y-93414759D01*
X127521680Y-93179727D01*
X127629853Y-92918574D01*
X127685000Y-92641335D01*
X127685000Y-92358665D01*
X127629853Y-92081426D01*
X127521680Y-91820273D01*
X127364637Y-91585241D01*
X127164759Y-91385363D01*
X127085000Y-91332070D01*
X127085000Y-85641318D01*
X127089040Y-85600300D01*
X127072918Y-85436611D01*
X127025172Y-85279213D01*
X126947636Y-85134154D01*
X126869439Y-85038870D01*
X126869437Y-85038868D01*
X126843291Y-85007009D01*
X126811433Y-84980864D01*
X119208125Y-77377557D01*
X119301185Y-77301185D01*
X119380537Y-77204494D01*
X119439502Y-77094180D01*
X119475812Y-76974482D01*
X119488072Y-76850000D01*
X119488072Y-75150000D01*
X119475812Y-75025518D01*
X119439502Y-74905820D01*
X119380537Y-74795506D01*
X119301185Y-74698815D01*
X119204494Y-74619463D01*
X119094180Y-74560498D01*
X118974482Y-74524188D01*
X118850000Y-74511928D01*
X117150000Y-74511928D01*
X117025518Y-74524188D01*
X116905820Y-74560498D01*
X116795506Y-74619463D01*
X116698815Y-74698815D01*
X116619463Y-74795506D01*
X116560498Y-74905820D01*
X116524188Y-75025518D01*
X116511928Y-75150000D01*
X116511928Y-76850000D01*
X116524188Y-76974482D01*
X116560498Y-77094180D01*
X116619463Y-77204494D01*
X116698815Y-77301185D01*
X116795506Y-77380537D01*
X116905820Y-77439502D01*
X117025518Y-77475812D01*
X117150000Y-77488072D01*
X117174529Y-77488072D01*
X117177082Y-77513988D01*
X117224828Y-77671386D01*
X117224829Y-77671387D01*
X117302365Y-77816446D01*
X117406710Y-77943591D01*
X117438574Y-77969741D01*
X125415000Y-85946169D01*
X125415001Y-91332069D01*
X125335241Y-91385363D01*
X125135363Y-91585241D01*
X124978320Y-91820273D01*
X124870147Y-92081426D01*
X124815000Y-92358665D01*
X124815000Y-92641335D01*
X124870147Y-92918574D01*
X124978320Y-93179727D01*
X125135363Y-93414759D01*
X125335241Y-93614637D01*
X125567759Y-93770000D01*
X125335241Y-93925363D01*
X125135363Y-94125241D01*
X125082070Y-94205000D01*
X122582518Y-94205000D01*
X122541499Y-94200960D01*
X122500481Y-94205000D01*
X122377811Y-94217082D01*
X122220413Y-94264828D01*
X122075354Y-94342364D01*
X121948209Y-94446709D01*
X121922059Y-94478573D01*
X116343474Y-100057159D01*
X116311610Y-100083309D01*
X116285462Y-100115171D01*
X116207264Y-100210455D01*
X116129728Y-100355514D01*
X116081982Y-100512912D01*
X116065860Y-100676600D01*
X116069901Y-100717629D01*
X116069901Y-101936689D01*
X116021680Y-101820273D01*
X115864637Y-101585241D01*
X115664759Y-101385363D01*
X115429727Y-101228320D01*
X115168574Y-101120147D01*
X114891335Y-101065000D01*
X114608665Y-101065000D01*
X114331426Y-101120147D01*
X114070273Y-101228320D01*
X113835241Y-101385363D01*
X113635363Y-101585241D01*
X113478320Y-101820273D01*
X113370147Y-102081426D01*
X113315000Y-102358665D01*
X113315000Y-102641335D01*
X113333715Y-102735418D01*
X112839133Y-103230000D01*
X112242119Y-103230000D01*
X112357571Y-102986004D01*
X112426300Y-102711816D01*
X112440217Y-102429488D01*
X112398787Y-102149870D01*
X112303603Y-101883708D01*
X112236671Y-101758486D01*
X111992702Y-101686903D01*
X111179605Y-102500000D01*
X111193748Y-102514143D01*
X111014143Y-102693748D01*
X111000000Y-102679605D01*
X110378942Y-103300663D01*
X110254154Y-103367364D01*
X110127009Y-103471709D01*
X110100861Y-103503571D01*
X108651990Y-104952442D01*
X108639853Y-104891426D01*
X108531680Y-104630273D01*
X108374637Y-104395241D01*
X108174759Y-104195363D01*
X107942241Y-104040000D01*
X108174759Y-103884637D01*
X108374637Y-103684759D01*
X108531680Y-103449727D01*
X108639853Y-103188574D01*
X108695000Y-102911335D01*
X108695000Y-102628665D01*
X108683433Y-102570512D01*
X109559783Y-102570512D01*
X109601213Y-102850130D01*
X109696397Y-103116292D01*
X109763329Y-103241514D01*
X110007298Y-103313097D01*
X110820395Y-102500000D01*
X110007298Y-101686903D01*
X109763329Y-101758486D01*
X109642429Y-102013996D01*
X109573700Y-102288184D01*
X109559783Y-102570512D01*
X108683433Y-102570512D01*
X108639853Y-102351426D01*
X108531680Y-102090273D01*
X108374637Y-101855241D01*
X108174759Y-101655363D01*
X107953164Y-101507298D01*
X110186903Y-101507298D01*
X111000000Y-102320395D01*
X111813097Y-101507298D01*
X111741514Y-101263329D01*
X111486004Y-101142429D01*
X111211816Y-101073700D01*
X110929488Y-101059783D01*
X110649870Y-101101213D01*
X110383708Y-101196397D01*
X110258486Y-101263329D01*
X110186903Y-101507298D01*
X107953164Y-101507298D01*
X107942241Y-101500000D01*
X108174759Y-101344637D01*
X108374637Y-101144759D01*
X108531680Y-100909727D01*
X108639853Y-100648574D01*
X108695000Y-100371335D01*
X108695000Y-100088665D01*
X108639853Y-99811426D01*
X108531680Y-99550273D01*
X108374637Y-99315241D01*
X108174759Y-99115363D01*
X107942241Y-98960000D01*
X108174759Y-98804637D01*
X108374637Y-98604759D01*
X108531680Y-98369727D01*
X108639853Y-98108574D01*
X108695000Y-97831335D01*
X108695000Y-97548665D01*
X108639853Y-97271426D01*
X108531680Y-97010273D01*
X108374637Y-96775241D01*
X108360596Y-96761200D01*
X109767791Y-96761200D01*
X109728320Y-96820273D01*
X109620147Y-97081426D01*
X109565000Y-97358665D01*
X109565000Y-97641335D01*
X109620147Y-97918574D01*
X109728320Y-98179727D01*
X109885363Y-98414759D01*
X110085241Y-98614637D01*
X110320273Y-98771680D01*
X110581426Y-98879853D01*
X110858665Y-98935000D01*
X111141335Y-98935000D01*
X111418574Y-98879853D01*
X111679727Y-98771680D01*
X111914759Y-98614637D01*
X112036694Y-98492702D01*
X113936903Y-98492702D01*
X114008486Y-98736671D01*
X114263996Y-98857571D01*
X114538184Y-98926300D01*
X114820512Y-98940217D01*
X115100130Y-98898787D01*
X115366292Y-98803603D01*
X115491514Y-98736671D01*
X115563097Y-98492702D01*
X114750000Y-97679605D01*
X113936903Y-98492702D01*
X112036694Y-98492702D01*
X112114637Y-98414759D01*
X112271680Y-98179727D01*
X112379853Y-97918574D01*
X112435000Y-97641335D01*
X112435000Y-97570512D01*
X113309783Y-97570512D01*
X113351213Y-97850130D01*
X113446397Y-98116292D01*
X113513329Y-98241514D01*
X113757298Y-98313097D01*
X114570395Y-97500000D01*
X114929605Y-97500000D01*
X115742702Y-98313097D01*
X115986671Y-98241514D01*
X116107571Y-97986004D01*
X116176300Y-97711816D01*
X116190217Y-97429488D01*
X116148787Y-97149870D01*
X116053603Y-96883708D01*
X115986671Y-96758486D01*
X115742702Y-96686903D01*
X114929605Y-97500000D01*
X114570395Y-97500000D01*
X113757298Y-96686903D01*
X113513329Y-96758486D01*
X113392429Y-97013996D01*
X113323700Y-97288184D01*
X113309783Y-97570512D01*
X112435000Y-97570512D01*
X112435000Y-97358665D01*
X112379853Y-97081426D01*
X112271680Y-96820273D01*
X112114637Y-96585241D01*
X112036694Y-96507298D01*
X113936903Y-96507298D01*
X114750000Y-97320395D01*
X115563097Y-96507298D01*
X115491514Y-96263329D01*
X115236004Y-96142429D01*
X114961816Y-96073700D01*
X114679488Y-96059783D01*
X114399870Y-96101213D01*
X114133708Y-96196397D01*
X114008486Y-96263329D01*
X113936903Y-96507298D01*
X112036694Y-96507298D01*
X111914759Y-96385363D01*
X111679727Y-96228320D01*
X111448164Y-96132403D01*
X120122443Y-87458125D01*
X120198815Y-87551185D01*
X120295506Y-87630537D01*
X120405820Y-87689502D01*
X120525518Y-87725812D01*
X120650000Y-87738072D01*
X122350000Y-87738072D01*
X122474482Y-87725812D01*
X122594180Y-87689502D01*
X122704494Y-87630537D01*
X122801185Y-87551185D01*
X122880537Y-87454494D01*
X122939502Y-87344180D01*
X122975812Y-87224482D01*
X122988072Y-87100000D01*
X122988072Y-85400000D01*
X122975812Y-85275518D01*
X122939502Y-85155820D01*
X122880537Y-85045506D01*
X122801185Y-84948815D01*
X122704494Y-84869463D01*
X122594180Y-84810498D01*
X122474482Y-84774188D01*
X122350000Y-84761928D01*
X120650000Y-84761928D01*
X120525518Y-84774188D01*
X120405820Y-84810498D01*
X120295506Y-84869463D01*
X120198815Y-84948815D01*
X120119463Y-85045506D01*
X120060498Y-85155820D01*
X120024188Y-85275518D01*
X120011928Y-85400000D01*
X120011928Y-85424529D01*
X119986011Y-85427082D01*
X119828613Y-85474828D01*
X119683554Y-85552364D01*
X119556409Y-85656709D01*
X119530259Y-85688573D01*
X116238072Y-88980760D01*
X116238072Y-87650000D01*
X116225812Y-87525518D01*
X116189502Y-87405820D01*
X116130537Y-87295506D01*
X116051185Y-87198815D01*
X115954494Y-87119463D01*
X115844180Y-87060498D01*
X115724482Y-87024188D01*
X115600000Y-87011928D01*
X113900000Y-87011928D01*
X113775518Y-87024188D01*
X113655820Y-87060498D01*
X113545506Y-87119463D01*
X113448815Y-87198815D01*
X113369463Y-87295506D01*
X113310498Y-87405820D01*
X113274188Y-87525518D01*
X113261928Y-87650000D01*
X113261928Y-87665000D01*
X111911918Y-87665000D01*
X111870900Y-87660960D01*
X111829881Y-87665000D01*
X111707211Y-87677082D01*
X111549813Y-87724828D01*
X111404754Y-87802364D01*
X111277609Y-87906709D01*
X111251463Y-87938568D01*
X104554320Y-94635713D01*
X104553603Y-94633708D01*
X104486671Y-94508486D01*
X104242702Y-94436903D01*
X103429605Y-95250000D01*
X103443748Y-95264143D01*
X103264143Y-95443748D01*
X103250000Y-95429605D01*
X102436903Y-96242702D01*
X102508486Y-96486671D01*
X102640769Y-96549264D01*
X101368979Y-97821054D01*
X101337109Y-97847209D01*
X101242404Y-97962609D01*
X101232764Y-97974355D01*
X101155228Y-98119414D01*
X101107482Y-98276812D01*
X101091360Y-98440500D01*
X100660000Y-98440500D01*
X100660000Y-95320512D01*
X101809783Y-95320512D01*
X101851213Y-95600130D01*
X101946397Y-95866292D01*
X102013329Y-95991514D01*
X102257298Y-96063097D01*
X103070395Y-95250000D01*
X102257298Y-94436903D01*
X102013329Y-94508486D01*
X101892429Y-94763996D01*
X101823700Y-95038184D01*
X101809783Y-95320512D01*
X100660000Y-95320512D01*
X100660000Y-94257298D01*
X102436903Y-94257298D01*
X103250000Y-95070395D01*
X104063097Y-94257298D01*
X103991514Y-94013329D01*
X103736004Y-93892429D01*
X103461816Y-93823700D01*
X103179488Y-93809783D01*
X102899870Y-93851213D01*
X102633708Y-93946397D01*
X102508486Y-94013329D01*
X102436903Y-94257298D01*
X100660000Y-94257298D01*
X100660000Y-90108665D01*
X101815000Y-90108665D01*
X101815000Y-90391335D01*
X101870147Y-90668574D01*
X101978320Y-90929727D01*
X102135363Y-91164759D01*
X102335241Y-91364637D01*
X102570273Y-91521680D01*
X102831426Y-91629853D01*
X103108665Y-91685000D01*
X103391335Y-91685000D01*
X103668574Y-91629853D01*
X103929727Y-91521680D01*
X104164759Y-91364637D01*
X104364637Y-91164759D01*
X104521680Y-90929727D01*
X104629853Y-90668574D01*
X104685000Y-90391335D01*
X104685000Y-90108665D01*
X104629853Y-89831426D01*
X104521680Y-89570273D01*
X104364637Y-89335241D01*
X104164759Y-89135363D01*
X103929727Y-88978320D01*
X103668574Y-88870147D01*
X103391335Y-88815000D01*
X103108665Y-88815000D01*
X102831426Y-88870147D01*
X102570273Y-88978320D01*
X102335241Y-89135363D01*
X102135363Y-89335241D01*
X101978320Y-89570273D01*
X101870147Y-89831426D01*
X101815000Y-90108665D01*
X100660000Y-90108665D01*
X100660000Y-81818665D01*
X102065000Y-81818665D01*
X102065000Y-82101335D01*
X102120147Y-82378574D01*
X102228320Y-82639727D01*
X102385363Y-82874759D01*
X102585241Y-83074637D01*
X102817759Y-83230000D01*
X102585241Y-83385363D01*
X102385363Y-83585241D01*
X102228320Y-83820273D01*
X102120147Y-84081426D01*
X102065000Y-84358665D01*
X102065000Y-84641335D01*
X102120147Y-84918574D01*
X102228320Y-85179727D01*
X102385363Y-85414759D01*
X102585241Y-85614637D01*
X102820273Y-85771680D01*
X103081426Y-85879853D01*
X103358665Y-85935000D01*
X103641335Y-85935000D01*
X103918574Y-85879853D01*
X104179727Y-85771680D01*
X104414759Y-85614637D01*
X104614637Y-85414759D01*
X104771680Y-85179727D01*
X104879853Y-84918574D01*
X104935000Y-84641335D01*
X104935000Y-84575868D01*
X106064700Y-85705569D01*
X106064700Y-85708981D01*
X106060660Y-85750000D01*
X106076782Y-85913689D01*
X106124528Y-86071087D01*
X106202064Y-86216146D01*
X106269187Y-86297936D01*
X106306409Y-86343291D01*
X106433554Y-86447636D01*
X106578613Y-86525172D01*
X106736011Y-86572918D01*
X106761928Y-86575471D01*
X106761928Y-86600000D01*
X106774188Y-86724482D01*
X106810498Y-86844180D01*
X106869463Y-86954494D01*
X106948815Y-87051185D01*
X107045506Y-87130537D01*
X107155820Y-87189502D01*
X107275518Y-87225812D01*
X107400000Y-87238072D01*
X109100000Y-87238072D01*
X109224482Y-87225812D01*
X109344180Y-87189502D01*
X109454494Y-87130537D01*
X109551185Y-87051185D01*
X109630537Y-86954494D01*
X109689502Y-86844180D01*
X109725812Y-86724482D01*
X109738072Y-86600000D01*
X109738072Y-84900000D01*
X109725812Y-84775518D01*
X109689502Y-84655820D01*
X109630537Y-84545506D01*
X109551185Y-84448815D01*
X109454494Y-84369463D01*
X109344180Y-84310498D01*
X109224482Y-84274188D01*
X109100000Y-84261928D01*
X107400000Y-84261928D01*
X107275518Y-84274188D01*
X107155820Y-84310498D01*
X107074718Y-84353849D01*
X104916285Y-82195418D01*
X104935000Y-82101335D01*
X104935000Y-81818665D01*
X104879853Y-81541426D01*
X104771680Y-81280273D01*
X104614637Y-81045241D01*
X104414759Y-80845363D01*
X104179727Y-80688320D01*
X103918574Y-80580147D01*
X103641335Y-80525000D01*
X103358665Y-80525000D01*
X103081426Y-80580147D01*
X102820273Y-80688320D01*
X102585241Y-80845363D01*
X102385363Y-81045241D01*
X102228320Y-81280273D01*
X102120147Y-81541426D01*
X102065000Y-81818665D01*
X100660000Y-81818665D01*
X100660000Y-71161768D01*
X100730864Y-71294345D01*
X100835209Y-71421491D01*
X100867079Y-71447646D01*
X102041875Y-72622443D01*
X101948815Y-72698815D01*
X101869463Y-72795506D01*
X101810498Y-72905820D01*
X101774188Y-73025518D01*
X101761928Y-73150000D01*
X101761928Y-74850000D01*
X101774188Y-74974482D01*
X101810498Y-75094180D01*
X101869463Y-75204494D01*
X101948815Y-75301185D01*
X102045506Y-75380537D01*
X102155820Y-75439502D01*
X102275518Y-75475812D01*
X102400000Y-75488072D01*
X104100000Y-75488072D01*
X104224482Y-75475812D01*
X104344180Y-75439502D01*
X104454494Y-75380537D01*
X104551185Y-75301185D01*
X104630537Y-75204494D01*
X104689502Y-75094180D01*
X104725812Y-74974482D01*
X104738072Y-74850000D01*
X104738072Y-73150000D01*
X104725812Y-73025518D01*
X104689502Y-72905820D01*
X104630537Y-72795506D01*
X104551185Y-72698815D01*
X104454494Y-72619463D01*
X104344180Y-72560498D01*
X104224482Y-72524188D01*
X104100000Y-72511928D01*
X104075471Y-72511928D01*
X104072918Y-72486011D01*
X104025172Y-72328613D01*
X103947636Y-72183554D01*
X103907040Y-72134088D01*
X103843291Y-72056409D01*
X103811427Y-72030259D01*
X102263500Y-70482333D01*
X102263500Y-64607336D01*
X102263996Y-64607571D01*
X102538184Y-64676300D01*
X102820512Y-64690217D01*
X103100130Y-64648787D01*
X103366292Y-64553603D01*
X103491514Y-64486671D01*
X103563097Y-64242702D01*
X102750000Y-63429605D01*
X102735858Y-63443748D01*
X102556253Y-63264143D01*
X102570395Y-63250000D01*
X102929605Y-63250000D01*
X103742702Y-64063097D01*
X103986671Y-63991514D01*
X104107571Y-63736004D01*
X104176300Y-63461816D01*
X104183265Y-63320512D01*
X105809783Y-63320512D01*
X105851213Y-63600130D01*
X105946397Y-63866292D01*
X106013329Y-63991514D01*
X106257298Y-64063097D01*
X107070395Y-63250000D01*
X107429605Y-63250000D01*
X108242702Y-64063097D01*
X108486671Y-63991514D01*
X108607571Y-63736004D01*
X108676300Y-63461816D01*
X108690217Y-63179488D01*
X108648787Y-62899870D01*
X108553603Y-62633708D01*
X108486671Y-62508486D01*
X108242702Y-62436903D01*
X107429605Y-63250000D01*
X107070395Y-63250000D01*
X106257298Y-62436903D01*
X106013329Y-62508486D01*
X105892429Y-62763996D01*
X105823700Y-63038184D01*
X105809783Y-63320512D01*
X104183265Y-63320512D01*
X104190217Y-63179488D01*
X104148787Y-62899870D01*
X104053603Y-62633708D01*
X103986671Y-62508486D01*
X103742702Y-62436903D01*
X102929605Y-63250000D01*
X102570395Y-63250000D01*
X102556253Y-63235858D01*
X102735858Y-63056253D01*
X102750000Y-63070395D01*
X103563097Y-62257298D01*
X106436903Y-62257298D01*
X107250000Y-63070395D01*
X108063097Y-62257298D01*
X107991514Y-62013329D01*
X107736004Y-61892429D01*
X107461816Y-61823700D01*
X107179488Y-61809783D01*
X106899870Y-61851213D01*
X106633708Y-61946397D01*
X106508486Y-62013329D01*
X106436903Y-62257298D01*
X103563097Y-62257298D01*
X103491514Y-62013329D01*
X103236004Y-61892429D01*
X102961816Y-61823700D01*
X102679488Y-61809783D01*
X102399870Y-61851213D01*
X102263500Y-61899981D01*
X102263500Y-60719040D01*
X105858091Y-60719040D01*
X105952930Y-60983881D01*
X106097615Y-61225131D01*
X106286586Y-61433519D01*
X106512580Y-61601037D01*
X106766913Y-61721246D01*
X106900961Y-61761904D01*
X107123000Y-61639915D01*
X107123000Y-60497000D01*
X107377000Y-60497000D01*
X107377000Y-61639915D01*
X107599039Y-61761904D01*
X107733087Y-61721246D01*
X107987420Y-61601037D01*
X108213414Y-61433519D01*
X108402385Y-61225131D01*
X108406038Y-61219039D01*
X109608096Y-61219039D01*
X109648754Y-61353087D01*
X109768963Y-61607420D01*
X109936481Y-61833414D01*
X110144869Y-62022385D01*
X110386119Y-62167070D01*
X110650960Y-62261909D01*
X110873000Y-62140624D01*
X110873000Y-60997000D01*
X109730085Y-60997000D01*
X109608096Y-61219039D01*
X108406038Y-61219039D01*
X108547070Y-60983881D01*
X108641909Y-60719040D01*
X108520624Y-60497000D01*
X107377000Y-60497000D01*
X107123000Y-60497000D01*
X105979376Y-60497000D01*
X105858091Y-60719040D01*
X102263500Y-60719040D01*
X102263500Y-59601717D01*
X102331426Y-59629853D01*
X102608665Y-59685000D01*
X102891335Y-59685000D01*
X103168574Y-59629853D01*
X103429727Y-59521680D01*
X103664759Y-59364637D01*
X103864637Y-59164759D01*
X103917930Y-59085000D01*
X106626753Y-59085000D01*
X106512580Y-59138963D01*
X106286586Y-59306481D01*
X106097615Y-59514869D01*
X105952930Y-59756119D01*
X105858091Y-60020960D01*
X105979376Y-60243000D01*
X107123000Y-60243000D01*
X107123000Y-60223000D01*
X107377000Y-60223000D01*
X107377000Y-60243000D01*
X108520624Y-60243000D01*
X108641909Y-60020960D01*
X108547070Y-59756119D01*
X108402385Y-59514869D01*
X108213414Y-59306481D01*
X107987420Y-59138963D01*
X107873247Y-59085000D01*
X109340874Y-59085000D01*
X109378613Y-59105172D01*
X109536011Y-59152918D01*
X109658681Y-59165000D01*
X109699699Y-59169040D01*
X109740718Y-59165000D01*
X109832070Y-59165000D01*
X109885363Y-59244759D01*
X110085241Y-59444637D01*
X110320273Y-59601680D01*
X110330865Y-59606067D01*
X110144869Y-59717615D01*
X109936481Y-59906586D01*
X109768963Y-60132580D01*
X109648754Y-60386913D01*
X109608096Y-60520961D01*
X109730085Y-60743000D01*
X110873000Y-60743000D01*
X110873000Y-60723000D01*
X111127000Y-60723000D01*
X111127000Y-60743000D01*
X111147000Y-60743000D01*
X111147000Y-60997000D01*
X111127000Y-60997000D01*
X111127000Y-62140624D01*
X111349040Y-62261909D01*
X111613881Y-62167070D01*
X111855131Y-62022385D01*
X112063519Y-61833414D01*
X112231037Y-61607420D01*
X112351246Y-61353087D01*
X112391904Y-61219039D01*
X112269916Y-60997002D01*
X112435000Y-60997002D01*
X112435000Y-60945867D01*
X114175844Y-62686712D01*
X113918574Y-62580147D01*
X113641335Y-62525000D01*
X113358665Y-62525000D01*
X113081426Y-62580147D01*
X112820273Y-62688320D01*
X112585241Y-62845363D01*
X112385363Y-63045241D01*
X112332070Y-63125000D01*
X112240718Y-63125000D01*
X112199700Y-63120960D01*
X112036011Y-63137082D01*
X111878613Y-63184828D01*
X111733554Y-63262364D01*
X111666205Y-63317636D01*
X111606409Y-63366709D01*
X111580263Y-63398568D01*
X110023833Y-64955000D01*
X108417930Y-64955000D01*
X108364637Y-64875241D01*
X108164759Y-64675363D01*
X107930872Y-64519085D01*
X107991514Y-64486671D01*
X108063097Y-64242702D01*
X107250000Y-63429605D01*
X106436903Y-64242702D01*
X106508486Y-64486671D01*
X106572992Y-64517194D01*
X106570273Y-64518320D01*
X106335241Y-64675363D01*
X106135363Y-64875241D01*
X105978320Y-65110273D01*
X105870147Y-65371426D01*
X105815000Y-65648665D01*
X105815000Y-65931335D01*
X105870147Y-66208574D01*
X105978320Y-66469727D01*
X106135363Y-66704759D01*
X106335241Y-66904637D01*
X106570273Y-67061680D01*
X106831426Y-67169853D01*
X107108665Y-67225000D01*
X107391335Y-67225000D01*
X107668574Y-67169853D01*
X107929727Y-67061680D01*
X108164759Y-66904637D01*
X108364637Y-66704759D01*
X108417930Y-66625000D01*
X110328682Y-66625000D01*
X110369700Y-66629040D01*
X110410718Y-66625000D01*
X110410719Y-66625000D01*
X110533389Y-66612918D01*
X110690787Y-66565172D01*
X110835846Y-66487636D01*
X110962991Y-66383291D01*
X110989146Y-66351421D01*
X112425586Y-64914982D01*
X112585241Y-65074637D01*
X112817759Y-65230000D01*
X112585241Y-65385363D01*
X112385363Y-65585241D01*
X112228320Y-65820273D01*
X112120147Y-66081426D01*
X112065000Y-66358665D01*
X112065000Y-66641335D01*
X112083714Y-66735418D01*
X110188574Y-68630559D01*
X110156710Y-68656709D01*
X110075907Y-68755168D01*
X110052364Y-68783855D01*
X109974828Y-68928914D01*
X109927082Y-69086312D01*
X109910960Y-69250000D01*
X109915001Y-69291028D01*
X109915000Y-74511928D01*
X109900000Y-74511928D01*
X109775518Y-74524188D01*
X109655820Y-74560498D01*
X109545506Y-74619463D01*
X109448815Y-74698815D01*
X109369463Y-74795506D01*
X109310498Y-74905820D01*
X109274188Y-75025518D01*
X109261928Y-75150000D01*
X109261928Y-76850000D01*
X109274188Y-76974482D01*
X109310498Y-77094180D01*
X109369463Y-77204494D01*
X109448815Y-77301185D01*
X109545506Y-77380537D01*
X109655820Y-77439502D01*
X109775518Y-77475812D01*
X109900000Y-77488072D01*
X111600000Y-77488072D01*
X111724482Y-77475812D01*
X111844180Y-77439502D01*
X111954494Y-77380537D01*
X112051185Y-77301185D01*
X112130537Y-77204494D01*
X112189502Y-77094180D01*
X112225812Y-76974482D01*
X112238072Y-76850000D01*
X112238072Y-75150000D01*
X112225812Y-75025518D01*
X112189502Y-74905820D01*
X112130537Y-74795506D01*
X112051185Y-74698815D01*
X111954494Y-74619463D01*
X111844180Y-74560498D01*
X111724482Y-74524188D01*
X111600000Y-74511928D01*
X111585000Y-74511928D01*
X111585000Y-69595867D01*
X113264582Y-67916286D01*
X113358665Y-67935000D01*
X113641335Y-67935000D01*
X113918574Y-67879853D01*
X114179727Y-67771680D01*
X114414759Y-67614637D01*
X114614637Y-67414759D01*
X114771680Y-67179727D01*
X114879853Y-66918574D01*
X114935000Y-66641335D01*
X114935000Y-66358665D01*
X114879853Y-66081426D01*
X114771680Y-65820273D01*
X114614637Y-65585241D01*
X114414759Y-65385363D01*
X114182241Y-65230000D01*
X114414759Y-65074637D01*
X114614637Y-64874759D01*
X114771680Y-64639727D01*
X114879853Y-64378574D01*
X114935000Y-64101335D01*
X114935000Y-63818665D01*
X114879853Y-63541426D01*
X114773288Y-63284156D01*
X123805400Y-72316269D01*
X123805401Y-75023772D01*
X123801360Y-75064800D01*
X123817482Y-75228488D01*
X123865228Y-75385886D01*
X123942764Y-75530945D01*
X123945152Y-75533855D01*
X124047110Y-75658091D01*
X124078974Y-75684241D01*
X125615859Y-77221126D01*
X125642009Y-77252991D01*
X125769154Y-77357336D01*
X125914213Y-77434872D01*
X125914275Y-77434891D01*
X125870147Y-77541426D01*
X125815000Y-77818665D01*
X125815000Y-78101335D01*
X125870147Y-78378574D01*
X125978320Y-78639727D01*
X126135363Y-78874759D01*
X126335241Y-79074637D01*
X126567759Y-79230000D01*
X126335241Y-79385363D01*
X126135363Y-79585241D01*
X125978320Y-79820273D01*
X125870147Y-80081426D01*
X125815000Y-80358665D01*
X125815000Y-80641335D01*
X125870147Y-80918574D01*
X125978320Y-81179727D01*
X126135363Y-81414759D01*
X126335241Y-81614637D01*
X126570273Y-81771680D01*
X126831426Y-81879853D01*
X127108665Y-81935000D01*
X127391335Y-81935000D01*
X127668574Y-81879853D01*
X127929727Y-81771680D01*
X128164759Y-81614637D01*
X128364637Y-81414759D01*
X128521680Y-81179727D01*
X128629853Y-80918574D01*
X128685000Y-80641335D01*
X128685000Y-80358665D01*
X128629853Y-80081426D01*
X128521680Y-79820273D01*
X128364637Y-79585241D01*
X128164759Y-79385363D01*
X127932241Y-79230000D01*
X128164759Y-79074637D01*
X128364637Y-78874759D01*
X128521680Y-78639727D01*
X128629853Y-78378574D01*
X128685000Y-78101335D01*
X128685000Y-77818665D01*
X128629853Y-77541426D01*
X128521680Y-77280273D01*
X128364637Y-77045241D01*
X128164759Y-76845363D01*
X128085000Y-76792070D01*
X128085000Y-76700719D01*
X128089040Y-76659700D01*
X128072918Y-76496011D01*
X128025172Y-76338613D01*
X127947636Y-76193554D01*
X127843291Y-76066409D01*
X127716146Y-75962064D01*
X127571087Y-75884528D01*
X127413689Y-75836782D01*
X127291019Y-75824700D01*
X127250000Y-75820660D01*
X127208982Y-75824700D01*
X126581168Y-75824700D01*
X126244540Y-75488072D01*
X126850000Y-75488072D01*
X126974482Y-75475812D01*
X127094180Y-75439502D01*
X127204494Y-75380537D01*
X127301185Y-75301185D01*
X127380537Y-75204494D01*
X127439502Y-75094180D01*
X127475812Y-74974482D01*
X127488072Y-74850000D01*
X127488072Y-73150000D01*
X127475812Y-73025518D01*
X127439502Y-72905820D01*
X127380537Y-72795506D01*
X127301185Y-72698815D01*
X127204494Y-72619463D01*
X127094180Y-72560498D01*
X126974482Y-72524188D01*
X126850000Y-72511928D01*
X126835000Y-72511928D01*
X126835000Y-71430293D01*
X126858665Y-71435000D01*
X127141335Y-71435000D01*
X127418574Y-71379853D01*
X127679727Y-71271680D01*
X127914759Y-71114637D01*
X128114637Y-70914759D01*
X128271680Y-70679727D01*
X128379853Y-70418574D01*
X128435000Y-70141335D01*
X128435000Y-69858665D01*
X128379853Y-69581426D01*
X128271680Y-69320273D01*
X128114637Y-69085241D01*
X127914759Y-68885363D01*
X127679727Y-68728320D01*
X127418574Y-68620147D01*
X127141335Y-68565000D01*
X126858665Y-68565000D01*
X126581426Y-68620147D01*
X126320273Y-68728320D01*
X126085241Y-68885363D01*
X125885363Y-69085241D01*
X125728320Y-69320273D01*
X125620147Y-69581426D01*
X125565000Y-69858665D01*
X125565000Y-70141335D01*
X125583715Y-70235418D01*
X125438578Y-70380555D01*
X125406709Y-70406709D01*
X125357932Y-70466145D01*
X125302364Y-70533855D01*
X125224828Y-70678914D01*
X125177082Y-70836312D01*
X125160960Y-71000000D01*
X125165000Y-71041019D01*
X125165000Y-71314131D01*
X112416285Y-58565418D01*
X112435000Y-58471335D01*
X112435000Y-58188665D01*
X112379853Y-57911426D01*
X112271680Y-57650273D01*
X112155238Y-57476006D01*
X117860659Y-63181427D01*
X117886809Y-63213291D01*
X117946605Y-63262364D01*
X118013954Y-63317636D01*
X118159013Y-63395172D01*
X118316411Y-63442918D01*
X118480100Y-63459040D01*
X118521118Y-63455000D01*
X120582070Y-63455000D01*
X120635363Y-63534759D01*
X120835241Y-63734637D01*
X121070273Y-63891680D01*
X121331426Y-63999853D01*
X121608665Y-64055000D01*
X121891335Y-64055000D01*
X122168574Y-63999853D01*
X122429727Y-63891680D01*
X122664759Y-63734637D01*
X122864637Y-63534759D01*
X122917930Y-63455000D01*
X123009282Y-63455000D01*
X123050300Y-63459040D01*
X123091318Y-63455000D01*
X123091319Y-63455000D01*
X123213989Y-63442918D01*
X123371387Y-63395172D01*
X123516446Y-63317636D01*
X123643591Y-63213291D01*
X123669746Y-63181421D01*
X126035886Y-60815282D01*
X126085241Y-60864637D01*
X126317759Y-61020000D01*
X126085241Y-61175363D01*
X125885363Y-61375241D01*
X125728320Y-61610273D01*
X125620147Y-61871426D01*
X125565000Y-62148665D01*
X125565000Y-62431335D01*
X125620147Y-62708574D01*
X125728320Y-62969727D01*
X125885363Y-63204759D01*
X126085241Y-63404637D01*
X126320273Y-63561680D01*
X126521425Y-63645000D01*
X126320273Y-63728320D01*
X126085241Y-63885363D01*
X125885363Y-64085241D01*
X125728320Y-64320273D01*
X125620147Y-64581426D01*
X125565000Y-64858665D01*
X125565000Y-65141335D01*
X125620147Y-65418574D01*
X125728320Y-65679727D01*
X125885363Y-65914759D01*
X126085241Y-66114637D01*
X126320273Y-66271680D01*
X126581426Y-66379853D01*
X126858665Y-66435000D01*
X127141335Y-66435000D01*
X127418574Y-66379853D01*
X127679727Y-66271680D01*
X127914759Y-66114637D01*
X128114637Y-65914759D01*
X128271680Y-65679727D01*
X128379853Y-65418574D01*
X128435000Y-65141335D01*
X128435000Y-64858665D01*
X128379853Y-64581426D01*
X128271680Y-64320273D01*
X128114637Y-64085241D01*
X127914759Y-63885363D01*
X127679727Y-63728320D01*
X127478575Y-63645000D01*
X127679727Y-63561680D01*
X127914759Y-63404637D01*
X128114637Y-63204759D01*
X128271680Y-62969727D01*
X128379853Y-62708574D01*
X128435000Y-62431335D01*
X128435000Y-62148665D01*
X128379853Y-61871426D01*
X128271680Y-61610273D01*
X128114637Y-61375241D01*
X127914759Y-61175363D01*
X127682241Y-61020000D01*
X127914759Y-60864637D01*
X128114637Y-60664759D01*
X128271680Y-60429727D01*
X128379853Y-60168574D01*
X128435000Y-59891335D01*
X128435000Y-59608665D01*
X128379853Y-59331426D01*
X128271680Y-59070273D01*
X128114637Y-58835241D01*
X127914759Y-58635363D01*
X127679727Y-58478320D01*
X127418574Y-58370147D01*
X127141335Y-58315000D01*
X126858665Y-58315000D01*
X126581426Y-58370147D01*
X126320273Y-58478320D01*
X126085241Y-58635363D01*
X125885363Y-58835241D01*
X125828744Y-58919977D01*
X125756611Y-58927082D01*
X125599213Y-58974828D01*
X125454154Y-59052364D01*
X125396006Y-59100085D01*
X125327009Y-59156709D01*
X125300863Y-59188568D01*
X122824414Y-61665018D01*
X122664759Y-61505363D01*
X122429727Y-61348320D01*
X122168574Y-61240147D01*
X121891335Y-61185000D01*
X121608665Y-61185000D01*
X121331426Y-61240147D01*
X121070273Y-61348320D01*
X120835241Y-61505363D01*
X120635363Y-61705241D01*
X120582070Y-61785000D01*
X119734396Y-61785000D01*
X119734637Y-61784759D01*
X119891680Y-61549727D01*
X119999853Y-61288574D01*
X120055000Y-61011335D01*
X120055000Y-60728665D01*
X119999853Y-60451426D01*
X119891680Y-60190273D01*
X119734637Y-59955241D01*
X119534759Y-59755363D01*
X119302241Y-59600000D01*
X119534759Y-59444637D01*
X119734637Y-59244759D01*
X119891680Y-59009727D01*
X119999853Y-58748574D01*
X120055000Y-58471335D01*
X120055000Y-58188665D01*
X119999853Y-57911426D01*
X119891680Y-57650273D01*
X119734637Y-57415241D01*
X119534759Y-57215363D01*
X119302241Y-57060000D01*
X119534759Y-56904637D01*
X119734637Y-56704759D01*
X119891680Y-56469727D01*
X119999853Y-56208574D01*
X120055000Y-55931335D01*
X120055000Y-55648665D01*
X119999853Y-55371426D01*
X119891680Y-55110273D01*
X119734637Y-54875241D01*
X119534759Y-54675363D01*
X119302241Y-54520000D01*
X119534759Y-54364637D01*
X119699396Y-54200000D01*
X120311928Y-54200000D01*
X120311928Y-55800000D01*
X120324188Y-55924482D01*
X120360498Y-56044180D01*
X120419463Y-56154494D01*
X120498815Y-56251185D01*
X120595506Y-56330537D01*
X120705820Y-56389502D01*
X120825518Y-56425812D01*
X120950000Y-56438072D01*
X122550000Y-56438072D01*
X122674482Y-56425812D01*
X122794180Y-56389502D01*
X122904494Y-56330537D01*
X123001185Y-56251185D01*
X123080537Y-56154494D01*
X123139502Y-56044180D01*
X123175812Y-55924482D01*
X123188072Y-55800000D01*
X123188072Y-54200000D01*
X123175812Y-54075518D01*
X123139502Y-53955820D01*
X123080537Y-53845506D01*
X123001185Y-53748815D01*
X122904494Y-53669463D01*
X122794180Y-53610498D01*
X122674482Y-53574188D01*
X122550000Y-53561928D01*
X120950000Y-53561928D01*
X120825518Y-53574188D01*
X120705820Y-53610498D01*
X120595506Y-53669463D01*
X120498815Y-53748815D01*
X120419463Y-53845506D01*
X120360498Y-53955820D01*
X120324188Y-54075518D01*
X120311928Y-54200000D01*
X119699396Y-54200000D01*
X119734637Y-54164759D01*
X119891680Y-53929727D01*
X119999853Y-53668574D01*
X120055000Y-53391335D01*
X120055000Y-53108665D01*
X119999853Y-52831426D01*
X119891680Y-52570273D01*
X119734637Y-52335241D01*
X119534759Y-52135363D01*
X119299727Y-51978320D01*
X119038574Y-51870147D01*
X118761335Y-51815000D01*
X118478665Y-51815000D01*
X118201426Y-51870147D01*
X117940273Y-51978320D01*
X117705241Y-52135363D01*
X117505363Y-52335241D01*
X117348320Y-52570273D01*
X117240147Y-52831426D01*
X117185000Y-53108665D01*
X117185000Y-53391335D01*
X117240147Y-53668574D01*
X117348320Y-53929727D01*
X117505363Y-54164759D01*
X117705241Y-54364637D01*
X117937759Y-54520000D01*
X117705241Y-54675363D01*
X117505363Y-54875241D01*
X117348320Y-55110273D01*
X117240147Y-55371426D01*
X117185000Y-55648665D01*
X117185000Y-55931335D01*
X117240147Y-56208574D01*
X117348320Y-56469727D01*
X117505363Y-56704759D01*
X117705241Y-56904637D01*
X117937759Y-57060000D01*
X117705241Y-57215363D01*
X117505363Y-57415241D01*
X117348320Y-57650273D01*
X117240147Y-57911426D01*
X117185000Y-58188665D01*
X117185000Y-58471335D01*
X117240147Y-58748574D01*
X117348320Y-59009727D01*
X117505363Y-59244759D01*
X117705241Y-59444637D01*
X117937759Y-59600000D01*
X117705241Y-59755363D01*
X117505363Y-59955241D01*
X117348320Y-60190273D01*
X117314028Y-60273061D01*
X113135300Y-56094333D01*
X113135300Y-55831019D01*
X113139340Y-55790000D01*
X113123218Y-55626311D01*
X113075472Y-55468913D01*
X112997936Y-55323854D01*
X112893591Y-55196709D01*
X112766446Y-55092364D01*
X112621387Y-55014828D01*
X112463989Y-54967082D01*
X112341319Y-54955000D01*
X112341318Y-54955000D01*
X112300300Y-54950960D01*
X112259281Y-54955000D01*
X112167930Y-54955000D01*
X112114637Y-54875241D01*
X111916039Y-54676643D01*
X111924482Y-54675812D01*
X112044180Y-54639502D01*
X112154494Y-54580537D01*
X112251185Y-54501185D01*
X112330537Y-54404494D01*
X112389502Y-54294180D01*
X112425812Y-54174482D01*
X112438072Y-54050000D01*
X112438072Y-52450000D01*
X112425812Y-52325518D01*
X112389502Y-52205820D01*
X112330537Y-52095506D01*
X112251185Y-51998815D01*
X112154494Y-51919463D01*
X112044180Y-51860498D01*
X111924482Y-51824188D01*
X111800000Y-51811928D01*
X110200000Y-51811928D01*
X110075518Y-51824188D01*
X109955820Y-51860498D01*
X109845506Y-51919463D01*
X109748815Y-51998815D01*
X109669463Y-52095506D01*
X109610498Y-52205820D01*
X109574188Y-52325518D01*
X109561928Y-52450000D01*
X109561928Y-54050000D01*
X109574188Y-54174482D01*
X109610498Y-54294180D01*
X109669463Y-54404494D01*
X109748815Y-54501185D01*
X109845506Y-54580537D01*
X109955820Y-54639502D01*
X110075518Y-54675812D01*
X110083961Y-54676643D01*
X109885363Y-54875241D01*
X109728320Y-55110273D01*
X109620147Y-55371426D01*
X109565000Y-55648665D01*
X109565000Y-55931335D01*
X109620147Y-56208574D01*
X109728320Y-56469727D01*
X109885363Y-56704759D01*
X110085241Y-56904637D01*
X110317759Y-57060000D01*
X110085241Y-57215363D01*
X109885363Y-57415241D01*
X109861599Y-57450807D01*
X109783389Y-57427082D01*
X109660719Y-57415000D01*
X109660718Y-57415000D01*
X109619700Y-57410960D01*
X109578682Y-57415000D01*
X103917930Y-57415000D01*
X103864637Y-57335241D01*
X103664759Y-57135363D01*
X103555260Y-57062199D01*
X103572918Y-57003989D01*
X103585000Y-56881319D01*
X103589040Y-56840300D01*
X103585000Y-56799281D01*
X103585000Y-56707930D01*
X103664759Y-56654637D01*
X103864637Y-56454759D01*
X104021680Y-56219727D01*
X104129853Y-55958574D01*
X104185000Y-55681335D01*
X104185000Y-55398665D01*
X104129853Y-55121426D01*
X104021680Y-54860273D01*
X103864637Y-54625241D01*
X103664759Y-54425363D01*
X103430872Y-54269085D01*
X103491514Y-54236671D01*
X103563097Y-53992702D01*
X102750000Y-53179605D01*
X101936903Y-53992702D01*
X102008486Y-54236671D01*
X102072992Y-54267194D01*
X102070273Y-54268320D01*
X101835241Y-54425363D01*
X101635363Y-54625241D01*
X101478320Y-54860273D01*
X101370147Y-55121426D01*
X101315000Y-55398665D01*
X101315000Y-55681335D01*
X101370147Y-55958574D01*
X101478320Y-56219727D01*
X101547447Y-56323184D01*
X100867074Y-57003559D01*
X100835210Y-57029709D01*
X100754407Y-57128168D01*
X100730864Y-57156855D01*
X100660000Y-57289432D01*
X100660000Y-53070512D01*
X101309783Y-53070512D01*
X101351213Y-53350130D01*
X101446397Y-53616292D01*
X101513329Y-53741514D01*
X101757298Y-53813097D01*
X102570395Y-53000000D01*
X102929605Y-53000000D01*
X103742702Y-53813097D01*
X103986671Y-53741514D01*
X104107571Y-53486004D01*
X104176300Y-53211816D01*
X104190217Y-52929488D01*
X104148787Y-52649870D01*
X104053603Y-52383708D01*
X103986671Y-52258486D01*
X103742702Y-52186903D01*
X102929605Y-53000000D01*
X102570395Y-53000000D01*
X101757298Y-52186903D01*
X101513329Y-52258486D01*
X101392429Y-52513996D01*
X101323700Y-52788184D01*
X101309783Y-53070512D01*
X100660000Y-53070512D01*
X100660000Y-52007298D01*
X101936903Y-52007298D01*
X102750000Y-52820395D01*
X103563097Y-52007298D01*
X103546286Y-51950000D01*
X105811928Y-51950000D01*
X105811928Y-53550000D01*
X105824188Y-53674482D01*
X105860498Y-53794180D01*
X105919463Y-53904494D01*
X105998815Y-54001185D01*
X106095506Y-54080537D01*
X106205820Y-54139502D01*
X106325518Y-54175812D01*
X106450000Y-54188072D01*
X108050000Y-54188072D01*
X108174482Y-54175812D01*
X108294180Y-54139502D01*
X108404494Y-54080537D01*
X108501185Y-54001185D01*
X108580537Y-53904494D01*
X108639502Y-53794180D01*
X108675812Y-53674482D01*
X108688072Y-53550000D01*
X108688072Y-51950000D01*
X108675812Y-51825518D01*
X108639502Y-51705820D01*
X108580537Y-51595506D01*
X108501185Y-51498815D01*
X108404494Y-51419463D01*
X108294180Y-51360498D01*
X108174482Y-51324188D01*
X108050000Y-51311928D01*
X106450000Y-51311928D01*
X106325518Y-51324188D01*
X106205820Y-51360498D01*
X106095506Y-51419463D01*
X105998815Y-51498815D01*
X105919463Y-51595506D01*
X105860498Y-51705820D01*
X105824188Y-51825518D01*
X105811928Y-51950000D01*
X103546286Y-51950000D01*
X103491514Y-51763329D01*
X103236004Y-51642429D01*
X102961816Y-51573700D01*
X102679488Y-51559783D01*
X102399870Y-51601213D01*
X102133708Y-51696397D01*
X102008486Y-51763329D01*
X101936903Y-52007298D01*
X100660000Y-52007298D01*
X100660000Y-50660000D01*
X126455371Y-50660000D01*
X126191331Y-50769369D01*
%TA.AperFunction,Conductor*%
D18*
G36*
X126191331Y-50769369D02*
G01*
X125825271Y-51013962D01*
X125513962Y-51325271D01*
X125269369Y-51691331D01*
X125100890Y-52098075D01*
X125015000Y-52529872D01*
X125015000Y-52970128D01*
X125100890Y-53401925D01*
X125269369Y-53808669D01*
X125513962Y-54174729D01*
X125825271Y-54486038D01*
X126191331Y-54730631D01*
X126598075Y-54899110D01*
X127029872Y-54985000D01*
X127470128Y-54985000D01*
X127901925Y-54899110D01*
X128308669Y-54730631D01*
X128674729Y-54486038D01*
X128986038Y-54174729D01*
X129230631Y-53808669D01*
X129340001Y-53544627D01*
X129340000Y-149340000D01*
X103544629Y-149340000D01*
X103808669Y-149230631D01*
X104174729Y-148986038D01*
X104486038Y-148674729D01*
X104730631Y-148308669D01*
X104899110Y-147901925D01*
X104985000Y-147470128D01*
X104985000Y-147029872D01*
X104899110Y-146598075D01*
X104730631Y-146191331D01*
X104486038Y-145825271D01*
X104310767Y-145650000D01*
X112761928Y-145650000D01*
X112761928Y-146850000D01*
X112778992Y-147023254D01*
X112829528Y-147189850D01*
X112911595Y-147343386D01*
X113022038Y-147477962D01*
X113156614Y-147588405D01*
X113310150Y-147670472D01*
X113476746Y-147721008D01*
X113650000Y-147738072D01*
X114850000Y-147738072D01*
X115023254Y-147721008D01*
X115189850Y-147670472D01*
X115343386Y-147588405D01*
X115477962Y-147477962D01*
X115588405Y-147343386D01*
X115623142Y-147278397D01*
X115941208Y-147278397D01*
X116018843Y-147527472D01*
X116282883Y-147653371D01*
X116566411Y-147725339D01*
X116858531Y-147740611D01*
X117148019Y-147698599D01*
X117423747Y-147600919D01*
X117561157Y-147527472D01*
X117638792Y-147278397D01*
X118481208Y-147278397D01*
X118558843Y-147527472D01*
X118822883Y-147653371D01*
X119106411Y-147725339D01*
X119398531Y-147740611D01*
X119688019Y-147698599D01*
X119963747Y-147600919D01*
X120101157Y-147527472D01*
X120178792Y-147278397D01*
X121021208Y-147278397D01*
X121098843Y-147527472D01*
X121362883Y-147653371D01*
X121646411Y-147725339D01*
X121938531Y-147740611D01*
X122228019Y-147698599D01*
X122503747Y-147600919D01*
X122641157Y-147527472D01*
X122718792Y-147278397D01*
X121870000Y-146429605D01*
X121021208Y-147278397D01*
X120178792Y-147278397D01*
X119330000Y-146429605D01*
X118481208Y-147278397D01*
X117638792Y-147278397D01*
X116790000Y-146429605D01*
X115941208Y-147278397D01*
X115623142Y-147278397D01*
X115670472Y-147189850D01*
X115703580Y-147080707D01*
X115761603Y-147098792D01*
X116610395Y-146250000D01*
X116969605Y-146250000D01*
X117818397Y-147098792D01*
X118060000Y-147023486D01*
X118301603Y-147098792D01*
X119150395Y-146250000D01*
X119509605Y-146250000D01*
X120358397Y-147098792D01*
X120600000Y-147023486D01*
X120841603Y-147098792D01*
X121690395Y-146250000D01*
X120841603Y-145401208D01*
X120600000Y-145476514D01*
X120358397Y-145401208D01*
X119509605Y-146250000D01*
X119150395Y-146250000D01*
X118301603Y-145401208D01*
X118060000Y-145476514D01*
X117818397Y-145401208D01*
X116969605Y-146250000D01*
X116610395Y-146250000D01*
X115761603Y-145401208D01*
X115703580Y-145419293D01*
X115670472Y-145310150D01*
X115588405Y-145156614D01*
X115477962Y-145022038D01*
X115343386Y-144911595D01*
X115216392Y-144843715D01*
X115321710Y-144738397D01*
X115941208Y-144738397D01*
X116016514Y-144980000D01*
X115941208Y-145221603D01*
X116790000Y-146070395D01*
X117638792Y-145221603D01*
X117563486Y-144980000D01*
X117638792Y-144738397D01*
X118481208Y-144738397D01*
X118556514Y-144980000D01*
X118481208Y-145221603D01*
X119330000Y-146070395D01*
X120178792Y-145221603D01*
X120103486Y-144980000D01*
X120178792Y-144738397D01*
X121021208Y-144738397D01*
X121096514Y-144980000D01*
X121021208Y-145221603D01*
X121870000Y-146070395D01*
X122718792Y-145221603D01*
X122643486Y-144980000D01*
X122718792Y-144738397D01*
X121870000Y-143889605D01*
X121021208Y-144738397D01*
X120178792Y-144738397D01*
X119330000Y-143889605D01*
X118481208Y-144738397D01*
X117638792Y-144738397D01*
X116790000Y-143889605D01*
X115941208Y-144738397D01*
X115321710Y-144738397D01*
X115403475Y-144656632D01*
X115519311Y-144483271D01*
X115761603Y-144558792D01*
X116610395Y-143710000D01*
X116969605Y-143710000D01*
X117818397Y-144558792D01*
X118060000Y-144483486D01*
X118301603Y-144558792D01*
X119150395Y-143710000D01*
X119509605Y-143710000D01*
X120358397Y-144558792D01*
X120600000Y-144483486D01*
X120841603Y-144558792D01*
X121690395Y-143710000D01*
X120841603Y-142861208D01*
X120600000Y-142936514D01*
X120358397Y-142861208D01*
X119509605Y-143710000D01*
X119150395Y-143710000D01*
X118301603Y-142861208D01*
X118060000Y-142936514D01*
X117818397Y-142861208D01*
X116969605Y-143710000D01*
X116610395Y-143710000D01*
X115761603Y-142861208D01*
X115519311Y-142936729D01*
X115403475Y-142763368D01*
X115321710Y-142681603D01*
X115941208Y-142681603D01*
X116790000Y-143530395D01*
X117638792Y-142681603D01*
X118481208Y-142681603D01*
X119330000Y-143530395D01*
X120178792Y-142681603D01*
X120101157Y-142432528D01*
X119837117Y-142306629D01*
X119553589Y-142234661D01*
X119261469Y-142219389D01*
X118971981Y-142261401D01*
X118696253Y-142359081D01*
X118558843Y-142432528D01*
X118481208Y-142681603D01*
X117638792Y-142681603D01*
X117561157Y-142432528D01*
X117297117Y-142306629D01*
X117013589Y-142234661D01*
X116721469Y-142219389D01*
X116431981Y-142261401D01*
X116156253Y-142359081D01*
X116018843Y-142432528D01*
X115941208Y-142681603D01*
X115321710Y-142681603D01*
X115196632Y-142556525D01*
X114953411Y-142394010D01*
X114683158Y-142282068D01*
X114396260Y-142225000D01*
X114103740Y-142225000D01*
X113816842Y-142282068D01*
X113546589Y-142394010D01*
X113303368Y-142556525D01*
X113096525Y-142763368D01*
X112934010Y-143006589D01*
X112822068Y-143276842D01*
X112765000Y-143563740D01*
X112765000Y-143856260D01*
X112822068Y-144143158D01*
X112934010Y-144413411D01*
X113096525Y-144656632D01*
X113283608Y-144843715D01*
X113156614Y-144911595D01*
X113022038Y-145022038D01*
X112911595Y-145156614D01*
X112829528Y-145310150D01*
X112778992Y-145476746D01*
X112761928Y-145650000D01*
X104310767Y-145650000D01*
X104174729Y-145513962D01*
X103808669Y-145269369D01*
X103401925Y-145100890D01*
X102970128Y-145015000D01*
X102529872Y-145015000D01*
X102098075Y-145100890D01*
X101691331Y-145269369D01*
X101325271Y-145513962D01*
X101013962Y-145825271D01*
X100769369Y-146191331D01*
X100660000Y-146455371D01*
X100660000Y-141969040D01*
X102358091Y-141969040D01*
X102452930Y-142233881D01*
X102597615Y-142475131D01*
X102786586Y-142683519D01*
X103012580Y-142851037D01*
X103266913Y-142971246D01*
X103400961Y-143011904D01*
X103623000Y-142889915D01*
X103623000Y-141747000D01*
X103877000Y-141747000D01*
X103877000Y-142889915D01*
X104099039Y-143011904D01*
X104233087Y-142971246D01*
X104487420Y-142851037D01*
X104713414Y-142683519D01*
X104902385Y-142475131D01*
X105047070Y-142233881D01*
X105141909Y-141969040D01*
X105020624Y-141747000D01*
X103877000Y-141747000D01*
X103623000Y-141747000D01*
X102479376Y-141747000D01*
X102358091Y-141969040D01*
X100660000Y-141969040D01*
X100660000Y-141270960D01*
X102358091Y-141270960D01*
X102479376Y-141493000D01*
X103623000Y-141493000D01*
X103623000Y-140350085D01*
X103877000Y-140350085D01*
X103877000Y-141493000D01*
X105020624Y-141493000D01*
X105141909Y-141270960D01*
X105047070Y-141006119D01*
X104902385Y-140764869D01*
X104713414Y-140556481D01*
X104487420Y-140388963D01*
X104233087Y-140268754D01*
X104099039Y-140228096D01*
X103877000Y-140350085D01*
X103623000Y-140350085D01*
X103400961Y-140228096D01*
X103266913Y-140268754D01*
X103012580Y-140388963D01*
X102786586Y-140556481D01*
X102597615Y-140764869D01*
X102452930Y-141006119D01*
X102358091Y-141270960D01*
X100660000Y-141270960D01*
X100660000Y-133200000D01*
X102311928Y-133200000D01*
X102311928Y-134800000D01*
X102324188Y-134924482D01*
X102360498Y-135044180D01*
X102419463Y-135154494D01*
X102498815Y-135251185D01*
X102595506Y-135330537D01*
X102705820Y-135389502D01*
X102825518Y-135425812D01*
X102950000Y-135438072D01*
X104550000Y-135438072D01*
X104674482Y-135425812D01*
X104794180Y-135389502D01*
X104904494Y-135330537D01*
X105001185Y-135251185D01*
X105055020Y-135185587D01*
X105550858Y-135681426D01*
X105577009Y-135713291D01*
X105668267Y-135788184D01*
X105704154Y-135817636D01*
X105849213Y-135895172D01*
X106006611Y-135942918D01*
X106170299Y-135959040D01*
X106211318Y-135955000D01*
X109832070Y-135955000D01*
X109885363Y-136034759D01*
X110085241Y-136234637D01*
X110320273Y-136391680D01*
X110581426Y-136499853D01*
X110858665Y-136555000D01*
X111141335Y-136555000D01*
X111418574Y-136499853D01*
X111679727Y-136391680D01*
X111914759Y-136234637D01*
X112114637Y-136034759D01*
X112271680Y-135799727D01*
X112379853Y-135538574D01*
X112435000Y-135261335D01*
X112435000Y-134978665D01*
X112379853Y-134701426D01*
X112271680Y-134440273D01*
X112114637Y-134205241D01*
X111994396Y-134085000D01*
X113604133Y-134085000D01*
X121746498Y-142227367D01*
X121511981Y-142261401D01*
X121236253Y-142359081D01*
X121098843Y-142432528D01*
X121021208Y-142681603D01*
X121870000Y-143530395D01*
X121884143Y-143516253D01*
X122063748Y-143695858D01*
X122049605Y-143710000D01*
X122898397Y-144558792D01*
X123140689Y-144483271D01*
X123256525Y-144656632D01*
X123463368Y-144863475D01*
X123637760Y-144980000D01*
X123463368Y-145096525D01*
X123256525Y-145303368D01*
X123140689Y-145476729D01*
X122898397Y-145401208D01*
X122049605Y-146250000D01*
X122898397Y-147098792D01*
X123140689Y-147023271D01*
X123256525Y-147196632D01*
X123463368Y-147403475D01*
X123706589Y-147565990D01*
X123976842Y-147677932D01*
X124263740Y-147735000D01*
X124556260Y-147735000D01*
X124843158Y-147677932D01*
X125113411Y-147565990D01*
X125356632Y-147403475D01*
X125563475Y-147196632D01*
X125725990Y-146953411D01*
X125837932Y-146683158D01*
X125895000Y-146396260D01*
X125895000Y-146103740D01*
X125837932Y-145816842D01*
X125725990Y-145546589D01*
X125563475Y-145303368D01*
X125356632Y-145096525D01*
X125182240Y-144980000D01*
X125356632Y-144863475D01*
X125563475Y-144656632D01*
X125725990Y-144413411D01*
X125837932Y-144143158D01*
X125895000Y-143856260D01*
X125895000Y-143563740D01*
X125837932Y-143276842D01*
X125725990Y-143006589D01*
X125563475Y-142763368D01*
X125356632Y-142556525D01*
X125113411Y-142394010D01*
X124843158Y-142282068D01*
X124556260Y-142225000D01*
X124263740Y-142225000D01*
X124132062Y-142251193D01*
X118873571Y-136992702D01*
X125436903Y-136992702D01*
X125508486Y-137236671D01*
X125763996Y-137357571D01*
X126038184Y-137426300D01*
X126320512Y-137440217D01*
X126600130Y-137398787D01*
X126866292Y-137303603D01*
X126991514Y-137236671D01*
X127063097Y-136992702D01*
X126250000Y-136179605D01*
X125436903Y-136992702D01*
X118873571Y-136992702D01*
X117951380Y-136070512D01*
X124809783Y-136070512D01*
X124851213Y-136350130D01*
X124946397Y-136616292D01*
X125013329Y-136741514D01*
X125257298Y-136813097D01*
X126070395Y-136000000D01*
X126429605Y-136000000D01*
X127242702Y-136813097D01*
X127486671Y-136741514D01*
X127607571Y-136486004D01*
X127676300Y-136211816D01*
X127690217Y-135929488D01*
X127648787Y-135649870D01*
X127553603Y-135383708D01*
X127486671Y-135258486D01*
X127242702Y-135186903D01*
X126429605Y-136000000D01*
X126070395Y-136000000D01*
X125257298Y-135186903D01*
X125013329Y-135258486D01*
X124892429Y-135513996D01*
X124823700Y-135788184D01*
X124809783Y-136070512D01*
X117951380Y-136070512D01*
X116888166Y-135007298D01*
X125436903Y-135007298D01*
X126250000Y-135820395D01*
X127063097Y-135007298D01*
X126991514Y-134763329D01*
X126736004Y-134642429D01*
X126461816Y-134573700D01*
X126179488Y-134559783D01*
X125899870Y-134601213D01*
X125633708Y-134696397D01*
X125508486Y-134763329D01*
X125436903Y-135007298D01*
X116888166Y-135007298D01*
X114569446Y-132688579D01*
X114543291Y-132656709D01*
X114416146Y-132552364D01*
X114271087Y-132474828D01*
X114113689Y-132427082D01*
X113991019Y-132415000D01*
X113991018Y-132415000D01*
X113950000Y-132410960D01*
X113908982Y-132415000D01*
X108427930Y-132415000D01*
X108374637Y-132335241D01*
X108174759Y-132135363D01*
X107939727Y-131978320D01*
X107929135Y-131973933D01*
X108115131Y-131862385D01*
X108323519Y-131673414D01*
X108491037Y-131447420D01*
X108611246Y-131193087D01*
X108651904Y-131059039D01*
X108529915Y-130837000D01*
X107387000Y-130837000D01*
X107387000Y-130857000D01*
X107133000Y-130857000D01*
X107133000Y-130837000D01*
X105990085Y-130837000D01*
X105868096Y-131059039D01*
X105908754Y-131193087D01*
X106028963Y-131447420D01*
X106196481Y-131673414D01*
X106404869Y-131862385D01*
X106590865Y-131973933D01*
X106580273Y-131978320D01*
X106345241Y-132135363D01*
X106145363Y-132335241D01*
X105988320Y-132570273D01*
X105880147Y-132831426D01*
X105825000Y-133108665D01*
X105825000Y-133391335D01*
X105875282Y-133644114D01*
X105669746Y-133438579D01*
X105643591Y-133406709D01*
X105516446Y-133302364D01*
X105371387Y-133224828D01*
X105213989Y-133177082D01*
X105185539Y-133174280D01*
X105175812Y-133075518D01*
X105139502Y-132955820D01*
X105080537Y-132845506D01*
X105001185Y-132748815D01*
X104904494Y-132669463D01*
X104794180Y-132610498D01*
X104674482Y-132574188D01*
X104550000Y-132561928D01*
X102950000Y-132561928D01*
X102825518Y-132574188D01*
X102705820Y-132610498D01*
X102595506Y-132669463D01*
X102498815Y-132748815D01*
X102419463Y-132845506D01*
X102360498Y-132955820D01*
X102324188Y-133075518D01*
X102311928Y-133200000D01*
X100660000Y-133200000D01*
X100660000Y-125820512D01*
X102309783Y-125820512D01*
X102351213Y-126100130D01*
X102446397Y-126366292D01*
X102513329Y-126491514D01*
X102757298Y-126563097D01*
X103570395Y-125750000D01*
X102757298Y-124936903D01*
X102513329Y-125008486D01*
X102392429Y-125263996D01*
X102323700Y-125538184D01*
X102309783Y-125820512D01*
X100660000Y-125820512D01*
X100660000Y-98440500D01*
X101091360Y-98440500D01*
X101095400Y-98481519D01*
X101095401Y-106799071D01*
X101091360Y-106840100D01*
X101107482Y-107003788D01*
X101155228Y-107161186D01*
X101232764Y-107306245D01*
X101232765Y-107306246D01*
X101337110Y-107433391D01*
X101368974Y-107459541D01*
X102545018Y-108635586D01*
X102385363Y-108795241D01*
X102228320Y-109030273D01*
X102120147Y-109291426D01*
X102065000Y-109568665D01*
X102065000Y-109851335D01*
X102120147Y-110128574D01*
X102228320Y-110389727D01*
X102385363Y-110624759D01*
X102585241Y-110824637D01*
X102817759Y-110980000D01*
X102585241Y-111135363D01*
X102385363Y-111335241D01*
X102228320Y-111570273D01*
X102120147Y-111831426D01*
X102065000Y-112108665D01*
X102065000Y-112391335D01*
X102120147Y-112668574D01*
X102228320Y-112929727D01*
X102385363Y-113164759D01*
X102585241Y-113364637D01*
X102820273Y-113521680D01*
X103081426Y-113629853D01*
X103358665Y-113685000D01*
X103641335Y-113685000D01*
X103918574Y-113629853D01*
X104179727Y-113521680D01*
X104414759Y-113364637D01*
X104614637Y-113164759D01*
X104771680Y-112929727D01*
X104879853Y-112668574D01*
X104935000Y-112391335D01*
X104935000Y-112108665D01*
X104879853Y-111831426D01*
X104771680Y-111570273D01*
X104751218Y-111539649D01*
X105825000Y-110465867D01*
X105825000Y-110531335D01*
X105880147Y-110808574D01*
X105988320Y-111069727D01*
X106145363Y-111304759D01*
X106345241Y-111504637D01*
X106577759Y-111660000D01*
X106345241Y-111815363D01*
X106145363Y-112015241D01*
X105988320Y-112250273D01*
X105880147Y-112511426D01*
X105825000Y-112788665D01*
X105825000Y-113071335D01*
X105880147Y-113348574D01*
X105988320Y-113609727D01*
X106145363Y-113844759D01*
X106345241Y-114044637D01*
X106577759Y-114200000D01*
X106345241Y-114355363D01*
X106145363Y-114555241D01*
X105988320Y-114790273D01*
X105880147Y-115051426D01*
X105825000Y-115328665D01*
X105825000Y-115611335D01*
X105880147Y-115888574D01*
X105988320Y-116149727D01*
X106145363Y-116384759D01*
X106345241Y-116584637D01*
X106577759Y-116740000D01*
X106345241Y-116895363D01*
X106185586Y-117055018D01*
X105249446Y-116118878D01*
X105223291Y-116087009D01*
X105096146Y-115982664D01*
X105061313Y-115964045D01*
X105129853Y-115798574D01*
X105185000Y-115521335D01*
X105185000Y-115238665D01*
X105129853Y-114961426D01*
X105021680Y-114700273D01*
X104864637Y-114465241D01*
X104664759Y-114265363D01*
X104429727Y-114108320D01*
X104168574Y-114000147D01*
X103891335Y-113945000D01*
X103608665Y-113945000D01*
X103331426Y-114000147D01*
X103070273Y-114108320D01*
X102835241Y-114265363D01*
X102635363Y-114465241D01*
X102478320Y-114700273D01*
X102370147Y-114961426D01*
X102315000Y-115238665D01*
X102315000Y-115521335D01*
X102370147Y-115798574D01*
X102478320Y-116059727D01*
X102635363Y-116294759D01*
X102835241Y-116494637D01*
X102915001Y-116547931D01*
X102915001Y-116639272D01*
X102910960Y-116680300D01*
X102927082Y-116843989D01*
X102974828Y-117001387D01*
X103052364Y-117146446D01*
X103156709Y-117273591D01*
X103283854Y-117377936D01*
X103428913Y-117455472D01*
X103586311Y-117503218D01*
X103708981Y-117515300D01*
X103708982Y-117515300D01*
X103750000Y-117519340D01*
X103791019Y-117515300D01*
X104284133Y-117515300D01*
X105340263Y-118571432D01*
X105366409Y-118603291D01*
X105493554Y-118707636D01*
X105638613Y-118785172D01*
X105796011Y-118832918D01*
X105918681Y-118845000D01*
X105918682Y-118845000D01*
X105959700Y-118849040D01*
X106000718Y-118845000D01*
X106092070Y-118845000D01*
X106145363Y-118924759D01*
X106345241Y-119124637D01*
X106577759Y-119280000D01*
X106345241Y-119435363D01*
X106145363Y-119635241D01*
X105988320Y-119870273D01*
X105880147Y-120131426D01*
X105825000Y-120408665D01*
X105825000Y-120691335D01*
X105880147Y-120968574D01*
X105988320Y-121229727D01*
X106145363Y-121464759D01*
X106345241Y-121664637D01*
X106577759Y-121820000D01*
X106345241Y-121975363D01*
X106145363Y-122175241D01*
X105988320Y-122410273D01*
X105880147Y-122671426D01*
X105825000Y-122948665D01*
X105825000Y-123231335D01*
X105843715Y-123325418D01*
X105145837Y-124023296D01*
X105175812Y-123924482D01*
X105188072Y-123800000D01*
X105188072Y-122200000D01*
X105175812Y-122075518D01*
X105139502Y-121955820D01*
X105080537Y-121845506D01*
X105001185Y-121748815D01*
X104904494Y-121669463D01*
X104794180Y-121610498D01*
X104674482Y-121574188D01*
X104550000Y-121561928D01*
X102950000Y-121561928D01*
X102825518Y-121574188D01*
X102705820Y-121610498D01*
X102595506Y-121669463D01*
X102498815Y-121748815D01*
X102419463Y-121845506D01*
X102360498Y-121955820D01*
X102324188Y-122075518D01*
X102311928Y-122200000D01*
X102311928Y-123800000D01*
X102324188Y-123924482D01*
X102360498Y-124044180D01*
X102419463Y-124154494D01*
X102498815Y-124251185D01*
X102595506Y-124330537D01*
X102705820Y-124389502D01*
X102825518Y-124425812D01*
X102950000Y-124438072D01*
X103156987Y-124438072D01*
X103133708Y-124446397D01*
X103008486Y-124513329D01*
X102936903Y-124757298D01*
X103750000Y-125570395D01*
X103764143Y-125556253D01*
X103943748Y-125735858D01*
X103929605Y-125750000D01*
X103943748Y-125764143D01*
X103764143Y-125943748D01*
X103750000Y-125929605D01*
X102936903Y-126742702D01*
X103008486Y-126986671D01*
X103263996Y-127107571D01*
X103538184Y-127176300D01*
X103820512Y-127190217D01*
X104100130Y-127148787D01*
X104366292Y-127053603D01*
X104491514Y-126986671D01*
X104563097Y-126742704D01*
X104679370Y-126858977D01*
X104730001Y-126808346D01*
X104730000Y-128589131D01*
X103985418Y-129333714D01*
X103891335Y-129315000D01*
X103608665Y-129315000D01*
X103331426Y-129370147D01*
X103070273Y-129478320D01*
X102835241Y-129635363D01*
X102635363Y-129835241D01*
X102478320Y-130070273D01*
X102370147Y-130331426D01*
X102315000Y-130608665D01*
X102315000Y-130891335D01*
X102370147Y-131168574D01*
X102478320Y-131429727D01*
X102635363Y-131664759D01*
X102835241Y-131864637D01*
X103070273Y-132021680D01*
X103331426Y-132129853D01*
X103608665Y-132185000D01*
X103891335Y-132185000D01*
X104168574Y-132129853D01*
X104429727Y-132021680D01*
X104664759Y-131864637D01*
X104864637Y-131664759D01*
X105021680Y-131429727D01*
X105129853Y-131168574D01*
X105185000Y-130891335D01*
X105185000Y-130608665D01*
X105166286Y-130514582D01*
X106126433Y-129554436D01*
X106158291Y-129528291D01*
X106262636Y-129401146D01*
X106331993Y-129271389D01*
X106345241Y-129284637D01*
X106580273Y-129441680D01*
X106590865Y-129446067D01*
X106404869Y-129557615D01*
X106196481Y-129746586D01*
X106028963Y-129972580D01*
X105908754Y-130226913D01*
X105868096Y-130360961D01*
X105990085Y-130583000D01*
X107133000Y-130583000D01*
X107133000Y-130563000D01*
X107387000Y-130563000D01*
X107387000Y-130583000D01*
X108529915Y-130583000D01*
X108651904Y-130360961D01*
X108611246Y-130226913D01*
X108491037Y-129972580D01*
X108323519Y-129746586D01*
X108115131Y-129557615D01*
X107929135Y-129446067D01*
X107939727Y-129441680D01*
X108174759Y-129284637D01*
X108374637Y-129084759D01*
X108531680Y-128849727D01*
X108639853Y-128588574D01*
X108695000Y-128311335D01*
X108695000Y-128028665D01*
X108639853Y-127751426D01*
X108531680Y-127490273D01*
X108374637Y-127255241D01*
X108174759Y-127055363D01*
X107942241Y-126900000D01*
X108174759Y-126744637D01*
X108334414Y-126584982D01*
X108864700Y-127115269D01*
X108864700Y-127458981D01*
X108860660Y-127500000D01*
X108876782Y-127663689D01*
X108924528Y-127821087D01*
X109002064Y-127966146D01*
X109053372Y-128028665D01*
X109106409Y-128093291D01*
X109233554Y-128197636D01*
X109378613Y-128275172D01*
X109536011Y-128322918D01*
X109564461Y-128325720D01*
X109574188Y-128424482D01*
X109610498Y-128544180D01*
X109669463Y-128654494D01*
X109748815Y-128751185D01*
X109845506Y-128830537D01*
X109955820Y-128889502D01*
X110075518Y-128925812D01*
X110200000Y-128938072D01*
X111800000Y-128938072D01*
X111924482Y-128925812D01*
X112044180Y-128889502D01*
X112154494Y-128830537D01*
X112251185Y-128751185D01*
X112330537Y-128654494D01*
X112389502Y-128544180D01*
X112425812Y-128424482D01*
X112438072Y-128300000D01*
X112438072Y-126700000D01*
X112425812Y-126575518D01*
X112389502Y-126455820D01*
X112330537Y-126345506D01*
X112251185Y-126248815D01*
X112154494Y-126169463D01*
X112044180Y-126110498D01*
X111924482Y-126074188D01*
X111800000Y-126061928D01*
X110200000Y-126061928D01*
X110175509Y-126064340D01*
X109620868Y-125509700D01*
X109694981Y-125435587D01*
X109748815Y-125501185D01*
X109845506Y-125580537D01*
X109955820Y-125639502D01*
X110075518Y-125675812D01*
X110200000Y-125688072D01*
X111800000Y-125688072D01*
X111924482Y-125675812D01*
X112044180Y-125639502D01*
X112154494Y-125580537D01*
X112251185Y-125501185D01*
X112330537Y-125404494D01*
X112389502Y-125294180D01*
X112425812Y-125174482D01*
X112438072Y-125050000D01*
X112438072Y-124719040D01*
X113358091Y-124719040D01*
X113452930Y-124983881D01*
X113597615Y-125225131D01*
X113786586Y-125433519D01*
X114012580Y-125601037D01*
X114266913Y-125721246D01*
X114400961Y-125761904D01*
X114623000Y-125639915D01*
X114623000Y-124497000D01*
X114877000Y-124497000D01*
X114877000Y-125639915D01*
X115099039Y-125761904D01*
X115233087Y-125721246D01*
X115487420Y-125601037D01*
X115713414Y-125433519D01*
X115902385Y-125225131D01*
X116047070Y-124983881D01*
X116141909Y-124719040D01*
X116020624Y-124497000D01*
X114877000Y-124497000D01*
X114623000Y-124497000D01*
X113479376Y-124497000D01*
X113358091Y-124719040D01*
X112438072Y-124719040D01*
X112438072Y-124020960D01*
X113358091Y-124020960D01*
X113479376Y-124243000D01*
X114623000Y-124243000D01*
X114623000Y-123100085D01*
X114877000Y-123100085D01*
X114877000Y-124243000D01*
X116020624Y-124243000D01*
X116141909Y-124020960D01*
X116047070Y-123756119D01*
X115902385Y-123514869D01*
X115713414Y-123306481D01*
X115487420Y-123138963D01*
X115233087Y-123018754D01*
X115099039Y-122978096D01*
X114877000Y-123100085D01*
X114623000Y-123100085D01*
X114400961Y-122978096D01*
X114266913Y-123018754D01*
X114012580Y-123138963D01*
X113786586Y-123306481D01*
X113597615Y-123514869D01*
X113452930Y-123756119D01*
X113358091Y-124020960D01*
X112438072Y-124020960D01*
X112438072Y-123450000D01*
X112425812Y-123325518D01*
X112389502Y-123205820D01*
X112330537Y-123095506D01*
X112251185Y-122998815D01*
X112154494Y-122919463D01*
X112044180Y-122860498D01*
X111924482Y-122824188D01*
X111800000Y-122811928D01*
X110200000Y-122811928D01*
X110075518Y-122824188D01*
X109955820Y-122860498D01*
X109845506Y-122919463D01*
X109748815Y-122998815D01*
X109669463Y-123095506D01*
X109610498Y-123205820D01*
X109574188Y-123325518D01*
X109564461Y-123424280D01*
X109536011Y-123427082D01*
X109378613Y-123474828D01*
X109233554Y-123552364D01*
X109106409Y-123656709D01*
X109080263Y-123688568D01*
X108214114Y-124554718D01*
X108174759Y-124515363D01*
X107942241Y-124360000D01*
X108174759Y-124204637D01*
X108374637Y-124004759D01*
X108531680Y-123769727D01*
X108639853Y-123508574D01*
X108695000Y-123231335D01*
X108695000Y-122948665D01*
X108639853Y-122671426D01*
X108531680Y-122410273D01*
X108374637Y-122175241D01*
X108174759Y-121975363D01*
X107942241Y-121820000D01*
X108174759Y-121664637D01*
X108374637Y-121464759D01*
X108531680Y-121229727D01*
X108639853Y-120968574D01*
X108695000Y-120691335D01*
X108695000Y-120408665D01*
X108639853Y-120131426D01*
X108531680Y-119870273D01*
X108374637Y-119635241D01*
X108174759Y-119435363D01*
X107942241Y-119280000D01*
X108174759Y-119124637D01*
X108374637Y-118924759D01*
X108531680Y-118689727D01*
X108639853Y-118428574D01*
X108695000Y-118151335D01*
X108695000Y-117868665D01*
X108639853Y-117591426D01*
X108531680Y-117330273D01*
X108374637Y-117095241D01*
X108174759Y-116895363D01*
X107942241Y-116740000D01*
X108174759Y-116584637D01*
X108324114Y-116435282D01*
X109080263Y-117191432D01*
X109106409Y-117223291D01*
X109138268Y-117249437D01*
X109138270Y-117249439D01*
X109233554Y-117327636D01*
X109378613Y-117405172D01*
X109536011Y-117452918D01*
X109699700Y-117469040D01*
X109740718Y-117465000D01*
X109832070Y-117465000D01*
X109885363Y-117544759D01*
X110085241Y-117744637D01*
X110320273Y-117901680D01*
X110581426Y-118009853D01*
X110858665Y-118065000D01*
X111141335Y-118065000D01*
X111418574Y-118009853D01*
X111679727Y-117901680D01*
X111902390Y-117752901D01*
X111879774Y-117807502D01*
X111840000Y-118007461D01*
X111840000Y-118211339D01*
X111879774Y-118411298D01*
X111957795Y-118599656D01*
X112071063Y-118769174D01*
X112215226Y-118913337D01*
X112384744Y-119026605D01*
X112573102Y-119104626D01*
X112718226Y-119133493D01*
X118165000Y-124580268D01*
X118165001Y-128292069D01*
X118085241Y-128345363D01*
X117885363Y-128545241D01*
X117728320Y-128780273D01*
X117620147Y-129041426D01*
X117565000Y-129318665D01*
X117565000Y-129601335D01*
X117620147Y-129878574D01*
X117728320Y-130139727D01*
X117885363Y-130374759D01*
X118085241Y-130574637D01*
X118317759Y-130730000D01*
X118085241Y-130885363D01*
X117885363Y-131085241D01*
X117728320Y-131320273D01*
X117620147Y-131581426D01*
X117565000Y-131858665D01*
X117565000Y-132141335D01*
X117620147Y-132418574D01*
X117728320Y-132679727D01*
X117885363Y-132914759D01*
X118085241Y-133114637D01*
X118320273Y-133271680D01*
X118581426Y-133379853D01*
X118858665Y-133435000D01*
X119141335Y-133435000D01*
X119418574Y-133379853D01*
X119679727Y-133271680D01*
X119914759Y-133114637D01*
X120114637Y-132914759D01*
X120271680Y-132679727D01*
X120366835Y-132450000D01*
X121061928Y-132450000D01*
X121061928Y-134050000D01*
X121074188Y-134174482D01*
X121110498Y-134294180D01*
X121169463Y-134404494D01*
X121248815Y-134501185D01*
X121345506Y-134580537D01*
X121455820Y-134639502D01*
X121575518Y-134675812D01*
X121700000Y-134688072D01*
X123300000Y-134688072D01*
X123424482Y-134675812D01*
X123544180Y-134639502D01*
X123654494Y-134580537D01*
X123751185Y-134501185D01*
X123830537Y-134404494D01*
X123889502Y-134294180D01*
X123925812Y-134174482D01*
X123938072Y-134050000D01*
X123938072Y-132450000D01*
X123925812Y-132325518D01*
X123889502Y-132205820D01*
X123830537Y-132095506D01*
X123751185Y-131998815D01*
X123654494Y-131919463D01*
X123544180Y-131860498D01*
X123424482Y-131824188D01*
X123416039Y-131823357D01*
X123614637Y-131624759D01*
X123771680Y-131389727D01*
X123879853Y-131128574D01*
X123933541Y-130858665D01*
X124815000Y-130858665D01*
X124815000Y-131141335D01*
X124870147Y-131418574D01*
X124978320Y-131679727D01*
X125135363Y-131914759D01*
X125335241Y-132114637D01*
X125570273Y-132271680D01*
X125831426Y-132379853D01*
X126108665Y-132435000D01*
X126391335Y-132435000D01*
X126668574Y-132379853D01*
X126929727Y-132271680D01*
X127164759Y-132114637D01*
X127364637Y-131914759D01*
X127521680Y-131679727D01*
X127629853Y-131418574D01*
X127685000Y-131141335D01*
X127685000Y-130858665D01*
X127629853Y-130581426D01*
X127521680Y-130320273D01*
X127364637Y-130085241D01*
X127164759Y-129885363D01*
X126929727Y-129728320D01*
X126668574Y-129620147D01*
X126391335Y-129565000D01*
X126108665Y-129565000D01*
X125831426Y-129620147D01*
X125570273Y-129728320D01*
X125335241Y-129885363D01*
X125135363Y-130085241D01*
X124978320Y-130320273D01*
X124870147Y-130581426D01*
X124815000Y-130858665D01*
X123933541Y-130858665D01*
X123935000Y-130851335D01*
X123935000Y-130568665D01*
X123879853Y-130291426D01*
X123771680Y-130030273D01*
X123614637Y-129795241D01*
X123414759Y-129595363D01*
X123182241Y-129440000D01*
X123414759Y-129284637D01*
X123614637Y-129084759D01*
X123771680Y-128849727D01*
X123879853Y-128588574D01*
X123935000Y-128311335D01*
X123935000Y-128028665D01*
X123879853Y-127751426D01*
X123771680Y-127490273D01*
X123614637Y-127255241D01*
X123414759Y-127055363D01*
X123179727Y-126898320D01*
X123169135Y-126893933D01*
X123355131Y-126782385D01*
X123563519Y-126593414D01*
X123731037Y-126367420D01*
X123851246Y-126113087D01*
X123891904Y-125979039D01*
X123769915Y-125757000D01*
X122627000Y-125757000D01*
X122627000Y-125777000D01*
X122373000Y-125777000D01*
X122373000Y-125757000D01*
X121230085Y-125757000D01*
X121108096Y-125979039D01*
X121148754Y-126113087D01*
X121268963Y-126367420D01*
X121436481Y-126593414D01*
X121644869Y-126782385D01*
X121830865Y-126893933D01*
X121820273Y-126898320D01*
X121585241Y-127055363D01*
X121385363Y-127255241D01*
X121228320Y-127490273D01*
X121120147Y-127751426D01*
X121065000Y-128028665D01*
X121065000Y-128311335D01*
X121120147Y-128588574D01*
X121228320Y-128849727D01*
X121385363Y-129084759D01*
X121585241Y-129284637D01*
X121817759Y-129440000D01*
X121585241Y-129595363D01*
X121385363Y-129795241D01*
X121228320Y-130030273D01*
X121120147Y-130291426D01*
X121065000Y-130568665D01*
X121065000Y-130851335D01*
X121120147Y-131128574D01*
X121228320Y-131389727D01*
X121385363Y-131624759D01*
X121583961Y-131823357D01*
X121575518Y-131824188D01*
X121455820Y-131860498D01*
X121345506Y-131919463D01*
X121248815Y-131998815D01*
X121169463Y-132095506D01*
X121110498Y-132205820D01*
X121074188Y-132325518D01*
X121061928Y-132450000D01*
X120366835Y-132450000D01*
X120379853Y-132418574D01*
X120435000Y-132141335D01*
X120435000Y-131858665D01*
X120379853Y-131581426D01*
X120271680Y-131320273D01*
X120114637Y-131085241D01*
X119914759Y-130885363D01*
X119682241Y-130730000D01*
X119914759Y-130574637D01*
X120114637Y-130374759D01*
X120271680Y-130139727D01*
X120379853Y-129878574D01*
X120435000Y-129601335D01*
X120435000Y-129318665D01*
X120379853Y-129041426D01*
X120271680Y-128780273D01*
X120114637Y-128545241D01*
X119914759Y-128345363D01*
X119835000Y-128292070D01*
X119835000Y-124275418D01*
X119839040Y-124234399D01*
X119822918Y-124070711D01*
X119775172Y-123913313D01*
X119697636Y-123768254D01*
X119687677Y-123756119D01*
X119593291Y-123641109D01*
X119561428Y-123614960D01*
X119128146Y-123181678D01*
X119350130Y-123148787D01*
X119616292Y-123053603D01*
X119741514Y-122986671D01*
X119813097Y-122742702D01*
X119000000Y-121929605D01*
X118985858Y-121943748D01*
X118806253Y-121764143D01*
X118820395Y-121750000D01*
X119179605Y-121750000D01*
X119992702Y-122563097D01*
X120236671Y-122491514D01*
X120357571Y-122236004D01*
X120426300Y-121961816D01*
X120440217Y-121679488D01*
X120398787Y-121399870D01*
X120303603Y-121133708D01*
X120236671Y-121008486D01*
X119992702Y-120936903D01*
X119179605Y-121750000D01*
X118820395Y-121750000D01*
X118007298Y-120936903D01*
X117763329Y-121008486D01*
X117642429Y-121263996D01*
X117573700Y-121538184D01*
X117569517Y-121623049D01*
X116703766Y-120757298D01*
X118186903Y-120757298D01*
X119000000Y-121570395D01*
X119813097Y-120757298D01*
X119741514Y-120513329D01*
X119486004Y-120392429D01*
X119211816Y-120323700D01*
X118929488Y-120309783D01*
X118649870Y-120351213D01*
X118383708Y-120446397D01*
X118258486Y-120513329D01*
X118186903Y-120757298D01*
X116703766Y-120757298D01*
X114134539Y-118188072D01*
X115550000Y-118188072D01*
X115674482Y-118175812D01*
X115794180Y-118139502D01*
X115904494Y-118080537D01*
X116001185Y-118001185D01*
X116080537Y-117904494D01*
X116139502Y-117794180D01*
X116175812Y-117674482D01*
X116184625Y-117585000D01*
X117832070Y-117585000D01*
X117885363Y-117664759D01*
X118085241Y-117864637D01*
X118320273Y-118021680D01*
X118581426Y-118129853D01*
X118858665Y-118185000D01*
X119141335Y-118185000D01*
X119418574Y-118129853D01*
X119679727Y-118021680D01*
X119914759Y-117864637D01*
X120114637Y-117664759D01*
X120271680Y-117429727D01*
X120379853Y-117168574D01*
X120435000Y-116891335D01*
X120435000Y-116608665D01*
X120379853Y-116331426D01*
X120271680Y-116070273D01*
X120114637Y-115835241D01*
X119914759Y-115635363D01*
X119679727Y-115478320D01*
X119418574Y-115370147D01*
X119141335Y-115315000D01*
X118858665Y-115315000D01*
X118581426Y-115370147D01*
X118320273Y-115478320D01*
X118085241Y-115635363D01*
X117885363Y-115835241D01*
X117832070Y-115915000D01*
X116184625Y-115915000D01*
X116175812Y-115825518D01*
X116139502Y-115705820D01*
X116080537Y-115595506D01*
X116001185Y-115498815D01*
X115904494Y-115419463D01*
X115794180Y-115360498D01*
X115674482Y-115324188D01*
X115550000Y-115311928D01*
X113950000Y-115311928D01*
X113825518Y-115324188D01*
X113705820Y-115360498D01*
X113595506Y-115419463D01*
X113498815Y-115498815D01*
X113419463Y-115595506D01*
X113360498Y-115705820D01*
X113324188Y-115825518D01*
X113315375Y-115915000D01*
X112733960Y-115915000D01*
X112621387Y-115854828D01*
X112463989Y-115807082D01*
X112341319Y-115795000D01*
X112341318Y-115795000D01*
X112300300Y-115790960D01*
X112259282Y-115795000D01*
X112167930Y-115795000D01*
X112114637Y-115715241D01*
X111914759Y-115515363D01*
X111679727Y-115358320D01*
X111418574Y-115250147D01*
X111141335Y-115195000D01*
X110858665Y-115195000D01*
X110581426Y-115250147D01*
X110320273Y-115358320D01*
X110085241Y-115515363D01*
X109925586Y-115675018D01*
X109261972Y-115011405D01*
X109257936Y-115003854D01*
X109153591Y-114876709D01*
X109026446Y-114772364D01*
X108881387Y-114694828D01*
X108723989Y-114647082D01*
X108601319Y-114635000D01*
X108601318Y-114635000D01*
X108560300Y-114630960D01*
X108519281Y-114635000D01*
X108427930Y-114635000D01*
X108374637Y-114555241D01*
X108174759Y-114355363D01*
X107942241Y-114200000D01*
X108174759Y-114044637D01*
X108374637Y-113844759D01*
X108531680Y-113609727D01*
X108639853Y-113348574D01*
X108695000Y-113071335D01*
X108695000Y-112788665D01*
X108639853Y-112511426D01*
X108531680Y-112250273D01*
X108374637Y-112015241D01*
X108174759Y-111815363D01*
X107942241Y-111660000D01*
X108174759Y-111504637D01*
X108374637Y-111304759D01*
X108531680Y-111069727D01*
X108639853Y-110808574D01*
X108695000Y-110531335D01*
X108695000Y-110248665D01*
X108639853Y-109971426D01*
X108531680Y-109710273D01*
X108374637Y-109475241D01*
X108174759Y-109275363D01*
X107942241Y-109120000D01*
X108174759Y-108964637D01*
X108374637Y-108764759D01*
X108531680Y-108529727D01*
X108639853Y-108268574D01*
X108695000Y-107991335D01*
X108695000Y-107820512D01*
X113559783Y-107820512D01*
X113601213Y-108100130D01*
X113696397Y-108366292D01*
X113763329Y-108491514D01*
X114007298Y-108563097D01*
X114820395Y-107750000D01*
X114007298Y-106936903D01*
X113763329Y-107008486D01*
X113642429Y-107263996D01*
X113573700Y-107538184D01*
X113559783Y-107820512D01*
X108695000Y-107820512D01*
X108695000Y-107708665D01*
X108639853Y-107431426D01*
X108609066Y-107357101D01*
X109710187Y-106255981D01*
X109847615Y-106485131D01*
X110036586Y-106693519D01*
X110262580Y-106861037D01*
X110516913Y-106981246D01*
X110650961Y-107021904D01*
X110873000Y-106899915D01*
X110873000Y-105757000D01*
X111127000Y-105757000D01*
X111127000Y-106899915D01*
X111349039Y-107021904D01*
X111483087Y-106981246D01*
X111737420Y-106861037D01*
X111877371Y-106757298D01*
X114186903Y-106757298D01*
X115000000Y-107570395D01*
X115813097Y-106757298D01*
X115741514Y-106513329D01*
X115486004Y-106392429D01*
X115211816Y-106323700D01*
X114929488Y-106309783D01*
X114649870Y-106351213D01*
X114383708Y-106446397D01*
X114258486Y-106513329D01*
X114186903Y-106757298D01*
X111877371Y-106757298D01*
X111963414Y-106693519D01*
X112152385Y-106485131D01*
X112297070Y-106243881D01*
X112391909Y-105979040D01*
X112270624Y-105757000D01*
X111127000Y-105757000D01*
X110873000Y-105757000D01*
X110853000Y-105757000D01*
X110853000Y-105503000D01*
X110873000Y-105503000D01*
X110873000Y-105483000D01*
X111127000Y-105483000D01*
X111127000Y-105503000D01*
X112270624Y-105503000D01*
X112391909Y-105280960D01*
X112297070Y-105016119D01*
X112227430Y-104900000D01*
X113143982Y-104900000D01*
X113185000Y-104904040D01*
X113226018Y-104900000D01*
X113226019Y-104900000D01*
X113348689Y-104887918D01*
X113506087Y-104840172D01*
X113651146Y-104762636D01*
X113778291Y-104658291D01*
X113804446Y-104626421D01*
X114514582Y-103916285D01*
X114608665Y-103935000D01*
X114891335Y-103935000D01*
X115168574Y-103879853D01*
X115429727Y-103771680D01*
X115664759Y-103614637D01*
X115864637Y-103414759D01*
X116021680Y-103179727D01*
X116069901Y-103063312D01*
X116069900Y-106959554D01*
X115992702Y-106936903D01*
X115179605Y-107750000D01*
X115992702Y-108563097D01*
X116069900Y-108540446D01*
X116069900Y-109330504D01*
X115914759Y-109175363D01*
X115680872Y-109019085D01*
X115741514Y-108986671D01*
X115813097Y-108742702D01*
X115000000Y-107929605D01*
X114186903Y-108742702D01*
X114258486Y-108986671D01*
X114322992Y-109017194D01*
X114320273Y-109018320D01*
X114085241Y-109175363D01*
X113885363Y-109375241D01*
X113728320Y-109610273D01*
X113620147Y-109871426D01*
X113565000Y-110148665D01*
X113565000Y-110431335D01*
X113620147Y-110708574D01*
X113661451Y-110808291D01*
X113638913Y-110815128D01*
X113493854Y-110892664D01*
X113366709Y-110997009D01*
X113340559Y-111028874D01*
X112305020Y-112064413D01*
X112251185Y-111998815D01*
X112154494Y-111919463D01*
X112044180Y-111860498D01*
X111924482Y-111824188D01*
X111800000Y-111811928D01*
X110200000Y-111811928D01*
X110075518Y-111824188D01*
X109955820Y-111860498D01*
X109845506Y-111919463D01*
X109748815Y-111998815D01*
X109669463Y-112095506D01*
X109610498Y-112205820D01*
X109574188Y-112325518D01*
X109561928Y-112450000D01*
X109561928Y-114050000D01*
X109574188Y-114174482D01*
X109610498Y-114294180D01*
X109669463Y-114404494D01*
X109748815Y-114501185D01*
X109845506Y-114580537D01*
X109955820Y-114639502D01*
X110075518Y-114675812D01*
X110200000Y-114688072D01*
X111800000Y-114688072D01*
X111924482Y-114675812D01*
X112044180Y-114639502D01*
X112154494Y-114580537D01*
X112251185Y-114501185D01*
X112330537Y-114404494D01*
X112389502Y-114294180D01*
X112425812Y-114174482D01*
X112435539Y-114075720D01*
X112463989Y-114072918D01*
X112621387Y-114025172D01*
X112766446Y-113947636D01*
X112893591Y-113843291D01*
X112919746Y-113811421D01*
X114305868Y-112425300D01*
X114958982Y-112425300D01*
X115000000Y-112429340D01*
X115163689Y-112413218D01*
X115321087Y-112365472D01*
X115466146Y-112287936D01*
X115593291Y-112183591D01*
X115697636Y-112056446D01*
X115775172Y-111911387D01*
X115822918Y-111753989D01*
X115835000Y-111631319D01*
X115839040Y-111590300D01*
X115835000Y-111549281D01*
X115835000Y-111457930D01*
X115914759Y-111404637D01*
X116114637Y-111204759D01*
X116167930Y-111125000D01*
X116559033Y-111125000D01*
X117495458Y-112061426D01*
X117521609Y-112093291D01*
X117648754Y-112197636D01*
X117791139Y-112273743D01*
X117885363Y-112414759D01*
X118085241Y-112614637D01*
X118320273Y-112771680D01*
X118581426Y-112879853D01*
X118858665Y-112935000D01*
X119141335Y-112935000D01*
X119418574Y-112879853D01*
X119679727Y-112771680D01*
X119914759Y-112614637D01*
X120114637Y-112414759D01*
X120271680Y-112179727D01*
X120379853Y-111918574D01*
X120435000Y-111641335D01*
X120435000Y-111358665D01*
X120379853Y-111081426D01*
X120271680Y-110820273D01*
X120114637Y-110585241D01*
X119914759Y-110385363D01*
X119679727Y-110228320D01*
X119418574Y-110120147D01*
X119141335Y-110065000D01*
X118858665Y-110065000D01*
X118581426Y-110120147D01*
X118320273Y-110228320D01*
X118142723Y-110346955D01*
X117739900Y-109944133D01*
X117739900Y-107492702D01*
X118186903Y-107492702D01*
X118258486Y-107736671D01*
X118513996Y-107857571D01*
X118788184Y-107926300D01*
X119070512Y-107940217D01*
X119350130Y-107898787D01*
X119616292Y-107803603D01*
X119741514Y-107736671D01*
X119813097Y-107492702D01*
X119000000Y-106679605D01*
X118186903Y-107492702D01*
X117739900Y-107492702D01*
X117739900Y-107197681D01*
X117763329Y-107241514D01*
X118007298Y-107313097D01*
X118820395Y-106500000D01*
X119179605Y-106500000D01*
X119992702Y-107313097D01*
X120236671Y-107241514D01*
X120357571Y-106986004D01*
X120426300Y-106711816D01*
X120440217Y-106429488D01*
X120398787Y-106149870D01*
X120303603Y-105883708D01*
X120236671Y-105758486D01*
X119992702Y-105686903D01*
X119179605Y-106500000D01*
X118820395Y-106500000D01*
X118007298Y-105686903D01*
X117763329Y-105758486D01*
X117739900Y-105808001D01*
X117739900Y-105507298D01*
X118186903Y-105507298D01*
X119000000Y-106320395D01*
X119813097Y-105507298D01*
X119741514Y-105263329D01*
X119486004Y-105142429D01*
X119211816Y-105073700D01*
X118929488Y-105059783D01*
X118649870Y-105101213D01*
X118383708Y-105196397D01*
X118258486Y-105263329D01*
X118186903Y-105507298D01*
X117739900Y-105507298D01*
X117739900Y-104757977D01*
X117820273Y-104811680D01*
X118081426Y-104919853D01*
X118358665Y-104975000D01*
X118641335Y-104975000D01*
X118918574Y-104919853D01*
X119179727Y-104811680D01*
X119414759Y-104654637D01*
X119614637Y-104454759D01*
X119771680Y-104219727D01*
X119879853Y-103958574D01*
X119894429Y-103885296D01*
X121083714Y-105074582D01*
X121065000Y-105168665D01*
X121065000Y-105451335D01*
X121120147Y-105728574D01*
X121228320Y-105989727D01*
X121385363Y-106224759D01*
X121585241Y-106424637D01*
X121817759Y-106580000D01*
X121585241Y-106735363D01*
X121385363Y-106935241D01*
X121228320Y-107170273D01*
X121120147Y-107431426D01*
X121065000Y-107708665D01*
X121065000Y-107991335D01*
X121120147Y-108268574D01*
X121228320Y-108529727D01*
X121385363Y-108764759D01*
X121585241Y-108964637D01*
X121817759Y-109120000D01*
X121585241Y-109275363D01*
X121385363Y-109475241D01*
X121228320Y-109710273D01*
X121120147Y-109971426D01*
X121065000Y-110248665D01*
X121065000Y-110531335D01*
X121120147Y-110808574D01*
X121228320Y-111069727D01*
X121385363Y-111304759D01*
X121585241Y-111504637D01*
X121817759Y-111660000D01*
X121585241Y-111815363D01*
X121385363Y-112015241D01*
X121228320Y-112250273D01*
X121120147Y-112511426D01*
X121065000Y-112788665D01*
X121065000Y-113071335D01*
X121120147Y-113348574D01*
X121228320Y-113609727D01*
X121385363Y-113844759D01*
X121585241Y-114044637D01*
X121817759Y-114200000D01*
X121585241Y-114355363D01*
X121385363Y-114555241D01*
X121228320Y-114790273D01*
X121120147Y-115051426D01*
X121065000Y-115328665D01*
X121065000Y-115611335D01*
X121120147Y-115888574D01*
X121228320Y-116149727D01*
X121385363Y-116384759D01*
X121585241Y-116584637D01*
X121817759Y-116740000D01*
X121585241Y-116895363D01*
X121385363Y-117095241D01*
X121228320Y-117330273D01*
X121120147Y-117591426D01*
X121065000Y-117868665D01*
X121065000Y-118151335D01*
X121120147Y-118428574D01*
X121228320Y-118689727D01*
X121385363Y-118924759D01*
X121585241Y-119124637D01*
X121817759Y-119280000D01*
X121585241Y-119435363D01*
X121385363Y-119635241D01*
X121228320Y-119870273D01*
X121120147Y-120131426D01*
X121065000Y-120408665D01*
X121065000Y-120691335D01*
X121120147Y-120968574D01*
X121228320Y-121229727D01*
X121385363Y-121464759D01*
X121585241Y-121664637D01*
X121817759Y-121820000D01*
X121585241Y-121975363D01*
X121385363Y-122175241D01*
X121228320Y-122410273D01*
X121120147Y-122671426D01*
X121065000Y-122948665D01*
X121065000Y-123231335D01*
X121120147Y-123508574D01*
X121228320Y-123769727D01*
X121385363Y-124004759D01*
X121585241Y-124204637D01*
X121820273Y-124361680D01*
X121830865Y-124366067D01*
X121644869Y-124477615D01*
X121436481Y-124666586D01*
X121268963Y-124892580D01*
X121148754Y-125146913D01*
X121108096Y-125280961D01*
X121230085Y-125503000D01*
X122373000Y-125503000D01*
X122373000Y-125483000D01*
X122627000Y-125483000D01*
X122627000Y-125503000D01*
X123769915Y-125503000D01*
X123891904Y-125280961D01*
X123851246Y-125146913D01*
X123731037Y-124892580D01*
X123563519Y-124666586D01*
X123355131Y-124477615D01*
X123169135Y-124366067D01*
X123179727Y-124361680D01*
X123414759Y-124204637D01*
X123614637Y-124004759D01*
X123771680Y-123769727D01*
X123879853Y-123508574D01*
X123935000Y-123231335D01*
X123935000Y-122948665D01*
X123879853Y-122671426D01*
X123771680Y-122410273D01*
X123614637Y-122175241D01*
X123414759Y-121975363D01*
X123182241Y-121820000D01*
X123414759Y-121664637D01*
X123614637Y-121464759D01*
X123771680Y-121229727D01*
X123879853Y-120968574D01*
X123935000Y-120691335D01*
X123935000Y-120408665D01*
X123879853Y-120131426D01*
X123771680Y-119870273D01*
X123614637Y-119635241D01*
X123414759Y-119435363D01*
X123182241Y-119280000D01*
X123414759Y-119124637D01*
X123614637Y-118924759D01*
X123771680Y-118689727D01*
X123879853Y-118428574D01*
X123935000Y-118151335D01*
X123935000Y-117868665D01*
X123879853Y-117591426D01*
X123771680Y-117330273D01*
X123614637Y-117095241D01*
X123414759Y-116895363D01*
X123182241Y-116740000D01*
X123414759Y-116584637D01*
X123614637Y-116384759D01*
X123771680Y-116149727D01*
X123879853Y-115888574D01*
X123935000Y-115611335D01*
X123935000Y-115328665D01*
X123879853Y-115051426D01*
X123771680Y-114790273D01*
X123614637Y-114555241D01*
X123414759Y-114355363D01*
X123182241Y-114200000D01*
X123414759Y-114044637D01*
X123614637Y-113844759D01*
X123771680Y-113609727D01*
X123879853Y-113348574D01*
X123935000Y-113071335D01*
X123935000Y-112788665D01*
X123879853Y-112511426D01*
X123771680Y-112250273D01*
X123614637Y-112015241D01*
X123414759Y-111815363D01*
X123182241Y-111660000D01*
X123414759Y-111504637D01*
X123614637Y-111304759D01*
X123771680Y-111069727D01*
X123879853Y-110808574D01*
X123935000Y-110531335D01*
X123935000Y-110248665D01*
X123879853Y-109971426D01*
X123771680Y-109710273D01*
X123614637Y-109475241D01*
X123414759Y-109275363D01*
X123182241Y-109120000D01*
X123414759Y-108964637D01*
X123614637Y-108764759D01*
X123771680Y-108529727D01*
X123879853Y-108268574D01*
X123935000Y-107991335D01*
X123935000Y-107708665D01*
X123879853Y-107431426D01*
X123771680Y-107170273D01*
X123614637Y-106935241D01*
X123414759Y-106735363D01*
X123182241Y-106580000D01*
X123414759Y-106424637D01*
X123614637Y-106224759D01*
X123771680Y-105989727D01*
X123879853Y-105728574D01*
X123935000Y-105451335D01*
X123935000Y-105168665D01*
X123879853Y-104891426D01*
X123771680Y-104630273D01*
X123614637Y-104395241D01*
X123414759Y-104195363D01*
X123182241Y-104040000D01*
X123414759Y-103884637D01*
X123434264Y-103865132D01*
X124833714Y-105264583D01*
X124815000Y-105358665D01*
X124815000Y-105641335D01*
X124870147Y-105918574D01*
X124978320Y-106179727D01*
X125135363Y-106414759D01*
X125335241Y-106614637D01*
X125567759Y-106770000D01*
X125335241Y-106925363D01*
X125135363Y-107125241D01*
X124978320Y-107360273D01*
X124870147Y-107621426D01*
X124815000Y-107898665D01*
X124815000Y-108181335D01*
X124870147Y-108458574D01*
X124978320Y-108719727D01*
X125135363Y-108954759D01*
X125335241Y-109154637D01*
X125570273Y-109311680D01*
X125831426Y-109419853D01*
X126108665Y-109475000D01*
X126391335Y-109475000D01*
X126668574Y-109419853D01*
X126929727Y-109311680D01*
X127164759Y-109154637D01*
X127364637Y-108954759D01*
X127521680Y-108719727D01*
X127629853Y-108458574D01*
X127685000Y-108181335D01*
X127685000Y-107898665D01*
X127629853Y-107621426D01*
X127521680Y-107360273D01*
X127364637Y-107125241D01*
X127164759Y-106925363D01*
X126932241Y-106770000D01*
X127164759Y-106614637D01*
X127364637Y-106414759D01*
X127521680Y-106179727D01*
X127629853Y-105918574D01*
X127685000Y-105641335D01*
X127685000Y-105358665D01*
X127629853Y-105081426D01*
X127521680Y-104820273D01*
X127364637Y-104585241D01*
X127164759Y-104385363D01*
X126929727Y-104228320D01*
X126668574Y-104120147D01*
X126391335Y-104065000D01*
X126108665Y-104065000D01*
X126014583Y-104083714D01*
X124632618Y-102701751D01*
X124623218Y-102606311D01*
X124575472Y-102448913D01*
X124497936Y-102303854D01*
X124393591Y-102176709D01*
X124266446Y-102072364D01*
X124121387Y-101994828D01*
X123963989Y-101947082D01*
X123841319Y-101935000D01*
X123841318Y-101935000D01*
X123800300Y-101930960D01*
X123759281Y-101935000D01*
X123667930Y-101935000D01*
X123614637Y-101855241D01*
X123414759Y-101655363D01*
X123182241Y-101500000D01*
X123414759Y-101344637D01*
X123614637Y-101144759D01*
X123771680Y-100909727D01*
X123879853Y-100648574D01*
X123935000Y-100371335D01*
X123935000Y-100088665D01*
X123879853Y-99811426D01*
X123771680Y-99550273D01*
X123614637Y-99315241D01*
X123414759Y-99115363D01*
X123182241Y-98960000D01*
X123414759Y-98804637D01*
X123614637Y-98604759D01*
X123771680Y-98369727D01*
X123879853Y-98108574D01*
X123935000Y-97831335D01*
X123935000Y-97548665D01*
X123879853Y-97271426D01*
X123771680Y-97010273D01*
X123614637Y-96775241D01*
X123414759Y-96575363D01*
X123179727Y-96418320D01*
X122918574Y-96310147D01*
X122641335Y-96255000D01*
X122507368Y-96255000D01*
X122887368Y-95875000D01*
X125082070Y-95875000D01*
X125135363Y-95954759D01*
X125335241Y-96154637D01*
X125570273Y-96311680D01*
X125831426Y-96419853D01*
X126108665Y-96475000D01*
X126391335Y-96475000D01*
X126668574Y-96419853D01*
X126929727Y-96311680D01*
X127164759Y-96154637D01*
X127364637Y-95954759D01*
X127521680Y-95719727D01*
X127629853Y-95458574D01*
X127685000Y-95181335D01*
X127685000Y-94898665D01*
X127629853Y-94621426D01*
X127521680Y-94360273D01*
X127364637Y-94125241D01*
X127164759Y-93925363D01*
X126932241Y-93770000D01*
X127164759Y-93614637D01*
X127364637Y-93414759D01*
X127521680Y-93179727D01*
X127629853Y-92918574D01*
X127685000Y-92641335D01*
X127685000Y-92358665D01*
X127629853Y-92081426D01*
X127521680Y-91820273D01*
X127364637Y-91585241D01*
X127164759Y-91385363D01*
X127085000Y-91332070D01*
X127085000Y-85641318D01*
X127089040Y-85600300D01*
X127072918Y-85436611D01*
X127025172Y-85279213D01*
X126947636Y-85134154D01*
X126869439Y-85038870D01*
X126869437Y-85038868D01*
X126843291Y-85007009D01*
X126811433Y-84980864D01*
X119208125Y-77377557D01*
X119301185Y-77301185D01*
X119380537Y-77204494D01*
X119439502Y-77094180D01*
X119475812Y-76974482D01*
X119488072Y-76850000D01*
X119488072Y-75150000D01*
X119475812Y-75025518D01*
X119439502Y-74905820D01*
X119380537Y-74795506D01*
X119301185Y-74698815D01*
X119204494Y-74619463D01*
X119094180Y-74560498D01*
X118974482Y-74524188D01*
X118850000Y-74511928D01*
X117150000Y-74511928D01*
X117025518Y-74524188D01*
X116905820Y-74560498D01*
X116795506Y-74619463D01*
X116698815Y-74698815D01*
X116619463Y-74795506D01*
X116560498Y-74905820D01*
X116524188Y-75025518D01*
X116511928Y-75150000D01*
X116511928Y-76850000D01*
X116524188Y-76974482D01*
X116560498Y-77094180D01*
X116619463Y-77204494D01*
X116698815Y-77301185D01*
X116795506Y-77380537D01*
X116905820Y-77439502D01*
X117025518Y-77475812D01*
X117150000Y-77488072D01*
X117174529Y-77488072D01*
X117177082Y-77513988D01*
X117224828Y-77671386D01*
X117224829Y-77671387D01*
X117302365Y-77816446D01*
X117406710Y-77943591D01*
X117438574Y-77969741D01*
X125415000Y-85946169D01*
X125415001Y-91332069D01*
X125335241Y-91385363D01*
X125135363Y-91585241D01*
X124978320Y-91820273D01*
X124870147Y-92081426D01*
X124815000Y-92358665D01*
X124815000Y-92641335D01*
X124870147Y-92918574D01*
X124978320Y-93179727D01*
X125135363Y-93414759D01*
X125335241Y-93614637D01*
X125567759Y-93770000D01*
X125335241Y-93925363D01*
X125135363Y-94125241D01*
X125082070Y-94205000D01*
X122582518Y-94205000D01*
X122541499Y-94200960D01*
X122500481Y-94205000D01*
X122377811Y-94217082D01*
X122220413Y-94264828D01*
X122075354Y-94342364D01*
X121948209Y-94446709D01*
X121922059Y-94478573D01*
X116343474Y-100057159D01*
X116311610Y-100083309D01*
X116285462Y-100115171D01*
X116207264Y-100210455D01*
X116129728Y-100355514D01*
X116081982Y-100512912D01*
X116065860Y-100676600D01*
X116069901Y-100717629D01*
X116069901Y-101936689D01*
X116021680Y-101820273D01*
X115864637Y-101585241D01*
X115664759Y-101385363D01*
X115429727Y-101228320D01*
X115168574Y-101120147D01*
X114891335Y-101065000D01*
X114608665Y-101065000D01*
X114331426Y-101120147D01*
X114070273Y-101228320D01*
X113835241Y-101385363D01*
X113635363Y-101585241D01*
X113478320Y-101820273D01*
X113370147Y-102081426D01*
X113315000Y-102358665D01*
X113315000Y-102641335D01*
X113333715Y-102735418D01*
X112839133Y-103230000D01*
X112242119Y-103230000D01*
X112357571Y-102986004D01*
X112426300Y-102711816D01*
X112440217Y-102429488D01*
X112398787Y-102149870D01*
X112303603Y-101883708D01*
X112236671Y-101758486D01*
X111992702Y-101686903D01*
X111179605Y-102500000D01*
X111193748Y-102514143D01*
X111014143Y-102693748D01*
X111000000Y-102679605D01*
X110378942Y-103300663D01*
X110254154Y-103367364D01*
X110127009Y-103471709D01*
X110100861Y-103503571D01*
X108651990Y-104952442D01*
X108639853Y-104891426D01*
X108531680Y-104630273D01*
X108374637Y-104395241D01*
X108174759Y-104195363D01*
X107942241Y-104040000D01*
X108174759Y-103884637D01*
X108374637Y-103684759D01*
X108531680Y-103449727D01*
X108639853Y-103188574D01*
X108695000Y-102911335D01*
X108695000Y-102628665D01*
X108683433Y-102570512D01*
X109559783Y-102570512D01*
X109601213Y-102850130D01*
X109696397Y-103116292D01*
X109763329Y-103241514D01*
X110007298Y-103313097D01*
X110820395Y-102500000D01*
X110007298Y-101686903D01*
X109763329Y-101758486D01*
X109642429Y-102013996D01*
X109573700Y-102288184D01*
X109559783Y-102570512D01*
X108683433Y-102570512D01*
X108639853Y-102351426D01*
X108531680Y-102090273D01*
X108374637Y-101855241D01*
X108174759Y-101655363D01*
X107953164Y-101507298D01*
X110186903Y-101507298D01*
X111000000Y-102320395D01*
X111813097Y-101507298D01*
X111741514Y-101263329D01*
X111486004Y-101142429D01*
X111211816Y-101073700D01*
X110929488Y-101059783D01*
X110649870Y-101101213D01*
X110383708Y-101196397D01*
X110258486Y-101263329D01*
X110186903Y-101507298D01*
X107953164Y-101507298D01*
X107942241Y-101500000D01*
X108174759Y-101344637D01*
X108374637Y-101144759D01*
X108531680Y-100909727D01*
X108639853Y-100648574D01*
X108695000Y-100371335D01*
X108695000Y-100088665D01*
X108639853Y-99811426D01*
X108531680Y-99550273D01*
X108374637Y-99315241D01*
X108174759Y-99115363D01*
X107942241Y-98960000D01*
X108174759Y-98804637D01*
X108374637Y-98604759D01*
X108531680Y-98369727D01*
X108639853Y-98108574D01*
X108695000Y-97831335D01*
X108695000Y-97548665D01*
X108639853Y-97271426D01*
X108531680Y-97010273D01*
X108374637Y-96775241D01*
X108360596Y-96761200D01*
X109767791Y-96761200D01*
X109728320Y-96820273D01*
X109620147Y-97081426D01*
X109565000Y-97358665D01*
X109565000Y-97641335D01*
X109620147Y-97918574D01*
X109728320Y-98179727D01*
X109885363Y-98414759D01*
X110085241Y-98614637D01*
X110320273Y-98771680D01*
X110581426Y-98879853D01*
X110858665Y-98935000D01*
X111141335Y-98935000D01*
X111418574Y-98879853D01*
X111679727Y-98771680D01*
X111914759Y-98614637D01*
X112036694Y-98492702D01*
X113936903Y-98492702D01*
X114008486Y-98736671D01*
X114263996Y-98857571D01*
X114538184Y-98926300D01*
X114820512Y-98940217D01*
X115100130Y-98898787D01*
X115366292Y-98803603D01*
X115491514Y-98736671D01*
X115563097Y-98492702D01*
X114750000Y-97679605D01*
X113936903Y-98492702D01*
X112036694Y-98492702D01*
X112114637Y-98414759D01*
X112271680Y-98179727D01*
X112379853Y-97918574D01*
X112435000Y-97641335D01*
X112435000Y-97570512D01*
X113309783Y-97570512D01*
X113351213Y-97850130D01*
X113446397Y-98116292D01*
X113513329Y-98241514D01*
X113757298Y-98313097D01*
X114570395Y-97500000D01*
X114929605Y-97500000D01*
X115742702Y-98313097D01*
X115986671Y-98241514D01*
X116107571Y-97986004D01*
X116176300Y-97711816D01*
X116190217Y-97429488D01*
X116148787Y-97149870D01*
X116053603Y-96883708D01*
X115986671Y-96758486D01*
X115742702Y-96686903D01*
X114929605Y-97500000D01*
X114570395Y-97500000D01*
X113757298Y-96686903D01*
X113513329Y-96758486D01*
X113392429Y-97013996D01*
X113323700Y-97288184D01*
X113309783Y-97570512D01*
X112435000Y-97570512D01*
X112435000Y-97358665D01*
X112379853Y-97081426D01*
X112271680Y-96820273D01*
X112114637Y-96585241D01*
X112036694Y-96507298D01*
X113936903Y-96507298D01*
X114750000Y-97320395D01*
X115563097Y-96507298D01*
X115491514Y-96263329D01*
X115236004Y-96142429D01*
X114961816Y-96073700D01*
X114679488Y-96059783D01*
X114399870Y-96101213D01*
X114133708Y-96196397D01*
X114008486Y-96263329D01*
X113936903Y-96507298D01*
X112036694Y-96507298D01*
X111914759Y-96385363D01*
X111679727Y-96228320D01*
X111448164Y-96132403D01*
X120122443Y-87458125D01*
X120198815Y-87551185D01*
X120295506Y-87630537D01*
X120405820Y-87689502D01*
X120525518Y-87725812D01*
X120650000Y-87738072D01*
X122350000Y-87738072D01*
X122474482Y-87725812D01*
X122594180Y-87689502D01*
X122704494Y-87630537D01*
X122801185Y-87551185D01*
X122880537Y-87454494D01*
X122939502Y-87344180D01*
X122975812Y-87224482D01*
X122988072Y-87100000D01*
X122988072Y-85400000D01*
X122975812Y-85275518D01*
X122939502Y-85155820D01*
X122880537Y-85045506D01*
X122801185Y-84948815D01*
X122704494Y-84869463D01*
X122594180Y-84810498D01*
X122474482Y-84774188D01*
X122350000Y-84761928D01*
X120650000Y-84761928D01*
X120525518Y-84774188D01*
X120405820Y-84810498D01*
X120295506Y-84869463D01*
X120198815Y-84948815D01*
X120119463Y-85045506D01*
X120060498Y-85155820D01*
X120024188Y-85275518D01*
X120011928Y-85400000D01*
X120011928Y-85424529D01*
X119986011Y-85427082D01*
X119828613Y-85474828D01*
X119683554Y-85552364D01*
X119556409Y-85656709D01*
X119530259Y-85688573D01*
X116238072Y-88980760D01*
X116238072Y-87650000D01*
X116225812Y-87525518D01*
X116189502Y-87405820D01*
X116130537Y-87295506D01*
X116051185Y-87198815D01*
X115954494Y-87119463D01*
X115844180Y-87060498D01*
X115724482Y-87024188D01*
X115600000Y-87011928D01*
X113900000Y-87011928D01*
X113775518Y-87024188D01*
X113655820Y-87060498D01*
X113545506Y-87119463D01*
X113448815Y-87198815D01*
X113369463Y-87295506D01*
X113310498Y-87405820D01*
X113274188Y-87525518D01*
X113261928Y-87650000D01*
X113261928Y-87665000D01*
X111911918Y-87665000D01*
X111870900Y-87660960D01*
X111829881Y-87665000D01*
X111707211Y-87677082D01*
X111549813Y-87724828D01*
X111404754Y-87802364D01*
X111277609Y-87906709D01*
X111251463Y-87938568D01*
X104554320Y-94635713D01*
X104553603Y-94633708D01*
X104486671Y-94508486D01*
X104242702Y-94436903D01*
X103429605Y-95250000D01*
X103443748Y-95264143D01*
X103264143Y-95443748D01*
X103250000Y-95429605D01*
X102436903Y-96242702D01*
X102508486Y-96486671D01*
X102640769Y-96549264D01*
X101368979Y-97821054D01*
X101337109Y-97847209D01*
X101242404Y-97962609D01*
X101232764Y-97974355D01*
X101155228Y-98119414D01*
X101107482Y-98276812D01*
X101091360Y-98440500D01*
X100660000Y-98440500D01*
X100660000Y-95320512D01*
X101809783Y-95320512D01*
X101851213Y-95600130D01*
X101946397Y-95866292D01*
X102013329Y-95991514D01*
X102257298Y-96063097D01*
X103070395Y-95250000D01*
X102257298Y-94436903D01*
X102013329Y-94508486D01*
X101892429Y-94763996D01*
X101823700Y-95038184D01*
X101809783Y-95320512D01*
X100660000Y-95320512D01*
X100660000Y-94257298D01*
X102436903Y-94257298D01*
X103250000Y-95070395D01*
X104063097Y-94257298D01*
X103991514Y-94013329D01*
X103736004Y-93892429D01*
X103461816Y-93823700D01*
X103179488Y-93809783D01*
X102899870Y-93851213D01*
X102633708Y-93946397D01*
X102508486Y-94013329D01*
X102436903Y-94257298D01*
X100660000Y-94257298D01*
X100660000Y-90108665D01*
X101815000Y-90108665D01*
X101815000Y-90391335D01*
X101870147Y-90668574D01*
X101978320Y-90929727D01*
X102135363Y-91164759D01*
X102335241Y-91364637D01*
X102570273Y-91521680D01*
X102831426Y-91629853D01*
X103108665Y-91685000D01*
X103391335Y-91685000D01*
X103668574Y-91629853D01*
X103929727Y-91521680D01*
X104164759Y-91364637D01*
X104364637Y-91164759D01*
X104521680Y-90929727D01*
X104629853Y-90668574D01*
X104685000Y-90391335D01*
X104685000Y-90108665D01*
X104629853Y-89831426D01*
X104521680Y-89570273D01*
X104364637Y-89335241D01*
X104164759Y-89135363D01*
X103929727Y-88978320D01*
X103668574Y-88870147D01*
X103391335Y-88815000D01*
X103108665Y-88815000D01*
X102831426Y-88870147D01*
X102570273Y-88978320D01*
X102335241Y-89135363D01*
X102135363Y-89335241D01*
X101978320Y-89570273D01*
X101870147Y-89831426D01*
X101815000Y-90108665D01*
X100660000Y-90108665D01*
X100660000Y-81818665D01*
X102065000Y-81818665D01*
X102065000Y-82101335D01*
X102120147Y-82378574D01*
X102228320Y-82639727D01*
X102385363Y-82874759D01*
X102585241Y-83074637D01*
X102817759Y-83230000D01*
X102585241Y-83385363D01*
X102385363Y-83585241D01*
X102228320Y-83820273D01*
X102120147Y-84081426D01*
X102065000Y-84358665D01*
X102065000Y-84641335D01*
X102120147Y-84918574D01*
X102228320Y-85179727D01*
X102385363Y-85414759D01*
X102585241Y-85614637D01*
X102820273Y-85771680D01*
X103081426Y-85879853D01*
X103358665Y-85935000D01*
X103641335Y-85935000D01*
X103918574Y-85879853D01*
X104179727Y-85771680D01*
X104414759Y-85614637D01*
X104614637Y-85414759D01*
X104771680Y-85179727D01*
X104879853Y-84918574D01*
X104935000Y-84641335D01*
X104935000Y-84575868D01*
X106064700Y-85705569D01*
X106064700Y-85708981D01*
X106060660Y-85750000D01*
X106076782Y-85913689D01*
X106124528Y-86071087D01*
X106202064Y-86216146D01*
X106269187Y-86297936D01*
X106306409Y-86343291D01*
X106433554Y-86447636D01*
X106578613Y-86525172D01*
X106736011Y-86572918D01*
X106761928Y-86575471D01*
X106761928Y-86600000D01*
X106774188Y-86724482D01*
X106810498Y-86844180D01*
X106869463Y-86954494D01*
X106948815Y-87051185D01*
X107045506Y-87130537D01*
X107155820Y-87189502D01*
X107275518Y-87225812D01*
X107400000Y-87238072D01*
X109100000Y-87238072D01*
X109224482Y-87225812D01*
X109344180Y-87189502D01*
X109454494Y-87130537D01*
X109551185Y-87051185D01*
X109630537Y-86954494D01*
X109689502Y-86844180D01*
X109725812Y-86724482D01*
X109738072Y-86600000D01*
X109738072Y-84900000D01*
X109725812Y-84775518D01*
X109689502Y-84655820D01*
X109630537Y-84545506D01*
X109551185Y-84448815D01*
X109454494Y-84369463D01*
X109344180Y-84310498D01*
X109224482Y-84274188D01*
X109100000Y-84261928D01*
X107400000Y-84261928D01*
X107275518Y-84274188D01*
X107155820Y-84310498D01*
X107074718Y-84353849D01*
X104916285Y-82195418D01*
X104935000Y-82101335D01*
X104935000Y-81818665D01*
X104879853Y-81541426D01*
X104771680Y-81280273D01*
X104614637Y-81045241D01*
X104414759Y-80845363D01*
X104179727Y-80688320D01*
X103918574Y-80580147D01*
X103641335Y-80525000D01*
X103358665Y-80525000D01*
X103081426Y-80580147D01*
X102820273Y-80688320D01*
X102585241Y-80845363D01*
X102385363Y-81045241D01*
X102228320Y-81280273D01*
X102120147Y-81541426D01*
X102065000Y-81818665D01*
X100660000Y-81818665D01*
X100660000Y-71161768D01*
X100730864Y-71294345D01*
X100835209Y-71421491D01*
X100867079Y-71447646D01*
X102041875Y-72622443D01*
X101948815Y-72698815D01*
X101869463Y-72795506D01*
X101810498Y-72905820D01*
X101774188Y-73025518D01*
X101761928Y-73150000D01*
X101761928Y-74850000D01*
X101774188Y-74974482D01*
X101810498Y-75094180D01*
X101869463Y-75204494D01*
X101948815Y-75301185D01*
X102045506Y-75380537D01*
X102155820Y-75439502D01*
X102275518Y-75475812D01*
X102400000Y-75488072D01*
X104100000Y-75488072D01*
X104224482Y-75475812D01*
X104344180Y-75439502D01*
X104454494Y-75380537D01*
X104551185Y-75301185D01*
X104630537Y-75204494D01*
X104689502Y-75094180D01*
X104725812Y-74974482D01*
X104738072Y-74850000D01*
X104738072Y-73150000D01*
X104725812Y-73025518D01*
X104689502Y-72905820D01*
X104630537Y-72795506D01*
X104551185Y-72698815D01*
X104454494Y-72619463D01*
X104344180Y-72560498D01*
X104224482Y-72524188D01*
X104100000Y-72511928D01*
X104075471Y-72511928D01*
X104072918Y-72486011D01*
X104025172Y-72328613D01*
X103947636Y-72183554D01*
X103907040Y-72134088D01*
X103843291Y-72056409D01*
X103811427Y-72030259D01*
X102263500Y-70482333D01*
X102263500Y-64607336D01*
X102263996Y-64607571D01*
X102538184Y-64676300D01*
X102820512Y-64690217D01*
X103100130Y-64648787D01*
X103366292Y-64553603D01*
X103491514Y-64486671D01*
X103563097Y-64242702D01*
X102750000Y-63429605D01*
X102735858Y-63443748D01*
X102556253Y-63264143D01*
X102570395Y-63250000D01*
X102929605Y-63250000D01*
X103742702Y-64063097D01*
X103986671Y-63991514D01*
X104107571Y-63736004D01*
X104176300Y-63461816D01*
X104183265Y-63320512D01*
X105809783Y-63320512D01*
X105851213Y-63600130D01*
X105946397Y-63866292D01*
X106013329Y-63991514D01*
X106257298Y-64063097D01*
X107070395Y-63250000D01*
X107429605Y-63250000D01*
X108242702Y-64063097D01*
X108486671Y-63991514D01*
X108607571Y-63736004D01*
X108676300Y-63461816D01*
X108690217Y-63179488D01*
X108648787Y-62899870D01*
X108553603Y-62633708D01*
X108486671Y-62508486D01*
X108242702Y-62436903D01*
X107429605Y-63250000D01*
X107070395Y-63250000D01*
X106257298Y-62436903D01*
X106013329Y-62508486D01*
X105892429Y-62763996D01*
X105823700Y-63038184D01*
X105809783Y-63320512D01*
X104183265Y-63320512D01*
X104190217Y-63179488D01*
X104148787Y-62899870D01*
X104053603Y-62633708D01*
X103986671Y-62508486D01*
X103742702Y-62436903D01*
X102929605Y-63250000D01*
X102570395Y-63250000D01*
X102556253Y-63235858D01*
X102735858Y-63056253D01*
X102750000Y-63070395D01*
X103563097Y-62257298D01*
X106436903Y-62257298D01*
X107250000Y-63070395D01*
X108063097Y-62257298D01*
X107991514Y-62013329D01*
X107736004Y-61892429D01*
X107461816Y-61823700D01*
X107179488Y-61809783D01*
X106899870Y-61851213D01*
X106633708Y-61946397D01*
X106508486Y-62013329D01*
X106436903Y-62257298D01*
X103563097Y-62257298D01*
X103491514Y-62013329D01*
X103236004Y-61892429D01*
X102961816Y-61823700D01*
X102679488Y-61809783D01*
X102399870Y-61851213D01*
X102263500Y-61899981D01*
X102263500Y-60719040D01*
X105858091Y-60719040D01*
X105952930Y-60983881D01*
X106097615Y-61225131D01*
X106286586Y-61433519D01*
X106512580Y-61601037D01*
X106766913Y-61721246D01*
X106900961Y-61761904D01*
X107123000Y-61639915D01*
X107123000Y-60497000D01*
X107377000Y-60497000D01*
X107377000Y-61639915D01*
X107599039Y-61761904D01*
X107733087Y-61721246D01*
X107987420Y-61601037D01*
X108213414Y-61433519D01*
X108402385Y-61225131D01*
X108406038Y-61219039D01*
X109608096Y-61219039D01*
X109648754Y-61353087D01*
X109768963Y-61607420D01*
X109936481Y-61833414D01*
X110144869Y-62022385D01*
X110386119Y-62167070D01*
X110650960Y-62261909D01*
X110873000Y-62140624D01*
X110873000Y-60997000D01*
X109730085Y-60997000D01*
X109608096Y-61219039D01*
X108406038Y-61219039D01*
X108547070Y-60983881D01*
X108641909Y-60719040D01*
X108520624Y-60497000D01*
X107377000Y-60497000D01*
X107123000Y-60497000D01*
X105979376Y-60497000D01*
X105858091Y-60719040D01*
X102263500Y-60719040D01*
X102263500Y-59601717D01*
X102331426Y-59629853D01*
X102608665Y-59685000D01*
X102891335Y-59685000D01*
X103168574Y-59629853D01*
X103429727Y-59521680D01*
X103664759Y-59364637D01*
X103864637Y-59164759D01*
X103917930Y-59085000D01*
X106626753Y-59085000D01*
X106512580Y-59138963D01*
X106286586Y-59306481D01*
X106097615Y-59514869D01*
X105952930Y-59756119D01*
X105858091Y-60020960D01*
X105979376Y-60243000D01*
X107123000Y-60243000D01*
X107123000Y-60223000D01*
X107377000Y-60223000D01*
X107377000Y-60243000D01*
X108520624Y-60243000D01*
X108641909Y-60020960D01*
X108547070Y-59756119D01*
X108402385Y-59514869D01*
X108213414Y-59306481D01*
X107987420Y-59138963D01*
X107873247Y-59085000D01*
X109340874Y-59085000D01*
X109378613Y-59105172D01*
X109536011Y-59152918D01*
X109658681Y-59165000D01*
X109699699Y-59169040D01*
X109740718Y-59165000D01*
X109832070Y-59165000D01*
X109885363Y-59244759D01*
X110085241Y-59444637D01*
X110320273Y-59601680D01*
X110330865Y-59606067D01*
X110144869Y-59717615D01*
X109936481Y-59906586D01*
X109768963Y-60132580D01*
X109648754Y-60386913D01*
X109608096Y-60520961D01*
X109730085Y-60743000D01*
X110873000Y-60743000D01*
X110873000Y-60723000D01*
X111127000Y-60723000D01*
X111127000Y-60743000D01*
X111147000Y-60743000D01*
X111147000Y-60997000D01*
X111127000Y-60997000D01*
X111127000Y-62140624D01*
X111349040Y-62261909D01*
X111613881Y-62167070D01*
X111855131Y-62022385D01*
X112063519Y-61833414D01*
X112231037Y-61607420D01*
X112351246Y-61353087D01*
X112391904Y-61219039D01*
X112269916Y-60997002D01*
X112435000Y-60997002D01*
X112435000Y-60945867D01*
X114175844Y-62686712D01*
X113918574Y-62580147D01*
X113641335Y-62525000D01*
X113358665Y-62525000D01*
X113081426Y-62580147D01*
X112820273Y-62688320D01*
X112585241Y-62845363D01*
X112385363Y-63045241D01*
X112332070Y-63125000D01*
X112240718Y-63125000D01*
X112199700Y-63120960D01*
X112036011Y-63137082D01*
X111878613Y-63184828D01*
X111733554Y-63262364D01*
X111666205Y-63317636D01*
X111606409Y-63366709D01*
X111580263Y-63398568D01*
X110023833Y-64955000D01*
X108417930Y-64955000D01*
X108364637Y-64875241D01*
X108164759Y-64675363D01*
X107930872Y-64519085D01*
X107991514Y-64486671D01*
X108063097Y-64242702D01*
X107250000Y-63429605D01*
X106436903Y-64242702D01*
X106508486Y-64486671D01*
X106572992Y-64517194D01*
X106570273Y-64518320D01*
X106335241Y-64675363D01*
X106135363Y-64875241D01*
X105978320Y-65110273D01*
X105870147Y-65371426D01*
X105815000Y-65648665D01*
X105815000Y-65931335D01*
X105870147Y-66208574D01*
X105978320Y-66469727D01*
X106135363Y-66704759D01*
X106335241Y-66904637D01*
X106570273Y-67061680D01*
X106831426Y-67169853D01*
X107108665Y-67225000D01*
X107391335Y-67225000D01*
X107668574Y-67169853D01*
X107929727Y-67061680D01*
X108164759Y-66904637D01*
X108364637Y-66704759D01*
X108417930Y-66625000D01*
X110328682Y-66625000D01*
X110369700Y-66629040D01*
X110410718Y-66625000D01*
X110410719Y-66625000D01*
X110533389Y-66612918D01*
X110690787Y-66565172D01*
X110835846Y-66487636D01*
X110962991Y-66383291D01*
X110989146Y-66351421D01*
X112425586Y-64914982D01*
X112585241Y-65074637D01*
X112817759Y-65230000D01*
X112585241Y-65385363D01*
X112385363Y-65585241D01*
X112228320Y-65820273D01*
X112120147Y-66081426D01*
X112065000Y-66358665D01*
X112065000Y-66641335D01*
X112083714Y-66735418D01*
X110188574Y-68630559D01*
X110156710Y-68656709D01*
X110075907Y-68755168D01*
X110052364Y-68783855D01*
X109974828Y-68928914D01*
X109927082Y-69086312D01*
X109910960Y-69250000D01*
X109915001Y-69291028D01*
X109915000Y-74511928D01*
X109900000Y-74511928D01*
X109775518Y-74524188D01*
X109655820Y-74560498D01*
X109545506Y-74619463D01*
X109448815Y-74698815D01*
X109369463Y-74795506D01*
X109310498Y-74905820D01*
X109274188Y-75025518D01*
X109261928Y-75150000D01*
X109261928Y-76850000D01*
X109274188Y-76974482D01*
X109310498Y-77094180D01*
X109369463Y-77204494D01*
X109448815Y-77301185D01*
X109545506Y-77380537D01*
X109655820Y-77439502D01*
X109775518Y-77475812D01*
X109900000Y-77488072D01*
X111600000Y-77488072D01*
X111724482Y-77475812D01*
X111844180Y-77439502D01*
X111954494Y-77380537D01*
X112051185Y-77301185D01*
X112130537Y-77204494D01*
X112189502Y-77094180D01*
X112225812Y-76974482D01*
X112238072Y-76850000D01*
X112238072Y-75150000D01*
X112225812Y-75025518D01*
X112189502Y-74905820D01*
X112130537Y-74795506D01*
X112051185Y-74698815D01*
X111954494Y-74619463D01*
X111844180Y-74560498D01*
X111724482Y-74524188D01*
X111600000Y-74511928D01*
X111585000Y-74511928D01*
X111585000Y-69595867D01*
X113264582Y-67916286D01*
X113358665Y-67935000D01*
X113641335Y-67935000D01*
X113918574Y-67879853D01*
X114179727Y-67771680D01*
X114414759Y-67614637D01*
X114614637Y-67414759D01*
X114771680Y-67179727D01*
X114879853Y-66918574D01*
X114935000Y-66641335D01*
X114935000Y-66358665D01*
X114879853Y-66081426D01*
X114771680Y-65820273D01*
X114614637Y-65585241D01*
X114414759Y-65385363D01*
X114182241Y-65230000D01*
X114414759Y-65074637D01*
X114614637Y-64874759D01*
X114771680Y-64639727D01*
X114879853Y-64378574D01*
X114935000Y-64101335D01*
X114935000Y-63818665D01*
X114879853Y-63541426D01*
X114773288Y-63284156D01*
X123805400Y-72316269D01*
X123805401Y-75023772D01*
X123801360Y-75064800D01*
X123817482Y-75228488D01*
X123865228Y-75385886D01*
X123942764Y-75530945D01*
X123945152Y-75533855D01*
X124047110Y-75658091D01*
X124078974Y-75684241D01*
X125615859Y-77221126D01*
X125642009Y-77252991D01*
X125769154Y-77357336D01*
X125914213Y-77434872D01*
X125914275Y-77434891D01*
X125870147Y-77541426D01*
X125815000Y-77818665D01*
X125815000Y-78101335D01*
X125870147Y-78378574D01*
X125978320Y-78639727D01*
X126135363Y-78874759D01*
X126335241Y-79074637D01*
X126567759Y-79230000D01*
X126335241Y-79385363D01*
X126135363Y-79585241D01*
X125978320Y-79820273D01*
X125870147Y-80081426D01*
X125815000Y-80358665D01*
X125815000Y-80641335D01*
X125870147Y-80918574D01*
X125978320Y-81179727D01*
X126135363Y-81414759D01*
X126335241Y-81614637D01*
X126570273Y-81771680D01*
X126831426Y-81879853D01*
X127108665Y-81935000D01*
X127391335Y-81935000D01*
X127668574Y-81879853D01*
X127929727Y-81771680D01*
X128164759Y-81614637D01*
X128364637Y-81414759D01*
X128521680Y-81179727D01*
X128629853Y-80918574D01*
X128685000Y-80641335D01*
X128685000Y-80358665D01*
X128629853Y-80081426D01*
X128521680Y-79820273D01*
X128364637Y-79585241D01*
X128164759Y-79385363D01*
X127932241Y-79230000D01*
X128164759Y-79074637D01*
X128364637Y-78874759D01*
X128521680Y-78639727D01*
X128629853Y-78378574D01*
X128685000Y-78101335D01*
X128685000Y-77818665D01*
X128629853Y-77541426D01*
X128521680Y-77280273D01*
X128364637Y-77045241D01*
X128164759Y-76845363D01*
X128085000Y-76792070D01*
X128085000Y-76700719D01*
X128089040Y-76659700D01*
X128072918Y-76496011D01*
X128025172Y-76338613D01*
X127947636Y-76193554D01*
X127843291Y-76066409D01*
X127716146Y-75962064D01*
X127571087Y-75884528D01*
X127413689Y-75836782D01*
X127291019Y-75824700D01*
X127250000Y-75820660D01*
X127208982Y-75824700D01*
X126581168Y-75824700D01*
X126244540Y-75488072D01*
X126850000Y-75488072D01*
X126974482Y-75475812D01*
X127094180Y-75439502D01*
X127204494Y-75380537D01*
X127301185Y-75301185D01*
X127380537Y-75204494D01*
X127439502Y-75094180D01*
X127475812Y-74974482D01*
X127488072Y-74850000D01*
X127488072Y-73150000D01*
X127475812Y-73025518D01*
X127439502Y-72905820D01*
X127380537Y-72795506D01*
X127301185Y-72698815D01*
X127204494Y-72619463D01*
X127094180Y-72560498D01*
X126974482Y-72524188D01*
X126850000Y-72511928D01*
X126835000Y-72511928D01*
X126835000Y-71430293D01*
X126858665Y-71435000D01*
X127141335Y-71435000D01*
X127418574Y-71379853D01*
X127679727Y-71271680D01*
X127914759Y-71114637D01*
X128114637Y-70914759D01*
X128271680Y-70679727D01*
X128379853Y-70418574D01*
X128435000Y-70141335D01*
X128435000Y-69858665D01*
X128379853Y-69581426D01*
X128271680Y-69320273D01*
X128114637Y-69085241D01*
X127914759Y-68885363D01*
X127679727Y-68728320D01*
X127418574Y-68620147D01*
X127141335Y-68565000D01*
X126858665Y-68565000D01*
X126581426Y-68620147D01*
X126320273Y-68728320D01*
X126085241Y-68885363D01*
X125885363Y-69085241D01*
X125728320Y-69320273D01*
X125620147Y-69581426D01*
X125565000Y-69858665D01*
X125565000Y-70141335D01*
X125583715Y-70235418D01*
X125438578Y-70380555D01*
X125406709Y-70406709D01*
X125357932Y-70466145D01*
X125302364Y-70533855D01*
X125224828Y-70678914D01*
X125177082Y-70836312D01*
X125160960Y-71000000D01*
X125165000Y-71041019D01*
X125165000Y-71314131D01*
X112416285Y-58565418D01*
X112435000Y-58471335D01*
X112435000Y-58188665D01*
X112379853Y-57911426D01*
X112271680Y-57650273D01*
X112155238Y-57476006D01*
X117860659Y-63181427D01*
X117886809Y-63213291D01*
X117946605Y-63262364D01*
X118013954Y-63317636D01*
X118159013Y-63395172D01*
X118316411Y-63442918D01*
X118480100Y-63459040D01*
X118521118Y-63455000D01*
X120582070Y-63455000D01*
X120635363Y-63534759D01*
X120835241Y-63734637D01*
X121070273Y-63891680D01*
X121331426Y-63999853D01*
X121608665Y-64055000D01*
X121891335Y-64055000D01*
X122168574Y-63999853D01*
X122429727Y-63891680D01*
X122664759Y-63734637D01*
X122864637Y-63534759D01*
X122917930Y-63455000D01*
X123009282Y-63455000D01*
X123050300Y-63459040D01*
X123091318Y-63455000D01*
X123091319Y-63455000D01*
X123213989Y-63442918D01*
X123371387Y-63395172D01*
X123516446Y-63317636D01*
X123643591Y-63213291D01*
X123669746Y-63181421D01*
X126035886Y-60815282D01*
X126085241Y-60864637D01*
X126317759Y-61020000D01*
X126085241Y-61175363D01*
X125885363Y-61375241D01*
X125728320Y-61610273D01*
X125620147Y-61871426D01*
X125565000Y-62148665D01*
X125565000Y-62431335D01*
X125620147Y-62708574D01*
X125728320Y-62969727D01*
X125885363Y-63204759D01*
X126085241Y-63404637D01*
X126320273Y-63561680D01*
X126521425Y-63645000D01*
X126320273Y-63728320D01*
X126085241Y-63885363D01*
X125885363Y-64085241D01*
X125728320Y-64320273D01*
X125620147Y-64581426D01*
X125565000Y-64858665D01*
X125565000Y-65141335D01*
X125620147Y-65418574D01*
X125728320Y-65679727D01*
X125885363Y-65914759D01*
X126085241Y-66114637D01*
X126320273Y-66271680D01*
X126581426Y-66379853D01*
X126858665Y-66435000D01*
X127141335Y-66435000D01*
X127418574Y-66379853D01*
X127679727Y-66271680D01*
X127914759Y-66114637D01*
X128114637Y-65914759D01*
X128271680Y-65679727D01*
X128379853Y-65418574D01*
X128435000Y-65141335D01*
X128435000Y-64858665D01*
X128379853Y-64581426D01*
X128271680Y-64320273D01*
X128114637Y-64085241D01*
X127914759Y-63885363D01*
X127679727Y-63728320D01*
X127478575Y-63645000D01*
X127679727Y-63561680D01*
X127914759Y-63404637D01*
X128114637Y-63204759D01*
X128271680Y-62969727D01*
X128379853Y-62708574D01*
X128435000Y-62431335D01*
X128435000Y-62148665D01*
X128379853Y-61871426D01*
X128271680Y-61610273D01*
X128114637Y-61375241D01*
X127914759Y-61175363D01*
X127682241Y-61020000D01*
X127914759Y-60864637D01*
X128114637Y-60664759D01*
X128271680Y-60429727D01*
X128379853Y-60168574D01*
X128435000Y-59891335D01*
X128435000Y-59608665D01*
X128379853Y-59331426D01*
X128271680Y-59070273D01*
X128114637Y-58835241D01*
X127914759Y-58635363D01*
X127679727Y-58478320D01*
X127418574Y-58370147D01*
X127141335Y-58315000D01*
X126858665Y-58315000D01*
X126581426Y-58370147D01*
X126320273Y-58478320D01*
X126085241Y-58635363D01*
X125885363Y-58835241D01*
X125828744Y-58919977D01*
X125756611Y-58927082D01*
X125599213Y-58974828D01*
X125454154Y-59052364D01*
X125396006Y-59100085D01*
X125327009Y-59156709D01*
X125300863Y-59188568D01*
X122824414Y-61665018D01*
X122664759Y-61505363D01*
X122429727Y-61348320D01*
X122168574Y-61240147D01*
X121891335Y-61185000D01*
X121608665Y-61185000D01*
X121331426Y-61240147D01*
X121070273Y-61348320D01*
X120835241Y-61505363D01*
X120635363Y-61705241D01*
X120582070Y-61785000D01*
X119734396Y-61785000D01*
X119734637Y-61784759D01*
X119891680Y-61549727D01*
X119999853Y-61288574D01*
X120055000Y-61011335D01*
X120055000Y-60728665D01*
X119999853Y-60451426D01*
X119891680Y-60190273D01*
X119734637Y-59955241D01*
X119534759Y-59755363D01*
X119302241Y-59600000D01*
X119534759Y-59444637D01*
X119734637Y-59244759D01*
X119891680Y-59009727D01*
X119999853Y-58748574D01*
X120055000Y-58471335D01*
X120055000Y-58188665D01*
X119999853Y-57911426D01*
X119891680Y-57650273D01*
X119734637Y-57415241D01*
X119534759Y-57215363D01*
X119302241Y-57060000D01*
X119534759Y-56904637D01*
X119734637Y-56704759D01*
X119891680Y-56469727D01*
X119999853Y-56208574D01*
X120055000Y-55931335D01*
X120055000Y-55648665D01*
X119999853Y-55371426D01*
X119891680Y-55110273D01*
X119734637Y-54875241D01*
X119534759Y-54675363D01*
X119302241Y-54520000D01*
X119534759Y-54364637D01*
X119699396Y-54200000D01*
X120311928Y-54200000D01*
X120311928Y-55800000D01*
X120324188Y-55924482D01*
X120360498Y-56044180D01*
X120419463Y-56154494D01*
X120498815Y-56251185D01*
X120595506Y-56330537D01*
X120705820Y-56389502D01*
X120825518Y-56425812D01*
X120950000Y-56438072D01*
X122550000Y-56438072D01*
X122674482Y-56425812D01*
X122794180Y-56389502D01*
X122904494Y-56330537D01*
X123001185Y-56251185D01*
X123080537Y-56154494D01*
X123139502Y-56044180D01*
X123175812Y-55924482D01*
X123188072Y-55800000D01*
X123188072Y-54200000D01*
X123175812Y-54075518D01*
X123139502Y-53955820D01*
X123080537Y-53845506D01*
X123001185Y-53748815D01*
X122904494Y-53669463D01*
X122794180Y-53610498D01*
X122674482Y-53574188D01*
X122550000Y-53561928D01*
X120950000Y-53561928D01*
X120825518Y-53574188D01*
X120705820Y-53610498D01*
X120595506Y-53669463D01*
X120498815Y-53748815D01*
X120419463Y-53845506D01*
X120360498Y-53955820D01*
X120324188Y-54075518D01*
X120311928Y-54200000D01*
X119699396Y-54200000D01*
X119734637Y-54164759D01*
X119891680Y-53929727D01*
X119999853Y-53668574D01*
X120055000Y-53391335D01*
X120055000Y-53108665D01*
X119999853Y-52831426D01*
X119891680Y-52570273D01*
X119734637Y-52335241D01*
X119534759Y-52135363D01*
X119299727Y-51978320D01*
X119038574Y-51870147D01*
X118761335Y-51815000D01*
X118478665Y-51815000D01*
X118201426Y-51870147D01*
X117940273Y-51978320D01*
X117705241Y-52135363D01*
X117505363Y-52335241D01*
X117348320Y-52570273D01*
X117240147Y-52831426D01*
X117185000Y-53108665D01*
X117185000Y-53391335D01*
X117240147Y-53668574D01*
X117348320Y-53929727D01*
X117505363Y-54164759D01*
X117705241Y-54364637D01*
X117937759Y-54520000D01*
X117705241Y-54675363D01*
X117505363Y-54875241D01*
X117348320Y-55110273D01*
X117240147Y-55371426D01*
X117185000Y-55648665D01*
X117185000Y-55931335D01*
X117240147Y-56208574D01*
X117348320Y-56469727D01*
X117505363Y-56704759D01*
X117705241Y-56904637D01*
X117937759Y-57060000D01*
X117705241Y-57215363D01*
X117505363Y-57415241D01*
X117348320Y-57650273D01*
X117240147Y-57911426D01*
X117185000Y-58188665D01*
X117185000Y-58471335D01*
X117240147Y-58748574D01*
X117348320Y-59009727D01*
X117505363Y-59244759D01*
X117705241Y-59444637D01*
X117937759Y-59600000D01*
X117705241Y-59755363D01*
X117505363Y-59955241D01*
X117348320Y-60190273D01*
X117314028Y-60273061D01*
X113135300Y-56094333D01*
X113135300Y-55831019D01*
X113139340Y-55790000D01*
X113123218Y-55626311D01*
X113075472Y-55468913D01*
X112997936Y-55323854D01*
X112893591Y-55196709D01*
X112766446Y-55092364D01*
X112621387Y-55014828D01*
X112463989Y-54967082D01*
X112341319Y-54955000D01*
X112341318Y-54955000D01*
X112300300Y-54950960D01*
X112259281Y-54955000D01*
X112167930Y-54955000D01*
X112114637Y-54875241D01*
X111916039Y-54676643D01*
X111924482Y-54675812D01*
X112044180Y-54639502D01*
X112154494Y-54580537D01*
X112251185Y-54501185D01*
X112330537Y-54404494D01*
X112389502Y-54294180D01*
X112425812Y-54174482D01*
X112438072Y-54050000D01*
X112438072Y-52450000D01*
X112425812Y-52325518D01*
X112389502Y-52205820D01*
X112330537Y-52095506D01*
X112251185Y-51998815D01*
X112154494Y-51919463D01*
X112044180Y-51860498D01*
X111924482Y-51824188D01*
X111800000Y-51811928D01*
X110200000Y-51811928D01*
X110075518Y-51824188D01*
X109955820Y-51860498D01*
X109845506Y-51919463D01*
X109748815Y-51998815D01*
X109669463Y-52095506D01*
X109610498Y-52205820D01*
X109574188Y-52325518D01*
X109561928Y-52450000D01*
X109561928Y-54050000D01*
X109574188Y-54174482D01*
X109610498Y-54294180D01*
X109669463Y-54404494D01*
X109748815Y-54501185D01*
X109845506Y-54580537D01*
X109955820Y-54639502D01*
X110075518Y-54675812D01*
X110083961Y-54676643D01*
X109885363Y-54875241D01*
X109728320Y-55110273D01*
X109620147Y-55371426D01*
X109565000Y-55648665D01*
X109565000Y-55931335D01*
X109620147Y-56208574D01*
X109728320Y-56469727D01*
X109885363Y-56704759D01*
X110085241Y-56904637D01*
X110317759Y-57060000D01*
X110085241Y-57215363D01*
X109885363Y-57415241D01*
X109861599Y-57450807D01*
X109783389Y-57427082D01*
X109660719Y-57415000D01*
X109660718Y-57415000D01*
X109619700Y-57410960D01*
X109578682Y-57415000D01*
X103917930Y-57415000D01*
X103864637Y-57335241D01*
X103664759Y-57135363D01*
X103555260Y-57062199D01*
X103572918Y-57003989D01*
X103585000Y-56881319D01*
X103589040Y-56840300D01*
X103585000Y-56799281D01*
X103585000Y-56707930D01*
X103664759Y-56654637D01*
X103864637Y-56454759D01*
X104021680Y-56219727D01*
X104129853Y-55958574D01*
X104185000Y-55681335D01*
X104185000Y-55398665D01*
X104129853Y-55121426D01*
X104021680Y-54860273D01*
X103864637Y-54625241D01*
X103664759Y-54425363D01*
X103430872Y-54269085D01*
X103491514Y-54236671D01*
X103563097Y-53992702D01*
X102750000Y-53179605D01*
X101936903Y-53992702D01*
X102008486Y-54236671D01*
X102072992Y-54267194D01*
X102070273Y-54268320D01*
X101835241Y-54425363D01*
X101635363Y-54625241D01*
X101478320Y-54860273D01*
X101370147Y-55121426D01*
X101315000Y-55398665D01*
X101315000Y-55681335D01*
X101370147Y-55958574D01*
X101478320Y-56219727D01*
X101547447Y-56323184D01*
X100867074Y-57003559D01*
X100835210Y-57029709D01*
X100754407Y-57128168D01*
X100730864Y-57156855D01*
X100660000Y-57289432D01*
X100660000Y-53070512D01*
X101309783Y-53070512D01*
X101351213Y-53350130D01*
X101446397Y-53616292D01*
X101513329Y-53741514D01*
X101757298Y-53813097D01*
X102570395Y-53000000D01*
X102929605Y-53000000D01*
X103742702Y-53813097D01*
X103986671Y-53741514D01*
X104107571Y-53486004D01*
X104176300Y-53211816D01*
X104190217Y-52929488D01*
X104148787Y-52649870D01*
X104053603Y-52383708D01*
X103986671Y-52258486D01*
X103742702Y-52186903D01*
X102929605Y-53000000D01*
X102570395Y-53000000D01*
X101757298Y-52186903D01*
X101513329Y-52258486D01*
X101392429Y-52513996D01*
X101323700Y-52788184D01*
X101309783Y-53070512D01*
X100660000Y-53070512D01*
X100660000Y-52007298D01*
X101936903Y-52007298D01*
X102750000Y-52820395D01*
X103563097Y-52007298D01*
X103546286Y-51950000D01*
X105811928Y-51950000D01*
X105811928Y-53550000D01*
X105824188Y-53674482D01*
X105860498Y-53794180D01*
X105919463Y-53904494D01*
X105998815Y-54001185D01*
X106095506Y-54080537D01*
X106205820Y-54139502D01*
X106325518Y-54175812D01*
X106450000Y-54188072D01*
X108050000Y-54188072D01*
X108174482Y-54175812D01*
X108294180Y-54139502D01*
X108404494Y-54080537D01*
X108501185Y-54001185D01*
X108580537Y-53904494D01*
X108639502Y-53794180D01*
X108675812Y-53674482D01*
X108688072Y-53550000D01*
X108688072Y-51950000D01*
X108675812Y-51825518D01*
X108639502Y-51705820D01*
X108580537Y-51595506D01*
X108501185Y-51498815D01*
X108404494Y-51419463D01*
X108294180Y-51360498D01*
X108174482Y-51324188D01*
X108050000Y-51311928D01*
X106450000Y-51311928D01*
X106325518Y-51324188D01*
X106205820Y-51360498D01*
X106095506Y-51419463D01*
X105998815Y-51498815D01*
X105919463Y-51595506D01*
X105860498Y-51705820D01*
X105824188Y-51825518D01*
X105811928Y-51950000D01*
X103546286Y-51950000D01*
X103491514Y-51763329D01*
X103236004Y-51642429D01*
X102961816Y-51573700D01*
X102679488Y-51559783D01*
X102399870Y-51601213D01*
X102133708Y-51696397D01*
X102008486Y-51763329D01*
X101936903Y-52007298D01*
X100660000Y-52007298D01*
X100660000Y-50660000D01*
X126455371Y-50660000D01*
X126191331Y-50769369D01*
G37*
%TD.AperFunction*%
%TD*%
M02*
