M48
; DRILL file {KiCad (5.1.9)-1} date 06/26/21 11:37:57
; FORMAT={-:-/ absolute / inch / decimal}
; #@! TF.CreationDate,2021-06-26T11:37:57+09:00
; #@! TF.GenerationSoftware,Kicad,Pcbnew,(5.1.9)-1
FMAT,2
INCH
T1C0.0157
T2C0.0315
T3C0.0394
T4C0.1260
%
G90
G05
T1
X4.4439Y-4.65
T2
X4.0453Y-2.0866
X4.0453Y-2.1866
X4.0453Y-2.2933
X4.0453Y-2.4902
X4.065Y-3.5531
X4.065Y-3.75
X4.065Y-3.8961
X4.065Y-3.9961
X4.0748Y-3.2268
X4.0748Y-3.3268
X4.0748Y-4.3193
X4.0748Y-4.4193
X4.0846Y-4.5425
X4.0846Y-4.8425
X4.0846Y-4.9508
X4.0846Y-5.1476
X4.0846Y-5.2756
X4.0846Y-5.5756
X4.2224Y-2.0768
X4.2224Y-2.3768
X4.2224Y-2.4902
X4.2224Y-2.5902
X4.3701Y-2.0965
X4.3701Y-2.1965
X4.3701Y-2.2965
X4.3701Y-2.3965
X4.3701Y-3.8386
X4.3701Y-4.0354
X4.3701Y-4.1587
X4.3701Y-4.4587
X4.3701Y-4.5917
X4.3701Y-4.8917
X4.3701Y-5.0197
X4.3701Y-5.3197
X4.4685Y-2.5181
X4.4685Y-2.6181
X4.5177Y-3.8386
X4.5177Y-4.0354
X4.5177Y-4.5965
X4.5177Y-4.8965
X4.5276Y-4.2421
X4.5276Y-4.3421
X4.6654Y-3.9764
X4.6654Y-4.0764
X4.6701Y-2.0965
X4.6701Y-2.1965
X4.6701Y-2.2965
X4.6701Y-2.3965
X4.685Y-4.1929
X4.685Y-4.3898
X4.685Y-4.5965
X4.685Y-4.7933
X4.685Y-5.0969
X4.685Y-5.1969
X4.7933Y-2.1654
X4.7933Y-2.4654
X4.9705Y-3.6417
X4.9705Y-3.7417
X4.9705Y-4.1535
X4.9705Y-4.2535
X4.9705Y-5.1575
X4.9705Y-5.3543
X5.0Y-2.3524
X5.0Y-2.4524
X5.0Y-2.5591
X5.0Y-2.7559
X5.0098Y-3.0693
X5.0098Y-3.1693
T3
X4.065Y-2.9134
X4.2228Y-3.8461
X4.2228Y-3.9461
X4.2228Y-4.0461
X4.2228Y-4.1461
X4.2228Y-4.2461
X4.2228Y-4.3461
X4.2228Y-4.4461
X4.2228Y-4.5461
X4.2228Y-4.6461
X4.2228Y-4.7461
X4.2228Y-4.8461
X4.2228Y-4.9461
X4.2228Y-5.0461
X4.2228Y-5.1461
X4.2228Y-5.2461
X4.2618Y-3.376
X4.3602Y-2.9921
X4.498Y-5.6579
X4.498Y-5.7579
X4.5177Y-3.4843
X4.598Y-5.6579
X4.598Y-5.7579
X4.6457Y-2.9921
X4.698Y-5.6579
X4.698Y-5.7579
X4.7835Y-3.3957
X4.798Y-5.6579
X4.798Y-5.7579
X4.8228Y-3.8461
X4.8228Y-3.9461
X4.8228Y-4.0461
X4.8228Y-4.1461
X4.8228Y-4.2461
X4.8228Y-4.3461
X4.8228Y-4.4461
X4.8228Y-4.5461
X4.8228Y-4.6461
X4.8228Y-4.7461
X4.8228Y-4.8461
X4.8228Y-4.9461
X4.8228Y-5.0461
X4.8228Y-5.1461
X4.8228Y-5.2461
X4.898Y-5.6579
X4.898Y-5.7579
X4.9606Y-2.9134
T4
X4.0453Y-5.7972
X5.0098Y-2.0768
T0
M30
