%TF.GenerationSoftware,KiCad,Pcbnew,(5.1.9)-1*%
%TF.CreationDate,2021-06-26T11:37:54+09:00*%
%TF.ProjectId,CHORD_VCO,43484f52-445f-4564-934f-2e6b69636164,rev?*%
%TF.SameCoordinates,Original*%
%TF.FileFunction,Legend,Bot*%
%TF.FilePolarity,Positive*%
%FSLAX46Y46*%
G04 Gerber Fmt 4.6, Leading zero omitted, Abs format (unit mm)*
G04 Created by KiCad (PCBNEW (5.1.9)-1) date 2021-06-26 11:37:54*
%MOMM*%
%LPD*%
G01*
G04 APERTURE LIST*
%ADD10C,0.150000*%
%ADD11C,0.120000*%
G04 APERTURE END LIST*
D10*
X105821428Y-76952380D02*
X106392857Y-76952380D01*
X106107142Y-76952380D02*
X106107142Y-75952380D01*
X106202380Y-76095238D01*
X106297619Y-76190476D01*
X106392857Y-76238095D01*
X105535714Y-75952380D02*
X105202380Y-76952380D01*
X104869047Y-75952380D01*
X103821428Y-75904761D02*
X104678571Y-77190476D01*
X103297619Y-75952380D02*
X103107142Y-75952380D01*
X103011904Y-76000000D01*
X102916666Y-76095238D01*
X102869047Y-76285714D01*
X102869047Y-76619047D01*
X102916666Y-76809523D01*
X103011904Y-76904761D01*
X103107142Y-76952380D01*
X103297619Y-76952380D01*
X103392857Y-76904761D01*
X103488095Y-76809523D01*
X103535714Y-76619047D01*
X103535714Y-76285714D01*
X103488095Y-76095238D01*
X103392857Y-76000000D01*
X103297619Y-75952380D01*
X101869047Y-76857142D02*
X101916666Y-76904761D01*
X102059523Y-76952380D01*
X102154761Y-76952380D01*
X102297619Y-76904761D01*
X102392857Y-76809523D01*
X102440476Y-76714285D01*
X102488095Y-76523809D01*
X102488095Y-76380952D01*
X102440476Y-76190476D01*
X102392857Y-76095238D01*
X102297619Y-76000000D01*
X102154761Y-75952380D01*
X102059523Y-75952380D01*
X101916666Y-76000000D01*
X101869047Y-76047619D01*
X101583333Y-75952380D02*
X101011904Y-75952380D01*
X101297619Y-76952380D02*
X101297619Y-75952380D01*
X115547619Y-72702380D02*
X115547619Y-71702380D01*
X115071428Y-72702380D02*
X115071428Y-71702380D01*
X114500000Y-72702380D01*
X114500000Y-71702380D01*
X114023809Y-72178571D02*
X113690476Y-72178571D01*
X113547619Y-72702380D02*
X114023809Y-72702380D01*
X114023809Y-71702380D01*
X113547619Y-71702380D01*
X112547619Y-72702380D02*
X112880952Y-72226190D01*
X113119047Y-72702380D02*
X113119047Y-71702380D01*
X112738095Y-71702380D01*
X112642857Y-71750000D01*
X112595238Y-71797619D01*
X112547619Y-71892857D01*
X112547619Y-72035714D01*
X112595238Y-72130952D01*
X112642857Y-72178571D01*
X112738095Y-72226190D01*
X113119047Y-72226190D01*
X112166666Y-72654761D02*
X112023809Y-72702380D01*
X111785714Y-72702380D01*
X111690476Y-72654761D01*
X111642857Y-72607142D01*
X111595238Y-72511904D01*
X111595238Y-72416666D01*
X111642857Y-72321428D01*
X111690476Y-72273809D01*
X111785714Y-72226190D01*
X111976190Y-72178571D01*
X112071428Y-72130952D01*
X112119047Y-72083333D01*
X112166666Y-71988095D01*
X112166666Y-71892857D01*
X112119047Y-71797619D01*
X112071428Y-71750000D01*
X111976190Y-71702380D01*
X111738095Y-71702380D01*
X111595238Y-71750000D01*
X111166666Y-72702380D02*
X111166666Y-71702380D01*
X110500000Y-71702380D02*
X110309523Y-71702380D01*
X110214285Y-71750000D01*
X110119047Y-71845238D01*
X110071428Y-72035714D01*
X110071428Y-72369047D01*
X110119047Y-72559523D01*
X110214285Y-72654761D01*
X110309523Y-72702380D01*
X110500000Y-72702380D01*
X110595238Y-72654761D01*
X110690476Y-72559523D01*
X110738095Y-72369047D01*
X110738095Y-72035714D01*
X110690476Y-71845238D01*
X110595238Y-71750000D01*
X110500000Y-71702380D01*
X109642857Y-72702380D02*
X109642857Y-71702380D01*
X109071428Y-72702380D01*
X109071428Y-71702380D01*
X107261904Y-72607142D02*
X107309523Y-72654761D01*
X107452380Y-72702380D01*
X107547619Y-72702380D01*
X107690476Y-72654761D01*
X107785714Y-72559523D01*
X107833333Y-72464285D01*
X107880952Y-72273809D01*
X107880952Y-72130952D01*
X107833333Y-71940476D01*
X107785714Y-71845238D01*
X107690476Y-71750000D01*
X107547619Y-71702380D01*
X107452380Y-71702380D01*
X107309523Y-71750000D01*
X107261904Y-71797619D01*
X106976190Y-71702380D02*
X106642857Y-72702380D01*
X106309523Y-71702380D01*
X121047619Y-78607142D02*
X121095238Y-78654761D01*
X121238095Y-78702380D01*
X121333333Y-78702380D01*
X121476190Y-78654761D01*
X121571428Y-78559523D01*
X121619047Y-78464285D01*
X121666666Y-78273809D01*
X121666666Y-78130952D01*
X121619047Y-77940476D01*
X121571428Y-77845238D01*
X121476190Y-77750000D01*
X121333333Y-77702380D01*
X121238095Y-77702380D01*
X121095238Y-77750000D01*
X121047619Y-77797619D01*
X120619047Y-78702380D02*
X120619047Y-77702380D01*
X120619047Y-78178571D02*
X120047619Y-78178571D01*
X120047619Y-78702380D02*
X120047619Y-77702380D01*
X119380952Y-77702380D02*
X119190476Y-77702380D01*
X119095238Y-77750000D01*
X119000000Y-77845238D01*
X118952380Y-78035714D01*
X118952380Y-78369047D01*
X119000000Y-78559523D01*
X119095238Y-78654761D01*
X119190476Y-78702380D01*
X119380952Y-78702380D01*
X119476190Y-78654761D01*
X119571428Y-78559523D01*
X119619047Y-78369047D01*
X119619047Y-78035714D01*
X119571428Y-77845238D01*
X119476190Y-77750000D01*
X119380952Y-77702380D01*
X117952380Y-78702380D02*
X118285714Y-78226190D01*
X118523809Y-78702380D02*
X118523809Y-77702380D01*
X118142857Y-77702380D01*
X118047619Y-77750000D01*
X118000000Y-77797619D01*
X117952380Y-77892857D01*
X117952380Y-78035714D01*
X118000000Y-78130952D01*
X118047619Y-78178571D01*
X118142857Y-78226190D01*
X118523809Y-78226190D01*
X117523809Y-78702380D02*
X117523809Y-77702380D01*
X117285714Y-77702380D01*
X117142857Y-77750000D01*
X117047619Y-77845238D01*
X117000000Y-77940476D01*
X116952380Y-78130952D01*
X116952380Y-78273809D01*
X117000000Y-78464285D01*
X117047619Y-78559523D01*
X117142857Y-78654761D01*
X117285714Y-78702380D01*
X117523809Y-78702380D01*
X115190476Y-78607142D02*
X115238095Y-78654761D01*
X115380952Y-78702380D01*
X115476190Y-78702380D01*
X115619047Y-78654761D01*
X115714285Y-78559523D01*
X115761904Y-78464285D01*
X115809523Y-78273809D01*
X115809523Y-78130952D01*
X115761904Y-77940476D01*
X115714285Y-77845238D01*
X115619047Y-77750000D01*
X115476190Y-77702380D01*
X115380952Y-77702380D01*
X115238095Y-77750000D01*
X115190476Y-77797619D01*
X114904761Y-77702380D02*
X114571428Y-78702380D01*
X114238095Y-77702380D01*
X125750000Y-75952380D02*
X125559523Y-75952380D01*
X125464285Y-76000000D01*
X125369047Y-76095238D01*
X125321428Y-76285714D01*
X125321428Y-76619047D01*
X125369047Y-76809523D01*
X125464285Y-76904761D01*
X125559523Y-76952380D01*
X125750000Y-76952380D01*
X125845238Y-76904761D01*
X125940476Y-76809523D01*
X125988095Y-76619047D01*
X125988095Y-76285714D01*
X125940476Y-76095238D01*
X125845238Y-76000000D01*
X125750000Y-75952380D01*
X124892857Y-75952380D02*
X124892857Y-76761904D01*
X124845238Y-76857142D01*
X124797619Y-76904761D01*
X124702380Y-76952380D01*
X124511904Y-76952380D01*
X124416666Y-76904761D01*
X124369047Y-76857142D01*
X124321428Y-76761904D01*
X124321428Y-75952380D01*
X123988095Y-75952380D02*
X123416666Y-75952380D01*
X123702380Y-76952380D02*
X123702380Y-75952380D01*
D11*
%TO.C,ROOT_FREG*%
X122830000Y-84920000D02*
X121500000Y-84920000D01*
X122830000Y-86250000D02*
X122830000Y-84920000D01*
X122830000Y-87520000D02*
X120170000Y-87520000D01*
X120170000Y-87520000D02*
X120170000Y-87580000D01*
X122830000Y-87520000D02*
X122830000Y-87580000D01*
X122830000Y-87580000D02*
X120170000Y-87580000D01*
%TO.C,INVERSION*%
X116080000Y-87170000D02*
X114750000Y-87170000D01*
X116080000Y-88500000D02*
X116080000Y-87170000D01*
X116080000Y-89770000D02*
X113420000Y-89770000D01*
X113420000Y-89770000D02*
X113420000Y-89830000D01*
X116080000Y-89770000D02*
X116080000Y-89830000D01*
X116080000Y-89830000D02*
X113420000Y-89830000D01*
%TO.C,CHORD/WAVE*%
X109580000Y-84420000D02*
X108250000Y-84420000D01*
X109580000Y-85750000D02*
X109580000Y-84420000D01*
X109580000Y-87020000D02*
X106920000Y-87020000D01*
X106920000Y-87020000D02*
X106920000Y-87080000D01*
X109580000Y-87020000D02*
X109580000Y-87080000D01*
X109580000Y-87080000D02*
X106920000Y-87080000D01*
%TO.C,J3*%
X119330000Y-74670000D02*
X118000000Y-74670000D01*
X119330000Y-76000000D02*
X119330000Y-74670000D01*
X119330000Y-77270000D02*
X116670000Y-77270000D01*
X116670000Y-77270000D02*
X116670000Y-77330000D01*
X119330000Y-77270000D02*
X119330000Y-77330000D01*
X119330000Y-77330000D02*
X116670000Y-77330000D01*
%TO.C,J2*%
X112080000Y-74670000D02*
X110750000Y-74670000D01*
X112080000Y-76000000D02*
X112080000Y-74670000D01*
X112080000Y-77270000D02*
X109420000Y-77270000D01*
X109420000Y-77270000D02*
X109420000Y-77330000D01*
X112080000Y-77270000D02*
X112080000Y-77330000D01*
X112080000Y-77330000D02*
X109420000Y-77330000D01*
%TO.C,J1*%
X104580000Y-72670000D02*
X103250000Y-72670000D01*
X104580000Y-74000000D02*
X104580000Y-72670000D01*
X104580000Y-75270000D02*
X101920000Y-75270000D01*
X101920000Y-75270000D02*
X101920000Y-75330000D01*
X104580000Y-75270000D02*
X104580000Y-75330000D01*
X104580000Y-75330000D02*
X101920000Y-75330000D01*
%TO.C,J4*%
X127330000Y-72670000D02*
X126000000Y-72670000D01*
X127330000Y-74000000D02*
X127330000Y-72670000D01*
X127330000Y-75270000D02*
X124670000Y-75270000D01*
X124670000Y-75270000D02*
X124670000Y-75330000D01*
X127330000Y-75270000D02*
X127330000Y-75330000D01*
X127330000Y-75330000D02*
X124670000Y-75330000D01*
%TO.C,ROOT_FREG*%
D10*
X124880952Y-83452380D02*
X125214285Y-82976190D01*
X125452380Y-83452380D02*
X125452380Y-82452380D01*
X125071428Y-82452380D01*
X124976190Y-82500000D01*
X124928571Y-82547619D01*
X124880952Y-82642857D01*
X124880952Y-82785714D01*
X124928571Y-82880952D01*
X124976190Y-82928571D01*
X125071428Y-82976190D01*
X125452380Y-82976190D01*
X124261904Y-82452380D02*
X124071428Y-82452380D01*
X123976190Y-82500000D01*
X123880952Y-82595238D01*
X123833333Y-82785714D01*
X123833333Y-83119047D01*
X123880952Y-83309523D01*
X123976190Y-83404761D01*
X124071428Y-83452380D01*
X124261904Y-83452380D01*
X124357142Y-83404761D01*
X124452380Y-83309523D01*
X124500000Y-83119047D01*
X124500000Y-82785714D01*
X124452380Y-82595238D01*
X124357142Y-82500000D01*
X124261904Y-82452380D01*
X123214285Y-82452380D02*
X123023809Y-82452380D01*
X122928571Y-82500000D01*
X122833333Y-82595238D01*
X122785714Y-82785714D01*
X122785714Y-83119047D01*
X122833333Y-83309523D01*
X122928571Y-83404761D01*
X123023809Y-83452380D01*
X123214285Y-83452380D01*
X123309523Y-83404761D01*
X123404761Y-83309523D01*
X123452380Y-83119047D01*
X123452380Y-82785714D01*
X123404761Y-82595238D01*
X123309523Y-82500000D01*
X123214285Y-82452380D01*
X122500000Y-82452380D02*
X121928571Y-82452380D01*
X122214285Y-83452380D02*
X122214285Y-82452380D01*
X121833333Y-83547619D02*
X121071428Y-83547619D01*
X120500000Y-82928571D02*
X120833333Y-82928571D01*
X120833333Y-83452380D02*
X120833333Y-82452380D01*
X120357142Y-82452380D01*
X119404761Y-83452380D02*
X119738095Y-82976190D01*
X119976190Y-83452380D02*
X119976190Y-82452380D01*
X119595238Y-82452380D01*
X119500000Y-82500000D01*
X119452380Y-82547619D01*
X119404761Y-82642857D01*
X119404761Y-82785714D01*
X119452380Y-82880952D01*
X119500000Y-82928571D01*
X119595238Y-82976190D01*
X119976190Y-82976190D01*
X118976190Y-82928571D02*
X118642857Y-82928571D01*
X118500000Y-83452380D02*
X118976190Y-83452380D01*
X118976190Y-82452380D01*
X118500000Y-82452380D01*
X117547619Y-82500000D02*
X117642857Y-82452380D01*
X117785714Y-82452380D01*
X117928571Y-82500000D01*
X118023809Y-82595238D01*
X118071428Y-82690476D01*
X118119047Y-82880952D01*
X118119047Y-83023809D01*
X118071428Y-83214285D01*
X118023809Y-83309523D01*
X117928571Y-83404761D01*
X117785714Y-83452380D01*
X117690476Y-83452380D01*
X117547619Y-83404761D01*
X117500000Y-83357142D01*
X117500000Y-83023809D01*
X117690476Y-83023809D01*
%TO.C,INVERSION*%
X118666666Y-85702380D02*
X118666666Y-84702380D01*
X118190476Y-85702380D02*
X118190476Y-84702380D01*
X117619047Y-85702380D01*
X117619047Y-84702380D01*
X117285714Y-84702380D02*
X116952380Y-85702380D01*
X116619047Y-84702380D01*
X116285714Y-85178571D02*
X115952380Y-85178571D01*
X115809523Y-85702380D02*
X116285714Y-85702380D01*
X116285714Y-84702380D01*
X115809523Y-84702380D01*
X114809523Y-85702380D02*
X115142857Y-85226190D01*
X115380952Y-85702380D02*
X115380952Y-84702380D01*
X115000000Y-84702380D01*
X114904761Y-84750000D01*
X114857142Y-84797619D01*
X114809523Y-84892857D01*
X114809523Y-85035714D01*
X114857142Y-85130952D01*
X114904761Y-85178571D01*
X115000000Y-85226190D01*
X115380952Y-85226190D01*
X114428571Y-85654761D02*
X114285714Y-85702380D01*
X114047619Y-85702380D01*
X113952380Y-85654761D01*
X113904761Y-85607142D01*
X113857142Y-85511904D01*
X113857142Y-85416666D01*
X113904761Y-85321428D01*
X113952380Y-85273809D01*
X114047619Y-85226190D01*
X114238095Y-85178571D01*
X114333333Y-85130952D01*
X114380952Y-85083333D01*
X114428571Y-84988095D01*
X114428571Y-84892857D01*
X114380952Y-84797619D01*
X114333333Y-84750000D01*
X114238095Y-84702380D01*
X114000000Y-84702380D01*
X113857142Y-84750000D01*
X113428571Y-85702380D02*
X113428571Y-84702380D01*
X112761904Y-84702380D02*
X112571428Y-84702380D01*
X112476190Y-84750000D01*
X112380952Y-84845238D01*
X112333333Y-85035714D01*
X112333333Y-85369047D01*
X112380952Y-85559523D01*
X112476190Y-85654761D01*
X112571428Y-85702380D01*
X112761904Y-85702380D01*
X112857142Y-85654761D01*
X112952380Y-85559523D01*
X113000000Y-85369047D01*
X113000000Y-85035714D01*
X112952380Y-84845238D01*
X112857142Y-84750000D01*
X112761904Y-84702380D01*
X111904761Y-85702380D02*
X111904761Y-84702380D01*
X111333333Y-85702380D01*
X111333333Y-84702380D01*
%TO.C,CHORD/WAVE*%
X111142857Y-88357142D02*
X111190476Y-88404761D01*
X111333333Y-88452380D01*
X111428571Y-88452380D01*
X111571428Y-88404761D01*
X111666666Y-88309523D01*
X111714285Y-88214285D01*
X111761904Y-88023809D01*
X111761904Y-87880952D01*
X111714285Y-87690476D01*
X111666666Y-87595238D01*
X111571428Y-87500000D01*
X111428571Y-87452380D01*
X111333333Y-87452380D01*
X111190476Y-87500000D01*
X111142857Y-87547619D01*
X110714285Y-88452380D02*
X110714285Y-87452380D01*
X110714285Y-87928571D02*
X110142857Y-87928571D01*
X110142857Y-88452380D02*
X110142857Y-87452380D01*
X109476190Y-87452380D02*
X109285714Y-87452380D01*
X109190476Y-87500000D01*
X109095238Y-87595238D01*
X109047619Y-87785714D01*
X109047619Y-88119047D01*
X109095238Y-88309523D01*
X109190476Y-88404761D01*
X109285714Y-88452380D01*
X109476190Y-88452380D01*
X109571428Y-88404761D01*
X109666666Y-88309523D01*
X109714285Y-88119047D01*
X109714285Y-87785714D01*
X109666666Y-87595238D01*
X109571428Y-87500000D01*
X109476190Y-87452380D01*
X108047619Y-88452380D02*
X108380952Y-87976190D01*
X108619047Y-88452380D02*
X108619047Y-87452380D01*
X108238095Y-87452380D01*
X108142857Y-87500000D01*
X108095238Y-87547619D01*
X108047619Y-87642857D01*
X108047619Y-87785714D01*
X108095238Y-87880952D01*
X108142857Y-87928571D01*
X108238095Y-87976190D01*
X108619047Y-87976190D01*
X107619047Y-88452380D02*
X107619047Y-87452380D01*
X107380952Y-87452380D01*
X107238095Y-87500000D01*
X107142857Y-87595238D01*
X107095238Y-87690476D01*
X107047619Y-87880952D01*
X107047619Y-88023809D01*
X107095238Y-88214285D01*
X107142857Y-88309523D01*
X107238095Y-88404761D01*
X107380952Y-88452380D01*
X107619047Y-88452380D01*
X105904761Y-87404761D02*
X106761904Y-88690476D01*
X105666666Y-87452380D02*
X105428571Y-88452380D01*
X105238095Y-87738095D01*
X105047619Y-88452380D01*
X104809523Y-87452380D01*
X104476190Y-88166666D02*
X104000000Y-88166666D01*
X104571428Y-88452380D02*
X104238095Y-87452380D01*
X103904761Y-88452380D01*
X103714285Y-87452380D02*
X103380952Y-88452380D01*
X103047619Y-87452380D01*
X102714285Y-87928571D02*
X102380952Y-87928571D01*
X102238095Y-88452380D02*
X102714285Y-88452380D01*
X102714285Y-87452380D01*
X102238095Y-87452380D01*
%TO.C,J3*%
X118333333Y-72952380D02*
X118333333Y-73666666D01*
X118380952Y-73809523D01*
X118476190Y-73904761D01*
X118619047Y-73952380D01*
X118714285Y-73952380D01*
X117952380Y-72952380D02*
X117333333Y-72952380D01*
X117666666Y-73333333D01*
X117523809Y-73333333D01*
X117428571Y-73380952D01*
X117380952Y-73428571D01*
X117333333Y-73523809D01*
X117333333Y-73761904D01*
X117380952Y-73857142D01*
X117428571Y-73904761D01*
X117523809Y-73952380D01*
X117809523Y-73952380D01*
X117904761Y-73904761D01*
X117952380Y-73857142D01*
%TO.C,J2*%
X111083333Y-72952380D02*
X111083333Y-73666666D01*
X111130952Y-73809523D01*
X111226190Y-73904761D01*
X111369047Y-73952380D01*
X111464285Y-73952380D01*
X110654761Y-73047619D02*
X110607142Y-73000000D01*
X110511904Y-72952380D01*
X110273809Y-72952380D01*
X110178571Y-73000000D01*
X110130952Y-73047619D01*
X110083333Y-73142857D01*
X110083333Y-73238095D01*
X110130952Y-73380952D01*
X110702380Y-73952380D01*
X110083333Y-73952380D01*
%TO.C,J1*%
X103583333Y-70952380D02*
X103583333Y-71666666D01*
X103630952Y-71809523D01*
X103726190Y-71904761D01*
X103869047Y-71952380D01*
X103964285Y-71952380D01*
X102583333Y-71952380D02*
X103154761Y-71952380D01*
X102869047Y-71952380D02*
X102869047Y-70952380D01*
X102964285Y-71095238D01*
X103059523Y-71190476D01*
X103154761Y-71238095D01*
%TO.C,J4*%
X126333333Y-70952380D02*
X126333333Y-71666666D01*
X126380952Y-71809523D01*
X126476190Y-71904761D01*
X126619047Y-71952380D01*
X126714285Y-71952380D01*
X125428571Y-71285714D02*
X125428571Y-71952380D01*
X125666666Y-70904761D02*
X125904761Y-71619047D01*
X125285714Y-71619047D01*
%TD*%
M02*
