%TF.GenerationSoftware,KiCad,Pcbnew,(5.1.9)-1*%
%TF.CreationDate,2021-06-26T11:37:54+09:00*%
%TF.ProjectId,CHORD_VCO,43484f52-445f-4564-934f-2e6b69636164,rev?*%
%TF.SameCoordinates,Original*%
%TF.FileFunction,Legend,Top*%
%TF.FilePolarity,Positive*%
%FSLAX46Y46*%
G04 Gerber Fmt 4.6, Leading zero omitted, Abs format (unit mm)*
G04 Created by KiCad (PCBNEW (5.1.9)-1) date 2021-06-26 11:37:54*
%MOMM*%
%LPD*%
G01*
G04 APERTURE LIST*
%ADD10C,0.150000*%
%ADD11C,0.120000*%
G04 APERTURE END LIST*
D10*
X115000000Y-91877380D02*
X115000000Y-91115476D01*
X114809523Y-91305952D02*
X115000000Y-91115476D01*
X115190476Y-91305952D01*
X113738095Y-92527380D02*
X113738095Y-93336904D01*
X113785714Y-93432142D01*
X113833333Y-93479761D01*
X113928571Y-93527380D01*
X114119047Y-93527380D01*
X114214285Y-93479761D01*
X114261904Y-93432142D01*
X114309523Y-93336904D01*
X114309523Y-92527380D01*
X114738095Y-93479761D02*
X114880952Y-93527380D01*
X115119047Y-93527380D01*
X115214285Y-93479761D01*
X115261904Y-93432142D01*
X115309523Y-93336904D01*
X115309523Y-93241666D01*
X115261904Y-93146428D01*
X115214285Y-93098809D01*
X115119047Y-93051190D01*
X114928571Y-93003571D01*
X114833333Y-92955952D01*
X114785714Y-92908333D01*
X114738095Y-92813095D01*
X114738095Y-92717857D01*
X114785714Y-92622619D01*
X114833333Y-92575000D01*
X114928571Y-92527380D01*
X115166666Y-92527380D01*
X115309523Y-92575000D01*
X116071428Y-93003571D02*
X116214285Y-93051190D01*
X116261904Y-93098809D01*
X116309523Y-93194047D01*
X116309523Y-93336904D01*
X116261904Y-93432142D01*
X116214285Y-93479761D01*
X116119047Y-93527380D01*
X115738095Y-93527380D01*
X115738095Y-92527380D01*
X116071428Y-92527380D01*
X116166666Y-92575000D01*
X116214285Y-92622619D01*
X116261904Y-92717857D01*
X116261904Y-92813095D01*
X116214285Y-92908333D01*
X116166666Y-92955952D01*
X116071428Y-93003571D01*
X115738095Y-93003571D01*
X115202380Y-60488095D02*
X114202380Y-60488095D01*
X114916666Y-60154761D01*
X114202380Y-59821428D01*
X115202380Y-59821428D01*
X115107142Y-58773809D02*
X115154761Y-58821428D01*
X115202380Y-58964285D01*
X115202380Y-59059523D01*
X115154761Y-59202380D01*
X115059523Y-59297619D01*
X114964285Y-59345238D01*
X114773809Y-59392857D01*
X114630952Y-59392857D01*
X114440476Y-59345238D01*
X114345238Y-59297619D01*
X114250000Y-59202380D01*
X114202380Y-59059523D01*
X114202380Y-58964285D01*
X114250000Y-58821428D01*
X114297619Y-58773809D01*
X115202380Y-58345238D02*
X114202380Y-58345238D01*
X114202380Y-57964285D01*
X114250000Y-57869047D01*
X114297619Y-57821428D01*
X114392857Y-57773809D01*
X114535714Y-57773809D01*
X114630952Y-57821428D01*
X114678571Y-57869047D01*
X114726190Y-57964285D01*
X114726190Y-58345238D01*
X114202380Y-56916666D02*
X114202380Y-57107142D01*
X114250000Y-57202380D01*
X114297619Y-57250000D01*
X114440476Y-57345238D01*
X114630952Y-57392857D01*
X115011904Y-57392857D01*
X115107142Y-57345238D01*
X115154761Y-57297619D01*
X115202380Y-57202380D01*
X115202380Y-57011904D01*
X115154761Y-56916666D01*
X115107142Y-56869047D01*
X115011904Y-56821428D01*
X114773809Y-56821428D01*
X114678571Y-56869047D01*
X114630952Y-56916666D01*
X114583333Y-57011904D01*
X114583333Y-57202380D01*
X114630952Y-57297619D01*
X114678571Y-57345238D01*
X114773809Y-57392857D01*
X114297619Y-56440476D02*
X114250000Y-56392857D01*
X114202380Y-56297619D01*
X114202380Y-56059523D01*
X114250000Y-55964285D01*
X114297619Y-55916666D01*
X114392857Y-55869047D01*
X114488095Y-55869047D01*
X114630952Y-55916666D01*
X115202380Y-56488095D01*
X115202380Y-55869047D01*
X114202380Y-55535714D02*
X114202380Y-54916666D01*
X114583333Y-55250000D01*
X114583333Y-55107142D01*
X114630952Y-55011904D01*
X114678571Y-54964285D01*
X114773809Y-54916666D01*
X115011904Y-54916666D01*
X115107142Y-54964285D01*
X115154761Y-55011904D01*
X115202380Y-55107142D01*
X115202380Y-55392857D01*
X115154761Y-55488095D01*
X115107142Y-55535714D01*
X114297619Y-54535714D02*
X114250000Y-54488095D01*
X114202380Y-54392857D01*
X114202380Y-54154761D01*
X114250000Y-54059523D01*
X114297619Y-54011904D01*
X114392857Y-53964285D01*
X114488095Y-53964285D01*
X114630952Y-54011904D01*
X115202380Y-54583333D01*
X115202380Y-53964285D01*
D11*
%TO.C,R11*%
X118500000Y-102370000D02*
X118500000Y-102440000D01*
X119870000Y-101000000D02*
G75*
G03*
X119870000Y-101000000I-1370000J0D01*
G01*
%TO.C,R9*%
X115000000Y-109120000D02*
X115000000Y-109190000D01*
X116370000Y-107750000D02*
G75*
G03*
X116370000Y-107750000I-1370000J0D01*
G01*
%TO.C,R4*%
X119000000Y-130630000D02*
X119000000Y-130560000D01*
X120370000Y-132000000D02*
G75*
G03*
X120370000Y-132000000I-1370000J0D01*
G01*
%TO.C,R10*%
X126250000Y-106870000D02*
X126250000Y-106940000D01*
X127620000Y-105500000D02*
G75*
G03*
X127620000Y-105500000I-1370000J0D01*
G01*
%TO.C,R8*%
X126250000Y-93870000D02*
X126250000Y-93940000D01*
X127620000Y-92500000D02*
G75*
G03*
X127620000Y-92500000I-1370000J0D01*
G01*
%TO.C,R2*%
X103500000Y-110880000D02*
X103500000Y-110810000D01*
X104870000Y-112250000D02*
G75*
G03*
X104870000Y-112250000I-1370000J0D01*
G01*
%TO.C,R1*%
X103250000Y-100130000D02*
X103250000Y-100060000D01*
X104620000Y-101500000D02*
G75*
G03*
X104620000Y-101500000I-1370000J0D01*
G01*
%TO.C,R12*%
X127250000Y-79130000D02*
X127250000Y-79060000D01*
X128620000Y-80500000D02*
G75*
G03*
X128620000Y-80500000I-1370000J0D01*
G01*
%TO.C,R3*%
X103500000Y-83130000D02*
X103500000Y-83060000D01*
X104870000Y-84500000D02*
G75*
G03*
X104870000Y-84500000I-1370000J0D01*
G01*
%TO.C,R13*%
X127000000Y-61120000D02*
X127000000Y-61190000D01*
X128370000Y-59750000D02*
G75*
G03*
X128370000Y-59750000I-1370000J0D01*
G01*
%TO.C,R6*%
X113500000Y-65130000D02*
X113500000Y-65060000D01*
X114870000Y-66500000D02*
G75*
G03*
X114870000Y-66500000I-1370000J0D01*
G01*
%TO.C,R7*%
X107250000Y-64620000D02*
X107250000Y-64690000D01*
X108620000Y-63250000D02*
G75*
G03*
X108620000Y-63250000I-1370000J0D01*
G01*
%TO.C,R5*%
X102750000Y-54370000D02*
X102750000Y-54440000D01*
X104120000Y-53000000D02*
G75*
G03*
X104120000Y-53000000I-1370000J0D01*
G01*
%TO.C,U1*%
X117460000Y-51920000D02*
X115810000Y-51920000D01*
X117460000Y-62200000D02*
X117460000Y-51920000D01*
X112160000Y-62200000D02*
X117460000Y-62200000D01*
X112160000Y-51920000D02*
X112160000Y-62200000D01*
X113810000Y-51920000D02*
X112160000Y-51920000D01*
X115810000Y-51920000D02*
G75*
G02*
X113810000Y-51920000I-1000000J0D01*
G01*
%TO.C,J5*%
X114750000Y-150930000D02*
X114250000Y-149930000D01*
X113750000Y-150930000D02*
X114750000Y-150930000D01*
X114250000Y-149930000D02*
X113750000Y-150930000D01*
X121380000Y-148230000D02*
X121380000Y-149540000D01*
X121380000Y-148230000D02*
X121380000Y-148230000D01*
X128320000Y-148230000D02*
X121380000Y-148230000D01*
X128320000Y-141730000D02*
X128320000Y-148230000D01*
X110340000Y-141730000D02*
X128320000Y-141730000D01*
X110340000Y-148230000D02*
X110340000Y-141730000D01*
X117280000Y-148230000D02*
X110340000Y-148230000D01*
X117280000Y-149540000D02*
X117280000Y-148230000D01*
X129620000Y-149540000D02*
X109040000Y-149540000D01*
X129620000Y-140420000D02*
X129620000Y-149540000D01*
X109040000Y-140420000D02*
X129620000Y-140420000D01*
X109040000Y-149540000D02*
X109040000Y-140420000D01*
%TO.C,D8*%
X108370000Y-55040000D02*
X106130000Y-55040000D01*
X108370000Y-55280000D02*
X106130000Y-55280000D01*
X108370000Y-55160000D02*
X106130000Y-55160000D01*
X107250000Y-59330000D02*
X107250000Y-58680000D01*
X107250000Y-53790000D02*
X107250000Y-54440000D01*
X108370000Y-58680000D02*
X108370000Y-54440000D01*
X106130000Y-58680000D02*
X108370000Y-58680000D01*
X106130000Y-54440000D02*
X106130000Y-58680000D01*
X108370000Y-54440000D02*
X106130000Y-54440000D01*
%TO.C,D7*%
X122870000Y-57290000D02*
X120630000Y-57290000D01*
X122870000Y-57530000D02*
X120630000Y-57530000D01*
X122870000Y-57410000D02*
X120630000Y-57410000D01*
X121750000Y-61580000D02*
X121750000Y-60930000D01*
X121750000Y-56040000D02*
X121750000Y-56690000D01*
X122870000Y-60930000D02*
X122870000Y-56690000D01*
X120630000Y-60930000D02*
X122870000Y-60930000D01*
X120630000Y-56690000D02*
X120630000Y-60930000D01*
X122870000Y-56690000D02*
X120630000Y-56690000D01*
%TO.C,D6*%
X109880000Y-110960000D02*
X112120000Y-110960000D01*
X109880000Y-110720000D02*
X112120000Y-110720000D01*
X109880000Y-110840000D02*
X112120000Y-110840000D01*
X111000000Y-106670000D02*
X111000000Y-107320000D01*
X111000000Y-112210000D02*
X111000000Y-111560000D01*
X109880000Y-107320000D02*
X109880000Y-111560000D01*
X112120000Y-107320000D02*
X109880000Y-107320000D01*
X112120000Y-111560000D02*
X112120000Y-107320000D01*
X109880000Y-111560000D02*
X112120000Y-111560000D01*
%TO.C,D5*%
X102630000Y-120710000D02*
X104870000Y-120710000D01*
X102630000Y-120470000D02*
X104870000Y-120470000D01*
X102630000Y-120590000D02*
X104870000Y-120590000D01*
X103750000Y-116420000D02*
X103750000Y-117070000D01*
X103750000Y-121960000D02*
X103750000Y-121310000D01*
X102630000Y-117070000D02*
X102630000Y-121310000D01*
X104870000Y-117070000D02*
X102630000Y-117070000D01*
X104870000Y-121310000D02*
X104870000Y-117070000D01*
X102630000Y-121310000D02*
X104870000Y-121310000D01*
%TO.C,D4*%
X115870000Y-119040000D02*
X113630000Y-119040000D01*
X115870000Y-119280000D02*
X113630000Y-119280000D01*
X115870000Y-119160000D02*
X113630000Y-119160000D01*
X114750000Y-123330000D02*
X114750000Y-122680000D01*
X114750000Y-117790000D02*
X114750000Y-118440000D01*
X115870000Y-122680000D02*
X115870000Y-118440000D01*
X113630000Y-122680000D02*
X115870000Y-122680000D01*
X113630000Y-118440000D02*
X113630000Y-122680000D01*
X115870000Y-118440000D02*
X113630000Y-118440000D01*
%TO.C,D3*%
X109880000Y-121960000D02*
X112120000Y-121960000D01*
X109880000Y-121720000D02*
X112120000Y-121720000D01*
X109880000Y-121840000D02*
X112120000Y-121840000D01*
X111000000Y-117670000D02*
X111000000Y-118320000D01*
X111000000Y-123210000D02*
X111000000Y-122560000D01*
X109880000Y-118320000D02*
X109880000Y-122560000D01*
X112120000Y-118320000D02*
X109880000Y-118320000D01*
X112120000Y-122560000D02*
X112120000Y-118320000D01*
X109880000Y-122560000D02*
X112120000Y-122560000D01*
%TO.C,D2*%
X112120000Y-129790000D02*
X109880000Y-129790000D01*
X112120000Y-130030000D02*
X109880000Y-130030000D01*
X112120000Y-129910000D02*
X109880000Y-129910000D01*
X111000000Y-134080000D02*
X111000000Y-133430000D01*
X111000000Y-128540000D02*
X111000000Y-129190000D01*
X112120000Y-133430000D02*
X112120000Y-129190000D01*
X109880000Y-133430000D02*
X112120000Y-133430000D01*
X109880000Y-129190000D02*
X109880000Y-133430000D01*
X112120000Y-129190000D02*
X109880000Y-129190000D01*
%TO.C,D1*%
X104870000Y-136290000D02*
X102630000Y-136290000D01*
X104870000Y-136530000D02*
X102630000Y-136530000D01*
X104870000Y-136410000D02*
X102630000Y-136410000D01*
X103750000Y-140580000D02*
X103750000Y-139930000D01*
X103750000Y-135040000D02*
X103750000Y-135690000D01*
X104870000Y-139930000D02*
X104870000Y-135690000D01*
X102630000Y-139930000D02*
X104870000Y-139930000D01*
X102630000Y-135690000D02*
X102630000Y-139930000D01*
X104870000Y-135690000D02*
X102630000Y-135690000D01*
%TO.C,C9*%
X128055000Y-65230000D02*
X128070000Y-65230000D01*
X125930000Y-65230000D02*
X125945000Y-65230000D01*
X128055000Y-69770000D02*
X128070000Y-69770000D01*
X125930000Y-69770000D02*
X125945000Y-69770000D01*
X128070000Y-69770000D02*
X128070000Y-65230000D01*
X125930000Y-69770000D02*
X125930000Y-65230000D01*
%TO.C,C8*%
X101695000Y-63020000D02*
X101680000Y-63020000D01*
X103820000Y-63020000D02*
X103805000Y-63020000D01*
X101695000Y-58480000D02*
X101680000Y-58480000D01*
X103820000Y-58480000D02*
X103805000Y-58480000D01*
X101680000Y-58480000D02*
X101680000Y-63020000D01*
X103820000Y-58480000D02*
X103820000Y-63020000D01*
%TO.C,C7*%
X125195000Y-135770000D02*
X125180000Y-135770000D01*
X127320000Y-135770000D02*
X127305000Y-135770000D01*
X125195000Y-131230000D02*
X125180000Y-131230000D01*
X127320000Y-131230000D02*
X127305000Y-131230000D01*
X125180000Y-131230000D02*
X125180000Y-135770000D01*
X127320000Y-131230000D02*
X127320000Y-135770000D01*
%TO.C,C6*%
X120055000Y-106730000D02*
X120070000Y-106730000D01*
X117930000Y-106730000D02*
X117945000Y-106730000D01*
X120055000Y-111270000D02*
X120070000Y-111270000D01*
X117930000Y-111270000D02*
X117945000Y-111270000D01*
X120070000Y-111270000D02*
X120070000Y-106730000D01*
X117930000Y-111270000D02*
X117930000Y-106730000D01*
%TO.C,C5*%
X117945000Y-121520000D02*
X117930000Y-121520000D01*
X120070000Y-121520000D02*
X120055000Y-121520000D01*
X117945000Y-116980000D02*
X117930000Y-116980000D01*
X120070000Y-116980000D02*
X120055000Y-116980000D01*
X117930000Y-116980000D02*
X117930000Y-121520000D01*
X120070000Y-116980000D02*
X120070000Y-121520000D01*
%TO.C,C4*%
X104805000Y-125980000D02*
X104820000Y-125980000D01*
X102680000Y-125980000D02*
X102695000Y-125980000D01*
X104805000Y-130520000D02*
X104820000Y-130520000D01*
X102680000Y-130520000D02*
X102695000Y-130520000D01*
X104820000Y-130520000D02*
X104820000Y-125980000D01*
X102680000Y-130520000D02*
X102680000Y-125980000D01*
%TO.C,C3*%
X102195000Y-95020000D02*
X102180000Y-95020000D01*
X104320000Y-95020000D02*
X104305000Y-95020000D01*
X102195000Y-90480000D02*
X102180000Y-90480000D01*
X104320000Y-90480000D02*
X104305000Y-90480000D01*
X102180000Y-90480000D02*
X102180000Y-95020000D01*
X104320000Y-90480000D02*
X104320000Y-95020000D01*
%TO.C,C2*%
X115805000Y-97730000D02*
X115820000Y-97730000D01*
X113680000Y-97730000D02*
X113695000Y-97730000D01*
X115805000Y-102270000D02*
X115820000Y-102270000D01*
X113680000Y-102270000D02*
X113695000Y-102270000D01*
X115820000Y-102270000D02*
X115820000Y-97730000D01*
X113680000Y-102270000D02*
X113680000Y-97730000D01*
%TO.C,C1*%
X109945000Y-102270000D02*
X109930000Y-102270000D01*
X112070000Y-102270000D02*
X112055000Y-102270000D01*
X109945000Y-97730000D02*
X109930000Y-97730000D01*
X112070000Y-97730000D02*
X112055000Y-97730000D01*
X109930000Y-97730000D02*
X109930000Y-102270000D01*
X112070000Y-97730000D02*
X112070000Y-102270000D01*
%TO.C,A1*%
X105860000Y-137190000D02*
X123900000Y-137190000D01*
X105860000Y-93750000D02*
X105860000Y-137190000D01*
X123900000Y-93750000D02*
X105860000Y-93750000D01*
X121230000Y-96420000D02*
X123900000Y-96420000D01*
X121230000Y-131980000D02*
X121230000Y-96420000D01*
X121230000Y-131980000D02*
X123900000Y-131980000D01*
X108530000Y-96420000D02*
X105860000Y-96420000D01*
X108530000Y-134520000D02*
X108530000Y-96420000D01*
X108530000Y-134520000D02*
X105860000Y-134520000D01*
X123900000Y-137190000D02*
X123900000Y-134520000D01*
X123900000Y-131980000D02*
X123900000Y-93750000D01*
X121230000Y-134520000D02*
X123900000Y-134520000D01*
X121230000Y-131980000D02*
X121230000Y-134520000D01*
%TO.C,R11*%
D10*
X118107142Y-99202380D02*
X117773809Y-98726190D01*
X117535714Y-99202380D02*
X117535714Y-98202380D01*
X117916666Y-98202380D01*
X118011904Y-98250000D01*
X118059523Y-98297619D01*
X118107142Y-98392857D01*
X118107142Y-98535714D01*
X118059523Y-98630952D01*
X118011904Y-98678571D01*
X117916666Y-98726190D01*
X117535714Y-98726190D01*
X119059523Y-99202380D02*
X118488095Y-99202380D01*
X118773809Y-99202380D02*
X118773809Y-98202380D01*
X118678571Y-98345238D01*
X118583333Y-98440476D01*
X118488095Y-98488095D01*
X120011904Y-99202380D02*
X119440476Y-99202380D01*
X119726190Y-99202380D02*
X119726190Y-98202380D01*
X119630952Y-98345238D01*
X119535714Y-98440476D01*
X119440476Y-98488095D01*
%TO.C,R9*%
X117452380Y-107916666D02*
X116976190Y-108250000D01*
X117452380Y-108488095D02*
X116452380Y-108488095D01*
X116452380Y-108107142D01*
X116500000Y-108011904D01*
X116547619Y-107964285D01*
X116642857Y-107916666D01*
X116785714Y-107916666D01*
X116880952Y-107964285D01*
X116928571Y-108011904D01*
X116976190Y-108107142D01*
X116976190Y-108488095D01*
X117452380Y-107440476D02*
X117452380Y-107250000D01*
X117404761Y-107154761D01*
X117357142Y-107107142D01*
X117214285Y-107011904D01*
X117023809Y-106964285D01*
X116642857Y-106964285D01*
X116547619Y-107011904D01*
X116500000Y-107059523D01*
X116452380Y-107154761D01*
X116452380Y-107345238D01*
X116500000Y-107440476D01*
X116547619Y-107488095D01*
X116642857Y-107535714D01*
X116880952Y-107535714D01*
X116976190Y-107488095D01*
X117023809Y-107440476D01*
X117071428Y-107345238D01*
X117071428Y-107154761D01*
X117023809Y-107059523D01*
X116976190Y-107011904D01*
X116880952Y-106964285D01*
%TO.C,R4*%
X117452380Y-132166666D02*
X116976190Y-132500000D01*
X117452380Y-132738095D02*
X116452380Y-132738095D01*
X116452380Y-132357142D01*
X116500000Y-132261904D01*
X116547619Y-132214285D01*
X116642857Y-132166666D01*
X116785714Y-132166666D01*
X116880952Y-132214285D01*
X116928571Y-132261904D01*
X116976190Y-132357142D01*
X116976190Y-132738095D01*
X116785714Y-131309523D02*
X117452380Y-131309523D01*
X116404761Y-131547619D02*
X117119047Y-131785714D01*
X117119047Y-131166666D01*
%TO.C,R10*%
X125607142Y-103452380D02*
X125273809Y-102976190D01*
X125035714Y-103452380D02*
X125035714Y-102452380D01*
X125416666Y-102452380D01*
X125511904Y-102500000D01*
X125559523Y-102547619D01*
X125607142Y-102642857D01*
X125607142Y-102785714D01*
X125559523Y-102880952D01*
X125511904Y-102928571D01*
X125416666Y-102976190D01*
X125035714Y-102976190D01*
X126559523Y-103452380D02*
X125988095Y-103452380D01*
X126273809Y-103452380D02*
X126273809Y-102452380D01*
X126178571Y-102595238D01*
X126083333Y-102690476D01*
X125988095Y-102738095D01*
X127178571Y-102452380D02*
X127273809Y-102452380D01*
X127369047Y-102500000D01*
X127416666Y-102547619D01*
X127464285Y-102642857D01*
X127511904Y-102833333D01*
X127511904Y-103071428D01*
X127464285Y-103261904D01*
X127416666Y-103357142D01*
X127369047Y-103404761D01*
X127273809Y-103452380D01*
X127178571Y-103452380D01*
X127083333Y-103404761D01*
X127035714Y-103357142D01*
X126988095Y-103261904D01*
X126940476Y-103071428D01*
X126940476Y-102833333D01*
X126988095Y-102642857D01*
X127035714Y-102547619D01*
X127083333Y-102500000D01*
X127178571Y-102452380D01*
%TO.C,R8*%
X126083333Y-90202380D02*
X125750000Y-89726190D01*
X125511904Y-90202380D02*
X125511904Y-89202380D01*
X125892857Y-89202380D01*
X125988095Y-89250000D01*
X126035714Y-89297619D01*
X126083333Y-89392857D01*
X126083333Y-89535714D01*
X126035714Y-89630952D01*
X125988095Y-89678571D01*
X125892857Y-89726190D01*
X125511904Y-89726190D01*
X126654761Y-89630952D02*
X126559523Y-89583333D01*
X126511904Y-89535714D01*
X126464285Y-89440476D01*
X126464285Y-89392857D01*
X126511904Y-89297619D01*
X126559523Y-89250000D01*
X126654761Y-89202380D01*
X126845238Y-89202380D01*
X126940476Y-89250000D01*
X126988095Y-89297619D01*
X127035714Y-89392857D01*
X127035714Y-89440476D01*
X126988095Y-89535714D01*
X126940476Y-89583333D01*
X126845238Y-89630952D01*
X126654761Y-89630952D01*
X126559523Y-89678571D01*
X126511904Y-89726190D01*
X126464285Y-89821428D01*
X126464285Y-90011904D01*
X126511904Y-90107142D01*
X126559523Y-90154761D01*
X126654761Y-90202380D01*
X126845238Y-90202380D01*
X126940476Y-90154761D01*
X126988095Y-90107142D01*
X127035714Y-90011904D01*
X127035714Y-89821428D01*
X126988095Y-89726190D01*
X126940476Y-89678571D01*
X126845238Y-89630952D01*
%TO.C,R2*%
X101952380Y-112416666D02*
X101476190Y-112750000D01*
X101952380Y-112988095D02*
X100952380Y-112988095D01*
X100952380Y-112607142D01*
X101000000Y-112511904D01*
X101047619Y-112464285D01*
X101142857Y-112416666D01*
X101285714Y-112416666D01*
X101380952Y-112464285D01*
X101428571Y-112511904D01*
X101476190Y-112607142D01*
X101476190Y-112988095D01*
X101047619Y-112035714D02*
X101000000Y-111988095D01*
X100952380Y-111892857D01*
X100952380Y-111654761D01*
X101000000Y-111559523D01*
X101047619Y-111511904D01*
X101142857Y-111464285D01*
X101238095Y-111464285D01*
X101380952Y-111511904D01*
X101952380Y-112083333D01*
X101952380Y-111464285D01*
%TO.C,R1*%
X101702380Y-101416666D02*
X101226190Y-101750000D01*
X101702380Y-101988095D02*
X100702380Y-101988095D01*
X100702380Y-101607142D01*
X100750000Y-101511904D01*
X100797619Y-101464285D01*
X100892857Y-101416666D01*
X101035714Y-101416666D01*
X101130952Y-101464285D01*
X101178571Y-101511904D01*
X101226190Y-101607142D01*
X101226190Y-101988095D01*
X101702380Y-100464285D02*
X101702380Y-101035714D01*
X101702380Y-100750000D02*
X100702380Y-100750000D01*
X100845238Y-100845238D01*
X100940476Y-100940476D01*
X100988095Y-101035714D01*
%TO.C,R12*%
X125452380Y-80142857D02*
X124976190Y-80476190D01*
X125452380Y-80714285D02*
X124452380Y-80714285D01*
X124452380Y-80333333D01*
X124500000Y-80238095D01*
X124547619Y-80190476D01*
X124642857Y-80142857D01*
X124785714Y-80142857D01*
X124880952Y-80190476D01*
X124928571Y-80238095D01*
X124976190Y-80333333D01*
X124976190Y-80714285D01*
X125452380Y-79190476D02*
X125452380Y-79761904D01*
X125452380Y-79476190D02*
X124452380Y-79476190D01*
X124595238Y-79571428D01*
X124690476Y-79666666D01*
X124738095Y-79761904D01*
X124547619Y-78809523D02*
X124500000Y-78761904D01*
X124452380Y-78666666D01*
X124452380Y-78428571D01*
X124500000Y-78333333D01*
X124547619Y-78285714D01*
X124642857Y-78238095D01*
X124738095Y-78238095D01*
X124880952Y-78285714D01*
X125452380Y-78857142D01*
X125452380Y-78238095D01*
%TO.C,R3*%
X106702380Y-82166666D02*
X106226190Y-82500000D01*
X106702380Y-82738095D02*
X105702380Y-82738095D01*
X105702380Y-82357142D01*
X105750000Y-82261904D01*
X105797619Y-82214285D01*
X105892857Y-82166666D01*
X106035714Y-82166666D01*
X106130952Y-82214285D01*
X106178571Y-82261904D01*
X106226190Y-82357142D01*
X106226190Y-82738095D01*
X105702380Y-81833333D02*
X105702380Y-81214285D01*
X106083333Y-81547619D01*
X106083333Y-81404761D01*
X106130952Y-81309523D01*
X106178571Y-81261904D01*
X106273809Y-81214285D01*
X106511904Y-81214285D01*
X106607142Y-81261904D01*
X106654761Y-81309523D01*
X106702380Y-81404761D01*
X106702380Y-81690476D01*
X106654761Y-81785714D01*
X106607142Y-81833333D01*
%TO.C,R13*%
X130172380Y-62932857D02*
X129696190Y-63266190D01*
X130172380Y-63504285D02*
X129172380Y-63504285D01*
X129172380Y-63123333D01*
X129220000Y-63028095D01*
X129267619Y-62980476D01*
X129362857Y-62932857D01*
X129505714Y-62932857D01*
X129600952Y-62980476D01*
X129648571Y-63028095D01*
X129696190Y-63123333D01*
X129696190Y-63504285D01*
X130172380Y-61980476D02*
X130172380Y-62551904D01*
X130172380Y-62266190D02*
X129172380Y-62266190D01*
X129315238Y-62361428D01*
X129410476Y-62456666D01*
X129458095Y-62551904D01*
X129172380Y-61647142D02*
X129172380Y-61028095D01*
X129553333Y-61361428D01*
X129553333Y-61218571D01*
X129600952Y-61123333D01*
X129648571Y-61075714D01*
X129743809Y-61028095D01*
X129981904Y-61028095D01*
X130077142Y-61075714D01*
X130124761Y-61123333D01*
X130172380Y-61218571D01*
X130172380Y-61504285D01*
X130124761Y-61599523D01*
X130077142Y-61647142D01*
%TO.C,R6*%
X111952380Y-66416666D02*
X111476190Y-66750000D01*
X111952380Y-66988095D02*
X110952380Y-66988095D01*
X110952380Y-66607142D01*
X111000000Y-66511904D01*
X111047619Y-66464285D01*
X111142857Y-66416666D01*
X111285714Y-66416666D01*
X111380952Y-66464285D01*
X111428571Y-66511904D01*
X111476190Y-66607142D01*
X111476190Y-66988095D01*
X110952380Y-65559523D02*
X110952380Y-65750000D01*
X111000000Y-65845238D01*
X111047619Y-65892857D01*
X111190476Y-65988095D01*
X111380952Y-66035714D01*
X111761904Y-66035714D01*
X111857142Y-65988095D01*
X111904761Y-65940476D01*
X111952380Y-65845238D01*
X111952380Y-65654761D01*
X111904761Y-65559523D01*
X111857142Y-65511904D01*
X111761904Y-65464285D01*
X111523809Y-65464285D01*
X111428571Y-65511904D01*
X111380952Y-65559523D01*
X111333333Y-65654761D01*
X111333333Y-65845238D01*
X111380952Y-65940476D01*
X111428571Y-65988095D01*
X111523809Y-66035714D01*
%TO.C,R7*%
X109952380Y-63416666D02*
X109476190Y-63750000D01*
X109952380Y-63988095D02*
X108952380Y-63988095D01*
X108952380Y-63607142D01*
X109000000Y-63511904D01*
X109047619Y-63464285D01*
X109142857Y-63416666D01*
X109285714Y-63416666D01*
X109380952Y-63464285D01*
X109428571Y-63511904D01*
X109476190Y-63607142D01*
X109476190Y-63988095D01*
X108952380Y-63083333D02*
X108952380Y-62416666D01*
X109952380Y-62845238D01*
%TO.C,R5*%
X102583333Y-51202380D02*
X102250000Y-50726190D01*
X102011904Y-51202380D02*
X102011904Y-50202380D01*
X102392857Y-50202380D01*
X102488095Y-50250000D01*
X102535714Y-50297619D01*
X102583333Y-50392857D01*
X102583333Y-50535714D01*
X102535714Y-50630952D01*
X102488095Y-50678571D01*
X102392857Y-50726190D01*
X102011904Y-50726190D01*
X103488095Y-50202380D02*
X103011904Y-50202380D01*
X102964285Y-50678571D01*
X103011904Y-50630952D01*
X103107142Y-50583333D01*
X103345238Y-50583333D01*
X103440476Y-50630952D01*
X103488095Y-50678571D01*
X103535714Y-50773809D01*
X103535714Y-51011904D01*
X103488095Y-51107142D01*
X103440476Y-51154761D01*
X103345238Y-51202380D01*
X103107142Y-51202380D01*
X103011904Y-51154761D01*
X102964285Y-51107142D01*
%TO.C,U1*%
X114048095Y-50372380D02*
X114048095Y-51181904D01*
X114095714Y-51277142D01*
X114143333Y-51324761D01*
X114238571Y-51372380D01*
X114429047Y-51372380D01*
X114524285Y-51324761D01*
X114571904Y-51277142D01*
X114619523Y-51181904D01*
X114619523Y-50372380D01*
X115619523Y-51372380D02*
X115048095Y-51372380D01*
X115333809Y-51372380D02*
X115333809Y-50372380D01*
X115238571Y-50515238D01*
X115143333Y-50610476D01*
X115048095Y-50658095D01*
%TO.C,J5*%
X107602380Y-145313333D02*
X108316666Y-145313333D01*
X108459523Y-145360952D01*
X108554761Y-145456190D01*
X108602380Y-145599047D01*
X108602380Y-145694285D01*
X107602380Y-144360952D02*
X107602380Y-144837142D01*
X108078571Y-144884761D01*
X108030952Y-144837142D01*
X107983333Y-144741904D01*
X107983333Y-144503809D01*
X108030952Y-144408571D01*
X108078571Y-144360952D01*
X108173809Y-144313333D01*
X108411904Y-144313333D01*
X108507142Y-144360952D01*
X108554761Y-144408571D01*
X108602380Y-144503809D01*
X108602380Y-144741904D01*
X108554761Y-144837142D01*
X108507142Y-144884761D01*
%TO.C,D8*%
X107702380Y-57738095D02*
X106702380Y-57738095D01*
X106702380Y-57500000D01*
X106750000Y-57357142D01*
X106845238Y-57261904D01*
X106940476Y-57214285D01*
X107130952Y-57166666D01*
X107273809Y-57166666D01*
X107464285Y-57214285D01*
X107559523Y-57261904D01*
X107654761Y-57357142D01*
X107702380Y-57500000D01*
X107702380Y-57738095D01*
X107130952Y-56595238D02*
X107083333Y-56690476D01*
X107035714Y-56738095D01*
X106940476Y-56785714D01*
X106892857Y-56785714D01*
X106797619Y-56738095D01*
X106750000Y-56690476D01*
X106702380Y-56595238D01*
X106702380Y-56404761D01*
X106750000Y-56309523D01*
X106797619Y-56261904D01*
X106892857Y-56214285D01*
X106940476Y-56214285D01*
X107035714Y-56261904D01*
X107083333Y-56309523D01*
X107130952Y-56404761D01*
X107130952Y-56595238D01*
X107178571Y-56690476D01*
X107226190Y-56738095D01*
X107321428Y-56785714D01*
X107511904Y-56785714D01*
X107607142Y-56738095D01*
X107654761Y-56690476D01*
X107702380Y-56595238D01*
X107702380Y-56404761D01*
X107654761Y-56309523D01*
X107607142Y-56261904D01*
X107511904Y-56214285D01*
X107321428Y-56214285D01*
X107226190Y-56261904D01*
X107178571Y-56309523D01*
X107130952Y-56404761D01*
X109502380Y-53011904D02*
X108502380Y-53011904D01*
X109502380Y-52440476D02*
X108930952Y-52869047D01*
X108502380Y-52440476D02*
X109073809Y-53011904D01*
%TO.C,D7*%
X122202380Y-59988095D02*
X121202380Y-59988095D01*
X121202380Y-59750000D01*
X121250000Y-59607142D01*
X121345238Y-59511904D01*
X121440476Y-59464285D01*
X121630952Y-59416666D01*
X121773809Y-59416666D01*
X121964285Y-59464285D01*
X122059523Y-59511904D01*
X122154761Y-59607142D01*
X122202380Y-59750000D01*
X122202380Y-59988095D01*
X121202380Y-59083333D02*
X121202380Y-58416666D01*
X122202380Y-58845238D01*
X124002380Y-55261904D02*
X123002380Y-55261904D01*
X124002380Y-54690476D02*
X123430952Y-55119047D01*
X123002380Y-54690476D02*
X123573809Y-55261904D01*
%TO.C,D6*%
X111202380Y-109988095D02*
X110202380Y-109988095D01*
X110202380Y-109750000D01*
X110250000Y-109607142D01*
X110345238Y-109511904D01*
X110440476Y-109464285D01*
X110630952Y-109416666D01*
X110773809Y-109416666D01*
X110964285Y-109464285D01*
X111059523Y-109511904D01*
X111154761Y-109607142D01*
X111202380Y-109750000D01*
X111202380Y-109988095D01*
X110202380Y-108559523D02*
X110202380Y-108750000D01*
X110250000Y-108845238D01*
X110297619Y-108892857D01*
X110440476Y-108988095D01*
X110630952Y-109035714D01*
X111011904Y-109035714D01*
X111107142Y-108988095D01*
X111154761Y-108940476D01*
X111202380Y-108845238D01*
X111202380Y-108654761D01*
X111154761Y-108559523D01*
X111107142Y-108511904D01*
X111011904Y-108464285D01*
X110773809Y-108464285D01*
X110678571Y-108511904D01*
X110630952Y-108559523D01*
X110583333Y-108654761D01*
X110583333Y-108845238D01*
X110630952Y-108940476D01*
X110678571Y-108988095D01*
X110773809Y-109035714D01*
X109652380Y-113511904D02*
X108652380Y-113511904D01*
X109652380Y-112940476D02*
X109080952Y-113369047D01*
X108652380Y-112940476D02*
X109223809Y-113511904D01*
%TO.C,D5*%
X104202380Y-119738095D02*
X103202380Y-119738095D01*
X103202380Y-119500000D01*
X103250000Y-119357142D01*
X103345238Y-119261904D01*
X103440476Y-119214285D01*
X103630952Y-119166666D01*
X103773809Y-119166666D01*
X103964285Y-119214285D01*
X104059523Y-119261904D01*
X104154761Y-119357142D01*
X104202380Y-119500000D01*
X104202380Y-119738095D01*
X103202380Y-118261904D02*
X103202380Y-118738095D01*
X103678571Y-118785714D01*
X103630952Y-118738095D01*
X103583333Y-118642857D01*
X103583333Y-118404761D01*
X103630952Y-118309523D01*
X103678571Y-118261904D01*
X103773809Y-118214285D01*
X104011904Y-118214285D01*
X104107142Y-118261904D01*
X104154761Y-118309523D01*
X104202380Y-118404761D01*
X104202380Y-118642857D01*
X104154761Y-118738095D01*
X104107142Y-118785714D01*
X102402380Y-123261904D02*
X101402380Y-123261904D01*
X102402380Y-122690476D02*
X101830952Y-123119047D01*
X101402380Y-122690476D02*
X101973809Y-123261904D01*
%TO.C,D4*%
X115202380Y-121738095D02*
X114202380Y-121738095D01*
X114202380Y-121500000D01*
X114250000Y-121357142D01*
X114345238Y-121261904D01*
X114440476Y-121214285D01*
X114630952Y-121166666D01*
X114773809Y-121166666D01*
X114964285Y-121214285D01*
X115059523Y-121261904D01*
X115154761Y-121357142D01*
X115202380Y-121500000D01*
X115202380Y-121738095D01*
X114535714Y-120309523D02*
X115202380Y-120309523D01*
X114154761Y-120547619D02*
X114869047Y-120785714D01*
X114869047Y-120166666D01*
X117002380Y-117011904D02*
X116002380Y-117011904D01*
X117002380Y-116440476D02*
X116430952Y-116869047D01*
X116002380Y-116440476D02*
X116573809Y-117011904D01*
%TO.C,D3*%
X111452380Y-120988095D02*
X110452380Y-120988095D01*
X110452380Y-120750000D01*
X110500000Y-120607142D01*
X110595238Y-120511904D01*
X110690476Y-120464285D01*
X110880952Y-120416666D01*
X111023809Y-120416666D01*
X111214285Y-120464285D01*
X111309523Y-120511904D01*
X111404761Y-120607142D01*
X111452380Y-120750000D01*
X111452380Y-120988095D01*
X110452380Y-120083333D02*
X110452380Y-119464285D01*
X110833333Y-119797619D01*
X110833333Y-119654761D01*
X110880952Y-119559523D01*
X110928571Y-119511904D01*
X111023809Y-119464285D01*
X111261904Y-119464285D01*
X111357142Y-119511904D01*
X111404761Y-119559523D01*
X111452380Y-119654761D01*
X111452380Y-119940476D01*
X111404761Y-120035714D01*
X111357142Y-120083333D01*
X109652380Y-124511904D02*
X108652380Y-124511904D01*
X109652380Y-123940476D02*
X109080952Y-124369047D01*
X108652380Y-123940476D02*
X109223809Y-124511904D01*
%TO.C,D2*%
X111452380Y-132488095D02*
X110452380Y-132488095D01*
X110452380Y-132250000D01*
X110500000Y-132107142D01*
X110595238Y-132011904D01*
X110690476Y-131964285D01*
X110880952Y-131916666D01*
X111023809Y-131916666D01*
X111214285Y-131964285D01*
X111309523Y-132011904D01*
X111404761Y-132107142D01*
X111452380Y-132250000D01*
X111452380Y-132488095D01*
X110547619Y-131535714D02*
X110500000Y-131488095D01*
X110452380Y-131392857D01*
X110452380Y-131154761D01*
X110500000Y-131059523D01*
X110547619Y-131011904D01*
X110642857Y-130964285D01*
X110738095Y-130964285D01*
X110880952Y-131011904D01*
X111452380Y-131583333D01*
X111452380Y-130964285D01*
X113252380Y-127761904D02*
X112252380Y-127761904D01*
X113252380Y-127190476D02*
X112680952Y-127619047D01*
X112252380Y-127190476D02*
X112823809Y-127761904D01*
%TO.C,D1*%
X104452380Y-138738095D02*
X103452380Y-138738095D01*
X103452380Y-138500000D01*
X103500000Y-138357142D01*
X103595238Y-138261904D01*
X103690476Y-138214285D01*
X103880952Y-138166666D01*
X104023809Y-138166666D01*
X104214285Y-138214285D01*
X104309523Y-138261904D01*
X104404761Y-138357142D01*
X104452380Y-138500000D01*
X104452380Y-138738095D01*
X104452380Y-137214285D02*
X104452380Y-137785714D01*
X104452380Y-137500000D02*
X103452380Y-137500000D01*
X103595238Y-137595238D01*
X103690476Y-137690476D01*
X103738095Y-137785714D01*
X106002380Y-134261904D02*
X105002380Y-134261904D01*
X106002380Y-133690476D02*
X105430952Y-134119047D01*
X105002380Y-133690476D02*
X105573809Y-134261904D01*
%TO.C,C9*%
X125157142Y-67666666D02*
X125204761Y-67714285D01*
X125252380Y-67857142D01*
X125252380Y-67952380D01*
X125204761Y-68095238D01*
X125109523Y-68190476D01*
X125014285Y-68238095D01*
X124823809Y-68285714D01*
X124680952Y-68285714D01*
X124490476Y-68238095D01*
X124395238Y-68190476D01*
X124300000Y-68095238D01*
X124252380Y-67952380D01*
X124252380Y-67857142D01*
X124300000Y-67714285D01*
X124347619Y-67666666D01*
X125252380Y-67190476D02*
X125252380Y-67000000D01*
X125204761Y-66904761D01*
X125157142Y-66857142D01*
X125014285Y-66761904D01*
X124823809Y-66714285D01*
X124442857Y-66714285D01*
X124347619Y-66761904D01*
X124300000Y-66809523D01*
X124252380Y-66904761D01*
X124252380Y-67095238D01*
X124300000Y-67190476D01*
X124347619Y-67238095D01*
X124442857Y-67285714D01*
X124680952Y-67285714D01*
X124776190Y-67238095D01*
X124823809Y-67190476D01*
X124871428Y-67095238D01*
X124871428Y-66904761D01*
X124823809Y-66809523D01*
X124776190Y-66761904D01*
X124680952Y-66714285D01*
%TO.C,C8*%
X103107142Y-60916666D02*
X103154761Y-60964285D01*
X103202380Y-61107142D01*
X103202380Y-61202380D01*
X103154761Y-61345238D01*
X103059523Y-61440476D01*
X102964285Y-61488095D01*
X102773809Y-61535714D01*
X102630952Y-61535714D01*
X102440476Y-61488095D01*
X102345238Y-61440476D01*
X102250000Y-61345238D01*
X102202380Y-61202380D01*
X102202380Y-61107142D01*
X102250000Y-60964285D01*
X102297619Y-60916666D01*
X102630952Y-60345238D02*
X102583333Y-60440476D01*
X102535714Y-60488095D01*
X102440476Y-60535714D01*
X102392857Y-60535714D01*
X102297619Y-60488095D01*
X102250000Y-60440476D01*
X102202380Y-60345238D01*
X102202380Y-60154761D01*
X102250000Y-60059523D01*
X102297619Y-60011904D01*
X102392857Y-59964285D01*
X102440476Y-59964285D01*
X102535714Y-60011904D01*
X102583333Y-60059523D01*
X102630952Y-60154761D01*
X102630952Y-60345238D01*
X102678571Y-60440476D01*
X102726190Y-60488095D01*
X102821428Y-60535714D01*
X103011904Y-60535714D01*
X103107142Y-60488095D01*
X103154761Y-60440476D01*
X103202380Y-60345238D01*
X103202380Y-60154761D01*
X103154761Y-60059523D01*
X103107142Y-60011904D01*
X103011904Y-59964285D01*
X102821428Y-59964285D01*
X102726190Y-60011904D01*
X102678571Y-60059523D01*
X102630952Y-60154761D01*
%TO.C,C7*%
X126607142Y-133666666D02*
X126654761Y-133714285D01*
X126702380Y-133857142D01*
X126702380Y-133952380D01*
X126654761Y-134095238D01*
X126559523Y-134190476D01*
X126464285Y-134238095D01*
X126273809Y-134285714D01*
X126130952Y-134285714D01*
X125940476Y-134238095D01*
X125845238Y-134190476D01*
X125750000Y-134095238D01*
X125702380Y-133952380D01*
X125702380Y-133857142D01*
X125750000Y-133714285D01*
X125797619Y-133666666D01*
X125702380Y-133333333D02*
X125702380Y-132666666D01*
X126702380Y-133095238D01*
%TO.C,C6*%
X119357142Y-109166666D02*
X119404761Y-109214285D01*
X119452380Y-109357142D01*
X119452380Y-109452380D01*
X119404761Y-109595238D01*
X119309523Y-109690476D01*
X119214285Y-109738095D01*
X119023809Y-109785714D01*
X118880952Y-109785714D01*
X118690476Y-109738095D01*
X118595238Y-109690476D01*
X118500000Y-109595238D01*
X118452380Y-109452380D01*
X118452380Y-109357142D01*
X118500000Y-109214285D01*
X118547619Y-109166666D01*
X118452380Y-108309523D02*
X118452380Y-108500000D01*
X118500000Y-108595238D01*
X118547619Y-108642857D01*
X118690476Y-108738095D01*
X118880952Y-108785714D01*
X119261904Y-108785714D01*
X119357142Y-108738095D01*
X119404761Y-108690476D01*
X119452380Y-108595238D01*
X119452380Y-108404761D01*
X119404761Y-108309523D01*
X119357142Y-108261904D01*
X119261904Y-108214285D01*
X119023809Y-108214285D01*
X118928571Y-108261904D01*
X118880952Y-108309523D01*
X118833333Y-108404761D01*
X118833333Y-108595238D01*
X118880952Y-108690476D01*
X118928571Y-108738095D01*
X119023809Y-108785714D01*
%TO.C,C5*%
X119357142Y-119416666D02*
X119404761Y-119464285D01*
X119452380Y-119607142D01*
X119452380Y-119702380D01*
X119404761Y-119845238D01*
X119309523Y-119940476D01*
X119214285Y-119988095D01*
X119023809Y-120035714D01*
X118880952Y-120035714D01*
X118690476Y-119988095D01*
X118595238Y-119940476D01*
X118500000Y-119845238D01*
X118452380Y-119702380D01*
X118452380Y-119607142D01*
X118500000Y-119464285D01*
X118547619Y-119416666D01*
X118452380Y-118511904D02*
X118452380Y-118988095D01*
X118928571Y-119035714D01*
X118880952Y-118988095D01*
X118833333Y-118892857D01*
X118833333Y-118654761D01*
X118880952Y-118559523D01*
X118928571Y-118511904D01*
X119023809Y-118464285D01*
X119261904Y-118464285D01*
X119357142Y-118511904D01*
X119404761Y-118559523D01*
X119452380Y-118654761D01*
X119452380Y-118892857D01*
X119404761Y-118988095D01*
X119357142Y-119035714D01*
%TO.C,C4*%
X104107142Y-128416666D02*
X104154761Y-128464285D01*
X104202380Y-128607142D01*
X104202380Y-128702380D01*
X104154761Y-128845238D01*
X104059523Y-128940476D01*
X103964285Y-128988095D01*
X103773809Y-129035714D01*
X103630952Y-129035714D01*
X103440476Y-128988095D01*
X103345238Y-128940476D01*
X103250000Y-128845238D01*
X103202380Y-128702380D01*
X103202380Y-128607142D01*
X103250000Y-128464285D01*
X103297619Y-128416666D01*
X103535714Y-127559523D02*
X104202380Y-127559523D01*
X103154761Y-127797619D02*
X103869047Y-128035714D01*
X103869047Y-127416666D01*
%TO.C,C3*%
X103857142Y-92916666D02*
X103904761Y-92964285D01*
X103952380Y-93107142D01*
X103952380Y-93202380D01*
X103904761Y-93345238D01*
X103809523Y-93440476D01*
X103714285Y-93488095D01*
X103523809Y-93535714D01*
X103380952Y-93535714D01*
X103190476Y-93488095D01*
X103095238Y-93440476D01*
X103000000Y-93345238D01*
X102952380Y-93202380D01*
X102952380Y-93107142D01*
X103000000Y-92964285D01*
X103047619Y-92916666D01*
X102952380Y-92583333D02*
X102952380Y-91964285D01*
X103333333Y-92297619D01*
X103333333Y-92154761D01*
X103380952Y-92059523D01*
X103428571Y-92011904D01*
X103523809Y-91964285D01*
X103761904Y-91964285D01*
X103857142Y-92011904D01*
X103904761Y-92059523D01*
X103952380Y-92154761D01*
X103952380Y-92440476D01*
X103904761Y-92535714D01*
X103857142Y-92583333D01*
%TO.C,C2*%
X115107142Y-100166666D02*
X115154761Y-100214285D01*
X115202380Y-100357142D01*
X115202380Y-100452380D01*
X115154761Y-100595238D01*
X115059523Y-100690476D01*
X114964285Y-100738095D01*
X114773809Y-100785714D01*
X114630952Y-100785714D01*
X114440476Y-100738095D01*
X114345238Y-100690476D01*
X114250000Y-100595238D01*
X114202380Y-100452380D01*
X114202380Y-100357142D01*
X114250000Y-100214285D01*
X114297619Y-100166666D01*
X114297619Y-99785714D02*
X114250000Y-99738095D01*
X114202380Y-99642857D01*
X114202380Y-99404761D01*
X114250000Y-99309523D01*
X114297619Y-99261904D01*
X114392857Y-99214285D01*
X114488095Y-99214285D01*
X114630952Y-99261904D01*
X115202380Y-99833333D01*
X115202380Y-99214285D01*
%TO.C,C1*%
X111357142Y-100166666D02*
X111404761Y-100214285D01*
X111452380Y-100357142D01*
X111452380Y-100452380D01*
X111404761Y-100595238D01*
X111309523Y-100690476D01*
X111214285Y-100738095D01*
X111023809Y-100785714D01*
X110880952Y-100785714D01*
X110690476Y-100738095D01*
X110595238Y-100690476D01*
X110500000Y-100595238D01*
X110452380Y-100452380D01*
X110452380Y-100357142D01*
X110500000Y-100214285D01*
X110547619Y-100166666D01*
X111452380Y-99214285D02*
X111452380Y-99785714D01*
X111452380Y-99500000D02*
X110452380Y-99500000D01*
X110595238Y-99595238D01*
X110690476Y-99690476D01*
X110738095Y-99785714D01*
%TO.C,A1*%
X114165714Y-138496666D02*
X114641904Y-138496666D01*
X114070476Y-138782380D02*
X114403809Y-137782380D01*
X114737142Y-138782380D01*
X115594285Y-138782380D02*
X115022857Y-138782380D01*
X115308571Y-138782380D02*
X115308571Y-137782380D01*
X115213333Y-137925238D01*
X115118095Y-138020476D01*
X115022857Y-138068095D01*
%TD*%
M02*
