%TF.GenerationSoftware,KiCad,Pcbnew,(5.1.6)-1*%
%TF.CreationDate,2021-03-18T12:54:03+09:00*%
%TF.ProjectId,MultiClockDiv,4d756c74-6943-46c6-9f63-6b4469762e6b,rev?*%
%TF.SameCoordinates,Original*%
%TF.FileFunction,Copper,L2,Bot*%
%TF.FilePolarity,Positive*%
%FSLAX46Y46*%
G04 Gerber Fmt 4.6, Leading zero omitted, Abs format (unit mm)*
G04 Created by KiCad (PCBNEW (5.1.6)-1) date 2021-03-18 12:54:03*
%MOMM*%
%LPD*%
G01*
G04 APERTURE LIST*
%TA.AperFunction,ComponentPad*%
%ADD10O,2.200000X2.200000*%
%TD*%
%TA.AperFunction,ComponentPad*%
%ADD11R,2.200000X2.200000*%
%TD*%
%TA.AperFunction,ComponentPad*%
%ADD12O,1.600000X1.600000*%
%TD*%
%TA.AperFunction,ComponentPad*%
%ADD13R,1.600000X1.600000*%
%TD*%
%TA.AperFunction,ComponentPad*%
%ADD14C,2.850000*%
%TD*%
%TA.AperFunction,ComponentPad*%
%ADD15R,2.850000X2.850000*%
%TD*%
%TA.AperFunction,WasherPad*%
%ADD16C,4.000000*%
%TD*%
%TA.AperFunction,ComponentPad*%
%ADD17C,1.800000*%
%TD*%
%TA.AperFunction,ComponentPad*%
%ADD18C,1.600000*%
%TD*%
%TA.AperFunction,ComponentPad*%
%ADD19C,1.700000*%
%TD*%
%TA.AperFunction,ComponentPad*%
%ADD20C,2.130000*%
%TD*%
%TA.AperFunction,ComponentPad*%
%ADD21R,1.930000X1.830000*%
%TD*%
%TA.AperFunction,ComponentPad*%
%ADD22R,1.800000X1.800000*%
%TD*%
%TA.AperFunction,ViaPad*%
%ADD23C,0.800000*%
%TD*%
%TA.AperFunction,Conductor*%
%ADD24C,0.400000*%
%TD*%
%TA.AperFunction,Conductor*%
%ADD25C,0.254000*%
%TD*%
G04 APERTURE END LIST*
D10*
%TO.P,D3,2*%
%TO.N,GND*%
X197612000Y-82677000D03*
D11*
%TO.P,D3,1*%
%TO.N,Net-(A1-Pad10)*%
X197612000Y-92837000D03*
%TD*%
D12*
%TO.P,A1,16*%
%TO.N,Net-(A1-Pad16)*%
X196406000Y-145478000D03*
%TO.P,A1,15*%
%TO.N,Net-(A1-Pad15)*%
X181166000Y-145478000D03*
%TO.P,A1,30*%
%TO.N,12V*%
X196406000Y-109918000D03*
%TO.P,A1,14*%
%TO.N,Net-(A1-Pad14)*%
X181166000Y-142938000D03*
%TO.P,A1,29*%
%TO.N,Net-(A1-Pad29)*%
X196406000Y-112458000D03*
%TO.P,A1,13*%
%TO.N,Net-(A1-Pad13)*%
X181166000Y-140398000D03*
%TO.P,A1,28*%
%TO.N,Net-(A1-Pad28)*%
X196406000Y-114998000D03*
%TO.P,A1,12*%
%TO.N,Net-(A1-Pad12)*%
X181166000Y-137858000D03*
%TO.P,A1,27*%
%TO.N,5V*%
X196406000Y-117538000D03*
%TO.P,A1,11*%
%TO.N,Net-(A1-Pad11)*%
X181166000Y-135318000D03*
%TO.P,A1,26*%
%TO.N,Net-(A1-Pad26)*%
X196406000Y-120078000D03*
%TO.P,A1,10*%
%TO.N,Net-(A1-Pad10)*%
X181166000Y-132778000D03*
%TO.P,A1,25*%
%TO.N,Net-(A1-Pad25)*%
X196406000Y-122618000D03*
%TO.P,A1,9*%
%TO.N,Net-(A1-Pad9)*%
X181166000Y-130238000D03*
%TO.P,A1,24*%
%TO.N,Net-(A1-Pad24)*%
X196406000Y-125158000D03*
%TO.P,A1,8*%
%TO.N,Net-(A1-Pad8)*%
X181166000Y-127698000D03*
%TO.P,A1,23*%
%TO.N,Net-(A1-Pad23)*%
X196406000Y-127698000D03*
%TO.P,A1,7*%
%TO.N,Net-(A1-Pad7)*%
X181166000Y-125158000D03*
%TO.P,A1,22*%
%TO.N,Net-(A1-Pad22)*%
X196406000Y-130238000D03*
%TO.P,A1,6*%
%TO.N,Net-(A1-Pad6)*%
X181166000Y-122618000D03*
%TO.P,A1,21*%
%TO.N,Net-(A1-Pad21)*%
X196406000Y-132778000D03*
%TO.P,A1,5*%
%TO.N,Net-(A1-Pad5)*%
X181166000Y-120078000D03*
%TO.P,A1,20*%
%TO.N,Net-(A1-Pad20)*%
X196406000Y-135318000D03*
%TO.P,A1,4*%
%TO.N,GND*%
X181166000Y-117538000D03*
%TO.P,A1,19*%
%TO.N,Net-(A1-Pad19)*%
X196406000Y-137858000D03*
%TO.P,A1,3*%
%TO.N,Net-(A1-Pad3)*%
X181166000Y-114998000D03*
%TO.P,A1,18*%
%TO.N,Net-(A1-Pad18)*%
X196406000Y-140398000D03*
%TO.P,A1,2*%
%TO.N,Net-(A1-Pad2)*%
X181166000Y-112458000D03*
%TO.P,A1,17*%
%TO.N,Net-(A1-Pad17)*%
X196406000Y-142938000D03*
D13*
%TO.P,A1,1*%
%TO.N,Net-(A1-Pad1)*%
X181166000Y-109918000D03*
%TD*%
D10*
%TO.P,D5,2*%
%TO.N,Net-(A1-Pad11)*%
X197676000Y-64897000D03*
D11*
%TO.P,D5,1*%
%TO.N,5V*%
X197676000Y-54737000D03*
%TD*%
D10*
%TO.P,D2,2*%
%TO.N,Net-(A1-Pad10)*%
X197802000Y-50228500D03*
D11*
%TO.P,D2,1*%
%TO.N,5V*%
X187642000Y-50228500D03*
%TD*%
D14*
%TO.P,SW1,3*%
%TO.N,Net-(SW1-Pad3)*%
X189812000Y-101516000D03*
%TO.P,SW1,2*%
%TO.N,GND*%
X185112000Y-101516000D03*
D15*
%TO.P,SW1,1*%
%TO.N,Net-(A1-Pad14)*%
X180412000Y-101516000D03*
%TD*%
D16*
%TO.P,RV2,*%
%TO.N,*%
X176344000Y-58659000D03*
X185144000Y-58659000D03*
D17*
%TO.P,RV2,1*%
%TO.N,GND*%
X178244000Y-65659000D03*
%TO.P,RV2,2*%
%TO.N,Net-(R2-Pad2)*%
X180744000Y-65659000D03*
%TO.P,RV2,3*%
%TO.N,5V*%
X183244000Y-65659000D03*
%TD*%
D16*
%TO.P,RV1,*%
%TO.N,*%
X176344000Y-77328000D03*
X185144000Y-77328000D03*
D17*
%TO.P,RV1,1*%
%TO.N,GND*%
X178244000Y-84328000D03*
%TO.P,RV1,2*%
%TO.N,Net-(R1-Pad2)*%
X180744000Y-84328000D03*
%TO.P,RV1,3*%
%TO.N,5V*%
X183244000Y-84328000D03*
%TD*%
D12*
%TO.P,R10,2*%
%TO.N,Net-(A1-Pad6)*%
X171440000Y-66450000D03*
D18*
%TO.P,R10,1*%
%TO.N,Net-(D7-Pad2)*%
X163820000Y-66450000D03*
%TD*%
D12*
%TO.P,R9,2*%
%TO.N,GND*%
X164656000Y-138557000D03*
D18*
%TO.P,R9,1*%
%TO.N,Net-(A1-Pad6)*%
X164656000Y-130937000D03*
%TD*%
D12*
%TO.P,R8,2*%
%TO.N,Net-(A1-Pad6)*%
X163766000Y-54800500D03*
D18*
%TO.P,R8,1*%
%TO.N,Net-(J4-PadT)*%
X171386000Y-54800500D03*
%TD*%
D12*
%TO.P,R7,2*%
%TO.N,Net-(D9-Pad1)*%
X164719000Y-119888000D03*
D18*
%TO.P,R7,1*%
%TO.N,Net-(A1-Pad6)*%
X164719000Y-127508000D03*
%TD*%
D12*
%TO.P,R6,2*%
%TO.N,Net-(D4-Pad2)*%
X192532000Y-134810000D03*
D18*
%TO.P,R6,1*%
%TO.N,Net-(A1-Pad11)*%
X184912000Y-134810000D03*
%TD*%
D12*
%TO.P,R5,2*%
%TO.N,Net-(A1-Pad11)*%
X164782000Y-116014000D03*
D18*
%TO.P,R5,1*%
%TO.N,Net-(J2-PadT)*%
X164782000Y-108394000D03*
%TD*%
D12*
%TO.P,R4,2*%
%TO.N,Net-(D1-Pad2)*%
X163790000Y-58580000D03*
D18*
%TO.P,R4,1*%
%TO.N,Net-(A1-Pad10)*%
X171410000Y-58580000D03*
%TD*%
D12*
%TO.P,R3,2*%
%TO.N,Net-(A1-Pad10)*%
X164719000Y-149860000D03*
D18*
%TO.P,R3,1*%
%TO.N,Net-(J1-PadT)*%
X164719000Y-142240000D03*
%TD*%
D12*
%TO.P,R2,2*%
%TO.N,Net-(R2-Pad2)*%
X171410000Y-62370000D03*
D18*
%TO.P,R2,1*%
%TO.N,Net-(A1-Pad23)*%
X163790000Y-62370000D03*
%TD*%
D12*
%TO.P,R1,2*%
%TO.N,Net-(R1-Pad2)*%
X196977000Y-96520000D03*
D18*
%TO.P,R1,1*%
%TO.N,Net-(A1-Pad22)*%
X196977000Y-104140000D03*
%TD*%
D19*
%TO.P,J5,16*%
%TO.N,Net-(J5-Pad16)*%
X169380000Y-92960000D03*
%TO.P,J5,14*%
%TO.N,Net-(J5-Pad14)*%
X169380000Y-90420000D03*
%TO.P,J5,12*%
%TO.N,Net-(J5-Pad12)*%
X169380000Y-87880000D03*
%TO.P,J5,10*%
%TO.N,12V*%
X169380000Y-85340000D03*
%TO.P,J5,8*%
%TO.N,GND*%
X169380000Y-82800000D03*
%TO.P,J5,6*%
X169380000Y-80260000D03*
%TO.P,J5,4*%
X169380000Y-77720000D03*
%TO.P,J5,2*%
%TO.N,Net-(J5-Pad2)*%
X169380000Y-75180000D03*
%TO.P,J5,15*%
%TO.N,Net-(J5-Pad15)*%
X166840000Y-92960000D03*
%TO.P,J5,13*%
%TO.N,Net-(J5-Pad13)*%
X166840000Y-90420000D03*
%TO.P,J5,11*%
%TO.N,Net-(J5-Pad11)*%
X166840000Y-87880000D03*
%TO.P,J5,9*%
%TO.N,12V*%
X166840000Y-85340000D03*
%TO.P,J5,7*%
%TO.N,GND*%
X166840000Y-82800000D03*
%TO.P,J5,5*%
X166840000Y-80260000D03*
%TO.P,J5,3*%
X166840000Y-77720000D03*
%TO.P,J5,1*%
%TO.N,Net-(J5-Pad1)*%
%TA.AperFunction,ComponentPad*%
G36*
G01*
X165990000Y-75780000D02*
X165990000Y-74580000D01*
G75*
G02*
X166240000Y-74330000I250000J0D01*
G01*
X167440000Y-74330000D01*
G75*
G02*
X167690000Y-74580000I0J-250000D01*
G01*
X167690000Y-75780000D01*
G75*
G02*
X167440000Y-76030000I-250000J0D01*
G01*
X166240000Y-76030000D01*
G75*
G02*
X165990000Y-75780000I0J250000D01*
G01*
G37*
%TD.AperFunction*%
%TD*%
D20*
%TO.P,J4,T*%
%TO.N,Net-(J4-PadT)*%
X189230000Y-109440000D03*
D21*
%TO.P,J4,S*%
%TO.N,GND*%
X189230000Y-120840000D03*
D20*
%TO.P,J4,TN*%
%TO.N,N/C*%
X189230000Y-117740000D03*
%TD*%
%TO.P,J3,T*%
%TO.N,Net-(A1-Pad6)*%
X172784000Y-109440000D03*
D21*
%TO.P,J3,S*%
%TO.N,GND*%
X172784000Y-120840000D03*
D20*
%TO.P,J3,TN*%
%TO.N,N/C*%
X172784000Y-117740000D03*
%TD*%
%TO.P,J2,T*%
%TO.N,Net-(J2-PadT)*%
X172784000Y-139286000D03*
D21*
%TO.P,J2,S*%
%TO.N,GND*%
X172784000Y-150686000D03*
D20*
%TO.P,J2,TN*%
%TO.N,N/C*%
X172784000Y-147586000D03*
%TD*%
%TO.P,J1,T*%
%TO.N,Net-(J1-PadT)*%
X172784000Y-124363000D03*
D21*
%TO.P,J1,S*%
%TO.N,GND*%
X172784000Y-135763000D03*
D20*
%TO.P,J1,TN*%
%TO.N,N/C*%
X172784000Y-132663000D03*
%TD*%
D10*
%TO.P,D11,2*%
%TO.N,GND*%
X174117000Y-50419000D03*
D11*
%TO.P,D11,1*%
%TO.N,Net-(A1-Pad6)*%
X163957000Y-50419000D03*
%TD*%
D10*
%TO.P,D10,2*%
%TO.N,Net-(A1-Pad6)*%
X192405000Y-69977000D03*
D11*
%TO.P,D10,1*%
%TO.N,5V*%
X192405000Y-80137000D03*
%TD*%
D10*
%TO.P,D9,2*%
%TO.N,Net-(A1-Pad16)*%
X192600000Y-94560000D03*
D11*
%TO.P,D9,1*%
%TO.N,Net-(D9-Pad1)*%
X182440000Y-94560000D03*
%TD*%
D10*
%TO.P,D8,2*%
%TO.N,GND*%
X197612000Y-68643500D03*
D11*
%TO.P,D8,1*%
%TO.N,Net-(A1-Pad6)*%
X197612000Y-78803500D03*
%TD*%
D17*
%TO.P,D7,2*%
%TO.N,Net-(D7-Pad2)*%
X175904000Y-101644000D03*
D22*
%TO.P,D7,1*%
%TO.N,GND*%
X173364000Y-101644000D03*
%TD*%
D10*
%TO.P,D6,2*%
%TO.N,GND*%
X192405000Y-54737000D03*
D11*
%TO.P,D6,1*%
%TO.N,Net-(A1-Pad11)*%
X192405000Y-64897000D03*
%TD*%
D17*
%TO.P,D4,2*%
%TO.N,Net-(D4-Pad2)*%
X190818000Y-144399000D03*
D22*
%TO.P,D4,1*%
%TO.N,GND*%
X188278000Y-144399000D03*
%TD*%
D17*
%TO.P,D1,2*%
%TO.N,Net-(D1-Pad2)*%
X190690000Y-129096000D03*
D22*
%TO.P,D1,1*%
%TO.N,GND*%
X188150000Y-129096000D03*
%TD*%
D18*
%TO.P,C2,2*%
%TO.N,Net-(A1-Pad23)*%
X191246000Y-138748000D03*
%TO.P,C2,1*%
%TO.N,GND*%
X186246000Y-138748000D03*
%TD*%
%TO.P,C1,2*%
%TO.N,GND*%
X178198000Y-50419000D03*
%TO.P,C1,1*%
%TO.N,Net-(A1-Pad22)*%
X183198000Y-50419000D03*
%TD*%
D23*
%TO.N,Net-(D1-Pad2)*%
X181264000Y-96676200D03*
%TD*%
D24*
%TO.N,12V*%
X196406000Y-109918000D02*
X195205700Y-109918000D01*
X168110000Y-85340000D02*
X168110000Y-98776100D01*
X168110000Y-98776100D02*
X174779500Y-105445600D01*
X174779500Y-105445600D02*
X190733300Y-105445600D01*
X190733300Y-105445600D02*
X195205700Y-109918000D01*
X168110000Y-85340000D02*
X169380000Y-85340000D01*
X166840000Y-85340000D02*
X168110000Y-85340000D01*
%TO.N,Net-(A1-Pad11)*%
X197676000Y-64897000D02*
X197676000Y-66397300D01*
X184912000Y-134810000D02*
X184912000Y-129873100D01*
X184912000Y-129873100D02*
X195977100Y-118808000D01*
X195977100Y-118808000D02*
X196834900Y-118808000D01*
X196834900Y-118808000D02*
X199119500Y-116523400D01*
X199119500Y-116523400D02*
X199119500Y-67840800D01*
X199119500Y-67840800D02*
X197676000Y-66397300D01*
X182366300Y-135318000D02*
X182874300Y-134810000D01*
X182874300Y-134810000D02*
X184912000Y-134810000D01*
X181766200Y-135318000D02*
X181166000Y-135318000D01*
X181766200Y-135318000D02*
X182366300Y-135318000D01*
%TO.N,Net-(A1-Pad10)*%
X181166000Y-132778000D02*
X181166000Y-131577700D01*
X197612000Y-92837000D02*
X197612000Y-94337300D01*
X197612000Y-94337300D02*
X198191200Y-94916500D01*
X198191200Y-94916500D02*
X198191200Y-114950900D01*
X198191200Y-114950900D02*
X196874100Y-116268000D01*
X196874100Y-116268000D02*
X195978300Y-116268000D01*
X195978300Y-116268000D02*
X191258600Y-120987700D01*
X191258600Y-120987700D02*
X191258600Y-121858100D01*
X191258600Y-121858100D02*
X181539000Y-131577700D01*
X181539000Y-131577700D02*
X181166000Y-131577700D01*
X181166000Y-132778000D02*
X181166000Y-133978300D01*
X164719000Y-149860000D02*
X164719000Y-148659700D01*
X164719000Y-148659700D02*
X165522400Y-148659700D01*
X165522400Y-148659700D02*
X180203800Y-133978300D01*
X180203800Y-133978300D02*
X181166000Y-133978300D01*
X197802000Y-50228500D02*
X196301700Y-50228500D01*
X171410000Y-58580000D02*
X171776000Y-58580000D01*
X171776000Y-58580000D02*
X181627900Y-48728100D01*
X181627900Y-48728100D02*
X194801300Y-48728100D01*
X194801300Y-48728100D02*
X196301700Y-50228500D01*
%TO.N,Net-(A1-Pad23)*%
X196406000Y-127698000D02*
X196406000Y-128898300D01*
X191246000Y-138748000D02*
X191246000Y-133685200D01*
X191246000Y-133685200D02*
X196032900Y-128898300D01*
X196032900Y-128898300D02*
X196406000Y-128898300D01*
%TO.N,Net-(A1-Pad22)*%
X183198000Y-50419000D02*
X194819700Y-62040700D01*
X194819700Y-62040700D02*
X194819700Y-101982700D01*
X194819700Y-101982700D02*
X196977000Y-104140000D01*
%TO.N,Net-(A1-Pad6)*%
X171440000Y-66450000D02*
X172640300Y-66450000D01*
X172640300Y-66450000D02*
X176167300Y-69977000D01*
X176167300Y-69977000D02*
X192405000Y-69977000D01*
X177726800Y-118351600D02*
X180792900Y-121417700D01*
X180792900Y-121417700D02*
X181166000Y-121417700D01*
X172784000Y-109440000D02*
X172784000Y-113408800D01*
X172784000Y-113408800D02*
X177726800Y-118351600D01*
X177726800Y-118351600D02*
X173464200Y-122614200D01*
X173464200Y-122614200D02*
X169612800Y-122614200D01*
X169612800Y-122614200D02*
X164719000Y-127508000D01*
X181166000Y-122618000D02*
X181166000Y-121417700D01*
%TO.N,Net-(D1-Pad2)*%
X163790000Y-58580000D02*
X163790000Y-59780300D01*
X163790000Y-59780300D02*
X164990300Y-60980600D01*
X164990300Y-60980600D02*
X164990300Y-65766100D01*
X164990300Y-65766100D02*
X172632000Y-73407800D01*
X172632000Y-73407800D02*
X172632000Y-88044200D01*
X172632000Y-88044200D02*
X181264000Y-96676200D01*
%TO.N,Net-(D4-Pad2)*%
X190818000Y-144399000D02*
X192532000Y-142685000D01*
X192532000Y-142685000D02*
X192532000Y-134810000D01*
%TO.N,Net-(D7-Pad2)*%
X163820000Y-66450000D02*
X170891200Y-73521200D01*
X170891200Y-73521200D02*
X170891200Y-96631200D01*
X170891200Y-96631200D02*
X175904000Y-101644000D01*
%TO.N,Net-(J1-PadT)*%
X172784000Y-124363000D02*
X167201600Y-129945400D01*
X167201600Y-129945400D02*
X167201600Y-139757400D01*
X167201600Y-139757400D02*
X164719000Y-142240000D01*
%TO.N,Net-(J2-PadT)*%
X172784000Y-139286000D02*
X168625300Y-143444700D01*
X168625300Y-143444700D02*
X164178200Y-143444700D01*
X164178200Y-143444700D02*
X163430400Y-142696900D01*
X163430400Y-142696900D02*
X163430400Y-109745600D01*
X163430400Y-109745600D02*
X164782000Y-108394000D01*
%TO.N,Net-(R2-Pad2)*%
X171410000Y-62370000D02*
X177455000Y-62370000D01*
X177455000Y-62370000D02*
X180744000Y-65659000D01*
%TD*%
D25*
%TO.N,GND*%
G36*
X162548320Y-67129727D02*
G01*
X162705363Y-67364759D01*
X162905241Y-67564637D01*
X163140273Y-67721680D01*
X163401426Y-67829853D01*
X163678665Y-67885000D01*
X163961335Y-67885000D01*
X164055418Y-67866285D01*
X170031737Y-73842606D01*
X169813158Y-73752068D01*
X169526260Y-73695000D01*
X169233740Y-73695000D01*
X168946842Y-73752068D01*
X168676589Y-73864010D01*
X168433368Y-74026525D01*
X168246285Y-74213608D01*
X168178405Y-74086614D01*
X168067962Y-73952038D01*
X167933386Y-73841595D01*
X167779850Y-73759528D01*
X167613254Y-73708992D01*
X167440000Y-73691928D01*
X166240000Y-73691928D01*
X166066746Y-73708992D01*
X165900150Y-73759528D01*
X165746614Y-73841595D01*
X165612038Y-73952038D01*
X165501595Y-74086614D01*
X165419528Y-74240150D01*
X165368992Y-74406746D01*
X165351928Y-74580000D01*
X165351928Y-75780000D01*
X165368992Y-75953254D01*
X165419528Y-76119850D01*
X165501595Y-76273386D01*
X165612038Y-76407962D01*
X165746614Y-76518405D01*
X165900150Y-76600472D01*
X166009293Y-76633580D01*
X165991208Y-76691603D01*
X166840000Y-77540395D01*
X167688792Y-76691603D01*
X167670707Y-76633580D01*
X167779850Y-76600472D01*
X167933386Y-76518405D01*
X168067962Y-76407962D01*
X168178405Y-76273386D01*
X168246285Y-76146392D01*
X168433368Y-76333475D01*
X168606729Y-76449311D01*
X168531208Y-76691603D01*
X169380000Y-77540395D01*
X169394143Y-77526253D01*
X169573748Y-77705858D01*
X169559605Y-77720000D01*
X169573748Y-77734143D01*
X169394143Y-77913748D01*
X169380000Y-77899605D01*
X168531208Y-78748397D01*
X168606514Y-78990000D01*
X168531208Y-79231603D01*
X169380000Y-80080395D01*
X169394143Y-80066253D01*
X169573748Y-80245858D01*
X169559605Y-80260000D01*
X169573748Y-80274143D01*
X169394143Y-80453748D01*
X169380000Y-80439605D01*
X168531208Y-81288397D01*
X168606514Y-81530000D01*
X168531208Y-81771603D01*
X169380000Y-82620395D01*
X169394143Y-82606253D01*
X169573748Y-82785858D01*
X169559605Y-82800000D01*
X169573748Y-82814143D01*
X169394143Y-82993748D01*
X169380000Y-82979605D01*
X168531208Y-83828397D01*
X168606729Y-84070689D01*
X168433368Y-84186525D01*
X168226525Y-84393368D01*
X168151935Y-84505000D01*
X168151018Y-84505000D01*
X168110000Y-84500960D01*
X168068981Y-84505000D01*
X168068065Y-84505000D01*
X167993475Y-84393368D01*
X167786632Y-84186525D01*
X167613271Y-84070689D01*
X167688792Y-83828397D01*
X166840000Y-82979605D01*
X165991208Y-83828397D01*
X166066729Y-84070689D01*
X165893368Y-84186525D01*
X165686525Y-84393368D01*
X165524010Y-84636589D01*
X165412068Y-84906842D01*
X165355000Y-85193740D01*
X165355000Y-85486260D01*
X165412068Y-85773158D01*
X165524010Y-86043411D01*
X165686525Y-86286632D01*
X165893368Y-86493475D01*
X166067760Y-86610000D01*
X165893368Y-86726525D01*
X165686525Y-86933368D01*
X165524010Y-87176589D01*
X165412068Y-87446842D01*
X165355000Y-87733740D01*
X165355000Y-88026260D01*
X165412068Y-88313158D01*
X165524010Y-88583411D01*
X165686525Y-88826632D01*
X165893368Y-89033475D01*
X166067760Y-89150000D01*
X165893368Y-89266525D01*
X165686525Y-89473368D01*
X165524010Y-89716589D01*
X165412068Y-89986842D01*
X165355000Y-90273740D01*
X165355000Y-90566260D01*
X165412068Y-90853158D01*
X165524010Y-91123411D01*
X165686525Y-91366632D01*
X165893368Y-91573475D01*
X166067760Y-91690000D01*
X165893368Y-91806525D01*
X165686525Y-92013368D01*
X165524010Y-92256589D01*
X165412068Y-92526842D01*
X165355000Y-92813740D01*
X165355000Y-93106260D01*
X165412068Y-93393158D01*
X165524010Y-93663411D01*
X165686525Y-93906632D01*
X165893368Y-94113475D01*
X166136589Y-94275990D01*
X166406842Y-94387932D01*
X166693740Y-94445000D01*
X166986260Y-94445000D01*
X167273158Y-94387932D01*
X167275001Y-94387169D01*
X167275001Y-98735071D01*
X167270960Y-98776100D01*
X167287082Y-98939788D01*
X167334828Y-99097186D01*
X167334829Y-99097187D01*
X167412365Y-99242246D01*
X167516710Y-99369391D01*
X167548574Y-99395541D01*
X174160059Y-106007027D01*
X174186209Y-106038891D01*
X174313354Y-106143236D01*
X174458413Y-106220772D01*
X174615811Y-106268518D01*
X174738481Y-106280600D01*
X174738491Y-106280600D01*
X174779499Y-106284639D01*
X174820507Y-106280600D01*
X190387433Y-106280600D01*
X194586263Y-110479432D01*
X194612409Y-110511291D01*
X194739554Y-110615636D01*
X194884613Y-110693172D01*
X195042011Y-110740918D01*
X195164681Y-110753000D01*
X195164682Y-110753000D01*
X195205700Y-110757040D01*
X195238604Y-110753799D01*
X195291363Y-110832759D01*
X195491241Y-111032637D01*
X195723759Y-111188000D01*
X195491241Y-111343363D01*
X195291363Y-111543241D01*
X195134320Y-111778273D01*
X195026147Y-112039426D01*
X194971000Y-112316665D01*
X194971000Y-112599335D01*
X195026147Y-112876574D01*
X195134320Y-113137727D01*
X195291363Y-113372759D01*
X195491241Y-113572637D01*
X195723759Y-113728000D01*
X195491241Y-113883363D01*
X195291363Y-114083241D01*
X195134320Y-114318273D01*
X195026147Y-114579426D01*
X194971000Y-114856665D01*
X194971000Y-115139335D01*
X195026147Y-115416574D01*
X195134320Y-115677727D01*
X195235811Y-115829620D01*
X190831564Y-120233869D01*
X190833072Y-119925000D01*
X190820812Y-119800518D01*
X190784502Y-119680820D01*
X190725537Y-119570506D01*
X190646185Y-119473815D01*
X190549494Y-119394463D01*
X190439180Y-119335498D01*
X190319482Y-119299188D01*
X190195000Y-119286928D01*
X189934860Y-119288105D01*
X190035252Y-119246521D01*
X190313687Y-119060477D01*
X190550477Y-118823687D01*
X190736521Y-118545252D01*
X190864670Y-118235872D01*
X190930000Y-117907435D01*
X190930000Y-117572565D01*
X190864670Y-117244128D01*
X190736521Y-116934748D01*
X190550477Y-116656313D01*
X190313687Y-116419523D01*
X190035252Y-116233479D01*
X189725872Y-116105330D01*
X189397435Y-116040000D01*
X189062565Y-116040000D01*
X188734128Y-116105330D01*
X188424748Y-116233479D01*
X188146313Y-116419523D01*
X187909523Y-116656313D01*
X187723479Y-116934748D01*
X187595330Y-117244128D01*
X187530000Y-117572565D01*
X187530000Y-117907435D01*
X187595330Y-118235872D01*
X187723479Y-118545252D01*
X187909523Y-118823687D01*
X188146313Y-119060477D01*
X188424748Y-119246521D01*
X188525140Y-119288105D01*
X188265000Y-119286928D01*
X188140518Y-119299188D01*
X188020820Y-119335498D01*
X187910506Y-119394463D01*
X187813815Y-119473815D01*
X187734463Y-119570506D01*
X187675498Y-119680820D01*
X187639188Y-119800518D01*
X187626928Y-119925000D01*
X187630000Y-120554250D01*
X187788750Y-120713000D01*
X189103000Y-120713000D01*
X189103000Y-120693000D01*
X189357000Y-120693000D01*
X189357000Y-120713000D01*
X189377000Y-120713000D01*
X189377000Y-120967000D01*
X189357000Y-120967000D01*
X189357000Y-122231250D01*
X189515750Y-122390000D01*
X189545697Y-122390135D01*
X182413599Y-129522234D01*
X182280637Y-129323241D01*
X182080759Y-129123363D01*
X181848241Y-128968000D01*
X182080759Y-128812637D01*
X182280637Y-128612759D01*
X182437680Y-128377727D01*
X182545853Y-128116574D01*
X182601000Y-127839335D01*
X182601000Y-127556665D01*
X182545853Y-127279426D01*
X182437680Y-127018273D01*
X182280637Y-126783241D01*
X182080759Y-126583363D01*
X181848241Y-126428000D01*
X182080759Y-126272637D01*
X182280637Y-126072759D01*
X182437680Y-125837727D01*
X182545853Y-125576574D01*
X182601000Y-125299335D01*
X182601000Y-125016665D01*
X182545853Y-124739426D01*
X182437680Y-124478273D01*
X182280637Y-124243241D01*
X182080759Y-124043363D01*
X181848241Y-123888000D01*
X182080759Y-123732637D01*
X182280637Y-123532759D01*
X182437680Y-123297727D01*
X182545853Y-123036574D01*
X182601000Y-122759335D01*
X182601000Y-122476665D01*
X182545853Y-122199426D01*
X182437680Y-121938273D01*
X182315222Y-121755000D01*
X187626928Y-121755000D01*
X187639188Y-121879482D01*
X187675498Y-121999180D01*
X187734463Y-122109494D01*
X187813815Y-122206185D01*
X187910506Y-122285537D01*
X188020820Y-122344502D01*
X188140518Y-122380812D01*
X188265000Y-122393072D01*
X188944250Y-122390000D01*
X189103000Y-122231250D01*
X189103000Y-120967000D01*
X187788750Y-120967000D01*
X187630000Y-121125750D01*
X187626928Y-121755000D01*
X182315222Y-121755000D01*
X182280637Y-121703241D01*
X182080759Y-121503363D01*
X182001799Y-121450604D01*
X182005040Y-121417700D01*
X181988918Y-121254011D01*
X181988916Y-121254004D01*
X182080759Y-121192637D01*
X182280637Y-120992759D01*
X182437680Y-120757727D01*
X182545853Y-120496574D01*
X182601000Y-120219335D01*
X182601000Y-119936665D01*
X182545853Y-119659426D01*
X182437680Y-119398273D01*
X182280637Y-119163241D01*
X182080759Y-118963363D01*
X181845727Y-118806320D01*
X181835135Y-118801933D01*
X182021131Y-118690385D01*
X182229519Y-118501414D01*
X182397037Y-118275420D01*
X182517246Y-118021087D01*
X182557904Y-117887039D01*
X182435915Y-117665000D01*
X181293000Y-117665000D01*
X181293000Y-117685000D01*
X181039000Y-117685000D01*
X181039000Y-117665000D01*
X179896085Y-117665000D01*
X179774096Y-117887039D01*
X179814754Y-118021087D01*
X179934963Y-118275420D01*
X180102481Y-118501414D01*
X180310869Y-118690385D01*
X180496865Y-118801933D01*
X180486273Y-118806320D01*
X180251241Y-118963363D01*
X180051363Y-119163241D01*
X179918361Y-119362293D01*
X178346248Y-117790181D01*
X178346239Y-117790170D01*
X178346236Y-117790167D01*
X178320091Y-117758309D01*
X178288233Y-117732164D01*
X173619000Y-113062933D01*
X173619000Y-110926644D01*
X173867687Y-110760477D01*
X174104477Y-110523687D01*
X174290521Y-110245252D01*
X174418670Y-109935872D01*
X174484000Y-109607435D01*
X174484000Y-109272565D01*
X174453256Y-109118000D01*
X179727928Y-109118000D01*
X179727928Y-110718000D01*
X179740188Y-110842482D01*
X179776498Y-110962180D01*
X179835463Y-111072494D01*
X179914815Y-111169185D01*
X180011506Y-111248537D01*
X180121820Y-111307502D01*
X180241518Y-111343812D01*
X180249961Y-111344643D01*
X180051363Y-111543241D01*
X179894320Y-111778273D01*
X179786147Y-112039426D01*
X179731000Y-112316665D01*
X179731000Y-112599335D01*
X179786147Y-112876574D01*
X179894320Y-113137727D01*
X180051363Y-113372759D01*
X180251241Y-113572637D01*
X180483759Y-113728000D01*
X180251241Y-113883363D01*
X180051363Y-114083241D01*
X179894320Y-114318273D01*
X179786147Y-114579426D01*
X179731000Y-114856665D01*
X179731000Y-115139335D01*
X179786147Y-115416574D01*
X179894320Y-115677727D01*
X180051363Y-115912759D01*
X180251241Y-116112637D01*
X180486273Y-116269680D01*
X180496865Y-116274067D01*
X180310869Y-116385615D01*
X180102481Y-116574586D01*
X179934963Y-116800580D01*
X179814754Y-117054913D01*
X179774096Y-117188961D01*
X179896085Y-117411000D01*
X181039000Y-117411000D01*
X181039000Y-117391000D01*
X181293000Y-117391000D01*
X181293000Y-117411000D01*
X182435915Y-117411000D01*
X182557904Y-117188961D01*
X182517246Y-117054913D01*
X182397037Y-116800580D01*
X182229519Y-116574586D01*
X182021131Y-116385615D01*
X181835135Y-116274067D01*
X181845727Y-116269680D01*
X182080759Y-116112637D01*
X182280637Y-115912759D01*
X182437680Y-115677727D01*
X182545853Y-115416574D01*
X182601000Y-115139335D01*
X182601000Y-114856665D01*
X182545853Y-114579426D01*
X182437680Y-114318273D01*
X182280637Y-114083241D01*
X182080759Y-113883363D01*
X181848241Y-113728000D01*
X182080759Y-113572637D01*
X182280637Y-113372759D01*
X182437680Y-113137727D01*
X182545853Y-112876574D01*
X182601000Y-112599335D01*
X182601000Y-112316665D01*
X182545853Y-112039426D01*
X182437680Y-111778273D01*
X182280637Y-111543241D01*
X182082039Y-111344643D01*
X182090482Y-111343812D01*
X182210180Y-111307502D01*
X182320494Y-111248537D01*
X182417185Y-111169185D01*
X182496537Y-111072494D01*
X182555502Y-110962180D01*
X182591812Y-110842482D01*
X182604072Y-110718000D01*
X182604072Y-109272565D01*
X187530000Y-109272565D01*
X187530000Y-109607435D01*
X187595330Y-109935872D01*
X187723479Y-110245252D01*
X187909523Y-110523687D01*
X188146313Y-110760477D01*
X188424748Y-110946521D01*
X188734128Y-111074670D01*
X189062565Y-111140000D01*
X189397435Y-111140000D01*
X189725872Y-111074670D01*
X190035252Y-110946521D01*
X190313687Y-110760477D01*
X190550477Y-110523687D01*
X190736521Y-110245252D01*
X190864670Y-109935872D01*
X190930000Y-109607435D01*
X190930000Y-109272565D01*
X190864670Y-108944128D01*
X190736521Y-108634748D01*
X190550477Y-108356313D01*
X190313687Y-108119523D01*
X190035252Y-107933479D01*
X189725872Y-107805330D01*
X189397435Y-107740000D01*
X189062565Y-107740000D01*
X188734128Y-107805330D01*
X188424748Y-107933479D01*
X188146313Y-108119523D01*
X187909523Y-108356313D01*
X187723479Y-108634748D01*
X187595330Y-108944128D01*
X187530000Y-109272565D01*
X182604072Y-109272565D01*
X182604072Y-109118000D01*
X182591812Y-108993518D01*
X182555502Y-108873820D01*
X182496537Y-108763506D01*
X182417185Y-108666815D01*
X182320494Y-108587463D01*
X182210180Y-108528498D01*
X182090482Y-108492188D01*
X181966000Y-108479928D01*
X180366000Y-108479928D01*
X180241518Y-108492188D01*
X180121820Y-108528498D01*
X180011506Y-108587463D01*
X179914815Y-108666815D01*
X179835463Y-108763506D01*
X179776498Y-108873820D01*
X179740188Y-108993518D01*
X179727928Y-109118000D01*
X174453256Y-109118000D01*
X174418670Y-108944128D01*
X174290521Y-108634748D01*
X174104477Y-108356313D01*
X173867687Y-108119523D01*
X173589252Y-107933479D01*
X173279872Y-107805330D01*
X172951435Y-107740000D01*
X172616565Y-107740000D01*
X172288128Y-107805330D01*
X171978748Y-107933479D01*
X171700313Y-108119523D01*
X171463523Y-108356313D01*
X171277479Y-108634748D01*
X171149330Y-108944128D01*
X171084000Y-109272565D01*
X171084000Y-109607435D01*
X171149330Y-109935872D01*
X171277479Y-110245252D01*
X171463523Y-110523687D01*
X171700313Y-110760477D01*
X171949000Y-110926644D01*
X171949001Y-113367772D01*
X171944960Y-113408800D01*
X171961082Y-113572488D01*
X172008828Y-113729886D01*
X172086364Y-113874945D01*
X172109907Y-113903632D01*
X172190710Y-114002091D01*
X172222574Y-114028241D01*
X176545931Y-118351600D01*
X174384200Y-120513333D01*
X174387072Y-119925000D01*
X174374812Y-119800518D01*
X174338502Y-119680820D01*
X174279537Y-119570506D01*
X174200185Y-119473815D01*
X174103494Y-119394463D01*
X173993180Y-119335498D01*
X173873482Y-119299188D01*
X173749000Y-119286928D01*
X173488860Y-119288105D01*
X173589252Y-119246521D01*
X173867687Y-119060477D01*
X174104477Y-118823687D01*
X174290521Y-118545252D01*
X174418670Y-118235872D01*
X174484000Y-117907435D01*
X174484000Y-117572565D01*
X174418670Y-117244128D01*
X174290521Y-116934748D01*
X174104477Y-116656313D01*
X173867687Y-116419523D01*
X173589252Y-116233479D01*
X173279872Y-116105330D01*
X172951435Y-116040000D01*
X172616565Y-116040000D01*
X172288128Y-116105330D01*
X171978748Y-116233479D01*
X171700313Y-116419523D01*
X171463523Y-116656313D01*
X171277479Y-116934748D01*
X171149330Y-117244128D01*
X171084000Y-117572565D01*
X171084000Y-117907435D01*
X171149330Y-118235872D01*
X171277479Y-118545252D01*
X171463523Y-118823687D01*
X171700313Y-119060477D01*
X171978748Y-119246521D01*
X172079140Y-119288105D01*
X171819000Y-119286928D01*
X171694518Y-119299188D01*
X171574820Y-119335498D01*
X171464506Y-119394463D01*
X171367815Y-119473815D01*
X171288463Y-119570506D01*
X171229498Y-119680820D01*
X171193188Y-119800518D01*
X171180928Y-119925000D01*
X171184000Y-120554250D01*
X171342750Y-120713000D01*
X172657000Y-120713000D01*
X172657000Y-120693000D01*
X172911000Y-120693000D01*
X172911000Y-120713000D01*
X172931000Y-120713000D01*
X172931000Y-120967000D01*
X172911000Y-120967000D01*
X172911000Y-120987000D01*
X172657000Y-120987000D01*
X172657000Y-120967000D01*
X171342750Y-120967000D01*
X171184000Y-121125750D01*
X171180928Y-121755000D01*
X171183311Y-121779200D01*
X169653807Y-121779200D01*
X169612799Y-121775161D01*
X169571791Y-121779200D01*
X169571781Y-121779200D01*
X169449111Y-121791282D01*
X169291713Y-121839028D01*
X169146654Y-121916564D01*
X169019509Y-122020909D01*
X168993361Y-122052771D01*
X164954418Y-126091715D01*
X164860335Y-126073000D01*
X164577665Y-126073000D01*
X164300426Y-126128147D01*
X164265400Y-126142655D01*
X164265400Y-121253345D01*
X164300426Y-121267853D01*
X164577665Y-121323000D01*
X164860335Y-121323000D01*
X165137574Y-121267853D01*
X165398727Y-121159680D01*
X165633759Y-121002637D01*
X165833637Y-120802759D01*
X165990680Y-120567727D01*
X166098853Y-120306574D01*
X166154000Y-120029335D01*
X166154000Y-119746665D01*
X166098853Y-119469426D01*
X165990680Y-119208273D01*
X165833637Y-118973241D01*
X165633759Y-118773363D01*
X165398727Y-118616320D01*
X165137574Y-118508147D01*
X164860335Y-118453000D01*
X164577665Y-118453000D01*
X164300426Y-118508147D01*
X164265400Y-118522655D01*
X164265400Y-117353249D01*
X164363426Y-117393853D01*
X164640665Y-117449000D01*
X164923335Y-117449000D01*
X165200574Y-117393853D01*
X165461727Y-117285680D01*
X165696759Y-117128637D01*
X165896637Y-116928759D01*
X166053680Y-116693727D01*
X166161853Y-116432574D01*
X166217000Y-116155335D01*
X166217000Y-115872665D01*
X166161853Y-115595426D01*
X166053680Y-115334273D01*
X165896637Y-115099241D01*
X165696759Y-114899363D01*
X165461727Y-114742320D01*
X165200574Y-114634147D01*
X164923335Y-114579000D01*
X164640665Y-114579000D01*
X164363426Y-114634147D01*
X164265400Y-114674751D01*
X164265400Y-110091467D01*
X164546582Y-109810285D01*
X164640665Y-109829000D01*
X164923335Y-109829000D01*
X165200574Y-109773853D01*
X165461727Y-109665680D01*
X165696759Y-109508637D01*
X165896637Y-109308759D01*
X166053680Y-109073727D01*
X166161853Y-108812574D01*
X166217000Y-108535335D01*
X166217000Y-108252665D01*
X166161853Y-107975426D01*
X166053680Y-107714273D01*
X165896637Y-107479241D01*
X165696759Y-107279363D01*
X165461727Y-107122320D01*
X165200574Y-107014147D01*
X164923335Y-106959000D01*
X164640665Y-106959000D01*
X164363426Y-107014147D01*
X164102273Y-107122320D01*
X163867241Y-107279363D01*
X163667363Y-107479241D01*
X163510320Y-107714273D01*
X163402147Y-107975426D01*
X163347000Y-108252665D01*
X163347000Y-108535335D01*
X163365715Y-108629418D01*
X162868974Y-109126159D01*
X162837110Y-109152309D01*
X162810962Y-109184171D01*
X162732764Y-109279455D01*
X162655228Y-109424514D01*
X162607482Y-109581912D01*
X162591360Y-109745600D01*
X162595401Y-109786629D01*
X162595400Y-142655882D01*
X162591360Y-142696900D01*
X162595400Y-142737918D01*
X162607482Y-142860588D01*
X162655228Y-143017986D01*
X162732764Y-143163045D01*
X162837109Y-143290191D01*
X162868978Y-143316345D01*
X163558763Y-144006131D01*
X163584909Y-144037991D01*
X163616768Y-144064137D01*
X163616770Y-144064139D01*
X163712054Y-144142336D01*
X163857113Y-144219872D01*
X164014511Y-144267618D01*
X164178200Y-144283740D01*
X164219218Y-144279700D01*
X168584282Y-144279700D01*
X168625300Y-144283740D01*
X168666318Y-144279700D01*
X168666319Y-144279700D01*
X168727565Y-144273668D01*
X165176533Y-147824700D01*
X164760019Y-147824700D01*
X164719000Y-147820660D01*
X164677982Y-147824700D01*
X164677981Y-147824700D01*
X164555311Y-147836782D01*
X164397913Y-147884528D01*
X164252854Y-147962064D01*
X164125709Y-148066409D01*
X164021364Y-148193554D01*
X163943828Y-148338613D01*
X163896082Y-148496011D01*
X163879960Y-148659700D01*
X163883201Y-148692604D01*
X163804241Y-148745363D01*
X163604363Y-148945241D01*
X163447320Y-149180273D01*
X163339147Y-149441426D01*
X163284000Y-149718665D01*
X163284000Y-150001335D01*
X163339147Y-150278574D01*
X163447320Y-150539727D01*
X163604363Y-150774759D01*
X163804241Y-150974637D01*
X164039273Y-151131680D01*
X164300426Y-151239853D01*
X164577665Y-151295000D01*
X164860335Y-151295000D01*
X165137574Y-151239853D01*
X165398727Y-151131680D01*
X165633759Y-150974637D01*
X165833637Y-150774759D01*
X165990680Y-150539727D01*
X166098853Y-150278574D01*
X166154000Y-150001335D01*
X166154000Y-149718665D01*
X166098853Y-149441426D01*
X166044874Y-149311109D01*
X166115691Y-149252991D01*
X166141846Y-149221121D01*
X167944402Y-147418565D01*
X171084000Y-147418565D01*
X171084000Y-147753435D01*
X171149330Y-148081872D01*
X171277479Y-148391252D01*
X171463523Y-148669687D01*
X171700313Y-148906477D01*
X171978748Y-149092521D01*
X172079140Y-149134105D01*
X171819000Y-149132928D01*
X171694518Y-149145188D01*
X171574820Y-149181498D01*
X171464506Y-149240463D01*
X171367815Y-149319815D01*
X171288463Y-149416506D01*
X171229498Y-149526820D01*
X171193188Y-149646518D01*
X171180928Y-149771000D01*
X171184000Y-150400250D01*
X171342750Y-150559000D01*
X172657000Y-150559000D01*
X172657000Y-150539000D01*
X172911000Y-150539000D01*
X172911000Y-150559000D01*
X174225250Y-150559000D01*
X174384000Y-150400250D01*
X174387072Y-149771000D01*
X174374812Y-149646518D01*
X174338502Y-149526820D01*
X174279537Y-149416506D01*
X174200185Y-149319815D01*
X174103494Y-149240463D01*
X173993180Y-149181498D01*
X173873482Y-149145188D01*
X173749000Y-149132928D01*
X173488860Y-149134105D01*
X173589252Y-149092521D01*
X173867687Y-148906477D01*
X174104477Y-148669687D01*
X174290521Y-148391252D01*
X174418670Y-148081872D01*
X174484000Y-147753435D01*
X174484000Y-147418565D01*
X174418670Y-147090128D01*
X174290521Y-146780748D01*
X174104477Y-146502313D01*
X173867687Y-146265523D01*
X173589252Y-146079479D01*
X173279872Y-145951330D01*
X172951435Y-145886000D01*
X172616565Y-145886000D01*
X172288128Y-145951330D01*
X171978748Y-146079479D01*
X171700313Y-146265523D01*
X171463523Y-146502313D01*
X171277479Y-146780748D01*
X171149330Y-147090128D01*
X171084000Y-147418565D01*
X167944402Y-147418565D01*
X179759642Y-135603326D01*
X179786147Y-135736574D01*
X179894320Y-135997727D01*
X180051363Y-136232759D01*
X180251241Y-136432637D01*
X180483759Y-136588000D01*
X180251241Y-136743363D01*
X180051363Y-136943241D01*
X179894320Y-137178273D01*
X179786147Y-137439426D01*
X179731000Y-137716665D01*
X179731000Y-137999335D01*
X179786147Y-138276574D01*
X179894320Y-138537727D01*
X180051363Y-138772759D01*
X180251241Y-138972637D01*
X180483759Y-139128000D01*
X180251241Y-139283363D01*
X180051363Y-139483241D01*
X179894320Y-139718273D01*
X179786147Y-139979426D01*
X179731000Y-140256665D01*
X179731000Y-140539335D01*
X179786147Y-140816574D01*
X179894320Y-141077727D01*
X180051363Y-141312759D01*
X180251241Y-141512637D01*
X180483759Y-141668000D01*
X180251241Y-141823363D01*
X180051363Y-142023241D01*
X179894320Y-142258273D01*
X179786147Y-142519426D01*
X179731000Y-142796665D01*
X179731000Y-143079335D01*
X179786147Y-143356574D01*
X179894320Y-143617727D01*
X180051363Y-143852759D01*
X180251241Y-144052637D01*
X180483759Y-144208000D01*
X180251241Y-144363363D01*
X180051363Y-144563241D01*
X179894320Y-144798273D01*
X179786147Y-145059426D01*
X179731000Y-145336665D01*
X179731000Y-145619335D01*
X179786147Y-145896574D01*
X179894320Y-146157727D01*
X180051363Y-146392759D01*
X180251241Y-146592637D01*
X180486273Y-146749680D01*
X180747426Y-146857853D01*
X181024665Y-146913000D01*
X181307335Y-146913000D01*
X181584574Y-146857853D01*
X181845727Y-146749680D01*
X182080759Y-146592637D01*
X182280637Y-146392759D01*
X182437680Y-146157727D01*
X182545853Y-145896574D01*
X182601000Y-145619335D01*
X182601000Y-145336665D01*
X182593508Y-145299000D01*
X186739928Y-145299000D01*
X186752188Y-145423482D01*
X186788498Y-145543180D01*
X186847463Y-145653494D01*
X186926815Y-145750185D01*
X187023506Y-145829537D01*
X187133820Y-145888502D01*
X187253518Y-145924812D01*
X187378000Y-145937072D01*
X187992250Y-145934000D01*
X188151000Y-145775250D01*
X188151000Y-144526000D01*
X186901750Y-144526000D01*
X186743000Y-144684750D01*
X186739928Y-145299000D01*
X182593508Y-145299000D01*
X182545853Y-145059426D01*
X182437680Y-144798273D01*
X182280637Y-144563241D01*
X182080759Y-144363363D01*
X181848241Y-144208000D01*
X182080759Y-144052637D01*
X182280637Y-143852759D01*
X182437680Y-143617727D01*
X182486858Y-143499000D01*
X186739928Y-143499000D01*
X186743000Y-144113250D01*
X186901750Y-144272000D01*
X188151000Y-144272000D01*
X188151000Y-143022750D01*
X187992250Y-142864000D01*
X187378000Y-142860928D01*
X187253518Y-142873188D01*
X187133820Y-142909498D01*
X187023506Y-142968463D01*
X186926815Y-143047815D01*
X186847463Y-143144506D01*
X186788498Y-143254820D01*
X186752188Y-143374518D01*
X186739928Y-143499000D01*
X182486858Y-143499000D01*
X182545853Y-143356574D01*
X182601000Y-143079335D01*
X182601000Y-142796665D01*
X182545853Y-142519426D01*
X182437680Y-142258273D01*
X182280637Y-142023241D01*
X182080759Y-141823363D01*
X181848241Y-141668000D01*
X182080759Y-141512637D01*
X182280637Y-141312759D01*
X182437680Y-141077727D01*
X182545853Y-140816574D01*
X182601000Y-140539335D01*
X182601000Y-140256665D01*
X182545853Y-139979426D01*
X182446971Y-139740702D01*
X185432903Y-139740702D01*
X185504486Y-139984671D01*
X185759996Y-140105571D01*
X186034184Y-140174300D01*
X186316512Y-140188217D01*
X186596130Y-140146787D01*
X186862292Y-140051603D01*
X186987514Y-139984671D01*
X187059097Y-139740702D01*
X186246000Y-138927605D01*
X185432903Y-139740702D01*
X182446971Y-139740702D01*
X182437680Y-139718273D01*
X182280637Y-139483241D01*
X182080759Y-139283363D01*
X181848241Y-139128000D01*
X182080759Y-138972637D01*
X182234884Y-138818512D01*
X184805783Y-138818512D01*
X184847213Y-139098130D01*
X184942397Y-139364292D01*
X185009329Y-139489514D01*
X185253298Y-139561097D01*
X186066395Y-138748000D01*
X186425605Y-138748000D01*
X187238702Y-139561097D01*
X187482671Y-139489514D01*
X187603571Y-139234004D01*
X187672300Y-138959816D01*
X187686217Y-138677488D01*
X187644787Y-138397870D01*
X187549603Y-138131708D01*
X187482671Y-138006486D01*
X187238702Y-137934903D01*
X186425605Y-138748000D01*
X186066395Y-138748000D01*
X185253298Y-137934903D01*
X185009329Y-138006486D01*
X184888429Y-138261996D01*
X184819700Y-138536184D01*
X184805783Y-138818512D01*
X182234884Y-138818512D01*
X182280637Y-138772759D01*
X182437680Y-138537727D01*
X182545853Y-138276574D01*
X182601000Y-137999335D01*
X182601000Y-137755298D01*
X185432903Y-137755298D01*
X186246000Y-138568395D01*
X187059097Y-137755298D01*
X186987514Y-137511329D01*
X186732004Y-137390429D01*
X186457816Y-137321700D01*
X186175488Y-137307783D01*
X185895870Y-137349213D01*
X185629708Y-137444397D01*
X185504486Y-137511329D01*
X185432903Y-137755298D01*
X182601000Y-137755298D01*
X182601000Y-137716665D01*
X182545853Y-137439426D01*
X182437680Y-137178273D01*
X182280637Y-136943241D01*
X182080759Y-136743363D01*
X181848241Y-136588000D01*
X182080759Y-136432637D01*
X182280637Y-136232759D01*
X182333396Y-136153799D01*
X182366300Y-136157040D01*
X182407318Y-136153000D01*
X182407319Y-136153000D01*
X182529989Y-136140918D01*
X182687387Y-136093172D01*
X182832446Y-136015636D01*
X182959591Y-135911291D01*
X182985746Y-135879421D01*
X183220167Y-135645000D01*
X183744070Y-135645000D01*
X183797363Y-135724759D01*
X183997241Y-135924637D01*
X184232273Y-136081680D01*
X184493426Y-136189853D01*
X184770665Y-136245000D01*
X185053335Y-136245000D01*
X185330574Y-136189853D01*
X185591727Y-136081680D01*
X185826759Y-135924637D01*
X186026637Y-135724759D01*
X186183680Y-135489727D01*
X186291853Y-135228574D01*
X186347000Y-134951335D01*
X186347000Y-134668665D01*
X186291853Y-134391426D01*
X186183680Y-134130273D01*
X186026637Y-133895241D01*
X185826759Y-133695363D01*
X185747000Y-133642070D01*
X185747000Y-130218967D01*
X186742965Y-129223002D01*
X186773748Y-129223002D01*
X186615000Y-129381750D01*
X186611928Y-129996000D01*
X186624188Y-130120482D01*
X186660498Y-130240180D01*
X186719463Y-130350494D01*
X186798815Y-130447185D01*
X186895506Y-130526537D01*
X187005820Y-130585502D01*
X187125518Y-130621812D01*
X187250000Y-130634072D01*
X187864250Y-130631000D01*
X188023000Y-130472250D01*
X188023000Y-129223000D01*
X188003000Y-129223000D01*
X188003000Y-128969000D01*
X188023000Y-128969000D01*
X188023000Y-128949000D01*
X188277000Y-128949000D01*
X188277000Y-128969000D01*
X188297000Y-128969000D01*
X188297000Y-129223000D01*
X188277000Y-129223000D01*
X188277000Y-130472250D01*
X188435750Y-130631000D01*
X189050000Y-130634072D01*
X189174482Y-130621812D01*
X189294180Y-130585502D01*
X189404494Y-130526537D01*
X189501185Y-130447185D01*
X189580537Y-130350494D01*
X189639502Y-130240180D01*
X189645056Y-130221873D01*
X189711495Y-130288312D01*
X189962905Y-130456299D01*
X190242257Y-130572011D01*
X190538816Y-130631000D01*
X190841184Y-130631000D01*
X191137743Y-130572011D01*
X191417095Y-130456299D01*
X191668505Y-130288312D01*
X191882312Y-130074505D01*
X192050299Y-129823095D01*
X192166011Y-129543743D01*
X192225000Y-129247184D01*
X192225000Y-128944816D01*
X192166011Y-128648257D01*
X192050299Y-128368905D01*
X191882312Y-128117495D01*
X191668505Y-127903688D01*
X191417095Y-127735701D01*
X191137743Y-127619989D01*
X190841184Y-127561000D01*
X190538816Y-127561000D01*
X190242257Y-127619989D01*
X189962905Y-127735701D01*
X189711495Y-127903688D01*
X189645056Y-127970127D01*
X189639502Y-127951820D01*
X189580537Y-127841506D01*
X189501185Y-127744815D01*
X189404494Y-127665463D01*
X189294180Y-127606498D01*
X189174482Y-127570188D01*
X189050000Y-127557928D01*
X188435750Y-127561000D01*
X188277002Y-127719748D01*
X188277002Y-127688965D01*
X195163929Y-120802039D01*
X195291363Y-120992759D01*
X195491241Y-121192637D01*
X195723759Y-121348000D01*
X195491241Y-121503363D01*
X195291363Y-121703241D01*
X195134320Y-121938273D01*
X195026147Y-122199426D01*
X194971000Y-122476665D01*
X194971000Y-122759335D01*
X195026147Y-123036574D01*
X195134320Y-123297727D01*
X195291363Y-123532759D01*
X195491241Y-123732637D01*
X195723759Y-123888000D01*
X195491241Y-124043363D01*
X195291363Y-124243241D01*
X195134320Y-124478273D01*
X195026147Y-124739426D01*
X194971000Y-125016665D01*
X194971000Y-125299335D01*
X195026147Y-125576574D01*
X195134320Y-125837727D01*
X195291363Y-126072759D01*
X195491241Y-126272637D01*
X195723759Y-126428000D01*
X195491241Y-126583363D01*
X195291363Y-126783241D01*
X195134320Y-127018273D01*
X195026147Y-127279426D01*
X194971000Y-127556665D01*
X194971000Y-127839335D01*
X195026147Y-128116574D01*
X195134320Y-128377727D01*
X195229763Y-128520568D01*
X190684574Y-133065759D01*
X190652710Y-133091909D01*
X190626562Y-133123771D01*
X190548364Y-133219055D01*
X190470828Y-133364114D01*
X190423082Y-133521512D01*
X190406960Y-133685200D01*
X190411001Y-133726228D01*
X190411000Y-137580070D01*
X190331241Y-137633363D01*
X190131363Y-137833241D01*
X189974320Y-138068273D01*
X189866147Y-138329426D01*
X189811000Y-138606665D01*
X189811000Y-138889335D01*
X189866147Y-139166574D01*
X189974320Y-139427727D01*
X190131363Y-139662759D01*
X190331241Y-139862637D01*
X190566273Y-140019680D01*
X190827426Y-140127853D01*
X191104665Y-140183000D01*
X191387335Y-140183000D01*
X191664574Y-140127853D01*
X191697000Y-140114422D01*
X191697000Y-142339132D01*
X191138461Y-142897671D01*
X190969184Y-142864000D01*
X190666816Y-142864000D01*
X190370257Y-142922989D01*
X190090905Y-143038701D01*
X189839495Y-143206688D01*
X189773056Y-143273127D01*
X189767502Y-143254820D01*
X189708537Y-143144506D01*
X189629185Y-143047815D01*
X189532494Y-142968463D01*
X189422180Y-142909498D01*
X189302482Y-142873188D01*
X189178000Y-142860928D01*
X188563750Y-142864000D01*
X188405000Y-143022750D01*
X188405000Y-144272000D01*
X188425000Y-144272000D01*
X188425000Y-144526000D01*
X188405000Y-144526000D01*
X188405000Y-145775250D01*
X188563750Y-145934000D01*
X189178000Y-145937072D01*
X189302482Y-145924812D01*
X189422180Y-145888502D01*
X189532494Y-145829537D01*
X189629185Y-145750185D01*
X189708537Y-145653494D01*
X189767502Y-145543180D01*
X189773056Y-145524873D01*
X189839495Y-145591312D01*
X190090905Y-145759299D01*
X190370257Y-145875011D01*
X190666816Y-145934000D01*
X190969184Y-145934000D01*
X191265743Y-145875011D01*
X191545095Y-145759299D01*
X191796505Y-145591312D01*
X192010312Y-145377505D01*
X192178299Y-145126095D01*
X192294011Y-144846743D01*
X192353000Y-144550184D01*
X192353000Y-144247816D01*
X192319329Y-144078539D01*
X193093428Y-143304440D01*
X193125291Y-143278291D01*
X193229636Y-143151146D01*
X193307172Y-143006087D01*
X193354918Y-142848689D01*
X193367000Y-142726019D01*
X193367000Y-142726018D01*
X193371040Y-142685001D01*
X193367000Y-142643982D01*
X193367000Y-135977930D01*
X193446759Y-135924637D01*
X193646637Y-135724759D01*
X193803680Y-135489727D01*
X193911853Y-135228574D01*
X193967000Y-134951335D01*
X193967000Y-134668665D01*
X193911853Y-134391426D01*
X193803680Y-134130273D01*
X193646637Y-133895241D01*
X193446759Y-133695363D01*
X193211727Y-133538320D01*
X192950574Y-133430147D01*
X192726493Y-133385574D01*
X195158361Y-130953707D01*
X195291363Y-131152759D01*
X195491241Y-131352637D01*
X195723759Y-131508000D01*
X195491241Y-131663363D01*
X195291363Y-131863241D01*
X195134320Y-132098273D01*
X195026147Y-132359426D01*
X194971000Y-132636665D01*
X194971000Y-132919335D01*
X195026147Y-133196574D01*
X195134320Y-133457727D01*
X195291363Y-133692759D01*
X195491241Y-133892637D01*
X195723759Y-134048000D01*
X195491241Y-134203363D01*
X195291363Y-134403241D01*
X195134320Y-134638273D01*
X195026147Y-134899426D01*
X194971000Y-135176665D01*
X194971000Y-135459335D01*
X195026147Y-135736574D01*
X195134320Y-135997727D01*
X195291363Y-136232759D01*
X195491241Y-136432637D01*
X195723759Y-136588000D01*
X195491241Y-136743363D01*
X195291363Y-136943241D01*
X195134320Y-137178273D01*
X195026147Y-137439426D01*
X194971000Y-137716665D01*
X194971000Y-137999335D01*
X195026147Y-138276574D01*
X195134320Y-138537727D01*
X195291363Y-138772759D01*
X195491241Y-138972637D01*
X195723759Y-139128000D01*
X195491241Y-139283363D01*
X195291363Y-139483241D01*
X195134320Y-139718273D01*
X195026147Y-139979426D01*
X194971000Y-140256665D01*
X194971000Y-140539335D01*
X195026147Y-140816574D01*
X195134320Y-141077727D01*
X195291363Y-141312759D01*
X195491241Y-141512637D01*
X195723759Y-141668000D01*
X195491241Y-141823363D01*
X195291363Y-142023241D01*
X195134320Y-142258273D01*
X195026147Y-142519426D01*
X194971000Y-142796665D01*
X194971000Y-143079335D01*
X195026147Y-143356574D01*
X195134320Y-143617727D01*
X195291363Y-143852759D01*
X195491241Y-144052637D01*
X195723759Y-144208000D01*
X195491241Y-144363363D01*
X195291363Y-144563241D01*
X195134320Y-144798273D01*
X195026147Y-145059426D01*
X194971000Y-145336665D01*
X194971000Y-145619335D01*
X195026147Y-145896574D01*
X195134320Y-146157727D01*
X195291363Y-146392759D01*
X195491241Y-146592637D01*
X195726273Y-146749680D01*
X195987426Y-146857853D01*
X196264665Y-146913000D01*
X196547335Y-146913000D01*
X196824574Y-146857853D01*
X197085727Y-146749680D01*
X197320759Y-146592637D01*
X197520637Y-146392759D01*
X197677680Y-146157727D01*
X197785853Y-145896574D01*
X197841000Y-145619335D01*
X197841000Y-145336665D01*
X197785853Y-145059426D01*
X197677680Y-144798273D01*
X197520637Y-144563241D01*
X197320759Y-144363363D01*
X197088241Y-144208000D01*
X197320759Y-144052637D01*
X197520637Y-143852759D01*
X197677680Y-143617727D01*
X197785853Y-143356574D01*
X197841000Y-143079335D01*
X197841000Y-142796665D01*
X197785853Y-142519426D01*
X197677680Y-142258273D01*
X197520637Y-142023241D01*
X197320759Y-141823363D01*
X197088241Y-141668000D01*
X197320759Y-141512637D01*
X197520637Y-141312759D01*
X197677680Y-141077727D01*
X197785853Y-140816574D01*
X197841000Y-140539335D01*
X197841000Y-140256665D01*
X197785853Y-139979426D01*
X197677680Y-139718273D01*
X197520637Y-139483241D01*
X197320759Y-139283363D01*
X197088241Y-139128000D01*
X197320759Y-138972637D01*
X197520637Y-138772759D01*
X197677680Y-138537727D01*
X197785853Y-138276574D01*
X197841000Y-137999335D01*
X197841000Y-137716665D01*
X197785853Y-137439426D01*
X197677680Y-137178273D01*
X197520637Y-136943241D01*
X197320759Y-136743363D01*
X197088241Y-136588000D01*
X197320759Y-136432637D01*
X197520637Y-136232759D01*
X197677680Y-135997727D01*
X197785853Y-135736574D01*
X197841000Y-135459335D01*
X197841000Y-135176665D01*
X197785853Y-134899426D01*
X197677680Y-134638273D01*
X197520637Y-134403241D01*
X197320759Y-134203363D01*
X197088241Y-134048000D01*
X197320759Y-133892637D01*
X197520637Y-133692759D01*
X197677680Y-133457727D01*
X197785853Y-133196574D01*
X197841000Y-132919335D01*
X197841000Y-132636665D01*
X197785853Y-132359426D01*
X197677680Y-132098273D01*
X197520637Y-131863241D01*
X197320759Y-131663363D01*
X197088241Y-131508000D01*
X197320759Y-131352637D01*
X197520637Y-131152759D01*
X197677680Y-130917727D01*
X197785853Y-130656574D01*
X197841000Y-130379335D01*
X197841000Y-130096665D01*
X197785853Y-129819426D01*
X197677680Y-129558273D01*
X197520637Y-129323241D01*
X197320759Y-129123363D01*
X197228916Y-129061996D01*
X197228918Y-129061989D01*
X197241000Y-128939319D01*
X197245040Y-128898300D01*
X197241799Y-128865396D01*
X197320759Y-128812637D01*
X197520637Y-128612759D01*
X197677680Y-128377727D01*
X197785853Y-128116574D01*
X197841000Y-127839335D01*
X197841000Y-127556665D01*
X197785853Y-127279426D01*
X197677680Y-127018273D01*
X197520637Y-126783241D01*
X197320759Y-126583363D01*
X197088241Y-126428000D01*
X197320759Y-126272637D01*
X197520637Y-126072759D01*
X197677680Y-125837727D01*
X197785853Y-125576574D01*
X197841000Y-125299335D01*
X197841000Y-125016665D01*
X197785853Y-124739426D01*
X197677680Y-124478273D01*
X197520637Y-124243241D01*
X197320759Y-124043363D01*
X197088241Y-123888000D01*
X197320759Y-123732637D01*
X197520637Y-123532759D01*
X197677680Y-123297727D01*
X197785853Y-123036574D01*
X197841000Y-122759335D01*
X197841000Y-122476665D01*
X197785853Y-122199426D01*
X197677680Y-121938273D01*
X197520637Y-121703241D01*
X197320759Y-121503363D01*
X197088241Y-121348000D01*
X197320759Y-121192637D01*
X197520637Y-120992759D01*
X197677680Y-120757727D01*
X197785853Y-120496574D01*
X197841000Y-120219335D01*
X197841000Y-119936665D01*
X197785853Y-119659426D01*
X197677680Y-119398273D01*
X197576669Y-119247098D01*
X199238001Y-117585767D01*
X199238001Y-152057500D01*
X174193709Y-152057500D01*
X174200185Y-152052185D01*
X174279537Y-151955494D01*
X174338502Y-151845180D01*
X174374812Y-151725482D01*
X174387072Y-151601000D01*
X174384000Y-150971750D01*
X174225250Y-150813000D01*
X172911000Y-150813000D01*
X172911000Y-150833000D01*
X172657000Y-150833000D01*
X172657000Y-150813000D01*
X171342750Y-150813000D01*
X171184000Y-150971750D01*
X171180928Y-151601000D01*
X171193188Y-151725482D01*
X171229498Y-151845180D01*
X171288463Y-151955494D01*
X171367815Y-152052185D01*
X171374291Y-152057500D01*
X162458000Y-152057500D01*
X162458000Y-82868531D01*
X165349389Y-82868531D01*
X165391401Y-83158019D01*
X165489081Y-83433747D01*
X165562528Y-83571157D01*
X165811603Y-83648792D01*
X166660395Y-82800000D01*
X167019605Y-82800000D01*
X167868397Y-83648792D01*
X168110000Y-83573486D01*
X168351603Y-83648792D01*
X169200395Y-82800000D01*
X168351603Y-81951208D01*
X168110000Y-82026514D01*
X167868397Y-81951208D01*
X167019605Y-82800000D01*
X166660395Y-82800000D01*
X165811603Y-81951208D01*
X165562528Y-82028843D01*
X165436629Y-82292883D01*
X165364661Y-82576411D01*
X165349389Y-82868531D01*
X162458000Y-82868531D01*
X162458000Y-81288397D01*
X165991208Y-81288397D01*
X166066514Y-81530000D01*
X165991208Y-81771603D01*
X166840000Y-82620395D01*
X167688792Y-81771603D01*
X167613486Y-81530000D01*
X167688792Y-81288397D01*
X166840000Y-80439605D01*
X165991208Y-81288397D01*
X162458000Y-81288397D01*
X162458000Y-80328531D01*
X165349389Y-80328531D01*
X165391401Y-80618019D01*
X165489081Y-80893747D01*
X165562528Y-81031157D01*
X165811603Y-81108792D01*
X166660395Y-80260000D01*
X167019605Y-80260000D01*
X167868397Y-81108792D01*
X168110000Y-81033486D01*
X168351603Y-81108792D01*
X169200395Y-80260000D01*
X168351603Y-79411208D01*
X168110000Y-79486514D01*
X167868397Y-79411208D01*
X167019605Y-80260000D01*
X166660395Y-80260000D01*
X165811603Y-79411208D01*
X165562528Y-79488843D01*
X165436629Y-79752883D01*
X165364661Y-80036411D01*
X165349389Y-80328531D01*
X162458000Y-80328531D01*
X162458000Y-78748397D01*
X165991208Y-78748397D01*
X166066514Y-78990000D01*
X165991208Y-79231603D01*
X166840000Y-80080395D01*
X167688792Y-79231603D01*
X167613486Y-78990000D01*
X167688792Y-78748397D01*
X166840000Y-77899605D01*
X165991208Y-78748397D01*
X162458000Y-78748397D01*
X162458000Y-77788531D01*
X165349389Y-77788531D01*
X165391401Y-78078019D01*
X165489081Y-78353747D01*
X165562528Y-78491157D01*
X165811603Y-78568792D01*
X166660395Y-77720000D01*
X167019605Y-77720000D01*
X167868397Y-78568792D01*
X168110000Y-78493486D01*
X168351603Y-78568792D01*
X169200395Y-77720000D01*
X168351603Y-76871208D01*
X168110000Y-76946514D01*
X167868397Y-76871208D01*
X167019605Y-77720000D01*
X166660395Y-77720000D01*
X165811603Y-76871208D01*
X165562528Y-76948843D01*
X165436629Y-77212883D01*
X165364661Y-77496411D01*
X165349389Y-77788531D01*
X162458000Y-77788531D01*
X162458000Y-66911675D01*
X162548320Y-67129727D01*
G37*
X162548320Y-67129727D02*
X162705363Y-67364759D01*
X162905241Y-67564637D01*
X163140273Y-67721680D01*
X163401426Y-67829853D01*
X163678665Y-67885000D01*
X163961335Y-67885000D01*
X164055418Y-67866285D01*
X170031737Y-73842606D01*
X169813158Y-73752068D01*
X169526260Y-73695000D01*
X169233740Y-73695000D01*
X168946842Y-73752068D01*
X168676589Y-73864010D01*
X168433368Y-74026525D01*
X168246285Y-74213608D01*
X168178405Y-74086614D01*
X168067962Y-73952038D01*
X167933386Y-73841595D01*
X167779850Y-73759528D01*
X167613254Y-73708992D01*
X167440000Y-73691928D01*
X166240000Y-73691928D01*
X166066746Y-73708992D01*
X165900150Y-73759528D01*
X165746614Y-73841595D01*
X165612038Y-73952038D01*
X165501595Y-74086614D01*
X165419528Y-74240150D01*
X165368992Y-74406746D01*
X165351928Y-74580000D01*
X165351928Y-75780000D01*
X165368992Y-75953254D01*
X165419528Y-76119850D01*
X165501595Y-76273386D01*
X165612038Y-76407962D01*
X165746614Y-76518405D01*
X165900150Y-76600472D01*
X166009293Y-76633580D01*
X165991208Y-76691603D01*
X166840000Y-77540395D01*
X167688792Y-76691603D01*
X167670707Y-76633580D01*
X167779850Y-76600472D01*
X167933386Y-76518405D01*
X168067962Y-76407962D01*
X168178405Y-76273386D01*
X168246285Y-76146392D01*
X168433368Y-76333475D01*
X168606729Y-76449311D01*
X168531208Y-76691603D01*
X169380000Y-77540395D01*
X169394143Y-77526253D01*
X169573748Y-77705858D01*
X169559605Y-77720000D01*
X169573748Y-77734143D01*
X169394143Y-77913748D01*
X169380000Y-77899605D01*
X168531208Y-78748397D01*
X168606514Y-78990000D01*
X168531208Y-79231603D01*
X169380000Y-80080395D01*
X169394143Y-80066253D01*
X169573748Y-80245858D01*
X169559605Y-80260000D01*
X169573748Y-80274143D01*
X169394143Y-80453748D01*
X169380000Y-80439605D01*
X168531208Y-81288397D01*
X168606514Y-81530000D01*
X168531208Y-81771603D01*
X169380000Y-82620395D01*
X169394143Y-82606253D01*
X169573748Y-82785858D01*
X169559605Y-82800000D01*
X169573748Y-82814143D01*
X169394143Y-82993748D01*
X169380000Y-82979605D01*
X168531208Y-83828397D01*
X168606729Y-84070689D01*
X168433368Y-84186525D01*
X168226525Y-84393368D01*
X168151935Y-84505000D01*
X168151018Y-84505000D01*
X168110000Y-84500960D01*
X168068981Y-84505000D01*
X168068065Y-84505000D01*
X167993475Y-84393368D01*
X167786632Y-84186525D01*
X167613271Y-84070689D01*
X167688792Y-83828397D01*
X166840000Y-82979605D01*
X165991208Y-83828397D01*
X166066729Y-84070689D01*
X165893368Y-84186525D01*
X165686525Y-84393368D01*
X165524010Y-84636589D01*
X165412068Y-84906842D01*
X165355000Y-85193740D01*
X165355000Y-85486260D01*
X165412068Y-85773158D01*
X165524010Y-86043411D01*
X165686525Y-86286632D01*
X165893368Y-86493475D01*
X166067760Y-86610000D01*
X165893368Y-86726525D01*
X165686525Y-86933368D01*
X165524010Y-87176589D01*
X165412068Y-87446842D01*
X165355000Y-87733740D01*
X165355000Y-88026260D01*
X165412068Y-88313158D01*
X165524010Y-88583411D01*
X165686525Y-88826632D01*
X165893368Y-89033475D01*
X166067760Y-89150000D01*
X165893368Y-89266525D01*
X165686525Y-89473368D01*
X165524010Y-89716589D01*
X165412068Y-89986842D01*
X165355000Y-90273740D01*
X165355000Y-90566260D01*
X165412068Y-90853158D01*
X165524010Y-91123411D01*
X165686525Y-91366632D01*
X165893368Y-91573475D01*
X166067760Y-91690000D01*
X165893368Y-91806525D01*
X165686525Y-92013368D01*
X165524010Y-92256589D01*
X165412068Y-92526842D01*
X165355000Y-92813740D01*
X165355000Y-93106260D01*
X165412068Y-93393158D01*
X165524010Y-93663411D01*
X165686525Y-93906632D01*
X165893368Y-94113475D01*
X166136589Y-94275990D01*
X166406842Y-94387932D01*
X166693740Y-94445000D01*
X166986260Y-94445000D01*
X167273158Y-94387932D01*
X167275001Y-94387169D01*
X167275001Y-98735071D01*
X167270960Y-98776100D01*
X167287082Y-98939788D01*
X167334828Y-99097186D01*
X167334829Y-99097187D01*
X167412365Y-99242246D01*
X167516710Y-99369391D01*
X167548574Y-99395541D01*
X174160059Y-106007027D01*
X174186209Y-106038891D01*
X174313354Y-106143236D01*
X174458413Y-106220772D01*
X174615811Y-106268518D01*
X174738481Y-106280600D01*
X174738491Y-106280600D01*
X174779499Y-106284639D01*
X174820507Y-106280600D01*
X190387433Y-106280600D01*
X194586263Y-110479432D01*
X194612409Y-110511291D01*
X194739554Y-110615636D01*
X194884613Y-110693172D01*
X195042011Y-110740918D01*
X195164681Y-110753000D01*
X195164682Y-110753000D01*
X195205700Y-110757040D01*
X195238604Y-110753799D01*
X195291363Y-110832759D01*
X195491241Y-111032637D01*
X195723759Y-111188000D01*
X195491241Y-111343363D01*
X195291363Y-111543241D01*
X195134320Y-111778273D01*
X195026147Y-112039426D01*
X194971000Y-112316665D01*
X194971000Y-112599335D01*
X195026147Y-112876574D01*
X195134320Y-113137727D01*
X195291363Y-113372759D01*
X195491241Y-113572637D01*
X195723759Y-113728000D01*
X195491241Y-113883363D01*
X195291363Y-114083241D01*
X195134320Y-114318273D01*
X195026147Y-114579426D01*
X194971000Y-114856665D01*
X194971000Y-115139335D01*
X195026147Y-115416574D01*
X195134320Y-115677727D01*
X195235811Y-115829620D01*
X190831564Y-120233869D01*
X190833072Y-119925000D01*
X190820812Y-119800518D01*
X190784502Y-119680820D01*
X190725537Y-119570506D01*
X190646185Y-119473815D01*
X190549494Y-119394463D01*
X190439180Y-119335498D01*
X190319482Y-119299188D01*
X190195000Y-119286928D01*
X189934860Y-119288105D01*
X190035252Y-119246521D01*
X190313687Y-119060477D01*
X190550477Y-118823687D01*
X190736521Y-118545252D01*
X190864670Y-118235872D01*
X190930000Y-117907435D01*
X190930000Y-117572565D01*
X190864670Y-117244128D01*
X190736521Y-116934748D01*
X190550477Y-116656313D01*
X190313687Y-116419523D01*
X190035252Y-116233479D01*
X189725872Y-116105330D01*
X189397435Y-116040000D01*
X189062565Y-116040000D01*
X188734128Y-116105330D01*
X188424748Y-116233479D01*
X188146313Y-116419523D01*
X187909523Y-116656313D01*
X187723479Y-116934748D01*
X187595330Y-117244128D01*
X187530000Y-117572565D01*
X187530000Y-117907435D01*
X187595330Y-118235872D01*
X187723479Y-118545252D01*
X187909523Y-118823687D01*
X188146313Y-119060477D01*
X188424748Y-119246521D01*
X188525140Y-119288105D01*
X188265000Y-119286928D01*
X188140518Y-119299188D01*
X188020820Y-119335498D01*
X187910506Y-119394463D01*
X187813815Y-119473815D01*
X187734463Y-119570506D01*
X187675498Y-119680820D01*
X187639188Y-119800518D01*
X187626928Y-119925000D01*
X187630000Y-120554250D01*
X187788750Y-120713000D01*
X189103000Y-120713000D01*
X189103000Y-120693000D01*
X189357000Y-120693000D01*
X189357000Y-120713000D01*
X189377000Y-120713000D01*
X189377000Y-120967000D01*
X189357000Y-120967000D01*
X189357000Y-122231250D01*
X189515750Y-122390000D01*
X189545697Y-122390135D01*
X182413599Y-129522234D01*
X182280637Y-129323241D01*
X182080759Y-129123363D01*
X181848241Y-128968000D01*
X182080759Y-128812637D01*
X182280637Y-128612759D01*
X182437680Y-128377727D01*
X182545853Y-128116574D01*
X182601000Y-127839335D01*
X182601000Y-127556665D01*
X182545853Y-127279426D01*
X182437680Y-127018273D01*
X182280637Y-126783241D01*
X182080759Y-126583363D01*
X181848241Y-126428000D01*
X182080759Y-126272637D01*
X182280637Y-126072759D01*
X182437680Y-125837727D01*
X182545853Y-125576574D01*
X182601000Y-125299335D01*
X182601000Y-125016665D01*
X182545853Y-124739426D01*
X182437680Y-124478273D01*
X182280637Y-124243241D01*
X182080759Y-124043363D01*
X181848241Y-123888000D01*
X182080759Y-123732637D01*
X182280637Y-123532759D01*
X182437680Y-123297727D01*
X182545853Y-123036574D01*
X182601000Y-122759335D01*
X182601000Y-122476665D01*
X182545853Y-122199426D01*
X182437680Y-121938273D01*
X182315222Y-121755000D01*
X187626928Y-121755000D01*
X187639188Y-121879482D01*
X187675498Y-121999180D01*
X187734463Y-122109494D01*
X187813815Y-122206185D01*
X187910506Y-122285537D01*
X188020820Y-122344502D01*
X188140518Y-122380812D01*
X188265000Y-122393072D01*
X188944250Y-122390000D01*
X189103000Y-122231250D01*
X189103000Y-120967000D01*
X187788750Y-120967000D01*
X187630000Y-121125750D01*
X187626928Y-121755000D01*
X182315222Y-121755000D01*
X182280637Y-121703241D01*
X182080759Y-121503363D01*
X182001799Y-121450604D01*
X182005040Y-121417700D01*
X181988918Y-121254011D01*
X181988916Y-121254004D01*
X182080759Y-121192637D01*
X182280637Y-120992759D01*
X182437680Y-120757727D01*
X182545853Y-120496574D01*
X182601000Y-120219335D01*
X182601000Y-119936665D01*
X182545853Y-119659426D01*
X182437680Y-119398273D01*
X182280637Y-119163241D01*
X182080759Y-118963363D01*
X181845727Y-118806320D01*
X181835135Y-118801933D01*
X182021131Y-118690385D01*
X182229519Y-118501414D01*
X182397037Y-118275420D01*
X182517246Y-118021087D01*
X182557904Y-117887039D01*
X182435915Y-117665000D01*
X181293000Y-117665000D01*
X181293000Y-117685000D01*
X181039000Y-117685000D01*
X181039000Y-117665000D01*
X179896085Y-117665000D01*
X179774096Y-117887039D01*
X179814754Y-118021087D01*
X179934963Y-118275420D01*
X180102481Y-118501414D01*
X180310869Y-118690385D01*
X180496865Y-118801933D01*
X180486273Y-118806320D01*
X180251241Y-118963363D01*
X180051363Y-119163241D01*
X179918361Y-119362293D01*
X178346248Y-117790181D01*
X178346239Y-117790170D01*
X178346236Y-117790167D01*
X178320091Y-117758309D01*
X178288233Y-117732164D01*
X173619000Y-113062933D01*
X173619000Y-110926644D01*
X173867687Y-110760477D01*
X174104477Y-110523687D01*
X174290521Y-110245252D01*
X174418670Y-109935872D01*
X174484000Y-109607435D01*
X174484000Y-109272565D01*
X174453256Y-109118000D01*
X179727928Y-109118000D01*
X179727928Y-110718000D01*
X179740188Y-110842482D01*
X179776498Y-110962180D01*
X179835463Y-111072494D01*
X179914815Y-111169185D01*
X180011506Y-111248537D01*
X180121820Y-111307502D01*
X180241518Y-111343812D01*
X180249961Y-111344643D01*
X180051363Y-111543241D01*
X179894320Y-111778273D01*
X179786147Y-112039426D01*
X179731000Y-112316665D01*
X179731000Y-112599335D01*
X179786147Y-112876574D01*
X179894320Y-113137727D01*
X180051363Y-113372759D01*
X180251241Y-113572637D01*
X180483759Y-113728000D01*
X180251241Y-113883363D01*
X180051363Y-114083241D01*
X179894320Y-114318273D01*
X179786147Y-114579426D01*
X179731000Y-114856665D01*
X179731000Y-115139335D01*
X179786147Y-115416574D01*
X179894320Y-115677727D01*
X180051363Y-115912759D01*
X180251241Y-116112637D01*
X180486273Y-116269680D01*
X180496865Y-116274067D01*
X180310869Y-116385615D01*
X180102481Y-116574586D01*
X179934963Y-116800580D01*
X179814754Y-117054913D01*
X179774096Y-117188961D01*
X179896085Y-117411000D01*
X181039000Y-117411000D01*
X181039000Y-117391000D01*
X181293000Y-117391000D01*
X181293000Y-117411000D01*
X182435915Y-117411000D01*
X182557904Y-117188961D01*
X182517246Y-117054913D01*
X182397037Y-116800580D01*
X182229519Y-116574586D01*
X182021131Y-116385615D01*
X181835135Y-116274067D01*
X181845727Y-116269680D01*
X182080759Y-116112637D01*
X182280637Y-115912759D01*
X182437680Y-115677727D01*
X182545853Y-115416574D01*
X182601000Y-115139335D01*
X182601000Y-114856665D01*
X182545853Y-114579426D01*
X182437680Y-114318273D01*
X182280637Y-114083241D01*
X182080759Y-113883363D01*
X181848241Y-113728000D01*
X182080759Y-113572637D01*
X182280637Y-113372759D01*
X182437680Y-113137727D01*
X182545853Y-112876574D01*
X182601000Y-112599335D01*
X182601000Y-112316665D01*
X182545853Y-112039426D01*
X182437680Y-111778273D01*
X182280637Y-111543241D01*
X182082039Y-111344643D01*
X182090482Y-111343812D01*
X182210180Y-111307502D01*
X182320494Y-111248537D01*
X182417185Y-111169185D01*
X182496537Y-111072494D01*
X182555502Y-110962180D01*
X182591812Y-110842482D01*
X182604072Y-110718000D01*
X182604072Y-109272565D01*
X187530000Y-109272565D01*
X187530000Y-109607435D01*
X187595330Y-109935872D01*
X187723479Y-110245252D01*
X187909523Y-110523687D01*
X188146313Y-110760477D01*
X188424748Y-110946521D01*
X188734128Y-111074670D01*
X189062565Y-111140000D01*
X189397435Y-111140000D01*
X189725872Y-111074670D01*
X190035252Y-110946521D01*
X190313687Y-110760477D01*
X190550477Y-110523687D01*
X190736521Y-110245252D01*
X190864670Y-109935872D01*
X190930000Y-109607435D01*
X190930000Y-109272565D01*
X190864670Y-108944128D01*
X190736521Y-108634748D01*
X190550477Y-108356313D01*
X190313687Y-108119523D01*
X190035252Y-107933479D01*
X189725872Y-107805330D01*
X189397435Y-107740000D01*
X189062565Y-107740000D01*
X188734128Y-107805330D01*
X188424748Y-107933479D01*
X188146313Y-108119523D01*
X187909523Y-108356313D01*
X187723479Y-108634748D01*
X187595330Y-108944128D01*
X187530000Y-109272565D01*
X182604072Y-109272565D01*
X182604072Y-109118000D01*
X182591812Y-108993518D01*
X182555502Y-108873820D01*
X182496537Y-108763506D01*
X182417185Y-108666815D01*
X182320494Y-108587463D01*
X182210180Y-108528498D01*
X182090482Y-108492188D01*
X181966000Y-108479928D01*
X180366000Y-108479928D01*
X180241518Y-108492188D01*
X180121820Y-108528498D01*
X180011506Y-108587463D01*
X179914815Y-108666815D01*
X179835463Y-108763506D01*
X179776498Y-108873820D01*
X179740188Y-108993518D01*
X179727928Y-109118000D01*
X174453256Y-109118000D01*
X174418670Y-108944128D01*
X174290521Y-108634748D01*
X174104477Y-108356313D01*
X173867687Y-108119523D01*
X173589252Y-107933479D01*
X173279872Y-107805330D01*
X172951435Y-107740000D01*
X172616565Y-107740000D01*
X172288128Y-107805330D01*
X171978748Y-107933479D01*
X171700313Y-108119523D01*
X171463523Y-108356313D01*
X171277479Y-108634748D01*
X171149330Y-108944128D01*
X171084000Y-109272565D01*
X171084000Y-109607435D01*
X171149330Y-109935872D01*
X171277479Y-110245252D01*
X171463523Y-110523687D01*
X171700313Y-110760477D01*
X171949000Y-110926644D01*
X171949001Y-113367772D01*
X171944960Y-113408800D01*
X171961082Y-113572488D01*
X172008828Y-113729886D01*
X172086364Y-113874945D01*
X172109907Y-113903632D01*
X172190710Y-114002091D01*
X172222574Y-114028241D01*
X176545931Y-118351600D01*
X174384200Y-120513333D01*
X174387072Y-119925000D01*
X174374812Y-119800518D01*
X174338502Y-119680820D01*
X174279537Y-119570506D01*
X174200185Y-119473815D01*
X174103494Y-119394463D01*
X173993180Y-119335498D01*
X173873482Y-119299188D01*
X173749000Y-119286928D01*
X173488860Y-119288105D01*
X173589252Y-119246521D01*
X173867687Y-119060477D01*
X174104477Y-118823687D01*
X174290521Y-118545252D01*
X174418670Y-118235872D01*
X174484000Y-117907435D01*
X174484000Y-117572565D01*
X174418670Y-117244128D01*
X174290521Y-116934748D01*
X174104477Y-116656313D01*
X173867687Y-116419523D01*
X173589252Y-116233479D01*
X173279872Y-116105330D01*
X172951435Y-116040000D01*
X172616565Y-116040000D01*
X172288128Y-116105330D01*
X171978748Y-116233479D01*
X171700313Y-116419523D01*
X171463523Y-116656313D01*
X171277479Y-116934748D01*
X171149330Y-117244128D01*
X171084000Y-117572565D01*
X171084000Y-117907435D01*
X171149330Y-118235872D01*
X171277479Y-118545252D01*
X171463523Y-118823687D01*
X171700313Y-119060477D01*
X171978748Y-119246521D01*
X172079140Y-119288105D01*
X171819000Y-119286928D01*
X171694518Y-119299188D01*
X171574820Y-119335498D01*
X171464506Y-119394463D01*
X171367815Y-119473815D01*
X171288463Y-119570506D01*
X171229498Y-119680820D01*
X171193188Y-119800518D01*
X171180928Y-119925000D01*
X171184000Y-120554250D01*
X171342750Y-120713000D01*
X172657000Y-120713000D01*
X172657000Y-120693000D01*
X172911000Y-120693000D01*
X172911000Y-120713000D01*
X172931000Y-120713000D01*
X172931000Y-120967000D01*
X172911000Y-120967000D01*
X172911000Y-120987000D01*
X172657000Y-120987000D01*
X172657000Y-120967000D01*
X171342750Y-120967000D01*
X171184000Y-121125750D01*
X171180928Y-121755000D01*
X171183311Y-121779200D01*
X169653807Y-121779200D01*
X169612799Y-121775161D01*
X169571791Y-121779200D01*
X169571781Y-121779200D01*
X169449111Y-121791282D01*
X169291713Y-121839028D01*
X169146654Y-121916564D01*
X169019509Y-122020909D01*
X168993361Y-122052771D01*
X164954418Y-126091715D01*
X164860335Y-126073000D01*
X164577665Y-126073000D01*
X164300426Y-126128147D01*
X164265400Y-126142655D01*
X164265400Y-121253345D01*
X164300426Y-121267853D01*
X164577665Y-121323000D01*
X164860335Y-121323000D01*
X165137574Y-121267853D01*
X165398727Y-121159680D01*
X165633759Y-121002637D01*
X165833637Y-120802759D01*
X165990680Y-120567727D01*
X166098853Y-120306574D01*
X166154000Y-120029335D01*
X166154000Y-119746665D01*
X166098853Y-119469426D01*
X165990680Y-119208273D01*
X165833637Y-118973241D01*
X165633759Y-118773363D01*
X165398727Y-118616320D01*
X165137574Y-118508147D01*
X164860335Y-118453000D01*
X164577665Y-118453000D01*
X164300426Y-118508147D01*
X164265400Y-118522655D01*
X164265400Y-117353249D01*
X164363426Y-117393853D01*
X164640665Y-117449000D01*
X164923335Y-117449000D01*
X165200574Y-117393853D01*
X165461727Y-117285680D01*
X165696759Y-117128637D01*
X165896637Y-116928759D01*
X166053680Y-116693727D01*
X166161853Y-116432574D01*
X166217000Y-116155335D01*
X166217000Y-115872665D01*
X166161853Y-115595426D01*
X166053680Y-115334273D01*
X165896637Y-115099241D01*
X165696759Y-114899363D01*
X165461727Y-114742320D01*
X165200574Y-114634147D01*
X164923335Y-114579000D01*
X164640665Y-114579000D01*
X164363426Y-114634147D01*
X164265400Y-114674751D01*
X164265400Y-110091467D01*
X164546582Y-109810285D01*
X164640665Y-109829000D01*
X164923335Y-109829000D01*
X165200574Y-109773853D01*
X165461727Y-109665680D01*
X165696759Y-109508637D01*
X165896637Y-109308759D01*
X166053680Y-109073727D01*
X166161853Y-108812574D01*
X166217000Y-108535335D01*
X166217000Y-108252665D01*
X166161853Y-107975426D01*
X166053680Y-107714273D01*
X165896637Y-107479241D01*
X165696759Y-107279363D01*
X165461727Y-107122320D01*
X165200574Y-107014147D01*
X164923335Y-106959000D01*
X164640665Y-106959000D01*
X164363426Y-107014147D01*
X164102273Y-107122320D01*
X163867241Y-107279363D01*
X163667363Y-107479241D01*
X163510320Y-107714273D01*
X163402147Y-107975426D01*
X163347000Y-108252665D01*
X163347000Y-108535335D01*
X163365715Y-108629418D01*
X162868974Y-109126159D01*
X162837110Y-109152309D01*
X162810962Y-109184171D01*
X162732764Y-109279455D01*
X162655228Y-109424514D01*
X162607482Y-109581912D01*
X162591360Y-109745600D01*
X162595401Y-109786629D01*
X162595400Y-142655882D01*
X162591360Y-142696900D01*
X162595400Y-142737918D01*
X162607482Y-142860588D01*
X162655228Y-143017986D01*
X162732764Y-143163045D01*
X162837109Y-143290191D01*
X162868978Y-143316345D01*
X163558763Y-144006131D01*
X163584909Y-144037991D01*
X163616768Y-144064137D01*
X163616770Y-144064139D01*
X163712054Y-144142336D01*
X163857113Y-144219872D01*
X164014511Y-144267618D01*
X164178200Y-144283740D01*
X164219218Y-144279700D01*
X168584282Y-144279700D01*
X168625300Y-144283740D01*
X168666318Y-144279700D01*
X168666319Y-144279700D01*
X168727565Y-144273668D01*
X165176533Y-147824700D01*
X164760019Y-147824700D01*
X164719000Y-147820660D01*
X164677982Y-147824700D01*
X164677981Y-147824700D01*
X164555311Y-147836782D01*
X164397913Y-147884528D01*
X164252854Y-147962064D01*
X164125709Y-148066409D01*
X164021364Y-148193554D01*
X163943828Y-148338613D01*
X163896082Y-148496011D01*
X163879960Y-148659700D01*
X163883201Y-148692604D01*
X163804241Y-148745363D01*
X163604363Y-148945241D01*
X163447320Y-149180273D01*
X163339147Y-149441426D01*
X163284000Y-149718665D01*
X163284000Y-150001335D01*
X163339147Y-150278574D01*
X163447320Y-150539727D01*
X163604363Y-150774759D01*
X163804241Y-150974637D01*
X164039273Y-151131680D01*
X164300426Y-151239853D01*
X164577665Y-151295000D01*
X164860335Y-151295000D01*
X165137574Y-151239853D01*
X165398727Y-151131680D01*
X165633759Y-150974637D01*
X165833637Y-150774759D01*
X165990680Y-150539727D01*
X166098853Y-150278574D01*
X166154000Y-150001335D01*
X166154000Y-149718665D01*
X166098853Y-149441426D01*
X166044874Y-149311109D01*
X166115691Y-149252991D01*
X166141846Y-149221121D01*
X167944402Y-147418565D01*
X171084000Y-147418565D01*
X171084000Y-147753435D01*
X171149330Y-148081872D01*
X171277479Y-148391252D01*
X171463523Y-148669687D01*
X171700313Y-148906477D01*
X171978748Y-149092521D01*
X172079140Y-149134105D01*
X171819000Y-149132928D01*
X171694518Y-149145188D01*
X171574820Y-149181498D01*
X171464506Y-149240463D01*
X171367815Y-149319815D01*
X171288463Y-149416506D01*
X171229498Y-149526820D01*
X171193188Y-149646518D01*
X171180928Y-149771000D01*
X171184000Y-150400250D01*
X171342750Y-150559000D01*
X172657000Y-150559000D01*
X172657000Y-150539000D01*
X172911000Y-150539000D01*
X172911000Y-150559000D01*
X174225250Y-150559000D01*
X174384000Y-150400250D01*
X174387072Y-149771000D01*
X174374812Y-149646518D01*
X174338502Y-149526820D01*
X174279537Y-149416506D01*
X174200185Y-149319815D01*
X174103494Y-149240463D01*
X173993180Y-149181498D01*
X173873482Y-149145188D01*
X173749000Y-149132928D01*
X173488860Y-149134105D01*
X173589252Y-149092521D01*
X173867687Y-148906477D01*
X174104477Y-148669687D01*
X174290521Y-148391252D01*
X174418670Y-148081872D01*
X174484000Y-147753435D01*
X174484000Y-147418565D01*
X174418670Y-147090128D01*
X174290521Y-146780748D01*
X174104477Y-146502313D01*
X173867687Y-146265523D01*
X173589252Y-146079479D01*
X173279872Y-145951330D01*
X172951435Y-145886000D01*
X172616565Y-145886000D01*
X172288128Y-145951330D01*
X171978748Y-146079479D01*
X171700313Y-146265523D01*
X171463523Y-146502313D01*
X171277479Y-146780748D01*
X171149330Y-147090128D01*
X171084000Y-147418565D01*
X167944402Y-147418565D01*
X179759642Y-135603326D01*
X179786147Y-135736574D01*
X179894320Y-135997727D01*
X180051363Y-136232759D01*
X180251241Y-136432637D01*
X180483759Y-136588000D01*
X180251241Y-136743363D01*
X180051363Y-136943241D01*
X179894320Y-137178273D01*
X179786147Y-137439426D01*
X179731000Y-137716665D01*
X179731000Y-137999335D01*
X179786147Y-138276574D01*
X179894320Y-138537727D01*
X180051363Y-138772759D01*
X180251241Y-138972637D01*
X180483759Y-139128000D01*
X180251241Y-139283363D01*
X180051363Y-139483241D01*
X179894320Y-139718273D01*
X179786147Y-139979426D01*
X179731000Y-140256665D01*
X179731000Y-140539335D01*
X179786147Y-140816574D01*
X179894320Y-141077727D01*
X180051363Y-141312759D01*
X180251241Y-141512637D01*
X180483759Y-141668000D01*
X180251241Y-141823363D01*
X180051363Y-142023241D01*
X179894320Y-142258273D01*
X179786147Y-142519426D01*
X179731000Y-142796665D01*
X179731000Y-143079335D01*
X179786147Y-143356574D01*
X179894320Y-143617727D01*
X180051363Y-143852759D01*
X180251241Y-144052637D01*
X180483759Y-144208000D01*
X180251241Y-144363363D01*
X180051363Y-144563241D01*
X179894320Y-144798273D01*
X179786147Y-145059426D01*
X179731000Y-145336665D01*
X179731000Y-145619335D01*
X179786147Y-145896574D01*
X179894320Y-146157727D01*
X180051363Y-146392759D01*
X180251241Y-146592637D01*
X180486273Y-146749680D01*
X180747426Y-146857853D01*
X181024665Y-146913000D01*
X181307335Y-146913000D01*
X181584574Y-146857853D01*
X181845727Y-146749680D01*
X182080759Y-146592637D01*
X182280637Y-146392759D01*
X182437680Y-146157727D01*
X182545853Y-145896574D01*
X182601000Y-145619335D01*
X182601000Y-145336665D01*
X182593508Y-145299000D01*
X186739928Y-145299000D01*
X186752188Y-145423482D01*
X186788498Y-145543180D01*
X186847463Y-145653494D01*
X186926815Y-145750185D01*
X187023506Y-145829537D01*
X187133820Y-145888502D01*
X187253518Y-145924812D01*
X187378000Y-145937072D01*
X187992250Y-145934000D01*
X188151000Y-145775250D01*
X188151000Y-144526000D01*
X186901750Y-144526000D01*
X186743000Y-144684750D01*
X186739928Y-145299000D01*
X182593508Y-145299000D01*
X182545853Y-145059426D01*
X182437680Y-144798273D01*
X182280637Y-144563241D01*
X182080759Y-144363363D01*
X181848241Y-144208000D01*
X182080759Y-144052637D01*
X182280637Y-143852759D01*
X182437680Y-143617727D01*
X182486858Y-143499000D01*
X186739928Y-143499000D01*
X186743000Y-144113250D01*
X186901750Y-144272000D01*
X188151000Y-144272000D01*
X188151000Y-143022750D01*
X187992250Y-142864000D01*
X187378000Y-142860928D01*
X187253518Y-142873188D01*
X187133820Y-142909498D01*
X187023506Y-142968463D01*
X186926815Y-143047815D01*
X186847463Y-143144506D01*
X186788498Y-143254820D01*
X186752188Y-143374518D01*
X186739928Y-143499000D01*
X182486858Y-143499000D01*
X182545853Y-143356574D01*
X182601000Y-143079335D01*
X182601000Y-142796665D01*
X182545853Y-142519426D01*
X182437680Y-142258273D01*
X182280637Y-142023241D01*
X182080759Y-141823363D01*
X181848241Y-141668000D01*
X182080759Y-141512637D01*
X182280637Y-141312759D01*
X182437680Y-141077727D01*
X182545853Y-140816574D01*
X182601000Y-140539335D01*
X182601000Y-140256665D01*
X182545853Y-139979426D01*
X182446971Y-139740702D01*
X185432903Y-139740702D01*
X185504486Y-139984671D01*
X185759996Y-140105571D01*
X186034184Y-140174300D01*
X186316512Y-140188217D01*
X186596130Y-140146787D01*
X186862292Y-140051603D01*
X186987514Y-139984671D01*
X187059097Y-139740702D01*
X186246000Y-138927605D01*
X185432903Y-139740702D01*
X182446971Y-139740702D01*
X182437680Y-139718273D01*
X182280637Y-139483241D01*
X182080759Y-139283363D01*
X181848241Y-139128000D01*
X182080759Y-138972637D01*
X182234884Y-138818512D01*
X184805783Y-138818512D01*
X184847213Y-139098130D01*
X184942397Y-139364292D01*
X185009329Y-139489514D01*
X185253298Y-139561097D01*
X186066395Y-138748000D01*
X186425605Y-138748000D01*
X187238702Y-139561097D01*
X187482671Y-139489514D01*
X187603571Y-139234004D01*
X187672300Y-138959816D01*
X187686217Y-138677488D01*
X187644787Y-138397870D01*
X187549603Y-138131708D01*
X187482671Y-138006486D01*
X187238702Y-137934903D01*
X186425605Y-138748000D01*
X186066395Y-138748000D01*
X185253298Y-137934903D01*
X185009329Y-138006486D01*
X184888429Y-138261996D01*
X184819700Y-138536184D01*
X184805783Y-138818512D01*
X182234884Y-138818512D01*
X182280637Y-138772759D01*
X182437680Y-138537727D01*
X182545853Y-138276574D01*
X182601000Y-137999335D01*
X182601000Y-137755298D01*
X185432903Y-137755298D01*
X186246000Y-138568395D01*
X187059097Y-137755298D01*
X186987514Y-137511329D01*
X186732004Y-137390429D01*
X186457816Y-137321700D01*
X186175488Y-137307783D01*
X185895870Y-137349213D01*
X185629708Y-137444397D01*
X185504486Y-137511329D01*
X185432903Y-137755298D01*
X182601000Y-137755298D01*
X182601000Y-137716665D01*
X182545853Y-137439426D01*
X182437680Y-137178273D01*
X182280637Y-136943241D01*
X182080759Y-136743363D01*
X181848241Y-136588000D01*
X182080759Y-136432637D01*
X182280637Y-136232759D01*
X182333396Y-136153799D01*
X182366300Y-136157040D01*
X182407318Y-136153000D01*
X182407319Y-136153000D01*
X182529989Y-136140918D01*
X182687387Y-136093172D01*
X182832446Y-136015636D01*
X182959591Y-135911291D01*
X182985746Y-135879421D01*
X183220167Y-135645000D01*
X183744070Y-135645000D01*
X183797363Y-135724759D01*
X183997241Y-135924637D01*
X184232273Y-136081680D01*
X184493426Y-136189853D01*
X184770665Y-136245000D01*
X185053335Y-136245000D01*
X185330574Y-136189853D01*
X185591727Y-136081680D01*
X185826759Y-135924637D01*
X186026637Y-135724759D01*
X186183680Y-135489727D01*
X186291853Y-135228574D01*
X186347000Y-134951335D01*
X186347000Y-134668665D01*
X186291853Y-134391426D01*
X186183680Y-134130273D01*
X186026637Y-133895241D01*
X185826759Y-133695363D01*
X185747000Y-133642070D01*
X185747000Y-130218967D01*
X186742965Y-129223002D01*
X186773748Y-129223002D01*
X186615000Y-129381750D01*
X186611928Y-129996000D01*
X186624188Y-130120482D01*
X186660498Y-130240180D01*
X186719463Y-130350494D01*
X186798815Y-130447185D01*
X186895506Y-130526537D01*
X187005820Y-130585502D01*
X187125518Y-130621812D01*
X187250000Y-130634072D01*
X187864250Y-130631000D01*
X188023000Y-130472250D01*
X188023000Y-129223000D01*
X188003000Y-129223000D01*
X188003000Y-128969000D01*
X188023000Y-128969000D01*
X188023000Y-128949000D01*
X188277000Y-128949000D01*
X188277000Y-128969000D01*
X188297000Y-128969000D01*
X188297000Y-129223000D01*
X188277000Y-129223000D01*
X188277000Y-130472250D01*
X188435750Y-130631000D01*
X189050000Y-130634072D01*
X189174482Y-130621812D01*
X189294180Y-130585502D01*
X189404494Y-130526537D01*
X189501185Y-130447185D01*
X189580537Y-130350494D01*
X189639502Y-130240180D01*
X189645056Y-130221873D01*
X189711495Y-130288312D01*
X189962905Y-130456299D01*
X190242257Y-130572011D01*
X190538816Y-130631000D01*
X190841184Y-130631000D01*
X191137743Y-130572011D01*
X191417095Y-130456299D01*
X191668505Y-130288312D01*
X191882312Y-130074505D01*
X192050299Y-129823095D01*
X192166011Y-129543743D01*
X192225000Y-129247184D01*
X192225000Y-128944816D01*
X192166011Y-128648257D01*
X192050299Y-128368905D01*
X191882312Y-128117495D01*
X191668505Y-127903688D01*
X191417095Y-127735701D01*
X191137743Y-127619989D01*
X190841184Y-127561000D01*
X190538816Y-127561000D01*
X190242257Y-127619989D01*
X189962905Y-127735701D01*
X189711495Y-127903688D01*
X189645056Y-127970127D01*
X189639502Y-127951820D01*
X189580537Y-127841506D01*
X189501185Y-127744815D01*
X189404494Y-127665463D01*
X189294180Y-127606498D01*
X189174482Y-127570188D01*
X189050000Y-127557928D01*
X188435750Y-127561000D01*
X188277002Y-127719748D01*
X188277002Y-127688965D01*
X195163929Y-120802039D01*
X195291363Y-120992759D01*
X195491241Y-121192637D01*
X195723759Y-121348000D01*
X195491241Y-121503363D01*
X195291363Y-121703241D01*
X195134320Y-121938273D01*
X195026147Y-122199426D01*
X194971000Y-122476665D01*
X194971000Y-122759335D01*
X195026147Y-123036574D01*
X195134320Y-123297727D01*
X195291363Y-123532759D01*
X195491241Y-123732637D01*
X195723759Y-123888000D01*
X195491241Y-124043363D01*
X195291363Y-124243241D01*
X195134320Y-124478273D01*
X195026147Y-124739426D01*
X194971000Y-125016665D01*
X194971000Y-125299335D01*
X195026147Y-125576574D01*
X195134320Y-125837727D01*
X195291363Y-126072759D01*
X195491241Y-126272637D01*
X195723759Y-126428000D01*
X195491241Y-126583363D01*
X195291363Y-126783241D01*
X195134320Y-127018273D01*
X195026147Y-127279426D01*
X194971000Y-127556665D01*
X194971000Y-127839335D01*
X195026147Y-128116574D01*
X195134320Y-128377727D01*
X195229763Y-128520568D01*
X190684574Y-133065759D01*
X190652710Y-133091909D01*
X190626562Y-133123771D01*
X190548364Y-133219055D01*
X190470828Y-133364114D01*
X190423082Y-133521512D01*
X190406960Y-133685200D01*
X190411001Y-133726228D01*
X190411000Y-137580070D01*
X190331241Y-137633363D01*
X190131363Y-137833241D01*
X189974320Y-138068273D01*
X189866147Y-138329426D01*
X189811000Y-138606665D01*
X189811000Y-138889335D01*
X189866147Y-139166574D01*
X189974320Y-139427727D01*
X190131363Y-139662759D01*
X190331241Y-139862637D01*
X190566273Y-140019680D01*
X190827426Y-140127853D01*
X191104665Y-140183000D01*
X191387335Y-140183000D01*
X191664574Y-140127853D01*
X191697000Y-140114422D01*
X191697000Y-142339132D01*
X191138461Y-142897671D01*
X190969184Y-142864000D01*
X190666816Y-142864000D01*
X190370257Y-142922989D01*
X190090905Y-143038701D01*
X189839495Y-143206688D01*
X189773056Y-143273127D01*
X189767502Y-143254820D01*
X189708537Y-143144506D01*
X189629185Y-143047815D01*
X189532494Y-142968463D01*
X189422180Y-142909498D01*
X189302482Y-142873188D01*
X189178000Y-142860928D01*
X188563750Y-142864000D01*
X188405000Y-143022750D01*
X188405000Y-144272000D01*
X188425000Y-144272000D01*
X188425000Y-144526000D01*
X188405000Y-144526000D01*
X188405000Y-145775250D01*
X188563750Y-145934000D01*
X189178000Y-145937072D01*
X189302482Y-145924812D01*
X189422180Y-145888502D01*
X189532494Y-145829537D01*
X189629185Y-145750185D01*
X189708537Y-145653494D01*
X189767502Y-145543180D01*
X189773056Y-145524873D01*
X189839495Y-145591312D01*
X190090905Y-145759299D01*
X190370257Y-145875011D01*
X190666816Y-145934000D01*
X190969184Y-145934000D01*
X191265743Y-145875011D01*
X191545095Y-145759299D01*
X191796505Y-145591312D01*
X192010312Y-145377505D01*
X192178299Y-145126095D01*
X192294011Y-144846743D01*
X192353000Y-144550184D01*
X192353000Y-144247816D01*
X192319329Y-144078539D01*
X193093428Y-143304440D01*
X193125291Y-143278291D01*
X193229636Y-143151146D01*
X193307172Y-143006087D01*
X193354918Y-142848689D01*
X193367000Y-142726019D01*
X193367000Y-142726018D01*
X193371040Y-142685001D01*
X193367000Y-142643982D01*
X193367000Y-135977930D01*
X193446759Y-135924637D01*
X193646637Y-135724759D01*
X193803680Y-135489727D01*
X193911853Y-135228574D01*
X193967000Y-134951335D01*
X193967000Y-134668665D01*
X193911853Y-134391426D01*
X193803680Y-134130273D01*
X193646637Y-133895241D01*
X193446759Y-133695363D01*
X193211727Y-133538320D01*
X192950574Y-133430147D01*
X192726493Y-133385574D01*
X195158361Y-130953707D01*
X195291363Y-131152759D01*
X195491241Y-131352637D01*
X195723759Y-131508000D01*
X195491241Y-131663363D01*
X195291363Y-131863241D01*
X195134320Y-132098273D01*
X195026147Y-132359426D01*
X194971000Y-132636665D01*
X194971000Y-132919335D01*
X195026147Y-133196574D01*
X195134320Y-133457727D01*
X195291363Y-133692759D01*
X195491241Y-133892637D01*
X195723759Y-134048000D01*
X195491241Y-134203363D01*
X195291363Y-134403241D01*
X195134320Y-134638273D01*
X195026147Y-134899426D01*
X194971000Y-135176665D01*
X194971000Y-135459335D01*
X195026147Y-135736574D01*
X195134320Y-135997727D01*
X195291363Y-136232759D01*
X195491241Y-136432637D01*
X195723759Y-136588000D01*
X195491241Y-136743363D01*
X195291363Y-136943241D01*
X195134320Y-137178273D01*
X195026147Y-137439426D01*
X194971000Y-137716665D01*
X194971000Y-137999335D01*
X195026147Y-138276574D01*
X195134320Y-138537727D01*
X195291363Y-138772759D01*
X195491241Y-138972637D01*
X195723759Y-139128000D01*
X195491241Y-139283363D01*
X195291363Y-139483241D01*
X195134320Y-139718273D01*
X195026147Y-139979426D01*
X194971000Y-140256665D01*
X194971000Y-140539335D01*
X195026147Y-140816574D01*
X195134320Y-141077727D01*
X195291363Y-141312759D01*
X195491241Y-141512637D01*
X195723759Y-141668000D01*
X195491241Y-141823363D01*
X195291363Y-142023241D01*
X195134320Y-142258273D01*
X195026147Y-142519426D01*
X194971000Y-142796665D01*
X194971000Y-143079335D01*
X195026147Y-143356574D01*
X195134320Y-143617727D01*
X195291363Y-143852759D01*
X195491241Y-144052637D01*
X195723759Y-144208000D01*
X195491241Y-144363363D01*
X195291363Y-144563241D01*
X195134320Y-144798273D01*
X195026147Y-145059426D01*
X194971000Y-145336665D01*
X194971000Y-145619335D01*
X195026147Y-145896574D01*
X195134320Y-146157727D01*
X195291363Y-146392759D01*
X195491241Y-146592637D01*
X195726273Y-146749680D01*
X195987426Y-146857853D01*
X196264665Y-146913000D01*
X196547335Y-146913000D01*
X196824574Y-146857853D01*
X197085727Y-146749680D01*
X197320759Y-146592637D01*
X197520637Y-146392759D01*
X197677680Y-146157727D01*
X197785853Y-145896574D01*
X197841000Y-145619335D01*
X197841000Y-145336665D01*
X197785853Y-145059426D01*
X197677680Y-144798273D01*
X197520637Y-144563241D01*
X197320759Y-144363363D01*
X197088241Y-144208000D01*
X197320759Y-144052637D01*
X197520637Y-143852759D01*
X197677680Y-143617727D01*
X197785853Y-143356574D01*
X197841000Y-143079335D01*
X197841000Y-142796665D01*
X197785853Y-142519426D01*
X197677680Y-142258273D01*
X197520637Y-142023241D01*
X197320759Y-141823363D01*
X197088241Y-141668000D01*
X197320759Y-141512637D01*
X197520637Y-141312759D01*
X197677680Y-141077727D01*
X197785853Y-140816574D01*
X197841000Y-140539335D01*
X197841000Y-140256665D01*
X197785853Y-139979426D01*
X197677680Y-139718273D01*
X197520637Y-139483241D01*
X197320759Y-139283363D01*
X197088241Y-139128000D01*
X197320759Y-138972637D01*
X197520637Y-138772759D01*
X197677680Y-138537727D01*
X197785853Y-138276574D01*
X197841000Y-137999335D01*
X197841000Y-137716665D01*
X197785853Y-137439426D01*
X197677680Y-137178273D01*
X197520637Y-136943241D01*
X197320759Y-136743363D01*
X197088241Y-136588000D01*
X197320759Y-136432637D01*
X197520637Y-136232759D01*
X197677680Y-135997727D01*
X197785853Y-135736574D01*
X197841000Y-135459335D01*
X197841000Y-135176665D01*
X197785853Y-134899426D01*
X197677680Y-134638273D01*
X197520637Y-134403241D01*
X197320759Y-134203363D01*
X197088241Y-134048000D01*
X197320759Y-133892637D01*
X197520637Y-133692759D01*
X197677680Y-133457727D01*
X197785853Y-133196574D01*
X197841000Y-132919335D01*
X197841000Y-132636665D01*
X197785853Y-132359426D01*
X197677680Y-132098273D01*
X197520637Y-131863241D01*
X197320759Y-131663363D01*
X197088241Y-131508000D01*
X197320759Y-131352637D01*
X197520637Y-131152759D01*
X197677680Y-130917727D01*
X197785853Y-130656574D01*
X197841000Y-130379335D01*
X197841000Y-130096665D01*
X197785853Y-129819426D01*
X197677680Y-129558273D01*
X197520637Y-129323241D01*
X197320759Y-129123363D01*
X197228916Y-129061996D01*
X197228918Y-129061989D01*
X197241000Y-128939319D01*
X197245040Y-128898300D01*
X197241799Y-128865396D01*
X197320759Y-128812637D01*
X197520637Y-128612759D01*
X197677680Y-128377727D01*
X197785853Y-128116574D01*
X197841000Y-127839335D01*
X197841000Y-127556665D01*
X197785853Y-127279426D01*
X197677680Y-127018273D01*
X197520637Y-126783241D01*
X197320759Y-126583363D01*
X197088241Y-126428000D01*
X197320759Y-126272637D01*
X197520637Y-126072759D01*
X197677680Y-125837727D01*
X197785853Y-125576574D01*
X197841000Y-125299335D01*
X197841000Y-125016665D01*
X197785853Y-124739426D01*
X197677680Y-124478273D01*
X197520637Y-124243241D01*
X197320759Y-124043363D01*
X197088241Y-123888000D01*
X197320759Y-123732637D01*
X197520637Y-123532759D01*
X197677680Y-123297727D01*
X197785853Y-123036574D01*
X197841000Y-122759335D01*
X197841000Y-122476665D01*
X197785853Y-122199426D01*
X197677680Y-121938273D01*
X197520637Y-121703241D01*
X197320759Y-121503363D01*
X197088241Y-121348000D01*
X197320759Y-121192637D01*
X197520637Y-120992759D01*
X197677680Y-120757727D01*
X197785853Y-120496574D01*
X197841000Y-120219335D01*
X197841000Y-119936665D01*
X197785853Y-119659426D01*
X197677680Y-119398273D01*
X197576669Y-119247098D01*
X199238001Y-117585767D01*
X199238001Y-152057500D01*
X174193709Y-152057500D01*
X174200185Y-152052185D01*
X174279537Y-151955494D01*
X174338502Y-151845180D01*
X174374812Y-151725482D01*
X174387072Y-151601000D01*
X174384000Y-150971750D01*
X174225250Y-150813000D01*
X172911000Y-150813000D01*
X172911000Y-150833000D01*
X172657000Y-150833000D01*
X172657000Y-150813000D01*
X171342750Y-150813000D01*
X171184000Y-150971750D01*
X171180928Y-151601000D01*
X171193188Y-151725482D01*
X171229498Y-151845180D01*
X171288463Y-151955494D01*
X171367815Y-152052185D01*
X171374291Y-152057500D01*
X162458000Y-152057500D01*
X162458000Y-82868531D01*
X165349389Y-82868531D01*
X165391401Y-83158019D01*
X165489081Y-83433747D01*
X165562528Y-83571157D01*
X165811603Y-83648792D01*
X166660395Y-82800000D01*
X167019605Y-82800000D01*
X167868397Y-83648792D01*
X168110000Y-83573486D01*
X168351603Y-83648792D01*
X169200395Y-82800000D01*
X168351603Y-81951208D01*
X168110000Y-82026514D01*
X167868397Y-81951208D01*
X167019605Y-82800000D01*
X166660395Y-82800000D01*
X165811603Y-81951208D01*
X165562528Y-82028843D01*
X165436629Y-82292883D01*
X165364661Y-82576411D01*
X165349389Y-82868531D01*
X162458000Y-82868531D01*
X162458000Y-81288397D01*
X165991208Y-81288397D01*
X166066514Y-81530000D01*
X165991208Y-81771603D01*
X166840000Y-82620395D01*
X167688792Y-81771603D01*
X167613486Y-81530000D01*
X167688792Y-81288397D01*
X166840000Y-80439605D01*
X165991208Y-81288397D01*
X162458000Y-81288397D01*
X162458000Y-80328531D01*
X165349389Y-80328531D01*
X165391401Y-80618019D01*
X165489081Y-80893747D01*
X165562528Y-81031157D01*
X165811603Y-81108792D01*
X166660395Y-80260000D01*
X167019605Y-80260000D01*
X167868397Y-81108792D01*
X168110000Y-81033486D01*
X168351603Y-81108792D01*
X169200395Y-80260000D01*
X168351603Y-79411208D01*
X168110000Y-79486514D01*
X167868397Y-79411208D01*
X167019605Y-80260000D01*
X166660395Y-80260000D01*
X165811603Y-79411208D01*
X165562528Y-79488843D01*
X165436629Y-79752883D01*
X165364661Y-80036411D01*
X165349389Y-80328531D01*
X162458000Y-80328531D01*
X162458000Y-78748397D01*
X165991208Y-78748397D01*
X166066514Y-78990000D01*
X165991208Y-79231603D01*
X166840000Y-80080395D01*
X167688792Y-79231603D01*
X167613486Y-78990000D01*
X167688792Y-78748397D01*
X166840000Y-77899605D01*
X165991208Y-78748397D01*
X162458000Y-78748397D01*
X162458000Y-77788531D01*
X165349389Y-77788531D01*
X165391401Y-78078019D01*
X165489081Y-78353747D01*
X165562528Y-78491157D01*
X165811603Y-78568792D01*
X166660395Y-77720000D01*
X167019605Y-77720000D01*
X167868397Y-78568792D01*
X168110000Y-78493486D01*
X168351603Y-78568792D01*
X169200395Y-77720000D01*
X168351603Y-76871208D01*
X168110000Y-76946514D01*
X167868397Y-76871208D01*
X167019605Y-77720000D01*
X166660395Y-77720000D01*
X165811603Y-76871208D01*
X165562528Y-76948843D01*
X165436629Y-77212883D01*
X165364661Y-77496411D01*
X165349389Y-77788531D01*
X162458000Y-77788531D01*
X162458000Y-66911675D01*
X162548320Y-67129727D01*
G36*
X179989763Y-121795431D02*
G01*
X179894320Y-121938273D01*
X179786147Y-122199426D01*
X179731000Y-122476665D01*
X179731000Y-122759335D01*
X179786147Y-123036574D01*
X179894320Y-123297727D01*
X180051363Y-123532759D01*
X180251241Y-123732637D01*
X180483759Y-123888000D01*
X180251241Y-124043363D01*
X180051363Y-124243241D01*
X179894320Y-124478273D01*
X179786147Y-124739426D01*
X179731000Y-125016665D01*
X179731000Y-125299335D01*
X179786147Y-125576574D01*
X179894320Y-125837727D01*
X180051363Y-126072759D01*
X180251241Y-126272637D01*
X180483759Y-126428000D01*
X180251241Y-126583363D01*
X180051363Y-126783241D01*
X179894320Y-127018273D01*
X179786147Y-127279426D01*
X179731000Y-127556665D01*
X179731000Y-127839335D01*
X179786147Y-128116574D01*
X179894320Y-128377727D01*
X180051363Y-128612759D01*
X180251241Y-128812637D01*
X180483759Y-128968000D01*
X180251241Y-129123363D01*
X180051363Y-129323241D01*
X179894320Y-129558273D01*
X179786147Y-129819426D01*
X179731000Y-130096665D01*
X179731000Y-130379335D01*
X179786147Y-130656574D01*
X179894320Y-130917727D01*
X180051363Y-131152759D01*
X180251241Y-131352637D01*
X180343084Y-131414004D01*
X180343082Y-131414011D01*
X180326960Y-131577700D01*
X180330201Y-131610604D01*
X180251241Y-131663363D01*
X180051363Y-131863241D01*
X179894320Y-132098273D01*
X179786147Y-132359426D01*
X179731000Y-132636665D01*
X179731000Y-132919335D01*
X179786147Y-133196574D01*
X179805874Y-133244199D01*
X179737654Y-133280664D01*
X179610509Y-133385009D01*
X179584359Y-133416873D01*
X174357876Y-138643357D01*
X174290521Y-138480748D01*
X174104477Y-138202313D01*
X173867687Y-137965523D01*
X173589252Y-137779479D01*
X173279872Y-137651330D01*
X172951435Y-137586000D01*
X172616565Y-137586000D01*
X172288128Y-137651330D01*
X171978748Y-137779479D01*
X171700313Y-137965523D01*
X171463523Y-138202313D01*
X171277479Y-138480748D01*
X171149330Y-138790128D01*
X171084000Y-139118565D01*
X171084000Y-139453435D01*
X171142350Y-139746781D01*
X168279433Y-142609700D01*
X166108575Y-142609700D01*
X166154000Y-142381335D01*
X166154000Y-142098665D01*
X166135286Y-142004582D01*
X167763032Y-140376837D01*
X167794891Y-140350691D01*
X167899236Y-140223546D01*
X167976772Y-140078487D01*
X168024518Y-139921089D01*
X168036600Y-139798419D01*
X168036600Y-139798418D01*
X168040640Y-139757400D01*
X168036600Y-139716382D01*
X168036600Y-136678000D01*
X171180928Y-136678000D01*
X171193188Y-136802482D01*
X171229498Y-136922180D01*
X171288463Y-137032494D01*
X171367815Y-137129185D01*
X171464506Y-137208537D01*
X171574820Y-137267502D01*
X171694518Y-137303812D01*
X171819000Y-137316072D01*
X172498250Y-137313000D01*
X172657000Y-137154250D01*
X172657000Y-135890000D01*
X172911000Y-135890000D01*
X172911000Y-137154250D01*
X173069750Y-137313000D01*
X173749000Y-137316072D01*
X173873482Y-137303812D01*
X173993180Y-137267502D01*
X174103494Y-137208537D01*
X174200185Y-137129185D01*
X174279537Y-137032494D01*
X174338502Y-136922180D01*
X174374812Y-136802482D01*
X174387072Y-136678000D01*
X174384000Y-136048750D01*
X174225250Y-135890000D01*
X172911000Y-135890000D01*
X172657000Y-135890000D01*
X171342750Y-135890000D01*
X171184000Y-136048750D01*
X171180928Y-136678000D01*
X168036600Y-136678000D01*
X168036600Y-132495565D01*
X171084000Y-132495565D01*
X171084000Y-132830435D01*
X171149330Y-133158872D01*
X171277479Y-133468252D01*
X171463523Y-133746687D01*
X171700313Y-133983477D01*
X171978748Y-134169521D01*
X172079140Y-134211105D01*
X171819000Y-134209928D01*
X171694518Y-134222188D01*
X171574820Y-134258498D01*
X171464506Y-134317463D01*
X171367815Y-134396815D01*
X171288463Y-134493506D01*
X171229498Y-134603820D01*
X171193188Y-134723518D01*
X171180928Y-134848000D01*
X171184000Y-135477250D01*
X171342750Y-135636000D01*
X172657000Y-135636000D01*
X172657000Y-135616000D01*
X172911000Y-135616000D01*
X172911000Y-135636000D01*
X174225250Y-135636000D01*
X174384000Y-135477250D01*
X174387072Y-134848000D01*
X174374812Y-134723518D01*
X174338502Y-134603820D01*
X174279537Y-134493506D01*
X174200185Y-134396815D01*
X174103494Y-134317463D01*
X173993180Y-134258498D01*
X173873482Y-134222188D01*
X173749000Y-134209928D01*
X173488860Y-134211105D01*
X173589252Y-134169521D01*
X173867687Y-133983477D01*
X174104477Y-133746687D01*
X174290521Y-133468252D01*
X174418670Y-133158872D01*
X174484000Y-132830435D01*
X174484000Y-132495565D01*
X174418670Y-132167128D01*
X174290521Y-131857748D01*
X174104477Y-131579313D01*
X173867687Y-131342523D01*
X173589252Y-131156479D01*
X173279872Y-131028330D01*
X172951435Y-130963000D01*
X172616565Y-130963000D01*
X172288128Y-131028330D01*
X171978748Y-131156479D01*
X171700313Y-131342523D01*
X171463523Y-131579313D01*
X171277479Y-131857748D01*
X171149330Y-132167128D01*
X171084000Y-132495565D01*
X168036600Y-132495565D01*
X168036600Y-130291267D01*
X172323219Y-126004650D01*
X172616565Y-126063000D01*
X172951435Y-126063000D01*
X173279872Y-125997670D01*
X173589252Y-125869521D01*
X173867687Y-125683477D01*
X174104477Y-125446687D01*
X174290521Y-125168252D01*
X174418670Y-124858872D01*
X174484000Y-124530435D01*
X174484000Y-124195565D01*
X174418670Y-123867128D01*
X174290521Y-123557748D01*
X174104477Y-123279313D01*
X174043850Y-123218686D01*
X174057491Y-123207491D01*
X174083646Y-123175621D01*
X177726801Y-119532468D01*
X179989763Y-121795431D01*
G37*
X179989763Y-121795431D02*
X179894320Y-121938273D01*
X179786147Y-122199426D01*
X179731000Y-122476665D01*
X179731000Y-122759335D01*
X179786147Y-123036574D01*
X179894320Y-123297727D01*
X180051363Y-123532759D01*
X180251241Y-123732637D01*
X180483759Y-123888000D01*
X180251241Y-124043363D01*
X180051363Y-124243241D01*
X179894320Y-124478273D01*
X179786147Y-124739426D01*
X179731000Y-125016665D01*
X179731000Y-125299335D01*
X179786147Y-125576574D01*
X179894320Y-125837727D01*
X180051363Y-126072759D01*
X180251241Y-126272637D01*
X180483759Y-126428000D01*
X180251241Y-126583363D01*
X180051363Y-126783241D01*
X179894320Y-127018273D01*
X179786147Y-127279426D01*
X179731000Y-127556665D01*
X179731000Y-127839335D01*
X179786147Y-128116574D01*
X179894320Y-128377727D01*
X180051363Y-128612759D01*
X180251241Y-128812637D01*
X180483759Y-128968000D01*
X180251241Y-129123363D01*
X180051363Y-129323241D01*
X179894320Y-129558273D01*
X179786147Y-129819426D01*
X179731000Y-130096665D01*
X179731000Y-130379335D01*
X179786147Y-130656574D01*
X179894320Y-130917727D01*
X180051363Y-131152759D01*
X180251241Y-131352637D01*
X180343084Y-131414004D01*
X180343082Y-131414011D01*
X180326960Y-131577700D01*
X180330201Y-131610604D01*
X180251241Y-131663363D01*
X180051363Y-131863241D01*
X179894320Y-132098273D01*
X179786147Y-132359426D01*
X179731000Y-132636665D01*
X179731000Y-132919335D01*
X179786147Y-133196574D01*
X179805874Y-133244199D01*
X179737654Y-133280664D01*
X179610509Y-133385009D01*
X179584359Y-133416873D01*
X174357876Y-138643357D01*
X174290521Y-138480748D01*
X174104477Y-138202313D01*
X173867687Y-137965523D01*
X173589252Y-137779479D01*
X173279872Y-137651330D01*
X172951435Y-137586000D01*
X172616565Y-137586000D01*
X172288128Y-137651330D01*
X171978748Y-137779479D01*
X171700313Y-137965523D01*
X171463523Y-138202313D01*
X171277479Y-138480748D01*
X171149330Y-138790128D01*
X171084000Y-139118565D01*
X171084000Y-139453435D01*
X171142350Y-139746781D01*
X168279433Y-142609700D01*
X166108575Y-142609700D01*
X166154000Y-142381335D01*
X166154000Y-142098665D01*
X166135286Y-142004582D01*
X167763032Y-140376837D01*
X167794891Y-140350691D01*
X167899236Y-140223546D01*
X167976772Y-140078487D01*
X168024518Y-139921089D01*
X168036600Y-139798419D01*
X168036600Y-139798418D01*
X168040640Y-139757400D01*
X168036600Y-139716382D01*
X168036600Y-136678000D01*
X171180928Y-136678000D01*
X171193188Y-136802482D01*
X171229498Y-136922180D01*
X171288463Y-137032494D01*
X171367815Y-137129185D01*
X171464506Y-137208537D01*
X171574820Y-137267502D01*
X171694518Y-137303812D01*
X171819000Y-137316072D01*
X172498250Y-137313000D01*
X172657000Y-137154250D01*
X172657000Y-135890000D01*
X172911000Y-135890000D01*
X172911000Y-137154250D01*
X173069750Y-137313000D01*
X173749000Y-137316072D01*
X173873482Y-137303812D01*
X173993180Y-137267502D01*
X174103494Y-137208537D01*
X174200185Y-137129185D01*
X174279537Y-137032494D01*
X174338502Y-136922180D01*
X174374812Y-136802482D01*
X174387072Y-136678000D01*
X174384000Y-136048750D01*
X174225250Y-135890000D01*
X172911000Y-135890000D01*
X172657000Y-135890000D01*
X171342750Y-135890000D01*
X171184000Y-136048750D01*
X171180928Y-136678000D01*
X168036600Y-136678000D01*
X168036600Y-132495565D01*
X171084000Y-132495565D01*
X171084000Y-132830435D01*
X171149330Y-133158872D01*
X171277479Y-133468252D01*
X171463523Y-133746687D01*
X171700313Y-133983477D01*
X171978748Y-134169521D01*
X172079140Y-134211105D01*
X171819000Y-134209928D01*
X171694518Y-134222188D01*
X171574820Y-134258498D01*
X171464506Y-134317463D01*
X171367815Y-134396815D01*
X171288463Y-134493506D01*
X171229498Y-134603820D01*
X171193188Y-134723518D01*
X171180928Y-134848000D01*
X171184000Y-135477250D01*
X171342750Y-135636000D01*
X172657000Y-135636000D01*
X172657000Y-135616000D01*
X172911000Y-135616000D01*
X172911000Y-135636000D01*
X174225250Y-135636000D01*
X174384000Y-135477250D01*
X174387072Y-134848000D01*
X174374812Y-134723518D01*
X174338502Y-134603820D01*
X174279537Y-134493506D01*
X174200185Y-134396815D01*
X174103494Y-134317463D01*
X173993180Y-134258498D01*
X173873482Y-134222188D01*
X173749000Y-134209928D01*
X173488860Y-134211105D01*
X173589252Y-134169521D01*
X173867687Y-133983477D01*
X174104477Y-133746687D01*
X174290521Y-133468252D01*
X174418670Y-133158872D01*
X174484000Y-132830435D01*
X174484000Y-132495565D01*
X174418670Y-132167128D01*
X174290521Y-131857748D01*
X174104477Y-131579313D01*
X173867687Y-131342523D01*
X173589252Y-131156479D01*
X173279872Y-131028330D01*
X172951435Y-130963000D01*
X172616565Y-130963000D01*
X172288128Y-131028330D01*
X171978748Y-131156479D01*
X171700313Y-131342523D01*
X171463523Y-131579313D01*
X171277479Y-131857748D01*
X171149330Y-132167128D01*
X171084000Y-132495565D01*
X168036600Y-132495565D01*
X168036600Y-130291267D01*
X172323219Y-126004650D01*
X172616565Y-126063000D01*
X172951435Y-126063000D01*
X173279872Y-125997670D01*
X173589252Y-125869521D01*
X173867687Y-125683477D01*
X174104477Y-125446687D01*
X174290521Y-125168252D01*
X174418670Y-124858872D01*
X174484000Y-124530435D01*
X174484000Y-124195565D01*
X174418670Y-123867128D01*
X174290521Y-123557748D01*
X174104477Y-123279313D01*
X174043850Y-123218686D01*
X174057491Y-123207491D01*
X174083646Y-123175621D01*
X177726801Y-119532468D01*
X179989763Y-121795431D01*
G36*
X171277479Y-123557748D02*
G01*
X171149330Y-123867128D01*
X171084000Y-124195565D01*
X171084000Y-124530435D01*
X171142350Y-124823781D01*
X166640179Y-129325954D01*
X166608309Y-129352109D01*
X166519988Y-129459730D01*
X166503964Y-129479255D01*
X166426428Y-129624314D01*
X166378682Y-129781712D01*
X166362560Y-129945400D01*
X166366600Y-129986419D01*
X166366601Y-139411530D01*
X164954418Y-140823714D01*
X164860335Y-140805000D01*
X164577665Y-140805000D01*
X164300426Y-140860147D01*
X164265400Y-140874655D01*
X164265400Y-139936298D01*
X164306961Y-139948904D01*
X164529000Y-139826915D01*
X164529000Y-138684000D01*
X164783000Y-138684000D01*
X164783000Y-139826915D01*
X165005039Y-139948904D01*
X165139087Y-139908246D01*
X165393420Y-139788037D01*
X165619414Y-139620519D01*
X165808385Y-139412131D01*
X165953070Y-139170881D01*
X166047909Y-138906040D01*
X165926624Y-138684000D01*
X164783000Y-138684000D01*
X164529000Y-138684000D01*
X164509000Y-138684000D01*
X164509000Y-138430000D01*
X164529000Y-138430000D01*
X164529000Y-137287085D01*
X164783000Y-137287085D01*
X164783000Y-138430000D01*
X165926624Y-138430000D01*
X166047909Y-138207960D01*
X165953070Y-137943119D01*
X165808385Y-137701869D01*
X165619414Y-137493481D01*
X165393420Y-137325963D01*
X165139087Y-137205754D01*
X165005039Y-137165096D01*
X164783000Y-137287085D01*
X164529000Y-137287085D01*
X164306961Y-137165096D01*
X164265400Y-137177702D01*
X164265400Y-132322417D01*
X164514665Y-132372000D01*
X164797335Y-132372000D01*
X165074574Y-132316853D01*
X165335727Y-132208680D01*
X165570759Y-132051637D01*
X165770637Y-131851759D01*
X165927680Y-131616727D01*
X166035853Y-131355574D01*
X166091000Y-131078335D01*
X166091000Y-130795665D01*
X166035853Y-130518426D01*
X165927680Y-130257273D01*
X165770637Y-130022241D01*
X165570759Y-129822363D01*
X165335727Y-129665320D01*
X165074574Y-129557147D01*
X164797335Y-129502000D01*
X164514665Y-129502000D01*
X164265400Y-129551583D01*
X164265400Y-128873345D01*
X164300426Y-128887853D01*
X164577665Y-128943000D01*
X164860335Y-128943000D01*
X165137574Y-128887853D01*
X165398727Y-128779680D01*
X165633759Y-128622637D01*
X165833637Y-128422759D01*
X165990680Y-128187727D01*
X166098853Y-127926574D01*
X166154000Y-127649335D01*
X166154000Y-127366665D01*
X166135285Y-127272582D01*
X169958668Y-123449200D01*
X171350008Y-123449200D01*
X171277479Y-123557748D01*
G37*
X171277479Y-123557748D02*
X171149330Y-123867128D01*
X171084000Y-124195565D01*
X171084000Y-124530435D01*
X171142350Y-124823781D01*
X166640179Y-129325954D01*
X166608309Y-129352109D01*
X166519988Y-129459730D01*
X166503964Y-129479255D01*
X166426428Y-129624314D01*
X166378682Y-129781712D01*
X166362560Y-129945400D01*
X166366600Y-129986419D01*
X166366601Y-139411530D01*
X164954418Y-140823714D01*
X164860335Y-140805000D01*
X164577665Y-140805000D01*
X164300426Y-140860147D01*
X164265400Y-140874655D01*
X164265400Y-139936298D01*
X164306961Y-139948904D01*
X164529000Y-139826915D01*
X164529000Y-138684000D01*
X164783000Y-138684000D01*
X164783000Y-139826915D01*
X165005039Y-139948904D01*
X165139087Y-139908246D01*
X165393420Y-139788037D01*
X165619414Y-139620519D01*
X165808385Y-139412131D01*
X165953070Y-139170881D01*
X166047909Y-138906040D01*
X165926624Y-138684000D01*
X164783000Y-138684000D01*
X164529000Y-138684000D01*
X164509000Y-138684000D01*
X164509000Y-138430000D01*
X164529000Y-138430000D01*
X164529000Y-137287085D01*
X164783000Y-137287085D01*
X164783000Y-138430000D01*
X165926624Y-138430000D01*
X166047909Y-138207960D01*
X165953070Y-137943119D01*
X165808385Y-137701869D01*
X165619414Y-137493481D01*
X165393420Y-137325963D01*
X165139087Y-137205754D01*
X165005039Y-137165096D01*
X164783000Y-137287085D01*
X164529000Y-137287085D01*
X164306961Y-137165096D01*
X164265400Y-137177702D01*
X164265400Y-132322417D01*
X164514665Y-132372000D01*
X164797335Y-132372000D01*
X165074574Y-132316853D01*
X165335727Y-132208680D01*
X165570759Y-132051637D01*
X165770637Y-131851759D01*
X165927680Y-131616727D01*
X166035853Y-131355574D01*
X166091000Y-131078335D01*
X166091000Y-130795665D01*
X166035853Y-130518426D01*
X165927680Y-130257273D01*
X165770637Y-130022241D01*
X165570759Y-129822363D01*
X165335727Y-129665320D01*
X165074574Y-129557147D01*
X164797335Y-129502000D01*
X164514665Y-129502000D01*
X164265400Y-129551583D01*
X164265400Y-128873345D01*
X164300426Y-128887853D01*
X164577665Y-128943000D01*
X164860335Y-128943000D01*
X165137574Y-128887853D01*
X165398727Y-128779680D01*
X165633759Y-128622637D01*
X165833637Y-128422759D01*
X165990680Y-128187727D01*
X166098853Y-127926574D01*
X166154000Y-127649335D01*
X166154000Y-127366665D01*
X166135285Y-127272582D01*
X169958668Y-123449200D01*
X171350008Y-123449200D01*
X171277479Y-123557748D01*
G36*
X179456607Y-49718525D02*
G01*
X179434671Y-49677486D01*
X179190702Y-49605903D01*
X178377605Y-50419000D01*
X178391748Y-50433143D01*
X178212143Y-50612748D01*
X178198000Y-50598605D01*
X177384903Y-51411702D01*
X177456486Y-51655671D01*
X177499234Y-51675898D01*
X171932103Y-57243030D01*
X171828574Y-57200147D01*
X171551335Y-57145000D01*
X171268665Y-57145000D01*
X170991426Y-57200147D01*
X170730273Y-57308320D01*
X170495241Y-57465363D01*
X170295363Y-57665241D01*
X170138320Y-57900273D01*
X170030147Y-58161426D01*
X169975000Y-58438665D01*
X169975000Y-58721335D01*
X170030147Y-58998574D01*
X170138320Y-59259727D01*
X170295363Y-59494759D01*
X170495241Y-59694637D01*
X170730273Y-59851680D01*
X170991426Y-59959853D01*
X171268665Y-60015000D01*
X171551335Y-60015000D01*
X171828574Y-59959853D01*
X172089727Y-59851680D01*
X172324759Y-59694637D01*
X172524637Y-59494759D01*
X172681680Y-59259727D01*
X172789853Y-58998574D01*
X172845000Y-58721335D01*
X172845000Y-58691867D01*
X173926080Y-57610787D01*
X173810261Y-57890399D01*
X173709000Y-58399475D01*
X173709000Y-58918525D01*
X173810261Y-59427601D01*
X174008893Y-59907141D01*
X174297262Y-60338715D01*
X174664285Y-60705738D01*
X175095859Y-60994107D01*
X175575399Y-61192739D01*
X176084475Y-61294000D01*
X176603525Y-61294000D01*
X177112601Y-61192739D01*
X177592141Y-60994107D01*
X178023715Y-60705738D01*
X178390738Y-60338715D01*
X178679107Y-59907141D01*
X178877739Y-59427601D01*
X178979000Y-58918525D01*
X178979000Y-58399475D01*
X182509000Y-58399475D01*
X182509000Y-58918525D01*
X182610261Y-59427601D01*
X182808893Y-59907141D01*
X183097262Y-60338715D01*
X183464285Y-60705738D01*
X183895859Y-60994107D01*
X184375399Y-61192739D01*
X184884475Y-61294000D01*
X185403525Y-61294000D01*
X185912601Y-61192739D01*
X186392141Y-60994107D01*
X186823715Y-60705738D01*
X187190738Y-60338715D01*
X187479107Y-59907141D01*
X187677739Y-59427601D01*
X187779000Y-58918525D01*
X187779000Y-58399475D01*
X187677739Y-57890399D01*
X187479107Y-57410859D01*
X187190738Y-56979285D01*
X186823715Y-56612262D01*
X186392141Y-56323893D01*
X185912601Y-56125261D01*
X185403525Y-56024000D01*
X184884475Y-56024000D01*
X184375399Y-56125261D01*
X183895859Y-56323893D01*
X183464285Y-56612262D01*
X183097262Y-56979285D01*
X182808893Y-57410859D01*
X182610261Y-57890399D01*
X182509000Y-58399475D01*
X178979000Y-58399475D01*
X178877739Y-57890399D01*
X178679107Y-57410859D01*
X178390738Y-56979285D01*
X178023715Y-56612262D01*
X177592141Y-56323893D01*
X177112601Y-56125261D01*
X176603525Y-56024000D01*
X176084475Y-56024000D01*
X175575399Y-56125261D01*
X175295788Y-56241080D01*
X181973769Y-49563100D01*
X182044035Y-49563100D01*
X181926320Y-49739273D01*
X181818147Y-50000426D01*
X181763000Y-50277665D01*
X181763000Y-50560335D01*
X181818147Y-50837574D01*
X181926320Y-51098727D01*
X182083363Y-51333759D01*
X182283241Y-51533637D01*
X182518273Y-51690680D01*
X182779426Y-51798853D01*
X183056665Y-51854000D01*
X183339335Y-51854000D01*
X183433418Y-51835285D01*
X193984700Y-62386569D01*
X193984700Y-63380561D01*
X193956185Y-63345815D01*
X193859494Y-63266463D01*
X193749180Y-63207498D01*
X193629482Y-63171188D01*
X193505000Y-63158928D01*
X191305000Y-63158928D01*
X191180518Y-63171188D01*
X191060820Y-63207498D01*
X190950506Y-63266463D01*
X190853815Y-63345815D01*
X190774463Y-63442506D01*
X190715498Y-63552820D01*
X190679188Y-63672518D01*
X190666928Y-63797000D01*
X190666928Y-65997000D01*
X190679188Y-66121482D01*
X190715498Y-66241180D01*
X190774463Y-66351494D01*
X190853815Y-66448185D01*
X190950506Y-66527537D01*
X191060820Y-66586502D01*
X191180518Y-66622812D01*
X191305000Y-66635072D01*
X193505000Y-66635072D01*
X193629482Y-66622812D01*
X193749180Y-66586502D01*
X193859494Y-66527537D01*
X193956185Y-66448185D01*
X193984700Y-66413439D01*
X193984700Y-69256960D01*
X193942537Y-69155169D01*
X193752663Y-68871002D01*
X193510998Y-68629337D01*
X193226831Y-68439463D01*
X192911081Y-68308675D01*
X192575883Y-68242000D01*
X192234117Y-68242000D01*
X191898919Y-68308675D01*
X191583169Y-68439463D01*
X191299002Y-68629337D01*
X191057337Y-68871002D01*
X190876262Y-69142000D01*
X176513168Y-69142000D01*
X174094248Y-66723080D01*
X177359525Y-66723080D01*
X177443208Y-66977261D01*
X177715775Y-67108158D01*
X178008642Y-67183365D01*
X178310553Y-67199991D01*
X178609907Y-67157397D01*
X178895199Y-67057222D01*
X179044792Y-66977261D01*
X179128475Y-66723080D01*
X178244000Y-65838605D01*
X177359525Y-66723080D01*
X174094248Y-66723080D01*
X173259746Y-65888579D01*
X173233591Y-65856709D01*
X173106446Y-65752364D01*
X173056287Y-65725553D01*
X176703009Y-65725553D01*
X176745603Y-66024907D01*
X176845778Y-66310199D01*
X176925739Y-66459792D01*
X177179920Y-66543475D01*
X178064395Y-65659000D01*
X177179920Y-64774525D01*
X176925739Y-64858208D01*
X176794842Y-65130775D01*
X176719635Y-65423642D01*
X176703009Y-65725553D01*
X173056287Y-65725553D01*
X172961387Y-65674828D01*
X172803989Y-65627082D01*
X172681319Y-65615000D01*
X172681318Y-65615000D01*
X172640300Y-65610960D01*
X172607396Y-65614201D01*
X172554637Y-65535241D01*
X172354759Y-65335363D01*
X172119727Y-65178320D01*
X171858574Y-65070147D01*
X171581335Y-65015000D01*
X171298665Y-65015000D01*
X171021426Y-65070147D01*
X170760273Y-65178320D01*
X170525241Y-65335363D01*
X170325363Y-65535241D01*
X170168320Y-65770273D01*
X170060147Y-66031426D01*
X170005000Y-66308665D01*
X170005000Y-66591335D01*
X170060147Y-66868574D01*
X170168320Y-67129727D01*
X170325363Y-67364759D01*
X170525241Y-67564637D01*
X170760273Y-67721680D01*
X171021426Y-67829853D01*
X171298665Y-67885000D01*
X171581335Y-67885000D01*
X171858574Y-67829853D01*
X172119727Y-67721680D01*
X172354759Y-67564637D01*
X172464414Y-67454982D01*
X175547859Y-70538427D01*
X175574009Y-70570291D01*
X175701154Y-70674636D01*
X175846213Y-70752172D01*
X176003611Y-70799918D01*
X176126281Y-70812000D01*
X176126283Y-70812000D01*
X176167299Y-70816040D01*
X176208315Y-70812000D01*
X190876262Y-70812000D01*
X191057337Y-71082998D01*
X191299002Y-71324663D01*
X191583169Y-71514537D01*
X191898919Y-71645325D01*
X192234117Y-71712000D01*
X192575883Y-71712000D01*
X192911081Y-71645325D01*
X193226831Y-71514537D01*
X193510998Y-71324663D01*
X193752663Y-71082998D01*
X193942537Y-70798831D01*
X193984700Y-70697040D01*
X193984700Y-78620561D01*
X193956185Y-78585815D01*
X193859494Y-78506463D01*
X193749180Y-78447498D01*
X193629482Y-78411188D01*
X193505000Y-78398928D01*
X191305000Y-78398928D01*
X191180518Y-78411188D01*
X191060820Y-78447498D01*
X190950506Y-78506463D01*
X190853815Y-78585815D01*
X190774463Y-78682506D01*
X190715498Y-78792820D01*
X190679188Y-78912518D01*
X190666928Y-79037000D01*
X190666928Y-81237000D01*
X190679188Y-81361482D01*
X190715498Y-81481180D01*
X190774463Y-81591494D01*
X190853815Y-81688185D01*
X190950506Y-81767537D01*
X191060820Y-81826502D01*
X191180518Y-81862812D01*
X191305000Y-81875072D01*
X193505000Y-81875072D01*
X193629482Y-81862812D01*
X193749180Y-81826502D01*
X193859494Y-81767537D01*
X193956185Y-81688185D01*
X193984700Y-81653439D01*
X193984701Y-93509433D01*
X193947663Y-93454002D01*
X193705998Y-93212337D01*
X193421831Y-93022463D01*
X193106081Y-92891675D01*
X192770883Y-92825000D01*
X192429117Y-92825000D01*
X192093919Y-92891675D01*
X191778169Y-93022463D01*
X191494002Y-93212337D01*
X191252337Y-93454002D01*
X191062463Y-93738169D01*
X190931675Y-94053919D01*
X190865000Y-94389117D01*
X190865000Y-94730883D01*
X190931675Y-95066081D01*
X191062463Y-95381831D01*
X191252337Y-95665998D01*
X191494002Y-95907663D01*
X191778169Y-96097537D01*
X192093919Y-96228325D01*
X192429117Y-96295000D01*
X192770883Y-96295000D01*
X193106081Y-96228325D01*
X193421831Y-96097537D01*
X193705998Y-95907663D01*
X193947663Y-95665998D01*
X193984701Y-95610567D01*
X193984701Y-101941671D01*
X193980660Y-101982700D01*
X193996782Y-102146388D01*
X194044528Y-102303786D01*
X194122064Y-102448845D01*
X194122065Y-102448846D01*
X194226410Y-102575991D01*
X194258274Y-102602141D01*
X195560714Y-103904583D01*
X195542000Y-103998665D01*
X195542000Y-104281335D01*
X195597147Y-104558574D01*
X195705320Y-104819727D01*
X195862363Y-105054759D01*
X196062241Y-105254637D01*
X196297273Y-105411680D01*
X196558426Y-105519853D01*
X196835665Y-105575000D01*
X197118335Y-105575000D01*
X197356201Y-105527685D01*
X197356201Y-108838805D01*
X197320759Y-108803363D01*
X197085727Y-108646320D01*
X196824574Y-108538147D01*
X196547335Y-108483000D01*
X196264665Y-108483000D01*
X195987426Y-108538147D01*
X195726273Y-108646320D01*
X195491241Y-108803363D01*
X195381586Y-108913018D01*
X191352746Y-104884179D01*
X191326591Y-104852309D01*
X191199446Y-104747964D01*
X191054387Y-104670428D01*
X190896989Y-104622682D01*
X190774319Y-104610600D01*
X190774318Y-104610600D01*
X190733300Y-104606560D01*
X190692282Y-104610600D01*
X175125368Y-104610600D01*
X173693989Y-103179221D01*
X174264000Y-103182072D01*
X174388482Y-103169812D01*
X174508180Y-103133502D01*
X174618494Y-103074537D01*
X174715185Y-102995185D01*
X174794537Y-102898494D01*
X174853502Y-102788180D01*
X174859056Y-102769873D01*
X174925495Y-102836312D01*
X175176905Y-103004299D01*
X175456257Y-103120011D01*
X175752816Y-103179000D01*
X176055184Y-103179000D01*
X176351743Y-103120011D01*
X176631095Y-103004299D01*
X176882505Y-102836312D01*
X177096312Y-102622505D01*
X177264299Y-102371095D01*
X177380011Y-102091743D01*
X177439000Y-101795184D01*
X177439000Y-101492816D01*
X177380011Y-101196257D01*
X177264299Y-100916905D01*
X177096312Y-100665495D01*
X176882505Y-100451688D01*
X176631095Y-100283701D01*
X176351743Y-100167989D01*
X176055184Y-100109000D01*
X175752816Y-100109000D01*
X175583540Y-100142671D01*
X175531869Y-100091000D01*
X178348928Y-100091000D01*
X178348928Y-102941000D01*
X178361188Y-103065482D01*
X178397498Y-103185180D01*
X178456463Y-103295494D01*
X178535815Y-103392185D01*
X178632506Y-103471537D01*
X178742820Y-103530502D01*
X178862518Y-103566812D01*
X178987000Y-103579072D01*
X181837000Y-103579072D01*
X181961482Y-103566812D01*
X182081180Y-103530502D01*
X182191494Y-103471537D01*
X182288185Y-103392185D01*
X182367537Y-103295494D01*
X182426502Y-103185180D01*
X182462812Y-103065482D01*
X182473767Y-102954250D01*
X183853355Y-102954250D01*
X184000342Y-103262132D01*
X184362356Y-103445455D01*
X184753178Y-103554629D01*
X185157789Y-103585460D01*
X185560641Y-103536763D01*
X185946252Y-103410408D01*
X186223658Y-103262132D01*
X186370645Y-102954250D01*
X185112000Y-101695605D01*
X183853355Y-102954250D01*
X182473767Y-102954250D01*
X182475072Y-102941000D01*
X182475072Y-101561789D01*
X183042540Y-101561789D01*
X183091237Y-101964641D01*
X183217592Y-102350252D01*
X183365868Y-102627658D01*
X183673750Y-102774645D01*
X184932395Y-101516000D01*
X185291605Y-101516000D01*
X186550250Y-102774645D01*
X186858132Y-102627658D01*
X187041455Y-102265644D01*
X187150629Y-101874822D01*
X187181460Y-101470211D01*
X187162470Y-101313108D01*
X187752000Y-101313108D01*
X187752000Y-101718892D01*
X187831165Y-102116880D01*
X187986452Y-102491776D01*
X188211894Y-102829173D01*
X188498827Y-103116106D01*
X188836224Y-103341548D01*
X189211120Y-103496835D01*
X189609108Y-103576000D01*
X190014892Y-103576000D01*
X190412880Y-103496835D01*
X190787776Y-103341548D01*
X191125173Y-103116106D01*
X191412106Y-102829173D01*
X191637548Y-102491776D01*
X191792835Y-102116880D01*
X191872000Y-101718892D01*
X191872000Y-101313108D01*
X191792835Y-100915120D01*
X191637548Y-100540224D01*
X191412106Y-100202827D01*
X191125173Y-99915894D01*
X190787776Y-99690452D01*
X190412880Y-99535165D01*
X190014892Y-99456000D01*
X189609108Y-99456000D01*
X189211120Y-99535165D01*
X188836224Y-99690452D01*
X188498827Y-99915894D01*
X188211894Y-100202827D01*
X187986452Y-100540224D01*
X187831165Y-100915120D01*
X187752000Y-101313108D01*
X187162470Y-101313108D01*
X187132763Y-101067359D01*
X187006408Y-100681748D01*
X186858132Y-100404342D01*
X186550250Y-100257355D01*
X185291605Y-101516000D01*
X184932395Y-101516000D01*
X183673750Y-100257355D01*
X183365868Y-100404342D01*
X183182545Y-100766356D01*
X183073371Y-101157178D01*
X183042540Y-101561789D01*
X182475072Y-101561789D01*
X182475072Y-100091000D01*
X182473768Y-100077750D01*
X183853355Y-100077750D01*
X185112000Y-101336395D01*
X186370645Y-100077750D01*
X186223658Y-99769868D01*
X185861644Y-99586545D01*
X185470822Y-99477371D01*
X185066211Y-99446540D01*
X184663359Y-99495237D01*
X184277748Y-99621592D01*
X184000342Y-99769868D01*
X183853355Y-100077750D01*
X182473768Y-100077750D01*
X182462812Y-99966518D01*
X182426502Y-99846820D01*
X182367537Y-99736506D01*
X182288185Y-99639815D01*
X182191494Y-99560463D01*
X182081180Y-99501498D01*
X181961482Y-99465188D01*
X181837000Y-99452928D01*
X178987000Y-99452928D01*
X178862518Y-99465188D01*
X178742820Y-99501498D01*
X178632506Y-99560463D01*
X178535815Y-99639815D01*
X178456463Y-99736506D01*
X178397498Y-99846820D01*
X178361188Y-99966518D01*
X178348928Y-100091000D01*
X175531869Y-100091000D01*
X171726200Y-96285333D01*
X171726200Y-73682869D01*
X171797000Y-73753669D01*
X171797001Y-88003171D01*
X171792960Y-88044200D01*
X171809082Y-88207888D01*
X171856828Y-88365286D01*
X171856829Y-88365287D01*
X171934365Y-88510346D01*
X172038710Y-88637491D01*
X172070574Y-88663641D01*
X180239908Y-96832976D01*
X180268774Y-96978098D01*
X180346795Y-97166456D01*
X180460063Y-97335974D01*
X180604226Y-97480137D01*
X180773744Y-97593405D01*
X180962102Y-97671426D01*
X181162061Y-97711200D01*
X181365939Y-97711200D01*
X181565898Y-97671426D01*
X181754256Y-97593405D01*
X181923774Y-97480137D01*
X182067937Y-97335974D01*
X182181205Y-97166456D01*
X182259226Y-96978098D01*
X182299000Y-96778139D01*
X182299000Y-96574261D01*
X182259226Y-96374302D01*
X182227650Y-96298072D01*
X183540000Y-96298072D01*
X183664482Y-96285812D01*
X183784180Y-96249502D01*
X183894494Y-96190537D01*
X183991185Y-96111185D01*
X184070537Y-96014494D01*
X184129502Y-95904180D01*
X184165812Y-95784482D01*
X184178072Y-95660000D01*
X184178072Y-93460000D01*
X184165812Y-93335518D01*
X184129502Y-93215820D01*
X184070537Y-93105506D01*
X183991185Y-93008815D01*
X183894494Y-92929463D01*
X183784180Y-92870498D01*
X183664482Y-92834188D01*
X183540000Y-92821928D01*
X181340000Y-92821928D01*
X181215518Y-92834188D01*
X181095820Y-92870498D01*
X180985506Y-92929463D01*
X180888815Y-93008815D01*
X180809463Y-93105506D01*
X180750498Y-93215820D01*
X180714188Y-93335518D01*
X180701928Y-93460000D01*
X180701928Y-94933260D01*
X173467000Y-87698333D01*
X173467000Y-85392080D01*
X177359525Y-85392080D01*
X177443208Y-85646261D01*
X177715775Y-85777158D01*
X178008642Y-85852365D01*
X178310553Y-85868991D01*
X178609907Y-85826397D01*
X178895199Y-85726222D01*
X179044792Y-85646261D01*
X179128475Y-85392080D01*
X178244000Y-84507605D01*
X177359525Y-85392080D01*
X173467000Y-85392080D01*
X173467000Y-84394553D01*
X176703009Y-84394553D01*
X176745603Y-84693907D01*
X176845778Y-84979199D01*
X176925739Y-85128792D01*
X177179920Y-85212475D01*
X178064395Y-84328000D01*
X178423605Y-84328000D01*
X179308080Y-85212475D01*
X179456262Y-85163690D01*
X179551688Y-85306505D01*
X179765495Y-85520312D01*
X180016905Y-85688299D01*
X180296257Y-85804011D01*
X180592816Y-85863000D01*
X180895184Y-85863000D01*
X181191743Y-85804011D01*
X181471095Y-85688299D01*
X181722505Y-85520312D01*
X181936312Y-85306505D01*
X181994000Y-85220169D01*
X182051688Y-85306505D01*
X182265495Y-85520312D01*
X182516905Y-85688299D01*
X182796257Y-85804011D01*
X183092816Y-85863000D01*
X183395184Y-85863000D01*
X183691743Y-85804011D01*
X183971095Y-85688299D01*
X184222505Y-85520312D01*
X184436312Y-85306505D01*
X184604299Y-85055095D01*
X184720011Y-84775743D01*
X184779000Y-84479184D01*
X184779000Y-84176816D01*
X184720011Y-83880257D01*
X184604299Y-83600905D01*
X184436312Y-83349495D01*
X184222505Y-83135688D01*
X183971095Y-82967701D01*
X183691743Y-82851989D01*
X183395184Y-82793000D01*
X183092816Y-82793000D01*
X182796257Y-82851989D01*
X182516905Y-82967701D01*
X182265495Y-83135688D01*
X182051688Y-83349495D01*
X181994000Y-83435831D01*
X181936312Y-83349495D01*
X181722505Y-83135688D01*
X181471095Y-82967701D01*
X181191743Y-82851989D01*
X180895184Y-82793000D01*
X180592816Y-82793000D01*
X180296257Y-82851989D01*
X180016905Y-82967701D01*
X179765495Y-83135688D01*
X179551688Y-83349495D01*
X179456262Y-83492310D01*
X179308080Y-83443525D01*
X178423605Y-84328000D01*
X178064395Y-84328000D01*
X177179920Y-83443525D01*
X176925739Y-83527208D01*
X176794842Y-83799775D01*
X176719635Y-84092642D01*
X176703009Y-84394553D01*
X173467000Y-84394553D01*
X173467000Y-83263920D01*
X177359525Y-83263920D01*
X178244000Y-84148395D01*
X179128475Y-83263920D01*
X179044792Y-83009739D01*
X178772225Y-82878842D01*
X178479358Y-82803635D01*
X178177447Y-82787009D01*
X177878093Y-82829603D01*
X177592801Y-82929778D01*
X177443208Y-83009739D01*
X177359525Y-83263920D01*
X173467000Y-83263920D01*
X173467000Y-77068475D01*
X173709000Y-77068475D01*
X173709000Y-77587525D01*
X173810261Y-78096601D01*
X174008893Y-78576141D01*
X174297262Y-79007715D01*
X174664285Y-79374738D01*
X175095859Y-79663107D01*
X175575399Y-79861739D01*
X176084475Y-79963000D01*
X176603525Y-79963000D01*
X177112601Y-79861739D01*
X177592141Y-79663107D01*
X178023715Y-79374738D01*
X178390738Y-79007715D01*
X178679107Y-78576141D01*
X178877739Y-78096601D01*
X178979000Y-77587525D01*
X178979000Y-77068475D01*
X182509000Y-77068475D01*
X182509000Y-77587525D01*
X182610261Y-78096601D01*
X182808893Y-78576141D01*
X183097262Y-79007715D01*
X183464285Y-79374738D01*
X183895859Y-79663107D01*
X184375399Y-79861739D01*
X184884475Y-79963000D01*
X185403525Y-79963000D01*
X185912601Y-79861739D01*
X186392141Y-79663107D01*
X186823715Y-79374738D01*
X187190738Y-79007715D01*
X187479107Y-78576141D01*
X187677739Y-78096601D01*
X187779000Y-77587525D01*
X187779000Y-77068475D01*
X187677739Y-76559399D01*
X187479107Y-76079859D01*
X187190738Y-75648285D01*
X186823715Y-75281262D01*
X186392141Y-74992893D01*
X185912601Y-74794261D01*
X185403525Y-74693000D01*
X184884475Y-74693000D01*
X184375399Y-74794261D01*
X183895859Y-74992893D01*
X183464285Y-75281262D01*
X183097262Y-75648285D01*
X182808893Y-76079859D01*
X182610261Y-76559399D01*
X182509000Y-77068475D01*
X178979000Y-77068475D01*
X178877739Y-76559399D01*
X178679107Y-76079859D01*
X178390738Y-75648285D01*
X178023715Y-75281262D01*
X177592141Y-74992893D01*
X177112601Y-74794261D01*
X176603525Y-74693000D01*
X176084475Y-74693000D01*
X175575399Y-74794261D01*
X175095859Y-74992893D01*
X174664285Y-75281262D01*
X174297262Y-75648285D01*
X174008893Y-76079859D01*
X173810261Y-76559399D01*
X173709000Y-77068475D01*
X173467000Y-77068475D01*
X173467000Y-73448818D01*
X173471040Y-73407800D01*
X173454918Y-73244112D01*
X173441572Y-73200114D01*
X173407172Y-73086713D01*
X173329636Y-72941654D01*
X173225291Y-72814509D01*
X173193433Y-72788364D01*
X165825300Y-65420233D01*
X165825300Y-62228665D01*
X169975000Y-62228665D01*
X169975000Y-62511335D01*
X170030147Y-62788574D01*
X170138320Y-63049727D01*
X170295363Y-63284759D01*
X170495241Y-63484637D01*
X170730273Y-63641680D01*
X170991426Y-63749853D01*
X171268665Y-63805000D01*
X171551335Y-63805000D01*
X171828574Y-63749853D01*
X172089727Y-63641680D01*
X172324759Y-63484637D01*
X172524637Y-63284759D01*
X172577930Y-63205000D01*
X177109133Y-63205000D01*
X178041487Y-64137354D01*
X177878093Y-64160603D01*
X177592801Y-64260778D01*
X177443208Y-64340739D01*
X177359525Y-64594920D01*
X178244000Y-65479395D01*
X178258143Y-65465253D01*
X178437748Y-65644858D01*
X178423605Y-65659000D01*
X179308080Y-66543475D01*
X179456262Y-66494690D01*
X179551688Y-66637505D01*
X179765495Y-66851312D01*
X180016905Y-67019299D01*
X180296257Y-67135011D01*
X180592816Y-67194000D01*
X180895184Y-67194000D01*
X181191743Y-67135011D01*
X181471095Y-67019299D01*
X181722505Y-66851312D01*
X181936312Y-66637505D01*
X181994000Y-66551169D01*
X182051688Y-66637505D01*
X182265495Y-66851312D01*
X182516905Y-67019299D01*
X182796257Y-67135011D01*
X183092816Y-67194000D01*
X183395184Y-67194000D01*
X183691743Y-67135011D01*
X183971095Y-67019299D01*
X184222505Y-66851312D01*
X184436312Y-66637505D01*
X184604299Y-66386095D01*
X184720011Y-66106743D01*
X184779000Y-65810184D01*
X184779000Y-65507816D01*
X184720011Y-65211257D01*
X184604299Y-64931905D01*
X184436312Y-64680495D01*
X184222505Y-64466688D01*
X183971095Y-64298701D01*
X183691743Y-64182989D01*
X183395184Y-64124000D01*
X183092816Y-64124000D01*
X182796257Y-64182989D01*
X182516905Y-64298701D01*
X182265495Y-64466688D01*
X182051688Y-64680495D01*
X181994000Y-64766831D01*
X181936312Y-64680495D01*
X181722505Y-64466688D01*
X181471095Y-64298701D01*
X181191743Y-64182989D01*
X180895184Y-64124000D01*
X180592816Y-64124000D01*
X180423539Y-64157671D01*
X178074446Y-61808579D01*
X178048291Y-61776709D01*
X177921146Y-61672364D01*
X177776087Y-61594828D01*
X177618689Y-61547082D01*
X177496019Y-61535000D01*
X177496018Y-61535000D01*
X177455000Y-61530960D01*
X177413982Y-61535000D01*
X172577930Y-61535000D01*
X172524637Y-61455241D01*
X172324759Y-61255363D01*
X172089727Y-61098320D01*
X171828574Y-60990147D01*
X171551335Y-60935000D01*
X171268665Y-60935000D01*
X170991426Y-60990147D01*
X170730273Y-61098320D01*
X170495241Y-61255363D01*
X170295363Y-61455241D01*
X170138320Y-61690273D01*
X170030147Y-61951426D01*
X169975000Y-62228665D01*
X165825300Y-62228665D01*
X165825300Y-61021618D01*
X165829340Y-60980600D01*
X165813218Y-60816912D01*
X165765472Y-60659513D01*
X165743999Y-60619340D01*
X165687936Y-60514454D01*
X165583591Y-60387309D01*
X165551733Y-60361164D01*
X164794982Y-59604414D01*
X164904637Y-59494759D01*
X165061680Y-59259727D01*
X165169853Y-58998574D01*
X165225000Y-58721335D01*
X165225000Y-58438665D01*
X165169853Y-58161426D01*
X165061680Y-57900273D01*
X164904637Y-57665241D01*
X164704759Y-57465363D01*
X164469727Y-57308320D01*
X164208574Y-57200147D01*
X163931335Y-57145000D01*
X163648665Y-57145000D01*
X163371426Y-57200147D01*
X163110273Y-57308320D01*
X162875241Y-57465363D01*
X162675363Y-57665241D01*
X162518320Y-57900273D01*
X162458000Y-58045899D01*
X162458000Y-55392543D01*
X162494320Y-55480227D01*
X162651363Y-55715259D01*
X162851241Y-55915137D01*
X163086273Y-56072180D01*
X163347426Y-56180353D01*
X163624665Y-56235500D01*
X163907335Y-56235500D01*
X164184574Y-56180353D01*
X164445727Y-56072180D01*
X164680759Y-55915137D01*
X164880637Y-55715259D01*
X165037680Y-55480227D01*
X165145853Y-55219074D01*
X165201000Y-54941835D01*
X165201000Y-54659165D01*
X169951000Y-54659165D01*
X169951000Y-54941835D01*
X170006147Y-55219074D01*
X170114320Y-55480227D01*
X170271363Y-55715259D01*
X170471241Y-55915137D01*
X170706273Y-56072180D01*
X170967426Y-56180353D01*
X171244665Y-56235500D01*
X171527335Y-56235500D01*
X171804574Y-56180353D01*
X172065727Y-56072180D01*
X172300759Y-55915137D01*
X172500637Y-55715259D01*
X172657680Y-55480227D01*
X172765853Y-55219074D01*
X172821000Y-54941835D01*
X172821000Y-54659165D01*
X172765853Y-54381926D01*
X172657680Y-54120773D01*
X172500637Y-53885741D01*
X172300759Y-53685863D01*
X172065727Y-53528820D01*
X171804574Y-53420647D01*
X171527335Y-53365500D01*
X171244665Y-53365500D01*
X170967426Y-53420647D01*
X170706273Y-53528820D01*
X170471241Y-53685863D01*
X170271363Y-53885741D01*
X170114320Y-54120773D01*
X170006147Y-54381926D01*
X169951000Y-54659165D01*
X165201000Y-54659165D01*
X165145853Y-54381926D01*
X165037680Y-54120773D01*
X164880637Y-53885741D01*
X164680759Y-53685863D01*
X164445727Y-53528820D01*
X164184574Y-53420647D01*
X163907335Y-53365500D01*
X163624665Y-53365500D01*
X163347426Y-53420647D01*
X163086273Y-53528820D01*
X162851241Y-53685863D01*
X162651363Y-53885741D01*
X162494320Y-54120773D01*
X162458000Y-54208457D01*
X162458000Y-52013012D01*
X162502506Y-52049537D01*
X162612820Y-52108502D01*
X162732518Y-52144812D01*
X162857000Y-52157072D01*
X165057000Y-52157072D01*
X165181482Y-52144812D01*
X165301180Y-52108502D01*
X165411494Y-52049537D01*
X165508185Y-51970185D01*
X165587537Y-51873494D01*
X165646502Y-51763180D01*
X165682812Y-51643482D01*
X165695072Y-51519000D01*
X165695072Y-50815122D01*
X172427825Y-50815122D01*
X172492425Y-51028094D01*
X172642469Y-51333329D01*
X172849178Y-51603427D01*
X173104609Y-51828008D01*
X173398946Y-51998442D01*
X173720877Y-52108179D01*
X173990000Y-51990600D01*
X173990000Y-50546000D01*
X174244000Y-50546000D01*
X174244000Y-51990600D01*
X174513123Y-52108179D01*
X174835054Y-51998442D01*
X175129391Y-51828008D01*
X175384822Y-51603427D01*
X175591531Y-51333329D01*
X175741575Y-51028094D01*
X175806175Y-50815122D01*
X175688125Y-50546000D01*
X174244000Y-50546000D01*
X173990000Y-50546000D01*
X172545875Y-50546000D01*
X172427825Y-50815122D01*
X165695072Y-50815122D01*
X165695072Y-50489512D01*
X176757783Y-50489512D01*
X176799213Y-50769130D01*
X176894397Y-51035292D01*
X176961329Y-51160514D01*
X177205298Y-51232097D01*
X178018395Y-50419000D01*
X177205298Y-49605903D01*
X176961329Y-49677486D01*
X176840429Y-49932996D01*
X176771700Y-50207184D01*
X176757783Y-50489512D01*
X165695072Y-50489512D01*
X165695072Y-50022878D01*
X172427825Y-50022878D01*
X172545875Y-50292000D01*
X173990000Y-50292000D01*
X173990000Y-48847400D01*
X174244000Y-48847400D01*
X174244000Y-50292000D01*
X175688125Y-50292000D01*
X175806175Y-50022878D01*
X175741575Y-49809906D01*
X175591531Y-49504671D01*
X175531552Y-49426298D01*
X177384903Y-49426298D01*
X178198000Y-50239395D01*
X179011097Y-49426298D01*
X178939514Y-49182329D01*
X178684004Y-49061429D01*
X178409816Y-48992700D01*
X178127488Y-48978783D01*
X177847870Y-49020213D01*
X177581708Y-49115397D01*
X177456486Y-49182329D01*
X177384903Y-49426298D01*
X175531552Y-49426298D01*
X175384822Y-49234573D01*
X175129391Y-49009992D01*
X174835054Y-48839558D01*
X174513123Y-48729821D01*
X174244000Y-48847400D01*
X173990000Y-48847400D01*
X173720877Y-48729821D01*
X173398946Y-48839558D01*
X173104609Y-49009992D01*
X172849178Y-49234573D01*
X172642469Y-49504671D01*
X172492425Y-49809906D01*
X172427825Y-50022878D01*
X165695072Y-50022878D01*
X165695072Y-49319000D01*
X165682812Y-49194518D01*
X165646502Y-49074820D01*
X165587537Y-48964506D01*
X165508185Y-48867815D01*
X165411494Y-48788463D01*
X165301180Y-48729498D01*
X165181482Y-48693188D01*
X165057000Y-48680928D01*
X162857000Y-48680928D01*
X162732518Y-48693188D01*
X162612820Y-48729498D01*
X162502506Y-48788463D01*
X162458000Y-48824988D01*
X162458000Y-48412000D01*
X180763131Y-48412000D01*
X179456607Y-49718525D01*
G37*
X179456607Y-49718525D02*
X179434671Y-49677486D01*
X179190702Y-49605903D01*
X178377605Y-50419000D01*
X178391748Y-50433143D01*
X178212143Y-50612748D01*
X178198000Y-50598605D01*
X177384903Y-51411702D01*
X177456486Y-51655671D01*
X177499234Y-51675898D01*
X171932103Y-57243030D01*
X171828574Y-57200147D01*
X171551335Y-57145000D01*
X171268665Y-57145000D01*
X170991426Y-57200147D01*
X170730273Y-57308320D01*
X170495241Y-57465363D01*
X170295363Y-57665241D01*
X170138320Y-57900273D01*
X170030147Y-58161426D01*
X169975000Y-58438665D01*
X169975000Y-58721335D01*
X170030147Y-58998574D01*
X170138320Y-59259727D01*
X170295363Y-59494759D01*
X170495241Y-59694637D01*
X170730273Y-59851680D01*
X170991426Y-59959853D01*
X171268665Y-60015000D01*
X171551335Y-60015000D01*
X171828574Y-59959853D01*
X172089727Y-59851680D01*
X172324759Y-59694637D01*
X172524637Y-59494759D01*
X172681680Y-59259727D01*
X172789853Y-58998574D01*
X172845000Y-58721335D01*
X172845000Y-58691867D01*
X173926080Y-57610787D01*
X173810261Y-57890399D01*
X173709000Y-58399475D01*
X173709000Y-58918525D01*
X173810261Y-59427601D01*
X174008893Y-59907141D01*
X174297262Y-60338715D01*
X174664285Y-60705738D01*
X175095859Y-60994107D01*
X175575399Y-61192739D01*
X176084475Y-61294000D01*
X176603525Y-61294000D01*
X177112601Y-61192739D01*
X177592141Y-60994107D01*
X178023715Y-60705738D01*
X178390738Y-60338715D01*
X178679107Y-59907141D01*
X178877739Y-59427601D01*
X178979000Y-58918525D01*
X178979000Y-58399475D01*
X182509000Y-58399475D01*
X182509000Y-58918525D01*
X182610261Y-59427601D01*
X182808893Y-59907141D01*
X183097262Y-60338715D01*
X183464285Y-60705738D01*
X183895859Y-60994107D01*
X184375399Y-61192739D01*
X184884475Y-61294000D01*
X185403525Y-61294000D01*
X185912601Y-61192739D01*
X186392141Y-60994107D01*
X186823715Y-60705738D01*
X187190738Y-60338715D01*
X187479107Y-59907141D01*
X187677739Y-59427601D01*
X187779000Y-58918525D01*
X187779000Y-58399475D01*
X187677739Y-57890399D01*
X187479107Y-57410859D01*
X187190738Y-56979285D01*
X186823715Y-56612262D01*
X186392141Y-56323893D01*
X185912601Y-56125261D01*
X185403525Y-56024000D01*
X184884475Y-56024000D01*
X184375399Y-56125261D01*
X183895859Y-56323893D01*
X183464285Y-56612262D01*
X183097262Y-56979285D01*
X182808893Y-57410859D01*
X182610261Y-57890399D01*
X182509000Y-58399475D01*
X178979000Y-58399475D01*
X178877739Y-57890399D01*
X178679107Y-57410859D01*
X178390738Y-56979285D01*
X178023715Y-56612262D01*
X177592141Y-56323893D01*
X177112601Y-56125261D01*
X176603525Y-56024000D01*
X176084475Y-56024000D01*
X175575399Y-56125261D01*
X175295788Y-56241080D01*
X181973769Y-49563100D01*
X182044035Y-49563100D01*
X181926320Y-49739273D01*
X181818147Y-50000426D01*
X181763000Y-50277665D01*
X181763000Y-50560335D01*
X181818147Y-50837574D01*
X181926320Y-51098727D01*
X182083363Y-51333759D01*
X182283241Y-51533637D01*
X182518273Y-51690680D01*
X182779426Y-51798853D01*
X183056665Y-51854000D01*
X183339335Y-51854000D01*
X183433418Y-51835285D01*
X193984700Y-62386569D01*
X193984700Y-63380561D01*
X193956185Y-63345815D01*
X193859494Y-63266463D01*
X193749180Y-63207498D01*
X193629482Y-63171188D01*
X193505000Y-63158928D01*
X191305000Y-63158928D01*
X191180518Y-63171188D01*
X191060820Y-63207498D01*
X190950506Y-63266463D01*
X190853815Y-63345815D01*
X190774463Y-63442506D01*
X190715498Y-63552820D01*
X190679188Y-63672518D01*
X190666928Y-63797000D01*
X190666928Y-65997000D01*
X190679188Y-66121482D01*
X190715498Y-66241180D01*
X190774463Y-66351494D01*
X190853815Y-66448185D01*
X190950506Y-66527537D01*
X191060820Y-66586502D01*
X191180518Y-66622812D01*
X191305000Y-66635072D01*
X193505000Y-66635072D01*
X193629482Y-66622812D01*
X193749180Y-66586502D01*
X193859494Y-66527537D01*
X193956185Y-66448185D01*
X193984700Y-66413439D01*
X193984700Y-69256960D01*
X193942537Y-69155169D01*
X193752663Y-68871002D01*
X193510998Y-68629337D01*
X193226831Y-68439463D01*
X192911081Y-68308675D01*
X192575883Y-68242000D01*
X192234117Y-68242000D01*
X191898919Y-68308675D01*
X191583169Y-68439463D01*
X191299002Y-68629337D01*
X191057337Y-68871002D01*
X190876262Y-69142000D01*
X176513168Y-69142000D01*
X174094248Y-66723080D01*
X177359525Y-66723080D01*
X177443208Y-66977261D01*
X177715775Y-67108158D01*
X178008642Y-67183365D01*
X178310553Y-67199991D01*
X178609907Y-67157397D01*
X178895199Y-67057222D01*
X179044792Y-66977261D01*
X179128475Y-66723080D01*
X178244000Y-65838605D01*
X177359525Y-66723080D01*
X174094248Y-66723080D01*
X173259746Y-65888579D01*
X173233591Y-65856709D01*
X173106446Y-65752364D01*
X173056287Y-65725553D01*
X176703009Y-65725553D01*
X176745603Y-66024907D01*
X176845778Y-66310199D01*
X176925739Y-66459792D01*
X177179920Y-66543475D01*
X178064395Y-65659000D01*
X177179920Y-64774525D01*
X176925739Y-64858208D01*
X176794842Y-65130775D01*
X176719635Y-65423642D01*
X176703009Y-65725553D01*
X173056287Y-65725553D01*
X172961387Y-65674828D01*
X172803989Y-65627082D01*
X172681319Y-65615000D01*
X172681318Y-65615000D01*
X172640300Y-65610960D01*
X172607396Y-65614201D01*
X172554637Y-65535241D01*
X172354759Y-65335363D01*
X172119727Y-65178320D01*
X171858574Y-65070147D01*
X171581335Y-65015000D01*
X171298665Y-65015000D01*
X171021426Y-65070147D01*
X170760273Y-65178320D01*
X170525241Y-65335363D01*
X170325363Y-65535241D01*
X170168320Y-65770273D01*
X170060147Y-66031426D01*
X170005000Y-66308665D01*
X170005000Y-66591335D01*
X170060147Y-66868574D01*
X170168320Y-67129727D01*
X170325363Y-67364759D01*
X170525241Y-67564637D01*
X170760273Y-67721680D01*
X171021426Y-67829853D01*
X171298665Y-67885000D01*
X171581335Y-67885000D01*
X171858574Y-67829853D01*
X172119727Y-67721680D01*
X172354759Y-67564637D01*
X172464414Y-67454982D01*
X175547859Y-70538427D01*
X175574009Y-70570291D01*
X175701154Y-70674636D01*
X175846213Y-70752172D01*
X176003611Y-70799918D01*
X176126281Y-70812000D01*
X176126283Y-70812000D01*
X176167299Y-70816040D01*
X176208315Y-70812000D01*
X190876262Y-70812000D01*
X191057337Y-71082998D01*
X191299002Y-71324663D01*
X191583169Y-71514537D01*
X191898919Y-71645325D01*
X192234117Y-71712000D01*
X192575883Y-71712000D01*
X192911081Y-71645325D01*
X193226831Y-71514537D01*
X193510998Y-71324663D01*
X193752663Y-71082998D01*
X193942537Y-70798831D01*
X193984700Y-70697040D01*
X193984700Y-78620561D01*
X193956185Y-78585815D01*
X193859494Y-78506463D01*
X193749180Y-78447498D01*
X193629482Y-78411188D01*
X193505000Y-78398928D01*
X191305000Y-78398928D01*
X191180518Y-78411188D01*
X191060820Y-78447498D01*
X190950506Y-78506463D01*
X190853815Y-78585815D01*
X190774463Y-78682506D01*
X190715498Y-78792820D01*
X190679188Y-78912518D01*
X190666928Y-79037000D01*
X190666928Y-81237000D01*
X190679188Y-81361482D01*
X190715498Y-81481180D01*
X190774463Y-81591494D01*
X190853815Y-81688185D01*
X190950506Y-81767537D01*
X191060820Y-81826502D01*
X191180518Y-81862812D01*
X191305000Y-81875072D01*
X193505000Y-81875072D01*
X193629482Y-81862812D01*
X193749180Y-81826502D01*
X193859494Y-81767537D01*
X193956185Y-81688185D01*
X193984700Y-81653439D01*
X193984701Y-93509433D01*
X193947663Y-93454002D01*
X193705998Y-93212337D01*
X193421831Y-93022463D01*
X193106081Y-92891675D01*
X192770883Y-92825000D01*
X192429117Y-92825000D01*
X192093919Y-92891675D01*
X191778169Y-93022463D01*
X191494002Y-93212337D01*
X191252337Y-93454002D01*
X191062463Y-93738169D01*
X190931675Y-94053919D01*
X190865000Y-94389117D01*
X190865000Y-94730883D01*
X190931675Y-95066081D01*
X191062463Y-95381831D01*
X191252337Y-95665998D01*
X191494002Y-95907663D01*
X191778169Y-96097537D01*
X192093919Y-96228325D01*
X192429117Y-96295000D01*
X192770883Y-96295000D01*
X193106081Y-96228325D01*
X193421831Y-96097537D01*
X193705998Y-95907663D01*
X193947663Y-95665998D01*
X193984701Y-95610567D01*
X193984701Y-101941671D01*
X193980660Y-101982700D01*
X193996782Y-102146388D01*
X194044528Y-102303786D01*
X194122064Y-102448845D01*
X194122065Y-102448846D01*
X194226410Y-102575991D01*
X194258274Y-102602141D01*
X195560714Y-103904583D01*
X195542000Y-103998665D01*
X195542000Y-104281335D01*
X195597147Y-104558574D01*
X195705320Y-104819727D01*
X195862363Y-105054759D01*
X196062241Y-105254637D01*
X196297273Y-105411680D01*
X196558426Y-105519853D01*
X196835665Y-105575000D01*
X197118335Y-105575000D01*
X197356201Y-105527685D01*
X197356201Y-108838805D01*
X197320759Y-108803363D01*
X197085727Y-108646320D01*
X196824574Y-108538147D01*
X196547335Y-108483000D01*
X196264665Y-108483000D01*
X195987426Y-108538147D01*
X195726273Y-108646320D01*
X195491241Y-108803363D01*
X195381586Y-108913018D01*
X191352746Y-104884179D01*
X191326591Y-104852309D01*
X191199446Y-104747964D01*
X191054387Y-104670428D01*
X190896989Y-104622682D01*
X190774319Y-104610600D01*
X190774318Y-104610600D01*
X190733300Y-104606560D01*
X190692282Y-104610600D01*
X175125368Y-104610600D01*
X173693989Y-103179221D01*
X174264000Y-103182072D01*
X174388482Y-103169812D01*
X174508180Y-103133502D01*
X174618494Y-103074537D01*
X174715185Y-102995185D01*
X174794537Y-102898494D01*
X174853502Y-102788180D01*
X174859056Y-102769873D01*
X174925495Y-102836312D01*
X175176905Y-103004299D01*
X175456257Y-103120011D01*
X175752816Y-103179000D01*
X176055184Y-103179000D01*
X176351743Y-103120011D01*
X176631095Y-103004299D01*
X176882505Y-102836312D01*
X177096312Y-102622505D01*
X177264299Y-102371095D01*
X177380011Y-102091743D01*
X177439000Y-101795184D01*
X177439000Y-101492816D01*
X177380011Y-101196257D01*
X177264299Y-100916905D01*
X177096312Y-100665495D01*
X176882505Y-100451688D01*
X176631095Y-100283701D01*
X176351743Y-100167989D01*
X176055184Y-100109000D01*
X175752816Y-100109000D01*
X175583540Y-100142671D01*
X175531869Y-100091000D01*
X178348928Y-100091000D01*
X178348928Y-102941000D01*
X178361188Y-103065482D01*
X178397498Y-103185180D01*
X178456463Y-103295494D01*
X178535815Y-103392185D01*
X178632506Y-103471537D01*
X178742820Y-103530502D01*
X178862518Y-103566812D01*
X178987000Y-103579072D01*
X181837000Y-103579072D01*
X181961482Y-103566812D01*
X182081180Y-103530502D01*
X182191494Y-103471537D01*
X182288185Y-103392185D01*
X182367537Y-103295494D01*
X182426502Y-103185180D01*
X182462812Y-103065482D01*
X182473767Y-102954250D01*
X183853355Y-102954250D01*
X184000342Y-103262132D01*
X184362356Y-103445455D01*
X184753178Y-103554629D01*
X185157789Y-103585460D01*
X185560641Y-103536763D01*
X185946252Y-103410408D01*
X186223658Y-103262132D01*
X186370645Y-102954250D01*
X185112000Y-101695605D01*
X183853355Y-102954250D01*
X182473767Y-102954250D01*
X182475072Y-102941000D01*
X182475072Y-101561789D01*
X183042540Y-101561789D01*
X183091237Y-101964641D01*
X183217592Y-102350252D01*
X183365868Y-102627658D01*
X183673750Y-102774645D01*
X184932395Y-101516000D01*
X185291605Y-101516000D01*
X186550250Y-102774645D01*
X186858132Y-102627658D01*
X187041455Y-102265644D01*
X187150629Y-101874822D01*
X187181460Y-101470211D01*
X187162470Y-101313108D01*
X187752000Y-101313108D01*
X187752000Y-101718892D01*
X187831165Y-102116880D01*
X187986452Y-102491776D01*
X188211894Y-102829173D01*
X188498827Y-103116106D01*
X188836224Y-103341548D01*
X189211120Y-103496835D01*
X189609108Y-103576000D01*
X190014892Y-103576000D01*
X190412880Y-103496835D01*
X190787776Y-103341548D01*
X191125173Y-103116106D01*
X191412106Y-102829173D01*
X191637548Y-102491776D01*
X191792835Y-102116880D01*
X191872000Y-101718892D01*
X191872000Y-101313108D01*
X191792835Y-100915120D01*
X191637548Y-100540224D01*
X191412106Y-100202827D01*
X191125173Y-99915894D01*
X190787776Y-99690452D01*
X190412880Y-99535165D01*
X190014892Y-99456000D01*
X189609108Y-99456000D01*
X189211120Y-99535165D01*
X188836224Y-99690452D01*
X188498827Y-99915894D01*
X188211894Y-100202827D01*
X187986452Y-100540224D01*
X187831165Y-100915120D01*
X187752000Y-101313108D01*
X187162470Y-101313108D01*
X187132763Y-101067359D01*
X187006408Y-100681748D01*
X186858132Y-100404342D01*
X186550250Y-100257355D01*
X185291605Y-101516000D01*
X184932395Y-101516000D01*
X183673750Y-100257355D01*
X183365868Y-100404342D01*
X183182545Y-100766356D01*
X183073371Y-101157178D01*
X183042540Y-101561789D01*
X182475072Y-101561789D01*
X182475072Y-100091000D01*
X182473768Y-100077750D01*
X183853355Y-100077750D01*
X185112000Y-101336395D01*
X186370645Y-100077750D01*
X186223658Y-99769868D01*
X185861644Y-99586545D01*
X185470822Y-99477371D01*
X185066211Y-99446540D01*
X184663359Y-99495237D01*
X184277748Y-99621592D01*
X184000342Y-99769868D01*
X183853355Y-100077750D01*
X182473768Y-100077750D01*
X182462812Y-99966518D01*
X182426502Y-99846820D01*
X182367537Y-99736506D01*
X182288185Y-99639815D01*
X182191494Y-99560463D01*
X182081180Y-99501498D01*
X181961482Y-99465188D01*
X181837000Y-99452928D01*
X178987000Y-99452928D01*
X178862518Y-99465188D01*
X178742820Y-99501498D01*
X178632506Y-99560463D01*
X178535815Y-99639815D01*
X178456463Y-99736506D01*
X178397498Y-99846820D01*
X178361188Y-99966518D01*
X178348928Y-100091000D01*
X175531869Y-100091000D01*
X171726200Y-96285333D01*
X171726200Y-73682869D01*
X171797000Y-73753669D01*
X171797001Y-88003171D01*
X171792960Y-88044200D01*
X171809082Y-88207888D01*
X171856828Y-88365286D01*
X171856829Y-88365287D01*
X171934365Y-88510346D01*
X172038710Y-88637491D01*
X172070574Y-88663641D01*
X180239908Y-96832976D01*
X180268774Y-96978098D01*
X180346795Y-97166456D01*
X180460063Y-97335974D01*
X180604226Y-97480137D01*
X180773744Y-97593405D01*
X180962102Y-97671426D01*
X181162061Y-97711200D01*
X181365939Y-97711200D01*
X181565898Y-97671426D01*
X181754256Y-97593405D01*
X181923774Y-97480137D01*
X182067937Y-97335974D01*
X182181205Y-97166456D01*
X182259226Y-96978098D01*
X182299000Y-96778139D01*
X182299000Y-96574261D01*
X182259226Y-96374302D01*
X182227650Y-96298072D01*
X183540000Y-96298072D01*
X183664482Y-96285812D01*
X183784180Y-96249502D01*
X183894494Y-96190537D01*
X183991185Y-96111185D01*
X184070537Y-96014494D01*
X184129502Y-95904180D01*
X184165812Y-95784482D01*
X184178072Y-95660000D01*
X184178072Y-93460000D01*
X184165812Y-93335518D01*
X184129502Y-93215820D01*
X184070537Y-93105506D01*
X183991185Y-93008815D01*
X183894494Y-92929463D01*
X183784180Y-92870498D01*
X183664482Y-92834188D01*
X183540000Y-92821928D01*
X181340000Y-92821928D01*
X181215518Y-92834188D01*
X181095820Y-92870498D01*
X180985506Y-92929463D01*
X180888815Y-93008815D01*
X180809463Y-93105506D01*
X180750498Y-93215820D01*
X180714188Y-93335518D01*
X180701928Y-93460000D01*
X180701928Y-94933260D01*
X173467000Y-87698333D01*
X173467000Y-85392080D01*
X177359525Y-85392080D01*
X177443208Y-85646261D01*
X177715775Y-85777158D01*
X178008642Y-85852365D01*
X178310553Y-85868991D01*
X178609907Y-85826397D01*
X178895199Y-85726222D01*
X179044792Y-85646261D01*
X179128475Y-85392080D01*
X178244000Y-84507605D01*
X177359525Y-85392080D01*
X173467000Y-85392080D01*
X173467000Y-84394553D01*
X176703009Y-84394553D01*
X176745603Y-84693907D01*
X176845778Y-84979199D01*
X176925739Y-85128792D01*
X177179920Y-85212475D01*
X178064395Y-84328000D01*
X178423605Y-84328000D01*
X179308080Y-85212475D01*
X179456262Y-85163690D01*
X179551688Y-85306505D01*
X179765495Y-85520312D01*
X180016905Y-85688299D01*
X180296257Y-85804011D01*
X180592816Y-85863000D01*
X180895184Y-85863000D01*
X181191743Y-85804011D01*
X181471095Y-85688299D01*
X181722505Y-85520312D01*
X181936312Y-85306505D01*
X181994000Y-85220169D01*
X182051688Y-85306505D01*
X182265495Y-85520312D01*
X182516905Y-85688299D01*
X182796257Y-85804011D01*
X183092816Y-85863000D01*
X183395184Y-85863000D01*
X183691743Y-85804011D01*
X183971095Y-85688299D01*
X184222505Y-85520312D01*
X184436312Y-85306505D01*
X184604299Y-85055095D01*
X184720011Y-84775743D01*
X184779000Y-84479184D01*
X184779000Y-84176816D01*
X184720011Y-83880257D01*
X184604299Y-83600905D01*
X184436312Y-83349495D01*
X184222505Y-83135688D01*
X183971095Y-82967701D01*
X183691743Y-82851989D01*
X183395184Y-82793000D01*
X183092816Y-82793000D01*
X182796257Y-82851989D01*
X182516905Y-82967701D01*
X182265495Y-83135688D01*
X182051688Y-83349495D01*
X181994000Y-83435831D01*
X181936312Y-83349495D01*
X181722505Y-83135688D01*
X181471095Y-82967701D01*
X181191743Y-82851989D01*
X180895184Y-82793000D01*
X180592816Y-82793000D01*
X180296257Y-82851989D01*
X180016905Y-82967701D01*
X179765495Y-83135688D01*
X179551688Y-83349495D01*
X179456262Y-83492310D01*
X179308080Y-83443525D01*
X178423605Y-84328000D01*
X178064395Y-84328000D01*
X177179920Y-83443525D01*
X176925739Y-83527208D01*
X176794842Y-83799775D01*
X176719635Y-84092642D01*
X176703009Y-84394553D01*
X173467000Y-84394553D01*
X173467000Y-83263920D01*
X177359525Y-83263920D01*
X178244000Y-84148395D01*
X179128475Y-83263920D01*
X179044792Y-83009739D01*
X178772225Y-82878842D01*
X178479358Y-82803635D01*
X178177447Y-82787009D01*
X177878093Y-82829603D01*
X177592801Y-82929778D01*
X177443208Y-83009739D01*
X177359525Y-83263920D01*
X173467000Y-83263920D01*
X173467000Y-77068475D01*
X173709000Y-77068475D01*
X173709000Y-77587525D01*
X173810261Y-78096601D01*
X174008893Y-78576141D01*
X174297262Y-79007715D01*
X174664285Y-79374738D01*
X175095859Y-79663107D01*
X175575399Y-79861739D01*
X176084475Y-79963000D01*
X176603525Y-79963000D01*
X177112601Y-79861739D01*
X177592141Y-79663107D01*
X178023715Y-79374738D01*
X178390738Y-79007715D01*
X178679107Y-78576141D01*
X178877739Y-78096601D01*
X178979000Y-77587525D01*
X178979000Y-77068475D01*
X182509000Y-77068475D01*
X182509000Y-77587525D01*
X182610261Y-78096601D01*
X182808893Y-78576141D01*
X183097262Y-79007715D01*
X183464285Y-79374738D01*
X183895859Y-79663107D01*
X184375399Y-79861739D01*
X184884475Y-79963000D01*
X185403525Y-79963000D01*
X185912601Y-79861739D01*
X186392141Y-79663107D01*
X186823715Y-79374738D01*
X187190738Y-79007715D01*
X187479107Y-78576141D01*
X187677739Y-78096601D01*
X187779000Y-77587525D01*
X187779000Y-77068475D01*
X187677739Y-76559399D01*
X187479107Y-76079859D01*
X187190738Y-75648285D01*
X186823715Y-75281262D01*
X186392141Y-74992893D01*
X185912601Y-74794261D01*
X185403525Y-74693000D01*
X184884475Y-74693000D01*
X184375399Y-74794261D01*
X183895859Y-74992893D01*
X183464285Y-75281262D01*
X183097262Y-75648285D01*
X182808893Y-76079859D01*
X182610261Y-76559399D01*
X182509000Y-77068475D01*
X178979000Y-77068475D01*
X178877739Y-76559399D01*
X178679107Y-76079859D01*
X178390738Y-75648285D01*
X178023715Y-75281262D01*
X177592141Y-74992893D01*
X177112601Y-74794261D01*
X176603525Y-74693000D01*
X176084475Y-74693000D01*
X175575399Y-74794261D01*
X175095859Y-74992893D01*
X174664285Y-75281262D01*
X174297262Y-75648285D01*
X174008893Y-76079859D01*
X173810261Y-76559399D01*
X173709000Y-77068475D01*
X173467000Y-77068475D01*
X173467000Y-73448818D01*
X173471040Y-73407800D01*
X173454918Y-73244112D01*
X173441572Y-73200114D01*
X173407172Y-73086713D01*
X173329636Y-72941654D01*
X173225291Y-72814509D01*
X173193433Y-72788364D01*
X165825300Y-65420233D01*
X165825300Y-62228665D01*
X169975000Y-62228665D01*
X169975000Y-62511335D01*
X170030147Y-62788574D01*
X170138320Y-63049727D01*
X170295363Y-63284759D01*
X170495241Y-63484637D01*
X170730273Y-63641680D01*
X170991426Y-63749853D01*
X171268665Y-63805000D01*
X171551335Y-63805000D01*
X171828574Y-63749853D01*
X172089727Y-63641680D01*
X172324759Y-63484637D01*
X172524637Y-63284759D01*
X172577930Y-63205000D01*
X177109133Y-63205000D01*
X178041487Y-64137354D01*
X177878093Y-64160603D01*
X177592801Y-64260778D01*
X177443208Y-64340739D01*
X177359525Y-64594920D01*
X178244000Y-65479395D01*
X178258143Y-65465253D01*
X178437748Y-65644858D01*
X178423605Y-65659000D01*
X179308080Y-66543475D01*
X179456262Y-66494690D01*
X179551688Y-66637505D01*
X179765495Y-66851312D01*
X180016905Y-67019299D01*
X180296257Y-67135011D01*
X180592816Y-67194000D01*
X180895184Y-67194000D01*
X181191743Y-67135011D01*
X181471095Y-67019299D01*
X181722505Y-66851312D01*
X181936312Y-66637505D01*
X181994000Y-66551169D01*
X182051688Y-66637505D01*
X182265495Y-66851312D01*
X182516905Y-67019299D01*
X182796257Y-67135011D01*
X183092816Y-67194000D01*
X183395184Y-67194000D01*
X183691743Y-67135011D01*
X183971095Y-67019299D01*
X184222505Y-66851312D01*
X184436312Y-66637505D01*
X184604299Y-66386095D01*
X184720011Y-66106743D01*
X184779000Y-65810184D01*
X184779000Y-65507816D01*
X184720011Y-65211257D01*
X184604299Y-64931905D01*
X184436312Y-64680495D01*
X184222505Y-64466688D01*
X183971095Y-64298701D01*
X183691743Y-64182989D01*
X183395184Y-64124000D01*
X183092816Y-64124000D01*
X182796257Y-64182989D01*
X182516905Y-64298701D01*
X182265495Y-64466688D01*
X182051688Y-64680495D01*
X181994000Y-64766831D01*
X181936312Y-64680495D01*
X181722505Y-64466688D01*
X181471095Y-64298701D01*
X181191743Y-64182989D01*
X180895184Y-64124000D01*
X180592816Y-64124000D01*
X180423539Y-64157671D01*
X178074446Y-61808579D01*
X178048291Y-61776709D01*
X177921146Y-61672364D01*
X177776087Y-61594828D01*
X177618689Y-61547082D01*
X177496019Y-61535000D01*
X177496018Y-61535000D01*
X177455000Y-61530960D01*
X177413982Y-61535000D01*
X172577930Y-61535000D01*
X172524637Y-61455241D01*
X172324759Y-61255363D01*
X172089727Y-61098320D01*
X171828574Y-60990147D01*
X171551335Y-60935000D01*
X171268665Y-60935000D01*
X170991426Y-60990147D01*
X170730273Y-61098320D01*
X170495241Y-61255363D01*
X170295363Y-61455241D01*
X170138320Y-61690273D01*
X170030147Y-61951426D01*
X169975000Y-62228665D01*
X165825300Y-62228665D01*
X165825300Y-61021618D01*
X165829340Y-60980600D01*
X165813218Y-60816912D01*
X165765472Y-60659513D01*
X165743999Y-60619340D01*
X165687936Y-60514454D01*
X165583591Y-60387309D01*
X165551733Y-60361164D01*
X164794982Y-59604414D01*
X164904637Y-59494759D01*
X165061680Y-59259727D01*
X165169853Y-58998574D01*
X165225000Y-58721335D01*
X165225000Y-58438665D01*
X165169853Y-58161426D01*
X165061680Y-57900273D01*
X164904637Y-57665241D01*
X164704759Y-57465363D01*
X164469727Y-57308320D01*
X164208574Y-57200147D01*
X163931335Y-57145000D01*
X163648665Y-57145000D01*
X163371426Y-57200147D01*
X163110273Y-57308320D01*
X162875241Y-57465363D01*
X162675363Y-57665241D01*
X162518320Y-57900273D01*
X162458000Y-58045899D01*
X162458000Y-55392543D01*
X162494320Y-55480227D01*
X162651363Y-55715259D01*
X162851241Y-55915137D01*
X163086273Y-56072180D01*
X163347426Y-56180353D01*
X163624665Y-56235500D01*
X163907335Y-56235500D01*
X164184574Y-56180353D01*
X164445727Y-56072180D01*
X164680759Y-55915137D01*
X164880637Y-55715259D01*
X165037680Y-55480227D01*
X165145853Y-55219074D01*
X165201000Y-54941835D01*
X165201000Y-54659165D01*
X169951000Y-54659165D01*
X169951000Y-54941835D01*
X170006147Y-55219074D01*
X170114320Y-55480227D01*
X170271363Y-55715259D01*
X170471241Y-55915137D01*
X170706273Y-56072180D01*
X170967426Y-56180353D01*
X171244665Y-56235500D01*
X171527335Y-56235500D01*
X171804574Y-56180353D01*
X172065727Y-56072180D01*
X172300759Y-55915137D01*
X172500637Y-55715259D01*
X172657680Y-55480227D01*
X172765853Y-55219074D01*
X172821000Y-54941835D01*
X172821000Y-54659165D01*
X172765853Y-54381926D01*
X172657680Y-54120773D01*
X172500637Y-53885741D01*
X172300759Y-53685863D01*
X172065727Y-53528820D01*
X171804574Y-53420647D01*
X171527335Y-53365500D01*
X171244665Y-53365500D01*
X170967426Y-53420647D01*
X170706273Y-53528820D01*
X170471241Y-53685863D01*
X170271363Y-53885741D01*
X170114320Y-54120773D01*
X170006147Y-54381926D01*
X169951000Y-54659165D01*
X165201000Y-54659165D01*
X165145853Y-54381926D01*
X165037680Y-54120773D01*
X164880637Y-53885741D01*
X164680759Y-53685863D01*
X164445727Y-53528820D01*
X164184574Y-53420647D01*
X163907335Y-53365500D01*
X163624665Y-53365500D01*
X163347426Y-53420647D01*
X163086273Y-53528820D01*
X162851241Y-53685863D01*
X162651363Y-53885741D01*
X162494320Y-54120773D01*
X162458000Y-54208457D01*
X162458000Y-52013012D01*
X162502506Y-52049537D01*
X162612820Y-52108502D01*
X162732518Y-52144812D01*
X162857000Y-52157072D01*
X165057000Y-52157072D01*
X165181482Y-52144812D01*
X165301180Y-52108502D01*
X165411494Y-52049537D01*
X165508185Y-51970185D01*
X165587537Y-51873494D01*
X165646502Y-51763180D01*
X165682812Y-51643482D01*
X165695072Y-51519000D01*
X165695072Y-50815122D01*
X172427825Y-50815122D01*
X172492425Y-51028094D01*
X172642469Y-51333329D01*
X172849178Y-51603427D01*
X173104609Y-51828008D01*
X173398946Y-51998442D01*
X173720877Y-52108179D01*
X173990000Y-51990600D01*
X173990000Y-50546000D01*
X174244000Y-50546000D01*
X174244000Y-51990600D01*
X174513123Y-52108179D01*
X174835054Y-51998442D01*
X175129391Y-51828008D01*
X175384822Y-51603427D01*
X175591531Y-51333329D01*
X175741575Y-51028094D01*
X175806175Y-50815122D01*
X175688125Y-50546000D01*
X174244000Y-50546000D01*
X173990000Y-50546000D01*
X172545875Y-50546000D01*
X172427825Y-50815122D01*
X165695072Y-50815122D01*
X165695072Y-50489512D01*
X176757783Y-50489512D01*
X176799213Y-50769130D01*
X176894397Y-51035292D01*
X176961329Y-51160514D01*
X177205298Y-51232097D01*
X178018395Y-50419000D01*
X177205298Y-49605903D01*
X176961329Y-49677486D01*
X176840429Y-49932996D01*
X176771700Y-50207184D01*
X176757783Y-50489512D01*
X165695072Y-50489512D01*
X165695072Y-50022878D01*
X172427825Y-50022878D01*
X172545875Y-50292000D01*
X173990000Y-50292000D01*
X173990000Y-48847400D01*
X174244000Y-48847400D01*
X174244000Y-50292000D01*
X175688125Y-50292000D01*
X175806175Y-50022878D01*
X175741575Y-49809906D01*
X175591531Y-49504671D01*
X175531552Y-49426298D01*
X177384903Y-49426298D01*
X178198000Y-50239395D01*
X179011097Y-49426298D01*
X178939514Y-49182329D01*
X178684004Y-49061429D01*
X178409816Y-48992700D01*
X178127488Y-48978783D01*
X177847870Y-49020213D01*
X177581708Y-49115397D01*
X177456486Y-49182329D01*
X177384903Y-49426298D01*
X175531552Y-49426298D01*
X175384822Y-49234573D01*
X175129391Y-49009992D01*
X174835054Y-48839558D01*
X174513123Y-48729821D01*
X174244000Y-48847400D01*
X173990000Y-48847400D01*
X173720877Y-48729821D01*
X173398946Y-48839558D01*
X173104609Y-49009992D01*
X172849178Y-49234573D01*
X172642469Y-49504671D01*
X172492425Y-49809906D01*
X172427825Y-50022878D01*
X165695072Y-50022878D01*
X165695072Y-49319000D01*
X165682812Y-49194518D01*
X165646502Y-49074820D01*
X165587537Y-48964506D01*
X165508185Y-48867815D01*
X165411494Y-48788463D01*
X165301180Y-48729498D01*
X165181482Y-48693188D01*
X165057000Y-48680928D01*
X162857000Y-48680928D01*
X162732518Y-48693188D01*
X162612820Y-48729498D01*
X162502506Y-48788463D01*
X162458000Y-48824988D01*
X162458000Y-48412000D01*
X180763131Y-48412000D01*
X179456607Y-49718525D01*
G36*
X173491000Y-101517000D02*
G01*
X173511000Y-101517000D01*
X173511000Y-101771000D01*
X173491000Y-101771000D01*
X173491000Y-101791000D01*
X173237000Y-101791000D01*
X173237000Y-101771000D01*
X173217000Y-101771000D01*
X173217000Y-101517000D01*
X173237000Y-101517000D01*
X173237000Y-101497000D01*
X173491000Y-101497000D01*
X173491000Y-101517000D01*
G37*
X173491000Y-101517000D02*
X173511000Y-101517000D01*
X173511000Y-101771000D01*
X173491000Y-101771000D01*
X173491000Y-101791000D01*
X173237000Y-101791000D01*
X173237000Y-101771000D01*
X173217000Y-101771000D01*
X173217000Y-101517000D01*
X173237000Y-101517000D01*
X173237000Y-101497000D01*
X173491000Y-101497000D01*
X173491000Y-101517000D01*
G36*
X185903928Y-51328500D02*
G01*
X185916188Y-51452982D01*
X185952498Y-51572680D01*
X186011463Y-51682994D01*
X186090815Y-51779685D01*
X186187506Y-51859037D01*
X186297820Y-51918002D01*
X186417518Y-51954312D01*
X186542000Y-51966572D01*
X188742000Y-51966572D01*
X188866482Y-51954312D01*
X188986180Y-51918002D01*
X189096494Y-51859037D01*
X189193185Y-51779685D01*
X189272537Y-51682994D01*
X189331502Y-51572680D01*
X189367812Y-51452982D01*
X189380072Y-51328500D01*
X189380072Y-49563100D01*
X194455433Y-49563100D01*
X195682259Y-50789926D01*
X195708409Y-50821791D01*
X195809805Y-50905004D01*
X195835554Y-50926136D01*
X195980613Y-51003672D01*
X196138011Y-51051418D01*
X196274149Y-51064826D01*
X196454337Y-51334498D01*
X196696002Y-51576163D01*
X196980169Y-51766037D01*
X197295919Y-51896825D01*
X197631117Y-51963500D01*
X197972883Y-51963500D01*
X198308081Y-51896825D01*
X198623831Y-51766037D01*
X198907998Y-51576163D01*
X199149663Y-51334498D01*
X199238000Y-51202292D01*
X199238000Y-53198993D01*
X199227185Y-53185815D01*
X199130494Y-53106463D01*
X199020180Y-53047498D01*
X198900482Y-53011188D01*
X198776000Y-52998928D01*
X196576000Y-52998928D01*
X196451518Y-53011188D01*
X196331820Y-53047498D01*
X196221506Y-53106463D01*
X196124815Y-53185815D01*
X196045463Y-53282506D01*
X195986498Y-53392820D01*
X195950188Y-53512518D01*
X195937928Y-53637000D01*
X195937928Y-55837000D01*
X195950188Y-55961482D01*
X195986498Y-56081180D01*
X196045463Y-56191494D01*
X196124815Y-56288185D01*
X196221506Y-56367537D01*
X196331820Y-56426502D01*
X196451518Y-56462812D01*
X196576000Y-56475072D01*
X198776000Y-56475072D01*
X198900482Y-56462812D01*
X199020180Y-56426502D01*
X199130494Y-56367537D01*
X199227185Y-56288185D01*
X199238000Y-56275007D01*
X199238000Y-64134228D01*
X199213537Y-64075169D01*
X199023663Y-63791002D01*
X198781998Y-63549337D01*
X198497831Y-63359463D01*
X198182081Y-63228675D01*
X197846883Y-63162000D01*
X197505117Y-63162000D01*
X197169919Y-63228675D01*
X196854169Y-63359463D01*
X196570002Y-63549337D01*
X196328337Y-63791002D01*
X196138463Y-64075169D01*
X196007675Y-64390919D01*
X195941000Y-64726117D01*
X195941000Y-65067883D01*
X196007675Y-65403081D01*
X196138463Y-65718831D01*
X196328337Y-66002998D01*
X196570002Y-66244663D01*
X196839674Y-66424852D01*
X196853082Y-66560988D01*
X196900828Y-66718386D01*
X196971879Y-66851312D01*
X196978365Y-66863446D01*
X197082710Y-66990591D01*
X197086382Y-66993605D01*
X197002906Y-67018925D01*
X196697671Y-67168969D01*
X196427573Y-67375678D01*
X196202992Y-67631109D01*
X196032558Y-67925446D01*
X195922821Y-68247377D01*
X196040400Y-68516500D01*
X197485000Y-68516500D01*
X197485000Y-68496500D01*
X197739000Y-68496500D01*
X197739000Y-68516500D01*
X197759000Y-68516500D01*
X197759000Y-68770500D01*
X197739000Y-68770500D01*
X197739000Y-70214625D01*
X198008122Y-70332675D01*
X198221094Y-70268075D01*
X198284501Y-70236906D01*
X198284501Y-77065428D01*
X196512000Y-77065428D01*
X196387518Y-77077688D01*
X196267820Y-77113998D01*
X196157506Y-77172963D01*
X196060815Y-77252315D01*
X195981463Y-77349006D01*
X195922498Y-77459320D01*
X195886188Y-77579018D01*
X195873928Y-77703500D01*
X195873928Y-79903500D01*
X195886188Y-80027982D01*
X195922498Y-80147680D01*
X195981463Y-80257994D01*
X196060815Y-80354685D01*
X196157506Y-80434037D01*
X196267820Y-80493002D01*
X196387518Y-80529312D01*
X196512000Y-80541572D01*
X198284501Y-80541572D01*
X198284501Y-81083594D01*
X198221094Y-81052425D01*
X198008122Y-80987825D01*
X197739000Y-81105875D01*
X197739000Y-82550000D01*
X197759000Y-82550000D01*
X197759000Y-82804000D01*
X197739000Y-82804000D01*
X197739000Y-84248125D01*
X198008122Y-84366175D01*
X198221094Y-84301575D01*
X198284501Y-84270406D01*
X198284501Y-91098928D01*
X196512000Y-91098928D01*
X196387518Y-91111188D01*
X196267820Y-91147498D01*
X196157506Y-91206463D01*
X196060815Y-91285815D01*
X195981463Y-91382506D01*
X195922498Y-91492820D01*
X195886188Y-91612518D01*
X195873928Y-91737000D01*
X195873928Y-93937000D01*
X195886188Y-94061482D01*
X195922498Y-94181180D01*
X195981463Y-94291494D01*
X196060815Y-94388185D01*
X196157506Y-94467537D01*
X196267820Y-94526502D01*
X196387518Y-94562812D01*
X196512000Y-94575072D01*
X196811555Y-94575072D01*
X196836828Y-94658386D01*
X196887300Y-94752812D01*
X196914365Y-94803446D01*
X197018710Y-94930591D01*
X197050574Y-94956741D01*
X197193855Y-95100022D01*
X197118335Y-95085000D01*
X196835665Y-95085000D01*
X196558426Y-95140147D01*
X196297273Y-95248320D01*
X196062241Y-95405363D01*
X195862363Y-95605241D01*
X195705320Y-95840273D01*
X195654700Y-95962481D01*
X195654700Y-83073123D01*
X195922821Y-83073123D01*
X196032558Y-83395054D01*
X196202992Y-83689391D01*
X196427573Y-83944822D01*
X196697671Y-84151531D01*
X197002906Y-84301575D01*
X197215878Y-84366175D01*
X197485000Y-84248125D01*
X197485000Y-82804000D01*
X196040400Y-82804000D01*
X195922821Y-83073123D01*
X195654700Y-83073123D01*
X195654700Y-82280877D01*
X195922821Y-82280877D01*
X196040400Y-82550000D01*
X197485000Y-82550000D01*
X197485000Y-81105875D01*
X197215878Y-80987825D01*
X197002906Y-81052425D01*
X196697671Y-81202469D01*
X196427573Y-81409178D01*
X196202992Y-81664609D01*
X196032558Y-81958946D01*
X195922821Y-82280877D01*
X195654700Y-82280877D01*
X195654700Y-69039623D01*
X195922821Y-69039623D01*
X196032558Y-69361554D01*
X196202992Y-69655891D01*
X196427573Y-69911322D01*
X196697671Y-70118031D01*
X197002906Y-70268075D01*
X197215878Y-70332675D01*
X197485000Y-70214625D01*
X197485000Y-68770500D01*
X196040400Y-68770500D01*
X195922821Y-69039623D01*
X195654700Y-69039623D01*
X195654700Y-62081718D01*
X195658740Y-62040700D01*
X195642618Y-61877012D01*
X195594872Y-61719613D01*
X195517336Y-61574554D01*
X195439139Y-61479270D01*
X195439137Y-61479268D01*
X195412991Y-61447409D01*
X195381133Y-61421264D01*
X189092991Y-55133123D01*
X190715821Y-55133123D01*
X190825558Y-55455054D01*
X190995992Y-55749391D01*
X191220573Y-56004822D01*
X191490671Y-56211531D01*
X191795906Y-56361575D01*
X192008878Y-56426175D01*
X192278000Y-56308125D01*
X192278000Y-54864000D01*
X192532000Y-54864000D01*
X192532000Y-56308125D01*
X192801122Y-56426175D01*
X193014094Y-56361575D01*
X193319329Y-56211531D01*
X193589427Y-56004822D01*
X193814008Y-55749391D01*
X193984442Y-55455054D01*
X194094179Y-55133123D01*
X193976600Y-54864000D01*
X192532000Y-54864000D01*
X192278000Y-54864000D01*
X190833400Y-54864000D01*
X190715821Y-55133123D01*
X189092991Y-55133123D01*
X188300745Y-54340877D01*
X190715821Y-54340877D01*
X190833400Y-54610000D01*
X192278000Y-54610000D01*
X192278000Y-53165875D01*
X192532000Y-53165875D01*
X192532000Y-54610000D01*
X193976600Y-54610000D01*
X194094179Y-54340877D01*
X193984442Y-54018946D01*
X193814008Y-53724609D01*
X193589427Y-53469178D01*
X193319329Y-53262469D01*
X193014094Y-53112425D01*
X192801122Y-53047825D01*
X192532000Y-53165875D01*
X192278000Y-53165875D01*
X192008878Y-53047825D01*
X191795906Y-53112425D01*
X191490671Y-53262469D01*
X191220573Y-53469178D01*
X190995992Y-53724609D01*
X190825558Y-54018946D01*
X190715821Y-54340877D01*
X188300745Y-54340877D01*
X184614285Y-50654418D01*
X184633000Y-50560335D01*
X184633000Y-50277665D01*
X184577853Y-50000426D01*
X184469680Y-49739273D01*
X184351965Y-49563100D01*
X185903928Y-49563100D01*
X185903928Y-51328500D01*
G37*
X185903928Y-51328500D02*
X185916188Y-51452982D01*
X185952498Y-51572680D01*
X186011463Y-51682994D01*
X186090815Y-51779685D01*
X186187506Y-51859037D01*
X186297820Y-51918002D01*
X186417518Y-51954312D01*
X186542000Y-51966572D01*
X188742000Y-51966572D01*
X188866482Y-51954312D01*
X188986180Y-51918002D01*
X189096494Y-51859037D01*
X189193185Y-51779685D01*
X189272537Y-51682994D01*
X189331502Y-51572680D01*
X189367812Y-51452982D01*
X189380072Y-51328500D01*
X189380072Y-49563100D01*
X194455433Y-49563100D01*
X195682259Y-50789926D01*
X195708409Y-50821791D01*
X195809805Y-50905004D01*
X195835554Y-50926136D01*
X195980613Y-51003672D01*
X196138011Y-51051418D01*
X196274149Y-51064826D01*
X196454337Y-51334498D01*
X196696002Y-51576163D01*
X196980169Y-51766037D01*
X197295919Y-51896825D01*
X197631117Y-51963500D01*
X197972883Y-51963500D01*
X198308081Y-51896825D01*
X198623831Y-51766037D01*
X198907998Y-51576163D01*
X199149663Y-51334498D01*
X199238000Y-51202292D01*
X199238000Y-53198993D01*
X199227185Y-53185815D01*
X199130494Y-53106463D01*
X199020180Y-53047498D01*
X198900482Y-53011188D01*
X198776000Y-52998928D01*
X196576000Y-52998928D01*
X196451518Y-53011188D01*
X196331820Y-53047498D01*
X196221506Y-53106463D01*
X196124815Y-53185815D01*
X196045463Y-53282506D01*
X195986498Y-53392820D01*
X195950188Y-53512518D01*
X195937928Y-53637000D01*
X195937928Y-55837000D01*
X195950188Y-55961482D01*
X195986498Y-56081180D01*
X196045463Y-56191494D01*
X196124815Y-56288185D01*
X196221506Y-56367537D01*
X196331820Y-56426502D01*
X196451518Y-56462812D01*
X196576000Y-56475072D01*
X198776000Y-56475072D01*
X198900482Y-56462812D01*
X199020180Y-56426502D01*
X199130494Y-56367537D01*
X199227185Y-56288185D01*
X199238000Y-56275007D01*
X199238000Y-64134228D01*
X199213537Y-64075169D01*
X199023663Y-63791002D01*
X198781998Y-63549337D01*
X198497831Y-63359463D01*
X198182081Y-63228675D01*
X197846883Y-63162000D01*
X197505117Y-63162000D01*
X197169919Y-63228675D01*
X196854169Y-63359463D01*
X196570002Y-63549337D01*
X196328337Y-63791002D01*
X196138463Y-64075169D01*
X196007675Y-64390919D01*
X195941000Y-64726117D01*
X195941000Y-65067883D01*
X196007675Y-65403081D01*
X196138463Y-65718831D01*
X196328337Y-66002998D01*
X196570002Y-66244663D01*
X196839674Y-66424852D01*
X196853082Y-66560988D01*
X196900828Y-66718386D01*
X196971879Y-66851312D01*
X196978365Y-66863446D01*
X197082710Y-66990591D01*
X197086382Y-66993605D01*
X197002906Y-67018925D01*
X196697671Y-67168969D01*
X196427573Y-67375678D01*
X196202992Y-67631109D01*
X196032558Y-67925446D01*
X195922821Y-68247377D01*
X196040400Y-68516500D01*
X197485000Y-68516500D01*
X197485000Y-68496500D01*
X197739000Y-68496500D01*
X197739000Y-68516500D01*
X197759000Y-68516500D01*
X197759000Y-68770500D01*
X197739000Y-68770500D01*
X197739000Y-70214625D01*
X198008122Y-70332675D01*
X198221094Y-70268075D01*
X198284501Y-70236906D01*
X198284501Y-77065428D01*
X196512000Y-77065428D01*
X196387518Y-77077688D01*
X196267820Y-77113998D01*
X196157506Y-77172963D01*
X196060815Y-77252315D01*
X195981463Y-77349006D01*
X195922498Y-77459320D01*
X195886188Y-77579018D01*
X195873928Y-77703500D01*
X195873928Y-79903500D01*
X195886188Y-80027982D01*
X195922498Y-80147680D01*
X195981463Y-80257994D01*
X196060815Y-80354685D01*
X196157506Y-80434037D01*
X196267820Y-80493002D01*
X196387518Y-80529312D01*
X196512000Y-80541572D01*
X198284501Y-80541572D01*
X198284501Y-81083594D01*
X198221094Y-81052425D01*
X198008122Y-80987825D01*
X197739000Y-81105875D01*
X197739000Y-82550000D01*
X197759000Y-82550000D01*
X197759000Y-82804000D01*
X197739000Y-82804000D01*
X197739000Y-84248125D01*
X198008122Y-84366175D01*
X198221094Y-84301575D01*
X198284501Y-84270406D01*
X198284501Y-91098928D01*
X196512000Y-91098928D01*
X196387518Y-91111188D01*
X196267820Y-91147498D01*
X196157506Y-91206463D01*
X196060815Y-91285815D01*
X195981463Y-91382506D01*
X195922498Y-91492820D01*
X195886188Y-91612518D01*
X195873928Y-91737000D01*
X195873928Y-93937000D01*
X195886188Y-94061482D01*
X195922498Y-94181180D01*
X195981463Y-94291494D01*
X196060815Y-94388185D01*
X196157506Y-94467537D01*
X196267820Y-94526502D01*
X196387518Y-94562812D01*
X196512000Y-94575072D01*
X196811555Y-94575072D01*
X196836828Y-94658386D01*
X196887300Y-94752812D01*
X196914365Y-94803446D01*
X197018710Y-94930591D01*
X197050574Y-94956741D01*
X197193855Y-95100022D01*
X197118335Y-95085000D01*
X196835665Y-95085000D01*
X196558426Y-95140147D01*
X196297273Y-95248320D01*
X196062241Y-95405363D01*
X195862363Y-95605241D01*
X195705320Y-95840273D01*
X195654700Y-95962481D01*
X195654700Y-83073123D01*
X195922821Y-83073123D01*
X196032558Y-83395054D01*
X196202992Y-83689391D01*
X196427573Y-83944822D01*
X196697671Y-84151531D01*
X197002906Y-84301575D01*
X197215878Y-84366175D01*
X197485000Y-84248125D01*
X197485000Y-82804000D01*
X196040400Y-82804000D01*
X195922821Y-83073123D01*
X195654700Y-83073123D01*
X195654700Y-82280877D01*
X195922821Y-82280877D01*
X196040400Y-82550000D01*
X197485000Y-82550000D01*
X197485000Y-81105875D01*
X197215878Y-80987825D01*
X197002906Y-81052425D01*
X196697671Y-81202469D01*
X196427573Y-81409178D01*
X196202992Y-81664609D01*
X196032558Y-81958946D01*
X195922821Y-82280877D01*
X195654700Y-82280877D01*
X195654700Y-69039623D01*
X195922821Y-69039623D01*
X196032558Y-69361554D01*
X196202992Y-69655891D01*
X196427573Y-69911322D01*
X196697671Y-70118031D01*
X197002906Y-70268075D01*
X197215878Y-70332675D01*
X197485000Y-70214625D01*
X197485000Y-68770500D01*
X196040400Y-68770500D01*
X195922821Y-69039623D01*
X195654700Y-69039623D01*
X195654700Y-62081718D01*
X195658740Y-62040700D01*
X195642618Y-61877012D01*
X195594872Y-61719613D01*
X195517336Y-61574554D01*
X195439139Y-61479270D01*
X195439137Y-61479268D01*
X195412991Y-61447409D01*
X195381133Y-61421264D01*
X189092991Y-55133123D01*
X190715821Y-55133123D01*
X190825558Y-55455054D01*
X190995992Y-55749391D01*
X191220573Y-56004822D01*
X191490671Y-56211531D01*
X191795906Y-56361575D01*
X192008878Y-56426175D01*
X192278000Y-56308125D01*
X192278000Y-54864000D01*
X192532000Y-54864000D01*
X192532000Y-56308125D01*
X192801122Y-56426175D01*
X193014094Y-56361575D01*
X193319329Y-56211531D01*
X193589427Y-56004822D01*
X193814008Y-55749391D01*
X193984442Y-55455054D01*
X194094179Y-55133123D01*
X193976600Y-54864000D01*
X192532000Y-54864000D01*
X192278000Y-54864000D01*
X190833400Y-54864000D01*
X190715821Y-55133123D01*
X189092991Y-55133123D01*
X188300745Y-54340877D01*
X190715821Y-54340877D01*
X190833400Y-54610000D01*
X192278000Y-54610000D01*
X192278000Y-53165875D01*
X192532000Y-53165875D01*
X192532000Y-54610000D01*
X193976600Y-54610000D01*
X194094179Y-54340877D01*
X193984442Y-54018946D01*
X193814008Y-53724609D01*
X193589427Y-53469178D01*
X193319329Y-53262469D01*
X193014094Y-53112425D01*
X192801122Y-53047825D01*
X192532000Y-53165875D01*
X192278000Y-53165875D01*
X192008878Y-53047825D01*
X191795906Y-53112425D01*
X191490671Y-53262469D01*
X191220573Y-53469178D01*
X190995992Y-53724609D01*
X190825558Y-54018946D01*
X190715821Y-54340877D01*
X188300745Y-54340877D01*
X184614285Y-50654418D01*
X184633000Y-50560335D01*
X184633000Y-50277665D01*
X184577853Y-50000426D01*
X184469680Y-49739273D01*
X184351965Y-49563100D01*
X185903928Y-49563100D01*
X185903928Y-51328500D01*
%TD*%
M02*
