%TF.GenerationSoftware,KiCad,Pcbnew,(5.1.6)-1*%
%TF.CreationDate,2021-03-18T12:54:03+09:00*%
%TF.ProjectId,MultiClockDiv,4d756c74-6943-46c6-9f63-6b4469762e6b,rev?*%
%TF.SameCoordinates,Original*%
%TF.FileFunction,Copper,L1,Top*%
%TF.FilePolarity,Positive*%
%FSLAX46Y46*%
G04 Gerber Fmt 4.6, Leading zero omitted, Abs format (unit mm)*
G04 Created by KiCad (PCBNEW (5.1.6)-1) date 2021-03-18 12:54:03*
%MOMM*%
%LPD*%
G01*
G04 APERTURE LIST*
%TA.AperFunction,ComponentPad*%
%ADD10O,2.200000X2.200000*%
%TD*%
%TA.AperFunction,ComponentPad*%
%ADD11R,2.200000X2.200000*%
%TD*%
%TA.AperFunction,ComponentPad*%
%ADD12O,1.600000X1.600000*%
%TD*%
%TA.AperFunction,ComponentPad*%
%ADD13R,1.600000X1.600000*%
%TD*%
%TA.AperFunction,ComponentPad*%
%ADD14C,2.850000*%
%TD*%
%TA.AperFunction,ComponentPad*%
%ADD15R,2.850000X2.850000*%
%TD*%
%TA.AperFunction,WasherPad*%
%ADD16C,4.000000*%
%TD*%
%TA.AperFunction,ComponentPad*%
%ADD17C,1.800000*%
%TD*%
%TA.AperFunction,ComponentPad*%
%ADD18C,1.600000*%
%TD*%
%TA.AperFunction,ComponentPad*%
%ADD19C,1.700000*%
%TD*%
%TA.AperFunction,ComponentPad*%
%ADD20C,2.130000*%
%TD*%
%TA.AperFunction,ComponentPad*%
%ADD21R,1.930000X1.830000*%
%TD*%
%TA.AperFunction,ComponentPad*%
%ADD22R,1.800000X1.800000*%
%TD*%
%TA.AperFunction,ViaPad*%
%ADD23C,0.800000*%
%TD*%
%TA.AperFunction,Conductor*%
%ADD24C,0.400000*%
%TD*%
%TA.AperFunction,Conductor*%
%ADD25C,0.254000*%
%TD*%
G04 APERTURE END LIST*
D10*
%TO.P,D3,2*%
%TO.N,GND*%
X197612000Y-82677000D03*
D11*
%TO.P,D3,1*%
%TO.N,Net-(A1-Pad10)*%
X197612000Y-92837000D03*
%TD*%
D12*
%TO.P,A1,16*%
%TO.N,Net-(A1-Pad16)*%
X196406000Y-145478000D03*
%TO.P,A1,15*%
%TO.N,Net-(A1-Pad15)*%
X181166000Y-145478000D03*
%TO.P,A1,30*%
%TO.N,12V*%
X196406000Y-109918000D03*
%TO.P,A1,14*%
%TO.N,Net-(A1-Pad14)*%
X181166000Y-142938000D03*
%TO.P,A1,29*%
%TO.N,Net-(A1-Pad29)*%
X196406000Y-112458000D03*
%TO.P,A1,13*%
%TO.N,Net-(A1-Pad13)*%
X181166000Y-140398000D03*
%TO.P,A1,28*%
%TO.N,Net-(A1-Pad28)*%
X196406000Y-114998000D03*
%TO.P,A1,12*%
%TO.N,Net-(A1-Pad12)*%
X181166000Y-137858000D03*
%TO.P,A1,27*%
%TO.N,5V*%
X196406000Y-117538000D03*
%TO.P,A1,11*%
%TO.N,Net-(A1-Pad11)*%
X181166000Y-135318000D03*
%TO.P,A1,26*%
%TO.N,Net-(A1-Pad26)*%
X196406000Y-120078000D03*
%TO.P,A1,10*%
%TO.N,Net-(A1-Pad10)*%
X181166000Y-132778000D03*
%TO.P,A1,25*%
%TO.N,Net-(A1-Pad25)*%
X196406000Y-122618000D03*
%TO.P,A1,9*%
%TO.N,Net-(A1-Pad9)*%
X181166000Y-130238000D03*
%TO.P,A1,24*%
%TO.N,Net-(A1-Pad24)*%
X196406000Y-125158000D03*
%TO.P,A1,8*%
%TO.N,Net-(A1-Pad8)*%
X181166000Y-127698000D03*
%TO.P,A1,23*%
%TO.N,Net-(A1-Pad23)*%
X196406000Y-127698000D03*
%TO.P,A1,7*%
%TO.N,Net-(A1-Pad7)*%
X181166000Y-125158000D03*
%TO.P,A1,22*%
%TO.N,Net-(A1-Pad22)*%
X196406000Y-130238000D03*
%TO.P,A1,6*%
%TO.N,Net-(A1-Pad6)*%
X181166000Y-122618000D03*
%TO.P,A1,21*%
%TO.N,Net-(A1-Pad21)*%
X196406000Y-132778000D03*
%TO.P,A1,5*%
%TO.N,Net-(A1-Pad5)*%
X181166000Y-120078000D03*
%TO.P,A1,20*%
%TO.N,Net-(A1-Pad20)*%
X196406000Y-135318000D03*
%TO.P,A1,4*%
%TO.N,GND*%
X181166000Y-117538000D03*
%TO.P,A1,19*%
%TO.N,Net-(A1-Pad19)*%
X196406000Y-137858000D03*
%TO.P,A1,3*%
%TO.N,Net-(A1-Pad3)*%
X181166000Y-114998000D03*
%TO.P,A1,18*%
%TO.N,Net-(A1-Pad18)*%
X196406000Y-140398000D03*
%TO.P,A1,2*%
%TO.N,Net-(A1-Pad2)*%
X181166000Y-112458000D03*
%TO.P,A1,17*%
%TO.N,Net-(A1-Pad17)*%
X196406000Y-142938000D03*
D13*
%TO.P,A1,1*%
%TO.N,Net-(A1-Pad1)*%
X181166000Y-109918000D03*
%TD*%
D10*
%TO.P,D5,2*%
%TO.N,Net-(A1-Pad11)*%
X197676000Y-64897000D03*
D11*
%TO.P,D5,1*%
%TO.N,5V*%
X197676000Y-54737000D03*
%TD*%
D10*
%TO.P,D2,2*%
%TO.N,Net-(A1-Pad10)*%
X197802000Y-50228500D03*
D11*
%TO.P,D2,1*%
%TO.N,5V*%
X187642000Y-50228500D03*
%TD*%
D14*
%TO.P,SW1,3*%
%TO.N,Net-(SW1-Pad3)*%
X189812000Y-101516000D03*
%TO.P,SW1,2*%
%TO.N,GND*%
X185112000Y-101516000D03*
D15*
%TO.P,SW1,1*%
%TO.N,Net-(A1-Pad14)*%
X180412000Y-101516000D03*
%TD*%
D16*
%TO.P,RV2,*%
%TO.N,*%
X176344000Y-58659000D03*
X185144000Y-58659000D03*
D17*
%TO.P,RV2,1*%
%TO.N,GND*%
X178244000Y-65659000D03*
%TO.P,RV2,2*%
%TO.N,Net-(R2-Pad2)*%
X180744000Y-65659000D03*
%TO.P,RV2,3*%
%TO.N,5V*%
X183244000Y-65659000D03*
%TD*%
D16*
%TO.P,RV1,*%
%TO.N,*%
X176344000Y-77328000D03*
X185144000Y-77328000D03*
D17*
%TO.P,RV1,1*%
%TO.N,GND*%
X178244000Y-84328000D03*
%TO.P,RV1,2*%
%TO.N,Net-(R1-Pad2)*%
X180744000Y-84328000D03*
%TO.P,RV1,3*%
%TO.N,5V*%
X183244000Y-84328000D03*
%TD*%
D12*
%TO.P,R10,2*%
%TO.N,Net-(A1-Pad6)*%
X171440000Y-66450000D03*
D18*
%TO.P,R10,1*%
%TO.N,Net-(D7-Pad2)*%
X163820000Y-66450000D03*
%TD*%
D12*
%TO.P,R9,2*%
%TO.N,GND*%
X164656000Y-138557000D03*
D18*
%TO.P,R9,1*%
%TO.N,Net-(A1-Pad6)*%
X164656000Y-130937000D03*
%TD*%
D12*
%TO.P,R8,2*%
%TO.N,Net-(A1-Pad6)*%
X163766000Y-54800500D03*
D18*
%TO.P,R8,1*%
%TO.N,Net-(J4-PadT)*%
X171386000Y-54800500D03*
%TD*%
D12*
%TO.P,R7,2*%
%TO.N,Net-(D9-Pad1)*%
X164719000Y-119888000D03*
D18*
%TO.P,R7,1*%
%TO.N,Net-(A1-Pad6)*%
X164719000Y-127508000D03*
%TD*%
D12*
%TO.P,R6,2*%
%TO.N,Net-(D4-Pad2)*%
X192532000Y-134810000D03*
D18*
%TO.P,R6,1*%
%TO.N,Net-(A1-Pad11)*%
X184912000Y-134810000D03*
%TD*%
D12*
%TO.P,R5,2*%
%TO.N,Net-(A1-Pad11)*%
X164782000Y-116014000D03*
D18*
%TO.P,R5,1*%
%TO.N,Net-(J2-PadT)*%
X164782000Y-108394000D03*
%TD*%
D12*
%TO.P,R4,2*%
%TO.N,Net-(D1-Pad2)*%
X163790000Y-58580000D03*
D18*
%TO.P,R4,1*%
%TO.N,Net-(A1-Pad10)*%
X171410000Y-58580000D03*
%TD*%
D12*
%TO.P,R3,2*%
%TO.N,Net-(A1-Pad10)*%
X164719000Y-149860000D03*
D18*
%TO.P,R3,1*%
%TO.N,Net-(J1-PadT)*%
X164719000Y-142240000D03*
%TD*%
D12*
%TO.P,R2,2*%
%TO.N,Net-(R2-Pad2)*%
X171410000Y-62370000D03*
D18*
%TO.P,R2,1*%
%TO.N,Net-(A1-Pad23)*%
X163790000Y-62370000D03*
%TD*%
D12*
%TO.P,R1,2*%
%TO.N,Net-(R1-Pad2)*%
X196977000Y-96520000D03*
D18*
%TO.P,R1,1*%
%TO.N,Net-(A1-Pad22)*%
X196977000Y-104140000D03*
%TD*%
D19*
%TO.P,J5,16*%
%TO.N,Net-(J5-Pad16)*%
X169380000Y-92960000D03*
%TO.P,J5,14*%
%TO.N,Net-(J5-Pad14)*%
X169380000Y-90420000D03*
%TO.P,J5,12*%
%TO.N,Net-(J5-Pad12)*%
X169380000Y-87880000D03*
%TO.P,J5,10*%
%TO.N,12V*%
X169380000Y-85340000D03*
%TO.P,J5,8*%
%TO.N,GND*%
X169380000Y-82800000D03*
%TO.P,J5,6*%
X169380000Y-80260000D03*
%TO.P,J5,4*%
X169380000Y-77720000D03*
%TO.P,J5,2*%
%TO.N,Net-(J5-Pad2)*%
X169380000Y-75180000D03*
%TO.P,J5,15*%
%TO.N,Net-(J5-Pad15)*%
X166840000Y-92960000D03*
%TO.P,J5,13*%
%TO.N,Net-(J5-Pad13)*%
X166840000Y-90420000D03*
%TO.P,J5,11*%
%TO.N,Net-(J5-Pad11)*%
X166840000Y-87880000D03*
%TO.P,J5,9*%
%TO.N,12V*%
X166840000Y-85340000D03*
%TO.P,J5,7*%
%TO.N,GND*%
X166840000Y-82800000D03*
%TO.P,J5,5*%
X166840000Y-80260000D03*
%TO.P,J5,3*%
X166840000Y-77720000D03*
%TO.P,J5,1*%
%TO.N,Net-(J5-Pad1)*%
%TA.AperFunction,ComponentPad*%
G36*
G01*
X165990000Y-75780000D02*
X165990000Y-74580000D01*
G75*
G02*
X166240000Y-74330000I250000J0D01*
G01*
X167440000Y-74330000D01*
G75*
G02*
X167690000Y-74580000I0J-250000D01*
G01*
X167690000Y-75780000D01*
G75*
G02*
X167440000Y-76030000I-250000J0D01*
G01*
X166240000Y-76030000D01*
G75*
G02*
X165990000Y-75780000I0J250000D01*
G01*
G37*
%TD.AperFunction*%
%TD*%
D20*
%TO.P,J4,T*%
%TO.N,Net-(J4-PadT)*%
X189230000Y-109440000D03*
D21*
%TO.P,J4,S*%
%TO.N,GND*%
X189230000Y-120840000D03*
D20*
%TO.P,J4,TN*%
%TO.N,N/C*%
X189230000Y-117740000D03*
%TD*%
%TO.P,J3,T*%
%TO.N,Net-(A1-Pad6)*%
X172784000Y-109440000D03*
D21*
%TO.P,J3,S*%
%TO.N,GND*%
X172784000Y-120840000D03*
D20*
%TO.P,J3,TN*%
%TO.N,N/C*%
X172784000Y-117740000D03*
%TD*%
%TO.P,J2,T*%
%TO.N,Net-(J2-PadT)*%
X172784000Y-139286000D03*
D21*
%TO.P,J2,S*%
%TO.N,GND*%
X172784000Y-150686000D03*
D20*
%TO.P,J2,TN*%
%TO.N,N/C*%
X172784000Y-147586000D03*
%TD*%
%TO.P,J1,T*%
%TO.N,Net-(J1-PadT)*%
X172784000Y-124363000D03*
D21*
%TO.P,J1,S*%
%TO.N,GND*%
X172784000Y-135763000D03*
D20*
%TO.P,J1,TN*%
%TO.N,N/C*%
X172784000Y-132663000D03*
%TD*%
D10*
%TO.P,D11,2*%
%TO.N,GND*%
X174117000Y-50419000D03*
D11*
%TO.P,D11,1*%
%TO.N,Net-(A1-Pad6)*%
X163957000Y-50419000D03*
%TD*%
D10*
%TO.P,D10,2*%
%TO.N,Net-(A1-Pad6)*%
X192405000Y-69977000D03*
D11*
%TO.P,D10,1*%
%TO.N,5V*%
X192405000Y-80137000D03*
%TD*%
D10*
%TO.P,D9,2*%
%TO.N,Net-(A1-Pad16)*%
X192600000Y-94560000D03*
D11*
%TO.P,D9,1*%
%TO.N,Net-(D9-Pad1)*%
X182440000Y-94560000D03*
%TD*%
D10*
%TO.P,D8,2*%
%TO.N,GND*%
X197612000Y-68643500D03*
D11*
%TO.P,D8,1*%
%TO.N,Net-(A1-Pad6)*%
X197612000Y-78803500D03*
%TD*%
D17*
%TO.P,D7,2*%
%TO.N,Net-(D7-Pad2)*%
X175904000Y-101644000D03*
D22*
%TO.P,D7,1*%
%TO.N,GND*%
X173364000Y-101644000D03*
%TD*%
D10*
%TO.P,D6,2*%
%TO.N,GND*%
X192405000Y-54737000D03*
D11*
%TO.P,D6,1*%
%TO.N,Net-(A1-Pad11)*%
X192405000Y-64897000D03*
%TD*%
D17*
%TO.P,D4,2*%
%TO.N,Net-(D4-Pad2)*%
X190818000Y-144399000D03*
D22*
%TO.P,D4,1*%
%TO.N,GND*%
X188278000Y-144399000D03*
%TD*%
D17*
%TO.P,D1,2*%
%TO.N,Net-(D1-Pad2)*%
X190690000Y-129096000D03*
D22*
%TO.P,D1,1*%
%TO.N,GND*%
X188150000Y-129096000D03*
%TD*%
D18*
%TO.P,C2,2*%
%TO.N,Net-(A1-Pad23)*%
X191246000Y-138748000D03*
%TO.P,C2,1*%
%TO.N,GND*%
X186246000Y-138748000D03*
%TD*%
%TO.P,C1,2*%
%TO.N,GND*%
X178198000Y-50419000D03*
%TO.P,C1,1*%
%TO.N,Net-(A1-Pad22)*%
X183198000Y-50419000D03*
%TD*%
D23*
%TO.N,Net-(D1-Pad2)*%
X181264000Y-96676200D03*
%TD*%
D24*
%TO.N,Net-(A1-Pad16)*%
X192600000Y-94560000D02*
X192600000Y-96060300D01*
X196406000Y-145478000D02*
X196406000Y-144277700D01*
X196406000Y-144277700D02*
X196030900Y-144277700D01*
X196030900Y-144277700D02*
X194604900Y-142851700D01*
X194604900Y-142851700D02*
X194604900Y-98065200D01*
X194604900Y-98065200D02*
X192600000Y-96060300D01*
%TO.N,Net-(A1-Pad14)*%
X181166000Y-142938000D02*
X181166000Y-141737700D01*
X180412000Y-101516000D02*
X180412000Y-103341300D01*
X180412000Y-103341300D02*
X182366700Y-105296000D01*
X182366700Y-105296000D02*
X182366700Y-140910000D01*
X182366700Y-140910000D02*
X181539000Y-141737700D01*
X181539000Y-141737700D02*
X181166000Y-141737700D01*
%TO.N,5V*%
X187642000Y-53220700D02*
X187642000Y-50228500D01*
X183244000Y-65659000D02*
X187642000Y-61261000D01*
X187642000Y-61261000D02*
X187642000Y-53220700D01*
X187642000Y-53220700D02*
X194659400Y-53220700D01*
X194659400Y-53220700D02*
X196175700Y-54737000D01*
X197676000Y-54737000D02*
X196175700Y-54737000D01*
X183244000Y-65659000D02*
X183244000Y-69475700D01*
X183244000Y-69475700D02*
X192405000Y-78636700D01*
X192405000Y-80137000D02*
X192405000Y-81637300D01*
X189920000Y-84328000D02*
X189920000Y-87977800D01*
X189920000Y-87977800D02*
X197038700Y-95096500D01*
X197038700Y-95096500D02*
X197252200Y-95096500D01*
X197252200Y-95096500D02*
X198224100Y-96068400D01*
X198224100Y-96068400D02*
X198224100Y-98863800D01*
X198224100Y-98863800D02*
X195205300Y-101882600D01*
X195205300Y-101882600D02*
X195205300Y-115510100D01*
X195205300Y-115510100D02*
X196032900Y-116337700D01*
X196032900Y-116337700D02*
X196406000Y-116337700D01*
X192405000Y-81637300D02*
X189920000Y-84122300D01*
X189920000Y-84122300D02*
X189920000Y-84328000D01*
X183244000Y-84328000D02*
X189920000Y-84328000D01*
X196406000Y-117538000D02*
X196406000Y-116337700D01*
X192405000Y-80137000D02*
X192405000Y-78636700D01*
%TO.N,Net-(A1-Pad11)*%
X181166000Y-135318000D02*
X181166000Y-134117700D01*
X164782000Y-116014000D02*
X164782000Y-117214300D01*
X164782000Y-117214300D02*
X165982300Y-118414600D01*
X165982300Y-118414600D02*
X165982300Y-119695000D01*
X165982300Y-119695000D02*
X180405000Y-134117700D01*
X180405000Y-134117700D02*
X181166000Y-134117700D01*
X192405000Y-64897000D02*
X197676000Y-64897000D01*
%TO.N,Net-(A1-Pad10)*%
X197802000Y-50228500D02*
X197802000Y-51728800D01*
X197612000Y-92837000D02*
X197612000Y-91336700D01*
X197612000Y-91336700D02*
X199176300Y-89772400D01*
X199176300Y-89772400D02*
X199176300Y-53103100D01*
X199176300Y-53103100D02*
X197802000Y-51728800D01*
%TO.N,Net-(A1-Pad23)*%
X191246000Y-138748000D02*
X185854900Y-144139100D01*
X185854900Y-144139100D02*
X180624300Y-144139100D01*
X180624300Y-144139100D02*
X174500800Y-138015600D01*
X174500800Y-138015600D02*
X174500800Y-132288800D01*
X174500800Y-132288800D02*
X162603800Y-120391800D01*
X162603800Y-120391800D02*
X162603800Y-63556200D01*
X162603800Y-63556200D02*
X163790000Y-62370000D01*
%TO.N,Net-(A1-Pad22)*%
X196406000Y-130238000D02*
X196406000Y-129037700D01*
X196977000Y-104140000D02*
X197649500Y-104812500D01*
X197649500Y-104812500D02*
X197649500Y-128167200D01*
X197649500Y-128167200D02*
X196779000Y-129037700D01*
X196779000Y-129037700D02*
X196406000Y-129037700D01*
%TO.N,Net-(A1-Pad6)*%
X172784000Y-109440000D02*
X171440000Y-108096000D01*
X171440000Y-108096000D02*
X171440000Y-66450000D01*
X197612000Y-78803500D02*
X197612000Y-77303200D01*
X197612000Y-77303200D02*
X192405000Y-72096200D01*
X192405000Y-72096200D02*
X192405000Y-69977000D01*
X171440000Y-66450000D02*
X171440000Y-65249700D01*
X171440000Y-65249700D02*
X166345100Y-60154800D01*
X166345100Y-60154800D02*
X166345100Y-58579900D01*
X166345100Y-58579900D02*
X163766000Y-56000800D01*
X163766000Y-54800500D02*
X163766000Y-56000800D01*
X163766000Y-54800500D02*
X163766000Y-53600200D01*
X163766000Y-53600200D02*
X163957000Y-53409200D01*
X163957000Y-53409200D02*
X163957000Y-50419000D01*
X164719000Y-127508000D02*
X164656000Y-127571000D01*
X164656000Y-127571000D02*
X164656000Y-130937000D01*
%TO.N,Net-(D1-Pad2)*%
X190690000Y-129096000D02*
X183286600Y-121692600D01*
X183286600Y-121692600D02*
X183286600Y-98698800D01*
X183286600Y-98698800D02*
X181264000Y-96676200D01*
%TO.N,Net-(D9-Pad1)*%
X164719000Y-119888000D02*
X164719000Y-118687700D01*
X164719000Y-118687700D02*
X163527900Y-117496600D01*
X163527900Y-117496600D02*
X163527900Y-115564700D01*
X163527900Y-115564700D02*
X166624900Y-112467700D01*
X166624900Y-112467700D02*
X171841400Y-112467700D01*
X171841400Y-112467700D02*
X174287700Y-110021400D01*
X174287700Y-110021400D02*
X174287700Y-107430700D01*
X174287700Y-107430700D02*
X172063600Y-105206600D01*
X172063600Y-105206600D02*
X172063600Y-100563600D01*
X172063600Y-100563600D02*
X178067200Y-94560000D01*
X178067200Y-94560000D02*
X182440000Y-94560000D01*
%TO.N,Net-(J4-PadT)*%
X189230000Y-109440000D02*
X187462100Y-107672100D01*
X187462100Y-107672100D02*
X187462100Y-96810000D01*
X187462100Y-96810000D02*
X173068000Y-82415900D01*
X173068000Y-82415900D02*
X173068000Y-56482500D01*
X173068000Y-56482500D02*
X171386000Y-54800500D01*
%TO.N,Net-(R1-Pad2)*%
X196977000Y-96520000D02*
X195776700Y-96520000D01*
X195776700Y-96520000D02*
X195776700Y-95544800D01*
X195776700Y-95544800D02*
X187137800Y-86905900D01*
X187137800Y-86905900D02*
X183321900Y-86905900D01*
X183321900Y-86905900D02*
X180744000Y-84328000D01*
%TD*%
D25*
%TO.N,GND*%
G36*
X199238000Y-49254708D02*
G01*
X199149663Y-49122502D01*
X198907998Y-48880837D01*
X198623831Y-48690963D01*
X198308081Y-48560175D01*
X197972883Y-48493500D01*
X197631117Y-48493500D01*
X197295919Y-48560175D01*
X196980169Y-48690963D01*
X196696002Y-48880837D01*
X196454337Y-49122502D01*
X196264463Y-49406669D01*
X196133675Y-49722419D01*
X196067000Y-50057617D01*
X196067000Y-50399383D01*
X196133675Y-50734581D01*
X196264463Y-51050331D01*
X196454337Y-51334498D01*
X196696002Y-51576163D01*
X196965674Y-51756352D01*
X196979082Y-51892488D01*
X197026828Y-52049886D01*
X197104364Y-52194945D01*
X197104365Y-52194946D01*
X197208710Y-52322091D01*
X197240574Y-52348241D01*
X197891260Y-52998928D01*
X196576000Y-52998928D01*
X196451518Y-53011188D01*
X196331820Y-53047498D01*
X196221506Y-53106463D01*
X196124815Y-53185815D01*
X196045463Y-53282506D01*
X195995516Y-53375949D01*
X195278846Y-52659279D01*
X195252691Y-52627409D01*
X195125546Y-52523064D01*
X194980487Y-52445528D01*
X194823089Y-52397782D01*
X194700419Y-52385700D01*
X194700418Y-52385700D01*
X194659400Y-52381660D01*
X194618382Y-52385700D01*
X188477000Y-52385700D01*
X188477000Y-51966572D01*
X188742000Y-51966572D01*
X188866482Y-51954312D01*
X188986180Y-51918002D01*
X189096494Y-51859037D01*
X189193185Y-51779685D01*
X189272537Y-51682994D01*
X189331502Y-51572680D01*
X189367812Y-51452982D01*
X189380072Y-51328500D01*
X189380072Y-49128500D01*
X189367812Y-49004018D01*
X189331502Y-48884320D01*
X189272537Y-48774006D01*
X189193185Y-48677315D01*
X189096494Y-48597963D01*
X188986180Y-48538998D01*
X188866482Y-48502688D01*
X188742000Y-48490428D01*
X186542000Y-48490428D01*
X186417518Y-48502688D01*
X186297820Y-48538998D01*
X186187506Y-48597963D01*
X186090815Y-48677315D01*
X186011463Y-48774006D01*
X185952498Y-48884320D01*
X185916188Y-49004018D01*
X185903928Y-49128500D01*
X185903928Y-51328500D01*
X185916188Y-51452982D01*
X185952498Y-51572680D01*
X186011463Y-51682994D01*
X186090815Y-51779685D01*
X186187506Y-51859037D01*
X186297820Y-51918002D01*
X186417518Y-51954312D01*
X186542000Y-51966572D01*
X186807000Y-51966572D01*
X186807000Y-53179681D01*
X186802960Y-53220700D01*
X186807001Y-53261729D01*
X186807001Y-56601094D01*
X186392141Y-56323893D01*
X185912601Y-56125261D01*
X185403525Y-56024000D01*
X184884475Y-56024000D01*
X184375399Y-56125261D01*
X183895859Y-56323893D01*
X183464285Y-56612262D01*
X183097262Y-56979285D01*
X182808893Y-57410859D01*
X182610261Y-57890399D01*
X182509000Y-58399475D01*
X182509000Y-58918525D01*
X182610261Y-59427601D01*
X182808893Y-59907141D01*
X183097262Y-60338715D01*
X183464285Y-60705738D01*
X183895859Y-60994107D01*
X184375399Y-61192739D01*
X184884475Y-61294000D01*
X185403525Y-61294000D01*
X185912601Y-61192739D01*
X186392141Y-60994107D01*
X186807000Y-60716907D01*
X186807000Y-60915132D01*
X183564462Y-64157671D01*
X183395184Y-64124000D01*
X183092816Y-64124000D01*
X182796257Y-64182989D01*
X182516905Y-64298701D01*
X182265495Y-64466688D01*
X182051688Y-64680495D01*
X181994000Y-64766831D01*
X181936312Y-64680495D01*
X181722505Y-64466688D01*
X181471095Y-64298701D01*
X181191743Y-64182989D01*
X180895184Y-64124000D01*
X180592816Y-64124000D01*
X180296257Y-64182989D01*
X180016905Y-64298701D01*
X179765495Y-64466688D01*
X179551688Y-64680495D01*
X179456262Y-64823310D01*
X179308080Y-64774525D01*
X178423605Y-65659000D01*
X179308080Y-66543475D01*
X179456262Y-66494690D01*
X179551688Y-66637505D01*
X179765495Y-66851312D01*
X180016905Y-67019299D01*
X180296257Y-67135011D01*
X180592816Y-67194000D01*
X180895184Y-67194000D01*
X181191743Y-67135011D01*
X181471095Y-67019299D01*
X181722505Y-66851312D01*
X181936312Y-66637505D01*
X181994000Y-66551169D01*
X182051688Y-66637505D01*
X182265495Y-66851312D01*
X182409000Y-66947199D01*
X182409001Y-69434672D01*
X182404960Y-69475700D01*
X182421082Y-69639388D01*
X182468828Y-69796786D01*
X182543230Y-69935981D01*
X182546365Y-69941846D01*
X182650710Y-70068991D01*
X182682574Y-70095141D01*
X191043948Y-78456516D01*
X190950506Y-78506463D01*
X190853815Y-78585815D01*
X190774463Y-78682506D01*
X190715498Y-78792820D01*
X190679188Y-78912518D01*
X190666928Y-79037000D01*
X190666928Y-81237000D01*
X190679188Y-81361482D01*
X190715498Y-81481180D01*
X190774463Y-81591494D01*
X190853815Y-81688185D01*
X190950506Y-81767537D01*
X191043948Y-81817484D01*
X189368433Y-83493000D01*
X184532199Y-83493000D01*
X184436312Y-83349495D01*
X184222505Y-83135688D01*
X183971095Y-82967701D01*
X183691743Y-82851989D01*
X183395184Y-82793000D01*
X183092816Y-82793000D01*
X182796257Y-82851989D01*
X182516905Y-82967701D01*
X182265495Y-83135688D01*
X182051688Y-83349495D01*
X181994000Y-83435831D01*
X181936312Y-83349495D01*
X181722505Y-83135688D01*
X181471095Y-82967701D01*
X181191743Y-82851989D01*
X180895184Y-82793000D01*
X180592816Y-82793000D01*
X180296257Y-82851989D01*
X180016905Y-82967701D01*
X179765495Y-83135688D01*
X179551688Y-83349495D01*
X179456262Y-83492310D01*
X179308080Y-83443525D01*
X178423605Y-84328000D01*
X179308080Y-85212475D01*
X179456262Y-85163690D01*
X179551688Y-85306505D01*
X179765495Y-85520312D01*
X180016905Y-85688299D01*
X180296257Y-85804011D01*
X180592816Y-85863000D01*
X180895184Y-85863000D01*
X181064461Y-85829329D01*
X182702459Y-87467327D01*
X182728609Y-87499191D01*
X182855754Y-87603536D01*
X183000813Y-87681072D01*
X183158211Y-87728818D01*
X183321899Y-87744940D01*
X183362918Y-87740900D01*
X186791933Y-87740900D01*
X191986996Y-92935964D01*
X191778169Y-93022463D01*
X191494002Y-93212337D01*
X191252337Y-93454002D01*
X191062463Y-93738169D01*
X190931675Y-94053919D01*
X190865000Y-94389117D01*
X190865000Y-94730883D01*
X190931675Y-95066081D01*
X191062463Y-95381831D01*
X191252337Y-95665998D01*
X191494002Y-95907663D01*
X191763674Y-96087852D01*
X191777082Y-96223988D01*
X191824828Y-96381386D01*
X191902364Y-96526445D01*
X191902365Y-96526446D01*
X192006710Y-96653591D01*
X192038574Y-96679741D01*
X193769901Y-98411070D01*
X193769900Y-134079718D01*
X193646637Y-133895241D01*
X193446759Y-133695363D01*
X193211727Y-133538320D01*
X192950574Y-133430147D01*
X192673335Y-133375000D01*
X192390665Y-133375000D01*
X192113426Y-133430147D01*
X191852273Y-133538320D01*
X191617241Y-133695363D01*
X191417363Y-133895241D01*
X191260320Y-134130273D01*
X191152147Y-134391426D01*
X191097000Y-134668665D01*
X191097000Y-134951335D01*
X191152147Y-135228574D01*
X191260320Y-135489727D01*
X191417363Y-135724759D01*
X191617241Y-135924637D01*
X191852273Y-136081680D01*
X192113426Y-136189853D01*
X192390665Y-136245000D01*
X192673335Y-136245000D01*
X192950574Y-136189853D01*
X193211727Y-136081680D01*
X193446759Y-135924637D01*
X193646637Y-135724759D01*
X193769900Y-135540282D01*
X193769900Y-142810682D01*
X193765860Y-142851700D01*
X193769900Y-142892718D01*
X193781982Y-143015388D01*
X193829728Y-143172786D01*
X193907264Y-143317845D01*
X194011609Y-143444991D01*
X194043478Y-143471146D01*
X195228962Y-144656631D01*
X195134320Y-144798273D01*
X195026147Y-145059426D01*
X194971000Y-145336665D01*
X194971000Y-145619335D01*
X195026147Y-145896574D01*
X195134320Y-146157727D01*
X195291363Y-146392759D01*
X195491241Y-146592637D01*
X195726273Y-146749680D01*
X195987426Y-146857853D01*
X196264665Y-146913000D01*
X196547335Y-146913000D01*
X196824574Y-146857853D01*
X197085727Y-146749680D01*
X197320759Y-146592637D01*
X197520637Y-146392759D01*
X197677680Y-146157727D01*
X197785853Y-145896574D01*
X197841000Y-145619335D01*
X197841000Y-145336665D01*
X197785853Y-145059426D01*
X197677680Y-144798273D01*
X197520637Y-144563241D01*
X197320759Y-144363363D01*
X197241799Y-144310604D01*
X197245040Y-144277700D01*
X197228918Y-144114011D01*
X197228916Y-144114004D01*
X197320759Y-144052637D01*
X197520637Y-143852759D01*
X197677680Y-143617727D01*
X197785853Y-143356574D01*
X197841000Y-143079335D01*
X197841000Y-142796665D01*
X197785853Y-142519426D01*
X197677680Y-142258273D01*
X197520637Y-142023241D01*
X197320759Y-141823363D01*
X197088241Y-141668000D01*
X197320759Y-141512637D01*
X197520637Y-141312759D01*
X197677680Y-141077727D01*
X197785853Y-140816574D01*
X197841000Y-140539335D01*
X197841000Y-140256665D01*
X197785853Y-139979426D01*
X197677680Y-139718273D01*
X197520637Y-139483241D01*
X197320759Y-139283363D01*
X197088241Y-139128000D01*
X197320759Y-138972637D01*
X197520637Y-138772759D01*
X197677680Y-138537727D01*
X197785853Y-138276574D01*
X197841000Y-137999335D01*
X197841000Y-137716665D01*
X197785853Y-137439426D01*
X197677680Y-137178273D01*
X197520637Y-136943241D01*
X197320759Y-136743363D01*
X197088241Y-136588000D01*
X197320759Y-136432637D01*
X197520637Y-136232759D01*
X197677680Y-135997727D01*
X197785853Y-135736574D01*
X197841000Y-135459335D01*
X197841000Y-135176665D01*
X197785853Y-134899426D01*
X197677680Y-134638273D01*
X197520637Y-134403241D01*
X197320759Y-134203363D01*
X197088241Y-134048000D01*
X197320759Y-133892637D01*
X197520637Y-133692759D01*
X197677680Y-133457727D01*
X197785853Y-133196574D01*
X197841000Y-132919335D01*
X197841000Y-132636665D01*
X197785853Y-132359426D01*
X197677680Y-132098273D01*
X197520637Y-131863241D01*
X197320759Y-131663363D01*
X197088241Y-131508000D01*
X197320759Y-131352637D01*
X197520637Y-131152759D01*
X197677680Y-130917727D01*
X197785853Y-130656574D01*
X197841000Y-130379335D01*
X197841000Y-130096665D01*
X197785853Y-129819426D01*
X197677680Y-129558273D01*
X197582196Y-129415371D01*
X198210932Y-128786637D01*
X198242791Y-128760491D01*
X198347136Y-128633346D01*
X198424672Y-128488287D01*
X198472418Y-128330889D01*
X198484500Y-128208219D01*
X198488540Y-128167200D01*
X198484500Y-128126182D01*
X198484500Y-104853518D01*
X198488540Y-104812500D01*
X198481444Y-104740455D01*
X198472418Y-104648811D01*
X198424672Y-104491413D01*
X198384982Y-104417159D01*
X198412000Y-104281335D01*
X198412000Y-103998665D01*
X198356853Y-103721426D01*
X198248680Y-103460273D01*
X198091637Y-103225241D01*
X197891759Y-103025363D01*
X197656727Y-102868320D01*
X197395574Y-102760147D01*
X197118335Y-102705000D01*
X196835665Y-102705000D01*
X196558426Y-102760147D01*
X196297273Y-102868320D01*
X196062241Y-103025363D01*
X196040300Y-103047304D01*
X196040300Y-102228467D01*
X198785532Y-99483237D01*
X198817391Y-99457091D01*
X198921736Y-99329946D01*
X198999272Y-99184887D01*
X199047018Y-99027489D01*
X199059100Y-98904819D01*
X199063140Y-98863800D01*
X199059100Y-98822782D01*
X199059100Y-96109418D01*
X199063140Y-96068399D01*
X199047018Y-95904711D01*
X198999272Y-95747313D01*
X198921736Y-95602254D01*
X198915089Y-95594155D01*
X198817391Y-95475109D01*
X198785528Y-95448960D01*
X197911639Y-94575072D01*
X198712000Y-94575072D01*
X198836482Y-94562812D01*
X198956180Y-94526502D01*
X199066494Y-94467537D01*
X199163185Y-94388185D01*
X199238000Y-94297022D01*
X199238001Y-152057500D01*
X174193709Y-152057500D01*
X174200185Y-152052185D01*
X174279537Y-151955494D01*
X174338502Y-151845180D01*
X174374812Y-151725482D01*
X174387072Y-151601000D01*
X174384000Y-150971750D01*
X174225250Y-150813000D01*
X172911000Y-150813000D01*
X172911000Y-150833000D01*
X172657000Y-150833000D01*
X172657000Y-150813000D01*
X171342750Y-150813000D01*
X171184000Y-150971750D01*
X171180928Y-151601000D01*
X171193188Y-151725482D01*
X171229498Y-151845180D01*
X171288463Y-151955494D01*
X171367815Y-152052185D01*
X171374291Y-152057500D01*
X162458000Y-152057500D01*
X162458000Y-149718665D01*
X163284000Y-149718665D01*
X163284000Y-150001335D01*
X163339147Y-150278574D01*
X163447320Y-150539727D01*
X163604363Y-150774759D01*
X163804241Y-150974637D01*
X164039273Y-151131680D01*
X164300426Y-151239853D01*
X164577665Y-151295000D01*
X164860335Y-151295000D01*
X165137574Y-151239853D01*
X165398727Y-151131680D01*
X165633759Y-150974637D01*
X165833637Y-150774759D01*
X165990680Y-150539727D01*
X166098853Y-150278574D01*
X166154000Y-150001335D01*
X166154000Y-149718665D01*
X166098853Y-149441426D01*
X165990680Y-149180273D01*
X165833637Y-148945241D01*
X165633759Y-148745363D01*
X165398727Y-148588320D01*
X165137574Y-148480147D01*
X164860335Y-148425000D01*
X164577665Y-148425000D01*
X164300426Y-148480147D01*
X164039273Y-148588320D01*
X163804241Y-148745363D01*
X163604363Y-148945241D01*
X163447320Y-149180273D01*
X163339147Y-149441426D01*
X163284000Y-149718665D01*
X162458000Y-149718665D01*
X162458000Y-147418565D01*
X171084000Y-147418565D01*
X171084000Y-147753435D01*
X171149330Y-148081872D01*
X171277479Y-148391252D01*
X171463523Y-148669687D01*
X171700313Y-148906477D01*
X171978748Y-149092521D01*
X172079140Y-149134105D01*
X171819000Y-149132928D01*
X171694518Y-149145188D01*
X171574820Y-149181498D01*
X171464506Y-149240463D01*
X171367815Y-149319815D01*
X171288463Y-149416506D01*
X171229498Y-149526820D01*
X171193188Y-149646518D01*
X171180928Y-149771000D01*
X171184000Y-150400250D01*
X171342750Y-150559000D01*
X172657000Y-150559000D01*
X172657000Y-150539000D01*
X172911000Y-150539000D01*
X172911000Y-150559000D01*
X174225250Y-150559000D01*
X174384000Y-150400250D01*
X174387072Y-149771000D01*
X174374812Y-149646518D01*
X174338502Y-149526820D01*
X174279537Y-149416506D01*
X174200185Y-149319815D01*
X174103494Y-149240463D01*
X173993180Y-149181498D01*
X173873482Y-149145188D01*
X173749000Y-149132928D01*
X173488860Y-149134105D01*
X173589252Y-149092521D01*
X173867687Y-148906477D01*
X174104477Y-148669687D01*
X174290521Y-148391252D01*
X174418670Y-148081872D01*
X174484000Y-147753435D01*
X174484000Y-147418565D01*
X174418670Y-147090128D01*
X174290521Y-146780748D01*
X174104477Y-146502313D01*
X173867687Y-146265523D01*
X173589252Y-146079479D01*
X173279872Y-145951330D01*
X172951435Y-145886000D01*
X172616565Y-145886000D01*
X172288128Y-145951330D01*
X171978748Y-146079479D01*
X171700313Y-146265523D01*
X171463523Y-146502313D01*
X171277479Y-146780748D01*
X171149330Y-147090128D01*
X171084000Y-147418565D01*
X162458000Y-147418565D01*
X162458000Y-142098665D01*
X163284000Y-142098665D01*
X163284000Y-142381335D01*
X163339147Y-142658574D01*
X163447320Y-142919727D01*
X163604363Y-143154759D01*
X163804241Y-143354637D01*
X164039273Y-143511680D01*
X164300426Y-143619853D01*
X164577665Y-143675000D01*
X164860335Y-143675000D01*
X165137574Y-143619853D01*
X165398727Y-143511680D01*
X165633759Y-143354637D01*
X165833637Y-143154759D01*
X165990680Y-142919727D01*
X166098853Y-142658574D01*
X166154000Y-142381335D01*
X166154000Y-142098665D01*
X166098853Y-141821426D01*
X165990680Y-141560273D01*
X165833637Y-141325241D01*
X165633759Y-141125363D01*
X165398727Y-140968320D01*
X165137574Y-140860147D01*
X164860335Y-140805000D01*
X164577665Y-140805000D01*
X164300426Y-140860147D01*
X164039273Y-140968320D01*
X163804241Y-141125363D01*
X163604363Y-141325241D01*
X163447320Y-141560273D01*
X163339147Y-141821426D01*
X163284000Y-142098665D01*
X162458000Y-142098665D01*
X162458000Y-138906040D01*
X163264091Y-138906040D01*
X163358930Y-139170881D01*
X163503615Y-139412131D01*
X163692586Y-139620519D01*
X163918580Y-139788037D01*
X164172913Y-139908246D01*
X164306961Y-139948904D01*
X164529000Y-139826915D01*
X164529000Y-138684000D01*
X164783000Y-138684000D01*
X164783000Y-139826915D01*
X165005039Y-139948904D01*
X165139087Y-139908246D01*
X165393420Y-139788037D01*
X165619414Y-139620519D01*
X165808385Y-139412131D01*
X165953070Y-139170881D01*
X166047909Y-138906040D01*
X165926624Y-138684000D01*
X164783000Y-138684000D01*
X164529000Y-138684000D01*
X163385376Y-138684000D01*
X163264091Y-138906040D01*
X162458000Y-138906040D01*
X162458000Y-138207960D01*
X163264091Y-138207960D01*
X163385376Y-138430000D01*
X164529000Y-138430000D01*
X164529000Y-137287085D01*
X164783000Y-137287085D01*
X164783000Y-138430000D01*
X165926624Y-138430000D01*
X166047909Y-138207960D01*
X165953070Y-137943119D01*
X165808385Y-137701869D01*
X165619414Y-137493481D01*
X165393420Y-137325963D01*
X165139087Y-137205754D01*
X165005039Y-137165096D01*
X164783000Y-137287085D01*
X164529000Y-137287085D01*
X164306961Y-137165096D01*
X164172913Y-137205754D01*
X163918580Y-137325963D01*
X163692586Y-137493481D01*
X163503615Y-137701869D01*
X163358930Y-137943119D01*
X163264091Y-138207960D01*
X162458000Y-138207960D01*
X162458000Y-136678000D01*
X171180928Y-136678000D01*
X171193188Y-136802482D01*
X171229498Y-136922180D01*
X171288463Y-137032494D01*
X171367815Y-137129185D01*
X171464506Y-137208537D01*
X171574820Y-137267502D01*
X171694518Y-137303812D01*
X171819000Y-137316072D01*
X172498250Y-137313000D01*
X172657000Y-137154250D01*
X172657000Y-135890000D01*
X171342750Y-135890000D01*
X171184000Y-136048750D01*
X171180928Y-136678000D01*
X162458000Y-136678000D01*
X162458000Y-130795665D01*
X163221000Y-130795665D01*
X163221000Y-131078335D01*
X163276147Y-131355574D01*
X163384320Y-131616727D01*
X163541363Y-131851759D01*
X163741241Y-132051637D01*
X163976273Y-132208680D01*
X164237426Y-132316853D01*
X164514665Y-132372000D01*
X164797335Y-132372000D01*
X165074574Y-132316853D01*
X165335727Y-132208680D01*
X165570759Y-132051637D01*
X165770637Y-131851759D01*
X165927680Y-131616727D01*
X166035853Y-131355574D01*
X166091000Y-131078335D01*
X166091000Y-130795665D01*
X166035853Y-130518426D01*
X165927680Y-130257273D01*
X165770637Y-130022241D01*
X165570759Y-129822363D01*
X165491000Y-129769070D01*
X165491000Y-128718025D01*
X165633759Y-128622637D01*
X165833637Y-128422759D01*
X165990680Y-128187727D01*
X166098853Y-127926574D01*
X166154000Y-127649335D01*
X166154000Y-127366665D01*
X166098853Y-127089426D01*
X165990680Y-126828273D01*
X165833637Y-126593241D01*
X165633759Y-126393363D01*
X165398727Y-126236320D01*
X165137574Y-126128147D01*
X164860335Y-126073000D01*
X164577665Y-126073000D01*
X164300426Y-126128147D01*
X164039273Y-126236320D01*
X163804241Y-126393363D01*
X163604363Y-126593241D01*
X163447320Y-126828273D01*
X163339147Y-127089426D01*
X163284000Y-127366665D01*
X163284000Y-127649335D01*
X163339147Y-127926574D01*
X163447320Y-128187727D01*
X163604363Y-128422759D01*
X163804241Y-128622637D01*
X163821000Y-128633835D01*
X163821001Y-129769069D01*
X163741241Y-129822363D01*
X163541363Y-130022241D01*
X163384320Y-130257273D01*
X163276147Y-130518426D01*
X163221000Y-130795665D01*
X162458000Y-130795665D01*
X162458000Y-121426867D01*
X172126436Y-131095305D01*
X171978748Y-131156479D01*
X171700313Y-131342523D01*
X171463523Y-131579313D01*
X171277479Y-131857748D01*
X171149330Y-132167128D01*
X171084000Y-132495565D01*
X171084000Y-132830435D01*
X171149330Y-133158872D01*
X171277479Y-133468252D01*
X171463523Y-133746687D01*
X171700313Y-133983477D01*
X171978748Y-134169521D01*
X172079140Y-134211105D01*
X171819000Y-134209928D01*
X171694518Y-134222188D01*
X171574820Y-134258498D01*
X171464506Y-134317463D01*
X171367815Y-134396815D01*
X171288463Y-134493506D01*
X171229498Y-134603820D01*
X171193188Y-134723518D01*
X171180928Y-134848000D01*
X171184000Y-135477250D01*
X171342750Y-135636000D01*
X172657000Y-135636000D01*
X172657000Y-135616000D01*
X172911000Y-135616000D01*
X172911000Y-135636000D01*
X172931000Y-135636000D01*
X172931000Y-135890000D01*
X172911000Y-135890000D01*
X172911000Y-137154250D01*
X173069750Y-137313000D01*
X173665800Y-137315696D01*
X173665800Y-137830627D01*
X173589252Y-137779479D01*
X173279872Y-137651330D01*
X172951435Y-137586000D01*
X172616565Y-137586000D01*
X172288128Y-137651330D01*
X171978748Y-137779479D01*
X171700313Y-137965523D01*
X171463523Y-138202313D01*
X171277479Y-138480748D01*
X171149330Y-138790128D01*
X171084000Y-139118565D01*
X171084000Y-139453435D01*
X171149330Y-139781872D01*
X171277479Y-140091252D01*
X171463523Y-140369687D01*
X171700313Y-140606477D01*
X171978748Y-140792521D01*
X172288128Y-140920670D01*
X172616565Y-140986000D01*
X172951435Y-140986000D01*
X173279872Y-140920670D01*
X173589252Y-140792521D01*
X173867687Y-140606477D01*
X174104477Y-140369687D01*
X174290521Y-140091252D01*
X174418670Y-139781872D01*
X174484000Y-139453435D01*
X174484000Y-139179667D01*
X179977747Y-144673416D01*
X179894320Y-144798273D01*
X179786147Y-145059426D01*
X179731000Y-145336665D01*
X179731000Y-145619335D01*
X179786147Y-145896574D01*
X179894320Y-146157727D01*
X180051363Y-146392759D01*
X180251241Y-146592637D01*
X180486273Y-146749680D01*
X180747426Y-146857853D01*
X181024665Y-146913000D01*
X181307335Y-146913000D01*
X181584574Y-146857853D01*
X181845727Y-146749680D01*
X182080759Y-146592637D01*
X182280637Y-146392759D01*
X182437680Y-146157727D01*
X182545853Y-145896574D01*
X182601000Y-145619335D01*
X182601000Y-145336665D01*
X182545853Y-145059426D01*
X182510510Y-144974100D01*
X185813882Y-144974100D01*
X185854900Y-144978140D01*
X185895918Y-144974100D01*
X185895919Y-144974100D01*
X186018589Y-144962018D01*
X186175987Y-144914272D01*
X186321046Y-144836736D01*
X186448191Y-144732391D01*
X186474346Y-144700521D01*
X186743000Y-144431867D01*
X186743000Y-144526002D01*
X186901748Y-144526002D01*
X186743000Y-144684750D01*
X186739928Y-145299000D01*
X186752188Y-145423482D01*
X186788498Y-145543180D01*
X186847463Y-145653494D01*
X186926815Y-145750185D01*
X187023506Y-145829537D01*
X187133820Y-145888502D01*
X187253518Y-145924812D01*
X187378000Y-145937072D01*
X187992250Y-145934000D01*
X188151000Y-145775250D01*
X188151000Y-144526000D01*
X188131000Y-144526000D01*
X188131000Y-144272000D01*
X188151000Y-144272000D01*
X188151000Y-144252000D01*
X188405000Y-144252000D01*
X188405000Y-144272000D01*
X188425000Y-144272000D01*
X188425000Y-144526000D01*
X188405000Y-144526000D01*
X188405000Y-145775250D01*
X188563750Y-145934000D01*
X189178000Y-145937072D01*
X189302482Y-145924812D01*
X189422180Y-145888502D01*
X189532494Y-145829537D01*
X189629185Y-145750185D01*
X189708537Y-145653494D01*
X189767502Y-145543180D01*
X189773056Y-145524873D01*
X189839495Y-145591312D01*
X190090905Y-145759299D01*
X190370257Y-145875011D01*
X190666816Y-145934000D01*
X190969184Y-145934000D01*
X191265743Y-145875011D01*
X191545095Y-145759299D01*
X191796505Y-145591312D01*
X192010312Y-145377505D01*
X192178299Y-145126095D01*
X192294011Y-144846743D01*
X192353000Y-144550184D01*
X192353000Y-144247816D01*
X192294011Y-143951257D01*
X192178299Y-143671905D01*
X192010312Y-143420495D01*
X191796505Y-143206688D01*
X191545095Y-143038701D01*
X191265743Y-142922989D01*
X190969184Y-142864000D01*
X190666816Y-142864000D01*
X190370257Y-142922989D01*
X190090905Y-143038701D01*
X189839495Y-143206688D01*
X189773056Y-143273127D01*
X189767502Y-143254820D01*
X189708537Y-143144506D01*
X189629185Y-143047815D01*
X189532494Y-142968463D01*
X189422180Y-142909498D01*
X189302482Y-142873188D01*
X189178000Y-142860928D01*
X188563750Y-142864000D01*
X188405002Y-143022748D01*
X188405002Y-142864000D01*
X188310868Y-142864000D01*
X191010583Y-140164286D01*
X191104665Y-140183000D01*
X191387335Y-140183000D01*
X191664574Y-140127853D01*
X191925727Y-140019680D01*
X192160759Y-139862637D01*
X192360637Y-139662759D01*
X192517680Y-139427727D01*
X192625853Y-139166574D01*
X192681000Y-138889335D01*
X192681000Y-138606665D01*
X192625853Y-138329426D01*
X192517680Y-138068273D01*
X192360637Y-137833241D01*
X192160759Y-137633363D01*
X191925727Y-137476320D01*
X191664574Y-137368147D01*
X191387335Y-137313000D01*
X191104665Y-137313000D01*
X190827426Y-137368147D01*
X190566273Y-137476320D01*
X190331241Y-137633363D01*
X190131363Y-137833241D01*
X189974320Y-138068273D01*
X189866147Y-138329426D01*
X189811000Y-138606665D01*
X189811000Y-138889335D01*
X189829714Y-138983417D01*
X185509033Y-143304100D01*
X182556291Y-143304100D01*
X182601000Y-143079335D01*
X182601000Y-142796665D01*
X182545853Y-142519426D01*
X182437680Y-142258273D01*
X182342196Y-142115371D01*
X182928132Y-141529437D01*
X182959991Y-141503291D01*
X183064336Y-141376146D01*
X183141872Y-141231087D01*
X183189618Y-141073689D01*
X183201700Y-140951019D01*
X183201700Y-140951018D01*
X183205740Y-140910000D01*
X183201700Y-140868982D01*
X183201700Y-139740702D01*
X185432903Y-139740702D01*
X185504486Y-139984671D01*
X185759996Y-140105571D01*
X186034184Y-140174300D01*
X186316512Y-140188217D01*
X186596130Y-140146787D01*
X186862292Y-140051603D01*
X186987514Y-139984671D01*
X187059097Y-139740702D01*
X186246000Y-138927605D01*
X185432903Y-139740702D01*
X183201700Y-139740702D01*
X183201700Y-138818512D01*
X184805783Y-138818512D01*
X184847213Y-139098130D01*
X184942397Y-139364292D01*
X185009329Y-139489514D01*
X185253298Y-139561097D01*
X186066395Y-138748000D01*
X186425605Y-138748000D01*
X187238702Y-139561097D01*
X187482671Y-139489514D01*
X187603571Y-139234004D01*
X187672300Y-138959816D01*
X187686217Y-138677488D01*
X187644787Y-138397870D01*
X187549603Y-138131708D01*
X187482671Y-138006486D01*
X187238702Y-137934903D01*
X186425605Y-138748000D01*
X186066395Y-138748000D01*
X185253298Y-137934903D01*
X185009329Y-138006486D01*
X184888429Y-138261996D01*
X184819700Y-138536184D01*
X184805783Y-138818512D01*
X183201700Y-138818512D01*
X183201700Y-137755298D01*
X185432903Y-137755298D01*
X186246000Y-138568395D01*
X187059097Y-137755298D01*
X186987514Y-137511329D01*
X186732004Y-137390429D01*
X186457816Y-137321700D01*
X186175488Y-137307783D01*
X185895870Y-137349213D01*
X185629708Y-137444397D01*
X185504486Y-137511329D01*
X185432903Y-137755298D01*
X183201700Y-137755298D01*
X183201700Y-134668665D01*
X183477000Y-134668665D01*
X183477000Y-134951335D01*
X183532147Y-135228574D01*
X183640320Y-135489727D01*
X183797363Y-135724759D01*
X183997241Y-135924637D01*
X184232273Y-136081680D01*
X184493426Y-136189853D01*
X184770665Y-136245000D01*
X185053335Y-136245000D01*
X185330574Y-136189853D01*
X185591727Y-136081680D01*
X185826759Y-135924637D01*
X186026637Y-135724759D01*
X186183680Y-135489727D01*
X186291853Y-135228574D01*
X186347000Y-134951335D01*
X186347000Y-134668665D01*
X186291853Y-134391426D01*
X186183680Y-134130273D01*
X186026637Y-133895241D01*
X185826759Y-133695363D01*
X185591727Y-133538320D01*
X185330574Y-133430147D01*
X185053335Y-133375000D01*
X184770665Y-133375000D01*
X184493426Y-133430147D01*
X184232273Y-133538320D01*
X183997241Y-133695363D01*
X183797363Y-133895241D01*
X183640320Y-134130273D01*
X183532147Y-134391426D01*
X183477000Y-134668665D01*
X183201700Y-134668665D01*
X183201700Y-129996000D01*
X186611928Y-129996000D01*
X186624188Y-130120482D01*
X186660498Y-130240180D01*
X186719463Y-130350494D01*
X186798815Y-130447185D01*
X186895506Y-130526537D01*
X187005820Y-130585502D01*
X187125518Y-130621812D01*
X187250000Y-130634072D01*
X187864250Y-130631000D01*
X188023000Y-130472250D01*
X188023000Y-129223000D01*
X186773750Y-129223000D01*
X186615000Y-129381750D01*
X186611928Y-129996000D01*
X183201700Y-129996000D01*
X183201700Y-122788567D01*
X188022998Y-127609867D01*
X188022998Y-127719748D01*
X187864250Y-127561000D01*
X187250000Y-127557928D01*
X187125518Y-127570188D01*
X187005820Y-127606498D01*
X186895506Y-127665463D01*
X186798815Y-127744815D01*
X186719463Y-127841506D01*
X186660498Y-127951820D01*
X186624188Y-128071518D01*
X186611928Y-128196000D01*
X186615000Y-128810250D01*
X186773750Y-128969000D01*
X188023000Y-128969000D01*
X188023000Y-128949000D01*
X188277000Y-128949000D01*
X188277000Y-128969000D01*
X188297000Y-128969000D01*
X188297000Y-129223000D01*
X188277000Y-129223000D01*
X188277000Y-130472250D01*
X188435750Y-130631000D01*
X189050000Y-130634072D01*
X189174482Y-130621812D01*
X189294180Y-130585502D01*
X189404494Y-130526537D01*
X189501185Y-130447185D01*
X189580537Y-130350494D01*
X189639502Y-130240180D01*
X189645056Y-130221873D01*
X189711495Y-130288312D01*
X189962905Y-130456299D01*
X190242257Y-130572011D01*
X190538816Y-130631000D01*
X190841184Y-130631000D01*
X191137743Y-130572011D01*
X191417095Y-130456299D01*
X191668505Y-130288312D01*
X191882312Y-130074505D01*
X192050299Y-129823095D01*
X192166011Y-129543743D01*
X192225000Y-129247184D01*
X192225000Y-128944816D01*
X192166011Y-128648257D01*
X192050299Y-128368905D01*
X191882312Y-128117495D01*
X191668505Y-127903688D01*
X191417095Y-127735701D01*
X191137743Y-127619989D01*
X190841184Y-127561000D01*
X190538816Y-127561000D01*
X190369540Y-127594671D01*
X184529868Y-121755000D01*
X187626928Y-121755000D01*
X187639188Y-121879482D01*
X187675498Y-121999180D01*
X187734463Y-122109494D01*
X187813815Y-122206185D01*
X187910506Y-122285537D01*
X188020820Y-122344502D01*
X188140518Y-122380812D01*
X188265000Y-122393072D01*
X188944250Y-122390000D01*
X189103000Y-122231250D01*
X189103000Y-120967000D01*
X189357000Y-120967000D01*
X189357000Y-122231250D01*
X189515750Y-122390000D01*
X190195000Y-122393072D01*
X190319482Y-122380812D01*
X190439180Y-122344502D01*
X190549494Y-122285537D01*
X190646185Y-122206185D01*
X190725537Y-122109494D01*
X190784502Y-121999180D01*
X190820812Y-121879482D01*
X190833072Y-121755000D01*
X190830000Y-121125750D01*
X190671250Y-120967000D01*
X189357000Y-120967000D01*
X189103000Y-120967000D01*
X187788750Y-120967000D01*
X187630000Y-121125750D01*
X187626928Y-121755000D01*
X184529868Y-121755000D01*
X184121600Y-121346733D01*
X184121600Y-117572565D01*
X187530000Y-117572565D01*
X187530000Y-117907435D01*
X187595330Y-118235872D01*
X187723479Y-118545252D01*
X187909523Y-118823687D01*
X188146313Y-119060477D01*
X188424748Y-119246521D01*
X188525140Y-119288105D01*
X188265000Y-119286928D01*
X188140518Y-119299188D01*
X188020820Y-119335498D01*
X187910506Y-119394463D01*
X187813815Y-119473815D01*
X187734463Y-119570506D01*
X187675498Y-119680820D01*
X187639188Y-119800518D01*
X187626928Y-119925000D01*
X187630000Y-120554250D01*
X187788750Y-120713000D01*
X189103000Y-120713000D01*
X189103000Y-120693000D01*
X189357000Y-120693000D01*
X189357000Y-120713000D01*
X190671250Y-120713000D01*
X190830000Y-120554250D01*
X190833072Y-119925000D01*
X190820812Y-119800518D01*
X190784502Y-119680820D01*
X190725537Y-119570506D01*
X190646185Y-119473815D01*
X190549494Y-119394463D01*
X190439180Y-119335498D01*
X190319482Y-119299188D01*
X190195000Y-119286928D01*
X189934860Y-119288105D01*
X190035252Y-119246521D01*
X190313687Y-119060477D01*
X190550477Y-118823687D01*
X190736521Y-118545252D01*
X190864670Y-118235872D01*
X190930000Y-117907435D01*
X190930000Y-117572565D01*
X190864670Y-117244128D01*
X190736521Y-116934748D01*
X190550477Y-116656313D01*
X190313687Y-116419523D01*
X190035252Y-116233479D01*
X189725872Y-116105330D01*
X189397435Y-116040000D01*
X189062565Y-116040000D01*
X188734128Y-116105330D01*
X188424748Y-116233479D01*
X188146313Y-116419523D01*
X187909523Y-116656313D01*
X187723479Y-116934748D01*
X187595330Y-117244128D01*
X187530000Y-117572565D01*
X184121600Y-117572565D01*
X184121600Y-103323537D01*
X184362356Y-103445455D01*
X184753178Y-103554629D01*
X185157789Y-103585460D01*
X185560641Y-103536763D01*
X185946252Y-103410408D01*
X186223658Y-103262132D01*
X186370645Y-102954250D01*
X185112000Y-101695605D01*
X185097858Y-101709748D01*
X184918253Y-101530143D01*
X184932395Y-101516000D01*
X184918253Y-101501858D01*
X185097858Y-101322253D01*
X185112000Y-101336395D01*
X186370645Y-100077750D01*
X186223658Y-99769868D01*
X185861644Y-99586545D01*
X185470822Y-99477371D01*
X185066211Y-99446540D01*
X184663359Y-99495237D01*
X184277748Y-99621592D01*
X184121600Y-99705055D01*
X184121600Y-98739807D01*
X184125639Y-98698799D01*
X184121600Y-98657791D01*
X184121600Y-98657781D01*
X184109518Y-98535111D01*
X184061772Y-98377713D01*
X183984236Y-98232654D01*
X183879891Y-98105509D01*
X183848027Y-98079359D01*
X182288093Y-96519425D01*
X182259226Y-96374302D01*
X182227650Y-96298072D01*
X183540000Y-96298072D01*
X183664482Y-96285812D01*
X183784180Y-96249502D01*
X183894494Y-96190537D01*
X183991185Y-96111185D01*
X184070537Y-96014494D01*
X184129502Y-95904180D01*
X184165812Y-95784482D01*
X184178072Y-95660000D01*
X184178072Y-94706840D01*
X186627101Y-97155869D01*
X186627101Y-100294045D01*
X186550250Y-100257355D01*
X185291605Y-101516000D01*
X186550250Y-102774645D01*
X186627100Y-102737956D01*
X186627100Y-107631081D01*
X186623060Y-107672100D01*
X186627100Y-107713118D01*
X186639182Y-107835788D01*
X186686928Y-107993186D01*
X186764464Y-108138245D01*
X186868809Y-108265391D01*
X186900679Y-108291546D01*
X187588350Y-108979218D01*
X187530000Y-109272565D01*
X187530000Y-109607435D01*
X187595330Y-109935872D01*
X187723479Y-110245252D01*
X187909523Y-110523687D01*
X188146313Y-110760477D01*
X188424748Y-110946521D01*
X188734128Y-111074670D01*
X189062565Y-111140000D01*
X189397435Y-111140000D01*
X189725872Y-111074670D01*
X190035252Y-110946521D01*
X190313687Y-110760477D01*
X190550477Y-110523687D01*
X190736521Y-110245252D01*
X190864670Y-109935872D01*
X190930000Y-109607435D01*
X190930000Y-109272565D01*
X190864670Y-108944128D01*
X190736521Y-108634748D01*
X190550477Y-108356313D01*
X190313687Y-108119523D01*
X190035252Y-107933479D01*
X189725872Y-107805330D01*
X189397435Y-107740000D01*
X189062565Y-107740000D01*
X188769218Y-107798350D01*
X188297100Y-107326233D01*
X188297100Y-102914379D01*
X188498827Y-103116106D01*
X188836224Y-103341548D01*
X189211120Y-103496835D01*
X189609108Y-103576000D01*
X190014892Y-103576000D01*
X190412880Y-103496835D01*
X190787776Y-103341548D01*
X191125173Y-103116106D01*
X191412106Y-102829173D01*
X191637548Y-102491776D01*
X191792835Y-102116880D01*
X191872000Y-101718892D01*
X191872000Y-101313108D01*
X191792835Y-100915120D01*
X191637548Y-100540224D01*
X191412106Y-100202827D01*
X191125173Y-99915894D01*
X190787776Y-99690452D01*
X190412880Y-99535165D01*
X190014892Y-99456000D01*
X189609108Y-99456000D01*
X189211120Y-99535165D01*
X188836224Y-99690452D01*
X188498827Y-99915894D01*
X188297100Y-100117621D01*
X188297100Y-96851007D01*
X188301139Y-96809999D01*
X188297100Y-96768991D01*
X188297100Y-96768981D01*
X188285018Y-96646311D01*
X188237272Y-96488913D01*
X188159736Y-96343854D01*
X188055391Y-96216709D01*
X188023527Y-96190559D01*
X177512509Y-85679542D01*
X177715775Y-85777158D01*
X178008642Y-85852365D01*
X178310553Y-85868991D01*
X178609907Y-85826397D01*
X178895199Y-85726222D01*
X179044792Y-85646261D01*
X179128475Y-85392080D01*
X178244000Y-84507605D01*
X178229858Y-84521748D01*
X178050253Y-84342143D01*
X178064395Y-84328000D01*
X177179920Y-83443525D01*
X176925739Y-83527208D01*
X176794842Y-83799775D01*
X176719635Y-84092642D01*
X176703009Y-84394553D01*
X176745603Y-84693907D01*
X176845778Y-84979199D01*
X176884376Y-85051408D01*
X175096888Y-83263920D01*
X177359525Y-83263920D01*
X178244000Y-84148395D01*
X179128475Y-83263920D01*
X179044792Y-83009739D01*
X178772225Y-82878842D01*
X178479358Y-82803635D01*
X178177447Y-82787009D01*
X177878093Y-82829603D01*
X177592801Y-82929778D01*
X177443208Y-83009739D01*
X177359525Y-83263920D01*
X175096888Y-83263920D01*
X173903000Y-82070033D01*
X173903000Y-78320493D01*
X174008893Y-78576141D01*
X174297262Y-79007715D01*
X174664285Y-79374738D01*
X175095859Y-79663107D01*
X175575399Y-79861739D01*
X176084475Y-79963000D01*
X176603525Y-79963000D01*
X177112601Y-79861739D01*
X177592141Y-79663107D01*
X178023715Y-79374738D01*
X178390738Y-79007715D01*
X178679107Y-78576141D01*
X178877739Y-78096601D01*
X178979000Y-77587525D01*
X178979000Y-77068475D01*
X182509000Y-77068475D01*
X182509000Y-77587525D01*
X182610261Y-78096601D01*
X182808893Y-78576141D01*
X183097262Y-79007715D01*
X183464285Y-79374738D01*
X183895859Y-79663107D01*
X184375399Y-79861739D01*
X184884475Y-79963000D01*
X185403525Y-79963000D01*
X185912601Y-79861739D01*
X186392141Y-79663107D01*
X186823715Y-79374738D01*
X187190738Y-79007715D01*
X187479107Y-78576141D01*
X187677739Y-78096601D01*
X187779000Y-77587525D01*
X187779000Y-77068475D01*
X187677739Y-76559399D01*
X187479107Y-76079859D01*
X187190738Y-75648285D01*
X186823715Y-75281262D01*
X186392141Y-74992893D01*
X185912601Y-74794261D01*
X185403525Y-74693000D01*
X184884475Y-74693000D01*
X184375399Y-74794261D01*
X183895859Y-74992893D01*
X183464285Y-75281262D01*
X183097262Y-75648285D01*
X182808893Y-76079859D01*
X182610261Y-76559399D01*
X182509000Y-77068475D01*
X178979000Y-77068475D01*
X178877739Y-76559399D01*
X178679107Y-76079859D01*
X178390738Y-75648285D01*
X178023715Y-75281262D01*
X177592141Y-74992893D01*
X177112601Y-74794261D01*
X176603525Y-74693000D01*
X176084475Y-74693000D01*
X175575399Y-74794261D01*
X175095859Y-74992893D01*
X174664285Y-75281262D01*
X174297262Y-75648285D01*
X174008893Y-76079859D01*
X173903000Y-76335507D01*
X173903000Y-66723080D01*
X177359525Y-66723080D01*
X177443208Y-66977261D01*
X177715775Y-67108158D01*
X178008642Y-67183365D01*
X178310553Y-67199991D01*
X178609907Y-67157397D01*
X178895199Y-67057222D01*
X179044792Y-66977261D01*
X179128475Y-66723080D01*
X178244000Y-65838605D01*
X177359525Y-66723080D01*
X173903000Y-66723080D01*
X173903000Y-65725553D01*
X176703009Y-65725553D01*
X176745603Y-66024907D01*
X176845778Y-66310199D01*
X176925739Y-66459792D01*
X177179920Y-66543475D01*
X178064395Y-65659000D01*
X177179920Y-64774525D01*
X176925739Y-64858208D01*
X176794842Y-65130775D01*
X176719635Y-65423642D01*
X176703009Y-65725553D01*
X173903000Y-65725553D01*
X173903000Y-64594920D01*
X177359525Y-64594920D01*
X178244000Y-65479395D01*
X179128475Y-64594920D01*
X179044792Y-64340739D01*
X178772225Y-64209842D01*
X178479358Y-64134635D01*
X178177447Y-64118009D01*
X177878093Y-64160603D01*
X177592801Y-64260778D01*
X177443208Y-64340739D01*
X177359525Y-64594920D01*
X173903000Y-64594920D01*
X173903000Y-59651493D01*
X174008893Y-59907141D01*
X174297262Y-60338715D01*
X174664285Y-60705738D01*
X175095859Y-60994107D01*
X175575399Y-61192739D01*
X176084475Y-61294000D01*
X176603525Y-61294000D01*
X177112601Y-61192739D01*
X177592141Y-60994107D01*
X178023715Y-60705738D01*
X178390738Y-60338715D01*
X178679107Y-59907141D01*
X178877739Y-59427601D01*
X178979000Y-58918525D01*
X178979000Y-58399475D01*
X178877739Y-57890399D01*
X178679107Y-57410859D01*
X178390738Y-56979285D01*
X178023715Y-56612262D01*
X177592141Y-56323893D01*
X177112601Y-56125261D01*
X176603525Y-56024000D01*
X176084475Y-56024000D01*
X175575399Y-56125261D01*
X175095859Y-56323893D01*
X174664285Y-56612262D01*
X174297262Y-56979285D01*
X174008893Y-57410859D01*
X173903000Y-57666507D01*
X173903000Y-56523515D01*
X173907040Y-56482499D01*
X173903000Y-56441481D01*
X173890918Y-56318811D01*
X173843172Y-56161413D01*
X173765636Y-56016354D01*
X173661291Y-55889209D01*
X173629426Y-55863059D01*
X172802285Y-55035918D01*
X172821000Y-54941835D01*
X172821000Y-54659165D01*
X172765853Y-54381926D01*
X172657680Y-54120773D01*
X172500637Y-53885741D01*
X172300759Y-53685863D01*
X172065727Y-53528820D01*
X171804574Y-53420647D01*
X171527335Y-53365500D01*
X171244665Y-53365500D01*
X170967426Y-53420647D01*
X170706273Y-53528820D01*
X170471241Y-53685863D01*
X170271363Y-53885741D01*
X170114320Y-54120773D01*
X170006147Y-54381926D01*
X169951000Y-54659165D01*
X169951000Y-54941835D01*
X170006147Y-55219074D01*
X170114320Y-55480227D01*
X170271363Y-55715259D01*
X170471241Y-55915137D01*
X170706273Y-56072180D01*
X170967426Y-56180353D01*
X171244665Y-56235500D01*
X171527335Y-56235500D01*
X171621418Y-56216785D01*
X172233001Y-56828369D01*
X172233001Y-57404052D01*
X172089727Y-57308320D01*
X171828574Y-57200147D01*
X171551335Y-57145000D01*
X171268665Y-57145000D01*
X170991426Y-57200147D01*
X170730273Y-57308320D01*
X170495241Y-57465363D01*
X170295363Y-57665241D01*
X170138320Y-57900273D01*
X170030147Y-58161426D01*
X169975000Y-58438665D01*
X169975000Y-58721335D01*
X170030147Y-58998574D01*
X170138320Y-59259727D01*
X170295363Y-59494759D01*
X170495241Y-59694637D01*
X170730273Y-59851680D01*
X170991426Y-59959853D01*
X171268665Y-60015000D01*
X171551335Y-60015000D01*
X171828574Y-59959853D01*
X172089727Y-59851680D01*
X172233001Y-59755948D01*
X172233001Y-61194052D01*
X172089727Y-61098320D01*
X171828574Y-60990147D01*
X171551335Y-60935000D01*
X171268665Y-60935000D01*
X170991426Y-60990147D01*
X170730273Y-61098320D01*
X170495241Y-61255363D01*
X170295363Y-61455241D01*
X170138320Y-61690273D01*
X170030147Y-61951426D01*
X169975000Y-62228665D01*
X169975000Y-62511335D01*
X169997968Y-62626799D01*
X167180100Y-59808933D01*
X167180100Y-58620918D01*
X167184140Y-58579899D01*
X167168018Y-58416211D01*
X167120272Y-58258813D01*
X167042736Y-58113754D01*
X166938391Y-57986609D01*
X166906527Y-57960459D01*
X164770982Y-55824914D01*
X164880637Y-55715259D01*
X165037680Y-55480227D01*
X165145853Y-55219074D01*
X165201000Y-54941835D01*
X165201000Y-54659165D01*
X165145853Y-54381926D01*
X165037680Y-54120773D01*
X164880637Y-53885741D01*
X164729738Y-53734842D01*
X164732172Y-53730287D01*
X164779918Y-53572889D01*
X164792000Y-53450219D01*
X164792000Y-53450218D01*
X164796040Y-53409200D01*
X164792000Y-53368182D01*
X164792000Y-52157072D01*
X165057000Y-52157072D01*
X165181482Y-52144812D01*
X165301180Y-52108502D01*
X165411494Y-52049537D01*
X165508185Y-51970185D01*
X165587537Y-51873494D01*
X165646502Y-51763180D01*
X165682812Y-51643482D01*
X165695072Y-51519000D01*
X165695072Y-50815122D01*
X172427825Y-50815122D01*
X172492425Y-51028094D01*
X172642469Y-51333329D01*
X172849178Y-51603427D01*
X173104609Y-51828008D01*
X173398946Y-51998442D01*
X173720877Y-52108179D01*
X173990000Y-51990600D01*
X173990000Y-50546000D01*
X174244000Y-50546000D01*
X174244000Y-51990600D01*
X174513123Y-52108179D01*
X174835054Y-51998442D01*
X175129391Y-51828008D01*
X175384822Y-51603427D01*
X175531551Y-51411702D01*
X177384903Y-51411702D01*
X177456486Y-51655671D01*
X177711996Y-51776571D01*
X177986184Y-51845300D01*
X178268512Y-51859217D01*
X178548130Y-51817787D01*
X178814292Y-51722603D01*
X178939514Y-51655671D01*
X179011097Y-51411702D01*
X178198000Y-50598605D01*
X177384903Y-51411702D01*
X175531551Y-51411702D01*
X175591531Y-51333329D01*
X175741575Y-51028094D01*
X175806175Y-50815122D01*
X175688125Y-50546000D01*
X174244000Y-50546000D01*
X173990000Y-50546000D01*
X172545875Y-50546000D01*
X172427825Y-50815122D01*
X165695072Y-50815122D01*
X165695072Y-50489512D01*
X176757783Y-50489512D01*
X176799213Y-50769130D01*
X176894397Y-51035292D01*
X176961329Y-51160514D01*
X177205298Y-51232097D01*
X178018395Y-50419000D01*
X178377605Y-50419000D01*
X179190702Y-51232097D01*
X179434671Y-51160514D01*
X179555571Y-50905004D01*
X179624300Y-50630816D01*
X179638217Y-50348488D01*
X179627724Y-50277665D01*
X181763000Y-50277665D01*
X181763000Y-50560335D01*
X181818147Y-50837574D01*
X181926320Y-51098727D01*
X182083363Y-51333759D01*
X182283241Y-51533637D01*
X182518273Y-51690680D01*
X182779426Y-51798853D01*
X183056665Y-51854000D01*
X183339335Y-51854000D01*
X183616574Y-51798853D01*
X183877727Y-51690680D01*
X184112759Y-51533637D01*
X184312637Y-51333759D01*
X184469680Y-51098727D01*
X184577853Y-50837574D01*
X184633000Y-50560335D01*
X184633000Y-50277665D01*
X184577853Y-50000426D01*
X184469680Y-49739273D01*
X184312637Y-49504241D01*
X184112759Y-49304363D01*
X183877727Y-49147320D01*
X183616574Y-49039147D01*
X183339335Y-48984000D01*
X183056665Y-48984000D01*
X182779426Y-49039147D01*
X182518273Y-49147320D01*
X182283241Y-49304363D01*
X182083363Y-49504241D01*
X181926320Y-49739273D01*
X181818147Y-50000426D01*
X181763000Y-50277665D01*
X179627724Y-50277665D01*
X179596787Y-50068870D01*
X179501603Y-49802708D01*
X179434671Y-49677486D01*
X179190702Y-49605903D01*
X178377605Y-50419000D01*
X178018395Y-50419000D01*
X177205298Y-49605903D01*
X176961329Y-49677486D01*
X176840429Y-49932996D01*
X176771700Y-50207184D01*
X176757783Y-50489512D01*
X165695072Y-50489512D01*
X165695072Y-50022878D01*
X172427825Y-50022878D01*
X172545875Y-50292000D01*
X173990000Y-50292000D01*
X173990000Y-48847400D01*
X174244000Y-48847400D01*
X174244000Y-50292000D01*
X175688125Y-50292000D01*
X175806175Y-50022878D01*
X175741575Y-49809906D01*
X175591531Y-49504671D01*
X175531552Y-49426298D01*
X177384903Y-49426298D01*
X178198000Y-50239395D01*
X179011097Y-49426298D01*
X178939514Y-49182329D01*
X178684004Y-49061429D01*
X178409816Y-48992700D01*
X178127488Y-48978783D01*
X177847870Y-49020213D01*
X177581708Y-49115397D01*
X177456486Y-49182329D01*
X177384903Y-49426298D01*
X175531552Y-49426298D01*
X175384822Y-49234573D01*
X175129391Y-49009992D01*
X174835054Y-48839558D01*
X174513123Y-48729821D01*
X174244000Y-48847400D01*
X173990000Y-48847400D01*
X173720877Y-48729821D01*
X173398946Y-48839558D01*
X173104609Y-49009992D01*
X172849178Y-49234573D01*
X172642469Y-49504671D01*
X172492425Y-49809906D01*
X172427825Y-50022878D01*
X165695072Y-50022878D01*
X165695072Y-49319000D01*
X165682812Y-49194518D01*
X165646502Y-49074820D01*
X165587537Y-48964506D01*
X165508185Y-48867815D01*
X165411494Y-48788463D01*
X165301180Y-48729498D01*
X165181482Y-48693188D01*
X165057000Y-48680928D01*
X162857000Y-48680928D01*
X162732518Y-48693188D01*
X162612820Y-48729498D01*
X162502506Y-48788463D01*
X162458000Y-48824988D01*
X162458000Y-48412000D01*
X199238000Y-48412000D01*
X199238000Y-49254708D01*
G37*
X199238000Y-49254708D02*
X199149663Y-49122502D01*
X198907998Y-48880837D01*
X198623831Y-48690963D01*
X198308081Y-48560175D01*
X197972883Y-48493500D01*
X197631117Y-48493500D01*
X197295919Y-48560175D01*
X196980169Y-48690963D01*
X196696002Y-48880837D01*
X196454337Y-49122502D01*
X196264463Y-49406669D01*
X196133675Y-49722419D01*
X196067000Y-50057617D01*
X196067000Y-50399383D01*
X196133675Y-50734581D01*
X196264463Y-51050331D01*
X196454337Y-51334498D01*
X196696002Y-51576163D01*
X196965674Y-51756352D01*
X196979082Y-51892488D01*
X197026828Y-52049886D01*
X197104364Y-52194945D01*
X197104365Y-52194946D01*
X197208710Y-52322091D01*
X197240574Y-52348241D01*
X197891260Y-52998928D01*
X196576000Y-52998928D01*
X196451518Y-53011188D01*
X196331820Y-53047498D01*
X196221506Y-53106463D01*
X196124815Y-53185815D01*
X196045463Y-53282506D01*
X195995516Y-53375949D01*
X195278846Y-52659279D01*
X195252691Y-52627409D01*
X195125546Y-52523064D01*
X194980487Y-52445528D01*
X194823089Y-52397782D01*
X194700419Y-52385700D01*
X194700418Y-52385700D01*
X194659400Y-52381660D01*
X194618382Y-52385700D01*
X188477000Y-52385700D01*
X188477000Y-51966572D01*
X188742000Y-51966572D01*
X188866482Y-51954312D01*
X188986180Y-51918002D01*
X189096494Y-51859037D01*
X189193185Y-51779685D01*
X189272537Y-51682994D01*
X189331502Y-51572680D01*
X189367812Y-51452982D01*
X189380072Y-51328500D01*
X189380072Y-49128500D01*
X189367812Y-49004018D01*
X189331502Y-48884320D01*
X189272537Y-48774006D01*
X189193185Y-48677315D01*
X189096494Y-48597963D01*
X188986180Y-48538998D01*
X188866482Y-48502688D01*
X188742000Y-48490428D01*
X186542000Y-48490428D01*
X186417518Y-48502688D01*
X186297820Y-48538998D01*
X186187506Y-48597963D01*
X186090815Y-48677315D01*
X186011463Y-48774006D01*
X185952498Y-48884320D01*
X185916188Y-49004018D01*
X185903928Y-49128500D01*
X185903928Y-51328500D01*
X185916188Y-51452982D01*
X185952498Y-51572680D01*
X186011463Y-51682994D01*
X186090815Y-51779685D01*
X186187506Y-51859037D01*
X186297820Y-51918002D01*
X186417518Y-51954312D01*
X186542000Y-51966572D01*
X186807000Y-51966572D01*
X186807000Y-53179681D01*
X186802960Y-53220700D01*
X186807001Y-53261729D01*
X186807001Y-56601094D01*
X186392141Y-56323893D01*
X185912601Y-56125261D01*
X185403525Y-56024000D01*
X184884475Y-56024000D01*
X184375399Y-56125261D01*
X183895859Y-56323893D01*
X183464285Y-56612262D01*
X183097262Y-56979285D01*
X182808893Y-57410859D01*
X182610261Y-57890399D01*
X182509000Y-58399475D01*
X182509000Y-58918525D01*
X182610261Y-59427601D01*
X182808893Y-59907141D01*
X183097262Y-60338715D01*
X183464285Y-60705738D01*
X183895859Y-60994107D01*
X184375399Y-61192739D01*
X184884475Y-61294000D01*
X185403525Y-61294000D01*
X185912601Y-61192739D01*
X186392141Y-60994107D01*
X186807000Y-60716907D01*
X186807000Y-60915132D01*
X183564462Y-64157671D01*
X183395184Y-64124000D01*
X183092816Y-64124000D01*
X182796257Y-64182989D01*
X182516905Y-64298701D01*
X182265495Y-64466688D01*
X182051688Y-64680495D01*
X181994000Y-64766831D01*
X181936312Y-64680495D01*
X181722505Y-64466688D01*
X181471095Y-64298701D01*
X181191743Y-64182989D01*
X180895184Y-64124000D01*
X180592816Y-64124000D01*
X180296257Y-64182989D01*
X180016905Y-64298701D01*
X179765495Y-64466688D01*
X179551688Y-64680495D01*
X179456262Y-64823310D01*
X179308080Y-64774525D01*
X178423605Y-65659000D01*
X179308080Y-66543475D01*
X179456262Y-66494690D01*
X179551688Y-66637505D01*
X179765495Y-66851312D01*
X180016905Y-67019299D01*
X180296257Y-67135011D01*
X180592816Y-67194000D01*
X180895184Y-67194000D01*
X181191743Y-67135011D01*
X181471095Y-67019299D01*
X181722505Y-66851312D01*
X181936312Y-66637505D01*
X181994000Y-66551169D01*
X182051688Y-66637505D01*
X182265495Y-66851312D01*
X182409000Y-66947199D01*
X182409001Y-69434672D01*
X182404960Y-69475700D01*
X182421082Y-69639388D01*
X182468828Y-69796786D01*
X182543230Y-69935981D01*
X182546365Y-69941846D01*
X182650710Y-70068991D01*
X182682574Y-70095141D01*
X191043948Y-78456516D01*
X190950506Y-78506463D01*
X190853815Y-78585815D01*
X190774463Y-78682506D01*
X190715498Y-78792820D01*
X190679188Y-78912518D01*
X190666928Y-79037000D01*
X190666928Y-81237000D01*
X190679188Y-81361482D01*
X190715498Y-81481180D01*
X190774463Y-81591494D01*
X190853815Y-81688185D01*
X190950506Y-81767537D01*
X191043948Y-81817484D01*
X189368433Y-83493000D01*
X184532199Y-83493000D01*
X184436312Y-83349495D01*
X184222505Y-83135688D01*
X183971095Y-82967701D01*
X183691743Y-82851989D01*
X183395184Y-82793000D01*
X183092816Y-82793000D01*
X182796257Y-82851989D01*
X182516905Y-82967701D01*
X182265495Y-83135688D01*
X182051688Y-83349495D01*
X181994000Y-83435831D01*
X181936312Y-83349495D01*
X181722505Y-83135688D01*
X181471095Y-82967701D01*
X181191743Y-82851989D01*
X180895184Y-82793000D01*
X180592816Y-82793000D01*
X180296257Y-82851989D01*
X180016905Y-82967701D01*
X179765495Y-83135688D01*
X179551688Y-83349495D01*
X179456262Y-83492310D01*
X179308080Y-83443525D01*
X178423605Y-84328000D01*
X179308080Y-85212475D01*
X179456262Y-85163690D01*
X179551688Y-85306505D01*
X179765495Y-85520312D01*
X180016905Y-85688299D01*
X180296257Y-85804011D01*
X180592816Y-85863000D01*
X180895184Y-85863000D01*
X181064461Y-85829329D01*
X182702459Y-87467327D01*
X182728609Y-87499191D01*
X182855754Y-87603536D01*
X183000813Y-87681072D01*
X183158211Y-87728818D01*
X183321899Y-87744940D01*
X183362918Y-87740900D01*
X186791933Y-87740900D01*
X191986996Y-92935964D01*
X191778169Y-93022463D01*
X191494002Y-93212337D01*
X191252337Y-93454002D01*
X191062463Y-93738169D01*
X190931675Y-94053919D01*
X190865000Y-94389117D01*
X190865000Y-94730883D01*
X190931675Y-95066081D01*
X191062463Y-95381831D01*
X191252337Y-95665998D01*
X191494002Y-95907663D01*
X191763674Y-96087852D01*
X191777082Y-96223988D01*
X191824828Y-96381386D01*
X191902364Y-96526445D01*
X191902365Y-96526446D01*
X192006710Y-96653591D01*
X192038574Y-96679741D01*
X193769901Y-98411070D01*
X193769900Y-134079718D01*
X193646637Y-133895241D01*
X193446759Y-133695363D01*
X193211727Y-133538320D01*
X192950574Y-133430147D01*
X192673335Y-133375000D01*
X192390665Y-133375000D01*
X192113426Y-133430147D01*
X191852273Y-133538320D01*
X191617241Y-133695363D01*
X191417363Y-133895241D01*
X191260320Y-134130273D01*
X191152147Y-134391426D01*
X191097000Y-134668665D01*
X191097000Y-134951335D01*
X191152147Y-135228574D01*
X191260320Y-135489727D01*
X191417363Y-135724759D01*
X191617241Y-135924637D01*
X191852273Y-136081680D01*
X192113426Y-136189853D01*
X192390665Y-136245000D01*
X192673335Y-136245000D01*
X192950574Y-136189853D01*
X193211727Y-136081680D01*
X193446759Y-135924637D01*
X193646637Y-135724759D01*
X193769900Y-135540282D01*
X193769900Y-142810682D01*
X193765860Y-142851700D01*
X193769900Y-142892718D01*
X193781982Y-143015388D01*
X193829728Y-143172786D01*
X193907264Y-143317845D01*
X194011609Y-143444991D01*
X194043478Y-143471146D01*
X195228962Y-144656631D01*
X195134320Y-144798273D01*
X195026147Y-145059426D01*
X194971000Y-145336665D01*
X194971000Y-145619335D01*
X195026147Y-145896574D01*
X195134320Y-146157727D01*
X195291363Y-146392759D01*
X195491241Y-146592637D01*
X195726273Y-146749680D01*
X195987426Y-146857853D01*
X196264665Y-146913000D01*
X196547335Y-146913000D01*
X196824574Y-146857853D01*
X197085727Y-146749680D01*
X197320759Y-146592637D01*
X197520637Y-146392759D01*
X197677680Y-146157727D01*
X197785853Y-145896574D01*
X197841000Y-145619335D01*
X197841000Y-145336665D01*
X197785853Y-145059426D01*
X197677680Y-144798273D01*
X197520637Y-144563241D01*
X197320759Y-144363363D01*
X197241799Y-144310604D01*
X197245040Y-144277700D01*
X197228918Y-144114011D01*
X197228916Y-144114004D01*
X197320759Y-144052637D01*
X197520637Y-143852759D01*
X197677680Y-143617727D01*
X197785853Y-143356574D01*
X197841000Y-143079335D01*
X197841000Y-142796665D01*
X197785853Y-142519426D01*
X197677680Y-142258273D01*
X197520637Y-142023241D01*
X197320759Y-141823363D01*
X197088241Y-141668000D01*
X197320759Y-141512637D01*
X197520637Y-141312759D01*
X197677680Y-141077727D01*
X197785853Y-140816574D01*
X197841000Y-140539335D01*
X197841000Y-140256665D01*
X197785853Y-139979426D01*
X197677680Y-139718273D01*
X197520637Y-139483241D01*
X197320759Y-139283363D01*
X197088241Y-139128000D01*
X197320759Y-138972637D01*
X197520637Y-138772759D01*
X197677680Y-138537727D01*
X197785853Y-138276574D01*
X197841000Y-137999335D01*
X197841000Y-137716665D01*
X197785853Y-137439426D01*
X197677680Y-137178273D01*
X197520637Y-136943241D01*
X197320759Y-136743363D01*
X197088241Y-136588000D01*
X197320759Y-136432637D01*
X197520637Y-136232759D01*
X197677680Y-135997727D01*
X197785853Y-135736574D01*
X197841000Y-135459335D01*
X197841000Y-135176665D01*
X197785853Y-134899426D01*
X197677680Y-134638273D01*
X197520637Y-134403241D01*
X197320759Y-134203363D01*
X197088241Y-134048000D01*
X197320759Y-133892637D01*
X197520637Y-133692759D01*
X197677680Y-133457727D01*
X197785853Y-133196574D01*
X197841000Y-132919335D01*
X197841000Y-132636665D01*
X197785853Y-132359426D01*
X197677680Y-132098273D01*
X197520637Y-131863241D01*
X197320759Y-131663363D01*
X197088241Y-131508000D01*
X197320759Y-131352637D01*
X197520637Y-131152759D01*
X197677680Y-130917727D01*
X197785853Y-130656574D01*
X197841000Y-130379335D01*
X197841000Y-130096665D01*
X197785853Y-129819426D01*
X197677680Y-129558273D01*
X197582196Y-129415371D01*
X198210932Y-128786637D01*
X198242791Y-128760491D01*
X198347136Y-128633346D01*
X198424672Y-128488287D01*
X198472418Y-128330889D01*
X198484500Y-128208219D01*
X198488540Y-128167200D01*
X198484500Y-128126182D01*
X198484500Y-104853518D01*
X198488540Y-104812500D01*
X198481444Y-104740455D01*
X198472418Y-104648811D01*
X198424672Y-104491413D01*
X198384982Y-104417159D01*
X198412000Y-104281335D01*
X198412000Y-103998665D01*
X198356853Y-103721426D01*
X198248680Y-103460273D01*
X198091637Y-103225241D01*
X197891759Y-103025363D01*
X197656727Y-102868320D01*
X197395574Y-102760147D01*
X197118335Y-102705000D01*
X196835665Y-102705000D01*
X196558426Y-102760147D01*
X196297273Y-102868320D01*
X196062241Y-103025363D01*
X196040300Y-103047304D01*
X196040300Y-102228467D01*
X198785532Y-99483237D01*
X198817391Y-99457091D01*
X198921736Y-99329946D01*
X198999272Y-99184887D01*
X199047018Y-99027489D01*
X199059100Y-98904819D01*
X199063140Y-98863800D01*
X199059100Y-98822782D01*
X199059100Y-96109418D01*
X199063140Y-96068399D01*
X199047018Y-95904711D01*
X198999272Y-95747313D01*
X198921736Y-95602254D01*
X198915089Y-95594155D01*
X198817391Y-95475109D01*
X198785528Y-95448960D01*
X197911639Y-94575072D01*
X198712000Y-94575072D01*
X198836482Y-94562812D01*
X198956180Y-94526502D01*
X199066494Y-94467537D01*
X199163185Y-94388185D01*
X199238000Y-94297022D01*
X199238001Y-152057500D01*
X174193709Y-152057500D01*
X174200185Y-152052185D01*
X174279537Y-151955494D01*
X174338502Y-151845180D01*
X174374812Y-151725482D01*
X174387072Y-151601000D01*
X174384000Y-150971750D01*
X174225250Y-150813000D01*
X172911000Y-150813000D01*
X172911000Y-150833000D01*
X172657000Y-150833000D01*
X172657000Y-150813000D01*
X171342750Y-150813000D01*
X171184000Y-150971750D01*
X171180928Y-151601000D01*
X171193188Y-151725482D01*
X171229498Y-151845180D01*
X171288463Y-151955494D01*
X171367815Y-152052185D01*
X171374291Y-152057500D01*
X162458000Y-152057500D01*
X162458000Y-149718665D01*
X163284000Y-149718665D01*
X163284000Y-150001335D01*
X163339147Y-150278574D01*
X163447320Y-150539727D01*
X163604363Y-150774759D01*
X163804241Y-150974637D01*
X164039273Y-151131680D01*
X164300426Y-151239853D01*
X164577665Y-151295000D01*
X164860335Y-151295000D01*
X165137574Y-151239853D01*
X165398727Y-151131680D01*
X165633759Y-150974637D01*
X165833637Y-150774759D01*
X165990680Y-150539727D01*
X166098853Y-150278574D01*
X166154000Y-150001335D01*
X166154000Y-149718665D01*
X166098853Y-149441426D01*
X165990680Y-149180273D01*
X165833637Y-148945241D01*
X165633759Y-148745363D01*
X165398727Y-148588320D01*
X165137574Y-148480147D01*
X164860335Y-148425000D01*
X164577665Y-148425000D01*
X164300426Y-148480147D01*
X164039273Y-148588320D01*
X163804241Y-148745363D01*
X163604363Y-148945241D01*
X163447320Y-149180273D01*
X163339147Y-149441426D01*
X163284000Y-149718665D01*
X162458000Y-149718665D01*
X162458000Y-147418565D01*
X171084000Y-147418565D01*
X171084000Y-147753435D01*
X171149330Y-148081872D01*
X171277479Y-148391252D01*
X171463523Y-148669687D01*
X171700313Y-148906477D01*
X171978748Y-149092521D01*
X172079140Y-149134105D01*
X171819000Y-149132928D01*
X171694518Y-149145188D01*
X171574820Y-149181498D01*
X171464506Y-149240463D01*
X171367815Y-149319815D01*
X171288463Y-149416506D01*
X171229498Y-149526820D01*
X171193188Y-149646518D01*
X171180928Y-149771000D01*
X171184000Y-150400250D01*
X171342750Y-150559000D01*
X172657000Y-150559000D01*
X172657000Y-150539000D01*
X172911000Y-150539000D01*
X172911000Y-150559000D01*
X174225250Y-150559000D01*
X174384000Y-150400250D01*
X174387072Y-149771000D01*
X174374812Y-149646518D01*
X174338502Y-149526820D01*
X174279537Y-149416506D01*
X174200185Y-149319815D01*
X174103494Y-149240463D01*
X173993180Y-149181498D01*
X173873482Y-149145188D01*
X173749000Y-149132928D01*
X173488860Y-149134105D01*
X173589252Y-149092521D01*
X173867687Y-148906477D01*
X174104477Y-148669687D01*
X174290521Y-148391252D01*
X174418670Y-148081872D01*
X174484000Y-147753435D01*
X174484000Y-147418565D01*
X174418670Y-147090128D01*
X174290521Y-146780748D01*
X174104477Y-146502313D01*
X173867687Y-146265523D01*
X173589252Y-146079479D01*
X173279872Y-145951330D01*
X172951435Y-145886000D01*
X172616565Y-145886000D01*
X172288128Y-145951330D01*
X171978748Y-146079479D01*
X171700313Y-146265523D01*
X171463523Y-146502313D01*
X171277479Y-146780748D01*
X171149330Y-147090128D01*
X171084000Y-147418565D01*
X162458000Y-147418565D01*
X162458000Y-142098665D01*
X163284000Y-142098665D01*
X163284000Y-142381335D01*
X163339147Y-142658574D01*
X163447320Y-142919727D01*
X163604363Y-143154759D01*
X163804241Y-143354637D01*
X164039273Y-143511680D01*
X164300426Y-143619853D01*
X164577665Y-143675000D01*
X164860335Y-143675000D01*
X165137574Y-143619853D01*
X165398727Y-143511680D01*
X165633759Y-143354637D01*
X165833637Y-143154759D01*
X165990680Y-142919727D01*
X166098853Y-142658574D01*
X166154000Y-142381335D01*
X166154000Y-142098665D01*
X166098853Y-141821426D01*
X165990680Y-141560273D01*
X165833637Y-141325241D01*
X165633759Y-141125363D01*
X165398727Y-140968320D01*
X165137574Y-140860147D01*
X164860335Y-140805000D01*
X164577665Y-140805000D01*
X164300426Y-140860147D01*
X164039273Y-140968320D01*
X163804241Y-141125363D01*
X163604363Y-141325241D01*
X163447320Y-141560273D01*
X163339147Y-141821426D01*
X163284000Y-142098665D01*
X162458000Y-142098665D01*
X162458000Y-138906040D01*
X163264091Y-138906040D01*
X163358930Y-139170881D01*
X163503615Y-139412131D01*
X163692586Y-139620519D01*
X163918580Y-139788037D01*
X164172913Y-139908246D01*
X164306961Y-139948904D01*
X164529000Y-139826915D01*
X164529000Y-138684000D01*
X164783000Y-138684000D01*
X164783000Y-139826915D01*
X165005039Y-139948904D01*
X165139087Y-139908246D01*
X165393420Y-139788037D01*
X165619414Y-139620519D01*
X165808385Y-139412131D01*
X165953070Y-139170881D01*
X166047909Y-138906040D01*
X165926624Y-138684000D01*
X164783000Y-138684000D01*
X164529000Y-138684000D01*
X163385376Y-138684000D01*
X163264091Y-138906040D01*
X162458000Y-138906040D01*
X162458000Y-138207960D01*
X163264091Y-138207960D01*
X163385376Y-138430000D01*
X164529000Y-138430000D01*
X164529000Y-137287085D01*
X164783000Y-137287085D01*
X164783000Y-138430000D01*
X165926624Y-138430000D01*
X166047909Y-138207960D01*
X165953070Y-137943119D01*
X165808385Y-137701869D01*
X165619414Y-137493481D01*
X165393420Y-137325963D01*
X165139087Y-137205754D01*
X165005039Y-137165096D01*
X164783000Y-137287085D01*
X164529000Y-137287085D01*
X164306961Y-137165096D01*
X164172913Y-137205754D01*
X163918580Y-137325963D01*
X163692586Y-137493481D01*
X163503615Y-137701869D01*
X163358930Y-137943119D01*
X163264091Y-138207960D01*
X162458000Y-138207960D01*
X162458000Y-136678000D01*
X171180928Y-136678000D01*
X171193188Y-136802482D01*
X171229498Y-136922180D01*
X171288463Y-137032494D01*
X171367815Y-137129185D01*
X171464506Y-137208537D01*
X171574820Y-137267502D01*
X171694518Y-137303812D01*
X171819000Y-137316072D01*
X172498250Y-137313000D01*
X172657000Y-137154250D01*
X172657000Y-135890000D01*
X171342750Y-135890000D01*
X171184000Y-136048750D01*
X171180928Y-136678000D01*
X162458000Y-136678000D01*
X162458000Y-130795665D01*
X163221000Y-130795665D01*
X163221000Y-131078335D01*
X163276147Y-131355574D01*
X163384320Y-131616727D01*
X163541363Y-131851759D01*
X163741241Y-132051637D01*
X163976273Y-132208680D01*
X164237426Y-132316853D01*
X164514665Y-132372000D01*
X164797335Y-132372000D01*
X165074574Y-132316853D01*
X165335727Y-132208680D01*
X165570759Y-132051637D01*
X165770637Y-131851759D01*
X165927680Y-131616727D01*
X166035853Y-131355574D01*
X166091000Y-131078335D01*
X166091000Y-130795665D01*
X166035853Y-130518426D01*
X165927680Y-130257273D01*
X165770637Y-130022241D01*
X165570759Y-129822363D01*
X165491000Y-129769070D01*
X165491000Y-128718025D01*
X165633759Y-128622637D01*
X165833637Y-128422759D01*
X165990680Y-128187727D01*
X166098853Y-127926574D01*
X166154000Y-127649335D01*
X166154000Y-127366665D01*
X166098853Y-127089426D01*
X165990680Y-126828273D01*
X165833637Y-126593241D01*
X165633759Y-126393363D01*
X165398727Y-126236320D01*
X165137574Y-126128147D01*
X164860335Y-126073000D01*
X164577665Y-126073000D01*
X164300426Y-126128147D01*
X164039273Y-126236320D01*
X163804241Y-126393363D01*
X163604363Y-126593241D01*
X163447320Y-126828273D01*
X163339147Y-127089426D01*
X163284000Y-127366665D01*
X163284000Y-127649335D01*
X163339147Y-127926574D01*
X163447320Y-128187727D01*
X163604363Y-128422759D01*
X163804241Y-128622637D01*
X163821000Y-128633835D01*
X163821001Y-129769069D01*
X163741241Y-129822363D01*
X163541363Y-130022241D01*
X163384320Y-130257273D01*
X163276147Y-130518426D01*
X163221000Y-130795665D01*
X162458000Y-130795665D01*
X162458000Y-121426867D01*
X172126436Y-131095305D01*
X171978748Y-131156479D01*
X171700313Y-131342523D01*
X171463523Y-131579313D01*
X171277479Y-131857748D01*
X171149330Y-132167128D01*
X171084000Y-132495565D01*
X171084000Y-132830435D01*
X171149330Y-133158872D01*
X171277479Y-133468252D01*
X171463523Y-133746687D01*
X171700313Y-133983477D01*
X171978748Y-134169521D01*
X172079140Y-134211105D01*
X171819000Y-134209928D01*
X171694518Y-134222188D01*
X171574820Y-134258498D01*
X171464506Y-134317463D01*
X171367815Y-134396815D01*
X171288463Y-134493506D01*
X171229498Y-134603820D01*
X171193188Y-134723518D01*
X171180928Y-134848000D01*
X171184000Y-135477250D01*
X171342750Y-135636000D01*
X172657000Y-135636000D01*
X172657000Y-135616000D01*
X172911000Y-135616000D01*
X172911000Y-135636000D01*
X172931000Y-135636000D01*
X172931000Y-135890000D01*
X172911000Y-135890000D01*
X172911000Y-137154250D01*
X173069750Y-137313000D01*
X173665800Y-137315696D01*
X173665800Y-137830627D01*
X173589252Y-137779479D01*
X173279872Y-137651330D01*
X172951435Y-137586000D01*
X172616565Y-137586000D01*
X172288128Y-137651330D01*
X171978748Y-137779479D01*
X171700313Y-137965523D01*
X171463523Y-138202313D01*
X171277479Y-138480748D01*
X171149330Y-138790128D01*
X171084000Y-139118565D01*
X171084000Y-139453435D01*
X171149330Y-139781872D01*
X171277479Y-140091252D01*
X171463523Y-140369687D01*
X171700313Y-140606477D01*
X171978748Y-140792521D01*
X172288128Y-140920670D01*
X172616565Y-140986000D01*
X172951435Y-140986000D01*
X173279872Y-140920670D01*
X173589252Y-140792521D01*
X173867687Y-140606477D01*
X174104477Y-140369687D01*
X174290521Y-140091252D01*
X174418670Y-139781872D01*
X174484000Y-139453435D01*
X174484000Y-139179667D01*
X179977747Y-144673416D01*
X179894320Y-144798273D01*
X179786147Y-145059426D01*
X179731000Y-145336665D01*
X179731000Y-145619335D01*
X179786147Y-145896574D01*
X179894320Y-146157727D01*
X180051363Y-146392759D01*
X180251241Y-146592637D01*
X180486273Y-146749680D01*
X180747426Y-146857853D01*
X181024665Y-146913000D01*
X181307335Y-146913000D01*
X181584574Y-146857853D01*
X181845727Y-146749680D01*
X182080759Y-146592637D01*
X182280637Y-146392759D01*
X182437680Y-146157727D01*
X182545853Y-145896574D01*
X182601000Y-145619335D01*
X182601000Y-145336665D01*
X182545853Y-145059426D01*
X182510510Y-144974100D01*
X185813882Y-144974100D01*
X185854900Y-144978140D01*
X185895918Y-144974100D01*
X185895919Y-144974100D01*
X186018589Y-144962018D01*
X186175987Y-144914272D01*
X186321046Y-144836736D01*
X186448191Y-144732391D01*
X186474346Y-144700521D01*
X186743000Y-144431867D01*
X186743000Y-144526002D01*
X186901748Y-144526002D01*
X186743000Y-144684750D01*
X186739928Y-145299000D01*
X186752188Y-145423482D01*
X186788498Y-145543180D01*
X186847463Y-145653494D01*
X186926815Y-145750185D01*
X187023506Y-145829537D01*
X187133820Y-145888502D01*
X187253518Y-145924812D01*
X187378000Y-145937072D01*
X187992250Y-145934000D01*
X188151000Y-145775250D01*
X188151000Y-144526000D01*
X188131000Y-144526000D01*
X188131000Y-144272000D01*
X188151000Y-144272000D01*
X188151000Y-144252000D01*
X188405000Y-144252000D01*
X188405000Y-144272000D01*
X188425000Y-144272000D01*
X188425000Y-144526000D01*
X188405000Y-144526000D01*
X188405000Y-145775250D01*
X188563750Y-145934000D01*
X189178000Y-145937072D01*
X189302482Y-145924812D01*
X189422180Y-145888502D01*
X189532494Y-145829537D01*
X189629185Y-145750185D01*
X189708537Y-145653494D01*
X189767502Y-145543180D01*
X189773056Y-145524873D01*
X189839495Y-145591312D01*
X190090905Y-145759299D01*
X190370257Y-145875011D01*
X190666816Y-145934000D01*
X190969184Y-145934000D01*
X191265743Y-145875011D01*
X191545095Y-145759299D01*
X191796505Y-145591312D01*
X192010312Y-145377505D01*
X192178299Y-145126095D01*
X192294011Y-144846743D01*
X192353000Y-144550184D01*
X192353000Y-144247816D01*
X192294011Y-143951257D01*
X192178299Y-143671905D01*
X192010312Y-143420495D01*
X191796505Y-143206688D01*
X191545095Y-143038701D01*
X191265743Y-142922989D01*
X190969184Y-142864000D01*
X190666816Y-142864000D01*
X190370257Y-142922989D01*
X190090905Y-143038701D01*
X189839495Y-143206688D01*
X189773056Y-143273127D01*
X189767502Y-143254820D01*
X189708537Y-143144506D01*
X189629185Y-143047815D01*
X189532494Y-142968463D01*
X189422180Y-142909498D01*
X189302482Y-142873188D01*
X189178000Y-142860928D01*
X188563750Y-142864000D01*
X188405002Y-143022748D01*
X188405002Y-142864000D01*
X188310868Y-142864000D01*
X191010583Y-140164286D01*
X191104665Y-140183000D01*
X191387335Y-140183000D01*
X191664574Y-140127853D01*
X191925727Y-140019680D01*
X192160759Y-139862637D01*
X192360637Y-139662759D01*
X192517680Y-139427727D01*
X192625853Y-139166574D01*
X192681000Y-138889335D01*
X192681000Y-138606665D01*
X192625853Y-138329426D01*
X192517680Y-138068273D01*
X192360637Y-137833241D01*
X192160759Y-137633363D01*
X191925727Y-137476320D01*
X191664574Y-137368147D01*
X191387335Y-137313000D01*
X191104665Y-137313000D01*
X190827426Y-137368147D01*
X190566273Y-137476320D01*
X190331241Y-137633363D01*
X190131363Y-137833241D01*
X189974320Y-138068273D01*
X189866147Y-138329426D01*
X189811000Y-138606665D01*
X189811000Y-138889335D01*
X189829714Y-138983417D01*
X185509033Y-143304100D01*
X182556291Y-143304100D01*
X182601000Y-143079335D01*
X182601000Y-142796665D01*
X182545853Y-142519426D01*
X182437680Y-142258273D01*
X182342196Y-142115371D01*
X182928132Y-141529437D01*
X182959991Y-141503291D01*
X183064336Y-141376146D01*
X183141872Y-141231087D01*
X183189618Y-141073689D01*
X183201700Y-140951019D01*
X183201700Y-140951018D01*
X183205740Y-140910000D01*
X183201700Y-140868982D01*
X183201700Y-139740702D01*
X185432903Y-139740702D01*
X185504486Y-139984671D01*
X185759996Y-140105571D01*
X186034184Y-140174300D01*
X186316512Y-140188217D01*
X186596130Y-140146787D01*
X186862292Y-140051603D01*
X186987514Y-139984671D01*
X187059097Y-139740702D01*
X186246000Y-138927605D01*
X185432903Y-139740702D01*
X183201700Y-139740702D01*
X183201700Y-138818512D01*
X184805783Y-138818512D01*
X184847213Y-139098130D01*
X184942397Y-139364292D01*
X185009329Y-139489514D01*
X185253298Y-139561097D01*
X186066395Y-138748000D01*
X186425605Y-138748000D01*
X187238702Y-139561097D01*
X187482671Y-139489514D01*
X187603571Y-139234004D01*
X187672300Y-138959816D01*
X187686217Y-138677488D01*
X187644787Y-138397870D01*
X187549603Y-138131708D01*
X187482671Y-138006486D01*
X187238702Y-137934903D01*
X186425605Y-138748000D01*
X186066395Y-138748000D01*
X185253298Y-137934903D01*
X185009329Y-138006486D01*
X184888429Y-138261996D01*
X184819700Y-138536184D01*
X184805783Y-138818512D01*
X183201700Y-138818512D01*
X183201700Y-137755298D01*
X185432903Y-137755298D01*
X186246000Y-138568395D01*
X187059097Y-137755298D01*
X186987514Y-137511329D01*
X186732004Y-137390429D01*
X186457816Y-137321700D01*
X186175488Y-137307783D01*
X185895870Y-137349213D01*
X185629708Y-137444397D01*
X185504486Y-137511329D01*
X185432903Y-137755298D01*
X183201700Y-137755298D01*
X183201700Y-134668665D01*
X183477000Y-134668665D01*
X183477000Y-134951335D01*
X183532147Y-135228574D01*
X183640320Y-135489727D01*
X183797363Y-135724759D01*
X183997241Y-135924637D01*
X184232273Y-136081680D01*
X184493426Y-136189853D01*
X184770665Y-136245000D01*
X185053335Y-136245000D01*
X185330574Y-136189853D01*
X185591727Y-136081680D01*
X185826759Y-135924637D01*
X186026637Y-135724759D01*
X186183680Y-135489727D01*
X186291853Y-135228574D01*
X186347000Y-134951335D01*
X186347000Y-134668665D01*
X186291853Y-134391426D01*
X186183680Y-134130273D01*
X186026637Y-133895241D01*
X185826759Y-133695363D01*
X185591727Y-133538320D01*
X185330574Y-133430147D01*
X185053335Y-133375000D01*
X184770665Y-133375000D01*
X184493426Y-133430147D01*
X184232273Y-133538320D01*
X183997241Y-133695363D01*
X183797363Y-133895241D01*
X183640320Y-134130273D01*
X183532147Y-134391426D01*
X183477000Y-134668665D01*
X183201700Y-134668665D01*
X183201700Y-129996000D01*
X186611928Y-129996000D01*
X186624188Y-130120482D01*
X186660498Y-130240180D01*
X186719463Y-130350494D01*
X186798815Y-130447185D01*
X186895506Y-130526537D01*
X187005820Y-130585502D01*
X187125518Y-130621812D01*
X187250000Y-130634072D01*
X187864250Y-130631000D01*
X188023000Y-130472250D01*
X188023000Y-129223000D01*
X186773750Y-129223000D01*
X186615000Y-129381750D01*
X186611928Y-129996000D01*
X183201700Y-129996000D01*
X183201700Y-122788567D01*
X188022998Y-127609867D01*
X188022998Y-127719748D01*
X187864250Y-127561000D01*
X187250000Y-127557928D01*
X187125518Y-127570188D01*
X187005820Y-127606498D01*
X186895506Y-127665463D01*
X186798815Y-127744815D01*
X186719463Y-127841506D01*
X186660498Y-127951820D01*
X186624188Y-128071518D01*
X186611928Y-128196000D01*
X186615000Y-128810250D01*
X186773750Y-128969000D01*
X188023000Y-128969000D01*
X188023000Y-128949000D01*
X188277000Y-128949000D01*
X188277000Y-128969000D01*
X188297000Y-128969000D01*
X188297000Y-129223000D01*
X188277000Y-129223000D01*
X188277000Y-130472250D01*
X188435750Y-130631000D01*
X189050000Y-130634072D01*
X189174482Y-130621812D01*
X189294180Y-130585502D01*
X189404494Y-130526537D01*
X189501185Y-130447185D01*
X189580537Y-130350494D01*
X189639502Y-130240180D01*
X189645056Y-130221873D01*
X189711495Y-130288312D01*
X189962905Y-130456299D01*
X190242257Y-130572011D01*
X190538816Y-130631000D01*
X190841184Y-130631000D01*
X191137743Y-130572011D01*
X191417095Y-130456299D01*
X191668505Y-130288312D01*
X191882312Y-130074505D01*
X192050299Y-129823095D01*
X192166011Y-129543743D01*
X192225000Y-129247184D01*
X192225000Y-128944816D01*
X192166011Y-128648257D01*
X192050299Y-128368905D01*
X191882312Y-128117495D01*
X191668505Y-127903688D01*
X191417095Y-127735701D01*
X191137743Y-127619989D01*
X190841184Y-127561000D01*
X190538816Y-127561000D01*
X190369540Y-127594671D01*
X184529868Y-121755000D01*
X187626928Y-121755000D01*
X187639188Y-121879482D01*
X187675498Y-121999180D01*
X187734463Y-122109494D01*
X187813815Y-122206185D01*
X187910506Y-122285537D01*
X188020820Y-122344502D01*
X188140518Y-122380812D01*
X188265000Y-122393072D01*
X188944250Y-122390000D01*
X189103000Y-122231250D01*
X189103000Y-120967000D01*
X189357000Y-120967000D01*
X189357000Y-122231250D01*
X189515750Y-122390000D01*
X190195000Y-122393072D01*
X190319482Y-122380812D01*
X190439180Y-122344502D01*
X190549494Y-122285537D01*
X190646185Y-122206185D01*
X190725537Y-122109494D01*
X190784502Y-121999180D01*
X190820812Y-121879482D01*
X190833072Y-121755000D01*
X190830000Y-121125750D01*
X190671250Y-120967000D01*
X189357000Y-120967000D01*
X189103000Y-120967000D01*
X187788750Y-120967000D01*
X187630000Y-121125750D01*
X187626928Y-121755000D01*
X184529868Y-121755000D01*
X184121600Y-121346733D01*
X184121600Y-117572565D01*
X187530000Y-117572565D01*
X187530000Y-117907435D01*
X187595330Y-118235872D01*
X187723479Y-118545252D01*
X187909523Y-118823687D01*
X188146313Y-119060477D01*
X188424748Y-119246521D01*
X188525140Y-119288105D01*
X188265000Y-119286928D01*
X188140518Y-119299188D01*
X188020820Y-119335498D01*
X187910506Y-119394463D01*
X187813815Y-119473815D01*
X187734463Y-119570506D01*
X187675498Y-119680820D01*
X187639188Y-119800518D01*
X187626928Y-119925000D01*
X187630000Y-120554250D01*
X187788750Y-120713000D01*
X189103000Y-120713000D01*
X189103000Y-120693000D01*
X189357000Y-120693000D01*
X189357000Y-120713000D01*
X190671250Y-120713000D01*
X190830000Y-120554250D01*
X190833072Y-119925000D01*
X190820812Y-119800518D01*
X190784502Y-119680820D01*
X190725537Y-119570506D01*
X190646185Y-119473815D01*
X190549494Y-119394463D01*
X190439180Y-119335498D01*
X190319482Y-119299188D01*
X190195000Y-119286928D01*
X189934860Y-119288105D01*
X190035252Y-119246521D01*
X190313687Y-119060477D01*
X190550477Y-118823687D01*
X190736521Y-118545252D01*
X190864670Y-118235872D01*
X190930000Y-117907435D01*
X190930000Y-117572565D01*
X190864670Y-117244128D01*
X190736521Y-116934748D01*
X190550477Y-116656313D01*
X190313687Y-116419523D01*
X190035252Y-116233479D01*
X189725872Y-116105330D01*
X189397435Y-116040000D01*
X189062565Y-116040000D01*
X188734128Y-116105330D01*
X188424748Y-116233479D01*
X188146313Y-116419523D01*
X187909523Y-116656313D01*
X187723479Y-116934748D01*
X187595330Y-117244128D01*
X187530000Y-117572565D01*
X184121600Y-117572565D01*
X184121600Y-103323537D01*
X184362356Y-103445455D01*
X184753178Y-103554629D01*
X185157789Y-103585460D01*
X185560641Y-103536763D01*
X185946252Y-103410408D01*
X186223658Y-103262132D01*
X186370645Y-102954250D01*
X185112000Y-101695605D01*
X185097858Y-101709748D01*
X184918253Y-101530143D01*
X184932395Y-101516000D01*
X184918253Y-101501858D01*
X185097858Y-101322253D01*
X185112000Y-101336395D01*
X186370645Y-100077750D01*
X186223658Y-99769868D01*
X185861644Y-99586545D01*
X185470822Y-99477371D01*
X185066211Y-99446540D01*
X184663359Y-99495237D01*
X184277748Y-99621592D01*
X184121600Y-99705055D01*
X184121600Y-98739807D01*
X184125639Y-98698799D01*
X184121600Y-98657791D01*
X184121600Y-98657781D01*
X184109518Y-98535111D01*
X184061772Y-98377713D01*
X183984236Y-98232654D01*
X183879891Y-98105509D01*
X183848027Y-98079359D01*
X182288093Y-96519425D01*
X182259226Y-96374302D01*
X182227650Y-96298072D01*
X183540000Y-96298072D01*
X183664482Y-96285812D01*
X183784180Y-96249502D01*
X183894494Y-96190537D01*
X183991185Y-96111185D01*
X184070537Y-96014494D01*
X184129502Y-95904180D01*
X184165812Y-95784482D01*
X184178072Y-95660000D01*
X184178072Y-94706840D01*
X186627101Y-97155869D01*
X186627101Y-100294045D01*
X186550250Y-100257355D01*
X185291605Y-101516000D01*
X186550250Y-102774645D01*
X186627100Y-102737956D01*
X186627100Y-107631081D01*
X186623060Y-107672100D01*
X186627100Y-107713118D01*
X186639182Y-107835788D01*
X186686928Y-107993186D01*
X186764464Y-108138245D01*
X186868809Y-108265391D01*
X186900679Y-108291546D01*
X187588350Y-108979218D01*
X187530000Y-109272565D01*
X187530000Y-109607435D01*
X187595330Y-109935872D01*
X187723479Y-110245252D01*
X187909523Y-110523687D01*
X188146313Y-110760477D01*
X188424748Y-110946521D01*
X188734128Y-111074670D01*
X189062565Y-111140000D01*
X189397435Y-111140000D01*
X189725872Y-111074670D01*
X190035252Y-110946521D01*
X190313687Y-110760477D01*
X190550477Y-110523687D01*
X190736521Y-110245252D01*
X190864670Y-109935872D01*
X190930000Y-109607435D01*
X190930000Y-109272565D01*
X190864670Y-108944128D01*
X190736521Y-108634748D01*
X190550477Y-108356313D01*
X190313687Y-108119523D01*
X190035252Y-107933479D01*
X189725872Y-107805330D01*
X189397435Y-107740000D01*
X189062565Y-107740000D01*
X188769218Y-107798350D01*
X188297100Y-107326233D01*
X188297100Y-102914379D01*
X188498827Y-103116106D01*
X188836224Y-103341548D01*
X189211120Y-103496835D01*
X189609108Y-103576000D01*
X190014892Y-103576000D01*
X190412880Y-103496835D01*
X190787776Y-103341548D01*
X191125173Y-103116106D01*
X191412106Y-102829173D01*
X191637548Y-102491776D01*
X191792835Y-102116880D01*
X191872000Y-101718892D01*
X191872000Y-101313108D01*
X191792835Y-100915120D01*
X191637548Y-100540224D01*
X191412106Y-100202827D01*
X191125173Y-99915894D01*
X190787776Y-99690452D01*
X190412880Y-99535165D01*
X190014892Y-99456000D01*
X189609108Y-99456000D01*
X189211120Y-99535165D01*
X188836224Y-99690452D01*
X188498827Y-99915894D01*
X188297100Y-100117621D01*
X188297100Y-96851007D01*
X188301139Y-96809999D01*
X188297100Y-96768991D01*
X188297100Y-96768981D01*
X188285018Y-96646311D01*
X188237272Y-96488913D01*
X188159736Y-96343854D01*
X188055391Y-96216709D01*
X188023527Y-96190559D01*
X177512509Y-85679542D01*
X177715775Y-85777158D01*
X178008642Y-85852365D01*
X178310553Y-85868991D01*
X178609907Y-85826397D01*
X178895199Y-85726222D01*
X179044792Y-85646261D01*
X179128475Y-85392080D01*
X178244000Y-84507605D01*
X178229858Y-84521748D01*
X178050253Y-84342143D01*
X178064395Y-84328000D01*
X177179920Y-83443525D01*
X176925739Y-83527208D01*
X176794842Y-83799775D01*
X176719635Y-84092642D01*
X176703009Y-84394553D01*
X176745603Y-84693907D01*
X176845778Y-84979199D01*
X176884376Y-85051408D01*
X175096888Y-83263920D01*
X177359525Y-83263920D01*
X178244000Y-84148395D01*
X179128475Y-83263920D01*
X179044792Y-83009739D01*
X178772225Y-82878842D01*
X178479358Y-82803635D01*
X178177447Y-82787009D01*
X177878093Y-82829603D01*
X177592801Y-82929778D01*
X177443208Y-83009739D01*
X177359525Y-83263920D01*
X175096888Y-83263920D01*
X173903000Y-82070033D01*
X173903000Y-78320493D01*
X174008893Y-78576141D01*
X174297262Y-79007715D01*
X174664285Y-79374738D01*
X175095859Y-79663107D01*
X175575399Y-79861739D01*
X176084475Y-79963000D01*
X176603525Y-79963000D01*
X177112601Y-79861739D01*
X177592141Y-79663107D01*
X178023715Y-79374738D01*
X178390738Y-79007715D01*
X178679107Y-78576141D01*
X178877739Y-78096601D01*
X178979000Y-77587525D01*
X178979000Y-77068475D01*
X182509000Y-77068475D01*
X182509000Y-77587525D01*
X182610261Y-78096601D01*
X182808893Y-78576141D01*
X183097262Y-79007715D01*
X183464285Y-79374738D01*
X183895859Y-79663107D01*
X184375399Y-79861739D01*
X184884475Y-79963000D01*
X185403525Y-79963000D01*
X185912601Y-79861739D01*
X186392141Y-79663107D01*
X186823715Y-79374738D01*
X187190738Y-79007715D01*
X187479107Y-78576141D01*
X187677739Y-78096601D01*
X187779000Y-77587525D01*
X187779000Y-77068475D01*
X187677739Y-76559399D01*
X187479107Y-76079859D01*
X187190738Y-75648285D01*
X186823715Y-75281262D01*
X186392141Y-74992893D01*
X185912601Y-74794261D01*
X185403525Y-74693000D01*
X184884475Y-74693000D01*
X184375399Y-74794261D01*
X183895859Y-74992893D01*
X183464285Y-75281262D01*
X183097262Y-75648285D01*
X182808893Y-76079859D01*
X182610261Y-76559399D01*
X182509000Y-77068475D01*
X178979000Y-77068475D01*
X178877739Y-76559399D01*
X178679107Y-76079859D01*
X178390738Y-75648285D01*
X178023715Y-75281262D01*
X177592141Y-74992893D01*
X177112601Y-74794261D01*
X176603525Y-74693000D01*
X176084475Y-74693000D01*
X175575399Y-74794261D01*
X175095859Y-74992893D01*
X174664285Y-75281262D01*
X174297262Y-75648285D01*
X174008893Y-76079859D01*
X173903000Y-76335507D01*
X173903000Y-66723080D01*
X177359525Y-66723080D01*
X177443208Y-66977261D01*
X177715775Y-67108158D01*
X178008642Y-67183365D01*
X178310553Y-67199991D01*
X178609907Y-67157397D01*
X178895199Y-67057222D01*
X179044792Y-66977261D01*
X179128475Y-66723080D01*
X178244000Y-65838605D01*
X177359525Y-66723080D01*
X173903000Y-66723080D01*
X173903000Y-65725553D01*
X176703009Y-65725553D01*
X176745603Y-66024907D01*
X176845778Y-66310199D01*
X176925739Y-66459792D01*
X177179920Y-66543475D01*
X178064395Y-65659000D01*
X177179920Y-64774525D01*
X176925739Y-64858208D01*
X176794842Y-65130775D01*
X176719635Y-65423642D01*
X176703009Y-65725553D01*
X173903000Y-65725553D01*
X173903000Y-64594920D01*
X177359525Y-64594920D01*
X178244000Y-65479395D01*
X179128475Y-64594920D01*
X179044792Y-64340739D01*
X178772225Y-64209842D01*
X178479358Y-64134635D01*
X178177447Y-64118009D01*
X177878093Y-64160603D01*
X177592801Y-64260778D01*
X177443208Y-64340739D01*
X177359525Y-64594920D01*
X173903000Y-64594920D01*
X173903000Y-59651493D01*
X174008893Y-59907141D01*
X174297262Y-60338715D01*
X174664285Y-60705738D01*
X175095859Y-60994107D01*
X175575399Y-61192739D01*
X176084475Y-61294000D01*
X176603525Y-61294000D01*
X177112601Y-61192739D01*
X177592141Y-60994107D01*
X178023715Y-60705738D01*
X178390738Y-60338715D01*
X178679107Y-59907141D01*
X178877739Y-59427601D01*
X178979000Y-58918525D01*
X178979000Y-58399475D01*
X178877739Y-57890399D01*
X178679107Y-57410859D01*
X178390738Y-56979285D01*
X178023715Y-56612262D01*
X177592141Y-56323893D01*
X177112601Y-56125261D01*
X176603525Y-56024000D01*
X176084475Y-56024000D01*
X175575399Y-56125261D01*
X175095859Y-56323893D01*
X174664285Y-56612262D01*
X174297262Y-56979285D01*
X174008893Y-57410859D01*
X173903000Y-57666507D01*
X173903000Y-56523515D01*
X173907040Y-56482499D01*
X173903000Y-56441481D01*
X173890918Y-56318811D01*
X173843172Y-56161413D01*
X173765636Y-56016354D01*
X173661291Y-55889209D01*
X173629426Y-55863059D01*
X172802285Y-55035918D01*
X172821000Y-54941835D01*
X172821000Y-54659165D01*
X172765853Y-54381926D01*
X172657680Y-54120773D01*
X172500637Y-53885741D01*
X172300759Y-53685863D01*
X172065727Y-53528820D01*
X171804574Y-53420647D01*
X171527335Y-53365500D01*
X171244665Y-53365500D01*
X170967426Y-53420647D01*
X170706273Y-53528820D01*
X170471241Y-53685863D01*
X170271363Y-53885741D01*
X170114320Y-54120773D01*
X170006147Y-54381926D01*
X169951000Y-54659165D01*
X169951000Y-54941835D01*
X170006147Y-55219074D01*
X170114320Y-55480227D01*
X170271363Y-55715259D01*
X170471241Y-55915137D01*
X170706273Y-56072180D01*
X170967426Y-56180353D01*
X171244665Y-56235500D01*
X171527335Y-56235500D01*
X171621418Y-56216785D01*
X172233001Y-56828369D01*
X172233001Y-57404052D01*
X172089727Y-57308320D01*
X171828574Y-57200147D01*
X171551335Y-57145000D01*
X171268665Y-57145000D01*
X170991426Y-57200147D01*
X170730273Y-57308320D01*
X170495241Y-57465363D01*
X170295363Y-57665241D01*
X170138320Y-57900273D01*
X170030147Y-58161426D01*
X169975000Y-58438665D01*
X169975000Y-58721335D01*
X170030147Y-58998574D01*
X170138320Y-59259727D01*
X170295363Y-59494759D01*
X170495241Y-59694637D01*
X170730273Y-59851680D01*
X170991426Y-59959853D01*
X171268665Y-60015000D01*
X171551335Y-60015000D01*
X171828574Y-59959853D01*
X172089727Y-59851680D01*
X172233001Y-59755948D01*
X172233001Y-61194052D01*
X172089727Y-61098320D01*
X171828574Y-60990147D01*
X171551335Y-60935000D01*
X171268665Y-60935000D01*
X170991426Y-60990147D01*
X170730273Y-61098320D01*
X170495241Y-61255363D01*
X170295363Y-61455241D01*
X170138320Y-61690273D01*
X170030147Y-61951426D01*
X169975000Y-62228665D01*
X169975000Y-62511335D01*
X169997968Y-62626799D01*
X167180100Y-59808933D01*
X167180100Y-58620918D01*
X167184140Y-58579899D01*
X167168018Y-58416211D01*
X167120272Y-58258813D01*
X167042736Y-58113754D01*
X166938391Y-57986609D01*
X166906527Y-57960459D01*
X164770982Y-55824914D01*
X164880637Y-55715259D01*
X165037680Y-55480227D01*
X165145853Y-55219074D01*
X165201000Y-54941835D01*
X165201000Y-54659165D01*
X165145853Y-54381926D01*
X165037680Y-54120773D01*
X164880637Y-53885741D01*
X164729738Y-53734842D01*
X164732172Y-53730287D01*
X164779918Y-53572889D01*
X164792000Y-53450219D01*
X164792000Y-53450218D01*
X164796040Y-53409200D01*
X164792000Y-53368182D01*
X164792000Y-52157072D01*
X165057000Y-52157072D01*
X165181482Y-52144812D01*
X165301180Y-52108502D01*
X165411494Y-52049537D01*
X165508185Y-51970185D01*
X165587537Y-51873494D01*
X165646502Y-51763180D01*
X165682812Y-51643482D01*
X165695072Y-51519000D01*
X165695072Y-50815122D01*
X172427825Y-50815122D01*
X172492425Y-51028094D01*
X172642469Y-51333329D01*
X172849178Y-51603427D01*
X173104609Y-51828008D01*
X173398946Y-51998442D01*
X173720877Y-52108179D01*
X173990000Y-51990600D01*
X173990000Y-50546000D01*
X174244000Y-50546000D01*
X174244000Y-51990600D01*
X174513123Y-52108179D01*
X174835054Y-51998442D01*
X175129391Y-51828008D01*
X175384822Y-51603427D01*
X175531551Y-51411702D01*
X177384903Y-51411702D01*
X177456486Y-51655671D01*
X177711996Y-51776571D01*
X177986184Y-51845300D01*
X178268512Y-51859217D01*
X178548130Y-51817787D01*
X178814292Y-51722603D01*
X178939514Y-51655671D01*
X179011097Y-51411702D01*
X178198000Y-50598605D01*
X177384903Y-51411702D01*
X175531551Y-51411702D01*
X175591531Y-51333329D01*
X175741575Y-51028094D01*
X175806175Y-50815122D01*
X175688125Y-50546000D01*
X174244000Y-50546000D01*
X173990000Y-50546000D01*
X172545875Y-50546000D01*
X172427825Y-50815122D01*
X165695072Y-50815122D01*
X165695072Y-50489512D01*
X176757783Y-50489512D01*
X176799213Y-50769130D01*
X176894397Y-51035292D01*
X176961329Y-51160514D01*
X177205298Y-51232097D01*
X178018395Y-50419000D01*
X178377605Y-50419000D01*
X179190702Y-51232097D01*
X179434671Y-51160514D01*
X179555571Y-50905004D01*
X179624300Y-50630816D01*
X179638217Y-50348488D01*
X179627724Y-50277665D01*
X181763000Y-50277665D01*
X181763000Y-50560335D01*
X181818147Y-50837574D01*
X181926320Y-51098727D01*
X182083363Y-51333759D01*
X182283241Y-51533637D01*
X182518273Y-51690680D01*
X182779426Y-51798853D01*
X183056665Y-51854000D01*
X183339335Y-51854000D01*
X183616574Y-51798853D01*
X183877727Y-51690680D01*
X184112759Y-51533637D01*
X184312637Y-51333759D01*
X184469680Y-51098727D01*
X184577853Y-50837574D01*
X184633000Y-50560335D01*
X184633000Y-50277665D01*
X184577853Y-50000426D01*
X184469680Y-49739273D01*
X184312637Y-49504241D01*
X184112759Y-49304363D01*
X183877727Y-49147320D01*
X183616574Y-49039147D01*
X183339335Y-48984000D01*
X183056665Y-48984000D01*
X182779426Y-49039147D01*
X182518273Y-49147320D01*
X182283241Y-49304363D01*
X182083363Y-49504241D01*
X181926320Y-49739273D01*
X181818147Y-50000426D01*
X181763000Y-50277665D01*
X179627724Y-50277665D01*
X179596787Y-50068870D01*
X179501603Y-49802708D01*
X179434671Y-49677486D01*
X179190702Y-49605903D01*
X178377605Y-50419000D01*
X178018395Y-50419000D01*
X177205298Y-49605903D01*
X176961329Y-49677486D01*
X176840429Y-49932996D01*
X176771700Y-50207184D01*
X176757783Y-50489512D01*
X165695072Y-50489512D01*
X165695072Y-50022878D01*
X172427825Y-50022878D01*
X172545875Y-50292000D01*
X173990000Y-50292000D01*
X173990000Y-48847400D01*
X174244000Y-48847400D01*
X174244000Y-50292000D01*
X175688125Y-50292000D01*
X175806175Y-50022878D01*
X175741575Y-49809906D01*
X175591531Y-49504671D01*
X175531552Y-49426298D01*
X177384903Y-49426298D01*
X178198000Y-50239395D01*
X179011097Y-49426298D01*
X178939514Y-49182329D01*
X178684004Y-49061429D01*
X178409816Y-48992700D01*
X178127488Y-48978783D01*
X177847870Y-49020213D01*
X177581708Y-49115397D01*
X177456486Y-49182329D01*
X177384903Y-49426298D01*
X175531552Y-49426298D01*
X175384822Y-49234573D01*
X175129391Y-49009992D01*
X174835054Y-48839558D01*
X174513123Y-48729821D01*
X174244000Y-48847400D01*
X173990000Y-48847400D01*
X173720877Y-48729821D01*
X173398946Y-48839558D01*
X173104609Y-49009992D01*
X172849178Y-49234573D01*
X172642469Y-49504671D01*
X172492425Y-49809906D01*
X172427825Y-50022878D01*
X165695072Y-50022878D01*
X165695072Y-49319000D01*
X165682812Y-49194518D01*
X165646502Y-49074820D01*
X165587537Y-48964506D01*
X165508185Y-48867815D01*
X165411494Y-48788463D01*
X165301180Y-48729498D01*
X165181482Y-48693188D01*
X165057000Y-48680928D01*
X162857000Y-48680928D01*
X162732518Y-48693188D01*
X162612820Y-48729498D01*
X162502506Y-48788463D01*
X162458000Y-48824988D01*
X162458000Y-48412000D01*
X199238000Y-48412000D01*
X199238000Y-49254708D01*
G36*
X180701928Y-95660000D02*
G01*
X180714188Y-95784482D01*
X180717797Y-95796378D01*
X180604226Y-95872263D01*
X180460063Y-96016426D01*
X180346795Y-96185944D01*
X180268774Y-96374302D01*
X180229000Y-96574261D01*
X180229000Y-96778139D01*
X180268774Y-96978098D01*
X180346795Y-97166456D01*
X180460063Y-97335974D01*
X180604226Y-97480137D01*
X180773744Y-97593405D01*
X180962102Y-97671426D01*
X181107225Y-97700293D01*
X182451601Y-99044669D01*
X182451601Y-99929560D01*
X182426502Y-99846820D01*
X182367537Y-99736506D01*
X182288185Y-99639815D01*
X182191494Y-99560463D01*
X182081180Y-99501498D01*
X181961482Y-99465188D01*
X181837000Y-99452928D01*
X178987000Y-99452928D01*
X178862518Y-99465188D01*
X178742820Y-99501498D01*
X178632506Y-99560463D01*
X178535815Y-99639815D01*
X178456463Y-99736506D01*
X178397498Y-99846820D01*
X178361188Y-99966518D01*
X178348928Y-100091000D01*
X178348928Y-102941000D01*
X178361188Y-103065482D01*
X178397498Y-103185180D01*
X178456463Y-103295494D01*
X178535815Y-103392185D01*
X178632506Y-103471537D01*
X178742820Y-103530502D01*
X178862518Y-103566812D01*
X178987000Y-103579072D01*
X179611555Y-103579072D01*
X179636828Y-103662386D01*
X179714364Y-103807445D01*
X179737907Y-103836132D01*
X179818710Y-103934591D01*
X179850574Y-103960741D01*
X181531700Y-105641868D01*
X181531700Y-108479928D01*
X180366000Y-108479928D01*
X180241518Y-108492188D01*
X180121820Y-108528498D01*
X180011506Y-108587463D01*
X179914815Y-108666815D01*
X179835463Y-108763506D01*
X179776498Y-108873820D01*
X179740188Y-108993518D01*
X179727928Y-109118000D01*
X179727928Y-110718000D01*
X179740188Y-110842482D01*
X179776498Y-110962180D01*
X179835463Y-111072494D01*
X179914815Y-111169185D01*
X180011506Y-111248537D01*
X180121820Y-111307502D01*
X180241518Y-111343812D01*
X180249961Y-111344643D01*
X180051363Y-111543241D01*
X179894320Y-111778273D01*
X179786147Y-112039426D01*
X179731000Y-112316665D01*
X179731000Y-112599335D01*
X179786147Y-112876574D01*
X179894320Y-113137727D01*
X180051363Y-113372759D01*
X180251241Y-113572637D01*
X180483759Y-113728000D01*
X180251241Y-113883363D01*
X180051363Y-114083241D01*
X179894320Y-114318273D01*
X179786147Y-114579426D01*
X179731000Y-114856665D01*
X179731000Y-115139335D01*
X179786147Y-115416574D01*
X179894320Y-115677727D01*
X180051363Y-115912759D01*
X180251241Y-116112637D01*
X180486273Y-116269680D01*
X180496865Y-116274067D01*
X180310869Y-116385615D01*
X180102481Y-116574586D01*
X179934963Y-116800580D01*
X179814754Y-117054913D01*
X179774096Y-117188961D01*
X179896085Y-117411000D01*
X181039000Y-117411000D01*
X181039000Y-117391000D01*
X181293000Y-117391000D01*
X181293000Y-117411000D01*
X181313000Y-117411000D01*
X181313000Y-117665000D01*
X181293000Y-117665000D01*
X181293000Y-117685000D01*
X181039000Y-117685000D01*
X181039000Y-117665000D01*
X179896085Y-117665000D01*
X179774096Y-117887039D01*
X179814754Y-118021087D01*
X179934963Y-118275420D01*
X180102481Y-118501414D01*
X180310869Y-118690385D01*
X180496865Y-118801933D01*
X180486273Y-118806320D01*
X180251241Y-118963363D01*
X180051363Y-119163241D01*
X179894320Y-119398273D01*
X179786147Y-119659426D01*
X179731000Y-119936665D01*
X179731000Y-120219335D01*
X179786147Y-120496574D01*
X179894320Y-120757727D01*
X180051363Y-120992759D01*
X180251241Y-121192637D01*
X180483759Y-121348000D01*
X180251241Y-121503363D01*
X180051363Y-121703241D01*
X179894320Y-121938273D01*
X179786147Y-122199426D01*
X179731000Y-122476665D01*
X179731000Y-122759335D01*
X179786147Y-123036574D01*
X179894320Y-123297727D01*
X180051363Y-123532759D01*
X180251241Y-123732637D01*
X180483759Y-123888000D01*
X180251241Y-124043363D01*
X180051363Y-124243241D01*
X179894320Y-124478273D01*
X179786147Y-124739426D01*
X179731000Y-125016665D01*
X179731000Y-125299335D01*
X179786147Y-125576574D01*
X179894320Y-125837727D01*
X180051363Y-126072759D01*
X180251241Y-126272637D01*
X180483759Y-126428000D01*
X180251241Y-126583363D01*
X180051363Y-126783241D01*
X179894320Y-127018273D01*
X179786147Y-127279426D01*
X179731000Y-127556665D01*
X179731000Y-127839335D01*
X179786147Y-128116574D01*
X179894320Y-128377727D01*
X180051363Y-128612759D01*
X180251241Y-128812637D01*
X180483759Y-128968000D01*
X180251241Y-129123363D01*
X180051363Y-129323241D01*
X179894320Y-129558273D01*
X179786147Y-129819426D01*
X179731000Y-130096665D01*
X179731000Y-130379335D01*
X179786147Y-130656574D01*
X179894320Y-130917727D01*
X180051363Y-131152759D01*
X180251241Y-131352637D01*
X180483759Y-131508000D01*
X180251241Y-131663363D01*
X180051363Y-131863241D01*
X179894320Y-132098273D01*
X179798287Y-132330118D01*
X173411370Y-125943202D01*
X173589252Y-125869521D01*
X173867687Y-125683477D01*
X174104477Y-125446687D01*
X174290521Y-125168252D01*
X174418670Y-124858872D01*
X174484000Y-124530435D01*
X174484000Y-124195565D01*
X174418670Y-123867128D01*
X174290521Y-123557748D01*
X174104477Y-123279313D01*
X173867687Y-123042523D01*
X173589252Y-122856479D01*
X173279872Y-122728330D01*
X172951435Y-122663000D01*
X172616565Y-122663000D01*
X172288128Y-122728330D01*
X171978748Y-122856479D01*
X171700313Y-123042523D01*
X171463523Y-123279313D01*
X171277479Y-123557748D01*
X171203798Y-123735630D01*
X169223168Y-121755000D01*
X171180928Y-121755000D01*
X171193188Y-121879482D01*
X171229498Y-121999180D01*
X171288463Y-122109494D01*
X171367815Y-122206185D01*
X171464506Y-122285537D01*
X171574820Y-122344502D01*
X171694518Y-122380812D01*
X171819000Y-122393072D01*
X172498250Y-122390000D01*
X172657000Y-122231250D01*
X172657000Y-120967000D01*
X172911000Y-120967000D01*
X172911000Y-122231250D01*
X173069750Y-122390000D01*
X173749000Y-122393072D01*
X173873482Y-122380812D01*
X173993180Y-122344502D01*
X174103494Y-122285537D01*
X174200185Y-122206185D01*
X174279537Y-122109494D01*
X174338502Y-121999180D01*
X174374812Y-121879482D01*
X174387072Y-121755000D01*
X174384000Y-121125750D01*
X174225250Y-120967000D01*
X172911000Y-120967000D01*
X172657000Y-120967000D01*
X171342750Y-120967000D01*
X171184000Y-121125750D01*
X171180928Y-121755000D01*
X169223168Y-121755000D01*
X166817300Y-119349133D01*
X166817300Y-118455618D01*
X166821340Y-118414600D01*
X166805218Y-118250912D01*
X166796313Y-118221554D01*
X166757472Y-118093513D01*
X166679936Y-117948454D01*
X166627551Y-117884623D01*
X166601739Y-117853170D01*
X166601737Y-117853168D01*
X166575591Y-117821309D01*
X166543733Y-117795164D01*
X166321134Y-117572565D01*
X171084000Y-117572565D01*
X171084000Y-117907435D01*
X171149330Y-118235872D01*
X171277479Y-118545252D01*
X171463523Y-118823687D01*
X171700313Y-119060477D01*
X171978748Y-119246521D01*
X172079140Y-119288105D01*
X171819000Y-119286928D01*
X171694518Y-119299188D01*
X171574820Y-119335498D01*
X171464506Y-119394463D01*
X171367815Y-119473815D01*
X171288463Y-119570506D01*
X171229498Y-119680820D01*
X171193188Y-119800518D01*
X171180928Y-119925000D01*
X171184000Y-120554250D01*
X171342750Y-120713000D01*
X172657000Y-120713000D01*
X172657000Y-120693000D01*
X172911000Y-120693000D01*
X172911000Y-120713000D01*
X174225250Y-120713000D01*
X174384000Y-120554250D01*
X174387072Y-119925000D01*
X174374812Y-119800518D01*
X174338502Y-119680820D01*
X174279537Y-119570506D01*
X174200185Y-119473815D01*
X174103494Y-119394463D01*
X173993180Y-119335498D01*
X173873482Y-119299188D01*
X173749000Y-119286928D01*
X173488860Y-119288105D01*
X173589252Y-119246521D01*
X173867687Y-119060477D01*
X174104477Y-118823687D01*
X174290521Y-118545252D01*
X174418670Y-118235872D01*
X174484000Y-117907435D01*
X174484000Y-117572565D01*
X174418670Y-117244128D01*
X174290521Y-116934748D01*
X174104477Y-116656313D01*
X173867687Y-116419523D01*
X173589252Y-116233479D01*
X173279872Y-116105330D01*
X172951435Y-116040000D01*
X172616565Y-116040000D01*
X172288128Y-116105330D01*
X171978748Y-116233479D01*
X171700313Y-116419523D01*
X171463523Y-116656313D01*
X171277479Y-116934748D01*
X171149330Y-117244128D01*
X171084000Y-117572565D01*
X166321134Y-117572565D01*
X165786982Y-117038414D01*
X165896637Y-116928759D01*
X166053680Y-116693727D01*
X166161853Y-116432574D01*
X166217000Y-116155335D01*
X166217000Y-115872665D01*
X166161853Y-115595426D01*
X166053680Y-115334273D01*
X165896637Y-115099241D01*
X165696759Y-114899363D01*
X165503342Y-114770126D01*
X166970768Y-113302700D01*
X171800382Y-113302700D01*
X171841400Y-113306740D01*
X171882418Y-113302700D01*
X171882419Y-113302700D01*
X172005089Y-113290618D01*
X172162487Y-113242872D01*
X172307546Y-113165336D01*
X172434691Y-113060991D01*
X172460846Y-113029121D01*
X174849133Y-110640836D01*
X174880991Y-110614691D01*
X174985336Y-110487546D01*
X175062872Y-110342487D01*
X175110618Y-110185089D01*
X175122700Y-110062419D01*
X175122700Y-110062418D01*
X175126740Y-110021400D01*
X175122700Y-109980382D01*
X175122700Y-107471707D01*
X175126739Y-107430699D01*
X175122700Y-107389691D01*
X175122700Y-107389681D01*
X175110618Y-107267011D01*
X175062872Y-107109613D01*
X174985336Y-106964554D01*
X174880991Y-106837409D01*
X174849127Y-106811259D01*
X172898600Y-104860733D01*
X172898600Y-103179898D01*
X173078250Y-103179000D01*
X173237000Y-103020250D01*
X173237000Y-101771000D01*
X173217000Y-101771000D01*
X173217000Y-101517000D01*
X173237000Y-101517000D01*
X173237000Y-101497000D01*
X173491000Y-101497000D01*
X173491000Y-101517000D01*
X173511000Y-101517000D01*
X173511000Y-101771000D01*
X173491000Y-101771000D01*
X173491000Y-103020250D01*
X173649750Y-103179000D01*
X174264000Y-103182072D01*
X174388482Y-103169812D01*
X174508180Y-103133502D01*
X174618494Y-103074537D01*
X174715185Y-102995185D01*
X174794537Y-102898494D01*
X174853502Y-102788180D01*
X174859056Y-102769873D01*
X174925495Y-102836312D01*
X175176905Y-103004299D01*
X175456257Y-103120011D01*
X175752816Y-103179000D01*
X176055184Y-103179000D01*
X176351743Y-103120011D01*
X176631095Y-103004299D01*
X176882505Y-102836312D01*
X177096312Y-102622505D01*
X177264299Y-102371095D01*
X177380011Y-102091743D01*
X177439000Y-101795184D01*
X177439000Y-101492816D01*
X177380011Y-101196257D01*
X177264299Y-100916905D01*
X177096312Y-100665495D01*
X176882505Y-100451688D01*
X176631095Y-100283701D01*
X176351743Y-100167989D01*
X176055184Y-100109000D01*
X175752816Y-100109000D01*
X175456257Y-100167989D01*
X175176905Y-100283701D01*
X174925495Y-100451688D01*
X174859056Y-100518127D01*
X174853502Y-100499820D01*
X174794537Y-100389506D01*
X174715185Y-100292815D01*
X174618494Y-100213463D01*
X174508180Y-100154498D01*
X174388482Y-100118188D01*
X174264000Y-100105928D01*
X173699315Y-100108752D01*
X178413069Y-95395000D01*
X180701928Y-95395000D01*
X180701928Y-95660000D01*
G37*
X180701928Y-95660000D02*
X180714188Y-95784482D01*
X180717797Y-95796378D01*
X180604226Y-95872263D01*
X180460063Y-96016426D01*
X180346795Y-96185944D01*
X180268774Y-96374302D01*
X180229000Y-96574261D01*
X180229000Y-96778139D01*
X180268774Y-96978098D01*
X180346795Y-97166456D01*
X180460063Y-97335974D01*
X180604226Y-97480137D01*
X180773744Y-97593405D01*
X180962102Y-97671426D01*
X181107225Y-97700293D01*
X182451601Y-99044669D01*
X182451601Y-99929560D01*
X182426502Y-99846820D01*
X182367537Y-99736506D01*
X182288185Y-99639815D01*
X182191494Y-99560463D01*
X182081180Y-99501498D01*
X181961482Y-99465188D01*
X181837000Y-99452928D01*
X178987000Y-99452928D01*
X178862518Y-99465188D01*
X178742820Y-99501498D01*
X178632506Y-99560463D01*
X178535815Y-99639815D01*
X178456463Y-99736506D01*
X178397498Y-99846820D01*
X178361188Y-99966518D01*
X178348928Y-100091000D01*
X178348928Y-102941000D01*
X178361188Y-103065482D01*
X178397498Y-103185180D01*
X178456463Y-103295494D01*
X178535815Y-103392185D01*
X178632506Y-103471537D01*
X178742820Y-103530502D01*
X178862518Y-103566812D01*
X178987000Y-103579072D01*
X179611555Y-103579072D01*
X179636828Y-103662386D01*
X179714364Y-103807445D01*
X179737907Y-103836132D01*
X179818710Y-103934591D01*
X179850574Y-103960741D01*
X181531700Y-105641868D01*
X181531700Y-108479928D01*
X180366000Y-108479928D01*
X180241518Y-108492188D01*
X180121820Y-108528498D01*
X180011506Y-108587463D01*
X179914815Y-108666815D01*
X179835463Y-108763506D01*
X179776498Y-108873820D01*
X179740188Y-108993518D01*
X179727928Y-109118000D01*
X179727928Y-110718000D01*
X179740188Y-110842482D01*
X179776498Y-110962180D01*
X179835463Y-111072494D01*
X179914815Y-111169185D01*
X180011506Y-111248537D01*
X180121820Y-111307502D01*
X180241518Y-111343812D01*
X180249961Y-111344643D01*
X180051363Y-111543241D01*
X179894320Y-111778273D01*
X179786147Y-112039426D01*
X179731000Y-112316665D01*
X179731000Y-112599335D01*
X179786147Y-112876574D01*
X179894320Y-113137727D01*
X180051363Y-113372759D01*
X180251241Y-113572637D01*
X180483759Y-113728000D01*
X180251241Y-113883363D01*
X180051363Y-114083241D01*
X179894320Y-114318273D01*
X179786147Y-114579426D01*
X179731000Y-114856665D01*
X179731000Y-115139335D01*
X179786147Y-115416574D01*
X179894320Y-115677727D01*
X180051363Y-115912759D01*
X180251241Y-116112637D01*
X180486273Y-116269680D01*
X180496865Y-116274067D01*
X180310869Y-116385615D01*
X180102481Y-116574586D01*
X179934963Y-116800580D01*
X179814754Y-117054913D01*
X179774096Y-117188961D01*
X179896085Y-117411000D01*
X181039000Y-117411000D01*
X181039000Y-117391000D01*
X181293000Y-117391000D01*
X181293000Y-117411000D01*
X181313000Y-117411000D01*
X181313000Y-117665000D01*
X181293000Y-117665000D01*
X181293000Y-117685000D01*
X181039000Y-117685000D01*
X181039000Y-117665000D01*
X179896085Y-117665000D01*
X179774096Y-117887039D01*
X179814754Y-118021087D01*
X179934963Y-118275420D01*
X180102481Y-118501414D01*
X180310869Y-118690385D01*
X180496865Y-118801933D01*
X180486273Y-118806320D01*
X180251241Y-118963363D01*
X180051363Y-119163241D01*
X179894320Y-119398273D01*
X179786147Y-119659426D01*
X179731000Y-119936665D01*
X179731000Y-120219335D01*
X179786147Y-120496574D01*
X179894320Y-120757727D01*
X180051363Y-120992759D01*
X180251241Y-121192637D01*
X180483759Y-121348000D01*
X180251241Y-121503363D01*
X180051363Y-121703241D01*
X179894320Y-121938273D01*
X179786147Y-122199426D01*
X179731000Y-122476665D01*
X179731000Y-122759335D01*
X179786147Y-123036574D01*
X179894320Y-123297727D01*
X180051363Y-123532759D01*
X180251241Y-123732637D01*
X180483759Y-123888000D01*
X180251241Y-124043363D01*
X180051363Y-124243241D01*
X179894320Y-124478273D01*
X179786147Y-124739426D01*
X179731000Y-125016665D01*
X179731000Y-125299335D01*
X179786147Y-125576574D01*
X179894320Y-125837727D01*
X180051363Y-126072759D01*
X180251241Y-126272637D01*
X180483759Y-126428000D01*
X180251241Y-126583363D01*
X180051363Y-126783241D01*
X179894320Y-127018273D01*
X179786147Y-127279426D01*
X179731000Y-127556665D01*
X179731000Y-127839335D01*
X179786147Y-128116574D01*
X179894320Y-128377727D01*
X180051363Y-128612759D01*
X180251241Y-128812637D01*
X180483759Y-128968000D01*
X180251241Y-129123363D01*
X180051363Y-129323241D01*
X179894320Y-129558273D01*
X179786147Y-129819426D01*
X179731000Y-130096665D01*
X179731000Y-130379335D01*
X179786147Y-130656574D01*
X179894320Y-130917727D01*
X180051363Y-131152759D01*
X180251241Y-131352637D01*
X180483759Y-131508000D01*
X180251241Y-131663363D01*
X180051363Y-131863241D01*
X179894320Y-132098273D01*
X179798287Y-132330118D01*
X173411370Y-125943202D01*
X173589252Y-125869521D01*
X173867687Y-125683477D01*
X174104477Y-125446687D01*
X174290521Y-125168252D01*
X174418670Y-124858872D01*
X174484000Y-124530435D01*
X174484000Y-124195565D01*
X174418670Y-123867128D01*
X174290521Y-123557748D01*
X174104477Y-123279313D01*
X173867687Y-123042523D01*
X173589252Y-122856479D01*
X173279872Y-122728330D01*
X172951435Y-122663000D01*
X172616565Y-122663000D01*
X172288128Y-122728330D01*
X171978748Y-122856479D01*
X171700313Y-123042523D01*
X171463523Y-123279313D01*
X171277479Y-123557748D01*
X171203798Y-123735630D01*
X169223168Y-121755000D01*
X171180928Y-121755000D01*
X171193188Y-121879482D01*
X171229498Y-121999180D01*
X171288463Y-122109494D01*
X171367815Y-122206185D01*
X171464506Y-122285537D01*
X171574820Y-122344502D01*
X171694518Y-122380812D01*
X171819000Y-122393072D01*
X172498250Y-122390000D01*
X172657000Y-122231250D01*
X172657000Y-120967000D01*
X172911000Y-120967000D01*
X172911000Y-122231250D01*
X173069750Y-122390000D01*
X173749000Y-122393072D01*
X173873482Y-122380812D01*
X173993180Y-122344502D01*
X174103494Y-122285537D01*
X174200185Y-122206185D01*
X174279537Y-122109494D01*
X174338502Y-121999180D01*
X174374812Y-121879482D01*
X174387072Y-121755000D01*
X174384000Y-121125750D01*
X174225250Y-120967000D01*
X172911000Y-120967000D01*
X172657000Y-120967000D01*
X171342750Y-120967000D01*
X171184000Y-121125750D01*
X171180928Y-121755000D01*
X169223168Y-121755000D01*
X166817300Y-119349133D01*
X166817300Y-118455618D01*
X166821340Y-118414600D01*
X166805218Y-118250912D01*
X166796313Y-118221554D01*
X166757472Y-118093513D01*
X166679936Y-117948454D01*
X166627551Y-117884623D01*
X166601739Y-117853170D01*
X166601737Y-117853168D01*
X166575591Y-117821309D01*
X166543733Y-117795164D01*
X166321134Y-117572565D01*
X171084000Y-117572565D01*
X171084000Y-117907435D01*
X171149330Y-118235872D01*
X171277479Y-118545252D01*
X171463523Y-118823687D01*
X171700313Y-119060477D01*
X171978748Y-119246521D01*
X172079140Y-119288105D01*
X171819000Y-119286928D01*
X171694518Y-119299188D01*
X171574820Y-119335498D01*
X171464506Y-119394463D01*
X171367815Y-119473815D01*
X171288463Y-119570506D01*
X171229498Y-119680820D01*
X171193188Y-119800518D01*
X171180928Y-119925000D01*
X171184000Y-120554250D01*
X171342750Y-120713000D01*
X172657000Y-120713000D01*
X172657000Y-120693000D01*
X172911000Y-120693000D01*
X172911000Y-120713000D01*
X174225250Y-120713000D01*
X174384000Y-120554250D01*
X174387072Y-119925000D01*
X174374812Y-119800518D01*
X174338502Y-119680820D01*
X174279537Y-119570506D01*
X174200185Y-119473815D01*
X174103494Y-119394463D01*
X173993180Y-119335498D01*
X173873482Y-119299188D01*
X173749000Y-119286928D01*
X173488860Y-119288105D01*
X173589252Y-119246521D01*
X173867687Y-119060477D01*
X174104477Y-118823687D01*
X174290521Y-118545252D01*
X174418670Y-118235872D01*
X174484000Y-117907435D01*
X174484000Y-117572565D01*
X174418670Y-117244128D01*
X174290521Y-116934748D01*
X174104477Y-116656313D01*
X173867687Y-116419523D01*
X173589252Y-116233479D01*
X173279872Y-116105330D01*
X172951435Y-116040000D01*
X172616565Y-116040000D01*
X172288128Y-116105330D01*
X171978748Y-116233479D01*
X171700313Y-116419523D01*
X171463523Y-116656313D01*
X171277479Y-116934748D01*
X171149330Y-117244128D01*
X171084000Y-117572565D01*
X166321134Y-117572565D01*
X165786982Y-117038414D01*
X165896637Y-116928759D01*
X166053680Y-116693727D01*
X166161853Y-116432574D01*
X166217000Y-116155335D01*
X166217000Y-115872665D01*
X166161853Y-115595426D01*
X166053680Y-115334273D01*
X165896637Y-115099241D01*
X165696759Y-114899363D01*
X165503342Y-114770126D01*
X166970768Y-113302700D01*
X171800382Y-113302700D01*
X171841400Y-113306740D01*
X171882418Y-113302700D01*
X171882419Y-113302700D01*
X172005089Y-113290618D01*
X172162487Y-113242872D01*
X172307546Y-113165336D01*
X172434691Y-113060991D01*
X172460846Y-113029121D01*
X174849133Y-110640836D01*
X174880991Y-110614691D01*
X174985336Y-110487546D01*
X175062872Y-110342487D01*
X175110618Y-110185089D01*
X175122700Y-110062419D01*
X175122700Y-110062418D01*
X175126740Y-110021400D01*
X175122700Y-109980382D01*
X175122700Y-107471707D01*
X175126739Y-107430699D01*
X175122700Y-107389691D01*
X175122700Y-107389681D01*
X175110618Y-107267011D01*
X175062872Y-107109613D01*
X174985336Y-106964554D01*
X174880991Y-106837409D01*
X174849127Y-106811259D01*
X172898600Y-104860733D01*
X172898600Y-103179898D01*
X173078250Y-103179000D01*
X173237000Y-103020250D01*
X173237000Y-101771000D01*
X173217000Y-101771000D01*
X173217000Y-101517000D01*
X173237000Y-101517000D01*
X173237000Y-101497000D01*
X173491000Y-101497000D01*
X173491000Y-101517000D01*
X173511000Y-101517000D01*
X173511000Y-101771000D01*
X173491000Y-101771000D01*
X173491000Y-103020250D01*
X173649750Y-103179000D01*
X174264000Y-103182072D01*
X174388482Y-103169812D01*
X174508180Y-103133502D01*
X174618494Y-103074537D01*
X174715185Y-102995185D01*
X174794537Y-102898494D01*
X174853502Y-102788180D01*
X174859056Y-102769873D01*
X174925495Y-102836312D01*
X175176905Y-103004299D01*
X175456257Y-103120011D01*
X175752816Y-103179000D01*
X176055184Y-103179000D01*
X176351743Y-103120011D01*
X176631095Y-103004299D01*
X176882505Y-102836312D01*
X177096312Y-102622505D01*
X177264299Y-102371095D01*
X177380011Y-102091743D01*
X177439000Y-101795184D01*
X177439000Y-101492816D01*
X177380011Y-101196257D01*
X177264299Y-100916905D01*
X177096312Y-100665495D01*
X176882505Y-100451688D01*
X176631095Y-100283701D01*
X176351743Y-100167989D01*
X176055184Y-100109000D01*
X175752816Y-100109000D01*
X175456257Y-100167989D01*
X175176905Y-100283701D01*
X174925495Y-100451688D01*
X174859056Y-100518127D01*
X174853502Y-100499820D01*
X174794537Y-100389506D01*
X174715185Y-100292815D01*
X174618494Y-100213463D01*
X174508180Y-100154498D01*
X174388482Y-100118188D01*
X174264000Y-100105928D01*
X173699315Y-100108752D01*
X178413069Y-95395000D01*
X180701928Y-95395000D01*
X180701928Y-95660000D01*
G36*
X165510101Y-58925769D02*
G01*
X165510100Y-60113781D01*
X165506060Y-60154800D01*
X165510100Y-60195818D01*
X165522182Y-60318488D01*
X165569928Y-60475886D01*
X165647464Y-60620945D01*
X165751809Y-60748091D01*
X165783679Y-60774246D01*
X170435018Y-65425586D01*
X170325363Y-65535241D01*
X170168320Y-65770273D01*
X170060147Y-66031426D01*
X170005000Y-66308665D01*
X170005000Y-66591335D01*
X170060147Y-66868574D01*
X170168320Y-67129727D01*
X170325363Y-67364759D01*
X170525241Y-67564637D01*
X170605001Y-67617931D01*
X170605001Y-74340414D01*
X170533475Y-74233368D01*
X170326632Y-74026525D01*
X170083411Y-73864010D01*
X169813158Y-73752068D01*
X169526260Y-73695000D01*
X169233740Y-73695000D01*
X168946842Y-73752068D01*
X168676589Y-73864010D01*
X168433368Y-74026525D01*
X168246285Y-74213608D01*
X168178405Y-74086614D01*
X168067962Y-73952038D01*
X167933386Y-73841595D01*
X167779850Y-73759528D01*
X167613254Y-73708992D01*
X167440000Y-73691928D01*
X166240000Y-73691928D01*
X166066746Y-73708992D01*
X165900150Y-73759528D01*
X165746614Y-73841595D01*
X165612038Y-73952038D01*
X165501595Y-74086614D01*
X165419528Y-74240150D01*
X165368992Y-74406746D01*
X165351928Y-74580000D01*
X165351928Y-75780000D01*
X165368992Y-75953254D01*
X165419528Y-76119850D01*
X165501595Y-76273386D01*
X165612038Y-76407962D01*
X165746614Y-76518405D01*
X165900150Y-76600472D01*
X166009293Y-76633580D01*
X165991208Y-76691603D01*
X166840000Y-77540395D01*
X167688792Y-76691603D01*
X167670707Y-76633580D01*
X167779850Y-76600472D01*
X167933386Y-76518405D01*
X168067962Y-76407962D01*
X168178405Y-76273386D01*
X168246285Y-76146392D01*
X168433368Y-76333475D01*
X168606729Y-76449311D01*
X168531208Y-76691603D01*
X169380000Y-77540395D01*
X170228792Y-76691603D01*
X170153271Y-76449311D01*
X170326632Y-76333475D01*
X170533475Y-76126632D01*
X170605001Y-76019586D01*
X170605001Y-76932488D01*
X170408397Y-76871208D01*
X169559605Y-77720000D01*
X170408397Y-78568792D01*
X170605001Y-78507512D01*
X170605001Y-79472488D01*
X170408397Y-79411208D01*
X169559605Y-80260000D01*
X170408397Y-81108792D01*
X170605001Y-81047512D01*
X170605001Y-82012488D01*
X170408397Y-81951208D01*
X169559605Y-82800000D01*
X170408397Y-83648792D01*
X170605001Y-83587512D01*
X170605001Y-84500414D01*
X170533475Y-84393368D01*
X170326632Y-84186525D01*
X170153271Y-84070689D01*
X170228792Y-83828397D01*
X169380000Y-82979605D01*
X168531208Y-83828397D01*
X168606729Y-84070689D01*
X168433368Y-84186525D01*
X168226525Y-84393368D01*
X168110000Y-84567760D01*
X167993475Y-84393368D01*
X167786632Y-84186525D01*
X167613271Y-84070689D01*
X167688792Y-83828397D01*
X166840000Y-82979605D01*
X165991208Y-83828397D01*
X166066729Y-84070689D01*
X165893368Y-84186525D01*
X165686525Y-84393368D01*
X165524010Y-84636589D01*
X165412068Y-84906842D01*
X165355000Y-85193740D01*
X165355000Y-85486260D01*
X165412068Y-85773158D01*
X165524010Y-86043411D01*
X165686525Y-86286632D01*
X165893368Y-86493475D01*
X166067760Y-86610000D01*
X165893368Y-86726525D01*
X165686525Y-86933368D01*
X165524010Y-87176589D01*
X165412068Y-87446842D01*
X165355000Y-87733740D01*
X165355000Y-88026260D01*
X165412068Y-88313158D01*
X165524010Y-88583411D01*
X165686525Y-88826632D01*
X165893368Y-89033475D01*
X166067760Y-89150000D01*
X165893368Y-89266525D01*
X165686525Y-89473368D01*
X165524010Y-89716589D01*
X165412068Y-89986842D01*
X165355000Y-90273740D01*
X165355000Y-90566260D01*
X165412068Y-90853158D01*
X165524010Y-91123411D01*
X165686525Y-91366632D01*
X165893368Y-91573475D01*
X166067760Y-91690000D01*
X165893368Y-91806525D01*
X165686525Y-92013368D01*
X165524010Y-92256589D01*
X165412068Y-92526842D01*
X165355000Y-92813740D01*
X165355000Y-93106260D01*
X165412068Y-93393158D01*
X165524010Y-93663411D01*
X165686525Y-93906632D01*
X165893368Y-94113475D01*
X166136589Y-94275990D01*
X166406842Y-94387932D01*
X166693740Y-94445000D01*
X166986260Y-94445000D01*
X167273158Y-94387932D01*
X167543411Y-94275990D01*
X167786632Y-94113475D01*
X167993475Y-93906632D01*
X168110000Y-93732240D01*
X168226525Y-93906632D01*
X168433368Y-94113475D01*
X168676589Y-94275990D01*
X168946842Y-94387932D01*
X169233740Y-94445000D01*
X169526260Y-94445000D01*
X169813158Y-94387932D01*
X170083411Y-94275990D01*
X170326632Y-94113475D01*
X170533475Y-93906632D01*
X170605000Y-93799587D01*
X170605000Y-108054982D01*
X170600960Y-108096000D01*
X170605000Y-108137018D01*
X170617082Y-108259688D01*
X170664828Y-108417086D01*
X170742364Y-108562145D01*
X170846709Y-108689291D01*
X170878579Y-108715446D01*
X171142350Y-108979218D01*
X171084000Y-109272565D01*
X171084000Y-109607435D01*
X171149330Y-109935872D01*
X171277479Y-110245252D01*
X171463523Y-110523687D01*
X171700313Y-110760477D01*
X171978748Y-110946521D01*
X172122265Y-111005967D01*
X171495533Y-111632700D01*
X166665907Y-111632700D01*
X166624899Y-111628661D01*
X166583891Y-111632700D01*
X166583881Y-111632700D01*
X166461211Y-111644782D01*
X166303813Y-111692528D01*
X166158754Y-111770064D01*
X166031609Y-111874409D01*
X166005461Y-111906271D01*
X163438800Y-114472933D01*
X163438800Y-108901062D01*
X163510320Y-109073727D01*
X163667363Y-109308759D01*
X163867241Y-109508637D01*
X164102273Y-109665680D01*
X164363426Y-109773853D01*
X164640665Y-109829000D01*
X164923335Y-109829000D01*
X165200574Y-109773853D01*
X165461727Y-109665680D01*
X165696759Y-109508637D01*
X165896637Y-109308759D01*
X166053680Y-109073727D01*
X166161853Y-108812574D01*
X166217000Y-108535335D01*
X166217000Y-108252665D01*
X166161853Y-107975426D01*
X166053680Y-107714273D01*
X165896637Y-107479241D01*
X165696759Y-107279363D01*
X165461727Y-107122320D01*
X165200574Y-107014147D01*
X164923335Y-106959000D01*
X164640665Y-106959000D01*
X164363426Y-107014147D01*
X164102273Y-107122320D01*
X163867241Y-107279363D01*
X163667363Y-107479241D01*
X163510320Y-107714273D01*
X163438800Y-107886938D01*
X163438800Y-82868531D01*
X165349389Y-82868531D01*
X165391401Y-83158019D01*
X165489081Y-83433747D01*
X165562528Y-83571157D01*
X165811603Y-83648792D01*
X166660395Y-82800000D01*
X167019605Y-82800000D01*
X167868397Y-83648792D01*
X168110000Y-83573486D01*
X168351603Y-83648792D01*
X169200395Y-82800000D01*
X168351603Y-81951208D01*
X168110000Y-82026514D01*
X167868397Y-81951208D01*
X167019605Y-82800000D01*
X166660395Y-82800000D01*
X165811603Y-81951208D01*
X165562528Y-82028843D01*
X165436629Y-82292883D01*
X165364661Y-82576411D01*
X165349389Y-82868531D01*
X163438800Y-82868531D01*
X163438800Y-81288397D01*
X165991208Y-81288397D01*
X166066514Y-81530000D01*
X165991208Y-81771603D01*
X166840000Y-82620395D01*
X167688792Y-81771603D01*
X167613486Y-81530000D01*
X167688792Y-81288397D01*
X168531208Y-81288397D01*
X168606514Y-81530000D01*
X168531208Y-81771603D01*
X169380000Y-82620395D01*
X170228792Y-81771603D01*
X170153486Y-81530000D01*
X170228792Y-81288397D01*
X169380000Y-80439605D01*
X168531208Y-81288397D01*
X167688792Y-81288397D01*
X166840000Y-80439605D01*
X165991208Y-81288397D01*
X163438800Y-81288397D01*
X163438800Y-80328531D01*
X165349389Y-80328531D01*
X165391401Y-80618019D01*
X165489081Y-80893747D01*
X165562528Y-81031157D01*
X165811603Y-81108792D01*
X166660395Y-80260000D01*
X167019605Y-80260000D01*
X167868397Y-81108792D01*
X168110000Y-81033486D01*
X168351603Y-81108792D01*
X169200395Y-80260000D01*
X168351603Y-79411208D01*
X168110000Y-79486514D01*
X167868397Y-79411208D01*
X167019605Y-80260000D01*
X166660395Y-80260000D01*
X165811603Y-79411208D01*
X165562528Y-79488843D01*
X165436629Y-79752883D01*
X165364661Y-80036411D01*
X165349389Y-80328531D01*
X163438800Y-80328531D01*
X163438800Y-78748397D01*
X165991208Y-78748397D01*
X166066514Y-78990000D01*
X165991208Y-79231603D01*
X166840000Y-80080395D01*
X167688792Y-79231603D01*
X167613486Y-78990000D01*
X167688792Y-78748397D01*
X168531208Y-78748397D01*
X168606514Y-78990000D01*
X168531208Y-79231603D01*
X169380000Y-80080395D01*
X170228792Y-79231603D01*
X170153486Y-78990000D01*
X170228792Y-78748397D01*
X169380000Y-77899605D01*
X168531208Y-78748397D01*
X167688792Y-78748397D01*
X166840000Y-77899605D01*
X165991208Y-78748397D01*
X163438800Y-78748397D01*
X163438800Y-77788531D01*
X165349389Y-77788531D01*
X165391401Y-78078019D01*
X165489081Y-78353747D01*
X165562528Y-78491157D01*
X165811603Y-78568792D01*
X166660395Y-77720000D01*
X167019605Y-77720000D01*
X167868397Y-78568792D01*
X168110000Y-78493486D01*
X168351603Y-78568792D01*
X169200395Y-77720000D01*
X168351603Y-76871208D01*
X168110000Y-76946514D01*
X167868397Y-76871208D01*
X167019605Y-77720000D01*
X166660395Y-77720000D01*
X165811603Y-76871208D01*
X165562528Y-76948843D01*
X165436629Y-77212883D01*
X165364661Y-77496411D01*
X165349389Y-77788531D01*
X163438800Y-77788531D01*
X163438800Y-67837287D01*
X163678665Y-67885000D01*
X163961335Y-67885000D01*
X164238574Y-67829853D01*
X164499727Y-67721680D01*
X164734759Y-67564637D01*
X164934637Y-67364759D01*
X165091680Y-67129727D01*
X165199853Y-66868574D01*
X165255000Y-66591335D01*
X165255000Y-66308665D01*
X165199853Y-66031426D01*
X165091680Y-65770273D01*
X164934637Y-65535241D01*
X164734759Y-65335363D01*
X164499727Y-65178320D01*
X164238574Y-65070147D01*
X163961335Y-65015000D01*
X163678665Y-65015000D01*
X163438800Y-65062713D01*
X163438800Y-63902067D01*
X163554582Y-63786285D01*
X163648665Y-63805000D01*
X163931335Y-63805000D01*
X164208574Y-63749853D01*
X164469727Y-63641680D01*
X164704759Y-63484637D01*
X164904637Y-63284759D01*
X165061680Y-63049727D01*
X165169853Y-62788574D01*
X165225000Y-62511335D01*
X165225000Y-62228665D01*
X165169853Y-61951426D01*
X165061680Y-61690273D01*
X164904637Y-61455241D01*
X164704759Y-61255363D01*
X164469727Y-61098320D01*
X164208574Y-60990147D01*
X163931335Y-60935000D01*
X163648665Y-60935000D01*
X163371426Y-60990147D01*
X163110273Y-61098320D01*
X162875241Y-61255363D01*
X162675363Y-61455241D01*
X162518320Y-61690273D01*
X162458000Y-61835899D01*
X162458000Y-59114101D01*
X162518320Y-59259727D01*
X162675363Y-59494759D01*
X162875241Y-59694637D01*
X163110273Y-59851680D01*
X163371426Y-59959853D01*
X163648665Y-60015000D01*
X163931335Y-60015000D01*
X164208574Y-59959853D01*
X164469727Y-59851680D01*
X164704759Y-59694637D01*
X164904637Y-59494759D01*
X165061680Y-59259727D01*
X165169853Y-58998574D01*
X165225000Y-58721335D01*
X165225000Y-58640668D01*
X165510101Y-58925769D01*
G37*
X165510101Y-58925769D02*
X165510100Y-60113781D01*
X165506060Y-60154800D01*
X165510100Y-60195818D01*
X165522182Y-60318488D01*
X165569928Y-60475886D01*
X165647464Y-60620945D01*
X165751809Y-60748091D01*
X165783679Y-60774246D01*
X170435018Y-65425586D01*
X170325363Y-65535241D01*
X170168320Y-65770273D01*
X170060147Y-66031426D01*
X170005000Y-66308665D01*
X170005000Y-66591335D01*
X170060147Y-66868574D01*
X170168320Y-67129727D01*
X170325363Y-67364759D01*
X170525241Y-67564637D01*
X170605001Y-67617931D01*
X170605001Y-74340414D01*
X170533475Y-74233368D01*
X170326632Y-74026525D01*
X170083411Y-73864010D01*
X169813158Y-73752068D01*
X169526260Y-73695000D01*
X169233740Y-73695000D01*
X168946842Y-73752068D01*
X168676589Y-73864010D01*
X168433368Y-74026525D01*
X168246285Y-74213608D01*
X168178405Y-74086614D01*
X168067962Y-73952038D01*
X167933386Y-73841595D01*
X167779850Y-73759528D01*
X167613254Y-73708992D01*
X167440000Y-73691928D01*
X166240000Y-73691928D01*
X166066746Y-73708992D01*
X165900150Y-73759528D01*
X165746614Y-73841595D01*
X165612038Y-73952038D01*
X165501595Y-74086614D01*
X165419528Y-74240150D01*
X165368992Y-74406746D01*
X165351928Y-74580000D01*
X165351928Y-75780000D01*
X165368992Y-75953254D01*
X165419528Y-76119850D01*
X165501595Y-76273386D01*
X165612038Y-76407962D01*
X165746614Y-76518405D01*
X165900150Y-76600472D01*
X166009293Y-76633580D01*
X165991208Y-76691603D01*
X166840000Y-77540395D01*
X167688792Y-76691603D01*
X167670707Y-76633580D01*
X167779850Y-76600472D01*
X167933386Y-76518405D01*
X168067962Y-76407962D01*
X168178405Y-76273386D01*
X168246285Y-76146392D01*
X168433368Y-76333475D01*
X168606729Y-76449311D01*
X168531208Y-76691603D01*
X169380000Y-77540395D01*
X170228792Y-76691603D01*
X170153271Y-76449311D01*
X170326632Y-76333475D01*
X170533475Y-76126632D01*
X170605001Y-76019586D01*
X170605001Y-76932488D01*
X170408397Y-76871208D01*
X169559605Y-77720000D01*
X170408397Y-78568792D01*
X170605001Y-78507512D01*
X170605001Y-79472488D01*
X170408397Y-79411208D01*
X169559605Y-80260000D01*
X170408397Y-81108792D01*
X170605001Y-81047512D01*
X170605001Y-82012488D01*
X170408397Y-81951208D01*
X169559605Y-82800000D01*
X170408397Y-83648792D01*
X170605001Y-83587512D01*
X170605001Y-84500414D01*
X170533475Y-84393368D01*
X170326632Y-84186525D01*
X170153271Y-84070689D01*
X170228792Y-83828397D01*
X169380000Y-82979605D01*
X168531208Y-83828397D01*
X168606729Y-84070689D01*
X168433368Y-84186525D01*
X168226525Y-84393368D01*
X168110000Y-84567760D01*
X167993475Y-84393368D01*
X167786632Y-84186525D01*
X167613271Y-84070689D01*
X167688792Y-83828397D01*
X166840000Y-82979605D01*
X165991208Y-83828397D01*
X166066729Y-84070689D01*
X165893368Y-84186525D01*
X165686525Y-84393368D01*
X165524010Y-84636589D01*
X165412068Y-84906842D01*
X165355000Y-85193740D01*
X165355000Y-85486260D01*
X165412068Y-85773158D01*
X165524010Y-86043411D01*
X165686525Y-86286632D01*
X165893368Y-86493475D01*
X166067760Y-86610000D01*
X165893368Y-86726525D01*
X165686525Y-86933368D01*
X165524010Y-87176589D01*
X165412068Y-87446842D01*
X165355000Y-87733740D01*
X165355000Y-88026260D01*
X165412068Y-88313158D01*
X165524010Y-88583411D01*
X165686525Y-88826632D01*
X165893368Y-89033475D01*
X166067760Y-89150000D01*
X165893368Y-89266525D01*
X165686525Y-89473368D01*
X165524010Y-89716589D01*
X165412068Y-89986842D01*
X165355000Y-90273740D01*
X165355000Y-90566260D01*
X165412068Y-90853158D01*
X165524010Y-91123411D01*
X165686525Y-91366632D01*
X165893368Y-91573475D01*
X166067760Y-91690000D01*
X165893368Y-91806525D01*
X165686525Y-92013368D01*
X165524010Y-92256589D01*
X165412068Y-92526842D01*
X165355000Y-92813740D01*
X165355000Y-93106260D01*
X165412068Y-93393158D01*
X165524010Y-93663411D01*
X165686525Y-93906632D01*
X165893368Y-94113475D01*
X166136589Y-94275990D01*
X166406842Y-94387932D01*
X166693740Y-94445000D01*
X166986260Y-94445000D01*
X167273158Y-94387932D01*
X167543411Y-94275990D01*
X167786632Y-94113475D01*
X167993475Y-93906632D01*
X168110000Y-93732240D01*
X168226525Y-93906632D01*
X168433368Y-94113475D01*
X168676589Y-94275990D01*
X168946842Y-94387932D01*
X169233740Y-94445000D01*
X169526260Y-94445000D01*
X169813158Y-94387932D01*
X170083411Y-94275990D01*
X170326632Y-94113475D01*
X170533475Y-93906632D01*
X170605000Y-93799587D01*
X170605000Y-108054982D01*
X170600960Y-108096000D01*
X170605000Y-108137018D01*
X170617082Y-108259688D01*
X170664828Y-108417086D01*
X170742364Y-108562145D01*
X170846709Y-108689291D01*
X170878579Y-108715446D01*
X171142350Y-108979218D01*
X171084000Y-109272565D01*
X171084000Y-109607435D01*
X171149330Y-109935872D01*
X171277479Y-110245252D01*
X171463523Y-110523687D01*
X171700313Y-110760477D01*
X171978748Y-110946521D01*
X172122265Y-111005967D01*
X171495533Y-111632700D01*
X166665907Y-111632700D01*
X166624899Y-111628661D01*
X166583891Y-111632700D01*
X166583881Y-111632700D01*
X166461211Y-111644782D01*
X166303813Y-111692528D01*
X166158754Y-111770064D01*
X166031609Y-111874409D01*
X166005461Y-111906271D01*
X163438800Y-114472933D01*
X163438800Y-108901062D01*
X163510320Y-109073727D01*
X163667363Y-109308759D01*
X163867241Y-109508637D01*
X164102273Y-109665680D01*
X164363426Y-109773853D01*
X164640665Y-109829000D01*
X164923335Y-109829000D01*
X165200574Y-109773853D01*
X165461727Y-109665680D01*
X165696759Y-109508637D01*
X165896637Y-109308759D01*
X166053680Y-109073727D01*
X166161853Y-108812574D01*
X166217000Y-108535335D01*
X166217000Y-108252665D01*
X166161853Y-107975426D01*
X166053680Y-107714273D01*
X165896637Y-107479241D01*
X165696759Y-107279363D01*
X165461727Y-107122320D01*
X165200574Y-107014147D01*
X164923335Y-106959000D01*
X164640665Y-106959000D01*
X164363426Y-107014147D01*
X164102273Y-107122320D01*
X163867241Y-107279363D01*
X163667363Y-107479241D01*
X163510320Y-107714273D01*
X163438800Y-107886938D01*
X163438800Y-82868531D01*
X165349389Y-82868531D01*
X165391401Y-83158019D01*
X165489081Y-83433747D01*
X165562528Y-83571157D01*
X165811603Y-83648792D01*
X166660395Y-82800000D01*
X167019605Y-82800000D01*
X167868397Y-83648792D01*
X168110000Y-83573486D01*
X168351603Y-83648792D01*
X169200395Y-82800000D01*
X168351603Y-81951208D01*
X168110000Y-82026514D01*
X167868397Y-81951208D01*
X167019605Y-82800000D01*
X166660395Y-82800000D01*
X165811603Y-81951208D01*
X165562528Y-82028843D01*
X165436629Y-82292883D01*
X165364661Y-82576411D01*
X165349389Y-82868531D01*
X163438800Y-82868531D01*
X163438800Y-81288397D01*
X165991208Y-81288397D01*
X166066514Y-81530000D01*
X165991208Y-81771603D01*
X166840000Y-82620395D01*
X167688792Y-81771603D01*
X167613486Y-81530000D01*
X167688792Y-81288397D01*
X168531208Y-81288397D01*
X168606514Y-81530000D01*
X168531208Y-81771603D01*
X169380000Y-82620395D01*
X170228792Y-81771603D01*
X170153486Y-81530000D01*
X170228792Y-81288397D01*
X169380000Y-80439605D01*
X168531208Y-81288397D01*
X167688792Y-81288397D01*
X166840000Y-80439605D01*
X165991208Y-81288397D01*
X163438800Y-81288397D01*
X163438800Y-80328531D01*
X165349389Y-80328531D01*
X165391401Y-80618019D01*
X165489081Y-80893747D01*
X165562528Y-81031157D01*
X165811603Y-81108792D01*
X166660395Y-80260000D01*
X167019605Y-80260000D01*
X167868397Y-81108792D01*
X168110000Y-81033486D01*
X168351603Y-81108792D01*
X169200395Y-80260000D01*
X168351603Y-79411208D01*
X168110000Y-79486514D01*
X167868397Y-79411208D01*
X167019605Y-80260000D01*
X166660395Y-80260000D01*
X165811603Y-79411208D01*
X165562528Y-79488843D01*
X165436629Y-79752883D01*
X165364661Y-80036411D01*
X165349389Y-80328531D01*
X163438800Y-80328531D01*
X163438800Y-78748397D01*
X165991208Y-78748397D01*
X166066514Y-78990000D01*
X165991208Y-79231603D01*
X166840000Y-80080395D01*
X167688792Y-79231603D01*
X167613486Y-78990000D01*
X167688792Y-78748397D01*
X168531208Y-78748397D01*
X168606514Y-78990000D01*
X168531208Y-79231603D01*
X169380000Y-80080395D01*
X170228792Y-79231603D01*
X170153486Y-78990000D01*
X170228792Y-78748397D01*
X169380000Y-77899605D01*
X168531208Y-78748397D01*
X167688792Y-78748397D01*
X166840000Y-77899605D01*
X165991208Y-78748397D01*
X163438800Y-78748397D01*
X163438800Y-77788531D01*
X165349389Y-77788531D01*
X165391401Y-78078019D01*
X165489081Y-78353747D01*
X165562528Y-78491157D01*
X165811603Y-78568792D01*
X166660395Y-77720000D01*
X167019605Y-77720000D01*
X167868397Y-78568792D01*
X168110000Y-78493486D01*
X168351603Y-78568792D01*
X169200395Y-77720000D01*
X168351603Y-76871208D01*
X168110000Y-76946514D01*
X167868397Y-76871208D01*
X167019605Y-77720000D01*
X166660395Y-77720000D01*
X165811603Y-76871208D01*
X165562528Y-76948843D01*
X165436629Y-77212883D01*
X165364661Y-77496411D01*
X165349389Y-77788531D01*
X163438800Y-77788531D01*
X163438800Y-67837287D01*
X163678665Y-67885000D01*
X163961335Y-67885000D01*
X164238574Y-67829853D01*
X164499727Y-67721680D01*
X164734759Y-67564637D01*
X164934637Y-67364759D01*
X165091680Y-67129727D01*
X165199853Y-66868574D01*
X165255000Y-66591335D01*
X165255000Y-66308665D01*
X165199853Y-66031426D01*
X165091680Y-65770273D01*
X164934637Y-65535241D01*
X164734759Y-65335363D01*
X164499727Y-65178320D01*
X164238574Y-65070147D01*
X163961335Y-65015000D01*
X163678665Y-65015000D01*
X163438800Y-65062713D01*
X163438800Y-63902067D01*
X163554582Y-63786285D01*
X163648665Y-63805000D01*
X163931335Y-63805000D01*
X164208574Y-63749853D01*
X164469727Y-63641680D01*
X164704759Y-63484637D01*
X164904637Y-63284759D01*
X165061680Y-63049727D01*
X165169853Y-62788574D01*
X165225000Y-62511335D01*
X165225000Y-62228665D01*
X165169853Y-61951426D01*
X165061680Y-61690273D01*
X164904637Y-61455241D01*
X164704759Y-61255363D01*
X164469727Y-61098320D01*
X164208574Y-60990147D01*
X163931335Y-60935000D01*
X163648665Y-60935000D01*
X163371426Y-60990147D01*
X163110273Y-61098320D01*
X162875241Y-61255363D01*
X162675363Y-61455241D01*
X162518320Y-61690273D01*
X162458000Y-61835899D01*
X162458000Y-59114101D01*
X162518320Y-59259727D01*
X162675363Y-59494759D01*
X162875241Y-59694637D01*
X163110273Y-59851680D01*
X163371426Y-59959853D01*
X163648665Y-60015000D01*
X163931335Y-60015000D01*
X164208574Y-59959853D01*
X164469727Y-59851680D01*
X164704759Y-59694637D01*
X164904637Y-59494759D01*
X165061680Y-59259727D01*
X165169853Y-58998574D01*
X165225000Y-58721335D01*
X165225000Y-58640668D01*
X165510101Y-58925769D01*
G36*
X190715821Y-54340877D02*
G01*
X190833400Y-54610000D01*
X192278000Y-54610000D01*
X192278000Y-54590000D01*
X192532000Y-54590000D01*
X192532000Y-54610000D01*
X193976600Y-54610000D01*
X194094179Y-54340877D01*
X193996970Y-54055700D01*
X194313533Y-54055700D01*
X195556259Y-55298426D01*
X195582409Y-55330291D01*
X195676501Y-55407510D01*
X195709554Y-55434636D01*
X195854613Y-55512172D01*
X195937928Y-55537445D01*
X195937928Y-55837000D01*
X195950188Y-55961482D01*
X195986498Y-56081180D01*
X196045463Y-56191494D01*
X196124815Y-56288185D01*
X196221506Y-56367537D01*
X196331820Y-56426502D01*
X196451518Y-56462812D01*
X196576000Y-56475072D01*
X198341301Y-56475072D01*
X198341301Y-63294626D01*
X198182081Y-63228675D01*
X197846883Y-63162000D01*
X197505117Y-63162000D01*
X197169919Y-63228675D01*
X196854169Y-63359463D01*
X196570002Y-63549337D01*
X196328337Y-63791002D01*
X196147262Y-64062000D01*
X194143072Y-64062000D01*
X194143072Y-63797000D01*
X194130812Y-63672518D01*
X194094502Y-63552820D01*
X194035537Y-63442506D01*
X193956185Y-63345815D01*
X193859494Y-63266463D01*
X193749180Y-63207498D01*
X193629482Y-63171188D01*
X193505000Y-63158928D01*
X191305000Y-63158928D01*
X191180518Y-63171188D01*
X191060820Y-63207498D01*
X190950506Y-63266463D01*
X190853815Y-63345815D01*
X190774463Y-63442506D01*
X190715498Y-63552820D01*
X190679188Y-63672518D01*
X190666928Y-63797000D01*
X190666928Y-65997000D01*
X190679188Y-66121482D01*
X190715498Y-66241180D01*
X190774463Y-66351494D01*
X190853815Y-66448185D01*
X190950506Y-66527537D01*
X191060820Y-66586502D01*
X191180518Y-66622812D01*
X191305000Y-66635072D01*
X193505000Y-66635072D01*
X193629482Y-66622812D01*
X193749180Y-66586502D01*
X193859494Y-66527537D01*
X193956185Y-66448185D01*
X194035537Y-66351494D01*
X194094502Y-66241180D01*
X194130812Y-66121482D01*
X194143072Y-65997000D01*
X194143072Y-65732000D01*
X196147262Y-65732000D01*
X196328337Y-66002998D01*
X196570002Y-66244663D01*
X196854169Y-66434537D01*
X197169919Y-66565325D01*
X197505117Y-66632000D01*
X197846883Y-66632000D01*
X198182081Y-66565325D01*
X198341301Y-66499374D01*
X198341301Y-67078015D01*
X198221094Y-67018925D01*
X198008122Y-66954325D01*
X197739000Y-67072375D01*
X197739000Y-68516500D01*
X197759000Y-68516500D01*
X197759000Y-68770500D01*
X197739000Y-68770500D01*
X197739000Y-70214625D01*
X198008122Y-70332675D01*
X198221094Y-70268075D01*
X198341301Y-70208985D01*
X198341300Y-76896294D01*
X198309636Y-76837054D01*
X198205291Y-76709909D01*
X198173427Y-76683759D01*
X193240000Y-71750333D01*
X193240000Y-71505738D01*
X193510998Y-71324663D01*
X193752663Y-71082998D01*
X193942537Y-70798831D01*
X194073325Y-70483081D01*
X194140000Y-70147883D01*
X194140000Y-69806117D01*
X194073325Y-69470919D01*
X193942537Y-69155169D01*
X193865332Y-69039623D01*
X195922821Y-69039623D01*
X196032558Y-69361554D01*
X196202992Y-69655891D01*
X196427573Y-69911322D01*
X196697671Y-70118031D01*
X197002906Y-70268075D01*
X197215878Y-70332675D01*
X197485000Y-70214625D01*
X197485000Y-68770500D01*
X196040400Y-68770500D01*
X195922821Y-69039623D01*
X193865332Y-69039623D01*
X193752663Y-68871002D01*
X193510998Y-68629337D01*
X193226831Y-68439463D01*
X192911081Y-68308675D01*
X192602916Y-68247377D01*
X195922821Y-68247377D01*
X196040400Y-68516500D01*
X197485000Y-68516500D01*
X197485000Y-67072375D01*
X197215878Y-66954325D01*
X197002906Y-67018925D01*
X196697671Y-67168969D01*
X196427573Y-67375678D01*
X196202992Y-67631109D01*
X196032558Y-67925446D01*
X195922821Y-68247377D01*
X192602916Y-68247377D01*
X192575883Y-68242000D01*
X192234117Y-68242000D01*
X191898919Y-68308675D01*
X191583169Y-68439463D01*
X191299002Y-68629337D01*
X191057337Y-68871002D01*
X190867463Y-69155169D01*
X190736675Y-69470919D01*
X190670000Y-69806117D01*
X190670000Y-70147883D01*
X190736675Y-70483081D01*
X190867463Y-70798831D01*
X191057337Y-71082998D01*
X191299002Y-71324663D01*
X191570000Y-71505738D01*
X191570000Y-72055181D01*
X191565960Y-72096200D01*
X191570000Y-72137218D01*
X191582082Y-72259888D01*
X191629828Y-72417286D01*
X191707364Y-72562345D01*
X191811709Y-72689491D01*
X191843579Y-72715646D01*
X196250948Y-77123016D01*
X196157506Y-77172963D01*
X196060815Y-77252315D01*
X195981463Y-77349006D01*
X195922498Y-77459320D01*
X195886188Y-77579018D01*
X195873928Y-77703500D01*
X195873928Y-79903500D01*
X195886188Y-80027982D01*
X195922498Y-80147680D01*
X195981463Y-80257994D01*
X196060815Y-80354685D01*
X196157506Y-80434037D01*
X196267820Y-80493002D01*
X196387518Y-80529312D01*
X196512000Y-80541572D01*
X198341300Y-80541572D01*
X198341300Y-81111515D01*
X198221094Y-81052425D01*
X198008122Y-80987825D01*
X197739000Y-81105875D01*
X197739000Y-82550000D01*
X197759000Y-82550000D01*
X197759000Y-82804000D01*
X197739000Y-82804000D01*
X197739000Y-84248125D01*
X198008122Y-84366175D01*
X198221094Y-84301575D01*
X198341300Y-84242485D01*
X198341300Y-89426532D01*
X197050574Y-90717259D01*
X197018710Y-90743409D01*
X196992562Y-90775271D01*
X196914364Y-90870555D01*
X196836828Y-91015614D01*
X196811555Y-91098928D01*
X196512000Y-91098928D01*
X196387518Y-91111188D01*
X196267820Y-91147498D01*
X196157506Y-91206463D01*
X196060815Y-91285815D01*
X195981463Y-91382506D01*
X195922498Y-91492820D01*
X195886188Y-91612518D01*
X195873928Y-91737000D01*
X195873928Y-92750860D01*
X190755000Y-87631933D01*
X190755000Y-84468167D01*
X192150045Y-83073123D01*
X195922821Y-83073123D01*
X196032558Y-83395054D01*
X196202992Y-83689391D01*
X196427573Y-83944822D01*
X196697671Y-84151531D01*
X197002906Y-84301575D01*
X197215878Y-84366175D01*
X197485000Y-84248125D01*
X197485000Y-82804000D01*
X196040400Y-82804000D01*
X195922821Y-83073123D01*
X192150045Y-83073123D01*
X192942291Y-82280877D01*
X195922821Y-82280877D01*
X196040400Y-82550000D01*
X197485000Y-82550000D01*
X197485000Y-81105875D01*
X197215878Y-80987825D01*
X197002906Y-81052425D01*
X196697671Y-81202469D01*
X196427573Y-81409178D01*
X196202992Y-81664609D01*
X196032558Y-81958946D01*
X195922821Y-82280877D01*
X192942291Y-82280877D01*
X192966432Y-82256737D01*
X192998291Y-82230591D01*
X193102636Y-82103446D01*
X193180172Y-81958387D01*
X193205445Y-81875072D01*
X193505000Y-81875072D01*
X193629482Y-81862812D01*
X193749180Y-81826502D01*
X193859494Y-81767537D01*
X193956185Y-81688185D01*
X194035537Y-81591494D01*
X194094502Y-81481180D01*
X194130812Y-81361482D01*
X194143072Y-81237000D01*
X194143072Y-79037000D01*
X194130812Y-78912518D01*
X194094502Y-78792820D01*
X194035537Y-78682506D01*
X193956185Y-78585815D01*
X193859494Y-78506463D01*
X193749180Y-78447498D01*
X193629482Y-78411188D01*
X193505000Y-78398928D01*
X193205445Y-78398928D01*
X193180172Y-78315613D01*
X193102636Y-78170554D01*
X192998291Y-78043409D01*
X192966427Y-78017259D01*
X184079000Y-69129833D01*
X184079000Y-66947199D01*
X184222505Y-66851312D01*
X184436312Y-66637505D01*
X184604299Y-66386095D01*
X184720011Y-66106743D01*
X184779000Y-65810184D01*
X184779000Y-65507816D01*
X184745329Y-65338538D01*
X188203428Y-61880440D01*
X188235291Y-61854291D01*
X188339636Y-61727146D01*
X188417172Y-61582087D01*
X188464918Y-61424689D01*
X188477000Y-61302019D01*
X188477000Y-61302017D01*
X188481040Y-61261001D01*
X188477000Y-61219985D01*
X188477000Y-55133123D01*
X190715821Y-55133123D01*
X190825558Y-55455054D01*
X190995992Y-55749391D01*
X191220573Y-56004822D01*
X191490671Y-56211531D01*
X191795906Y-56361575D01*
X192008878Y-56426175D01*
X192278000Y-56308125D01*
X192278000Y-54864000D01*
X192532000Y-54864000D01*
X192532000Y-56308125D01*
X192801122Y-56426175D01*
X193014094Y-56361575D01*
X193319329Y-56211531D01*
X193589427Y-56004822D01*
X193814008Y-55749391D01*
X193984442Y-55455054D01*
X194094179Y-55133123D01*
X193976600Y-54864000D01*
X192532000Y-54864000D01*
X192278000Y-54864000D01*
X190833400Y-54864000D01*
X190715821Y-55133123D01*
X188477000Y-55133123D01*
X188477000Y-54055700D01*
X190813030Y-54055700D01*
X190715821Y-54340877D01*
G37*
X190715821Y-54340877D02*
X190833400Y-54610000D01*
X192278000Y-54610000D01*
X192278000Y-54590000D01*
X192532000Y-54590000D01*
X192532000Y-54610000D01*
X193976600Y-54610000D01*
X194094179Y-54340877D01*
X193996970Y-54055700D01*
X194313533Y-54055700D01*
X195556259Y-55298426D01*
X195582409Y-55330291D01*
X195676501Y-55407510D01*
X195709554Y-55434636D01*
X195854613Y-55512172D01*
X195937928Y-55537445D01*
X195937928Y-55837000D01*
X195950188Y-55961482D01*
X195986498Y-56081180D01*
X196045463Y-56191494D01*
X196124815Y-56288185D01*
X196221506Y-56367537D01*
X196331820Y-56426502D01*
X196451518Y-56462812D01*
X196576000Y-56475072D01*
X198341301Y-56475072D01*
X198341301Y-63294626D01*
X198182081Y-63228675D01*
X197846883Y-63162000D01*
X197505117Y-63162000D01*
X197169919Y-63228675D01*
X196854169Y-63359463D01*
X196570002Y-63549337D01*
X196328337Y-63791002D01*
X196147262Y-64062000D01*
X194143072Y-64062000D01*
X194143072Y-63797000D01*
X194130812Y-63672518D01*
X194094502Y-63552820D01*
X194035537Y-63442506D01*
X193956185Y-63345815D01*
X193859494Y-63266463D01*
X193749180Y-63207498D01*
X193629482Y-63171188D01*
X193505000Y-63158928D01*
X191305000Y-63158928D01*
X191180518Y-63171188D01*
X191060820Y-63207498D01*
X190950506Y-63266463D01*
X190853815Y-63345815D01*
X190774463Y-63442506D01*
X190715498Y-63552820D01*
X190679188Y-63672518D01*
X190666928Y-63797000D01*
X190666928Y-65997000D01*
X190679188Y-66121482D01*
X190715498Y-66241180D01*
X190774463Y-66351494D01*
X190853815Y-66448185D01*
X190950506Y-66527537D01*
X191060820Y-66586502D01*
X191180518Y-66622812D01*
X191305000Y-66635072D01*
X193505000Y-66635072D01*
X193629482Y-66622812D01*
X193749180Y-66586502D01*
X193859494Y-66527537D01*
X193956185Y-66448185D01*
X194035537Y-66351494D01*
X194094502Y-66241180D01*
X194130812Y-66121482D01*
X194143072Y-65997000D01*
X194143072Y-65732000D01*
X196147262Y-65732000D01*
X196328337Y-66002998D01*
X196570002Y-66244663D01*
X196854169Y-66434537D01*
X197169919Y-66565325D01*
X197505117Y-66632000D01*
X197846883Y-66632000D01*
X198182081Y-66565325D01*
X198341301Y-66499374D01*
X198341301Y-67078015D01*
X198221094Y-67018925D01*
X198008122Y-66954325D01*
X197739000Y-67072375D01*
X197739000Y-68516500D01*
X197759000Y-68516500D01*
X197759000Y-68770500D01*
X197739000Y-68770500D01*
X197739000Y-70214625D01*
X198008122Y-70332675D01*
X198221094Y-70268075D01*
X198341301Y-70208985D01*
X198341300Y-76896294D01*
X198309636Y-76837054D01*
X198205291Y-76709909D01*
X198173427Y-76683759D01*
X193240000Y-71750333D01*
X193240000Y-71505738D01*
X193510998Y-71324663D01*
X193752663Y-71082998D01*
X193942537Y-70798831D01*
X194073325Y-70483081D01*
X194140000Y-70147883D01*
X194140000Y-69806117D01*
X194073325Y-69470919D01*
X193942537Y-69155169D01*
X193865332Y-69039623D01*
X195922821Y-69039623D01*
X196032558Y-69361554D01*
X196202992Y-69655891D01*
X196427573Y-69911322D01*
X196697671Y-70118031D01*
X197002906Y-70268075D01*
X197215878Y-70332675D01*
X197485000Y-70214625D01*
X197485000Y-68770500D01*
X196040400Y-68770500D01*
X195922821Y-69039623D01*
X193865332Y-69039623D01*
X193752663Y-68871002D01*
X193510998Y-68629337D01*
X193226831Y-68439463D01*
X192911081Y-68308675D01*
X192602916Y-68247377D01*
X195922821Y-68247377D01*
X196040400Y-68516500D01*
X197485000Y-68516500D01*
X197485000Y-67072375D01*
X197215878Y-66954325D01*
X197002906Y-67018925D01*
X196697671Y-67168969D01*
X196427573Y-67375678D01*
X196202992Y-67631109D01*
X196032558Y-67925446D01*
X195922821Y-68247377D01*
X192602916Y-68247377D01*
X192575883Y-68242000D01*
X192234117Y-68242000D01*
X191898919Y-68308675D01*
X191583169Y-68439463D01*
X191299002Y-68629337D01*
X191057337Y-68871002D01*
X190867463Y-69155169D01*
X190736675Y-69470919D01*
X190670000Y-69806117D01*
X190670000Y-70147883D01*
X190736675Y-70483081D01*
X190867463Y-70798831D01*
X191057337Y-71082998D01*
X191299002Y-71324663D01*
X191570000Y-71505738D01*
X191570000Y-72055181D01*
X191565960Y-72096200D01*
X191570000Y-72137218D01*
X191582082Y-72259888D01*
X191629828Y-72417286D01*
X191707364Y-72562345D01*
X191811709Y-72689491D01*
X191843579Y-72715646D01*
X196250948Y-77123016D01*
X196157506Y-77172963D01*
X196060815Y-77252315D01*
X195981463Y-77349006D01*
X195922498Y-77459320D01*
X195886188Y-77579018D01*
X195873928Y-77703500D01*
X195873928Y-79903500D01*
X195886188Y-80027982D01*
X195922498Y-80147680D01*
X195981463Y-80257994D01*
X196060815Y-80354685D01*
X196157506Y-80434037D01*
X196267820Y-80493002D01*
X196387518Y-80529312D01*
X196512000Y-80541572D01*
X198341300Y-80541572D01*
X198341300Y-81111515D01*
X198221094Y-81052425D01*
X198008122Y-80987825D01*
X197739000Y-81105875D01*
X197739000Y-82550000D01*
X197759000Y-82550000D01*
X197759000Y-82804000D01*
X197739000Y-82804000D01*
X197739000Y-84248125D01*
X198008122Y-84366175D01*
X198221094Y-84301575D01*
X198341300Y-84242485D01*
X198341300Y-89426532D01*
X197050574Y-90717259D01*
X197018710Y-90743409D01*
X196992562Y-90775271D01*
X196914364Y-90870555D01*
X196836828Y-91015614D01*
X196811555Y-91098928D01*
X196512000Y-91098928D01*
X196387518Y-91111188D01*
X196267820Y-91147498D01*
X196157506Y-91206463D01*
X196060815Y-91285815D01*
X195981463Y-91382506D01*
X195922498Y-91492820D01*
X195886188Y-91612518D01*
X195873928Y-91737000D01*
X195873928Y-92750860D01*
X190755000Y-87631933D01*
X190755000Y-84468167D01*
X192150045Y-83073123D01*
X195922821Y-83073123D01*
X196032558Y-83395054D01*
X196202992Y-83689391D01*
X196427573Y-83944822D01*
X196697671Y-84151531D01*
X197002906Y-84301575D01*
X197215878Y-84366175D01*
X197485000Y-84248125D01*
X197485000Y-82804000D01*
X196040400Y-82804000D01*
X195922821Y-83073123D01*
X192150045Y-83073123D01*
X192942291Y-82280877D01*
X195922821Y-82280877D01*
X196040400Y-82550000D01*
X197485000Y-82550000D01*
X197485000Y-81105875D01*
X197215878Y-80987825D01*
X197002906Y-81052425D01*
X196697671Y-81202469D01*
X196427573Y-81409178D01*
X196202992Y-81664609D01*
X196032558Y-81958946D01*
X195922821Y-82280877D01*
X192942291Y-82280877D01*
X192966432Y-82256737D01*
X192998291Y-82230591D01*
X193102636Y-82103446D01*
X193180172Y-81958387D01*
X193205445Y-81875072D01*
X193505000Y-81875072D01*
X193629482Y-81862812D01*
X193749180Y-81826502D01*
X193859494Y-81767537D01*
X193956185Y-81688185D01*
X194035537Y-81591494D01*
X194094502Y-81481180D01*
X194130812Y-81361482D01*
X194143072Y-81237000D01*
X194143072Y-79037000D01*
X194130812Y-78912518D01*
X194094502Y-78792820D01*
X194035537Y-78682506D01*
X193956185Y-78585815D01*
X193859494Y-78506463D01*
X193749180Y-78447498D01*
X193629482Y-78411188D01*
X193505000Y-78398928D01*
X193205445Y-78398928D01*
X193180172Y-78315613D01*
X193102636Y-78170554D01*
X192998291Y-78043409D01*
X192966427Y-78017259D01*
X184079000Y-69129833D01*
X184079000Y-66947199D01*
X184222505Y-66851312D01*
X184436312Y-66637505D01*
X184604299Y-66386095D01*
X184720011Y-66106743D01*
X184779000Y-65810184D01*
X184779000Y-65507816D01*
X184745329Y-65338538D01*
X188203428Y-61880440D01*
X188235291Y-61854291D01*
X188339636Y-61727146D01*
X188417172Y-61582087D01*
X188464918Y-61424689D01*
X188477000Y-61302019D01*
X188477000Y-61302017D01*
X188481040Y-61261001D01*
X188477000Y-61219985D01*
X188477000Y-55133123D01*
X190715821Y-55133123D01*
X190825558Y-55455054D01*
X190995992Y-55749391D01*
X191220573Y-56004822D01*
X191490671Y-56211531D01*
X191795906Y-56361575D01*
X192008878Y-56426175D01*
X192278000Y-56308125D01*
X192278000Y-54864000D01*
X192532000Y-54864000D01*
X192532000Y-56308125D01*
X192801122Y-56426175D01*
X193014094Y-56361575D01*
X193319329Y-56211531D01*
X193589427Y-56004822D01*
X193814008Y-55749391D01*
X193984442Y-55455054D01*
X194094179Y-55133123D01*
X193976600Y-54864000D01*
X192532000Y-54864000D01*
X192278000Y-54864000D01*
X190833400Y-54864000D01*
X190715821Y-55133123D01*
X188477000Y-55133123D01*
X188477000Y-54055700D01*
X190813030Y-54055700D01*
X190715821Y-54340877D01*
%TD*%
M02*
