%TF.GenerationSoftware,KiCad,Pcbnew,(5.1.6)-1*%
%TF.CreationDate,2021-03-18T12:54:03+09:00*%
%TF.ProjectId,MultiClockDiv,4d756c74-6943-46c6-9f63-6b4469762e6b,rev?*%
%TF.SameCoordinates,Original*%
%TF.FileFunction,Legend,Bot*%
%TF.FilePolarity,Positive*%
%FSLAX46Y46*%
G04 Gerber Fmt 4.6, Leading zero omitted, Abs format (unit mm)*
G04 Created by KiCad (PCBNEW (5.1.6)-1) date 2021-03-18 12:54:03*
%MOMM*%
%LPD*%
G01*
G04 APERTURE LIST*
%ADD10C,0.100000*%
%ADD11C,0.120000*%
%ADD12C,0.150000*%
G04 APERTURE END LIST*
D10*
%TO.C,SW1*%
X191562000Y-105041000D02*
X191562000Y-104691000D01*
X191187000Y-105041000D02*
X191562000Y-105041000D01*
X178662000Y-105041000D02*
X179062000Y-105041000D01*
X178662000Y-105041000D02*
X178662000Y-104666000D01*
X178662000Y-97991000D02*
X178662000Y-98416000D01*
X178662000Y-97991000D02*
X179112000Y-97991000D01*
X191537000Y-97991000D02*
X191087000Y-97991000D01*
X191562000Y-97991000D02*
X191562000Y-98416000D01*
D11*
%TO.C,RV2*%
X185765000Y-52539000D02*
X175724000Y-52539000D01*
X177374000Y-64779000D02*
X175724000Y-64779000D01*
X179873000Y-64779000D02*
X179114000Y-64779000D01*
X182373000Y-64779000D02*
X181614000Y-64779000D01*
X185765000Y-64779000D02*
X184115000Y-64779000D01*
X175724000Y-56475000D02*
X175724000Y-52539000D01*
X175724000Y-64779000D02*
X175724000Y-60842000D01*
X185765000Y-56475000D02*
X185765000Y-52539000D01*
X185765000Y-64779000D02*
X185765000Y-60842000D01*
%TO.C,RV1*%
X185765000Y-71208000D02*
X175724000Y-71208000D01*
X177374000Y-83448000D02*
X175724000Y-83448000D01*
X179873000Y-83448000D02*
X179114000Y-83448000D01*
X182373000Y-83448000D02*
X181614000Y-83448000D01*
X185765000Y-83448000D02*
X184115000Y-83448000D01*
X175724000Y-75144000D02*
X175724000Y-71208000D01*
X175724000Y-83448000D02*
X175724000Y-79511000D01*
X185765000Y-75144000D02*
X185765000Y-71208000D01*
X185765000Y-83448000D02*
X185765000Y-79511000D01*
%TO.C,J4*%
X188170000Y-121840000D02*
X189030000Y-121840000D01*
X188170000Y-121840000D02*
X188170000Y-121040000D01*
X191030000Y-114360000D02*
G75*
G03*
X191030000Y-114360000I-1800000J0D01*
G01*
X188880000Y-118860000D02*
X184730000Y-118860000D01*
X193730000Y-118860000D02*
X189580000Y-118860000D01*
X188730000Y-108360000D02*
X184730000Y-108360000D01*
X193730000Y-108360000D02*
X189730000Y-108360000D01*
X193730000Y-118860000D02*
X193730000Y-108360000D01*
X184730000Y-118860000D02*
X184730000Y-108360000D01*
%TO.C,J3*%
X171724000Y-121840000D02*
X172584000Y-121840000D01*
X171724000Y-121840000D02*
X171724000Y-121040000D01*
X174584000Y-114360000D02*
G75*
G03*
X174584000Y-114360000I-1800000J0D01*
G01*
X172434000Y-118860000D02*
X168284000Y-118860000D01*
X177284000Y-118860000D02*
X173134000Y-118860000D01*
X172284000Y-108360000D02*
X168284000Y-108360000D01*
X177284000Y-108360000D02*
X173284000Y-108360000D01*
X177284000Y-118860000D02*
X177284000Y-108360000D01*
X168284000Y-118860000D02*
X168284000Y-108360000D01*
%TO.C,J2*%
X171724000Y-151686000D02*
X172584000Y-151686000D01*
X171724000Y-151686000D02*
X171724000Y-150886000D01*
X174584000Y-144206000D02*
G75*
G03*
X174584000Y-144206000I-1800000J0D01*
G01*
X172434000Y-148706000D02*
X168284000Y-148706000D01*
X177284000Y-148706000D02*
X173134000Y-148706000D01*
X172284000Y-138206000D02*
X168284000Y-138206000D01*
X177284000Y-138206000D02*
X173284000Y-138206000D01*
X177284000Y-148706000D02*
X177284000Y-138206000D01*
X168284000Y-148706000D02*
X168284000Y-138206000D01*
%TO.C,J1*%
X171724000Y-136763000D02*
X172584000Y-136763000D01*
X171724000Y-136763000D02*
X171724000Y-135963000D01*
X174584000Y-129283000D02*
G75*
G03*
X174584000Y-129283000I-1800000J0D01*
G01*
X172434000Y-133783000D02*
X168284000Y-133783000D01*
X177284000Y-133783000D02*
X173134000Y-133783000D01*
X172284000Y-123283000D02*
X168284000Y-123283000D01*
X177284000Y-123283000D02*
X173284000Y-123283000D01*
X177284000Y-133783000D02*
X177284000Y-123283000D01*
X168284000Y-133783000D02*
X168284000Y-123283000D01*
%TO.C,D7*%
X173074000Y-100564000D02*
X173074000Y-100408000D01*
X173074000Y-102880000D02*
X173074000Y-102724000D01*
X175675130Y-100564163D02*
G75*
G03*
X173593039Y-100564000I-1041130J-1079837D01*
G01*
X175675130Y-102723837D02*
G75*
G02*
X173593039Y-102724000I-1041130J1079837D01*
G01*
X176306335Y-100565392D02*
G75*
G03*
X173074000Y-100408484I-1672335J-1078608D01*
G01*
X176306335Y-102722608D02*
G75*
G02*
X173074000Y-102879516I-1672335J1078608D01*
G01*
%TO.C,D4*%
X187988000Y-143319000D02*
X187988000Y-143163000D01*
X187988000Y-145635000D02*
X187988000Y-145479000D01*
X190589130Y-143319163D02*
G75*
G03*
X188507039Y-143319000I-1041130J-1079837D01*
G01*
X190589130Y-145478837D02*
G75*
G02*
X188507039Y-145479000I-1041130J1079837D01*
G01*
X191220335Y-143320392D02*
G75*
G03*
X187988000Y-143163484I-1672335J-1078608D01*
G01*
X191220335Y-145477608D02*
G75*
G02*
X187988000Y-145634516I-1672335J1078608D01*
G01*
%TO.C,D1*%
X187860000Y-128016000D02*
X187860000Y-127860000D01*
X187860000Y-130332000D02*
X187860000Y-130176000D01*
X190461130Y-128016163D02*
G75*
G03*
X188379039Y-128016000I-1041130J-1079837D01*
G01*
X190461130Y-130175837D02*
G75*
G02*
X188379039Y-130176000I-1041130J1079837D01*
G01*
X191092335Y-128017392D02*
G75*
G03*
X187860000Y-127860484I-1672335J-1078608D01*
G01*
X191092335Y-130174608D02*
G75*
G02*
X187860000Y-130331516I-1672335J1078608D01*
G01*
%TO.C,SW1*%
D12*
X186585333Y-106470761D02*
X186442476Y-106518380D01*
X186204380Y-106518380D01*
X186109142Y-106470761D01*
X186061523Y-106423142D01*
X186013904Y-106327904D01*
X186013904Y-106232666D01*
X186061523Y-106137428D01*
X186109142Y-106089809D01*
X186204380Y-106042190D01*
X186394857Y-105994571D01*
X186490095Y-105946952D01*
X186537714Y-105899333D01*
X186585333Y-105804095D01*
X186585333Y-105708857D01*
X186537714Y-105613619D01*
X186490095Y-105566000D01*
X186394857Y-105518380D01*
X186156761Y-105518380D01*
X186013904Y-105566000D01*
X185680571Y-105518380D02*
X185442476Y-106518380D01*
X185252000Y-105804095D01*
X185061523Y-106518380D01*
X184823428Y-105518380D01*
X183918666Y-106518380D02*
X184490095Y-106518380D01*
X184204380Y-106518380D02*
X184204380Y-105518380D01*
X184299619Y-105661238D01*
X184394857Y-105756476D01*
X184490095Y-105804095D01*
%TO.C,RV2*%
X188846380Y-59013761D02*
X188370190Y-58680428D01*
X188846380Y-58442333D02*
X187846380Y-58442333D01*
X187846380Y-58823285D01*
X187894000Y-58918523D01*
X187941619Y-58966142D01*
X188036857Y-59013761D01*
X188179714Y-59013761D01*
X188274952Y-58966142D01*
X188322571Y-58918523D01*
X188370190Y-58823285D01*
X188370190Y-58442333D01*
X187846380Y-59299476D02*
X188846380Y-59632809D01*
X187846380Y-59966142D01*
X187941619Y-60251857D02*
X187894000Y-60299476D01*
X187846380Y-60394714D01*
X187846380Y-60632809D01*
X187894000Y-60728047D01*
X187941619Y-60775666D01*
X188036857Y-60823285D01*
X188132095Y-60823285D01*
X188274952Y-60775666D01*
X188846380Y-60204238D01*
X188846380Y-60823285D01*
%TO.C,RV1*%
X188846380Y-77682761D02*
X188370190Y-77349428D01*
X188846380Y-77111333D02*
X187846380Y-77111333D01*
X187846380Y-77492285D01*
X187894000Y-77587523D01*
X187941619Y-77635142D01*
X188036857Y-77682761D01*
X188179714Y-77682761D01*
X188274952Y-77635142D01*
X188322571Y-77587523D01*
X188370190Y-77492285D01*
X188370190Y-77111333D01*
X187846380Y-77968476D02*
X188846380Y-78301809D01*
X187846380Y-78635142D01*
X188846380Y-79492285D02*
X188846380Y-78920857D01*
X188846380Y-79206571D02*
X187846380Y-79206571D01*
X187989238Y-79111333D01*
X188084476Y-79016095D01*
X188132095Y-78920857D01*
%TO.C,J4*%
X185533333Y-119212380D02*
X185533333Y-119926666D01*
X185580952Y-120069523D01*
X185676190Y-120164761D01*
X185819047Y-120212380D01*
X185914285Y-120212380D01*
X184628571Y-119545714D02*
X184628571Y-120212380D01*
X184866666Y-119164761D02*
X185104761Y-119879047D01*
X184485714Y-119879047D01*
%TO.C,J3*%
X169087333Y-119212380D02*
X169087333Y-119926666D01*
X169134952Y-120069523D01*
X169230190Y-120164761D01*
X169373047Y-120212380D01*
X169468285Y-120212380D01*
X168706380Y-119212380D02*
X168087333Y-119212380D01*
X168420666Y-119593333D01*
X168277809Y-119593333D01*
X168182571Y-119640952D01*
X168134952Y-119688571D01*
X168087333Y-119783809D01*
X168087333Y-120021904D01*
X168134952Y-120117142D01*
X168182571Y-120164761D01*
X168277809Y-120212380D01*
X168563523Y-120212380D01*
X168658761Y-120164761D01*
X168706380Y-120117142D01*
%TO.C,J2*%
X169087333Y-149058380D02*
X169087333Y-149772666D01*
X169134952Y-149915523D01*
X169230190Y-150010761D01*
X169373047Y-150058380D01*
X169468285Y-150058380D01*
X168658761Y-149153619D02*
X168611142Y-149106000D01*
X168515904Y-149058380D01*
X168277809Y-149058380D01*
X168182571Y-149106000D01*
X168134952Y-149153619D01*
X168087333Y-149248857D01*
X168087333Y-149344095D01*
X168134952Y-149486952D01*
X168706380Y-150058380D01*
X168087333Y-150058380D01*
%TO.C,J1*%
X169087333Y-134135380D02*
X169087333Y-134849666D01*
X169134952Y-134992523D01*
X169230190Y-135087761D01*
X169373047Y-135135380D01*
X169468285Y-135135380D01*
X168087333Y-135135380D02*
X168658761Y-135135380D01*
X168373047Y-135135380D02*
X168373047Y-134135380D01*
X168468285Y-134278238D01*
X168563523Y-134373476D01*
X168658761Y-134421095D01*
%TO.C,D7*%
X175372095Y-105056380D02*
X175372095Y-104056380D01*
X175134000Y-104056380D01*
X174991142Y-104104000D01*
X174895904Y-104199238D01*
X174848285Y-104294476D01*
X174800666Y-104484952D01*
X174800666Y-104627809D01*
X174848285Y-104818285D01*
X174895904Y-104913523D01*
X174991142Y-105008761D01*
X175134000Y-105056380D01*
X175372095Y-105056380D01*
X174467333Y-104056380D02*
X173800666Y-104056380D01*
X174229238Y-105056380D01*
%TO.C,D4*%
X190286095Y-147811380D02*
X190286095Y-146811380D01*
X190048000Y-146811380D01*
X189905142Y-146859000D01*
X189809904Y-146954238D01*
X189762285Y-147049476D01*
X189714666Y-147239952D01*
X189714666Y-147382809D01*
X189762285Y-147573285D01*
X189809904Y-147668523D01*
X189905142Y-147763761D01*
X190048000Y-147811380D01*
X190286095Y-147811380D01*
X188857523Y-147144714D02*
X188857523Y-147811380D01*
X189095619Y-146763761D02*
X189333714Y-147478047D01*
X188714666Y-147478047D01*
%TO.C,D1*%
X190158095Y-132508380D02*
X190158095Y-131508380D01*
X189920000Y-131508380D01*
X189777142Y-131556000D01*
X189681904Y-131651238D01*
X189634285Y-131746476D01*
X189586666Y-131936952D01*
X189586666Y-132079809D01*
X189634285Y-132270285D01*
X189681904Y-132365523D01*
X189777142Y-132460761D01*
X189920000Y-132508380D01*
X190158095Y-132508380D01*
X188634285Y-132508380D02*
X189205714Y-132508380D01*
X188920000Y-132508380D02*
X188920000Y-131508380D01*
X189015238Y-131651238D01*
X189110476Y-131746476D01*
X189205714Y-131794095D01*
%TD*%
M02*
