M48
; DRILL file {KiCad (5.1.6)-1} date 03/18/21 12:54:06
; FORMAT={-:-/ absolute / inch / decimal}
; #@! TF.CreationDate,2021-03-18T12:54:06+09:00
; #@! TF.GenerationSoftware,Kicad,Pcbnew,(5.1.6)-1
FMAT,2
INCH
T1C0.0157
T2C0.0315
T3C0.0354
T4C0.0394
T5C0.0433
T6C0.0480
T7C0.0559
T8C0.0563
T9C0.0728
T10C0.0787
%
G90
G05
T1
X7.1364Y-3.8061
T2
X6.4484Y-2.4555
X6.7484Y-2.4555
X6.485Y-5.6
X6.485Y-5.9
X6.4475Y-2.1575
X6.7475Y-2.1575
X7.0157Y-1.985
X7.2125Y-1.985
X7.3325Y-5.4625
X7.5294Y-5.4625
X7.755Y-3.8
X7.755Y-4.1
X7.28Y-5.3075
X7.58Y-5.3075
X6.4484Y-2.3063
X6.7484Y-2.3063
X6.4875Y-4.2675
X6.4875Y-4.5675
X6.4825Y-5.155
X6.4825Y-5.455
X6.485Y-4.72
X6.485Y-5.02
X6.4496Y-2.6161
X6.7496Y-2.6161
T3
X7.4075Y-5.0825
X7.5075Y-5.0825
X7.4125Y-5.685
X7.5125Y-5.685
X6.8254Y-4.0017
X6.9254Y-4.0017
T4
X6.5685Y-2.9598
X6.5685Y-3.0598
X6.5685Y-3.1598
X6.5685Y-3.2598
X6.5685Y-3.3598
X6.5685Y-3.4598
X6.5685Y-3.5598
X6.5685Y-3.6598
X6.6685Y-2.9598
X6.6685Y-3.0598
X6.6685Y-3.1598
X6.6685Y-3.2598
X6.6685Y-3.3598
X6.6685Y-3.4598
X6.6685Y-3.5598
X6.6685Y-3.6598
X7.0175Y-2.585
X7.1159Y-2.585
X7.2143Y-2.585
X7.1325Y-4.3275
X7.1325Y-4.4275
X7.1325Y-4.5275
X7.1325Y-4.6275
X7.1325Y-4.7275
X7.1325Y-4.8275
X7.1325Y-4.9275
X7.1325Y-5.0275
X7.1325Y-5.1275
X7.1325Y-5.2275
X7.1325Y-5.3275
X7.1325Y-5.4275
X7.1325Y-5.5275
X7.1325Y-5.6275
X7.1325Y-5.7275
X7.7325Y-4.3275
X7.7325Y-4.4275
X7.7325Y-4.5275
X7.7325Y-4.6275
X7.7325Y-4.7275
X7.7325Y-4.8275
X7.7325Y-4.9275
X7.7325Y-5.0275
X7.7325Y-5.1275
X7.7325Y-5.2275
X7.7325Y-5.3275
X7.7325Y-5.4275
X7.7325Y-5.5275
X7.7325Y-5.6275
X7.7325Y-5.7275
X7.0175Y-3.32
X7.1159Y-3.32
X7.2143Y-3.32
T5
X7.78Y-2.7025
X7.78Y-3.1025
X7.1827Y-3.7228
X7.5827Y-3.7228
X7.575Y-2.755
X7.575Y-3.155
X7.7825Y-2.155
X7.7825Y-2.555
X7.78Y-3.255
X7.78Y-3.655
X6.455Y-1.985
X6.855Y-1.985
X7.575Y-2.155
X7.575Y-2.555
X7.3875Y-1.9775
X7.7875Y-1.9775
T6
X6.8025Y-5.345
X7.45Y-4.7575
X6.8025Y-5.9325
X6.8025Y-4.7575
T7
X6.8025Y-5.223
X7.45Y-4.6354
X6.8025Y-5.8105
X6.8025Y-4.6354
T8
X6.8025Y-4.8962
X7.45Y-4.3087
X6.8025Y-5.4837
X6.8025Y-4.3087
T9
X7.1028Y-3.9967
X7.2879Y-3.9967
X7.4729Y-3.9967
T10
X6.9427Y-3.0444
X7.2891Y-3.0444
X6.9427Y-2.3094
X7.2891Y-2.3094
T0
M30
